<?xml version="1.0" encoding="utf-8"?>
<!-- Generator: Adobe Illustrator 24.3.0, SVG Export Plug-In . SVG Version: 6.00 Build 0)  -->
<svg version="1.1" id="Layer_1" xmlns="http://www.w3.org/2000/svg" xmlns:xlink="http://www.w3.org/1999/xlink" x="0px" y="0px"
	 viewBox="0 0 512 512" style="enable-background:new 0 0 512 512;" xml:space="preserve">
<style type="text/css">
	.st0{fill:#004FA3;}
</style>
<g>
	<path class="st0" d="M268.2,25.3c-0.7,2.6-1.4,5.3-2,7.9c0.1,0.1,0.2,0.1,0.3,0.2c2-1.5,4-3.1,6.1-4.7c0,5.1,0,10.1,0,15.2
		c-2.2-1.3-4.3-2.5-6.4-3.7c-0.1,0-0.2,0.1-0.3,0.1c0.3,1.9-0.6,3.9,0.7,5.7c1.1,1.4,2,2.9,3.1,4.3c0.8,1,1.1,2,1,3.2
		c-0.1,0.7,0,1.5,0,2.4c0.7-0.2,1.2-0.4,1.8-0.6c-0.5-1.2-0.9-2.3-1.4-3.5c0.6-0.3,1.2-0.5,1.8-0.7c0.5,1.1,0.8,2.1,1.3,3.1
		c0.2,0.3,0.6,0.7,1,0.7c1.1,0,2.2-0.3,3.5-0.4c-0.2-1.5-0.3-2.9-0.5-4.3c0.4-0.1,0.7-0.1,1-0.2c0.7-0.2,1,0,1,0.7
		c0.1,1,0.2,2,0.4,3c0.1,0.3,0.4,0.7,0.6,0.7c1.3,0.1,2.7,0,3.9,0c0-1.1,0-2.1,0-3.2c-0.1-1.7-0.1-1.7,1.8-1.5
		c0.1,1.2,0.2,2.4,0.2,3.6c0,0.9,0.3,1.3,1.2,1.3c1.3,0.1,2.7,0.2,4.2,0.4c0.2-1.8,0.5-3.5,0.7-5.4c0.6,0,1.2,0.1,1.9,0.1
		c-0.2,1.9-0.4,3.6-0.6,5.7c1.7,0.1,3.3,0.3,5,0.4c0.2,0,0.5-0.5,0.7-0.8c0.5-1.5,1-3,1.5-4.4c0.2,0,0.3-0.1,0.3,0
		c1.6,0.5,1.6,0.5,1.1,2c-0.4,1.1-0.7,2.2-1.1,3.3c1.5,0.4,2.9,0.8,4.4,1.1c0.2,0,0.6-0.3,0.7-0.5c0.5-1,0.9-2.1,1.3-3.2
		c0.6,0.2,1.1,0.4,1.8,0.7c-0.4,1.1-0.8,2.1-1.3,3.2c-0.2,0.5-0.2,0.8,0.3,1.1c1.2,0.7,2.4,1.4,3.7,2.1c1.3-1.2,2.7-2.5,4.2-3.8
		c0.4,0.5,0.8,0.9,1.3,1.4c-1.3,1.2-2.6,2.4-3.9,3.6c1,1.1,2.1,2,2.7,3.2c0.7,1.3,1.4,1.5,2.6,1.1c0.9-0.3,1.9-0.4,3-0.6
		c0.1,0.6,0.2,1.2,0.4,1.9c-1.5,0.3-3,0.6-4.5,1c0.2,1.8,0.3,3.5,0.5,5.2c0,0.2,0.5,0.5,0.8,0.5c1.3,0.2,2.7,0.3,4.2,0.4
		c-0.1,0.7-0.2,1.2-0.3,1.9c-1.2-0.1-2.3-0.1-3.4-0.3c-1.1-0.1-1.3,0.3-1.3,1.3c0.1,9-1.9,17.6-6,25.7c-0.5,1.1-1.2,2.1-1.7,3.1
		c-1.4,2.6-1.5,5.1,0.1,7.6c0.4,0.6,0.7,1.2,1.1,1.7c1.1,1.4,1.1,2.8,0.4,4.4c-1,2.3-2.7,4-5.5,4.5c31.6,13.1,55.3,34.4,70.4,64.9
		c15,30.5,17.8,62.3,8.7,95c-7.7,27.6-23.1,50.2-45.5,68c-22.4,17.7-48,27-76.8,28.4c0.6,2.7,1.2,5.3,1.8,8.1
		c3.4-3.9,7.8-5.2,12.2-6.4c2.2-0.6,4.5-0.8,6.8-1.1c3-0.4,5.3,1,7.2,3c2.2,2.3,3.8,4.9,4.9,7.8c0.2,0.5,0.2,1.2,0.3,1.7
		c-0.1,0-0.2,0.1-0.3,0.1c-0.2-0.1-0.4-0.2-0.5-0.4c-3.1-3.3-6.7-4-10.9-2.6c-3.1,1.1-5.7,2.9-8.1,5.1c-0.1,0.1-0.2,0.3-0.4,0.6
		c0.6,0,1.1,0,1.6,0c12.7-0.8,25.3-2.4,37.5-6.3c5.7-1.8,10.6-4.9,15.3-8.4c10.6-7.8,20.4-16.4,28.8-26.6c3.8-4.6,7.1-9.4,9.6-14.7
		c0.5-1.1,0.9-2.5,1-3.7c0.4-4.2,0.7-8.4,0.8-12.5c0.2-6.2,3-10.9,7.8-14.5c1.6-1.2,3.1-2.5,4.7-3.7c2-1.5,4.4-2.1,6.7-2.6
		c5.6-1.2,11.4-1.6,17.1-0.9c0.8,0.1,1.2-0.3,1.4-0.9c0.6-2,1.3-4,1.8-6.1c0.5-2.4,0.8-4.8,1-7.2c0.1-1.1-0.4-2.2-0.5-3.3
		c-0.1-2.1-0.1-4.1,0.1-6.2c0.2-2.3,0-4.4-1.7-6.2c-1.5-1.5-3.3-1.6-4.7,0.1c-1.4,1.8-2.6,3.8-3.8,5.7c-0.2,0.2-0.3,0.5-0.6,1
		c-0.3-1.5-0.6-2.7-0.7-4c-0.3-2.7-0.5-5.5-0.7-8.2c-0.3-4.5,2.7-6.6,6.2-7.1c2.7-0.4,5.3-0.9,8.1-0.5c1.4,0.2,2.6-1.1,2.5-2.5
		c0-0.5-0.1-1.1-0.3-1.5c-0.9-2.1-0.5-4,0.5-5.9c0.2-0.5,0.3-1.2,0.2-1.7c-0.4-1.3-0.9-2.6-1.6-3.8c-1.5-2.3-2.1-4.8-2.5-7.4
		c-0.3-2.1-0.8-4.1-2.5-5.5c-2.2-1.8-4.4-1.4-5.5,1.3c-0.9,2.2-1.6,4.5-2.4,6.9c-0.3-0.6-0.6-1.1-0.8-1.7c-1.6-3.4-3-6.8-3.9-10.5
		c-0.7-3.1,1.1-5.8,3.1-6.8c2.7-1.2,5.4-2.3,8.3-3.1c2.4-0.7,3.3-2.3,1.8-4.4c-1.3-1.9-1.7-3.9-1.2-6.1c0.1-0.5,0-1.2-0.3-1.6
		c-0.9-1.4-1.9-2.8-3-3.9c-1.7-1.6-2.9-3.4-3.8-5.5c-0.5-1.1-1-2.1-1.5-3.1c-0.7-1.4-1.9-2.2-3.4-2.7c-2.1-0.7-4,0.3-4.3,2.6
		c-0.3,2.1-0.3,4.3-0.5,6.4c0,0.3,0,0.7,0,1.2c-0.2-0.1-0.3-0.1-0.4-0.2c-2.3-3.1-4.7-6.2-7-9.4c-2.6-3.7-0.8-7.2,1.6-9.1
		c2.2-1.6,4.4-3.1,6.7-4.5c1.7-1,2-2.7,0.7-4.1c-0.4-0.5-1-0.8-1.4-1.3c-0.6-0.8-1.2-1.7-1.5-2.6c-0.9-2.6-2.1-4.9-4.7-6.4
		c-1.8-1-3.4-2.6-5.1-3.7c-1.4-0.9-2.8-1.8-4.3-2.3c-2.2-0.7-3.8,0.9-3.5,3.2c0.3,1.9,0.7,3.7,1.1,5.6c-0.1,0-0.3,0-0.4-0.1
		c-2.6-2-5.1-4-7.6-6.2c-2.3-1.9-1.9-5-0.7-6.7c1.4-1.9,2.9-3.7,4.5-5.4c1.4-1.5,1.4-3-0.5-3.8c-2-0.9-3.1-2.4-3.6-4.5
		c-0.1-0.4-0.4-0.9-0.8-1.2c-1.3-0.8-2.5-1.7-3.9-2.2c-1.9-0.7-3.6-1.8-5.1-3.1c-1.2-1-2.4-1.9-4.1-1.8c-2,0.1-3,1.3-2.4,3.1
		c0.5,1.7,1.2,3.3,1.9,5c-0.6-0.2-1.1-0.4-1.6-0.7c-2.2-1.2-4.4-2.4-6.5-3.7c-2.3-1.4-2.3-4.2-1.5-5.8c0.9-1.9,2.1-3.7,3.2-5.5
		c0.8-1.2,0.6-2.6-0.8-3c-4-0.9-4.4-4.2-5.4-7.3c2.1-0.6,4.1-0.5,6.1,0.1c1.5,0.4,2.5,1.2,2.7,2.9c0.1,0.4,0.5,1.1,0.8,1.1
		c0.5,0,1.3-0.2,1.6-0.6c1.7-1.9,3.7-3.6,6-4.8c2-1,3.8-0.8,5.5,0.6c2.2,1.8,4,3.9,5.9,6.5c-1.6,0-2.9,0-4.2,0
		c-0.8,0-1.7,0.1-2.5,0.4c-1.7,0.6-2.3,2.2-1.5,3.8c0.6,1.1,1.4,2.1,2.4,2.9c1,0.9,2.2,1.7,3.3,2.4c1.2,0.9,1.9,2,2.2,3.5
		c0.1,0.5,0.3,1.1,0.4,1.6c0.1,0.8,0.5,1.1,1.3,1.3c1.4,0.4,2.7,1,4,1.6c1.1,0.5,1.6,1.5,1.5,2.8c0,0.7-0.2,1.6,0.7,1.9
		c0.9,0.4,1.6,0,2.3-0.6c2.2-1.9,4.6-3.2,7.4-4c2.3-0.6,4.2-0.2,5.8,1.7c2.1,2.5,3.7,5.2,5.3,8.3c-1.7-0.2-3.1-0.5-4.6-0.6
		c-0.9-0.1-1.8-0.2-2.7-0.1c-2,0.3-3.1,2-2.5,3.9c0.4,1.1,1,2.2,1.8,2.9c2.7,2.2,4.5,4.9,5.6,8.2c0.2,0.5,0.8,1,1.3,1.4
		c1.3,1,2.7,1.8,4,2.8c1.6,1.2,2.1,2.9,1.5,4.9c-0.2,0.7-0.5,1.5,0.2,2c0.8,0.6,1.7,0.6,2.6,0.1c3.3-1.6,6.9-2.5,10.6-2.5
		c2.6,0,4.5,1.1,5.7,3.4c1.7,3.3,2.8,6.9,3.6,10.6c0.1,0.3,0.1,0.7,0.2,1.2c-1.7-0.7-3.2-1.4-4.8-2c-1-0.4-2-0.9-3.1-1.1
		c-2.6-0.6-4.6,1.1-4.7,3.8c-0.1,1.9,0.4,3.6,1.4,5.2c1,1.6,1.9,3.3,2.8,5c1,1.7,1,3.6,0.8,5.4c0,0.2-0.1,0.3-0.1,0.5
		c-0.1,1.7-0.4,3.4,1.1,4.7c0.4,0.4,0.7,1.1,1,1.6c0.8,1.3,0.8,2.7,0,4c-0.1,0.2-0.3,0.5-0.4,0.8c-0.1,0.6-0.3,1.3-0.1,1.7
		c0.4,0.7,1.1,0.9,2,0.9c2.6-0.2,5.3-0.4,7.9-0.4c1.2,0,2.4,0.4,3.6,0.7c2.6,0.7,3.9,2.5,4.4,5c0.8,3.9,0.7,7.8,0.6,11.7
		c0,0.1-0.1,0.1-0.2,0.3c-0.2-0.2-0.5-0.3-0.7-0.5c-1.5-1.2-2.9-2.4-4.4-3.5c-0.9-0.6-1.9-1.2-2.9-1.3c-2.4-0.4-4.1,1.1-4.3,4
		c-0.1,1.3-0.1,2.6,0.2,3.9c0.9,4.2,0.8,8.4-0.3,12.5c-0.2,0.8,0.1,1.7,0.3,2.5c0.3,1.1,0.7,2.1,1,3.1c0.4,1.5-0.2,2.7-1.2,3.7
		c-0.6,0.6-1.4,1.1-1,2.1c0.5,1.1,1.4,1.3,2.5,1.4c3.5,0.3,6.9,1.3,10,3.1c2.2,1.3,3.3,3.1,3.2,5.7c-0.2,4.2-1.2,8.1-2.6,12.3
		c-1-1.3-1.9-2.5-2.8-3.6c-0.7-0.9-1.3-1.8-2-2.6c-2.4-2.4-5.2-2-6.8,1c-0.7,1.4-1.1,3-1.1,4.6c0,1.9,0.2,3.8-0.1,5.7
		c-0.3,2.2-1,4.4-1.7,6.5c-0.7,2-1.7,3.9-2.7,5.8c-1,1.9-1.8,3.9-4,5.1c1.7,0.6,3.3,1.1,4.7,1.7c1.2,0.5,2.4,1,3.5,1.7
		c4.9,2.9,6.7,6.7,5.4,12.3c-0.2,0.9,0.1,1.2,0.9,1.5c2,0.6,1.9,0.6,3.1-1c0.5-0.6,0.9-1.2,1.5-1.8c1.5-1.5,3.2-2.3,5.4-1.6
		c2.2,0.7,3.6,2.2,4.2,4.5c0.1,0.3,0.2,0.6,0.3,0.9c0,0.6,0,1.3,0,1.9c-0.3,1.1-0.4,2.3-0.8,3.4c-1,2.8-2.1,5.6-3.3,8.3
		c-2,4.7-4,9.3-6.2,13.9c-0.9,1.9-2.2,3.6-3.6,5.2c-0.6,0.8-1.8,1.3-2.8,1.5c-2.3,0.6-4.7,0.8-7,1.3c-2.5,0.6-5.1,1.3-7.6,1.9
		c-0.7,0.2-1.1,0.5-1.5,1.2c-5.1,9.4-10.6,18.5-17.4,26.7c-4.9,5.9-10.7,10.9-16.7,15.7c-6.5,5.3-13.3,10.3-20.8,14.1
		c-5.8,2.9-11.7,5.5-17.7,8.1c-7.4,3.1-14.6,2.5-21.7-1.1c-0.3-0.2-0.7-0.3-1-0.5c-0.1,0-0.1,0-0.3,0c0.1,0.1,0.1,0.3,0.2,0.3
		c3,3.7,3,7.7,0.8,11.6c-0.9,1.7-2.2,3.4-3.6,4.8c-6.6,6.4-14.2,11.5-23,14.4c-3.4,1.1-6.8,1.9-10.4,1.8c-2.2-0.1-4.3-0.6-6.4-1
		c-0.6-0.1-0.9-0.2-1.4,0.3c-5.1,5.8-10.1,11.6-15.2,17.3c-0.5,0.5-0.5,0.9,0,1.4c3.1,3.5,6.1,7.1,9.2,10.7c0.2,0.2,0.3,0.4,0.5,0.6
		c-0.3,0.3-0.6,0.6-1,1c-3.4-3.9-6.7-7.8-10.2-11.9c-3.6,4.1-7.1,8.1-10.7,12.1c-0.4-0.3-0.7-0.6-1.1-0.9c3.6-4.1,7.2-8.2,10.8-12.3
		c-1.8-2.2-3.6-4.2-5.4-6.3c-3.4-3.9-6.8-7.9-10.2-11.8c-0.3-0.3-0.9-0.6-1.2-0.5c-5.4,2-10.8,1.5-16.2-0.1
		c-8.5-2.5-15.9-7.1-22.4-12.9c-2.3-2-4.4-4.2-5.8-6.9c-2.4-4.9-1.6-9.1,2.4-12.8c0.2-0.2,0.4-0.2,0.6-0.4c-0.1-0.1-0.1-0.2-0.2-0.3
		c-0.2,0.1-0.5,0.1-0.7,0.2c-7.8,3.4-15.6,2.8-23.5,0.1c-13.7-4.7-25.8-12.1-36.9-21.2c-6.3-5.2-12.5-10.7-17.7-17.1
		c-5.7-7.2-10.6-15-15-23c-0.4-0.8-0.9-1.1-1.8-1.2c-4-0.6-8-1.3-12.1-2c-0.8-0.1-1.5-0.1-2.3-0.2c-2.2-0.4-3.7-1.9-5.2-3.3
		c-3-2.8-4.9-6.3-6.5-10c-2.2-5.2-4.4-10.5-6.4-15.7c-0.8-2-1.2-4.2-0.8-6.4c0.5-2.7,2-4.4,4.5-5.3c2.3-0.8,4.4-0.1,6.1,1.6
		c0.4,0.4,0.9,0.9,1.2,1.4c0.5,0.9,1.2,1,2.1,0.6c1-0.4,2.4-0.4,2.9-1.1c0.4-0.7-0.1-2-0.3-3c-0.5-3.6,0.6-6.6,3.4-9
		c3.2-2.7,7-3.9,11-5c0.4-0.1,0.8-0.2,1.4-0.4c-0.2-0.4-0.4-0.7-0.6-1c-2.5-4.2-4.8-8.5-5.9-13.3c-0.5-2-0.4-4.2-0.4-6.3
		c0-2.3-0.1-4.5-1.3-6.5c-1.5-2.5-3.8-3-6-1.1c-0.6,0.5-1,1-1.5,1.6c-1.2,1.6-2.4,3.2-3.7,4.8c0,0-0.1,0-0.3,0.1
		c-0.5-1.7-1.1-3.4-1.4-5.1c-0.4-2.1-0.8-4.1-1-6.2c-0.3-2.6,0.5-4.8,2.8-6.3c3.1-1.9,6.4-2.8,9.9-3.3c1-0.1,2.1,0,2.7-1
		c0.4-0.6,0.5-1.2,0-1.7c-0.3-0.4-0.6-0.8-1-1.1c-1.1-1-1.3-2.3-0.9-3.7c0.2-0.6,0.2-1.4,0.6-1.9c0.9-1.6,0.9-3.2,0.4-4.9
		c-1.1-3.8-0.8-7.7,0.1-11.5c0.4-1.6,0.3-3.3-0.3-4.9c-0.7-2.3-2.7-3.3-4.9-2.4c-0.9,0.3-1.7,0.9-2.5,1.5c-1.6,1.2-3.1,2.4-4.8,3.7
		c0-2.9,0-5.5,0-8.1c0-1.2,0.3-2.3,0.5-3.4c0.7-3.7,1.7-5.1,6.3-6c3.2-0.6,6.4-0.6,9.7,0.1c0.9,0.2,1.6-0.2,2-0.8
		c0.3-0.4,0.3-1.3,0-1.6c-1.9-2.7-0.7-4.9,0.9-7c0.6-0.7,0.9-1.5,0.8-2.4c-0.1-1.7-0.5-3.5-0.1-5.1c0.5-2,1.6-3.9,2.5-5.8
		c0.7-1.7,1.7-3.3,2.3-5c0.3-0.9,0.3-2,0.2-2.9c-0.2-2.3-2.6-3.7-5.1-2.9c-2.1,0.7-4.1,1.6-6.1,2.4c-0.4,0.2-0.8,0.3-1.4,0.5
		c1.1-4.6,2-9,4.6-12.9c0.9-1.4,2.4-2.1,4-2.2c3.9-0.4,7.6,0.7,11.2,2.2c0.7,0.3,1.4,0.8,2.3,0.4c0.9-0.4,1.3-1,1-1.8
		c-1.2-3.1,0.5-5,2.8-6.7c0.9-0.6,1.8-1.1,2.7-1.6c0.4-0.3,0.9-0.7,1.1-1.2c1.1-3.4,2.9-6.2,5.7-8.4c0.6-0.5,1.1-1.2,1.4-1.9
		c0.6-1.2,0.8-2.5-0.2-3.7c-1-1.1-2.3-1.4-3.6-1.2c-1.7,0.2-3.3,0.5-5,0.7c-0.2,0-0.3,0-0.7-0.1c1.8-3.4,3.5-6.7,6.4-9.2
		c1.4-1.2,3.1-1.1,4.7-0.6c2.6,0.7,4.8,2,6.9,3.6c0.4,0.3,0.7,0.7,1.2,0.9c1,0.6,2.3,0.1,2.2-1c-0.2-2.8,1.6-3.9,3.8-4.7
		c0.5-0.2,1-0.4,1.5-0.5c1.1-0.1,1.6-0.6,1.7-1.6c0.3-2.8,1.8-4.7,4.2-6.1c1.7-1,3.3-2.1,4.1-4c0.8-1.7,0.1-3.4-1.7-4
		c-0.7-0.2-1.4-0.3-2.1-0.3c-1.4,0-2.7,0-4.1,0c-0.1-0.1-0.1-0.2-0.2-0.3c1.2-1.4,2.4-2.8,3.6-4.2c0.6-0.7,1.3-1.2,2-1.9
		c1.9-1.7,4-1.9,6-0.6c1.8,1.2,3.5,2.7,5.2,4.1c0.3,0.3,0.5,0.7,0.9,0.9c0.8,0.6,1.8,0.3,1.9-0.5c0.4-3.2,2.9-3.5,5.3-3.8
		c1.2-0.1,2.4,0.1,3.7,0.1c-0.5,2.4-1.1,4.5-2.6,6.2c-0.5,0.5-1.3,0.8-2,1.1c-2.3,0.8-2.6,1.8-1.2,3.7c1.1,1.6,2.1,3.3,2.9,5.1
		c0.8,1.9,0.6,4.2-1.5,5.6c-2.5,1.8-5.3,3.2-8.2,4.5c0.6-1.5,1.2-2.9,1.8-4.3c0.4-1.1,0.8-2.4-0.3-3.3c-1.2-1-2.6-0.9-3.9-0.3
		c-0.8,0.4-1.5,1-2.1,1.5c-1.4,1.3-3,2.4-4.8,2.9c-0.9,0.3-1.7,0.8-2.5,1.3c-1.4,0.7-2.5,1.6-2.8,3.3c-0.3,1.5-1.3,2.5-2.7,3.1
		c-0.4,0.2-0.9,0.5-1.3,0.8c-1,0.9-0.9,2.2,0.1,3.2c1.6,1.7,3.1,3.4,4.5,5.3c1.4,1.9,1.8,5-0.6,7.1c-2.5,2.2-5.2,4.3-7.7,6.5
		c-0.1-0.1-0.2-0.2-0.3-0.3c0.3-1.1,0.5-2.1,0.8-3.2c0.2-1,0.4-1.9,0.5-2.9c0.2-1.6-0.9-2.8-2.5-2.9c-1.4-0.1-2.6,0.4-3.7,1.2
		c-1.6,1.1-3.1,2.4-4.6,3.5c-0.7,0.5-1.5,1.1-2.3,1.5c-2.4,1.2-3.5,3.4-4.3,5.7c-0.5,1.5-1.1,2.9-2.4,3.9c-0.3,0.2-0.5,0.5-0.8,0.7
		c-1.2,1.4-0.8,3,0.7,4c2.4,1.5,4.8,3.1,7,4.8c2.8,2.3,3.3,5.2,1.6,8.4c-2,3.7-4.7,6.9-7.6,10.3c0-0.6,0-0.9,0-1.2
		c-0.1-2.2-0.2-4.4-0.4-6.5c-0.3-2.3-2.1-3.3-4.3-2.6c-1.6,0.5-2.9,1.5-3.6,3.1c-0.5,0.9-0.9,1.9-1.4,2.9c-0.9,2-2,3.8-3.7,5.3
		c-0.7,0.6-1.3,1.4-1.9,2.1c-1.1,1.3-1.9,2.7-1.4,4.6c0.4,1.6-0.1,3.2-1.1,4.6c-0.3,0.4-0.6,1-0.8,1.5c-0.5,1.4,0.4,2.7,1.8,3.2
		c2.7,0.8,5.3,1.8,8,2.7c0.8,0.3,1.5,0.8,2.1,1.4c1.7,1.6,2.5,3.5,1.9,6c-1,4.3-2.8,8.2-4.7,12.2c-0.7-2.1-1.3-4.1-2-6.1
		c-0.2-0.5-0.4-0.9-0.6-1.4c-1-1.9-2.7-2.4-4.5-1.3c-2.2,1.3-3,3.5-3.3,5.8c-0.4,2.7-0.9,5.4-2.6,7.7c-0.4,0.6-0.6,1.2-1,1.9
		c-0.7,1.5-1.1,2.9-0.1,4.5c1,1.6,0.6,3.3,0,5c-0.4,1.1-0.5,2.2,0.4,3c0.5,0.4,1.2,0.8,1.8,0.8c3.1-0.2,6.2,0.2,9.2,0.8
		c2.6,0.6,5.1,2.6,5.1,6.3c0,4.2-0.7,8.4-1.5,12.8c-0.7-1.1-1.2-2.1-1.8-3c-0.8-1.2-1.6-2.4-2.5-3.5c-1.5-1.8-3.4-1.7-5,0
		c-1.6,1.8-1.8,3.9-1.5,6.2c0.3,2.6,0.4,5.2-0.3,7.7c-0.3,1-0.2,2.3,0,3.3c0.6,3.5,1.4,6.9,2.1,10.4c0.2,1.1,0.9,1.3,2,1.3
		c6.7-0.2,13.2,0.4,19.4,3.1c5.4,2.3,9.2,6.3,12.1,11.2c1.5,2.5,1.8,5.3,2,8c0.4,4.7,0.5,9.4,0.9,14.1c0.1,0.8,0.4,1.7,0.8,2.5
		c3.9,7.6,9.1,14.3,15,20.5c8.6,9,18.1,16.8,28.4,23.8c4.3,2.9,9.2,4.7,14.2,6c4.2,1.1,8.4,1.8,12.6,2.8c0.7,0.2,1-0.2,1.3-0.7
		c1.3-2.5,2.5-5.2,4-7.5c1.9-3,4.6-4.9,8.3-5.2c1.9-0.2,3.7,0.3,5.4,1.1c3.4,1.6,6.1,4.2,8.8,6.7c1,0.9,2,1.8,3.2,2.8
		c0.9-3.4,1.8-6.5,2.6-9.6c-37.5-4.1-68.4-20.4-92.1-49.7c-15.1-18.7-24.3-40.1-27.5-63.9c-4.3-31.7,1.7-61.5,18.7-88.7
		c16.9-27.2,40.9-45.7,71.1-56.3c-1.4,0.2-2.7,0.4-4.1,0.7c-3.8,0.6-6.8-1.6-7.4-5.4c-0.4-2.5,0.1-4.7,2-6.4
		c1.8-1.6,2.2-3.6,1.5-5.8c-1.6-5.2-3.1-10.4-4.8-15.5c-1.6-4.7-2.4-9.6-2.1-14.5c0.1-1.4,0.1-1.4-1.4-1.5c-1.2,0-2.3-0.1-3.5-0.2
		c-0.5-1.7-0.3-1.9,1.3-1.8c1,0,2,0,3,0.1c0.6,0,0.8-0.2,0.9-0.8c0.1-1,0.3-1.9,0.6-2.9c0.2-0.6,0.1-0.9-0.4-1.3
		c-1.1-0.8-2.1-1.7-3.3-2.7c0.4-0.5,0.8-1,1.2-1.5c1.2,1,2.4,1.9,3.5,2.8c1.1-1.3,2.2-2.4,3.3-3.7c0.1-0.2,0-0.7-0.2-1
		c-0.9-1.4-1.9-2.7-2.9-4.2c0.5-0.4,1-0.7,1.6-1.1c1.1,1.6,2.2,3.1,3.3,4.7c1.3-0.8,2.7-1.6,3.9-2.4c0.2-0.1,0.2-0.6,0.1-0.9
		c-0.3-0.9-0.7-1.8-1.1-2.7c-0.7-1.6-0.7-1.6,1.2-2.1c0.6,1.5,1.3,3.1,1.9,4.6c1.5-0.4,3-0.7,4.4-1.2c0.2-0.1,0.4-0.6,0.4-1
		c-0.1-0.8-0.3-1.7-0.4-2.5c-0.3-1.7-0.3-1.7,1.6-1.9c0.3,1.6,0.6,3.1,0.9,4.7c1.6-0.2,3-0.4,4.5-0.7c0.2,0,0.6-0.5,0.6-0.8
		c0.1-0.9,0.1-1.8,0.1-2.7c0-0.7,0.3-0.9,1-0.9c0.7,0,1,0.2,0.9,0.9c0,0.9-0.1,1.8,0,2.6c0,0.3,0.4,0.7,0.7,0.7
		c1.5,0.1,3.1,0.1,4.6,0.2c0.6,0,0.8-0.2,0.8-0.8c0-1,0-1.9,0.1-2.9c0.1-1.6,0.2-1.6,1.9-1.3c0,1.3,0.1,2.6,0,4
		c-0.1,1,0.2,1.4,1.1,1.4c0.1,0,0.3,0,0.4,0c2.3,0.3,2.3,0.3,3-1.9c0.1-0.4,0.3-0.9,0.4-1.3c0.5-1.8,0.6-1.8,2.3-0.9
		c-0.5,1.6-1,3.1-1.5,4.9c1.5,0.5,3,0.9,4.4,1.3c0.1,0,0.5-0.4,0.6-0.7c0.4-1.4,0.8-2.8,1.2-4.3c0.4,0.1,0.8,0.2,1.1,0.3
		c0.6,0.1,0.8,0.4,0.6,1c-0.4,1.1-0.5,2.2-0.9,3.2c-0.4,1.1-0.1,1.6,1,1.9c0.2,0,0.5,0.1,1,0.3c0-0.9,0.1-1.7,0-2.4
		c-0.3-2.4,0.4-4.4,2.1-6.1c0.8-0.7,1.2-1.7,2-2.4c2-1.8,1.7-4.1,1.6-6.5c-2.2,1.2-4.2,2.3-6.4,3.4c0-5,0-9.8,0-14.9
		c2.1,1.6,4.1,3.2,6.1,4.7c0.1,0,0.2-0.1,0.3-0.1c-0.8-2.6-1.5-5.3-2.3-7.9C260,25.3,264.1,25.3,268.2,25.3z M238.2,346.1
		c0.1-0.1,0.3-0.3,0.4-0.4c-1-3-1.9-6-2.9-9c-0.1-0.4-0.7-0.7-1.2-0.9c-15.7-4.5-29.3-12.5-40.7-24.2c-17.1-17.7-25.7-39-26.2-63.5
		c-0.1-3.5,0.3-7,0.6-10.5c0.6-7,2.2-13.9,4.6-20.5c13-37.1,48.7-62.7,89.1-61.5c5.7,0.2,11.4,0.7,17,2
		c28.4,6.5,49.3,22.7,62.8,48.5c7.8,14.9,10.7,31,9.6,47.7c-0.4,6-1.3,11.8-2.9,17.6c-7.1,25.3-22.3,44.4-45.3,57.1
		c-1.1,0.6-1.5,1.3-1.5,2.5c-0.1,2-0.2,4-0.5,6c-0.9,7.1-3.9,13-9.2,17.9c-5.9,5.4-12.7,9.3-20.1,12.2c-0.7,0.3-1,0.6-0.7,1.4
		c1,3.1,2.7,5.8,5,8.1c0.2,0.2,0.6,0.3,0.9,0.3c1.3-0.2,2.6-0.3,4-0.6c11.9-2,23.2-5.6,34.1-10.8c18.3-8.8,33.8-21,46.3-37
		c18.2-23.2,27.4-49.6,28-79c0.1-5.7-0.3-11.4-0.9-17.1c-1-8.5-2.8-16.9-5.5-25c-7.6-23.2-20.7-42.7-39.2-58.5
		c-21.1-18-45.6-28.2-73.2-30.8c-5.9-0.6-11.9-0.6-17.9-0.3c-6.6,0.3-13,1.1-19.5,2.4c-25.6,5.3-47.6,17.2-66.1,35.6
		c-10.4,10.4-18.8,22.2-25.2,35.5c-8.3,17.2-12.6,35.4-12.8,54.5c-0.1,5.2,0.3,10.3,0.7,15.5c0.5,6.9,1.9,13.7,3.7,20.4
		c6.5,23.7,18.7,44,36.6,60.9c8.7,8.2,18.4,15,29,20.6c0.4,0.2,0.8,0.4,1.2,0.6c-0.1-0.3-0.3-0.5-0.6-0.7c-1.5-1.1-2.3-2.5-2.6-4.3
		c-0.5-3.5,0-7,0.8-10.4c0.2-0.9,0.1-1.5-0.6-2.2c-4.2-4.2-8.3-8.5-12.4-12.7c-0.4-0.5-1.3-0.9-0.7-1.6c0.2-0.3,1.2-0.2,1.7,0
		c4.8,1.5,9.5,3.2,14.3,4.7c1.6,0.5,1.6,0.5,2.5-0.9c1.5-2.6,3.6-4.6,6.7-5.1c4.4-0.7,8.2,0.6,11.4,3.8c0.7,0.7,1.4,1.5,2.1,2.2
		c2.9,3.1,6.1,5.9,10.1,7.6C234.6,345,236.4,345.5,238.2,346.1z M170.1,247.3c-0.1,7.4,0.8,14.6,2.7,21.7c7.2,27,23.4,46.7,48.4,59
		c11.1,5.5,23,8.2,35.3,8.6c3.1,0.1,6.2-0.1,9.3-0.2c3.1-0.1,6.1-0.7,9-1.1c8.9-1.5,17.5-4.3,25.5-8.6c18-9.4,31.4-23.3,40.1-41.7
		c6.3-13.4,9-27.5,8.3-42.3c-0.3-5.2-0.9-10.3-2.1-15.4c-4.9-20.9-15.8-38-32.7-51.1c-13.8-10.7-29.6-16.7-47-18.2
		c-5.3-0.5-10.6-0.4-15.9,0.1c-7.5,0.7-14.9,2.3-22,4.9C193.9,176,170,209.6,170.1,247.3z M283.9,398.7c0,0.1-0.1,0.2-0.1,0.2
		c0.4,0.2,0.7,0.5,1.1,0.7c7.5,4.9,15,9.8,22.5,14.6c3.8,2.4,7.4,5,11.3,7.2c6.4,3.4,13,3.9,19.7,0.9c5.5-2.4,11.1-4.8,16.4-7.5
		c7.7-3.9,14.6-9,21.2-14.4c6.3-5.1,12.5-10.4,17.5-16.8c8.6-10.9,15.5-22.9,21.2-35.5c2.8-6.3,5.3-12.7,7.9-19.1
		c1.4-3.5,2.8-7.1,3.9-10.7c1.1-3.9-0.1-6.6-3.5-8.9c-0.7-0.5-1.5-0.9-2.3-1.3c-4.4-2.1-9-3.1-13.7-3.4c-6.1-0.5-12.1-0.1-18,1.7
		c-2.3,0.7-3.8,2-4.6,4.3c-2.5,7.1-5.1,14.3-7.8,21.3c-3.7,9.5-8.7,18.2-15.3,25.9c-8.2,9.6-17.7,17.9-27.8,25.4
		c-3.3,2.5-6.7,5-10.5,6.7c-9.8,4.4-20.3,6.2-30.8,7.6C289.5,398.2,286.7,398.4,283.9,398.7z M230,397.2c-0.3-0.1-0.4-0.2-0.4-0.2
		c-5.6-0.7-11.3-1.3-16.9-2.2c-3.6-0.6-7.2-1.4-10.7-2.3c-7-1.7-13.6-4.3-19.3-8.8c-5.4-4.3-11-8.4-16.2-12.9
		c-13.3-11.4-24-24.8-30.1-41.5c-2.4-6.6-5-13.2-7.3-19.9c-0.9-2.6-2.5-4.1-5-4.7c-0.1,0-0.2-0.1-0.3-0.1
		c-8.6-2.4-17.2-2.3-25.8-0.1c-3.3,0.9-6.5,2.1-9.1,4.3c-1.4,1.2-2.3,2.8-2.4,4.8c-0.1,2.2,0.4,4.4,1.2,6.4
		c1.7,4.3,3.6,8.5,5.2,12.8c4.2,11.3,9.3,22.2,15.5,32.5c4.3,7.2,8.9,14.2,14.5,20.4c5.2,5.7,11.1,10.5,17,15.3
		c10.5,8.4,22,14.8,34.8,18.9c4.9,1.6,9.9,2.2,15,1c4.2-1,7.9-2.8,11.5-5.1c9.3-6,18.5-12,27.8-18
		C229.3,397.7,229.6,397.5,230,397.2z M198.8,423c-1.1,1.1-2,2-2.9,2.9c-0.4,0.4-0.3,0.8,0.1,1.3c1.4,1.4,2.7,2.9,4,4.4
		c0.2,0.2,0.4,0.5,0.6,0.7c-0.1,0.1-0.2,0.2-0.3,0.3c-1.8-1.6-3.3-3.6-5.2-5.4c-0.2,0.8-0.4,1.5-0.4,2.1c-0.2,2,0.5,3.7,1.5,5.4
		c1.3,2.2,3.1,3.9,5,5.6c1.4,1.2,2.8,2.3,4.1,3.4c0.5-0.4,0.8-0.7,1.2-0.9c9.6-5.3,20.1-6.5,30.8-5.7c2.8,0.2,5.3,1.3,7.4,3.2
		c2.8,2.6,3.2,5.9,0.9,9c-0.8,1.1-1.8,2-2.8,2.9c-0.9,0.8-1.9,1.3-2.9,2.1c5.3,6.1,10.5,12.2,15.8,18.3c5.4-6.1,10.6-12.1,15.9-18.1
		c-0.4-0.3-0.8-0.4-1.1-0.7c-1.7-1.4-3.5-2.6-4.9-4.3c-2.5-3-2.1-6.7,0.8-9.3c1.7-1.6,3.8-2.5,6.1-3c3.9-0.8,7.7-0.3,11.6-0.1
		c1.7,0.1,3.3,0.2,4.9,0.4c5.5,0.7,10.5,2.7,15.4,5.2c0.4,0.2,0.8,0.6,1.3,1.1c2.4-2.1,4.9-4.3,7.2-6.6c1.6-1.6,2.7-3.6,3.2-5.9
		c0.3-1.6,0.2-3.1-0.8-4.7c-1.8,2-3.4,3.9-5.1,5.8c-0.2-0.2-0.3-0.3-0.3-0.3c1.6-2,3.3-4.1,5.1-6.3c-0.8-0.7-1.5-1.5-2.4-2.3
		c-2.7,4.2-5.2,8.2-7.7,12.1c-0.2-0.1-0.3-0.2-0.5-0.3c2.5-4,5.1-8,7.7-12.2c-1-0.6-1.9-1.1-2.9-1.7c-1.5,2.3-2.9,4.5-4.3,6.8
		c-0.3-0.6-0.3-0.6,1.6-3.6c0.7-1.1,1.4-2.3,2.2-3.5c-1.5-0.7-2.8-1.4-4.2-2.1c-0.3,0.5-0.5,0.9-0.6,1.3c-1.7,3.7-3.4,7.4-5.1,11
		c-0.1,0.3-0.4,0.5-0.6,0.8c-0.1-0.1-0.2-0.1-0.3-0.2c0.2-0.4,0.3-0.8,0.5-1.2c1.7-3.7,3.4-7.4,5.1-11.1c0.2-0.4,0.6-0.8-0.1-1.1
		c-0.7-0.3-1.4-0.7-2.2-1c-1.1,2.2-2.1,4.3-3.1,6.4c-0.2-0.1-0.3-0.1-0.5-0.2c1-2.1,2-4.2,3-6.4c-1.1-0.5-2.1-0.9-3.2-1.4
		c-0.4,1.2-0.8,2.2-1.1,3.3c-1.1,3.3-2.1,6.6-3.2,9.8c-0.1,0.3-0.3,0.6-0.5,1c-0.1-0.1-0.2-0.1-0.3-0.2c1.5-4.7,3.1-9.4,4.6-14.1
		c-1.1-0.4-2-0.7-3-1.1c-0.7,1.9-1.4,3.7-2,5.4c-0.1,0.3-0.4,0.5-0.5,0.7c-0.1-0.1-0.2-0.1-0.3-0.2c0.7-2,1.5-4,2.3-6.2
		c-0.9-0.3-1.7-0.6-2.6-0.9c-0.2,0.6-0.3,1-0.5,1.5c-1.1,4.1-2.3,8.3-3.4,12.4c-0.1,0.4-0.3,0.7-0.5,1c-0.1-0.1-0.2-0.1-0.4-0.2
		c0.4-1.3,0.7-2.7,1.1-4c0.9-3.3,1.9-6.6,2.7-10c0.1-0.3-0.1-1-0.3-1.1c-0.6-0.3-1.4-0.4-2.1-0.7c-0.9,2.4-1.3,4.8-2.3,7
		c-0.1,0-0.3-0.1-0.4-0.1c0.7-2.3,1.4-4.7,2.1-7.1c-0.9-0.2-1.6-0.4-2.4-0.6c-1.4,5.2-2.4,10.4-3.7,15.4c-0.2,0-0.3-0.1-0.5-0.1
		c1.2-5.1,2.4-10.3,3.6-15.5c-1.1-0.3-2.1-0.5-3.2-0.7c-0.5,2.5-0.9,5-1.4,7.4c-0.2,0-0.3-0.1-0.5-0.1c0.4-2.4,0.8-4.9,1.2-7.3
		c-1.7-0.5-1.7-0.5-2.1,1c-1.1,4.3-2.1,8.6-3.2,12.9c-0.1,0.3-0.2,0.6-0.4,1c-0.1,0-0.2-0.1-0.3-0.1c0-0.3,0.1-0.6,0.1-1
		c1.1-4.3,2.1-8.6,3.2-12.9c0.3-1.3,0.3-1.3-1-1.6c-0.4-0.1-0.9-0.1-1.4-0.2c-0.7-0.2-1.1,0.1-1.2,0.9c-0.2,1.8-0.5,3.6-0.8,5.4
		c0,0.2-0.2,0.5-0.3,0.7c-0.1,0-0.2-0.1-0.3-0.1c0.2-1.8,0.5-3.7,0.7-5.7c-1.2,1-2.3,1.8-3.3,2.6c-0.4,0.3-0.7,0.9-0.8,1.4
		c-0.5,3.3-0.9,6.6-1.3,9.8c0,0.3-0.3,0.5-0.4,0.7c-0.1,0-0.2-0.1-0.3-0.1c0.5-3.6,1-7.2,1.5-11.1c-1.3,0.9-2.9,0.4-3.5,2.2
		c-0.2-0.4-0.4-0.7-0.5-0.9c-0.3,0.1-0.5,0.2-0.8,0.2c-1.1-0.1-1.4,0.5-1.4,1.4c-0.1,1.7-0.2,3.4-0.3,5.2c-0.1,1.1-0.2,2.2-0.3,3.3
		c-0.2,0-0.3,0-0.5,0c0.2-3.2,0.4-6.4,0.5-9.5c-4,0-7.7,0-11.6,0c0,0.9,0,2,0,3c0,1.1,0,2.2,0,3.3c0,2.6,0,2.6-0.5,3.1
		c0-0.5,0-0.8-0.1-1.1c0-2.6,0-5.2-0.1-7.7c0-0.3-0.1-0.9-0.4-1c-1-0.4-2-0.6-3-0.9c-0.1,0.8-0.1,1.4-0.2,2c-0.1,0-0.2,0.1-0.4,0.1
		c0-1.5,0-3-2.1-3.1c-0.1,3.7,0.6,7.3,0.2,11c-0.2-0.4-0.3-0.7-0.3-1.1c-0.2-3.1-0.3-6.1-0.5-9.2c0-0.5,0-1.2-0.4-1.5
		c-1.1-1.1-2.4-2-3.6-3.1c0.3,2.4,0.5,4.8,0.8,7.2c-0.1,0-0.3,0-0.4,0c-0.1-0.2-0.1-0.4-0.2-0.5c-0.3-2.1-0.6-4.1-0.8-6.2
		c-0.1-0.6-0.2-0.9-0.9-0.8c-0.6,0.1-1.2,0.1-1.1,1c0.1,1.1,0.1,2.2,0.2,3.4c0.1,2.7,0.3,5.3,0.4,8c0,1.2,0,2.4,0,3.6
		c-0.1,0-0.3,0-0.4,0c-0.2-5.2-0.5-10.4-0.7-15.7c-0.8,0.1-1.4,0.3-2,0.3c-0.9,0-1,0.4-1,1.2c0,1.6,0,3.2,0,4.9
		c0,0.3-0.1,0.6-0.1,0.9c-0.1,0-0.3,0-0.4,0c0-2.2,0-4.4,0-6.8c-0.8,0.2-1.4,0.3-2,0.4c-0.6,0.1-0.7,0.4-0.6,1
		c0.4,3.3,0.8,6.6,1.2,10c0.1,1.3,0.3,2.6,0.4,3.9c-0.2,0-0.3,0-0.5,0.1c-0.7-4.8-1.1-9.7-1.8-14.6c-1.1,0.3-2,0.5-3,0.8
		c0.4,2.5,0.8,5,1.2,7.4c-0.2,0-0.3,0.1-0.5,0.1c-0.4-2.4-0.9-4.8-1.3-7.3c-0.9,0.3-1.7,0.5-2.5,0.7c-0.8,0.2-0.9,0.6-0.7,1.3
		c1,4.2,1.9,8.4,2.8,12.7c0.1,0.4,0.1,0.7,0.1,1.1c-0.1,0-0.3,0-0.4,0.1c-1.1-4.9-2.2-9.7-3.2-14.6c-0.4,0.1-0.7,0.2-1,0.3
		c-1.5,0.5-1.5,0.5-1.1,2.1c0.3,1.6,0.7,3.2,1,4.9c0,0.2-0.1,0.5-0.1,0.7c-0.1,0-0.2,0-0.3,0c-0.5-2.3-1-4.5-1.5-6.9
		c-1,0.4-1.9,0.8-2.7,1c-0.7,0.2-0.8,0.5-0.6,1.2c1.2,4.3,2.4,8.6,3.5,12.9c0.1,0.3,0.1,0.7,0.2,1.1c-0.2,0-0.3,0.1-0.5,0.1
		c-1.3-4.9-2.7-9.7-4.1-14.8c-1,0.4-1.8,0.8-2.6,1.1c-0.8,0.3-0.9,0.6-0.5,1.3c0.9,1.6,1.7,3.3,2.5,4.9c0.1,0.3,0.2,0.6,0.2,0.9
		c-0.1,0-0.2,0.1-0.4,0.1c-1.1-2.2-2.2-4.3-3.3-6.6c-0.8,0.4-1.5,0.8-2.2,1c-0.9,0.3-1,0.7-0.6,1.6c1.8,3.5,3.5,7,5.2,10.5
		c0.1,0.3,0.2,0.6,0.3,1c-0.1,0.1-0.3,0.1-0.4,0.2c-2-4.1-4.1-8.2-6.1-12.4c-1,0.5-1.9,1-2.9,1.5c1,1.9,2,3.8,2.9,5.6
		c-0.2,0.1-0.3,0.2-0.5,0.3c-1-1.8-2-3.7-3-5.6c-0.7,0.4-1.3,0.8-2,1.1c-0.8,0.4-0.9,0.7-0.5,1.5c1.8,3.2,3.5,6.4,5.2,9.6
		c0.2,0.3,0.3,0.7,0.4,1c-0.1,0.1-0.3,0.1-0.4,0.2C203.1,430.8,201,427,198.8,423z M299.5,89.7c-0.8-1-1.4-1.9-2.2-2.5
		c-0.9-0.8-1.9-1.5-3-1.9c-2.6-0.8-4.9,0.9-4.7,3.5c0.2,3.2,1.3,6,3.6,8.2c3,2.9,6.6,4.2,10.8,4.4c4.4,0.2,8-2.5,8.7-6.8
		c0,0-0.1-0.1-0.2-0.2c-1.8,0.7-3.6,1.5-5.6,2.3c1-4.1,1.9-8,2.9-11.9c1.7,1.3,3.2,2.5,4.9,3.9c0-0.5,0.1-0.8,0.1-1
		c-0.2-3-0.5-5.9-0.6-8.9c-0.1-3.6-1.7-6.2-4.6-8c-2.9-1.9-6.5-0.9-8,2.2c-0.4,0.8-1,0.8-1.6,0.7c-0.3,0-0.7-0.4-0.9-0.7
		c-0.4-0.5-0.6-1.1-1-1.6c-1.5-2-3.7-2.8-6.1-3c-4.3-0.5-8.4,1.1-10.6,5.3c-0.3,0.5-0.4,1.1-1.2,0.9c-0.8-0.1-1.3-0.4-1.5-1.3
		c-0.5-2.3-2-3.9-4.4-4.2c-4.2-0.6-8.3,0.2-12,2.2c-0.5,0.3-0.8,0.3-1.3-0.1c-0.6-0.5-1.3-1-2.1-1.2c-3.3-1.2-6.7-1.6-10.2-1
		c-2.2,0.4-4.1,1.4-5,3.6c-0.3,0.7-0.7,0.9-1.4,0.9c-0.8,0-1-0.4-1.2-1c-0.9-2.6-2.7-4.3-5.4-5.1c-2-0.6-4-0.6-6-0.3
		c-2.8,0.5-5,1.6-5.8,4.6c-0.2,0.7-1.9,1-2.3,0.3c-1.6-2.8-7.6-4-10.5-2.4c-1,0.6-2.3,1.4-2.7,2.4c-1.3,3.8-1.7,7.8-1.4,11.8
		c0.1,0.7,0.2,1.3,0.4,2.3c1.4-1.2,2.7-2.3,4.1-3.5c0.8,3.7,1.5,7.2,2.2,10.9c-2.1-0.7-3.9-1.3-5.8-1.9c-0.1,0.1-0.1,0.2-0.2,0.3
		c0.2,0.4,0.3,0.8,0.5,1.2c1.7,3.2,4.5,5.2,7.8,6.7c1.3,0.6,2.5,0.8,3.9,0.5c6.7-1.2,9.8-6.5,9.8-11.7c0-1.3-0.6-2.3-1.9-2.8
		c-2.1-0.9-4.2-0.3-5.9,1.6c-0.7,0.8-1.3,1.6-2,2.4c-0.1,0-0.2-0.1-0.3-0.1c-0.3-1.8-0.6-3.7-0.7-5.5c-0.2-2.8,0.5-3.9,3.2-4.8
		c1.7-0.6,3.5-0.9,5.2-1.1c1.3-0.1,2.2-0.6,2.6-1.8c0.3-1.1,0.5-2.3,0.6-3.5c0.1-0.6,0.1-1.3,0.2-2c0.1,0,0.3,0,0.4,0
		c0.1,0.3,0.1,0.6,0.2,1c0.3,1.2,0.4,2.5,0.8,3.7c0.6,1.5,1.7,2.4,3.3,2.6c1.8,0.2,3.6,0.5,5.3,0.9c1.6,0.4,2.9,1.7,2.9,3.2
		c0,2-0.3,4-0.5,6.3c-1.2-1.1-2.1-2-3.1-2.8c-1.6-1.3-3.4-1.3-5.6,0.1c-1.2,0.7-1.7,2.2-1.2,4.1c0.5,1.9,1.3,3.7,2.1,5.5
		c0.6,1.3,1.7,2.1,3,2.5c3.1,1,6.2,1.1,9.3,0.6c4.1-0.6,7.1-3.1,9.6-6.3c0.2-0.3,0.4-0.7,0.4-1c0.1-1.1,0-2.2,0-3.3
		c0-0.2-0.3-0.7-0.4-0.7c-1.1,0-2.2-0.3-3.3,0.4c-0.9,0.7-1.8,1.3-2.9,2c0-3.8,0-7.3,0-11.1c1.2,1.1,2.1,2,3.2,2.9
		c0.3,0.2,0.7,0.5,1,0.5c1,0.1,2,0.1,3,0c0.2,0,0.6-0.4,0.6-0.6c0.1-1.2,0.2-2.4-0.5-3.5c-0.6-0.9-1-2-1.5-3c2.8,0,5.4,0,8.1,0
		c-0.6,1.3-1.3,2.3-1.7,3.5c-0.3,1-0.4,2.1-0.4,3.2c0,0.2,0.4,0.5,0.7,0.5c0.8,0.1,1.6,0,2.3,0c0.8,0.1,1.3-0.2,1.8-0.9
		c0.6-0.9,1.3-1.8,2.1-2.7c0,3.7,0,7.2,0,10.9c-0.6-0.4-1.1-0.7-1.5-1.1c-0.8-0.7-1.7-1-2.8-0.9c-2.6,0.1-2.6,0-2.7,2.7
		c0,1.2,0.3,2.1,1.2,2.8c1.6,1.3,3.2,2.8,4.9,4c2.5,1.8,5.4,2.3,8.5,2c4.1-0.4,8.5-5.9,8.5-10c0-1-0.1-2.2-1-2.8
		c-2.3-1.6-4.4-1.9-6.4,0.1c-0.8,0.7-1.4,1.6-2.1,2.4c-0.2-0.1-0.3-0.2-0.5-0.2c-0.2-1.9-0.4-3.7-0.5-5.6c-0.1-1.8,0.9-3.1,2.7-3.6
		c1.6-0.4,3.2-0.7,4.9-0.9c2.3-0.2,3.7-1.2,4.3-3.5c0.3-1.1,0.3-2.2,0.5-3.3c0-0.2,0.2-0.4,0.3-0.6c0.1,0.2,0.4,0.4,0.4,0.6
		c0.1,1,0.1,2,0.2,3.1c0.3,2.7,1.2,3.5,3.9,3.8c2.1,0.2,4.3,0.6,6.1,1.9c0.6,0.4,1.2,1,1.3,1.7C300.7,84.3,300.2,86.9,299.5,89.7z
		 M300,332.9c-0.2-0.2-0.4-0.3-0.5-0.5c-0.2,0.4-0.2,0.8-0.5,1.1c-3.5,3.6-7.3,6.8-11.5,9.6c-2.6,1.8-5.3,3.5-8.3,4.3
		c-4.9,1.4-10,2-15.1,2.2c-7.5,0.3-14.9-0.3-22.3-1.5c-3.2-0.5-6.3-1.1-9.3-2.4c-4.2-1.8-7.6-4.7-10.7-8c-0.3-0.3-0.3-0.7-0.5-1.1
		c-0.2,0.1-0.3,0.3-0.5,0.4c0,0.2,0,0.3,0.1,0.5c0.8,2.9,0.8,5.8,0.6,8.8c-0.4,6.2-6.8,17-13.9,18.7c1,0.3,1.8,0.5,2.5,0.7
		c7,1.6,14.2,2.2,21.4,2.1c2.1-0.1,4.2,0.1,6.2,0.2c3.9,0.2,7.8,0.5,11.7,0.8c0.8,0.1,1.1-0.3,1.2-1c0.4-2.7,0.9-5.3,1.3-8
		c0.3-2.1,0.7-4.2,1.9-6.1c1.4-2.1,3.3-2.2,4.6-0.1c0.8,1.3,1.4,2.7,1.7,4.1c0.7,3,1.1,6.1,1.7,9.1c0.2,1.3,0.3,1.3,1.6,1
		c6.5-1.3,12.5-4,18.1-7.3c4.8-2.9,9.3-6.2,12.8-10.8C298.2,344.7,299.6,338.9,300,332.9z M312.7,70.3c-0.1-0.3-0.2-0.6-0.3-1
		c-1.4-4.2-4.2-7-8.5-8.3c-3.4-1.1-6.9-1.6-10.5-1.8c-4.5-0.2-9-0.1-13.4,0.7c-6.3,1.1-12.1,3.7-17.5,7.1c-0.5,0.3-0.9,0.3-1.4,0.1
		c-3.6-1.8-7.3-3.5-10.9-5.3c-5.5-2.7-11.4-4.2-17.5-3.8c-4.6,0.2-9.2,0.6-13.8,1.2c-4.7,0.7-7.7,3.7-9.2,8.2c0,0.1,0,0.3,0,0.5
		c4.6-1.8,8.8-1.2,12.7,1.7c2.3-4,6.1-4.7,10.2-4.7c4.2,0,7.6,1.6,9.9,5.5c1.3-1.7,2.9-2.8,4.8-3.2c4.7-1,9.3-0.5,13.7,1.6
		c0.4,0.2,0.9,0.3,1.2,0.2c2.7-1.2,5.6-1.8,8.5-2c3.9-0.3,7.3,0.4,9.4,4.2c0,0,0.1,0.1,0.3,0.1c2.4-3.3,5.8-4.9,9.9-5
		c4-0.1,7.6,1.1,10,4.6c1.6-2,3.6-2.9,6-3C308.9,67.7,310.8,68.8,312.7,70.3z M427.1,354.5c1.1,0.1,2-0.4,2.7-1.3
		c1-1.3,2.2-2.6,2.9-4.2c3.2-7.2,6.4-14.5,9.4-21.8c0.5-1.3,0.7-2.7,0.9-4.1c0.3-2.5-0.9-4.6-3-5.5c-1.8-0.7-3.5-0.1-5.1,2.1
		c-0.9,1.3-1.8,2.6-2.5,4c-3.9,8-7.2,16.3-9.8,24.8C421.8,351.7,423.9,354.5,427.1,354.5z M199.5,348.7c-0.1,0.1-0.2,0.2-0.2,0.3
		c-0.3,2.8-0.9,5.7-0.8,8.5c0,3.2,2.8,6,5.7,6.2c2.9,0.3,5.5-0.4,7.5-2.4c1.7-1.7,3.3-3.6,4.7-5.5c3.5-5,4.7-10.6,3.5-16.6
		c-1.2-6.2-5.2-8.1-10.8-6.9c-2.9,0.6-4.4,2.8-5.7,5.4c2.9,1,5.8,1.9,8.5,2.9c0.4,0.2,0.9,0.7,1,1.1c1.2,4.7-1.5,9.9-6.2,11.8
		c-1.8,0.7-1.7,0.7-3.1-0.6C202.3,351.4,200.9,350,199.5,348.7z M70,323.2c0,0.4,0,0.8,0.1,1.2c0.2,1,0.4,2,0.8,3
		c2.5,6.1,5,12.3,7.8,18.4c1.5,3.4,3.9,6.2,7,8.3c1.6,1.1,3.3,0.6,3.7-1.2c0.3-1.1,0.2-2.5-0.1-3.6c-2.5-8.5-5.8-16.7-9.7-24.6
		c-1-2-2-4-3.9-5.4c-1.1-0.9-2.3-0.9-3.5-0.2C70.6,320,69.9,321.4,70,323.2z M237.4,336.6c0.8,3,1.6,5.8,2.4,8.7
		c0.2,0.8,0.6,1.1,1.3,1.2c4.5,0.5,9.1,1.2,13.6,1.4c4.5,0.2,9.1-0.1,13.6-0.2c0.7,0,0.9-0.3,1-0.9c0.6-2.5,1.3-4.9,1.9-7.3
		c0.1-0.3,0.1-0.6,0.2-1C260,339.9,248.7,339.3,237.4,336.6z M207.3,445.1c0.6,0.4,0.9,0.7,1.3,0.9c3.6,2.4,7.5,4.3,11.6,5.8
		c3.8,1.4,7.8,2.3,11.9,1.9c1.5-0.1,2.9-0.5,4.4-0.8c-0.1-0.3-0.1-0.5-0.2-0.5c-3.5-4.1-7-8.2-10.5-12.2c-0.2-0.2-0.7-0.4-1-0.3
		c-1.3,0.1-2.7,0.2-4,0.5C216.1,440.9,211.8,442.8,207.3,445.1z M303.3,445.1c-0.1-0.2-0.2-0.2-0.2-0.3c-5-2.6-10.1-4.5-15.8-5.1
		c-0.7-0.1-1.2,0.2-1.7,0.7c-3.3,3.8-6.6,7.6-10,11.4c-0.2,0.3-0.5,0.6-0.8,1c0.5,0.2,0.9,0.3,1.2,0.4c2.9,0.7,5.9,0.6,8.8,0.1
		c6.5-1.2,12.3-4,17.7-7.6C302.8,445.5,303,445.3,303.3,445.1z M187.6,334c0.2,0.4,0.3,0.5,0.4,0.6c5.6,5.8,11.2,11.5,16.8,17.3
		c0.5,0.5,0.9,0.4,1.4,0.2c3.5-1.4,5.7-4.9,5.6-8.8c0-1-0.4-1.5-1.3-1.8c-6-1.9-11.9-3.9-17.8-5.9C191,335.1,189.4,334.6,187.6,334z
		 M270.6,347.3c0.4,0.2,0.4,0.2,0.5,0.2c0.4,0,0.8-0.1,1.3-0.1c4.2-0.6,8.2-1.5,11.9-3.8c5.1-3.2,9.7-7,14-11.2
		c0.7-0.7,1.3-1.4,1.9-2.1c-0.4-0.1-0.6,0-0.8,0.1c-8,3.8-16.4,6.4-25.2,7.8c-0.3,0-0.7,0.3-0.8,0.5
		C272.3,341.5,271.4,344.4,270.6,347.3z M100.6,356.6c-6.2-11.4-10-23.6-15.3-35.2c-1.2,0.4-2.4,0.8-3.8,1.2c0.2,0.4,0.3,0.7,0.4,1
		c3.8,8.1,7.1,16.3,9.7,24.8c0.4,1.5,0.7,2.9,0.3,4.5c-0.2,0.7-0.5,1.4-0.8,2.2C94.3,355.6,97.3,356.1,100.6,356.6z M307.1,417.5
		c-9.9-7.1-20.1-13.6-30.8-20c-0.4,1.1-1,2-1.1,3c-0.3,2-0.3,4-0.4,6c0,0.2,0.5,0.7,0.9,0.7c7.7,1,15.1,3.1,22.2,6.1
		C301,414.6,304,416.1,307.1,417.5z M233.7,397.9c-9.5,6.2-19,12.3-28.4,18.5c0.2,0.2,0.3,0.3,0.3,0.2c0.3-0.1,0.5-0.2,0.8-0.3
		c9.7-4.7,19.7-8.1,30.5-9.2c0.7-0.1,0.8-0.4,0.7-1C237.1,403,235.7,400.4,233.7,397.9z M284.3,439.6c-3.6-0.3-7-0.6-10.5-0.1
		c-2.1,0.3-4,1-5.7,2.4c-2.2,1.8-2.5,4.1-0.6,6.2c1.4,1.5,3.1,2.6,4.7,3.8c0.7,0.5,1.1,0.3,1.7-0.3c3.2-3.7,6.5-7.4,9.7-11
		C283.9,440.2,284,440,284.3,439.6z M256.7,111.4c-0.4-1.4-0.2-1.9,1.1-2.4c1.6-0.6,3.2-0.6,4.9-0.2c1.9,0.5,2.2,1.1,1.7,2.8
		c6.3,0.5,12.6,0.9,18.6,1.4c-0.1-0.6-0.6-1.3-0.3-1.8c0.3-0.6,1-0.9,1.7-1.4c-16.3-2-32.5-2.2-48.6-0.5c2.6,1.1,2.8,1.3,2,3
		C244,112,250.3,111.7,256.7,111.4z M227.6,439.6c0.1,0.1,0.1,0.3,0.1,0.3c3.3,3.9,6.7,7.8,10,11.6c0.2,0.2,0.7,0.3,0.9,0.1
		c2.1-1.1,3.9-2.4,5.2-4.4c1.1-1.7,0.9-3.4-0.5-4.8c-1.3-1.4-2.8-2.2-4.6-2.7c-3.5-0.9-7.1-0.5-10.6-0.3
		C227.9,439.5,227.7,439.5,227.6,439.6z M423.6,355.1c-0.2-0.3-0.3-0.4-0.4-0.5c-2.2-1.9-2.8-4.1-1.8-6.8c2.3-6.3,4.7-12.5,7.1-18.7
		c0.8-2.2,1.9-4.2,2.9-6.5c-0.7-0.2-1.3-0.4-1.9-0.7c-0.6-0.3-0.9-0.1-1.2,0.6c-1.3,3.2-2.5,6.3-3.8,9.5
		c-3.5,8.4-6.5,16.9-10.7,24.9c-0.1,0.2-0.1,0.4-0.2,0.7C416.9,356.7,420.1,355.9,423.6,355.1z M204.6,365.9
		c0.3,0.2,0.6,0.3,0.9,0.5c8.8,4,17.9,6.9,27.3,8.9c0.3,0.1,0.8,0.1,1-0.1c1.6-1.6,3-3.3,3.8-5.7c-5.6-0.2-11.1-0.3-16.6-0.6
		C215.4,368.5,210,367.4,204.6,365.9z M250.1,370.3c-0.4-0.1-0.6-0.2-0.8-0.2c-3.1-0.2-6.2-0.4-9.4-0.6c-0.3,0-0.8,0.4-1,0.7
		c-1.1,1.6-2.1,3.2-3.1,4.9c-0.1,0.2-0.2,0.3-0.3,0.5c0.1,0.1,0.2,0.1,0.2,0.1c3.9,0.6,7.9,1.1,11.8,1.6c0.2,0,0.7-0.3,0.8-0.6
		C249,374.7,249.5,372.6,250.1,370.3z M269.4,367.9c-2.2,0.5-4.3,1-6.4,1.5c-0.2,0.1-0.5,0.6-0.4,0.8c0.4,2.2,0.8,4.4,1.2,6.6
		c0.1,0.6,0.4,1,1.1,0.9c2.1-0.2,4.3-0.3,6.4-0.5c1-0.1,2-0.2,3.3-0.4C271.9,374.2,270.3,371.3,269.4,367.9z M382.3,309.9
		c-0.4,0.1-0.5,0.1-0.6,0.1c-5,3.4-8.2,7.9-8.3,14.2c-0.1,3-0.4,5.9-0.6,8.8c0,0.4,0,0.8,0,1.1c0.2,0,0.3,0.1,0.5,0.1
		C376.2,326.3,379.2,318.2,382.3,309.9z M139.5,330.9c0.1,0,0.2-0.1,0.3-0.1c0-1,0.1-2,0-3c-0.3-2.9-0.3-5.9-0.9-8.7
		c-0.9-4.3-3.7-7.3-6.9-10.1c0,0-0.1,0-0.4,0C134.2,316.4,136.9,323.6,139.5,330.9z M231.7,109.7c-4.7,0.6-9.2,1.4-13.5,2.6
		c2.5,0.7,2.6,0.9,1.6,2.9c3.7-0.7,7.4-1.4,11.2-2.1C229.8,112,229.1,111.5,231.7,109.7z M230.1,394.6c-0.2-0.3-0.2-0.5-0.3-0.6
		c-1.7-1.1-3.3-2.4-5.1-3.4c-1.3-0.7-2.8-0.8-4.2-0.4c-1.6,0.5-3,1.2-4.2,2.4c0,0.1,0,0.2,0.1,0.3
		C220.9,393.5,225.4,394,230.1,394.6z M301.8,113.7c-3.7-1.4-7.6-2.3-11.7-3c1,1.7,1,1.7-1.2,3.2c3.3,0.8,6.5,1.5,9.9,2.3
		C298.3,114.5,299.1,113.9,301.8,113.7z M261.3,98c-1.2,0.4-2.5,0.6-3.6,1.2c-1.2,0.6-1.2,1.9,0,2.6c2.3,1.2,4.7,1.3,7,0.1
		c1.3-0.7,1.3-2,0-2.6C263.7,98.6,262.5,98.4,261.3,98z M232.9,98.4c-1.2,0.4-2.5,0.6-3.6,1.2c-1.2,0.6-1.1,1.7,0,2.5
		c1.7,1.2,5.5,1.2,7.2,0c1.1-0.8,1.1-1.9,0-2.5C235.3,99,234.1,98.8,232.9,98.4z M288.3,104.3c1.2-0.4,2.4-0.6,3.5-1.1
		c1.2-0.6,1.2-1.8,0.1-2.6c-1.7-1.1-5.4-1.2-7.1,0c-1.2,0.8-1.2,2,0.1,2.7C285.9,103.7,287.1,103.9,288.3,104.3z M304.4,118.3
		c0.7,0.7,1.6,1.1,2.4,0.5c0.5-0.4,0.8-1.1,0.8-1.8c0.1-0.7-0.6-1.2-1.5-1.3C307.1,117.3,306.9,117.7,304.4,118.3z M213.5,113.7
		c-1.4,0.3-1.9,0.7-2.1,1.5c-0.1,0.8,0.1,1.5,0.8,1.8c0.5,0.2,1.1,0.1,1.7,0.2c0-0.1,0-0.2,0-0.3C211.9,116,211.8,115.4,213.5,113.7
		z"/>
	<path class="st0" d="M358.1,300.8c-0.2,0.3-0.4,0.7-0.7,1c-1.3,1.3-2.9,2.2-4.8,1.5c-2.1-0.7-3.6-2-4.2-4.2c-0.5-2-0.1-3.8,0.8-5.6
		c0.7-1.6,1.6-3.2,2.4-4.8c0.7-1.4,1.3-2.9,2-4.3c0.2-0.4,0.5-0.7,0.7-1c0.1,0,0.2,0.1,0.3,0.1c0,0.4,0,0.9,0,1.3
		c-0.1,1,0.3,1.8,1.3,2.2c4.1,2,8.3,4.1,12.4,6c1.5,0.7,2.3,0.4,3.5-0.8c0.3-0.3,0.7-0.4,1.3-0.8c-0.1,0.6-0.1,0.7-0.2,0.9
		c-1.5,3-2.9,6.1-4.5,9.1c-0.7,1.4-1.8,2.6-2.9,3.7c-1.3,1.2-3,1.4-4.7,0.5c-1.6-0.8-2.3-2.2-2.3-4c0-0.2,0-0.4,0-0.6
		C358.3,301,358.2,300.9,358.1,300.8z M354.7,299.9c0.8-0.3,1.8-0.5,2.3-1.1c1.1-1.2,2-2.5,2.8-3.9c0.6-1,0.3-1.6-0.7-2.2
		c-1.4-0.7-2.8-1.4-4.2-2.1c-2-0.9-3-0.5-4.1,1.4c-0.2,0.3-0.4,0.7-0.5,1C349,296.3,351.2,299.7,354.7,299.9z M363.9,302.7
		c1.8-0.1,3.3-1.3,4.2-3.1c0.6-1.3,0.4-2.1-0.9-2.8c-1.4-0.7-2.8-1.3-4.2-2c-0.7-0.4-1.3-0.2-1.7,0.5c-0.6,1.2-1.2,2.4-1.7,3.6
		c-0.4,1,0,1.8,0.7,2.5C361.1,302.2,362.3,302.7,363.9,302.7z"/>
	<path class="st0" d="M259.3,146.4c-3.1-0.1-6.1-0.3-9.2-0.4c0-0.1,0-0.3-0.1-0.4c0.2-0.1,0.5-0.3,0.7-0.4c1.3-0.4,1.9-1.4,2-2.7
		c0.3-4.5,0.5-9.1,0.8-13.6c0.1-1.3-0.6-2.1-1.9-2.6c-0.5-0.2-0.9-0.4-1.4-0.5c0-0.1,0-0.3,0.1-0.4c0.7,0,1.4,0,2.2,0
		c2.8,0.1,5.7,0.2,8.5,0.4c1.3,0.1,2.7,0.4,4,1c1.9,0.8,2.9,2.4,2.9,4.5c0,2.1-0.9,3.6-2.9,4.4c-0.9,0.4-1.1,0.8-0.6,1.7
		c1.3,2.3,2.6,4.7,3.8,7.1c0.4,0.8,1,1.2,1.9,1.1c0.2,0,0.5,0,1,0.1c-0.4,0.4-0.5,0.8-0.8,0.9c-1.9,0.9-4.4,1-5.7-1.3
		c-1.2-2.1-2.3-4.2-3.3-6.4c-0.7-1.6-1.9-2.2-3.5-2.1c-0.7,0-1,0.3-1.1,1c-0.1,1.8-0.2,3.7-0.2,5.5c0,1.5,0.4,2.1,1.9,2.5
		c0.3,0.1,0.7,0.3,1,0.4C259.4,146.1,259.3,146.2,259.3,146.4z M259.8,135.4c0.5,0,1.1,0,1.6-0.1c1.8-0.3,2.6-1,2.9-2.5
		c0.6-3.1-1.2-5.6-4.3-6.1c-2-0.3-2.7,0.2-2.7,2.2c0,1.2-0.1,2.3-0.2,3.5C256.8,135.3,257,135.4,259.8,135.4z"/>
	<path class="st0" d="M159.8,176.6c0.1-0.3,0.1-0.6,0.3-0.8c2.5-2.7,4.9-5.5,7.5-8.2c1.5-1.5,3.2-2.6,5.3-3.2c3.6-0.9,6.5,0.5,9,3
		c4.3,4.4,3.8,10.6,0.4,14.8c-2,2.4-4.1,4.6-6.2,6.9c-0.2,0.2-0.4,0.3-0.6,0.5c-0.1,0-0.2-0.1-0.3-0.1c0.1-0.4,0.1-0.8,0.2-1.1
		c0.5-1,0.3-1.8-0.5-2.5c-3.6-3.2-7.1-6.4-10.7-9.6c-1-0.9-1.8-1-3-0.3c-0.4,0.2-0.8,0.4-1.2,0.6C160,176.8,159.9,176.7,159.8,176.6
		z M172.6,167.3c-2.3,0-4.3,0.9-6.2,2.9c-1.4,1.4-1.4,2.2,0,3.5c3.5,3.2,6.9,6.3,10.4,9.4c0.9,0.8,1.7,0.9,2.8,0.2
		c2.1-1.5,3.4-3.5,3.5-6.1C183.3,172.4,177.9,167.3,172.6,167.3z"/>
	<path class="st0" d="M144.5,269.4c0.9-0.1,1.8-0.1,2.7-0.2c2.8-0.3,5.6-0.6,8.4-1.1c1.8-0.3,3.5-0.9,3.5-3.5c0-0.3,0.2-0.5,0.3-0.8
		c0.1,0,0.3,0,0.4,0c0.3,2.5,0.6,5.1,1,7.6c-0.1,0.1-0.1,0.2-0.2,0.2c-0.3-0.3-0.7-0.5-0.9-0.8c-0.8-1.3-1.9-1.8-3.4-1.6
		c-3.8,0.5-7.6,1-11.4,1.5c-1.9,0.3-3.6,0.9-3.8,3.2c0,0.2-0.3,0.4-0.5,0.6c-0.1-0.2-0.4-0.4-0.4-0.6c-0.2-1.2-0.4-2.5-0.6-3.8
		c-0.1-0.8,0.1-1.3,0.6-2c3.9-4.5,7.8-9,11.6-13.6c0.2-0.2,0.3-0.5,0.5-0.9c-0.5,0-0.9-0.1-1.2-0.1c-3.2,0.4-6.5,0.8-9.7,1.2
		c-1.3,0.1-1.9,0.9-2.2,2.1c-0.1,0.5-0.2,1-0.3,1.4c0,0.1-0.3,0.3-0.5,0.3c-0.1,0-0.3-0.2-0.3-0.3c-0.2-2.3-0.5-4.5-0.5-6.9
		c0.2,0.2,0.4,0.4,0.5,0.6c0.6,1.2,1.6,1.6,2.9,1.5c2.7-0.3,5.3-0.6,8-0.9c3.1-0.4,6.2-0.8,9.6-1.2c-0.3,0.6-0.3,1-0.6,1.3
		c-4.2,5-8.5,10.1-12.8,15.1c-0.3,0.4-0.6,0.9-1,1.3C144.4,269.2,144.5,269.3,144.5,269.4z"/>
	<path class="st0" d="M349.4,175c-0.2,1.3-4.4,5.1-5.4,5c0.2-0.5,0.4-0.9,0.7-1.3c0.6-1,0.6-2-0.2-2.9c-0.6-0.8-1.3-1.5-2-2.2
		c-0.5-0.6-1-0.6-1.6-0.1c-1.5,1.3-3,2.6-4.4,4c-1,0.9-1.1,1.6-0.2,2.5c1.2,1.2,2.6,2.4,4,3.4c1.1,0.8,2.4,0.8,3.8,0.6
		c0.3-0.1,0.6,0,1,0c-0.6,1.4-2.8,2.3-4.4,1.8c-0.8-0.2-1.6-0.6-2.2-1.2c-2.8-3-5.5-6.1-8.2-9.1c-0.1-0.1-0.1-0.2-0.4-0.6
		c0.5,0,0.8,0,1,0.1c1.3,0.9,2.3,0.4,3.2-0.5c1.7-1.5,3.4-3.1,5.1-4.6c1.6-1.5,3.3-2.9,4.9-4.4c1.3-1.2,1.4-1.8,0.6-3.3
		c-0.2-0.5-0.3-1-0.4-1.5c0.5,0.3,1,0.5,1.4,0.9c3,3.3,6,6.6,9,9.9c1,1.1,1.1,1.2-0.1,2.3c-0.6,0.6-1.1,1.2-1.7,1.7
		c-0.2,0.2-0.5,0.1-0.7,0.2c0-0.3-0.1-0.6,0-0.8c1.1-2.1,1.1-2.9-0.4-4.7c-0.7-0.9-1.5-1.7-2.3-2.5c-0.6-0.6-1.3-0.7-2-0.1
		c-1.3,1.2-2.7,2.4-4,3.6c-0.5,0.4-0.5,0.9-0.1,1.4c0.6,0.6,1.1,1.3,1.7,1.9c0.9,0.9,2,1,3.1,0.7C348.7,175.1,349,175.1,349.4,175z"
		/>
	<path class="st0" d="M243.2,142.1c1.3,2.3-0.3,5.5-2.9,6.1c-2.9,0.7-5.8,1.3-8.7,1.9c-1.1,0.3-2.3,0.6-3.4,0.9
		c-0.1-0.1-0.1-0.2-0.2-0.4c0.2-0.2,0.4-0.5,0.7-0.7c1-0.6,1.3-1.4,1-2.4c-1.1-4.7-2.2-9.4-3.3-14.1c-0.3-1.2-0.9-1.6-2.3-1.7
		c-0.6,0-1.1-0.1-1.7-0.2c0-0.1,0-0.3-0.1-0.4c0.3-0.2,0.6-0.4,0.9-0.5c4.7-1.1,9.4-2.2,14.2-3.3c0.7-0.2,1.1-0.1,1.2,0.7
		c0.2,1,0.6,2,0.8,3c0.1,0.2-0.1,0.5-0.2,0.8c-0.2-0.2-0.6-0.2-0.7-0.5c-1.1-1.9-2.1-2.3-4.3-1.9c-1.1,0.2-2.2,0.6-3.4,0.9
		c-0.9,0.2-1.2,0.9-1,1.7c0.4,1.6,0.8,3.3,1.1,4.9c0.2,0.8,0.6,1.2,1.4,1c0.9-0.2,1.7-0.4,2.6-0.6c1.2-0.4,1.7-1.3,2-2.4
		c0.1-0.3,0.4-0.5,0.5-0.8c0.2,0.3,0.5,0.5,0.6,0.8c0.5,1.7,1,3.4,1.4,5.1c0.1,0.3-0.1,0.6-0.1,1c-0.3-0.2-0.7-0.3-0.9-0.6
		c-1.1-1.7-1.7-2-3.7-1.5c-0.7,0.2-1.4,0.3-2.1,0.5c-0.6,0.2-1,0.5-0.8,1.2c0.5,1.9,0.9,3.9,1.4,5.9c0.3,1.3,0.9,1.6,2.2,1.4
		c3.2-0.6,6.1-1.6,7.3-5.1C242.8,142.6,243,142.4,243.2,142.1z"/>
	<path class="st0" d="M378.2,274.6c-0.4,2.4-0.8,4.8-1.2,7.2c-0.2-0.1-0.3-0.1-0.3-0.1c-0.3-2.2-2.1-2.3-3.8-2.6
		c-2.8-0.5-5.6-0.8-8.3-1.5c-5.9-1.6-7.1-5.5-6.6-10.4c0.1-1.4,0.5-2.8,1-4.1c1.4-3.6,4.3-4.7,7.7-4.3c3.4,0.4,6.7,1,10.1,1.6
		c1.4,0.2,2.1-0.1,2.7-1.4c0.2-0.5,0.5-0.9,0.8-1.4c0.2,0.1,0.3,0.1,0.5,0.2c-0.5,3.1-1,6.2-1.5,9.6c-0.3-0.5-0.5-0.6-0.5-0.8
		c0-1.5-1-2.1-2.3-2.4c-2.2-0.5-4.5-0.9-6.7-1.2c-1.7-0.2-3.4-0.4-5-0.3c-2.8,0.2-4.6,2.2-5.1,5.1c-0.8,4.4,0.7,7.1,5,8.2
		c3.1,0.8,6.3,1.2,9.5,1.7c1.4,0.2,2.3-0.5,2.9-1.8c0.2-0.5,0.5-1,0.8-1.5C378,274.5,378.1,274.6,378.2,274.6z"/>
	<path class="st0" d="M158.9,191c2.2,1,4.3,1.9,6.5,2.9c0,0.2-0.1,0.3-0.1,0.5c-0.5,0-1,0.1-1.6,0c-1.2-0.2-2.1,0.3-2.6,1.4
		c-0.4,0.7-0.7,1.5-1.1,2.3c-0.3,0.7-0.2,1.1,0.5,1.5c1.8,0.9,3.5,1.8,5.3,2.6c1.3,0.6,2,0.4,2.6-0.9c1.3-2.7,2.3-5.5,0.3-8.4
		c-0.1-0.1-0.1-0.3-0.2-0.5c0-0.1,0-0.1,0.1-0.2c2.2,0.1,3.9,3.3,3,5.6c-0.4,0.9-0.9,1.8-1.3,2.8c-1.1,2.3-2.3,4.7-3.4,7
		c-0.2,0.4-0.4,0.8-0.9,1.1c-0.1-0.3-0.2-0.6-0.2-0.8c0.3-1.2-0.3-1.9-1.2-2.3c-2.3-1.2-4.6-2.3-6.9-3.4c-1.9-0.9-3.9-1.9-5.8-2.8
		c-1.5-0.7-2.1-0.6-3.2,0.7c-0.3,0.4-0.7,0.7-1.1,1c-0.1-0.1-0.2-0.1-0.3-0.2c0.1-0.4,0.1-0.8,0.3-1.1c1.9-4,3.9-8,5.9-12.1
		c0.4-0.8,0.9-1,1.7-0.6c0.8,0.4,1.7,0.7,2.5,1.1c0.2,0.1,0.3,0.4,0.4,0.6c-0.2,0.1-0.5,0.3-0.7,0.2c-2.3-0.3-3,0-4.1,2.1
		c-0.5,0.9-0.9,1.9-1.3,2.9c-0.4,0.8-0.1,1.3,0.6,1.7c1.7,0.8,3.3,1.7,5.1,2.4c0.3,0.1,0.9-0.1,1-0.3c0.6-1,1.2-2,1.4-3.1
		c0.1-0.7-0.4-1.5-0.7-2.2c-0.1-0.4-0.4-0.7-0.6-1C158.7,191.2,158.8,191.1,158.9,191z"/>
	<path class="st0" d="M152.7,306.2c-0.2-0.2-0.5-0.4-0.6-0.7c-1-2.2-2-4.4-3-6.7c-0.1-0.3-0.2-0.6-0.3-1c0.4,0.2,0.6,0.2,0.7,0.3
		c1,1.3,2.3,1.2,3.5,0.7c2.9-1.3,5.8-2.5,8.6-3.9c1.7-0.9,3.2-2.1,3.7-4.1c1.3-4.8-3.2-9.4-8-8c-3.5,1-6.7,2.6-10,4.1
		c-1.1,0.5-1.5,1.6-1.3,3c0.1,0.5,0.1,0.9,0.1,1.4c-0.1,0-0.3,0.1-0.4,0.1c-1-2.1-1.9-4.2-2.9-6.5c0.4,0.1,0.6,0.1,0.7,0.3
		c0.8,1,1.9,1,3,0.5c2.4-1,4.7-2.1,7.1-3.1c1.9-0.8,3.8-1.3,5.8-1.3c1.8,0,3.3,0.6,4.6,1.8c2.2,2.1,3.5,4.8,3.9,7.8
		c0.4,3.2-1,5.6-4.2,7.1c-2.3,1.2-4.7,2.2-7.1,3.2c-0.8,0.4-1.7,0.7-2.5,1.1c-1.3,0.6-1.6,1.3-1.3,2.6c0.1,0.4,0.1,0.8,0.1,1.2
		C152.9,306.1,152.8,306.2,152.7,306.2z"/>
	<path class="st0" d="M337.7,154.7c-1.1,2.1-2.1,3.9-3.4,5.7c-0.2-0.1-0.3-0.1-0.5-0.2c0-0.7,0.1-1.3,0.1-2c0.2-2.1-0.1-4.2-1.2-6
		c-2-3.6-6-4.7-9.6-2.8c-3.7,2-6.1,7-5.3,11.2c0.7,3.4,3.9,6.2,7.4,6.3c1.1,0,2.2-0.1,3.3-0.1c0.3,0,0.5,0.2,0.8,0.3
		c-0.2,0.2-0.3,0.6-0.5,0.7c-1.8,0.8-3.7,0.8-5.6,0.4c-3.8-0.9-6.7-3-8.5-6.4c-2.1-4-0.6-9.2,3.3-12.3c5.5-4.3,12.5-3.2,16.4,2.7
		c0.2,0.3,0.4,0.7,0.6,1C335.6,154.1,335.9,155.4,337.7,154.7z"/>
	<path class="st0" d="M364.4,227.7c-0.6-0.1-1.3-0.2-1.8-0.4c-1.9-0.8-3.4-2.1-4.5-3.9c-1.8-2.8-2.6-6-2-9.3c0.7-4,4.7-7.3,8.9-7.6
		c3.3-0.3,6.5,0.3,9,2.7c2.1,2,3.2,4.4,3.4,7.3c0.1,1.3,0,2.5-0.2,3.8c-0.1,1.1,0,1.9,1.6,2.1c-0.5,0.3-0.7,0.5-1,0.6
		c-1.5,0.6-3.1,1.3-4.6,1.8c-0.3,0.1-0.6,0-0.9,0c0.1-0.3,0.2-0.6,0.4-0.9c0.9-1.3,2-2.5,2.7-3.9c1.3-2.6,1.2-5.3-0.5-7.7
		c-1.7-2.4-4.2-3.1-7-2.8c-3,0.3-5.4,1.6-7.4,3.8c-3.1,3.5-2.8,8.4,0.8,11.5c0.7,0.6,1.6,1.1,2.4,1.7c0.3,0.2,0.6,0.4,0.9,0.7
		C364.5,227.4,364.4,227.5,364.4,227.7z"/>
	<path class="st0" d="M212.7,135.2c0.9,1.5,1.8,3,2.6,4.5c0.1,0.2,0,0.5,0,0.8c-0.3-0.1-0.6,0-0.8-0.2c-1.3-1-2.5-2.1-4.2-2.3
		c-1.9-0.3-3.5,0.3-4.8,1.6c-0.9,0.9-1.1,2-0.5,3.2c0.5,1.1,1.4,1.6,2.6,1.5c2.1-0.1,4.2-0.2,6.2-0.2c3.6,0,5.7,1.6,6.5,4.8
		c0.7,3-0.6,6-3.6,7.3c-1.8,0.8-3.8,1-5.7,1.5c-0.2,0.1-0.6-0.2-0.8-0.4c-1-1.2-2-2.4-3-3.6c-0.2-0.2-0.1-0.7-0.2-1
		c0.3,0.1,0.7,0.1,0.9,0.4c1.7,1.5,3.4,2.7,5.8,2.7c1.6,0,3-0.7,4.1-1.9c1-1.2,1.2-2.5,0.6-3.9c-0.6-1.4-1.8-1.9-3.2-1.9
		c-2.2,0.1-4.4,0.2-6.5,0.2c-3.4,0-5-1.3-5.7-4.4c-0.6-2.5,0.9-5.2,3.5-6.3c0.8-0.3,1.6-0.6,2.4-0.7
		C211,136.4,211,136.4,212.7,135.2z"/>
	<path class="st0" d="M162.9,216.6c0,0.4,0.1,0.9,0,1.3c-0.6,2.7-1.3,5.3-2,8c-0.1,0.4-0.5,0.6-0.7,0.9c-0.1-0.4-0.3-0.7-0.3-1.1
		c0.1-1.6-0.4-2.4-2-2.8c-4.6-1.2-9.1-2.3-13.7-3.5c-1-0.2-1.6,0.1-1.8,1.1c-0.2,1-0.5,2-0.7,3c-0.2,1,0.2,1.8,1,2.4
		c0.4,0.3,1,0.6,1.4,1c0.3,0.2,0.4,0.6,0.6,0.9c-0.1,0.1-0.2,0.2-0.3,0.2c-1.5-0.6-3.1-1.1-4.6-1.7c-0.2-0.1-0.3-0.7-0.2-1.1
		c1.1-4.7,2.3-9.4,3.5-14.1c0.1-0.4,0.2-0.7,0.3-1.1c0.5-2.1,0.5-2.1,2.6-1.9c0.9,0.1,1.8,0.3,2.6,0.5c0,0.2,0,0.3,0,0.5
		c-0.5,0.1-0.9,0.3-1.4,0.3c-1.5,0.2-2.2,0.7-2.6,2.2c-0.2,0.9-0.4,1.7-0.6,2.6c-0.3,1.3-0.1,1.6,1.2,2c3.4,0.9,6.8,1.7,10.2,2.5
		c0.9,0.2,1.8,0.5,2.8,0.7c1.7,0.4,2.7-0.1,3.6-1.6c0.2-0.4,0.5-0.8,0.7-1.2C162.6,216.5,162.8,216.6,162.9,216.6z"/>
	<path class="st0" d="M275.4,125.9c2.8,0.7,5.7,1.4,8.5,2.2c0,0.1,0,0.2,0,0.4c-0.3,0.1-0.6,0.3-0.9,0.3c-1.1,0-1.4,0.6-1.4,1.5
		c0,1.5,0.2,2.9,0.4,4.4c0.4,3.1,1,6.3,1.5,9.4c0,0.2,0.2,0.5,0.3,0.9c0.4-0.4,0.7-0.6,1-0.9c2.1-2.6,4.2-5.1,6.3-7.7
		c0.6-0.7,1.1-1.6,1.4-2.5c0.6-1.4,0.2-2.2-1.1-3c-0.4-0.2-0.8-0.5-1.2-0.7c0-0.1,0.1-0.2,0.1-0.3c0.4,0,0.7-0.1,1.1,0
		c1.8,0.4,3.6,0.9,5.4,1.4c0.3,0.1,0.5,0.3,0.7,0.5c-0.2,0.2-0.4,0.3-0.6,0.5c-0.8,0.6-1.8,1.2-2.4,2c-4,4.8-8,9.6-11.9,14.4
		c-0.3,0.3-0.7,0.5-1,0.7c-0.2-0.4-0.5-0.8-0.6-1.2c-1.1-6.2-2.3-12.4-3.4-18.6c-0.2-1.2-0.5-2.2-1.7-2.8c-0.2-0.1-0.4-0.4-0.5-0.6
		C275.3,126.1,275.3,126,275.4,125.9z"/>
	<path class="st0" d="M380.7,233.1c0,3.1,0,6.1,0,9.4c-0.2-0.3-0.6-0.6-0.6-0.9c-0.2-1.1-0.9-1.4-1.9-1.4c-4.9,0.1-9.8,0.2-14.7,0.2
		c-1.4,0-2,0.6-1.9,1.9c0.1,1.5,0.2,2.9,0.6,4.4c0.3,1.5,1.2,2.7,2.5,3.5c0.3,0.2,0.6,0.5,1.1,0.9c-0.5,0.1-0.7,0.3-1,0.3
		c-2.7-0.1-4.5-2.1-4.6-4.8c-0.1-3.7-0.1-7.3-0.2-11c0-0.4,0.1-0.8,0.2-1.5c0.4,0.5,0.6,0.7,0.7,0.9c0.4,1.5,1.4,1.8,2.7,1.7
		c3.9-0.1,7.9-0.1,11.8-0.2c0.6,0,1.1,0,1.7,0c1.6,0,2.2-0.4,2.6-2c0.1-0.4,0.2-0.9,0.4-1.3c0-0.1,0.1-0.1,0.2-0.2
		C380.5,233.1,380.6,233.1,380.7,233.1z"/>
	<path class="st0" d="M305.9,157.9c-2.7-1.3-5.5-2.7-8.2-4c0-0.1,0-0.2,0.1-0.3c0.3-0.1,0.5-0.2,0.7-0.1c1.2,0.1,2-0.5,2.5-1.6
		c2.1-4.2,4.1-8.4,6.2-12.6c0.6-1.2,0.4-2-0.6-2.9c-0.4-0.4-0.8-0.8-1.3-1.2c0.8-0.3,8.1,3.1,8.8,4.1c-0.5,0-0.8,0-1.1,0
		c-1.1-0.1-1.8,0.3-2.2,1.2c-2.1,4.4-4.3,8.7-6.4,13.1c-0.7,1.4-0.4,2.2,0.9,3.2c0.3,0.2,0.6,0.5,0.9,0.7
		C306,157.6,306,157.7,305.9,157.9z"/>
	<path class="st0" d="M137.9,244.1c0.1-3,0.3-5.9,0.4-8.9c0.1,0,0.2-0.1,0.4-0.1c0.1,0.3,0.3,0.5,0.4,0.8c0.3,1,0.9,1.5,1.9,1.6
		c1.6,0.1,3.2,0.2,4.7,0.3c3.1,0.2,6.3,0.3,9.4,0.5c2.2,0.1,2.8-0.4,3.4-2.5c0.1-0.2,0.2-0.4,0.3-0.6c0.1,0,0.2,0,0.4,0
		c-0.2,2.9-0.3,5.9-0.5,8.8c-0.1,0-0.2,0.1-0.2,0.1c-0.2-0.2-0.5-0.5-0.6-0.7c-0.4-1.1-1.3-1.6-2.4-1.6c-4.7-0.3-9.4-0.5-14.1-0.8
		c-1.2-0.1-1.9,0.4-2.3,1.6c-0.2,0.6-0.4,1.1-0.7,1.7C138.2,244.2,138,244.2,137.9,244.1z"/>
	<path class="st0" d="M296.2,355c0-2.2,1.8-4,4-4c2.3,0,4,1.8,4,4.1c0,2.3-1.7,4-4,4C297.9,359.1,296.2,357.3,296.2,355z
		 M302.8,355.1c0-1.5-1.1-2.6-2.5-2.7c-1.5,0-2.7,1.2-2.7,2.6c0,1.4,1.2,2.6,2.6,2.6C301.6,357.7,302.8,356.5,302.8,355.1z"/>
	<path class="st0" d="M211.1,223.7c0,0.5-0.1,0.9-0.1,1.2c0,5.5,0,10.9,0,16.4c0,0.9,0.2,1.2,1.2,1.2c3.3-0.1,6.6,0,9.9,0
		c0.5,0,1.1-0.2,1.5-0.5c2-1.6,4-3.3,6.1-5.1c0,7.7,0,15.2,0,22.9c-1.1-0.6-2.2-1.1-3.2-1.8c-2.5-1.8-5.3-2.5-8.3-2.2
		c-1.9,0.2-3.8,0-5.7,0c-0.5,0-0.9,0-0.9,0.7c0,4.7,0,9.3,0,14c0,0.1,0,0.1,0.1,0.4c10.2,0,20.4,0,30.8,0c-0.1,0.6-0.2,0.9-0.3,1.3
		c-1.6,5.1-3.2,10.2-4.8,15.3c-0.2,0.7-0.5,1-1.2,1c-15,0-30,0-45,0c-0.2,0-0.5,0-0.8-0.1c0.9-2,1.6-3.9,2.6-5.7
		c0.8-1.6,1.1-3.3,1.1-5.1c0-21.6,0-43.1,0-64.7c0-1.1-0.3-1.9-1-2.7c-1.1-1.1-2-2.3-3.2-3.7c0.5,0,0.8-0.1,1.2-0.1
		c13.9,0,27.9,0,41.8,0c0.8,0,1.2,0.2,1.5,1c2,5.2,4.1,10.4,6.1,15.5c0.1,0.3,0.2,0.5,0.3,0.9C230.8,223.7,221,223.7,211.1,223.7z
		 M194.4,208.3c0.7,1.2,1.7,1.8,1.7,3.2c0,22.7,0,45.4-0.1,68.1c0,0.7-0.2,1.5-0.5,2.1c-0.6,1.5-1.3,2.9-2,4.5
		c0.5,0,0.8,0.1,1.1,0.1c13.3,0,26.7,0,40,0c0.8,0,1.2-0.3,1.4-1.1c0.9-3,1.8-6,2.8-9c0.3-1.1,0.7-2.3,1.1-3.5
		c-0.6,0-1.1-0.1-1.6-0.1c-9.2,0-18.3,0-27.5,0c-0.9,0-1.2-0.2-1.2-1.2c0-5.6,0-11.1,0-16.7c0-0.3,0-0.7,0.1-1.1c0.5,0,0.9,0,1.2,0
		c3,0,6.1,0.1,9.1,0c2.2-0.1,4.2,0.3,6.1,1.6c0.5,0.3,1.1,0.6,1.7,0.9c0-5.1,0-9.9,0-15c-1.2,1-2.2,1.9-3.3,2.7
		c-0.4,0.3-1,0.6-1.5,0.6c-4.3,0-8.6,0-12.9,0c-0.3,0-0.6,0-0.9-0.1c0-7.6,0-15.1,0-22.7c9.5,0,19,0,28.6,0
		c-0.2-0.5-0.2-0.8-0.4-1.1c-1.5-3.7-3-7.5-4.4-11.2c-0.3-0.8-0.7-1.1-1.6-1.1c-11.9,0-23.8,0-35.8,0
		C195.3,208.3,194.9,208.3,194.4,208.3z"/>
	<path class="st0" d="M292.1,261.2c0,0.5,0,0.8,0,1.2c0,5.6,0,11.3,0,16.9c0,0.6,0.3,1.3,0.7,1.8c2.1,2.5,4.2,5,6.3,7.4
		c0.2,0.3,0.5,0.6,0.8,1c-10.8,0-21.4,0-32.3,0c1.6-1.8,3.2-3.5,4.7-5.2c1.1-1.2,2.2-2.5,3.3-3.7c0.6-0.6,0.8-1.3,0.8-2.2
		c0-20.7,0-41.4,0-62.1c0-0.7-0.3-1.5-0.7-2.1c-1.7-2.5-3.5-4.8-5.3-7.3c-0.2-0.3-0.4-0.6-0.8-1.1c0.6,0,1,0,1.3,0
		c9,0,18.1-0.1,27.1,0c4.8,0.1,9.3,1.6,12.8,5c4.9,4.7,8.4,10.4,9.9,17.1c1.9,8.5-0.1,16.4-5.3,23.3c-1.5,2-3.2,3.8-4.8,5.7
		c-0.4,0.5-0.6,0.8-0.3,1.4c3.4,7,7.9,13.1,13.7,18.2c0.6,0.5,1.2,0.7,2,0.6c1.2-0.1,2.5,0,3.7,0.1c1.5,0.2,2.3,1.2,2.5,2.7
		c0.4,4.4-2.5,8.3-6.9,9.1c-2.8,0.5-5.7,0.9-8.5,0.3c-3.3-0.7-5.8-2.8-8.2-5c-3.5-3.2-6-7.1-8.1-11.3c-1.7-3.5-3.3-7.1-4.9-10.7
		c-0.4-1-0.9-1.6-2.1-1.4C293.1,261.3,292.7,261.2,292.1,261.2z M273.9,207.9c0,0.1-0.1,0.2-0.1,0.3c1.4,1.8,2.7,3.7,4.1,5.5
		c0.3,0.4,0.5,1,0.5,1.5c0,21.5,0,42.9,0,64.4c0,0.5-0.3,1.2-0.6,1.6c-1.5,1.8-3.1,3.5-4.7,5.3c-0.2,0.3-0.5,0.6-0.8,1
		c7.8,0,15.4,0,23.3,0c-1.7-2-3.2-3.8-4.7-5.6c-0.4-0.4-0.6-1.1-0.6-1.7c0-6.6,0-13.2,0-19.8c0-0.3,0-0.7,0.1-1.1c1.5,0,3,0,4.5,0
		c2.1,0,1.5-0.3,2.3,1.5c2.3,4.8,4.4,9.7,6.9,14.5c2.4,4.5,5.7,8.2,10,10.9c1,0.6,2.2,1.1,3.4,1.4c2.5,0.6,5,0,7.5-0.3
		c3.6-0.5,5.1-3.8,5.3-6.3c0.1-0.9-0.2-1.6-1.3-1.6c-1.1,0-2.3-0.1-3.4,0c-0.9,0.1-1.5,0-2.2-0.6c-6.6-5.5-11.5-12.3-15.2-20.1
		c-0.5-1.1-0.5-1.9,0.5-2.6c0.6-0.5,1.1-1.1,1.6-1.7c3.1-3.5,6.1-7.1,7.5-11.7c1.4-4.6,2.1-9.3,1-14c-1.4-5.7-4.3-10.5-8.1-14.9
		c-3.4-4-8-5.7-13.1-5.8c-7.5-0.1-15,0-22.4,0C274.7,207.9,274.3,207.9,273.9,207.9z"/>
	<path class="st0" d="M242.5,242c0-1.7,0-3.3,0-5c0.3,0,0.5-0.1,0.8-0.1c3.2,0,6.3,0,9.5-0.1c0.8,0,1.2,0.2,1.2,1.1
		c-0.1,1.1-0.1,2.3,0,3.4c0,0.8-0.2,1.2-1,1.1c-1-0.1-1.2,0.3-1.2,1.2c0,3.5,0,7.1,0,10.6c0,0.3,0,0.7,0.1,1.1c0.7,0,1.3,0.1,2,0.1
		c0,1.8,0,3.5,0,5.2c-3.8,0-7.6,0-11.4,0c0-1.8,0-3.5,0-5.3c0-0.2,0.6-0.5,0.9-0.5c1.5-0.1,1.5-0.1,1.5-1.6c0-3.2,0-6.5,0-9.7
		c0-1.4,0-1.4-1.4-1.4C243.3,242,242.9,242,242.5,242z M249.9,257.3c0-0.6,0-1,0-1.4c0-4.7,0-9.5,0-14.2c0-1,0.1-1.6,1.3-1.4
		c0.6,0.1,0.9-0.2,0.9-0.9c0-0.6-0.3-0.8-0.9-0.8c-2,0-4,0.1-6,0.1c-0.2,0-0.4,0.4-0.7,0.6c0.2,0.2,0.4,0.5,0.6,0.6
		c0.6,0.1,1.2,0,1.9,0c0,0.5,0,0.9,0,1.3c0,4.4,0,8.8,0,13.2c0,0.7,0.1,1.4-0.2,1.9c-0.2,0.3-1.1,0.2-1.7,0.2c-0.8,0-0.7,0.6-0.7,1
		c0,0.5,0,0.9,0.7,0.9c2,0,4.1,0,6.1,0c0.2,0,0.5-0.4,0.7-0.7c-0.2-0.2-0.4-0.6-0.7-0.6C250.9,257.2,250.4,257.3,249.9,257.3z"/>
	<path class="st0" d="M265.7,255.2c0.7,0,1.3,0.1,2,0.1c0,1.8,0,3.5,0,5.2c-3.8,0-7.5,0-11.4,0c0-1.8,0-3.5,0-5.3
		c0-0.2,0.6-0.5,0.9-0.5c1.5-0.1,1.5-0.1,1.5-1.5c0-3.2,0-6.3,0-9.5c0-1.6,0-1.6-1.7-1.7c-0.2,0-0.4,0-0.7-0.1c0-1.7,0-3.3,0-5.2
		c1.8,0,3.5,0,5.3,0c1.7,0,3.5,0,5.2,0c0.7,0,1,0.2,1,1c-0.1,1.1-0.1,2.3,0,3.4c0.1,0.9-0.2,1.3-1.1,1.2c-0.3,0-0.6,0.1-0.9,0.1
		C265.7,246.7,265.7,250.9,265.7,255.2z M263.6,257.3c0-0.6,0-1,0-1.5c0-4.7,0-9.3,0-14c0-1.1,0.2-1.7,1.4-1.6
		c0.2,0,0.7-0.5,0.7-0.7c0-0.3-0.4-0.8-0.6-0.8c-2.2-0.1-4.5,0-6.8,0c0,0.6,0,0.9,0,1.3c0.3,0,0.6,0,0.8,0c1.5,0,1.5,0,1.5,1.5
		c0,4.4,0,8.8,0,13.2c0,1.8,0,1.8-1.7,1.9c-0.2,0-0.4,0.1-0.6,0.1c0,0.6,0,1.1,0,1.8c2.3,0,4.6,0,6.8,0c0.2,0,0.6-0.4,0.6-0.6
		c0-0.2-0.3-0.6-0.6-0.7C264.7,257.2,264.2,257.3,263.6,257.3z"/>
	<path class="st0" d="M370.7,370.1c0-4.9,3.9-9.8,8.6-10.7c3.6-0.7,6.5,0.8,8.8,3.5c2.7,3.1,3.1,6.6,1.4,10.2
		c-1.6,3.4-3.8,6.1-7.7,6.9c-1.2,0.2-2.6,0.1-3.7-0.2C374.6,378.8,370.4,375,370.7,370.1z M378.6,362.1c-0.3,0.1-0.9,0.1-1.5,0.2
		c-3.7,0.9-7.3,5.9-3.4,10.3c2.3,2.6,5.1,4.2,8.6,4.5c3.9,0.3,7.5-3.8,6.6-7.6C387.9,365.9,382.8,362.1,378.6,362.1z"/>
	<path class="st0" d="M318.2,399.1c0.3-0.2,0.6-0.4,1-0.5c4.1-1.1,8.3-2.2,12.4-3.3c0.9-0.3,1.4,0,1.6,0.9c0.2,0.9,0.5,1.8,0.8,2.8
		c-0.1,0.1-0.3,0.1-0.4,0.2c-0.2-0.2-0.5-0.4-0.6-0.6c-0.6-1.3-1.7-1.7-3-1.5c-1.3,0.2-2.6,0.6-3.9,1c-0.9,0.2-1.2,0.8-1,1.7
		c0.4,1.5,0.8,3,1.2,4.5c0.2,0.7,0.6,0.9,1.3,0.7c0.5-0.1,1-0.3,1.5-0.4c1.4-0.3,2.3-1.1,2.5-2.5c0.1-0.3,0.2-0.6,0.3-0.8
		c0.1,0,0.3,0,0.4-0.1c0.6,2,1.3,4.1,1.9,6.1c-0.1,0.1-0.3,0.2-0.4,0.2c-0.3-0.3-0.6-0.5-0.8-0.8c-0.9-1.2-1.5-1.5-3-1.2
		c-0.7,0.2-1.4,0.4-2.1,0.6c-0.8,0.2-1,0.7-0.8,1.4c0.5,1.7,0.9,3.4,1.4,5.1c0.3,1.1,1,1.4,2,1.1c1.3-0.4,2.7-0.9,3.9-1.5
		c1.2-0.6,2-1.6,2.5-2.9c0.1-0.3,0.3-0.7,0.5-1c0.1,0,0.3,0,0.4,0c0.1,0.6,0.2,1.2,0.1,1.7c-0.1,1.8-1.2,3.2-2.9,3.7
		c-3.5,1-7,1.9-10.5,2.8c-0.2,0.1-0.5,0-1,0.1c0.4-0.4,0.5-0.7,0.7-0.8c1-0.6,1.2-1.4,0.9-2.5c-1.1-4.1-2.2-8.2-3.3-12.2
		c-0.3-1.1-1.1-1.5-2.4-1.5c-0.5,0-0.9,0-1.4-0.1C318.2,399.4,318.2,399.2,318.2,399.1z"/>
	<path class="st0" d="M374.4,389.7c-2.2,1.9-4.4,3.8-6.6,5.7c-0.1-0.1-0.2-0.1-0.3-0.2c0.1-0.2,0.1-0.5,0.2-0.6
		c0.8-1,0.5-1.9-0.3-2.8c-2.7-3.2-5.5-6.3-8.2-9.5c-0.7-0.9-1.6-0.9-2.6-0.4c-0.5,0.2-1,0.4-1.5,0.6c-0.1-0.1-0.2-0.2-0.2-0.3
		c0.2-0.3,0.3-0.6,0.6-0.8c3.3-2.9,6.6-5.7,9.8-8.5c0.6-0.6,1.1-0.6,1.7,0c0.5,0.6,1.1,1.1,1.6,1.7c0.2,0.2,0.1,0.6,0.2,0.8
		c-0.3,0-0.6,0-0.7-0.1c-1.3-1.1-2.5-0.8-3.7,0.1c-1,0.7-1.9,1.6-2.8,2.4c-0.6,0.6-0.7,1.2-0.1,1.9c1,1.1,2,2.3,3,3.4
		c0.5,0.6,1,0.7,1.5,0.1c0.5-0.4,0.9-0.9,1.4-1.2c1.1-0.8,1.2-1.9,1-3.1c0-0.3,0-0.6,0.1-0.9c0.3,0.1,0.7,0.2,0.9,0.4
		c1.1,1.1,2.2,2.2,3.2,3.4c0.2,0.2,0.2,0.6,0.3,0.9c-0.3,0-0.6,0-0.8-0.1c-1.7-0.9-2.2-0.9-3.7,0.4c-2.5,2.2-2.5,1.7-0.3,4.2
		c0.6,0.7,1.2,1.4,1.8,2.1c1,1.1,1.9,1.3,3.3,0.7c0.4-0.2,0.8-0.3,1.2-0.4C374.3,389.5,374.4,389.6,374.4,389.7z"/>
	<path class="st0" d="M355.5,403.8c-0.6,1-8.5,4.6-9.6,4.4c0.4-0.4,0.7-0.7,1-0.9c1.3-1,1.5-1.7,0.9-3.1c-1.7-3.7-3.5-7.5-5.2-11.2
		c-0.5-1-0.9-1.2-1.9-0.7c-0.7,0.3-1.5,0.7-2.2,1c-1.4,0.7-1.8,1.5-1.7,3c0,0.5-0.2,1.1-0.3,1.6c-0.3-0.5-0.7-0.9-0.8-1.4
		c-0.3-1-1-2.3-0.7-3.1c0.3-0.7,1.7-1,2.7-1.4c4.2-2,8.4-3.9,12.5-5.9c0.7-0.3,1.1-0.3,1.5,0.4c0.5,0.9,1.1,1.8,1.7,2.6
		c-0.1,0.1-0.1,0.2-0.2,0.3c-0.3-0.1-0.8-0.1-1-0.4c-1.1-1.3-2.4-1.3-3.8-0.5c-0.7,0.4-1.5,0.7-2.2,1c-0.7,0.3-1,0.9-0.6,1.6
		c1.8,3.8,3.5,7.6,5.3,11.4c0.6,1.3,1.7,1.6,3.2,1.3C354.5,404,354.9,403.9,355.5,403.8z"/>
	<path class="st0" d="M388.5,339.3c2.1,0.9,3.9,1.6,5.6,2.4c0,0.1,0,0.3,0,0.4c-0.4,0.1-0.8,0.2-1.3,0.2c-1.7,0-3.4,0.4-4.9,1.2
		c-4,2.2-4.9,7-1.9,10.4c2.3,2.6,5.3,3.6,8.7,3.1c4.5-0.7,7.2-5,6.2-9.5c-0.1-0.6-0.2-1.2-0.3-1.8c0-0.1,0.1-0.3,0.2-0.7
		c0.4,0.6,0.7,1,0.9,1.4c0.8,1.8,0.9,3.7,0.5,5.6c-0.7,2.9-2,5.5-4.5,7.3c-3.7,2.7-9.1,1.7-12.4-2.2c-3.4-4.2-3-10,1.1-13.9
		c0.4-0.3,0.7-0.7,1.1-1C388.2,341.5,389.4,341,388.5,339.3z"/>
	<path class="st0" d="M399,313.5c1.9,0.6,3.5,1.2,5.1,1.8c0,0.2,0,0.3-0.1,0.5c-0.7,0.1-1.4,0.2-2.2,0.3c-2.6,0.2-4.5,1.8-5.1,4.3
		c-0.3,1.2,0.1,2.3,1.1,3c1.1,0.7,1.9,0.7,3-0.2c1.3-1.1,2.5-2.4,3.7-3.6c1.1-1.1,2.3-2.2,3.9-2.3c4.3-0.3,7.3,3.7,5.7,7.9
		c-0.7,1.8-2,3.3-3.1,4.9c-0.1,0.2-0.6,0.3-0.8,0.2c-1.4-0.2-2.9-0.4-4.3-0.7c-0.2,0-0.4-0.3-0.5-0.5c0.2-0.1,0.4-0.4,0.7-0.4
		c1.3-0.2,2.6-0.1,3.8-0.5c2.4-0.8,4-3.4,3.5-5.7c-0.5-2.3-3-3.4-4.9-1.9c-0.9,0.7-1.6,1.5-2.5,2.3c-0.9,0.9-1.8,1.8-2.8,2.7
		c-1.4,1.2-3,1.4-4.6,0.6c-1.7-0.8-2.8-2.1-3-4.1c-0.1-1.5,0.3-2.9,1.1-4.2C397.6,316.5,399.3,315.7,399,313.5z"/>
	<path class="st0" d="M392.3,330.1c0.1,0.3,0.2,0.5,0.1,0.7c-0.2,1.3,0.6,1.9,1.7,2.4c3.7,1.5,7.4,3,11.2,4.5
		c1.9,0.8,2.5,0.6,3.7-1.2c0.1-0.2,0.3-0.3,0.5-0.5c0.1,0,0.2,0.1,0.3,0.1c-1,2.6-2.1,5.2-3.2,8c-0.2-0.4-0.3-0.5-0.3-0.7
		c0-1.4-0.8-2.1-2-2.6c-3.6-1.4-7.2-2.9-10.9-4.4c-1.7-0.7-2.2-0.5-3.2,0.9c-0.2,0.3-0.5,0.6-0.8,0.9
		C389,337.5,391.5,330.9,392.3,330.1z"/>
	<path class="st0" d="M109.1,346.9c-1.3-2.5-2.5-4.8-3.7-7.1c0.1-0.1,0.1-0.2,0.2-0.2c0.2,0.1,0.5,0.2,0.7,0.3
		c0.8,0.7,1.8,0.8,2.7,0.3c3.8-1.9,7.6-3.8,11.4-5.8c0.9-0.5,1.3-1.3,1-2.4c-0.1-0.4-0.1-0.8,0.1-1.3c0.2,0.2,0.4,0.4,0.5,0.7
		c1.3,2.6,2.7,5.1,3.9,7.7c0.7,1.4,1.2,2.9,0.8,4.6c-0.7,3-3.8,4.4-6.4,2.9c-1.2-0.7-1.2-1-2.2,0.6c-1.1,1.7-2.1,3.3-3.2,5
		c-0.7,1-1.2,1.9,0.1,2.9c-0.1,0.1-0.2,0.2-0.3,0.3c-0.3-0.1-0.7,0-1-0.2c-1.7-1-2.3-3-1.4-4.8c0.8-1.5,1.8-2.8,2.8-4.2
		c0.4-0.6,0.9-1.2,1.2-1.9c0.5-1,0.3-2.5-0.6-3.2c-0.2-0.2-0.7-0.2-1,0c-1.4,0.7-2.8,1.4-4.2,2.1c-1.3,0.7-1.5,1.2-1.2,2.7
		c0,0.2,0,0.4,0,0.6C109.4,346.4,109.3,346.5,109.1,346.9z M125.2,340.1c-0.3-0.8-0.6-1.7-1-2.5c-0.4-0.7-1-0.9-1.7-0.5
		c-1.6,0.8-3.3,1.6-4.9,2.5c-0.3,0.2-0.6,0.9-0.5,1.1c0.6,1.2,1.3,2.4,2.2,3.4c0.3,0.4,1.1,0.5,1.6,0.5
		C123,344.5,125,342.2,125.2,340.1z"/>
	<path class="st0" d="M158.2,380.2c0.2,0.1,0.5,0.2,0.7,0.3c2.3,1.6,4.7,3.1,7,4.7c1.6,1.1,2.9,2.4,3.2,4.4c0.5,2.5-1.5,5-4.1,5.1
		c-1.9,0-1.9,0-2,2c-0.1,1.6-0.2,3.2-0.3,4.7c-0.1,1.3-0.6,2.9,1.6,3.3c-0.1,0.1-0.1,0.2-0.2,0.3c-0.3,0.1-0.5,0.3-0.8,0.3
		c-2,0.2-3.8-1.5-3.8-3.4c0.1-2.2,0.3-4.4,0.5-6.5c0.2-1.6-0.5-2.8-2-3.3c-0.3-0.1-0.8,0.1-0.9,0.4c-1,1.4-1.9,2.9-2.9,4.3
		c-0.6,0.9-0.5,1.7,0.2,2.5c0.2,0.3,0.4,0.6,0.7,0.8c-0.1,0.1-0.2,0.2-0.3,0.3c-2.2-1.5-4.4-2.9-6.6-4.4c0-0.1,0.1-0.2,0.1-0.3
		c0.3,0,0.5-0.1,0.8-0.1c1.2,0.3,2.1-0.3,2.7-1.2c2.3-3.3,4.6-6.7,6.8-10.1c0.7-1.1,0.6-1.9-0.2-3c-0.2-0.3-0.5-0.6-0.7-1
		C158,380.3,158.1,380.2,158.2,380.2z M166.3,389.1c0-1.8-0.7-2.8-1.9-3.7c-1.2-0.9-1.9-0.8-2.7,0.4c-0.9,1.3-1.7,2.6-2.7,3.9
		c-0.4,0.6-0.4,1.1,0.2,1.4c1,0.6,2,1.3,3.1,1.8c0.8,0.4,1.7,0.2,2.3-0.5C165.7,391.5,166.3,390.2,166.3,389.1z"/>
	<path class="st0" d="M126.8,351.1c7.6,0,12.8,8,9.7,13.9c-2.3,4.6-10.8,8.3-16,2.3c-1.7-2-3-4.2-3.1-6.9c-0.1-1.9,0.5-3.7,1.7-5.2
		C121.3,352.6,124.1,351.2,126.8,351.1z M125.2,368.3c3.9,0,9-3.9,10-7.8c1-3.9-2.1-7.9-5.9-7.6c-3.8,0.4-8.5,4.2-9.6,7.9
		C118.6,364.4,121.5,368.3,125.2,368.3z"/>
	<path class="st0" d="M102.1,330.5c-1-2.4-2-4.9-2.9-7.3c0-0.1,0.1-0.1,0.1-0.2c0.3,0.1,0.6,0.3,0.8,0.4c0.8,0.7,1.7,0.8,2.7,0.5
		c3.9-1.6,7.8-3.1,11.7-4.7c0.9-0.4,1.3-1.1,1.2-2.1c-0.1-0.4,0-0.9,0.2-1.4c0.2,0.3,0.5,0.5,0.6,0.8c0.9,2.3,1.9,4.5,2.8,6.8
		c0.5,1.3,0.7,2.6,0.9,4c0.2,1.9-0.7,3.4-2.4,4.3c-1.8,0.9-3.6,1-5.3-0.1c-1.7-1.1-2.5-2.7-2.8-4.6c-0.1-0.3,0.1-0.7,0.1-1.1
		c0.1,0,0.2,0,0.3-0.1c0.1,0.3,0.2,0.5,0.3,0.8c0.6,2.3,2.3,3.3,4.6,2.8c2.2-0.5,3.9-2.8,3.5-4.8c-0.1-0.5-0.3-1.1-0.5-1.6
		c-0.4-0.7-1-1.1-1.8-0.7c-4,1.6-8,3.2-12,4.8c-1.3,0.6-1.6,1.3-1.5,2.8c0,0.3-0.1,0.6-0.1,0.8C102.4,330.5,102.2,330.5,102.1,330.5
		z"/>
	<path class="st0" d="M131.2,381.4c0.1-0.1,0.1-0.1,0.1-0.1c2,0.6,3.6-0.5,5.2-1.3c4.5-2.2,9.1-4.3,13.6-6.5
		c0.2-0.1,0.4-0.2,0.9-0.4c-0.1,0.6-0.1,1-0.2,1.4c-1.5,5.3-3,10.7-4.5,16c-0.3,1.2-0.6,2.3,0.4,3.3c0.1,0.1,0,0.3,0,0.8
		c-2.2-1.9-4.3-3.6-6.4-5.3c0-0.1,0.1-0.2,0.1-0.3c0.4,0,0.7,0.1,1.1,0.2c0.9,0.2,1.7,0,2-0.9c0.4-1,0.7-2.1,1-3.2
		c0.1-0.3-0.2-0.9-0.4-1.1c-1.3-1.2-2.7-2.3-4-3.4c-0.2-0.1-0.4-0.3-0.7-0.3c-0.9-0.1-3.8,1.6-3.9,2.5c-0.1,0.4,0.1,1,0.3,1.4
		c0.2,0.5,0.6,0.9,0.9,1.4C136,385.7,132.1,382.6,131.2,381.4z M147.3,376.6c-0.1-0.1-0.2-0.2-0.3-0.3c-1.8,0.9-3.7,1.8-5.5,2.8
		c-0.1,0.1-0.2,0.7,0,0.8c1.1,1,2.2,1.9,3.3,2.8c0.2,0.1,0.8,0,0.9-0.2C146.2,380.5,146.7,378.5,147.3,376.6z"/>
	<path class="st0" d="M188.9,394.5c-0.2,1.9-0.3,3.5-0.5,5c0,0.2-0.3,0.3-0.4,0.4c-0.1-0.2-0.3-0.3-0.4-0.5c-0.4-0.9-0.6-2-1.1-2.9
		c-1-1.8-3.1-2.8-5-2.4c-1.1,0.3-1.7,1-2,2.1c-0.3,1,0.1,1.8,0.9,2.4c1.3,0.9,2.6,1.8,3.9,2.7c1.3,0.9,2.7,1.9,3.1,3.6
		c0.5,2.2,0,4.3-1.7,5.9c-1.8,1.7-4,1.7-6.2,1c-1.1-0.4-2.2-1-3.3-1.5c-0.2-0.1-0.5-0.4-0.5-0.7c-0.1-1.4-0.2-2.8-0.2-4.2
		c0-0.2,0.2-0.5,0.3-0.7c0.2,0.2,0.4,0.4,0.5,0.7c0.4,1.1,0.7,2.3,1.2,3.3c1.1,2,3.5,2.9,5.5,2.3c1.3-0.4,2-1.4,2.3-2.7
		c0.3-1.2-0.2-2.1-1.1-2.8c-1.4-1-2.9-2-4.4-3c-1.3-0.9-2.6-1.9-2.8-3.6c-0.3-3.2,1.8-6.2,5.5-5.9c1,0.1,1.9,0.4,2.8,0.9
		C186.5,394.5,187.4,395.4,188.9,394.5z"/>
	<path class="st0" d="M171.5,388.6c2.5,1,5,2,7.6,3c0,0.1,0,0.2,0,0.3c-0.2,0.1-0.4,0.2-0.6,0.1c-1.2-0.1-1.8,0.5-2.2,1.6
		c-1.5,3.8-3.1,7.6-4.6,11.4c-0.7,1.8-0.5,2.4,1.1,3.5c0.2,0.1,0.3,0.3,0.5,0.5c-0.1,0.1-0.1,0.2-0.2,0.3c-2.5-1-4.9-2-7.6-3.1
		c0.4-0.2,0.6-0.4,0.8-0.4c1.3,0.1,1.9-0.7,2.3-1.8c1.5-3.7,3-7.4,4.5-11.2c0.6-1.5,0.5-2-0.9-3.1c-0.3-0.2-0.6-0.5-0.9-0.8
		C171.4,388.9,171.4,388.7,171.5,388.6z"/>
	<path class="st0" d="M231.1,355.1c0,2.3-1.8,4-4.2,4c-2.2,0-4-1.9-4-4.1c0.1-2.2,2-4,4.1-4C229.4,351,231.2,352.8,231.1,355.1z
		 M227.1,352.4c-1.4,0-2.6,1.2-2.6,2.6c0,1.4,1.2,2.6,2.6,2.6c1.4,0,2.7-1.3,2.7-2.7C229.7,353.6,228.5,352.4,227.1,352.4z"/>
	<path class="st0" d="M289.9,234c0-4.5,0-9,0-13.5c0-0.7,0.2-1.2,0.9-1.2c4.8-0.1,9.3,0.6,12.9,4.2c2.1,2.1,3.1,4.7,3.4,7.6
		c0.3,2.8,0.2,5.7-0.8,8.4c-1.9,4.9-5.6,7.5-10.5,8.6c-1.6,0.4-3.2,0.4-4.8,0.5c-0.8,0.1-1.1-0.2-1.1-1.1
		C289.9,243,289.9,238.5,289.9,234z M291.9,246.7c1-0.1,1.8-0.1,2.6-0.3c4.8-1,8.7-3.3,10-8.4c0.5-2,0.7-4.2,0.5-6.3
		c-0.3-4.2-2.3-7.5-6.3-9.1c-1.8-0.7-3.7-0.9-5.6-1.3c-1-0.2-1.3,0.2-1.3,1.2c0,7.7,0,15.3,0,23
		C291.9,245.8,291.9,246.1,291.9,246.7z"/>
</g>
</svg>
