<?xml version="1.0" encoding="UTF-8"?><svg id="Layer_1" xmlns="http://www.w3.org/2000/svg" viewBox="0 0 397.62 20"><defs><style>.cls-1{fill:#0a35c2;}</style></defs><polygon class="cls-1" points="36.79 16.49 36.79 1.2 33.36 1.2 33.36 19.65 44.08 19.65 44.08 16.49 36.79 16.49"/><polygon class="cls-1" points="330.05 16.49 330.05 1.2 326.62 1.2 326.62 19.65 337.34 19.65 337.34 16.49 330.05 16.49"/><polyline class="cls-1" points="71.56 16.49 63.26 16.49 63.26 11.88 70.27 11.88 70.27 8.69 63.26 8.69 63.26 4.36 71.56 4.36 71.56 1.2 59.84 1.2 59.83 19.65 71.56 19.65"/><path class="cls-1" d="M125.28,1.23l-.59-1.23-9.09,19.65h3.57l1.55-3.37h7.88l1.53,3.37h3.59L125.28,1.23Zm-3.27,12.12l2.58-5.8h.08l2.64,5.8h-5.3Z"/><path class="cls-1" d="M252.79,1.23l-.59-1.23-9.09,19.65h3.57l1.55-3.37h7.88l1.53,3.37h3.59L252.79,1.23Zm-3.27,12.12l2.58-5.8h.08l2.64,5.8h-5.3Z"/><path class="cls-1" d="M9.68,1.23l-.59-1.23L0,19.65H3.57l1.55-3.37h7.88l1.53,3.37h3.59L9.68,1.23Zm-3.27,12.12l2.58-5.8h.08l2.64,5.8H6.41Z"/><path class="cls-1" d="M189.22,1.2h-6.72V19.65h6.72c5.09,0,9.25-4.14,9.25-9.25s-4.16-9.2-9.25-9.2Zm-.32,15.23h-3V4.39h3c3.42,0,5.93,2.58,5.93,6.01s-2.5,6.03-5.93,6.03Z"/><path class="cls-1" d="M225,12.19c2.29-.92,3.9-2.9,3.9-5.32,0-3.14-2.58-5.67-5.74-5.67h-8.04V19.65h3.43v-7.22h2.92m1.39-2.82h-4.29V4.36h4.29c1.4,0,2.61,1.16,2.61,2.56,0,1.48-1.21,2.69-2.61,2.69Z"/><path class="cls-1" d="M303.63,.94c2.66,0,4.58,.84,6.38,2.45,.24,.21,.24,.53,.03,.74l-1.61,1.66c-.18,.21-.45,.21-.66,0-1.11-.98-2.58-1.56-4.06-1.56-3.37,0-5.88,2.82-5.88,6.14s2.53,6.09,5.9,6.09c1.58,0,2.92-.61,4.03-1.5,.21-.18,.5-.16,.66,0l1.64,1.69c.21,.18,.16,.53-.03,.71-1.79,1.74-4.06,2.56-6.4,2.56-5.27,0-9.51-4.19-9.51-9.46s4.24-9.51,9.51-9.51Z"/><path class="cls-1" d="M363.78,1.2V12.51c0,2.21-1.55,3.98-3.85,3.98s-3.82-1.77-3.82-4.01V1.2h-3.51V12.67c0,4.01,3.19,7.25,7.33,7.25s7.35-3.24,7.35-7.25V1.2h-3.51Z"/><path class="cls-1" d="M391.2,7.95h-3.23V1.2h-3.4s0,18.45,0,18.45h7.29c3.22,0,5.74-2.69,5.74-5.64,0,0,.49-6.06-6.4-6.06Zm.81,8.59h-4.05v-5.69h3.73c1.37,0,2.56,1.53,2.56,2.85s-.92,2.85-2.24,2.85Z"/><path class="cls-1" d="M390.79,1.2h-5.46V10.69h5.99c2.61,0,4.66-2.18,4.66-4.58,0,0,.39-4.91-5.19-4.91Zm.01,6.74h-3.89v-3.61h3.63c1.11,0,2.01,.65,2.01,1.72s-.69,1.89-1.75,1.89Z"/><polygon class="cls-1" points="101.96 18.92 101.97 18.91 96.49 10.19 101.78 1.94 102.25 1.2 101.33 1.2 98.28 1.2 98.01 1.2 97.86 1.44 94.43 7.03 94.4 7.03 91.03 1.44 90.89 1.2 86.62 1.2 87.1 1.94 92.38 10.19 92.37 10.19 92.37 10.19 86.43 19.65 86.46 19.65 90.44 19.65 90.48 19.65 94.4 13.38 94.46 13.38 98.22 19.41 98.23 19.41 98.37 19.65 98.67 19.65 101.52 19.65 102.42 19.65 101.96 18.92"/><polygon class="cls-1" points="164.54 1.2 161.12 1.2 161.11 12.59 161.08 12.59 150.12 .94 148.96 .94 148.96 19.65 152.36 19.65 152.36 8.12 163.1 19.91 163.4 19.91 164.23 19.91 164.54 19.91 164.54 1.2"/><path class="cls-1" d="M230.96,16.89l.14,2.95c-1.34,.37-2.56,.04-3.34-.32-.77-.36-1.52-.9-2.2-1.62-.64-.67-2.35-2.62-4.78-5.95l2.28-2.13c.6,.81,1.3,1.74,2.11,2.78,.99,1.27,1.63,2.08,1.91,2.4,1,1.06,2.1,1.79,3.36,1.94,0,0,.27,.04,.53-.06Z"/></svg>