<?xml version="1.0" encoding="utf-8"?>
<!-- Generator: Adobe Illustrator 15.1.0, SVG Export Plug-In  -->
<!DOCTYPE svg PUBLIC "-//W3C//DTD SVG 1.1//EN" "http://www.w3.org/Graphics/SVG/1.1/DTD/svg11.dtd" [
	<!ENTITY ns_flows "http://ns.adobe.com/Flows/1.0/">
]>
<svg version="1.1"
	 xmlns="http://www.w3.org/2000/svg" xmlns:xlink="http://www.w3.org/1999/xlink" xmlns:a="http://ns.adobe.com/AdobeSVGViewerExtensions/3.0/"
	 x="0px" y="0px" width="200px" height="154px" viewBox="0 0 200 154" enable-background="new 0 0 200 154" xml:space="preserve">
<defs>
</defs>
<g>
	<g>
		<path fill-rule="evenodd" clip-rule="evenodd" fill="#FFFFFF" d="M97.806,152.39c7.006-3.107,9.358-7.787,11.146-9.891
			c1.014-1.196,3.163-0.844,3.378,0.863c0.01,0.053,0.027,0.102,0.073,0.136c0.048,0.032,0.094,0.046,0.155,0.036
			c3.719-0.508,4.448-3.92,3.214-6.588c12.545,1.666,37.528,1.709,40.852-13.023c0.01-0.064,0.024-0.137,0.043-0.209l0,0v-0.011
			v-0.009l0.007-0.013v-0.022l0.004-0.008l0,0v-0.016l0.007-0.01l0.005-0.013l0.014-0.095C182.857,111.3,200,90.874,200,67.726
			C200,30.326,155.231,0,100.002,0C44.769,0,0,30.326,0,67.726c0,24.885,19.808,46.624,49.323,58.4
			c1.167,2.706,3.042,4.691,5.503,5.471c2.38,0.76,4.954,0.279,7.388-1.146c6.328,1.752,12.978,3.08,19.88,3.917l-0.003,0.029
			c-3.605,2.154-4.188,8.438,0.97,9.138c0.058,0.01,0.108-0.004,0.152-0.036c0.044-0.034,0.063-0.083,0.075-0.136
			c0.213-1.707,2.365-2.06,3.375-0.863C88.455,144.603,90.808,149.282,97.806,152.39L97.806,152.39z M24.013,68.237l-13.518-3.119
			l1.576-6.834c0.218-0.899,0.52-1.658,0.916-2.28c0.411-0.621,0.88-1.116,1.422-1.491c0.544-0.372,1.132-0.647,1.766-0.806
			c0.644-0.167,1.303-0.242,1.985-0.224c0.691,0.018,1.376,0.102,2.06,0.261c1.038,0.242,1.944,0.594,2.711,1.066
			c0.767,0.467,1.385,1.059,1.847,1.768c0.455,0.703,0.743,1.522,0.854,2.462c0.117,0.947,0.037,2.002-0.23,3.178L24.013,68.237
			L24.013,68.237z M56.476,61.899v11.47h-2.972v-11.47h-2.663v-2.441h8.268v2.441H56.476L56.476,61.899z M99.562,91.474
			c-0.229,0.107-0.477,0.189-0.732,0.236c-0.248,0.051-0.493,0.082-0.738,0.082c-0.563-0.006-1.061-0.1-1.496-0.284
			c-0.438-0.181-0.808-0.433-1.117-0.754c-0.319-0.325-0.575-0.692-0.776-1.118c-0.203-0.422-0.355-0.88-0.454-1.365
			c-0.094-0.479-0.144-0.978-0.144-1.482c0-0.51,0.05-0.999,0.144-1.484c0.099-0.49,0.251-0.945,0.454-1.363
			c0.201-0.425,0.457-0.793,0.776-1.116c0.31-0.321,0.68-0.577,1.117-0.759c0.436-0.18,0.933-0.268,1.496-0.273
			c0.557,0.006,1.061,0.094,1.497,0.273c0.427,0.182,0.802,0.438,1.12,0.759c0.314,0.323,0.573,0.691,0.775,1.116
			c0.204,0.418,0.352,0.873,0.451,1.363c0.092,0.485,0.14,0.975,0.14,1.484c0.008,0.447-0.031,0.883-0.104,1.319
			c-0.074,0.433-0.197,0.847-0.366,1.243c-0.171,0.398-0.388,0.76-0.668,1.094l-1.596-1.396l-1.103,1.264L99.562,91.474
			L99.562,91.474z M106.353,107.583c1.281-2.557,4.139-4.094,6.621-5.307c0.635-0.309,1.363-0.168,1.842,0.357
			c0.477,0.524,0.536,1.266,0.166,1.864c-0.391,0.636-0.771,1.298-1.143,1.989c-4.252,7.998-6.451,18.709-6.244,28.1
			c-0.534,0.281-1.086,0.644-1.651,1.081c-0.063,0.052-0.136,0.062-0.206,0.022c-0.069-0.031-0.116-0.103-0.116-0.178
			c-0.025-3.377,0.047-6.848,0.165-10.521c0.005-0.099-0.044-0.19-0.106-0.212c-0.07-0.031-0.136,0.027-0.154,0.122
			c-0.607,3.069-0.95,6.507-1.009,10.038c0,0.094-0.07,0.168-0.159,0.195c-0.091,0.012-0.18-0.027-0.228-0.111
			c-0.034-0.074-0.063-0.141-0.099-0.217c-0.018-0.022-0.022-0.053-0.022-0.078c-0.088-4.081-0.018-8.243,0.125-12.715
			c0.008-0.096-0.041-0.193-0.11-0.215c-0.065-0.023-0.128,0.027-0.15,0.131c-0.618,3.129-0.958,6.615-1.008,10.209
			c0,0.087-0.061,0.164-0.148,0.191c-0.077,0.025-0.163-0.006-0.22-0.075c-0.208-0.288-0.43-0.573-0.66-0.851
			c-0.026-0.037-0.05-0.082-0.05-0.129c-0.024-1.368-0.051-2.767-0.066-4.192c0-0.103-0.06-0.191-0.121-0.218
			c-0.067-0.013-0.135,0.039-0.148,0.14c-0.148,1.003-0.273,2.042-0.363,3.116c-0.01,0.072-0.059,0.139-0.124,0.164
			c-0.084,0.028-0.157,0.016-0.212-0.039c-0.278-0.258-0.568-0.514-0.87-0.764c-0.052-0.031-0.078-0.086-0.078-0.148
			c-0.008-0.635-0.018-1.279-0.026-1.932c0-0.1-0.052-0.189-0.114-0.216c-0.075-0.017-0.133,0.039-0.146,0.142
			c-0.076,0.453-0.133,0.908-0.195,1.379c-0.003,0.066-0.048,0.124-0.116,0.16c-0.065,0.026-0.13,0.023-0.196-0.018
			c-0.376-0.259-0.78-0.508-1.204-0.742c-3.712,2.041-5.636,5.092-7.031,8.512c-2.074-1.955-3.985-2.805-5.625-2.923
			c0.301-3.536,0.719-7.068,1.35-10.54c0.675-3.762,1.593-7.479,2.856-11.083c1.35-3.509,3.098-6.256,4.692-6.156
			c0.828,0.045,0.33,2.356,2.291,3.03c1.127,0.389,2.667,0.621,3.828,0.439c0.604-0.1,1.148-0.269,1.653-0.494
			c0.149-0.068,0.307-0.043,0.426,0.068c0.115,0.109,0.169,0.269,0.115,0.42c-0.299,0.912-0.458,1.943-0.466,3.208
			c-0.012,0.055,0.014,0.095,0.054,0.106c0.053,0.014,0.102-0.016,0.118-0.07c0.506-1.473,0.821-2.491,1.162-3.412l0.003-0.01
			l0.032-0.078l0.016-0.041c0.426-1.085,1.248-1.955,2.363-2.654c0.077-0.054,0.179-0.037,0.244,0.026
			c0.069,0.065,0.079,0.165,0.027,0.246c-0.479,0.78-0.847,1.545-1.13,2.326c-0.607,1.705-0.79,3.534-0.854,6.072
			c0,0.061,0.04,0.111,0.1,0.118c0.052,0.003,0.099-0.031,0.12-0.089c0.475-2.134,0.796-3.784,1.379-5.481
			c0.142-0.419,0.3-0.842,0.477-1.277v0.014l0.007-0.026C106.113,108.102,106.231,107.843,106.353,107.583L106.353,107.583z
			 M102.52,91.821l1.688,1.469l-1.122,1.252l-1.915-1.672c-0.483,0.274-0.994,0.471-1.514,0.596
			c-0.526,0.133-1.049,0.193-1.565,0.193c-0.787-0.004-1.511-0.123-2.163-0.355c-0.653-0.234-1.236-0.558-1.749-0.98
			c-0.508-0.424-0.938-0.922-1.289-1.498c-0.355-0.575-0.621-1.196-0.805-1.885c-0.188-0.68-0.271-1.396-0.271-2.152
			c0-0.748,0.083-1.471,0.271-2.156c0.184-0.679,0.449-1.313,0.805-1.881c0.352-0.574,0.781-1.073,1.289-1.496
			c0.513-0.424,1.096-0.75,1.749-0.979c0.652-0.237,1.376-0.357,2.163-0.357c0.786,0,1.506,0.12,2.166,0.357
			c0.651,0.229,1.237,0.556,1.745,0.979c0.511,0.423,0.938,0.922,1.298,1.496c0.351,0.568,0.621,1.202,0.796,1.881
			c0.182,0.686,0.28,1.408,0.28,2.156c0,0.451-0.036,0.91-0.109,1.371c-0.074,0.454-0.184,0.914-0.331,1.357
			c-0.151,0.443-0.34,0.859-0.577,1.251C103.124,91.155,102.838,91.508,102.52,91.821L102.52,91.821z M106.342,93.346v-2.477h2.549
			v2.477H106.342L106.342,93.346z M61.411,68.712v-5.013c0-1.64,0.264-2.77,0.807-3.404c0.339-0.383,0.833-0.666,1.482-0.855
			c0.518-0.156,1.064-0.221,1.638-0.221c1.638,0,2.773,0.585,3.395,1.773c0.257,0.484,0.406,1.068,0.455,1.733l0.008,0.943v5.044
			c0,0.776-0.027,1.381-0.07,1.805c-0.116,1.014-0.535,1.791-1.268,2.331c-0.69,0.515-1.54,0.764-2.548,0.764
			c-1.111,0-2.047-0.267-2.792-0.814c-0.543-0.403-0.868-0.975-0.969-1.722C61.455,70.335,61.411,69.547,61.411,68.712
			L61.411,68.712z M66.296,68.712c-0.029,1.174-0.076,1.859-0.162,2.052c-0.143,0.341-0.416,0.511-0.835,0.511
			c-0.389,0-0.652-0.188-0.8-0.576c-0.073-0.192-0.121-0.858-0.14-1.987v-5.013c0.028-0.875,0.071-1.43,0.14-1.663
			c0.11-0.352,0.387-0.528,0.819-0.528c0.39,0,0.657,0.16,0.805,0.481c0.11,0.234,0.173,0.808,0.173,1.71V68.712L66.296,68.712z
			 M71.653,68.712v-5.013c0-1.64,0.269-2.77,0.811-3.404c0.331-0.383,0.827-0.666,1.482-0.855c0.516-0.156,1.059-0.221,1.637-0.221
			c1.638,0,2.77,0.585,3.389,1.773c0.266,0.484,0.411,1.068,0.454,1.733l0.008,0.943v5.044c0,0.776-0.02,1.381-0.07,1.805
			c-0.109,1.014-0.53,1.791-1.263,2.331c-0.695,0.515-1.541,0.764-2.544,0.764c-1.119,0-2.048-0.267-2.798-0.814
			c-0.541-0.403-0.86-0.975-0.965-1.722C71.697,70.335,71.653,69.547,71.653,68.712L71.653,68.712z M76.543,68.712
			c-0.031,1.174-0.081,1.859-0.164,2.052c-0.146,0.341-0.425,0.511-0.837,0.511c-0.385,0-0.654-0.188-0.805-0.576
			c-0.074-0.192-0.111-0.858-0.133-1.987v-5.013c0.026-0.875,0.067-1.43,0.133-1.663c0.118-0.352,0.394-0.528,0.824-0.528
			c0.385,0,0.655,0.16,0.808,0.481c0.111,0.234,0.174,0.808,0.174,1.71V68.712L76.543,68.712z M94.189,59.458l-2.037,13.911h-3.586
			l-0.626-8.495l-0.714,8.495h-3.804l-1.844-13.911h3.059l0.959,9.968l0.899-9.968h2.823l0.928,9.968l0.919-9.968H94.189
			L94.189,59.458z M96.304,68.712v-5.013c0-1.64,0.273-2.77,0.812-3.404c0.33-0.383,0.824-0.666,1.478-0.855
			c0.517-0.156,1.063-0.221,1.641-0.221c1.631,0,2.768,0.585,3.386,1.773c0.266,0.484,0.412,1.068,0.457,1.733l0.007,0.943v5.044
			c0,0.776-0.026,1.381-0.069,1.805c-0.108,1.014-0.53,1.791-1.267,2.331c-0.696,0.515-1.543,0.764-2.547,0.764
			c-1.115,0-2.045-0.267-2.795-0.814c-0.542-0.403-0.864-0.975-0.963-1.722C96.344,70.335,96.304,69.547,96.304,68.712
			L96.304,68.712z M101.189,68.712c-0.026,1.174-0.082,1.859-0.167,2.052c-0.143,0.341-0.423,0.511-0.835,0.511
			c-0.384,0-0.647-0.188-0.803-0.576c-0.065-0.192-0.115-0.858-0.134-1.987v-5.013c0.023-0.875,0.068-1.43,0.134-1.663
			c0.114-0.352,0.393-0.528,0.832-0.528c0.38,0,0.648,0.16,0.794,0.481c0.118,0.234,0.179,0.808,0.179,1.71V68.712L101.189,68.712z
			 M106.542,68.712v-5.013c0-1.64,0.271-2.77,0.812-3.404c0.333-0.383,0.838-0.666,1.481-0.855c0.52-0.156,1.063-0.221,1.645-0.221
			c1.635,0,2.765,0.585,3.391,1.773c0.256,0.484,0.405,1.068,0.444,1.733l0.011,0.943v5.044c0,0.776-0.024,1.381-0.07,1.805
			c-0.113,1.014-0.529,1.791-1.268,2.331c-0.688,0.515-1.54,0.764-2.544,0.764c-1.112,0-2.046-0.267-2.792-0.814
			c-0.545-0.403-0.866-0.975-0.963-1.722C106.589,70.335,106.542,69.547,106.542,68.712L106.542,68.712z M111.437,68.712
			c-0.037,1.174-0.087,1.859-0.166,2.052c-0.143,0.341-0.423,0.511-0.834,0.511c-0.378,0-0.651-0.188-0.808-0.576
			c-0.075-0.192-0.118-0.858-0.128-1.987v-5.013c0.019-0.875,0.064-1.43,0.128-1.663c0.118-0.352,0.394-0.528,0.829-0.528
			c0.38,0,0.647,0.16,0.799,0.481c0.117,0.234,0.18,0.808,0.18,1.71V68.712L111.437,68.712z M127.722,59.458v13.911h-2.904v-9.211
			l-1.623,9.211h-1.837l-1.587-9.211v9.211h-2.886V59.458h4.394l1.049,6.094l1.098-6.094H127.722L127.722,59.458z M130.376,59.458
			h4.483c0.895,0,1.596,0.198,2.108,0.585c0.683,0.521,1.021,1.582,1.021,3.199c0,1.078-0.185,1.859-0.547,2.35
			c-0.191,0.273-0.503,0.45-0.928,0.53c0.511,0.126,0.893,0.364,1.152,0.728c0.244,0.339,0.393,0.704,0.459,1.091
			c0.063,0.393,0.102,0.842,0.102,1.341c0,1.155-0.116,2.015-0.34,2.58c-0.221,0.551-0.547,0.932-0.978,1.152
			c-0.462,0.238-1.086,0.355-1.872,0.355h-4.662V59.458L130.376,59.458z M133.347,71.125v-3.707h0.439
			c0.526,0,0.872,0.092,1.044,0.273c0.253,0.273,0.383,0.801,0.383,1.59c0,0.773-0.078,1.273-0.245,1.496
			c-0.171,0.228-0.454,0.347-0.855,0.347H133.347L133.347,71.125z M133.347,65.154v-3.402h0.57c0.305,0,0.538,0.061,0.684,0.175
			c0.267,0.2,0.397,0.714,0.397,1.525c0,0.583-0.049,0.975-0.139,1.178c-0.114,0.239-0.282,0.398-0.49,0.472
			c-0.097,0.041-0.293,0.052-0.583,0.052H133.347L133.347,65.154z M145.746,70.814h-2.181l-0.37,2.555h-2.963l2.578-13.911h3.743
			l2.607,13.911h-3.06L145.746,70.814L145.746,70.814z M145.523,68.486h-1.746l0.864-6.71L145.523,68.486L145.523,68.486z
			 M14.92,61.755l0.307-1.327c0.143-0.599,0.341-1.081,0.601-1.438c0.246-0.362,0.539-0.636,0.852-0.813
			c0.313-0.174,0.635-0.29,0.954-0.343c0.316-0.049,0.617-0.067,0.896-0.034c0.27,0.018,0.496,0.051,0.671,0.095
			c0.261,0.059,0.534,0.136,0.824,0.252c0.292,0.114,0.573,0.265,0.844,0.447c0.269,0.185,0.498,0.416,0.696,0.689
			c0.193,0.284,0.326,0.615,0.392,1.003c0.067,0.388,0.046,0.84-0.07,1.361l-0.38,1.624L14.92,61.755L14.92,61.755z M26.513,43.613
			c-0.695-0.808-1.209-1.649-1.536-2.536c-0.327-0.89-0.47-1.782-0.428-2.679c0.038-0.893,0.275-1.762,0.685-2.586
			c0.418-0.839,1.026-1.605,1.817-2.303c0.804-0.687,1.647-1.185,2.532-1.473c0.878-0.3,1.764-0.41,2.656-0.326
			c0.894,0.085,1.755,0.343,2.588,0.798c0.836,0.446,1.602,1.073,2.299,1.874c0.698,0.803,1.209,1.65,1.539,2.536
			c0.332,0.886,0.473,1.779,0.427,2.675c-0.039,0.897-0.269,1.763-0.687,2.59c-0.414,0.839-1.023,1.599-1.819,2.303
			c-0.806,0.688-1.642,1.181-2.524,1.478c-0.882,0.295-1.771,0.404-2.665,0.318c-0.888-0.085-1.753-0.343-2.589-0.793
			C27.981,45.036,27.21,44.41,26.513,43.613L26.513,43.613z M29.74,40.809c-0.398-0.469-0.703-0.909-0.906-1.319
			c-0.192-0.405-0.314-0.786-0.354-1.132c-0.043-0.351-0.024-0.667,0.051-0.95c0.077-0.28,0.182-0.529,0.324-0.746
			c0.144-0.219,0.3-0.392,0.464-0.54c0.164-0.148,0.363-0.279,0.603-0.389c0.227-0.109,0.488-0.182,0.78-0.213
			c0.289-0.039,0.607-0.013,0.948,0.083c0.339,0.083,0.701,0.252,1.074,0.513c0.382,0.251,0.771,0.608,1.18,1.07
			c0.399,0.468,0.696,0.909,0.902,1.315c0.193,0.404,0.313,0.784,0.354,1.132c0.042,0.35,0.025,0.667-0.052,0.955
			c-0.07,0.277-0.178,0.527-0.325,0.74c-0.141,0.22-0.297,0.4-0.466,0.541c-0.158,0.146-0.366,0.275-0.596,0.388
			c-0.236,0.112-0.5,0.187-0.788,0.223c-0.293,0.033-0.604,0.003-0.945-0.084c-0.339-0.089-0.697-0.266-1.074-0.51
			C30.533,41.629,30.14,41.27,29.74,40.809L29.74,40.809z M58.008,15.55l2.339,14.22l-3.77,1.759l-4.921-7.029l-0.039,0.016
			l2.252,8.274l-3.782,1.769l-9.281-10.982l3.794-1.772l5.159,7.047l0.032-0.014l-2.103-8.47l3.414-1.597l5.15,7.187l0.032-0.02
			l-2.1-8.601L58.008,15.55L58.008,15.55z M70.694,26.745l-2.642-13.618l4.29-0.833l5.381,6.518l0.041-0.008l-1.415-7.29l3.96-0.766
			l2.654,13.616l-4.085,0.794l-5.622-6.628l-0.036,0.008l1.442,7.437L70.694,26.745L70.694,26.745z M89.749,19.187l4.275-0.075
			c0.003,0.178,0.019,0.339,0.053,0.492c0.026,0.152,0.065,0.294,0.114,0.417c0.109,0.272,0.282,0.485,0.5,0.624
			c0.226,0.147,0.472,0.239,0.745,0.289c0.273,0.053,0.549,0.065,0.814,0.065c0.179-0.003,0.368-0.021,0.57-0.062
			c0.199-0.043,0.39-0.104,0.569-0.207c0.177-0.092,0.328-0.225,0.438-0.392c0.115-0.168,0.167-0.38,0.162-0.635
			c0-0.177-0.041-0.329-0.136-0.459c-0.094-0.12-0.252-0.239-0.472-0.342c-0.226-0.098-0.534-0.214-0.917-0.328
			c-0.394-0.12-0.892-0.255-1.489-0.411c-0.447-0.118-0.894-0.237-1.334-0.365c-0.457-0.124-0.883-0.282-1.284-0.472
			c-0.409-0.176-0.771-0.408-1.083-0.676c-0.324-0.267-0.579-0.603-0.77-1c-0.184-0.396-0.283-0.868-0.305-1.425
			c-0.005-0.644,0.092-1.212,0.286-1.715c0.188-0.498,0.463-0.934,0.812-1.3c0.355-0.371,0.765-0.678,1.226-0.922
			c0.472-0.239,0.978-0.427,1.52-0.545c0.541-0.123,1.104-0.187,1.678-0.194c0.604-0.018,1.188,0.02,1.744,0.11
			c0.565,0.094,1.085,0.233,1.569,0.442c0.482,0.208,0.906,0.487,1.281,0.836c0.365,0.339,0.66,0.766,0.88,1.269
			c0.223,0.5,0.354,1.091,0.39,1.76l-4.04,0.075c0.031-0.269-0.008-0.488-0.104-0.662c-0.102-0.183-0.239-0.331-0.421-0.44
			c-0.176-0.12-0.38-0.211-0.602-0.259c-0.226-0.049-0.447-0.074-0.663-0.067c-0.146-0.004-0.314,0.013-0.484,0.044
			c-0.174,0.026-0.341,0.074-0.498,0.146c-0.161,0.072-0.29,0.167-0.39,0.294c-0.101,0.12-0.148,0.282-0.148,0.472
			c0.029,0.243,0.156,0.446,0.396,0.608c0.235,0.166,0.542,0.302,0.929,0.415c0.38,0.116,0.811,0.216,1.277,0.323
			c0.467,0.097,0.952,0.211,1.45,0.336s0.979,0.282,1.444,0.47c0.464,0.195,0.894,0.435,1.265,0.734
			c0.377,0.295,0.679,0.67,0.903,1.115c0.225,0.441,0.347,0.978,0.363,1.613c0.012,0.723-0.109,1.355-0.333,1.894
			c-0.237,0.536-0.564,0.989-0.978,1.374c-0.418,0.375-0.893,0.683-1.44,0.922c-0.542,0.239-1.116,0.405-1.728,0.52
			c-0.608,0.114-1.237,0.173-1.854,0.185c-0.221,0-0.504-0.008-0.83-0.029c-0.319-0.028-0.673-0.081-1.058-0.155
			c-0.382-0.079-0.775-0.19-1.169-0.334c-0.395-0.148-0.772-0.341-1.138-0.579c-0.369-0.239-0.696-0.532-0.988-0.883
			c-0.296-0.342-0.525-0.762-0.701-1.249C89.867,20.373,89.769,19.818,89.749,19.187L89.749,19.187z M136.771,20.625l-4.021-1.078
			c0.017-0.102,0.02-0.241,0.017-0.419c0-0.166-0.024-0.355-0.073-0.562c-0.046-0.208-0.126-0.421-0.247-0.614
			c-0.11-0.208-0.28-0.393-0.495-0.56c-0.203-0.162-0.488-0.298-0.831-0.388c-0.478-0.133-0.91-0.126-1.297-0.007
			c-0.382,0.121-0.726,0.329-1.013,0.634c-0.297,0.298-0.535,0.652-0.742,1.06c-0.201,0.417-0.363,0.844-0.484,1.304
			c-0.128,0.457-0.2,0.913-0.227,1.371c-0.034,0.454,0.003,0.886,0.099,1.291c0.106,0.406,0.3,0.76,0.568,1.055
			c0.273,0.294,0.644,0.508,1.122,0.647c0.462,0.119,0.866,0.119,1.211,0c0.351-0.12,0.642-0.318,0.897-0.608
			c0.256-0.291,0.483-0.644,0.668-1.044l4.058,1.089c-0.145,0.544-0.376,1.059-0.691,1.543c-0.314,0.488-0.711,0.922-1.166,1.308
			c-0.462,0.385-0.996,0.696-1.589,0.934c-0.593,0.228-1.237,0.37-1.937,0.401c-0.695,0.04-1.446-0.044-2.23-0.255
			c-0.865-0.233-1.627-0.556-2.275-0.986c-0.654-0.421-1.198-0.916-1.627-1.484c-0.442-0.568-0.771-1.196-0.991-1.874
			c-0.208-0.681-0.325-1.405-0.325-2.166c-0.004-0.755,0.095-1.533,0.308-2.323c0.283-1.064,0.704-1.977,1.248-2.754
			c0.552-0.774,1.207-1.392,1.962-1.846c0.762-0.46,1.603-0.74,2.529-0.852c0.916-0.105,1.896-0.021,2.938,0.25
			c1.227,0.336,2.204,0.831,2.956,1.479c0.746,0.643,1.254,1.427,1.535,2.351C136.9,18.437,136.946,19.467,136.771,20.625
			L136.771,20.625z M141.398,31.917l6.087-12.471l3.837,1.876l-4.522,9.273l5.521,2.693l-1.56,3.189L141.398,31.917L141.398,31.917z
			 M175.845,39.855l-6.02,6.02c-1.355,1.363-2.739,2.001-4.139,1.92c-1.405-0.077-2.849-0.857-4.346-2.36
			c-1.502-1.496-2.293-2.951-2.377-4.357c-0.079-1.407,0.561-2.792,1.92-4.146l6.014-6.02l3.023,3.021l-5.346,5.35
			c-0.2,0.195-0.405,0.411-0.606,0.627c-0.193,0.221-0.375,0.452-0.518,0.691c-0.153,0.24-0.251,0.485-0.302,0.75
			c-0.047,0.25-0.031,0.516,0.065,0.794c0.095,0.273,0.29,0.562,0.58,0.86c0.283,0.282,0.563,0.469,0.837,0.559
			c0.273,0.095,0.532,0.106,0.785,0.052c0.26-0.052,0.498-0.158,0.735-0.305c0.244-0.149,0.469-0.326,0.696-0.524
			c0.213-0.203,0.431-0.405,0.624-0.607l5.352-5.347L175.845,39.855L175.845,39.855z M176.887,59.245l0.603,2.616
			c0.113,0.488,0.094,0.88-0.059,1.166c-0.154,0.293-0.428,0.483-0.829,0.574c-0.347,0.075-0.632,0.062-0.851-0.041
			c-0.228-0.104-0.4-0.275-0.531-0.501c-0.118-0.228-0.221-0.493-0.285-0.789l-0.564-2.441L176.887,59.245L176.887,59.245z
			 M170.191,56.408l13.508-3.121l1.714,7.401c0.164,0.714,0.237,1.332,0.201,1.867c-0.029,0.534-0.125,0.993-0.291,1.373
			c-0.166,0.383-0.372,0.701-0.626,0.953c-0.247,0.25-0.525,0.451-0.815,0.595c-0.292,0.149-0.58,0.251-0.855,0.315
			c-0.454,0.1-0.858,0.116-1.222,0.054c-0.357-0.054-0.686-0.187-0.986-0.377c-0.292-0.198-0.575-0.44-0.836-0.732
			c-0.026,0.324-0.103,0.65-0.214,0.973c-0.117,0.321-0.279,0.623-0.5,0.909c-0.221,0.28-0.5,0.524-0.846,0.746
			c-0.352,0.213-0.765,0.374-1.263,0.498c-0.539,0.12-1.05,0.141-1.53,0.074c-0.467-0.074-0.908-0.223-1.311-0.454
			c-0.401-0.228-0.756-0.51-1.071-0.86c-0.313-0.353-0.574-0.741-0.798-1.182c-0.213-0.426-0.377-0.885-0.487-1.359L170.191,56.408
			L170.191,56.408z M181.45,58.197l0.505,2.195c0.07,0.287,0.095,0.541,0.085,0.764c-0.008,0.228-0.066,0.415-0.177,0.565
			c-0.114,0.149-0.285,0.254-0.508,0.307c-0.285,0.067-0.527,0.059-0.711-0.02c-0.198-0.076-0.346-0.217-0.466-0.412
			c-0.109-0.193-0.204-0.44-0.268-0.737l-0.509-2.19L181.45,58.197L181.45,58.197z M176.222,100.883
			c0.134-5.596-0.776-10.579-2.147-16.373c-0.015-0.063,0.015-0.122,0.073-0.151c0.061-0.021,0.131,0.006,0.16,0.063
			c2.396,4.7,3.38,11.072,2.163,16.493c-0.015,0.059-0.075,0.102-0.142,0.099C176.268,101.001,176.222,100.944,176.222,100.883
			L176.222,100.883z M130.222,127.836c-0.019,0.234-0.145,0.43-0.342,0.548c-0.207,0.117-0.425,0.137-0.648,0.045
			c-0.59-0.242-1.189-0.49-1.796-0.75c-0.307-0.129-0.472-0.431-0.435-0.752c0.933-7.566,0.633-17.309,0.331-21.705
			c-0.01-0.189,0.11-0.357,0.297-0.404c4.677-1.297,9.061-2.89,13.075-4.742c0.215-0.1,0.445-0.092,0.648,0.027
			c0.21,0.115,0.341,0.304,0.367,0.535c0.665,5.132,1.71,16.488,1.212,24.666c-0.017,0.305-0.213,0.549-0.493,0.645
			c-3.388,1.099-6.876,2.068-10.469,2.902c-0.239,0.057-0.477-0.004-0.655-0.176c-0.181-0.169-0.259-0.398-0.221-0.641
			c1.122-6.839,1.101-14.212,0.022-20.245c-0.02-0.095-0.074-0.154-0.149-0.138c-0.062,0.031-0.112,0.116-0.112,0.227
			C130.946,115.012,130.864,121.366,130.222,127.836L130.222,127.836z M135.544,122.994c0.572-5.562,0.19-10.605-0.51-16.507
			c-0.011-0.057,0.025-0.12,0.076-0.137c0.059-0.017,0.103,0.017,0.129,0.08c1.661,4.898,1.99,11.331,0.515,16.615
			c-0.02,0.063-0.07,0.098-0.125,0.084C135.57,123.112,135.536,123.056,135.544,122.994L135.544,122.994z M144.275,124.295
			c0.281-8.603-1.17-20.019-1.913-24.438c-0.045-0.316,0.107-0.618,0.393-0.764c1.581-0.785,3.098-1.612,4.549-2.484
			c0.218-0.133,0.454-0.139,0.682-0.029c0.222,0.101,0.365,0.299,0.399,0.551c0.751,5.363,1.958,17.149,1.522,25.652
			c-0.01,0.29-0.181,0.529-0.449,0.635c-1.388,0.547-2.795,1.072-4.229,1.58c-0.228,0.078-0.465,0.043-0.663-0.1
			C144.371,124.749,144.261,124.534,144.275,124.295L144.275,124.295z M151.296,121.569c0.193-9.066-1.488-21.057-2.29-25.498
			c-0.048-0.289,0.07-0.568,0.316-0.73c1.836-1.199,3.545-2.465,5.122-3.793c0.203-0.17,0.462-0.217,0.708-0.123
			c0.247,0.086,0.416,0.285,0.465,0.55c0.996,5.646,2.749,18.121,2.669,27.052c0,0.281-0.152,0.515-0.396,0.638
			c-1.816,0.905-3.68,1.766-5.591,2.585c-0.229,0.093-0.478,0.07-0.684-0.07C151.407,122.042,151.296,121.821,151.296,121.569
			L151.296,121.569z M159.619,117.609c-0.203-9.731-2.527-22.667-3.497-27.062c-0.055-0.252,0.026-0.504,0.209-0.68
			c6.4-6.018,10.09-13.103,10.09-20.697c0-21.771-30.382-39.428-67.863-39.428c-37.482,0-67.866,17.657-67.866,39.428
			c0,7.56,3.663,14.619,10.003,20.621c0.177,0.152,0.264,0.363,0.256,0.594c-0.005,0.239-0.102,0.439-0.277,0.592
			c-3.661,3.15-11.368,10.309-15.987,16.441c-0.137,0.184-0.323,0.291-0.55,0.313c-0.227,0.026-0.438-0.034-0.612-0.189
			C10.661,96.566,2.991,82.747,2.991,67.726c0-35.747,43.43-64.728,97.011-64.728c53.571,0,97.007,28.981,97.007,64.728
			c0,20.426-14.183,38.639-36.328,50.502c-0.225,0.117-0.479,0.114-0.706-0.014C159.752,118.081,159.624,117.86,159.619,117.609
			L159.619,117.609z M168.153,109.738c-0.066-7.696-1.32-14.514-3.146-22.442c-0.021-0.078,0.019-0.168,0.089-0.196
			c0.068-0.039,0.144,0,0.18,0.074c2.969,6.385,4.367,15.111,3.17,22.599c-0.015,0.086-0.08,0.141-0.152,0.133
			C168.222,109.905,168.153,109.825,168.153,109.738L168.153,109.738z M126.589,105.591c0.15,4.438,0.136,13.262-0.759,20.406
			c-0.024,0.234-0.15,0.417-0.354,0.533c-0.202,0.117-0.419,0.133-0.646,0.039c-0.319-0.144-0.643-0.281-0.967-0.427
			c-0.29-0.123-0.457-0.409-0.424-0.728c0.704-7.165,0.537-15.432,0.317-19.281c-0.007-0.195,0.122-0.364,0.313-0.414
			c0.675-0.156,1.348-0.326,2.015-0.501c0.126-0.028,0.242-0.005,0.347,0.07C126.531,105.364,126.589,105.47,126.589,105.591
			L126.589,105.591z M112.716,120.666c0.039-1.173,0.062-2.28,0.075-3.296c0.416-1.475,0.873-2.9,1.377-4.259
			c0.036-0.083,0.128-0.143,0.229-0.12c0.093,0.014,0.163,0.099,0.158,0.202c-0.051,2.23-0.158,4.854-0.358,7.569
			c-0.017,0.238-0.138,0.443-0.348,0.57c-0.209,0.123-0.445,0.136-0.666,0.033l-0.046-0.02
			C112.863,121.22,112.702,120.962,112.716,120.666L112.716,120.666z M115.219,122.015c0.245-4.479,0.249-8.797,0.175-11.705
			c-0.003-0.127,0.02-0.232,0.07-0.352c0.271-0.59,0.554-1.16,0.837-1.71c0.081-0.167,0.271-0.248,0.447-0.208
			c0.19,0.044,0.304,0.203,0.304,0.388c0.012,3.24-0.12,8.313-0.558,13.394c-0.015,0.234-0.147,0.432-0.354,0.557
			c-0.204,0.123-0.433,0.133-0.66,0.035l-0.027-0.016C115.306,122.332,115.215,122.179,115.219,122.015L115.219,122.015z
			 M117.574,122.84c0.434-6.067,0.368-12.27,0.229-15.493c-0.01-0.203,0.134-0.379,0.329-0.409c0.489-0.087,0.982-0.183,1.469-0.269
			c0.118-0.021,0.229,0.005,0.328,0.08c0.092,0.076,0.138,0.18,0.146,0.305c0.067,3.415-0.021,9.907-0.594,16.112
			c-0.023,0.242-0.148,0.436-0.354,0.554c-0.205,0.126-0.438,0.139-0.655,0.043l-0.469-0.217
			C117.718,123.423,117.56,123.149,117.574,122.84L117.574,122.84z M120.588,124.175c0.539-6.729,0.411-13.965,0.232-17.395
			c-0.013-0.195,0.12-0.371,0.319-0.413c0.466-0.09,0.933-0.196,1.392-0.294c0.121-0.031,0.231,0,0.335,0.074
			c0.091,0.077,0.152,0.182,0.152,0.301c0.086,3.869,0,11.311-0.724,17.987c-0.024,0.239-0.143,0.429-0.349,0.542
			c-0.207,0.119-0.436,0.135-0.65,0.039l-0.282-0.123C120.728,124.767,120.565,124.489,120.588,124.175L120.588,124.175z
			 M126.046,134.071v-0.063c-0.005-0.1-0.055-0.188-0.126-0.207c-0.063-0.016-0.119,0.045-0.139,0.139
			c-0.004,0.055-0.017,0.104-0.021,0.153c-0.04,0.377-0.359,0.646-0.735,0.64c-0.407-0.014-0.811-0.027-1.216-0.049
			c-0.383-0.014-0.678-0.317-0.692-0.689c-0.01-0.355-0.022-0.717-0.034-1.079c0-0.099-0.056-0.185-0.121-0.206
			c-0.07-0.019-0.127,0.037-0.141,0.136c-0.048,0.356-0.094,0.728-0.137,1.097c-0.037,0.384-0.373,0.669-0.757,0.64
			c-0.366-0.026-0.73-0.052-1.093-0.079c-0.365-0.032-0.651-0.329-0.66-0.695c-0.018-0.659-0.032-1.316-0.056-1.98
			c0-0.102-0.052-0.191-0.121-0.212c-0.065-0.022-0.131,0.04-0.139,0.132c-0.089,0.63-0.164,1.269-0.229,1.928
			c-0.018,0.195-0.11,0.357-0.26,0.48c-0.159,0.127-0.331,0.18-0.532,0.158c-0.331-0.031-0.655-0.069-0.99-0.105
			c-0.356-0.044-0.625-0.338-0.629-0.695c-0.026-0.918-0.042-1.839-0.057-2.78c-0.005-0.097-0.058-0.188-0.121-0.206
			c-0.072-0.026-0.132,0.035-0.146,0.127c-0.124,0.855-0.235,1.738-0.316,2.637c-0.018,0.203-0.109,0.376-0.268,0.499
			c-0.163,0.13-0.346,0.177-0.549,0.146c-0.302-0.043-0.604-0.084-0.903-0.133c-0.349-0.052-0.61-0.344-0.617-0.695
			c-0.019-1.136-0.038-2.289-0.046-3.467c0-0.098-0.055-0.188-0.116-0.208c-0.072-0.022-0.133,0.036-0.145,0.134
			c-0.169,1.039-0.293,2.125-0.39,3.236c-0.023,0.201-0.111,0.379-0.282,0.502c-0.165,0.131-0.354,0.171-0.562,0.143
			c-0.287-0.055-0.57-0.107-0.855-0.16c-0.339-0.07-0.576-0.357-0.579-0.696c-0.019-1.325-0.03-2.667-0.03-4.04
			c-0.003-0.098-0.055-0.194-0.124-0.211c-0.067-0.018-0.121,0.035-0.141,0.129c-0.143,0.867-0.263,1.76-0.357,2.67
			c0.085-2.449,0.357-4.896,0.75-7.318c7.496,3.426,14.706,6.631,20.41,8.862c1.646,0.641,3.244,1.11,4.784,1.434
			c-3.1,0.464-6.414,0.67-9.792,0.644C126.377,134.759,126.066,134.454,126.046,134.071L126.046,134.071z M109.587,105.868
			c-1.498,2.398-1.783,3.445-2.998,6.54c-0.026,0.05-0.08,0.079-0.121,0.072c-0.044-0.018-0.07-0.061-0.059-0.112
			c0.18-3.146,1.188-4.826,3.045-6.629c0.047-0.035,0.1-0.041,0.133-0.012C109.616,105.77,109.616,105.818,109.587,105.868
			L109.587,105.868z M97.806,149.741c-2.381-1.201-4.49-2.801-6.227-4.826c-1.112-1.297-1.989-2.677-3.085-3.973
			c-1.323-1.563-3.354-1.885-4.993-1.234c-0.46,0.18-0.953,0.078-1.302-0.275c-0.343-0.351-0.442-0.851-0.251-1.309
			c0.254-0.607,0.672-1.16,1.115-1.5c1.994-1.5,4.618,0.367,6.073,1.742l1.268,1.192c0.298,0.275,0.681,0.386,1.078,0.3
			c0.404-0.087,0.706-0.342,0.861-0.719l0.652-1.615c1.107-2.717,2.486-4.953,4.81-6.599c2.339,1.646,3.708,3.882,4.815,6.599
			l0.652,1.615c0.154,0.377,0.462,0.632,0.856,0.719c0.408,0.086,0.788-0.024,1.081-0.3l1.271-1.192
			c1.463-1.375,4.075-3.242,6.065-1.742c0.449,0.34,0.862,0.893,1.121,1.5c0.189,0.458,0.095,0.958-0.254,1.309
			c-0.344,0.354-0.838,0.455-1.301,0.275c-1.635-0.65-3.666-0.328-4.991,1.234c-1.086,1.283-1.951,2.646-3.047,3.934
			c-0.558,0.646-1.157,1.271-1.796,1.838c-0.117,0.106-0.271,0.128-0.423,0.066c-0.146-0.057-0.235-0.191-0.245-0.349
			c-0.059-1.181-0.174-2.332-0.35-3.43c-0.011-0.08-0.073-0.124-0.141-0.111c-0.07,0.009-0.126,0.075-0.126,0.159
			c-0.032,0.775-0.075,1.536-0.128,2.288v0.015v0.004c-0.015,0.322-0.029,0.639-0.049,0.956c-0.024,0.195-0.048,0.392-0.067,0.595
			c-0.015,0.063-0.065,0.107-0.127,0.107c-0.063-0.004-0.113-0.059-0.117-0.114c-0.092-2.118-0.291-4.164-0.601-6.074
			c-0.017-0.097-0.082-0.153-0.146-0.136c-0.065,0.026-0.112,0.115-0.119,0.221c-0.003,1.459-0.017,2.889-0.039,4.291l0,0v0.057
			v0.041v0.007c-0.015,0.935-0.051,1.905-0.433,3.18c-0.019,0.054-0.075,0.093-0.13,0.085c-0.066-0.015-0.104-0.065-0.104-0.125
			c0.007-3.15-0.218-6.217-0.662-9.004c-0.018-0.094-0.078-0.148-0.143-0.13c-0.071,0.021-0.119,0.113-0.119,0.218
			C97.995,143.09,97.943,146.453,97.806,149.741L97.806,149.741z M68.784,128.29c1.371-6.007,3.182-11.805,5.354-18.223
			c0.036-0.096,0.018-0.196-0.036-0.242c-0.054-0.033-0.138,0-0.184,0.08c-0.533,1.011-1.052,2.074-1.548,3.177
			c0.313-2.392,0.268-4.677-0.082-6.748c4.746,1.943,9.975,4.163,13.857,5.892c-1.119,3.4-1.956,6.888-2.587,10.412
			c-0.481,2.662-0.839,5.334-1.117,8.016c-0.024,0.207-0.118,0.367-0.273,0.495c-0.159,0.128-0.335,0.172-0.539,0.149
			c-0.054-0.008-0.108-0.018-0.166-0.021c-0.196-0.027-0.359-0.119-0.481-0.283c-0.117-0.157-0.164-0.345-0.131-0.543
			c0.839-5.488,2.048-10.9,3.501-16.853c0.022-0.102,0-0.198-0.064-0.233c-0.056-0.035-0.13,0.002-0.172,0.09
			c-2.068,4.857-3.613,10.863-4.292,16.853c-0.022,0.196-0.112,0.363-0.277,0.493c-0.163,0.122-0.347,0.162-0.545,0.136
			c-0.523-0.075-1.05-0.157-1.574-0.241c-0.197-0.031-0.356-0.133-0.47-0.293c-0.116-0.16-0.156-0.348-0.126-0.542
			c1.012-5.702,2.423-11.278,4.119-17.435c0.027-0.1,0.004-0.203-0.057-0.242c-0.056-0.035-0.137,0-0.169,0.09
			c-2.305,4.981-4.065,11.203-4.88,17.401c-0.023,0.198-0.124,0.364-0.283,0.487c-0.168,0.117-0.35,0.163-0.552,0.125
			c-0.545-0.094-1.086-0.197-1.629-0.297c-0.198-0.043-0.354-0.143-0.465-0.312c-0.108-0.161-0.145-0.346-0.104-0.54
			c1.186-5.871,2.798-11.578,4.733-17.896c0.033-0.095,0.012-0.194-0.051-0.239c-0.054-0.039-0.133-0.003-0.171,0.089
			c-2.523,5.063-4.504,11.46-5.469,17.819c-0.029,0.207-0.128,0.371-0.295,0.491c-0.172,0.109-0.363,0.151-0.563,0.109
			c-0.557-0.114-1.115-0.233-1.669-0.358c-0.194-0.041-0.344-0.149-0.448-0.321C68.771,128.665,68.742,128.485,68.784,128.29
			L68.784,128.29z M68.825,123.489c-0.375,1.503-0.699,3.025-0.958,4.542c-0.034,0.201-0.143,0.365-0.318,0.475
			c-0.17,0.115-0.366,0.151-0.563,0.106c-0.192-0.049-0.391-0.103-0.586-0.15c-0.25-0.056-0.438-0.238-0.517-0.49
			c-0.075-0.252-0.015-0.496,0.166-0.686C67.047,126.179,67.99,124.902,68.825,123.489L68.825,123.489z M26.269,83.397
			c-3.27,2.02-5.843,4.412-8.682,7.344c-0.046,0.047-0.113,0.051-0.164,0.017c-0.047-0.044-0.062-0.11-0.031-0.157
			c1.909-3.123,5.193-6.03,8.77-7.414c0.056-0.027,0.123,0,0.148,0.054C26.335,83.3,26.315,83.366,26.269,83.397L26.269,83.397z
			 M44.012,119.64c-0.086,0.215-0.243,0.363-0.457,0.448c-0.218,0.083-0.43,0.07-0.64-0.026c-0.632-0.308-1.26-0.626-1.878-0.943
			c-0.387-0.195-0.55-0.66-0.369-1.051c3.148-6.844,8.777-15.342,11.607-19.275c0.234-0.326,0.665-0.427,1.025-0.242
			c0.336,0.182,0.672,0.35,1.015,0.521c0.211,0.104,0.354,0.276,0.416,0.508c0.058,0.228,0.024,0.449-0.108,0.653
			C52.089,104.054,46.888,112.582,44.012,119.64L44.012,119.64z M55.798,99.795l0.313,0.14c-0.319,0.283-0.644,0.578-0.958,0.893
			C55.388,100.442,55.607,100.097,55.798,99.795L55.798,99.795z M48.934,111.966c-0.874,3.193-1.14,6.336-0.849,9.145
			c0.03,0.288-0.088,0.557-0.325,0.73c-0.238,0.174-0.521,0.206-0.792,0.087c-0.477-0.206-0.941-0.421-1.408-0.628
			c-0.385-0.174-0.573-0.625-0.416-1.021C46.179,117.626,47.521,114.737,48.934,111.966L48.934,111.966z M39.554,117.39
			c-0.095,0.207-0.259,0.353-0.477,0.418c-0.22,0.07-0.429,0.049-0.63-0.056c-0.688-0.382-1.375-0.773-2.048-1.161
			c-0.38-0.217-0.513-0.695-0.31-1.076c3.605-6.629,9.864-14.794,12.979-18.563c0.258-0.302,0.689-0.38,1.031-0.173
			c0.366,0.212,0.734,0.432,1.11,0.64c0.21,0.118,0.344,0.3,0.39,0.532c0.048,0.238,0,0.464-0.144,0.654
			C48.501,102.498,42.763,110.655,39.554,117.39L39.554,117.39z M35.013,114.797c-0.112,0.193-0.281,0.329-0.499,0.388
			c-0.225,0.058-0.438,0.021-0.628-0.098c-0.642-0.401-1.279-0.808-1.901-1.216c-0.363-0.235-0.472-0.706-0.255-1.077
			c3.814-6.579,10.378-14.648,13.572-18.288c0.274-0.313,0.729-0.364,1.068-0.126c0.559,0.386,1.124,0.766,1.709,1.146
			c0.206,0.127,0.327,0.317,0.363,0.562c0.028,0.239-0.036,0.456-0.189,0.641C44.989,100.455,38.648,108.288,35.013,114.797
			L35.013,114.797z M30.708,111.979c-0.117,0.193-0.298,0.32-0.523,0.37c-0.229,0.046-0.441,0.005-0.629-0.128
			c-1.293-0.912-2.546-1.854-3.758-2.814c-0.345-0.264-0.406-0.754-0.148-1.102c4.558-6.227,12.185-13.717,15.735-16.94
			c0.298-0.271,0.746-0.276,1.054-0.011c0.66,0.557,1.33,1.099,2.03,1.636c0.187,0.142,0.291,0.334,0.319,0.568
			c0.012,0.233-0.061,0.447-0.217,0.612C41.272,97.722,34.591,105.483,30.708,111.979L30.708,111.979z M33.926,87.851
			c-4.396,3.069-7.718,6.594-11.405,10.948c-0.039,0.048-0.109,0.056-0.158,0.021c-0.051-0.03-0.07-0.102-0.045-0.153
			c2.27-4.508,6.618-8.892,11.49-11.022c0.056-0.029,0.121-0.004,0.153,0.055C33.991,87.75,33.979,87.817,33.926,87.851
			L33.926,87.851z M54.507,116.644c0.061-0.488-0.16-0.93-0.582-1.178c-0.997-0.599-2.813-2.164-1.26-2.905
			c0.052-0.022,0.099-0.019,0.136,0.021c0.037,0.031,0.048,0.081,0.033,0.128c-0.519,1.245,2.48,2.934,4.076,3.216
			c2.535,0.452,3.146-2.048,1.821-3.093c-0.434-0.339-1.023-0.598-1.679-0.768c-0.354-0.096-0.619-0.313-0.777-0.649
			c-0.157-0.324-0.162-0.677-0.008-1.007c0.903-2,2.146-3.912,3.707-5.355c3.167-2.933,5.026-2.346,5.921,1.87
			c0.625,2.916,0.212,6.214-0.684,9.032c-0.895,2.818-2.452,5.746-4.636,7.77c-3.16,2.938-5.015,2.346-5.917-1.869
			C54.304,120.185,54.284,118.396,54.507,116.644L54.507,116.644z M55.493,120.838c-0.087-0.64,0.024-1.218,0.344-1.782
			c0.131-0.223,0.273-0.469,0.438-0.73c0.028-0.066,0.089-0.098,0.149-0.092c0.048,0.012,0.079,0.068,0.067,0.127
			c-0.319,0.894-0.438,1.365-0.694,2.283c-0.015,0.044,0.008,0.098,0.056,0.119c0.051,0.017,0.104-0.005,0.131-0.055
			c0.563-1.229,0.962-2.156,1.603-3.323c0.029-0.079,0.095-0.131,0.152-0.131c0.05,0.004,0.086,0.063,0.068,0.149
			c-0.48,1.476-0.841,3.037-1.185,4.551c-0.015,0.052,0.004,0.102,0.053,0.125c0.049,0.014,0.102,0,0.124-0.04
			c0.508-1.112,1.109-2.243,1.63-3.124c0.033-0.078,0.096-0.136,0.152-0.131c0.055,0.004,0.087,0.065,0.065,0.143
			c-0.486,1.563-0.939,2.789-1.301,4.404c-0.008,0.047,0.012,0.099,0.057,0.127c0.044,0.018,0.103,0,0.117-0.05
			c0.442-0.953,0.725-1.526,1.324-2.468c0.026-0.063,0.082-0.103,0.138-0.091c0.057,0.015,0.088,0.074,0.075,0.128
			c-0.326,0.893-0.6,1.792-0.857,2.709c-0.011,0.048,0.015,0.1,0.063,0.119c0.055,0.014,0.105-0.006,0.126-0.053
			c0.175-0.375,0.369-0.759,0.575-1.152c0.036-0.078,0.094-0.133,0.155-0.126c0.057,0.003,0.088,0.063,0.071,0.136
			c-0.082,0.264-0.146,0.482-0.227,0.742c-0.129,0.434-0.404,0.766-0.817,0.969c-1.317,0.661-1.974-0.168-2.511-2.679
			C55.578,121.374,55.532,121.11,55.493,120.838L55.493,120.838z M65.082,108.102c0.092,0.684-0.001,1.298-0.281,1.923
			c-0.096,0.225-0.205,0.463-0.312,0.741c-0.029,0.058-0.092,0.078-0.141,0.042c-0.048-0.023-0.07-0.09-0.048-0.155
			c0.136-0.769,0.292-1.484,0.438-2.201c0.012-0.053-0.015-0.103-0.065-0.12c-0.046-0.014-0.095,0.012-0.118,0.057
			c-0.663,1.188-1.093,2.045-1.611,3.277c-0.045,0.075-0.118,0.106-0.172,0.063c-0.05-0.041-0.062-0.133-0.032-0.217
			c0.325-1.465,1.005-3.56,1.605-5.049c0.015-0.049,0-0.111-0.052-0.133c-0.048-0.021-0.102-0.003-0.128,0.038
			c-0.493,0.813-0.77,1.249-1.197,2.095c-0.034,0.057-0.099,0.068-0.146,0.038c-0.042-0.038-0.062-0.102-0.034-0.16
			c0.284-1.083,0.507-1.688,0.902-2.649c0.016-0.051-0.006-0.104-0.055-0.125c-0.048-0.016-0.102,0-0.123,0.045
			c-0.931,1.367-1.517,2.535-2.321,3.965c-0.043,0.064-0.108,0.094-0.149,0.049c-0.048-0.036-0.048-0.12-0.011-0.2
			c0.287-0.978,0.701-2.2,1.157-3.325c0.021-0.049-0.005-0.1-0.056-0.123c-0.047-0.013-0.095,0.005-0.121,0.046
			c-0.863,1.29-1.763,2.626-2.508,3.99c-0.044,0.065-0.111,0.087-0.157,0.05c-0.036-0.047-0.041-0.123-0.007-0.203
			c0.459-1.404,0.918-2.379,1.574-3.701c0.026-0.046,0.005-0.1-0.034-0.127c-0.046-0.027-0.104-0.016-0.134,0.027
			c-0.556,0.768-0.633,0.92-1.18,1.648c-0.036,0.052-0.104,0.057-0.14,0.025c-0.044-0.037-0.054-0.109-0.027-0.167
			c0.018-0.049,0.039-0.093,0.051-0.146c0.158-0.445,0.378-0.797,0.706-1.142c0.158-0.169,0.327-0.331,0.498-0.49
			c2.57-2.387,3.538-2.081,4.262,1.343C64.982,107.448,65.043,107.771,65.082,108.102L65.082,108.102z M139.662,111.18
			c1.139,0,2.058,0.919,2.058,2.054c0,1.141-0.919,2.062-2.058,2.062c-1.137,0-2.058-0.921-2.058-2.062
			C137.604,112.099,138.525,111.18,139.662,111.18L139.662,111.18z M162.557,97.554c1.14,0,2.065,0.923,2.065,2.06
			c0,1.132-0.926,2.054-2.065,2.054c-1.131,0-2.055-0.922-2.055-2.054C160.502,98.477,161.426,97.554,162.557,97.554L162.557,97.554
			z M35.552,98.714c1.139,0,2.055,0.916,2.055,2.061c0,1.132-0.916,2.058-2.055,2.058c-1.135,0-2.065-0.926-2.065-2.058
			C33.486,99.63,34.417,98.714,35.552,98.714L35.552,98.714z M134.173,99.63c-11.59-4.572-16.791-3.648-27.938,2.97
			c-1.645,0.975-2.971,1.759-3.662,1.939c-1.24,0.325-2.799-0.336-4.336-0.979c-3.335-1.416-6.559-2.769-9.212,1.659
			c-6.352-0.526-12.407-1.571-18.021-3.047c-1.169-2.472-2.963-4.257-5.279-4.993c-2.191-0.693-4.556-0.344-6.808,0.834
			c-1.239-0.541-2.464-1.112-3.665-1.71c-13.237-6.674-21.565-16.356-21.565-27.132c0-20.118,29.044-36.429,64.871-36.429
			c35.823,0,64.865,16.311,64.865,36.429C163.423,81.912,151.787,93.113,134.173,99.63L134.173,99.63z M127.866,101.657
			c-2.861,0.807-5.619,1.492-8.681,2.07c0.655-0.816,1.32-1.504,1.999-2.054c2.396-1.949,4.227-1.55,6.687-0.786
			c0.171,0.057,0.285,0.205,0.285,0.39C128.153,101.456,128.038,101.606,127.866,101.657L127.866,101.657z M51.532,111.619
			c1.099-3.483,3.025-6.991,5.72-9.498c5.479-5.069,10.995-3.322,12.555,3.974c0.764,3.598,0.319,7.576-0.783,11.059
			c-1.104,3.49-3.032,6.997-5.729,9.5c-5.469,5.072-10.982,3.325-12.542-3.973C49.982,119.082,50.428,115.104,51.532,111.619
			L51.532,111.619z M97.366,114.532c1.141,0,2.058,0.922,2.058,2.054c0,1.138-0.917,2.061-2.058,2.061
			c-1.131,0-2.058-0.923-2.058-2.061C95.309,115.454,96.235,114.532,97.366,114.532L97.366,114.532z M152.017,125.573
			c0.168-0.071,0.354-0.022,0.461,0.111c0.117,0.132,0.127,0.315,0.042,0.471c-0.893,1.441-2.16,2.677-3.758,3.607
			c-2.208,1.283-5.021,1.984-8.277,1.844c-1.403-0.062-2.905-0.286-4.462-0.685C141.621,129.454,146.968,127.663,152.017,125.573
			L152.017,125.573z M87.149,109.404c-1.335-0.589-2.832-1.222-4.416-1.879c1.312,0.175,2.643,0.339,3.981,0.475
			c0.231,0.023,0.42,0.146,0.541,0.343c0.116,0.195,0.143,0.421,0.054,0.633C87.256,109.119,87.2,109.262,87.149,109.404z"/>
	</g>
</g>
</svg>
