<?xml version="1.0" encoding="UTF-8"?> <svg xmlns="http://www.w3.org/2000/svg" id="Layer_1" data-name="Layer 1" viewBox="0 0 269 260.48"><defs><style>.cls-1{fill:#143255;}</style></defs><path class="cls-1" d="M189.39,53.45c-.21-.77-.33-.77-1.26-.77h-1.78a1.32,1.32,0,0,0-1.14.56,9.69,9.69,0,0,1-8.8,4.56l-30.19.05H121.07L90.88,57.8a9.47,9.47,0,0,1-8.83-4.53,1.32,1.32,0,0,0-1.13-.55H79.14c-.93,0-1.07,0-1.27.77C77.78,53.81,68,86.86,68,86.86h4.15a1.86,1.86,0,0,0,1.63-1.06c.82-1.23,1.47-2.12,2.67-3.62s10.55-15.74,29-15.74H119c4.86,0,7.26,2.51,7.26,7.26V87.08c-14.67,2.15-30.52,9.29-41.62,27.51,0,0-7.9,15.07-13.59,20.54,5.69,5.47,13.59,20.55,13.59,20.55,11.1,18.22,27,25.36,41.62,27.51v10.7c0,6.91-4.93,11.81-6.8,13.43a1,1,0,0,0-.24,1.41h0c.23.43.71,1.26,1,1.74,2.4-1.2,7.48-2,13.38-2s11,.84,13.37,2c.28-.48.77-1.31,1-1.74a1,1,0,0,0-.21-1.41h0c-1.87-1.62-6.8-6.52-6.8-13.43v-10a89.42,89.42,0,0,0,23.77-4.3c3.15-1,6.14.81,8.2,4a1.18,1.18,0,0,0,1.06.51h1.66c.87,0,1,0,1.18-.7.08-.3,9.2-31.1,9.2-31.1h-3.83a1.81,1.81,0,0,0-1.54,1,40.26,40.26,0,0,1-2.47,3.36l-.38.46a78.16,78.16,0,0,1-9.27,9.46c-.53.42-1.06.83-1.6,1.21-6.59,4.67-15.83,9.15-25.93,10.17V141.24l6.14-6.13L141,129V92.3c10.1,1,19.34,5.5,25.93,10.16.54.38,1.07.76,1.6,1.21a76.72,76.72,0,0,1,9.27,9.46l.38.46c.88,1.1,1.72,2.22,2.47,3.36a1.81,1.81,0,0,0,1.54,1H186s-9.12-30.8-9.2-31.1c-.19-.69-.31-.72-1.18-.7H174a1.25,1.25,0,0,0-1.06.51c-2.07,3.19-5,5-8.2,4A89.42,89.42,0,0,0,141,86.36V73.7c0-4.75,2.4-7.26,7.27-7.26h13.6c18.41,0,27.79,14.21,29,15.71a44.33,44.33,0,0,1,2.67,3.61,1.89,1.89,0,0,0,1.64,1.06h4.14s-9.79-33-9.86-33.37M91.21,135.13c2.63-16.72,14.24-36.67,35.08-41.79V129l-6.14,6.13,6.14,6.14V177c-20.84-5.17-32.45-25.12-35.08-41.83"></path></svg> 