<?xml version="1.0" encoding="UTF-8" standalone="no"?>
<svg width="259px" height="117px" viewBox="0 0 259 117" version="1.1" xmlns="http://www.w3.org/2000/svg" xmlns:xlink="http://www.w3.org/1999/xlink" xmlns:sketch="http://www.bohemiancoding.com/sketch/ns">
    <!-- Generator: Sketch 3.3.3 (12072) - http://www.bohemiancoding.com/sketch -->
    <title>Albany Club Logo Home</title>
    <desc>Created with Sketch.</desc>
    <defs>
        <path id="path-1" d="M0,0.26325 L258.688817,0.26325 L258.688817,116.916429 L0,116.916429 L0,0.26325 Z"></path>
    </defs>
    <g id="Slide-1" stroke="none" stroke-width="1" fill="none" fill-rule="evenodd" sketch:type="MSPage">
        <g sketch:type="MSArtboardGroup" transform="translate(-588.000000, -117.000000)" id="Albany-Club-Logo-Home">
            <g sketch:type="MSLayerGroup" transform="translate(588.000000, 117.000000)">
                <path d="M129.713441,37.2853929 C130.190108,37.4831786 130.785591,37.5221786 131.220323,37.5221786 C132.172258,37.5221786 132.964839,36.8508214 133.283548,36.2184643 C133.560323,34.4007857 133.71828,29.0675357 133.71828,25.116 C133.71828,19.5445714 133.521183,15.9886071 133.202473,13.9341429 C132.45043,13.3017857 131.498495,13.1443929 130.546559,13.1443929 C129.913333,13.1443929 128.523871,13.3421786 127.929785,13.6179643 C126.740215,14.8826786 125.907097,17.3717143 125.907097,19.2283929 C125.907097,19.7423571 126.025914,20.3357143 126.146129,20.9276786 L124.004624,20.9276786 C124.123441,19.1503929 124.242258,17.8452857 124.242258,16.029 C124.242258,14.2113214 124.123441,12.9076071 124.004624,11.1289286 C127.73129,11.3671071 132.609785,11.4451071 136.572688,11.4451071 C140.538387,11.4451071 145.416882,11.3671071 149.143548,11.1289286 C149.024731,12.9076071 148.905914,14.2113214 148.905914,16.029 C148.905914,17.8452857 149.024731,19.1503929 149.143548,20.9276786 L147.002043,20.9276786 C147.12086,20.3357143 147.239677,19.7423571 147.239677,19.2283929 C147.239677,17.3717143 146.407957,14.8826786 145.218387,13.6179643 C144.622903,13.3421786 143.234839,13.1443929 142.601613,13.1443929 C141.64828,13.1443929 140.697742,13.3017857 139.944301,13.9341429 C139.626989,15.9886071 139.428495,19.5445714 139.428495,25.116 C139.428495,29.0675357 139.587849,34.4007857 139.864624,36.2184643 C140.183333,36.8508214 140.975914,37.5221786 141.927849,37.5221786 C142.362581,37.5221786 142.958065,37.4831786 143.434731,37.2853929 L143.434731,39.1810714 C141.64828,38.9832857 138.873548,38.8648929 136.572688,38.8648929 C134.274624,38.8648929 131.498495,38.9832857 129.713441,39.1810714 L129.713441,37.2853929" id="Fill-1" fill="#FFFFFF" sketch:type="MSShapeGroup"></path>
                <path d="M150.061935,11.6832857 C152.838065,11.4841071 155.772151,11.0509286 159.103226,10.1023929 C158.707634,13.5399643 158.468602,18.7158214 158.468602,22.9431429 C160.847742,20.8482857 162.950108,19.9401429 165.28871,19.9401429 C168.42129,19.9401429 171.038065,21.5600357 171.038065,25.7093571 C171.038065,27.5660357 170.919247,30.6874286 170.919247,32.3853214 C170.919247,34.2823929 170.919247,35.7838929 171.077204,36.7324286 C171.633548,37.3633929 172.188495,37.6405714 172.901398,37.6405714 C173.099892,37.6405714 173.259247,37.6015714 173.456344,37.5221786 L173.456344,39.1810714 C171.314839,39.0236786 169.531183,38.8648929 168.341613,38.8648929 C167.192581,38.8648929 165.407527,39.0236786 163.266022,39.1810714 L163.266022,37.5221786 C163.425376,37.6015714 163.544194,37.6405714 163.702151,37.6405714 C164.416452,37.6405714 165.169892,37.2853929 165.566882,36.7324286 C165.724839,34.8353571 165.882796,33.0566786 165.882796,29.1455357 C165.882796,25.90575 165.606022,22.7843571 162.354624,22.7843571 C161.005699,22.7843571 159.895806,23.2593214 158.667097,24.32625 C158.546882,25.2733929 158.349785,27.5660357 158.349785,30.37125 C158.349785,32.3463214 158.349785,34.1236071 158.468602,36.7324286 C159.023548,37.4427857 159.459677,37.6405714 160.172581,37.6405714 C160.372473,37.6405714 160.53043,37.6015714 160.649247,37.5221786 L160.649247,39.1810714 C158.943871,39.0236786 157.318172,38.8648929 155.614194,38.8648929 C153.908817,38.8648929 152.283118,39.0236786 150.577742,39.1810714 L150.577742,37.5221786 C151.013871,37.6015714 151.173226,37.6405714 151.41086,37.6405714 C151.887527,37.6405714 152.480215,37.4037857 152.956882,36.7324286 C153.075699,33.1750714 153.194516,29.4617143 153.194516,25.3527857 C153.194516,21.2438571 153.075699,17.5291071 152.956882,13.9745357 C152.322258,13.3421786 151.806452,13.1053929 151.173226,13.1053929 C150.776237,13.1053929 150.419785,13.1833929 150.061935,13.3421786 L150.061935,11.6832857" id="Fill-2" fill="#FFFFFF" sketch:type="MSShapeGroup"></path>
                <path d="M188.848065,27.8028214 C188.887204,27.36825 188.887204,26.9726786 188.887204,26.5381071 C188.887204,22.3497857 187.064409,21.4806429 185.516989,21.4806429 C182.939355,21.4806429 181.354194,23.9696786 181.354194,27.8028214 C182.464086,27.8822143 183.89129,27.9212143 185.08086,27.9212143 C186.310968,27.9212143 187.736774,27.8822143 188.848065,27.8028214 L188.848065,27.8028214 Z M194.20043,33.49125 C193.051398,36.6920357 190.711398,39.5376429 185.398172,39.5376429 C178.181075,39.5376429 175.762796,34.91475 175.762796,29.6595 C175.762796,23.9306786 179.330108,19.9401429 185.277957,19.9401429 C190.076774,19.9401429 194.042473,22.2313929 194.042473,27.9602143 C194.042473,28.3167857 194.042473,28.7903571 193.962796,29.1859286 C191.900968,29.1859286 189.8,29.2249286 187.657097,29.2249286 C185.516989,29.2249286 183.414624,29.1859286 181.354194,29.1859286 C181.354194,34.242 183.217527,37.4037857 187.222366,37.4037857 C189.720323,37.4037857 191.900968,36.3758571 192.376237,32.7405 L194.20043,33.49125 L194.20043,33.49125 Z" id="Fill-3" fill="#FFFFFF" sketch:type="MSShapeGroup"></path>
                <path d="M141.015054,62.8136786 C140.022581,59.6518929 137.605699,54.23925 136.533548,51.987 C135.542473,54.20025 133.482043,60.1658571 132.727204,62.8136786 L141.015054,62.8136786 L141.015054,62.8136786 Z M123.845269,73.086 C124.082903,73.2043929 124.361075,73.3227857 124.637849,73.3227857 C125.827419,73.3227857 126.740215,72.4536429 128.126882,68.4227143 C129.317849,65.0645357 131.736129,58.1503929 134.988925,50.2877143 C133.916774,48.984 132.806882,48.5898214 132.133118,48.5898214 C131.696989,48.5898214 131.379677,48.6678214 131.142043,48.8266071 L131.142043,46.9295357 C132.727204,47.1273214 134.789032,47.2457143 136.295914,47.2457143 C137.802796,47.2457143 139.903763,47.1273214 141.490323,46.9295357 C143.434731,51.909 145.535699,58.3871786 147.399032,64.2357857 C149.936129,72.33525 151.166237,73.3227857 152.434086,73.3227857 C152.71086,73.3227857 152.949892,73.2433929 153.148387,73.086 L153.148387,74.9816786 C151.285054,74.8242857 149.382581,74.6655 146.764409,74.6655 C144.186774,74.6655 142.284301,74.8242857 140.420968,74.9816786 L140.420968,73.086 C140.657204,73.2433929 140.855699,73.3227857 141.293226,73.3227857 C142.284301,73.3227857 142.958065,72.9272143 143.750645,72.0190714 C143.473871,70.2417857 142.204624,66.2108571 141.688817,64.82775 L132.172258,64.82775 C131.418817,67.2373929 130.904409,69.6094286 130.546559,71.9396786 C130.943548,72.7698214 131.934624,73.3227857 132.886559,73.3227857 C133.163333,73.3227857 133.60086,73.2433929 133.877634,73.086 L133.877634,74.9816786 C132.211398,74.7448929 130.943548,74.6655 128.88172,74.6655 C126.779355,74.6655 125.510108,74.7448929 123.845269,74.9816786 L123.845269,73.086 L123.845269,73.086 Z" id="Fill-4" fill="#FFFFFF" sketch:type="MSShapeGroup"></path>
                <path d="M154.385484,47.4838929 C157.160215,47.2861071 160.095699,46.8515357 163.426774,45.903 C162.87043,51.0398571 162.671935,61.78575 162.671935,67.3571786 C162.671935,69.7278214 162.712473,71.3867143 162.751613,72.5330357 C163.108065,73.2043929 163.663011,73.4411786 164.417849,73.4411786 C164.614946,73.4411786 164.813441,73.4021786 164.971398,73.3227857 L164.971398,74.9816786 C163.266022,74.8242857 161.640323,74.6655 159.934946,74.6655 C158.230968,74.6655 156.605269,74.8242857 154.899892,74.9816786 L154.899892,73.3227857 C155.336022,73.4021786 155.495376,73.4411786 155.733011,73.4411786 C156.20828,73.4411786 156.803763,73.2043929 157.279032,72.5330357 C157.397849,68.9756786 157.518065,65.2623214 157.518065,61.1533929 C157.518065,57.0444643 157.397849,53.3311071 157.279032,49.7751429 C156.645806,49.1427857 156.13,48.906 155.495376,48.906 C155.098387,48.906 154.741935,48.984 154.385484,49.1427857 L154.385484,47.4838929" id="Fill-5" fill="#FFFFFF" sketch:type="MSShapeGroup"></path>
                <path d="M178.297097,58.3091786 C176.948172,58.3091786 175.719462,58.8621429 174.650108,60.1268571 L174.650108,72.0190714 C175.680323,73.4411786 177.107527,73.91475 178.534731,73.91475 C181.865806,73.91475 183.293011,70.5565714 183.293011,66.1718571 C183.293011,60.5210357 181.231183,58.3091786 178.297097,58.3091786 L178.297097,58.3091786 Z M166.243441,47.4838929 C169.018172,47.2861071 171.952258,46.8515357 175.283333,45.903 C174.808065,50.0523214 174.650108,54.2796429 174.650108,58.4679643 C177.385699,56.1753214 179.130215,55.74075 181.192043,55.74075 C185.473656,55.74075 189.24086,58.4275714 189.24086,65.1049286 C189.24086,68.1873214 187.338387,75.33825 178.415914,75.33825 C176.710538,75.33825 174.212581,74.9816786 172.111613,73.9941429 C171.239355,74.5471071 169.812151,75.2184643 168.900753,75.33825 C169.255806,73.5985714 169.374624,70.3197857 169.374624,61.1533929 C169.374624,57.0444643 169.255806,53.3311071 169.136989,49.7751429 C168.502366,49.1427857 167.987957,48.906 167.353333,48.906 C166.956344,48.906 166.599892,48.984 166.243441,49.1427857 L166.243441,47.4838929 L166.243441,47.4838929 Z" id="Fill-6" fill="#FFFFFF" sketch:type="MSShapeGroup"></path>
                <path d="M201.301505,73.0066071 C202.292581,73.0066071 203.402473,72.4536429 204.313871,71.6235 C204.274731,70.87275 204.235591,70.122 204.235591,69.4116429 C204.235591,68.6998929 204.274731,67.9491429 204.313871,67.1983929 C203.482151,66.6064286 202.333118,66.1718571 201.142151,66.1718571 C198.367419,66.1718571 197.613978,68.4227143 197.613978,69.6874286 C197.613978,71.7028929 199.278817,73.0066071 201.301505,73.0066071 L201.301505,73.0066071 Z M213.355161,71.0705357 C212.759677,74.9426786 210.61957,75.33825 208.715699,75.33825 C206.495914,75.33825 205.028172,74.7838929 204.354409,72.9272143 C203.086559,74.3897143 200.943656,75.33825 198.605054,75.33825 C194.40172,75.33825 192.45871,72.6514286 192.45871,69.9646071 C192.45871,66.8432143 194.75957,64.3931786 198.922366,64.3931786 C200.548065,64.3931786 202.688172,64.8681429 204.313871,65.7762857 C204.313871,65.2623214 204.354409,64.6299643 204.354409,63.7608214 C204.354409,59.3371071 203.006882,57.3996429 199.636667,57.3996429 C198.564516,57.3996429 197.653118,57.7562143 197.13871,58.3481786 C198.406559,58.5069643 199.436774,59.0989286 199.436774,60.3246429 C199.436774,61.5879643 198.406559,62.6158929 196.622903,62.6158929 C194.561075,62.6158929 193.488925,61.6283571 193.488925,60.0474643 C193.488925,57.3996429 196.85914,55.74075 200.785699,55.74075 C204.196452,55.74075 206.694409,56.8870714 208.082473,58.1907857 C209.073548,59.1379286 209.46914,60.20625 209.46914,62.7732857 C209.46914,64.78875 209.270645,66.36825 209.270645,70.044 C209.270645,72.7294286 209.747312,73.3227857 210.660108,73.3227857 C211.332473,73.3227857 211.690323,72.8088214 211.690323,71.9396786 C211.690323,71.5845 211.651183,71.2683214 211.571505,70.9521429 L213.355161,71.0705357 L213.355161,71.0705357 Z" id="Fill-7" fill="#FFFFFF" sketch:type="MSShapeGroup"></path>
                <path d="M213.598387,56.9650714 C216.573011,56.8466786 219.586774,56.2547143 222.044194,55.3451786 C222.084731,56.2143214 222.203548,57.9526071 222.322366,58.74375 C224.701505,56.6488929 226.802473,55.74075 229.142473,55.74075 C232.275054,55.74075 234.891828,57.3606429 234.891828,61.5099643 C234.891828,63.3666429 234.774409,66.4880357 234.774409,68.1873214 C234.774409,70.083 234.774409,71.5845 234.932366,72.5330357 C235.485914,73.164 236.042258,73.4411786 236.756559,73.4411786 C236.953656,73.4411786 237.111613,73.4021786 237.311505,73.3227857 L237.311505,74.9816786 C235.17,74.8242857 233.384946,74.6655 232.195376,74.6655 C231.046344,74.6655 229.26129,74.8242857 227.119785,74.9816786 L227.119785,73.3227857 C227.27914,73.4021786 227.397957,73.4411786 227.555914,73.4411786 C228.270215,73.4411786 229.023656,73.086 229.419247,72.5330357 C229.578602,70.6359643 229.737957,68.8586786 229.737957,64.9461429 C229.737957,61.7063571 229.459785,58.5863571 226.208387,58.5863571 C224.86086,58.5863571 223.74957,59.0599286 222.52086,60.1268571 C222.402043,61.0753929 222.203548,63.3666429 222.203548,66.1718571 C222.203548,68.1469286 222.203548,69.9256071 222.322366,72.5330357 C222.877312,73.2433929 223.313441,73.4411786 224.027742,73.4411786 C224.226237,73.4411786 224.384194,73.4021786 224.503011,73.3227857 L224.503011,74.9816786 C222.797634,74.8242857 221.171935,74.6655 219.466559,74.6655 C217.762581,74.6655 216.136882,74.8242857 214.431505,74.9816786 L214.431505,73.3227857 C214.867634,73.4021786 215.026989,73.4411786 215.264624,73.4411786 C215.739892,73.4411786 216.335376,73.2043929 216.810645,72.5330357 C216.968602,70.9911429 217.049677,69.9646071 217.049677,65.1049286 C217.049677,61.8651429 216.929462,60.3636429 216.730968,59.2173214 C215.938387,58.7033571 215.383441,58.5069643 214.828495,58.5069643 C214.390968,58.5069643 213.995376,58.5863571 213.757742,58.6253571 L213.598387,56.9650714" id="Fill-8" fill="#FFFFFF" sketch:type="MSShapeGroup"></path>
                <path d="M237.832903,56.0959286 C239.419462,56.2143214 241.479892,56.4121071 243.105591,56.4121071 C244.692151,56.4121071 246.793118,56.2143214 248.340538,56.0959286 L248.537634,57.7562143 C248.3,57.7158214 248.142043,57.6378214 247.943548,57.6378214 C247.349462,57.6378214 246.358387,57.9526071 245.92086,58.6643571 C246.358387,61.5879643 248.26086,66.5270357 250.482043,70.5175714 C251.749892,66.7248214 253.178495,61.6673571 253.336452,58.6643571 C252.701828,57.8342143 251.789032,57.6378214 251.115269,57.6378214 C250.957312,57.6378214 250.797957,57.7158214 250.560323,57.7562143 L250.719677,56.0959286 C251.82957,56.2937143 253.137957,56.4121071 254.644839,56.4121071 C256.111183,56.4121071 257.420968,56.2937143 258.53086,56.0959286 L258.688817,57.7562143 C258.490323,57.7158214 258.371505,57.6378214 258.293226,57.6378214 C254.485484,57.6378214 251.274624,83.7928929 242.789677,83.7928929 C241.440753,83.7928929 239.973011,82.88475 239.973011,81.1046786 C239.973011,79.6045714 241.321935,78.7758214 242.470968,78.7758214 C244.495054,78.7758214 245.087742,80.0391429 245.12828,81.3428571 C246.397527,80.5141071 248.3,76.4037857 248.934624,74.9816786 C248.537634,74.7448929 248.142043,74.6655 247.745054,74.6655 C247.388602,74.6655 246.993011,74.7448929 246.596022,74.9816786 C239.735376,58.1907857 239.339785,57.6378214 238.109677,57.6378214 C237.95172,57.6378214 237.872043,57.6768214 237.633011,57.7562143 L237.832903,56.0959286" id="Fill-9" fill="#FFFFFF" sketch:type="MSShapeGroup"></path>
                <path d="M132.291075,96.3620357 C132.291075,103.078393 135.70043,109.241786 142.481398,109.241786 C144.265054,109.241786 146.447097,108.729214 147.399032,108.29325 C148.984194,106.120393 149.501398,104.382107 149.501398,102.999 C149.501398,102.24825 149.42172,101.773286 149.262366,101.340107 L151.403871,101.340107 C151.324194,102.485036 151.205376,104.4615 151.205376,106.436571 C151.205376,107.660893 151.285054,109.241786 151.403871,110.782286 C150.927204,110.663893 150.492473,110.585893 150.054946,110.5455 C149.620215,110.4675 149.262366,110.4675 148.905914,110.4675 C147.556989,110.4675 146.170323,110.624893 144.821398,110.743286 C143.434731,110.900679 142.085806,111.019071 140.697742,111.019071 C132.530108,111.019071 125.352151,105.410036 125.352151,96.2826429 C125.352151,88.4199643 131.576774,82.49475 140.697742,82.49475 C142.085806,82.49475 143.434731,82.6131429 144.821398,82.7705357 C146.170323,82.8889286 147.556989,83.0463214 148.905914,83.0463214 C149.856452,83.0463214 150.68957,82.9279286 151.403871,82.7301429 C151.205376,83.8360714 151.166237,85.7331429 151.166237,87.3920357 C151.166237,89.0523214 151.205376,90.9493929 151.403871,92.2921071 L149.262366,92.2921071 C149.42172,91.69875 149.501398,91.0677857 149.501398,90.4354286 C149.501398,89.0913214 148.429247,86.7220714 147.319355,85.69275 C145.892151,84.942 144.583763,84.2720357 141.809032,84.2720357 C136.494409,84.2720357 132.291075,89.3685 132.291075,96.3620357" id="Fill-10" fill="#FFFFFF" sketch:type="MSShapeGroup"></path>
                <path d="M154.385484,83.2845 C157.160215,83.0853214 160.095699,82.6521429 163.426774,81.7036071 C162.87043,86.8404643 162.671935,97.5863571 162.671935,103.157786 C162.671935,105.528429 162.712473,107.187321 162.751613,108.33225 C163.108065,109.005 163.663011,109.241786 164.417849,109.241786 C164.614946,109.241786 164.813441,109.201393 164.971398,109.123393 L164.971398,110.782286 C163.266022,110.624893 161.640323,110.4675 159.934946,110.4675 C158.230968,110.4675 156.605269,110.624893 154.899892,110.782286 L154.899892,109.123393 C155.336022,109.201393 155.495376,109.241786 155.733011,109.241786 C156.20828,109.241786 156.803763,109.005 157.279032,108.33225 C157.397849,104.777679 157.518065,101.064321 157.518065,96.954 C157.518065,92.8450714 157.397849,89.1303214 157.279032,85.5743571 C156.645806,84.942 156.13,84.7052143 155.495376,84.7052143 C155.098387,84.7052143 154.741935,84.7846071 154.385484,84.942 L154.385484,83.2845" id="Fill-11" fill="#FFFFFF" sketch:type="MSShapeGroup"></path>
                <path d="M166.639032,92.7670714 C169.85129,92.6486786 173.38086,92.0149286 175.322473,91.1457857 C175.006559,93.7532143 174.689247,99.7202143 174.689247,101.4975 C174.689247,105.883607 174.847204,108.29325 177.82043,108.29325 C179.725699,108.29325 181.073226,107.660893 182.103441,106.397571 C182.103441,105.883607 182.142581,105.053464 182.142581,102.603429 C182.142581,98.1783214 182.064301,96.7562143 181.826667,95.1377143 C181.509355,94.5833571 180.755914,94.1877857 180.240108,94.1877857 C179.803978,94.1877857 179.406989,94.2685714 179.130215,94.4259643 L178.93172,92.7670714 C182.580108,92.4495 185.673548,92.0149286 187.733978,91.1457857 C187.418065,94.9385357 187.179032,98.3371071 187.179032,103.315179 C187.179032,105.528429 187.218172,106.950536 187.338387,107.977071 C187.615161,108.450643 188.40914,108.729214 188.843871,108.729214 C189.24086,108.729214 189.558172,108.610821 189.955161,108.25425 L190.192796,109.913143 C188.010753,110.070536 184.91871,110.663893 182.580108,111.29625 C182.50043,110.5455 182.420753,108.964607 182.18172,107.858679 C180.358925,110.308714 178.020323,111.138857 175.522366,111.138857 C171.198817,111.138857 169.654194,108.807214 169.654194,106.042393 L169.654194,100.470964 C169.654194,98.9694643 169.535376,96.4010357 169.335484,95.0973214 C168.979032,94.4259643 168.502366,94.1877857 167.86914,94.1877857 C167.51129,94.1877857 167.234516,94.2685714 166.917204,94.4259643 L166.639032,92.7670714" id="Fill-12" fill="#FFFFFF" sketch:type="MSShapeGroup"></path>
                <g id="Group-16">
                    <mask id="mask-2" sketch:name="Clip 14" fill="white">
                        <use xlink:href="#path-1"></use>
                    </mask>
                    <g id="Clip-14"></g>
                    <path d="M203.283656,94.1083929 C201.934731,94.1083929 200.706022,94.66275 199.636667,95.9274643 L199.636667,107.819679 C200.666882,109.241786 202.094086,109.715357 203.52129,109.715357 C206.852366,109.715357 208.27957,106.357179 208.27957,101.972464 C208.27957,96.3216429 206.217742,94.1083929 203.283656,94.1083929 L203.283656,94.1083929 Z M191.23,83.2845 C194.004731,83.0853214 196.938817,82.6521429 200.269892,81.7036071 C199.794624,85.8529286 199.636667,90.08025 199.636667,94.2685714 C202.372258,91.9759286 204.116774,91.5413571 206.178602,91.5413571 C210.460215,91.5413571 214.227419,94.2267857 214.227419,100.904143 C214.227419,103.986536 212.324946,111.138857 203.402473,111.138857 C201.697097,111.138857 199.19914,110.782286 197.098172,109.79475 C196.225914,110.349107 194.79871,111.019071 193.887312,111.138857 C194.242366,109.399179 194.361183,106.120393 194.361183,96.954 C194.361183,92.8450714 194.242366,89.1303214 194.123548,85.5743571 C193.488925,84.942 192.974516,84.7052143 192.339892,84.7052143 C191.942903,84.7052143 191.586452,84.7846071 191.23,84.942 L191.23,83.2845 L191.23,83.2845 Z" id="Fill-13" fill="#FFFFFF" sketch:type="MSShapeGroup" mask="url(#mask-2)"></path>
                    <path d="M75.3832258,83.0365714 C69.4144086,85.5005357 62.5160215,86.4490714 55.6176344,86.4741429 C48.7178495,86.4490714 41.7956989,85.3598571 35.824086,83.2273929 L37.4427957,77.9387143 L73.7673118,77.9387143 L75.3832258,83.0365714 L75.3832258,83.0365714 Z M55.686129,13.99125 C59.28,13.9675714 62.966129,12.7112143 64.8937634,9.17892857 C65.3215054,8.56328571 65.3215054,7.56739286 64.7735484,7.02278571 C64.0131183,6.19264286 62.8934409,6.71357143 62.2294624,7.33060714 C61.6325806,8.08832143 60.4919355,7.61475 59.8978495,7.14117857 C58.7558065,5.95446429 58.9473118,4.34432143 59.3498925,2.85117857 C60.422043,1.47503571 61.991828,0.456857143 63.7503226,0.266035714 C66.272043,0.218678571 68.5547312,0.693642857 70.3397849,2.30517857 C73.0991398,4.93628571 74.313871,9.06053571 72.6951613,12.5691429 C71.1966667,16.9775357 66.9849462,20.4610714 62.4670968,21.1728214 C61.8017204,22.4291786 63.0611828,23.7579643 63.4162366,24.8945357 C70.0070968,25.8890357 77.6910753,29.2082143 83.8513978,31.7209286 C82.4954839,27.5019643 82.4255914,21.5043214 87.0622581,19.49025 C88.8011828,18.4247143 91.3229032,18.8982857 93.1037634,19.6086429 C94.6497849,20.5084286 95.865914,22.0029643 96.1007527,23.6145 C96.4334409,25.65225 96.3383871,27.73875 94.7923656,29.0424643 C93.7006452,28.6148571 92.5096774,27.5019643 91.2012903,28.3307143 C90.4170968,29.5160357 90.5387097,31.48275 90.9636559,32.8115357 C92.2007527,36.6265714 94.4373118,40.2298929 98.3387097,42.6242143 C99.5268817,43.2649286 100.241183,43.2398571 100.527742,42.1018929 C100.717849,41.106 100.123763,40.2535714 101.264409,39.6616071 C103.23957,39.9680357 105.021828,41.15475 106.165269,42.8373214 C108.543011,48.1468929 103.23957,49.4255357 100.123763,48.8098929 C97.7921505,48.3363214 96.7689247,47.7192857 95.104086,46.2498214 C87.0384946,39.1629643 78.6667742,33.8060357 67.0073118,31.7919643 L66.4146237,31.7919643 C72.67,46.8905357 79.7598925,62.2258929 86.1326882,77.064 C86.3255914,77.2548214 86.5632258,77.3258571 86.8735484,77.064 C92.1783871,72.5831786 95.104086,69.09825 97.7683871,60.5906786 C98.4826882,59.5725 99.6960215,58.8356786 100.836667,59.5725 C102.027634,60.5906786 101.953548,62.48775 101.550968,63.8611071 C99.8609677,71.1373929 95.2927957,78.6992143 90.3206452,84.6021429 C90.1556989,84.8389286 90.2032258,85.2177857 90.4408602,85.4308929 C91.7730108,88.3935 93.3903226,93.015 97.4832258,93.015 C99.2431183,93.015 100.668925,91.5928929 100.668925,89.8392857 C100.668925,88.1567143 99.4555914,86.8293214 97.7432258,86.68725 C96.673871,86.5451786 96.3901075,85.4545714 97.4594624,84.4113214 C99.0054839,82.5852857 101.836129,81.6381429 104.237634,82.7050714 C106.759355,83.9614286 107.758817,86.7833571 107.996452,89.3420357 C108.139032,93.7504286 105.379677,97.5668571 102.05,100.340036 C100.622796,101.54625 99.7896774,102.471107 97.9333333,101.452929 C96.2922581,100.528071 95.0090323,98.7758571 92.9388172,99.9124286 C90.108172,101.406964 88.3245161,104.273464 88.5146237,107.379536 C88.3944086,108.991071 90.1305376,110.411786 88.6809677,111.858964 C84.3755914,114.726857 79.3573118,116.505536 73.7169892,115.247786 C70.6501075,114.300643 66.7724731,111.314357 66.5362366,107.80575 C66.0595699,105.176036 66.5823656,102.235714 68.6763441,100.386 C70.4837634,98.6560714 73.4807527,97.6838571 75.8584946,98.0641071 C77.4282796,98.3245714 75.2644086,99.77175 74.8604301,100.624179 C73.7896774,102.922393 74.2901075,105.722036 77.6211828,106.121786 C78.807957,106.26525 80.1163441,105.365464 80.4727957,104.226107 C81.8273118,99.9834643 79.5222581,95.3856429 77.9986022,90.9076071 C77.9049462,90.7167857 77.7386022,90.48 77.452043,90.5983929 C64.87,97.5431786 46.7203226,97.1378571 32.7558065,93.561 C32.4930108,93.5373214 32.351828,93.5832857 32.2330108,93.8451429 C31.1846237,97.3063929 27.9989247,103.231607 32.0890323,104.8905 C36.2532258,106.502036 36.9437634,100.955679 37.3225806,99.2020714 C39.3466667,99.2745 41.5105376,100.505786 42.6525806,102.546321 C43.8407527,105.722036 42.9377419,110.411786 40.4887097,113.281071 C37.5616129,116.38575 33.3498925,117.406714 29.2821505,116.859321 C25.1431183,116.60025 21.7896774,114.111214 18.8877419,111.197357 C17.8183871,110.129036 17.5080645,109.819821 17.5555914,108.257036 C17.652043,105.790286 18.5550538,103.231607 16.4610753,101.359607 C14.1769892,99.1310357 11.8719355,100.386 9.4927957,101.168786 C7.85032258,101.737071 7.30236559,101.737071 6.11419355,100.340036 C2.3316129,95.9776071 -0.381612903,90.1958571 1.85774194,84.3402857 C2.68946237,82.9655357 4.02021505,82.0643571 5.68645161,82.3025357 C7.97053763,82.3721786 10.1092473,84.1745357 10.8962366,86.19 C9.99043011,87.0897857 8.3255914,87.4463571 8.13548387,88.9395 C8.20817204,90.48 9.46903226,91.6876071 10.8962366,92.2085357 C14.0819355,93.4175357 17.652043,92.5651071 20.1024731,89.76825 C20.2198925,89.4130714 20.6951613,89.1762857 20.5288172,88.6302857 C10.4419355,82.7761071 -0.141182796,76.4706429 0.00139784946,58.7646429 C-0.141182796,45.5868214 12.6798925,35.1807857 22.7416129,30.6066429 C30.2816129,27.0743571 38.8462366,25.0115357 47.5268817,24.7051071 C48.8115054,23.0921786 50.0024731,20.9833929 47.765914,21.1017857 C43.5541935,20.1058929 39.7995699,16.6933929 38.4170968,12.5691429 C36.7997849,9.06053571 37.9893548,4.93628571 40.7487097,2.30517857 C42.5323656,0.693642857 44.8164516,0.218678571 47.3367742,0.266035714 C49.121828,0.456857143 50.6902151,1.47503571 51.7637634,2.85117857 C52.1901075,4.34432143 52.3564516,5.95446429 51.2144086,7.14117857 C50.6203226,7.61475 49.4796774,8.08832143 48.8841935,7.33060714 C48.2425806,6.71357143 47.0991398,6.19264286 46.3149462,7.02278571 C45.7669892,7.56739286 45.7669892,8.56328571 46.1975269,9.17892857 C48.1475269,12.7112143 52.0712903,13.9675714 55.686129,13.99125 L55.686129,13.99125 Z M44.8891398,31.8393214 C38.6784946,47.0312143 31.9478495,62.9613214 25.5484946,78.0585 C18.8877419,73.5317143 13.7506452,66.066 13.7506452,58.7646429 C13.7506452,50.778 18.9352688,42.4821429 29.0696774,37.2672857 C33.8013978,34.6361786 37.5616129,33.3798214 44.8891398,31.8393214 L44.8891398,31.8393214 Z M69.9833333,67.2986786 C70.1748387,67.9630714 69.4591398,68.1288214 68.983871,68.0090357 L41.7956989,68.0090357 C41.2002151,68.0327143 41.0115054,67.6775357 41.0590323,67.392 C45.9347312,52.5789643 50.2652688,39.8496429 53.476129,30.8907857 C55.4484946,30.8907857 54.5930108,30.8671071 58.0890323,30.8671071 L69.9833333,67.2986786 L69.9833333,67.2986786 Z" id="Fill-15" fill="#FFFFFF" sketch:type="MSShapeGroup" mask="url(#mask-2)"></path>
                </g>
            </g>
        </g>
    </g>
</svg>