<svg xmlns="http://www.w3.org/2000/svg" width="89" height="52" viewBox="0 0 89 52" fill="none"><path d="M30.0278 0H20.9552V25.4377L21.0229 25.5052C21.8692 26.1462 22.7833 26.7872 23.7312 27.4619L24.0358 27.6643V3.07007H28.0644V30.2283L28.1659 30.2958C29.0461 30.8356 29.9601 31.3417 30.8742 31.8477L31.1789 32.0164V3.20501C33.0408 3.60986 35.2074 4.9256 35.2074 8.83909V34.1081L35.3089 34.1756C36.1891 34.6142 37.1032 35.019 38.0172 35.4238L38.288 35.5588V8.83909C38.2203 0.134949 30.0956 0 30.0278 0Z" fill="#9B6F3F"></path><path d="M0.135413 0.269896C0.541651 1.14706 0.981742 2.05796 1.45569 2.96886L1.52339 3.07007H17.3667V0H0L0.135413 0.269896Z" fill="#9B6F3F"></path><path d="M49.2903 3.20501V14.5406H45.3633V8.80536V8.67041C45.3633 8.63667 45.1602 6.14013 46.6159 4.55449C47.2252 3.87975 48.1054 3.40744 49.2903 3.20501ZM44.28 2.53027C42.0457 4.99308 42.215 8.2993 42.2488 8.90657V37.2456L42.3842 37.2794C42.892 37.4818 43.3998 37.6842 43.9076 37.8529L43.9753 37.8866H44.043C44.3477 37.8192 44.6862 37.718 45.0248 37.6167L45.3633 37.5155V17.6444H49.2903V36.1998L49.5611 36.0986C50.4413 35.7275 51.3215 35.3226 52.2693 34.8841L52.3709 34.8166V0H50.8137C48.0039 0 45.8034 0.843425 44.28 2.53027Z" fill="#9B6F3F"></path><path d="M70.4485 0V3.07007H87.4766L87.5443 2.96886C88.0183 2.05796 88.4584 1.14706 88.8646 0.269896L89 0H70.4485V0Z" fill="#9B6F3F"></path><path d="M60.6988 4.58823C61.3421 3.87975 62.2561 3.44117 63.4071 3.20501V14.5406H59.4801V8.80536V8.67041C59.4463 8.67041 59.2432 6.17387 60.6988 4.58823ZM66.4539 0H65.2013H64.4904C61.8837 0.101211 59.8525 0.944636 58.3968 2.49654C56.1625 4.95934 56.3318 8.26556 56.3656 8.87283V32.7924L56.6703 32.6237C57.5843 32.1514 58.4984 31.6453 59.3786 31.1392L59.4801 31.0718V17.577H63.4071V28.6764L63.7118 28.474C64.592 27.9005 65.4383 27.327 66.2846 26.7197C66.3185 26.7197 66.3862 26.7197 66.4877 26.6522L66.5554 26.5848V0.438581L66.4539 0Z" fill="#9B6F3F"></path><path d="M3.99471 7.35466C4.57021 8.26556 5.17957 9.17646 5.82278 10.0536L5.89048 10.1211H16.9266V7.05103H3.82544L3.99471 7.35466Z" fill="#9B6F3F"></path><path d="M9.24177 14.4391C10.0204 15.35 10.8329 16.2609 11.6453 17.1381L11.7131 17.2056H16.9264V14.1355H8.97095L9.24177 14.4391Z" fill="#9B6F3F"></path><path d="M70.4485 10.1211H83.0757L83.1434 10.0536C83.4819 9.5813 83.8205 9.10898 84.1252 8.63666L85.1746 7.05103H70.4485V10.1211Z" fill="#9B6F3F"></path><path d="M70.4485 17.1724H77.2868L77.3545 17.1049C77.93 16.4976 78.5055 15.8566 79.0472 15.2494L80.0289 14.1023H70.4823V17.1724H70.4485Z" fill="#9B6F3F"></path><path d="M23.2572 50.1671C23.2572 51.1792 22.7155 51.6853 21.9031 51.6853C21.0906 51.6853 20.549 51.1792 20.549 50.1671V48.3453C20.549 47.3332 21.0906 46.8271 21.9031 46.8271C22.7155 46.8271 23.2572 47.3332 23.2572 48.3453V48.514L22.3432 48.5477V48.4128C22.3432 47.8393 22.2078 47.6031 21.9031 47.6031C21.5984 47.6031 21.463 47.8393 21.463 48.4128V50.0996C21.463 50.6732 21.5984 50.9093 21.9031 50.9093C22.2078 50.9093 22.3432 50.6732 22.3432 50.0996V49.9647L23.2572 49.9984V50.1671Z" fill="#9B6F3F"></path><path d="M24.9835 46.8606H25.8976V50.8078H27.3532V51.6175H24.9835V46.8606Z" fill="#9B6F3F"></path><path d="M28.9443 50.167V46.8945H29.8584V50.0995C29.8584 50.6393 29.9938 50.9092 30.3323 50.9092C30.6708 50.9092 30.8063 50.6731 30.8063 50.0995V46.8945H31.7203V50.167C31.7203 51.1791 31.1786 51.6852 30.3323 51.6852C29.486 51.6852 28.9443 51.1791 28.9443 50.167Z" fill="#9B6F3F"></path><path d="M34.4624 49.5598V50.808H34.7332C35.0379 50.808 35.2071 50.6056 35.2071 50.167C35.2071 49.7284 35.0379 49.526 34.7332 49.526H34.4624V49.5598ZM34.4624 47.6705V48.8175H34.6655C34.9702 48.8175 35.1056 48.6489 35.1056 48.244C35.1056 47.8392 34.9702 47.6705 34.6655 47.6705H34.4624ZM33.5483 51.6177V46.8945H34.7671C35.5457 46.8945 36.0196 47.2994 36.0196 48.2103C36.0196 48.6826 35.8165 49.02 35.5457 49.1549C35.8842 49.3236 36.1212 49.661 36.1212 50.2345C36.1212 51.1454 35.6472 51.6177 34.8009 51.6177H33.5483Z" fill="#9B6F3F"></path><path d="M40.3192 50.2341L41.2332 50.2004V50.3354C41.2332 50.7065 41.3686 50.8751 41.6056 50.8751C41.8426 50.8751 41.978 50.7065 41.978 50.3354V50.2341C41.978 49.9305 41.8764 49.7956 41.5379 49.6606L41.2671 49.5594C40.5223 49.2895 40.2853 49.0196 40.2853 48.2437V48.1087C40.2853 47.299 40.6577 46.793 41.5379 46.793C42.4181 46.793 42.7905 47.299 42.7905 48.1087V48.2437L41.8764 48.2774V48.1087C41.8764 47.7376 41.7749 47.6027 41.5379 47.6027C41.3009 47.6027 41.1994 47.7376 41.1994 48.1087V48.1762C41.1994 48.5473 41.3348 48.6148 41.7072 48.7497L41.8764 48.8172C42.6212 49.1208 42.892 49.4245 42.892 50.1667V50.3016C42.892 51.1788 42.4181 51.6511 41.6056 51.6511C40.7593 51.6511 40.3192 51.1788 40.3192 50.3016V50.2341Z" fill="#9B6F3F"></path><path d="M45.8033 47.6703H45.6002V49.1547H45.8033C46.2095 49.1547 46.345 48.8848 46.345 48.4125C46.345 47.9739 46.1757 47.6703 45.8033 47.6703ZM45.6002 49.9644V51.5838H44.6862V46.8606H45.9387C46.6496 46.8606 47.259 47.2992 47.259 48.4125C47.259 49.5258 46.6496 49.9644 45.9387 49.9644H45.6002Z" fill="#9B6F3F"></path><path d="M50.7459 48.4128C50.7459 47.8393 50.6105 47.6031 50.3058 47.6031C50.0011 47.6031 49.8657 47.8393 49.8657 48.4128V50.0996C49.8657 50.6732 50.0011 50.9093 50.3058 50.9093C50.6105 50.9093 50.7459 50.6732 50.7459 50.0996V48.4128ZM51.6599 50.1671C51.6599 51.1792 51.1183 51.6853 50.3058 51.6853C49.4933 51.6853 48.9517 51.1792 48.9517 50.1671V48.3453C48.9517 47.3332 49.4933 46.8271 50.3058 46.8271C51.1183 46.8271 51.6599 47.3332 51.6599 48.3453V50.1671Z" fill="#9B6F3F"></path><path d="M54.6052 47.6705H54.4021V49.0537H54.6052C55.0114 49.0537 55.1468 48.8175 55.1468 48.3452C55.1468 47.9404 54.9776 47.6705 54.6052 47.6705ZM56.1963 51.6177H55.2484L54.7068 49.8634H54.4021V51.6177H53.488V46.8945H54.7406C55.4515 46.8945 56.0609 47.2994 56.0609 48.379C56.0609 49.02 55.8578 49.4248 55.5192 49.661L56.1963 51.6177Z" fill="#9B6F3F"></path><path d="M57.6182 46.8606H60.2587V47.6703H59.3785V51.6175H58.4645V47.6703H57.6182V46.8606Z" fill="#9B6F3F"></path><path d="M62.7976 46.8606H61.8835V51.5838H62.7976V46.8606Z" fill="#9B6F3F"></path><path d="M64.6595 46.8606H66.9954V47.6703H65.5736V48.8511H66.86V49.6608H65.5736V51.6175H64.6595V46.8606Z" fill="#9B6F3F"></path></svg>