<svg width="240" height="46" viewBox="0 0 240 46" fill="none" xmlns="http://www.w3.org/2000/svg">
<path d="M11.61 21H5.508V20.865L6.912 19.407V3.18H4.725L0.81 5.637H0.675V2.1H16.416V5.637H16.281L12.555 3.18H10.179V19.407L11.61 20.865V21ZM23.7305 21H18.1955V20.838L19.4915 19.731V2.829L17.9525 1.56V1.452L22.1645 0.209999H22.4345V9.336H22.5965C24.1085 7.743 25.6205 6.987 27.2675 6.987C29.5355 6.987 31.0745 8.418 31.0745 10.524V19.731L32.3435 20.892V21.027H26.8355V20.892L28.1315 19.731V11.253C28.1315 9.768 27.1865 8.85 25.7015 8.85C24.6485 8.85 23.5685 9.309 22.4345 10.308V19.731L23.7305 20.865V21ZM40.5679 21.405C36.7879 21.405 34.1689 18.624 34.1689 14.466C34.1689 10.173 37.0039 6.96 40.7029 6.96C43.6729 6.96 45.6439 9.066 46.3729 13.035H36.5719C36.6259 16.761 38.6509 19.191 41.7019 19.191C43.6459 19.191 45.2389 18.165 46.3999 16.14L46.5349 16.221C45.9139 19.434 43.6999 21.405 40.5679 21.405ZM40.0819 7.905C38.1109 7.905 36.8149 9.498 36.5989 12.171H43.4839C42.8629 9.174 41.8369 7.905 40.0819 7.905ZM63.0144 21.405C58.5054 21.405 55.6434 18.948 55.6434 14.493V3.693L54.2124 2.235V2.1H60.3414V2.235L58.9104 3.693V14.142C58.9104 17.598 60.6924 19.407 63.8784 19.407C66.8214 19.407 68.6574 17.787 68.6574 14.655V4.179L66.6054 2.235V2.1H71.4654V2.235L70.0344 4.179V14.817C70.0344 18.894 67.3074 21.405 63.0144 21.405ZM77.8319 10.308V19.731L79.1279 20.865V21H73.5929V20.865L74.8889 19.731V9.579L73.3499 8.31V8.175L77.3459 6.96H77.5889L77.7779 9.363H77.9129C79.4249 7.77 81.0179 6.96 82.6919 6.96C84.9329 6.96 86.4719 8.418 86.4719 10.524V19.731L87.7409 20.865V21H82.2329V20.865L83.5289 19.677V11.226C83.5289 9.741 82.5839 8.823 81.1259 8.823C80.0459 8.823 78.9659 9.309 77.8319 10.308ZM92.5898 3.666C91.5098 3.666 90.7808 3.018 90.7808 1.938C90.7808 0.857999 91.5098 0.209999 92.5898 0.209999C93.6428 0.209999 94.3718 0.857999 94.3718 1.938C94.3718 3.018 93.6428 3.666 92.5898 3.666ZM95.3438 21H89.8088V20.892L91.1048 19.731V9.606L89.5658 8.337V8.229L93.7778 6.96H94.0478V19.731L95.3438 20.892V21ZM102.038 7.365V7.5L100.823 8.661L104.441 17.787L107.762 9.066L106.196 7.5V7.365H110.03V7.5L108.815 9.066L103.982 21H102.659L97.6096 8.661L96.5566 7.5V7.365H102.038ZM116.69 21.405C112.91 21.405 110.291 18.624 110.291 14.466C110.291 10.173 113.126 6.96 116.825 6.96C119.795 6.96 121.766 9.066 122.495 13.035H112.694C112.748 16.761 114.773 19.191 117.824 19.191C119.768 19.191 121.361 18.165 122.522 16.14L122.657 16.221C122.036 19.434 119.822 21.405 116.69 21.405ZM116.204 7.905C114.233 7.905 112.937 9.498 112.721 12.171H119.606C118.985 9.174 117.959 7.905 116.204 7.905ZM125.778 19.731V9.579L124.239 8.31V8.175L128.235 6.96H128.478L128.667 9.687H128.802C130.044 7.743 131.07 6.96 132.42 6.96C133.014 6.96 133.554 7.122 133.824 7.311V10.686H133.689L131.286 9.066C131.205 9.039 131.124 9.039 131.043 9.039C130.287 9.039 129.126 9.876 128.721 10.848V19.731L130.125 20.865V21H124.482V20.865L125.778 19.731ZM139.747 21.405C138.289 21.405 136.237 20.946 135.319 20.406V17.625H135.454L138.694 20.271C139.099 20.487 139.558 20.595 139.99 20.595C141.556 20.595 142.69 19.569 142.69 18.057C142.69 14.52 135.697 15.951 135.697 11.28C135.697 8.715 137.776 6.96 140.881 6.96C142.123 6.96 143.554 7.257 144.445 7.689V10.254H144.31L141.637 7.959C141.367 7.851 141.043 7.797 140.665 7.797C139.234 7.797 138.208 8.715 138.208 10.065C138.208 13.629 145.201 12.198 145.201 16.842C145.201 19.569 143.041 21.405 139.747 21.405ZM150.176 3.666C149.096 3.666 148.367 3.018 148.367 1.938C148.367 0.857999 149.096 0.209999 150.176 0.209999C151.229 0.209999 151.958 0.857999 151.958 1.938C151.958 3.018 151.229 3.666 150.176 3.666ZM152.93 21H147.395V20.892L148.691 19.731V9.606L147.152 8.337V8.229L151.364 6.96H151.634V19.731L152.93 20.892V21ZM159.759 21.405C158.22 21.405 156.924 20.649 156.573 19.083V8.607H154.656V8.472L159.084 4.827H159.543V7.365H163.431L163.242 8.607H159.543V17.571C159.543 19.029 160.272 19.704 161.46 19.704C162.243 19.704 163.053 19.38 163.728 18.732L163.836 18.813C163.053 20.433 161.487 21.405 159.759 21.405ZM166.267 26.4C165.565 26.4 164.755 26.238 164.404 26.049V23.025H164.512L167.239 24.429C167.374 24.456 167.536 24.483 167.725 24.483C168.778 24.483 169.372 23.862 170.479 21.189L165.241 8.661L164.188 7.5V7.365H169.669V7.5L168.454 8.661L172.072 17.814L175.393 9.066L173.827 7.5V7.365H177.661V7.5L176.446 9.066L171.559 21.351C170.155 24.915 168.508 26.4 166.267 26.4ZM193.424 21.405C188.456 21.405 184.838 17.382 184.838 11.928C184.838 5.907 188.888 1.695 194.801 1.695C196.502 1.695 198.068 2.046 199.256 2.64V6.177H199.121L194.909 2.883C194.72 2.829 194.315 2.802 193.937 2.802C190.616 2.802 188.159 6.15 188.159 10.713C188.159 15.708 191.021 19.245 195.017 19.245C197.204 19.245 199.013 18.192 199.985 16.383L200.093 16.437C199.58 19.434 196.907 21.405 193.424 21.405ZM207.773 21H202.238V20.892L203.534 19.704V2.856L201.995 1.587V1.479L206.207 0.209999H206.477V19.704L207.773 20.892V21ZM214.818 21.405C212.604 21.405 211.119 19.974 211.119 17.868V9.633L209.58 8.364V8.229L213.792 6.96H214.062V17.139C214.062 18.624 214.953 19.542 216.384 19.542C217.437 19.542 218.463 19.083 219.597 18.084V9.66L218.085 8.364V8.229L222.297 6.96H222.567V18.948L223.998 20.19V20.325L219.948 21.405L219.678 19.002H219.516C218.031 20.622 216.465 21.405 214.818 21.405ZM239.894 13.575C239.894 18.165 236.6 21.432 231.983 21.432C230.66 21.432 228.905 21.162 227.339 20.622V2.856L225.827 1.587V1.479L230.039 0.209999H230.309V9.147H230.444C231.848 7.581 232.955 6.96 234.44 6.96C237.599 6.96 239.894 9.741 239.894 13.575ZM237.086 14.979C237.086 11.469 235.277 8.958 232.685 8.958C231.632 8.958 230.822 9.417 230.309 10.146V19.731C230.876 20.136 231.74 20.406 232.712 20.406C235.331 20.406 237.086 18.354 237.086 14.979ZM7.425 45.405C3.618 45.405 0.999 42.543 0.999 38.358C0.999 34.065 3.78 30.96 7.749 30.96C11.556 30.96 14.175 33.822 14.175 38.007C14.175 42.327 11.394 45.405 7.425 45.405ZM7.911 44.46C9.909 44.46 11.097 42.435 11.097 38.844C11.097 34.659 9.558 31.905 7.263 31.905C5.238 31.905 4.077 33.93 4.077 37.521C4.077 41.706 5.616 44.46 7.911 44.46ZM22.3701 45H16.3761V44.865L17.6721 43.731V32.607H15.7011V32.472L17.6991 31.014C18.0231 27.072 20.2371 24.21 23.0181 24.21C23.5581 24.21 24.2331 24.318 24.5841 24.48V27.369H24.4491L21.0201 25.857C20.0751 26.019 19.2921 27.612 19.2921 29.34C19.2921 30.744 19.9131 31.365 21.2901 31.365H24.0171L23.8281 32.607H20.6151V43.731L22.3701 44.865V45ZM41.6686 45H35.5666V44.865L36.9706 43.407V27.18H34.7836L30.8686 29.637H30.7336V26.1H46.4746V29.637H46.3396L42.6136 27.18H40.2376V43.407L41.6686 44.865V45ZM51.9855 45.405C48.1785 45.405 45.5595 42.543 45.5595 38.358C45.5595 34.065 48.3405 30.96 52.3095 30.96C56.1165 30.96 58.7355 33.822 58.7355 38.007C58.7355 42.327 55.9545 45.405 51.9855 45.405ZM52.4715 44.46C54.4695 44.46 55.6575 42.435 55.6575 38.844C55.6575 34.659 54.1185 31.905 51.8235 31.905C49.7985 31.905 48.6375 33.93 48.6375 37.521C48.6375 41.706 50.1765 44.46 52.4715 44.46ZM62.2327 43.731V33.579L60.6937 32.31V32.175L64.6897 30.96H64.9327L65.1217 33.687H65.2567C66.4987 31.743 67.5247 30.96 68.8747 30.96C69.4687 30.96 70.0087 31.122 70.2787 31.311V34.686H70.1437L67.7407 33.066C67.6597 33.039 67.5787 33.039 67.4977 33.039C66.7417 33.039 65.5807 33.876 65.1757 34.848V43.731L66.5797 44.865V45H60.9367V44.865L62.2327 43.731ZM77.799 45.405C73.992 45.405 71.373 42.543 71.373 38.358C71.373 34.065 74.154 30.96 78.123 30.96C81.93 30.96 84.549 33.822 84.549 38.007C84.549 42.327 81.768 45.405 77.799 45.405ZM78.285 44.46C80.283 44.46 81.471 42.435 81.471 38.844C81.471 34.659 79.932 31.905 77.637 31.905C75.612 31.905 74.451 33.93 74.451 37.521C74.451 41.706 75.99 44.46 78.285 44.46ZM90.9892 34.308V43.731L92.2852 44.865V45H86.7502V44.865L88.0462 43.731V33.579L86.5072 32.31V32.175L90.5032 30.96H90.7462L90.9352 33.363H91.0702C92.5822 31.77 94.1752 30.96 95.8492 30.96C98.0902 30.96 99.6292 32.418 99.6292 34.524V43.731L100.898 44.865V45H95.3902V44.865L96.6862 43.677V35.226C96.6862 33.741 95.7412 32.823 94.2832 32.823C93.2032 32.823 92.1232 33.309 90.9892 34.308ZM107.367 45.405C105.828 45.405 104.532 44.649 104.181 43.083V32.607H102.264V32.472L106.692 28.827H107.151V31.365H111.039L110.85 32.607H107.151V41.571C107.151 43.029 107.88 43.704 109.068 43.704C109.851 43.704 110.661 43.38 111.336 42.732L111.444 42.813C110.661 44.433 109.095 45.405 107.367 45.405ZM119.169 45.405C115.362 45.405 112.743 42.543 112.743 38.358C112.743 34.065 115.524 30.96 119.493 30.96C123.3 30.96 125.919 33.822 125.919 38.007C125.919 42.327 123.138 45.405 119.169 45.405ZM119.655 44.46C121.653 44.46 122.841 42.435 122.841 38.844C122.841 34.659 121.302 31.905 119.007 31.905C116.982 31.905 115.821 33.93 115.821 37.521C115.821 41.706 117.36 44.46 119.655 44.46Z" fill="#3E6D51"/>
</svg>
