<svg width="290" height="122" viewBox="0 0 290 122" fill="none" xmlns="http://www.w3.org/2000/svg">
<path d="M170.507 121.313H116.395V102.111H170.507V121.313ZM116.912 120.8H169.989V102.625H116.912V120.8Z" fill="white"/>
<path d="M9.75402 88.6388L9.59973 84.607H10.629C10.9376 87.5163 12.2744 88.5371 14.7948 88.6388C17.6238 88.741 19.2185 85.7809 18.7038 83.9438C18.241 82.2592 17.161 81.3915 14.8974 80.269C11.9659 78.7889 10.0626 77.1558 9.90832 74.4509C9.70329 71.0824 12.6348 67.8161 20.5553 69.5001L20.8132 73.0726H19.7839C19.321 70.7762 18.3435 70.3678 16.492 70.1638C14.9491 70.0107 13.3545 70.674 12.7891 71.8987C11.6055 74.5527 13.8173 75.9819 16.5956 77.5128C21.2243 80.0645 21.8414 82.0044 21.7896 84.1477C21.6353 87.618 16.492 91.6503 9.75402 88.6388Z" fill="white"/>
<path d="M47.7662 89.6586C46.1208 89.6586 44.6286 88.7909 44.6286 87.056C36.1935 92.9758 32.6448 87.8215 32.9534 84.81C33.2102 81.595 36.9649 78.4818 44.5261 78.4818V74.7048C44.5261 71.796 43.9607 70.673 41.9032 70.673C38.7656 70.673 36.8106 72.6637 36.8106 74.6539C36.8106 75.2663 35.1652 75.7256 34.7531 75.7256C33.468 75.7256 33.9309 73.8885 34.5988 72.9699C36.0392 71.0814 39.4346 69.346 42.8289 69.2952C45.8122 69.2443 47.6119 70.7752 47.6119 73.7354V84.7591C47.6119 86.5962 47.5612 88.2294 49.1041 87.9232C49.5669 87.8724 50.3384 87.5662 51.0073 87.0047L51.5727 87.7193C50.3384 88.7401 49.2584 89.6586 47.7662 89.6586ZM44.5779 79.8596C39.2285 79.9105 36.2452 81.6459 36.1935 84.249C36.1427 86.3923 37.8399 90.067 44.5779 85.6777V79.8596Z" fill="white"/>
<path d="M66.7488 72.2562V85.9848C66.7488 87.8732 66.8513 88.2817 69.0631 88.2817V89.2002L66.1824 89.098H64.2284L61.4512 89.2002V88.2817C63.662 88.2817 63.868 87.771 63.868 86.0361V72.4602C63.868 70.9801 63.5594 70.4186 61.4512 70.4186V69.5L64.2284 69.5514H66.1824L69.1149 69.5V70.4186C67.3142 70.4186 66.7488 70.7761 66.7488 72.2562Z" fill="white"/>
<path d="M100.285 73.2256V89.3025H98.896C97.3013 87.414 86.089 75.5225 85.0089 73.7871V84.3007C85.0089 87.771 85.42 88.2817 87.8886 88.2817V89.2002L85.214 89.098H83.26L80.5853 89.2002V88.2817C82.8478 88.2817 83.2082 87.6693 83.2082 84.1476V73.7363C83.2082 70.9801 82.6428 70.4186 80.0199 70.4186V69.5L82.591 69.5514H85.0089C86.3975 71.2862 97.4049 82.8715 98.4331 84.5047V73.1239C98.4331 71.0314 97.7642 70.4186 95.7067 70.4186V69.5L98.2271 69.5514H100.234L102.702 69.5V70.4186C100.542 70.4186 100.285 70.9801 100.285 73.2256Z" fill="white"/>
<path d="M115.513 84.9127V71.031H112.581V69.9588C114.896 69.9588 116.388 68.1217 117.159 65.4678H118.445V69.4996H125.183V71.031H118.445V83.6371C118.445 86.852 118.393 89.6591 125.286 86.6481L125.646 87.6689C116.388 92.7214 115.513 87.0051 115.513 84.9127Z" fill="white"/>
<path d="M154.554 73.0216V86.8524C154.554 91.6502 151.262 96.3961 146.067 95.5798V94.6612C149.924 94.6612 151.519 91.0373 151.519 86.5971V73.3278C151.519 70.9292 151.108 70.4186 148.742 70.4186V69.5L151.365 69.5514H153.268L156.971 69.5V70.4186C155.017 70.4186 154.554 70.7761 154.554 73.0216Z" fill="white"/>
<path d="M182.793 89.6586C181.148 89.6586 179.656 88.7909 179.656 87.056C171.22 92.9758 167.672 87.8215 167.98 84.81C168.237 81.595 171.992 78.4818 179.553 78.4818V74.7048C179.553 71.796 178.988 70.673 176.93 70.673C173.793 70.673 171.838 72.6637 171.838 74.6539C171.838 75.2663 170.192 75.7256 169.78 75.7256C168.495 75.7256 168.958 73.8885 169.626 72.9699C171.066 71.0814 174.462 69.346 177.856 69.2952C180.839 69.2443 182.639 70.7752 182.639 73.7354V84.7591C182.639 86.5962 182.588 88.2294 184.131 87.9232C184.594 87.8724 185.365 87.5662 186.034 87.0047L186.6 87.7193C185.365 88.7401 184.285 89.6586 182.793 89.6586ZM179.605 79.8596C174.256 79.9105 171.272 81.6459 171.221 84.249C171.17 86.3923 172.867 90.067 179.605 85.6777V79.8596Z" fill="white"/>
<path d="M226.208 89.0971H224.304L221.578 89.1993V88.2807C223.739 88.2807 223.944 87.617 223.944 85.9838L223.996 75.9809C223.996 73.684 223.944 71.7446 221.836 71.4898C219.572 71.2345 216.075 72.9699 214.481 74.3477V85.8307C214.481 87.8723 214.686 88.2807 216.795 88.2807V89.1993L213.863 89.0971H211.96L209.183 89.1993V88.2807C211.394 88.2807 211.652 87.4639 211.652 85.7799V75.7769C211.652 73.5822 211.6 71.6938 209.542 71.4384C207.125 71.1322 203.834 72.8168 202.187 74.2455V85.8307C202.187 87.8214 202.239 88.2807 204.347 88.2807V89.1993L201.416 89.097H199.462L196.735 89.1993V88.2807C198.793 88.2807 199.152 87.6683 199.152 85.8307V73.0207C199.152 71.1836 198.587 70.4176 196.478 70.4176V69.4991L199.564 69.4482C201.879 69.3974 202.187 69.7035 202.187 71.5407V72.6637C203.936 71.0305 207.074 69.0398 209.748 69.1929C212.577 69.346 213.863 70.9283 214.377 72.7654C216.126 70.9283 219.521 69.0398 222.453 69.2443C226.156 69.4991 226.877 72.1022 226.877 75.164V85.729C226.877 87.8723 227.031 88.2807 229.139 88.2807V89.1993L226.208 89.0971Z" fill="white"/>
<path d="M239.74 79.9628C239.74 73.4301 243.803 69.4492 248.483 69.3983C253.576 69.2961 256.662 73.4301 256.507 77.9212C256.456 79.3504 256.096 79.146 255.427 79.146C252.032 79.0951 246.632 79.146 243.031 79.1973C243.083 83.1778 245.243 90.9357 256.301 86.4955L256.662 87.4649C244.472 93.2321 239.74 85.5255 239.74 79.9628ZM248.329 70.6739C245.448 70.7762 243.031 73.7363 243.031 77.7681H249.461C252.649 77.7681 253.422 77.5128 253.472 76.0841C253.576 73.6849 251.415 70.5722 248.329 70.6739Z" fill="white"/>
<path d="M267.618 88.6388L267.464 84.607H268.493C268.802 87.5163 270.139 88.5371 272.659 88.6388C275.488 88.741 277.083 85.7809 276.568 83.9438C276.105 82.2592 275.025 81.3915 272.762 80.269C269.83 78.7889 267.927 77.1558 267.772 74.4509C267.567 71.0824 270.499 67.8161 278.42 69.5001L278.677 73.0726H277.648C277.185 70.7762 276.208 70.3678 274.356 70.1638C272.813 70.0107 271.219 70.674 270.653 71.8987C269.47 74.5527 271.682 75.9819 274.46 77.5128C279.088 80.0645 279.706 82.0044 279.654 84.1477C279.5 87.618 274.356 91.6503 267.618 88.6388Z" fill="white"/>
<path d="M192.509 52.3314C192.575 52.7259 192.933 53.007 193.339 53.007C193.382 53.007 193.427 53.0038 193.471 52.9974C193.93 52.9282 194.243 52.5184 194.171 52.0817C194.17 52.0817 194.17 52.0817 194.17 52.0817C194.168 52.0675 194.166 52.0541 194.163 52.0407C194.161 52.0265 194.159 52.0125 194.157 51.9984C194.083 51.5617 193.652 51.2646 193.194 51.3344C192.735 51.4041 192.423 51.8146 192.496 52.2507C192.499 52.2648 192.501 52.2783 192.504 52.2917C192.505 52.3052 192.507 52.3186 192.509 52.3321V52.3314Z" fill="white"/>
<path d="M188.247 37.8619C188.376 37.8619 188.508 37.8471 188.631 37.8161C189.048 37.7101 189.214 37.4567 189.001 37.25C188.788 37.043 188.277 36.9609 187.86 37.0666C187.443 37.1723 187.278 37.4257 187.491 37.6327C187.64 37.7781 187.938 37.8619 188.247 37.8619Z" fill="white"/>
<path d="M284.064 57.0918H5.19202V57.5655H284.064V57.0918Z" fill="white"/>
<path d="M149.614 50.7666C148.584 50.7462 147.658 51.1177 146.987 51.7983C147.036 51.6481 147.072 51.4922 147.091 51.3318C147.25 50.0149 146.3 48.815 144.972 48.657C144.33 48.5808 143.695 48.757 143.186 49.1541C142.677 49.5511 142.354 50.1211 142.277 50.7591C142.243 51.0411 142.267 51.3196 142.329 51.5883C142.283 51.5415 142.248 51.4861 142.199 51.4417C141.459 50.7738 140.466 50.4729 139.404 50.5937C137.227 50.8419 135.421 52.8175 135.378 54.9976C135.359 55.9612 135.699 56.8213 136.308 57.4749H136.783C136.767 57.4612 136.748 57.4527 136.733 57.4387C136.065 56.8362 135.708 55.9716 135.727 55.0044C135.766 52.991 137.434 51.1666 139.444 50.9375C139.584 50.9215 139.722 50.9136 139.859 50.9136C140.661 50.9136 141.397 51.1853 141.965 51.6976C142.632 52.3002 142.99 53.1647 142.971 54.132C142.944 55.4723 142.189 56.717 141.099 57.4749H141.664C142.639 56.6434 143.294 55.4319 143.319 54.1388C143.328 53.6933 143.248 53.2744 143.116 52.8801C143.475 53.1836 143.916 53.3768 144.395 53.4338C144.494 53.4454 144.591 53.4512 144.689 53.4512C145.229 53.4512 145.75 53.2731 146.182 52.9367C146.231 52.8985 146.27 52.8516 146.315 52.8103C146.073 53.3704 145.965 53.9933 146.041 54.6516C146.168 55.7492 146.748 56.7486 147.572 57.4749H148.139C147.203 56.7955 146.521 55.7666 146.388 54.6121C146.277 53.6584 146.549 52.7701 147.154 52.1106C147.761 51.448 148.631 51.0939 149.607 51.1125C151.636 51.1519 153.475 52.8063 153.706 54.8005C153.816 55.7541 153.544 56.6425 152.94 57.302C152.88 57.3674 152.806 57.4156 152.741 57.4749H153.241C153.879 56.7467 154.171 55.7887 154.052 54.761C153.802 52.6011 151.811 50.8092 149.614 50.7666ZM146.745 51.2906C146.679 51.8368 146.402 52.3248 145.966 52.6647C145.53 53.0046 144.987 53.1556 144.437 53.0903C143.886 53.0248 143.395 52.7505 143.052 52.318C142.709 51.8854 142.557 51.3465 142.623 50.8003C142.749 49.7556 143.647 48.9858 144.682 48.9858C144.764 48.9858 144.847 48.9907 144.931 49.0006C146.067 49.1358 146.881 50.1631 146.745 51.2906Z" fill="white"/>
<path d="M156.307 38.3018C155.809 38.9825 155.608 39.8163 155.741 40.6495C155.875 41.4828 156.326 42.2139 157.012 42.7081C157.556 43.1011 158.201 43.3086 158.875 43.3086C159.893 43.3086 160.856 42.8232 161.452 42.0104C162.482 40.6028 162.166 38.6259 160.749 37.6041C160.199 37.208 159.552 37.001 158.887 37.001C158.719 37.001 158.551 37.0138 158.383 37.0405C157.544 37.1721 156.807 37.6206 156.307 38.3018ZM160.53 37.9021C161.783 38.8047 162.062 40.5504 161.151 41.7936C160.603 42.5421 159.744 42.9398 158.875 42.9398C158.303 42.9398 157.726 42.7677 157.229 42.4101C155.976 41.507 155.697 39.7613 156.608 38.5186C157.049 37.9159 157.7 37.5204 158.441 37.4038C159.184 37.2871 159.926 37.4664 160.53 37.9021Z" fill="white"/>
<path d="M169.319 49.4517C168.866 49.2226 168.375 49.1064 167.879 49.1064C167.549 49.1064 167.216 49.1583 166.893 49.2621C165.226 49.8 164.311 51.5832 164.852 53.2374C165.28 54.5413 166.496 55.4172 167.878 55.4172C168.21 55.4172 168.539 55.3653 168.858 55.2625C170.525 54.7246 171.44 52.9415 170.899 51.2872C170.637 50.4863 170.076 49.8344 169.319 49.4517ZM168.744 54.9122C168.457 55.0046 168.166 55.0483 167.879 55.0483C166.696 55.0483 165.591 54.2993 165.205 53.1239C164.727 51.6623 165.536 50.0872 167.007 49.6125C167.721 49.3823 168.484 49.4424 169.151 49.7794C169.819 50.1175 170.315 50.6929 170.547 51.4008C171.024 52.8624 170.215 54.4375 168.744 54.9122Z" fill="white"/>
<path d="M122.205 49.5873C121.88 49.4825 121.55 49.4326 121.226 49.4326C119.885 49.4326 118.635 50.2813 118.199 51.6134C117.657 53.2671 118.573 55.0498 120.24 55.5877C120.559 55.6904 120.889 55.7423 121.221 55.7423C122.604 55.7423 123.819 54.8664 124.246 53.5625C124.788 51.9083 123.872 50.1251 122.205 49.5873ZM123.893 53.4485C123.508 54.6239 122.404 55.3735 121.219 55.3735C120.933 55.3735 120.641 55.3293 120.355 55.2373C118.882 54.7626 118.074 53.1875 118.552 51.727C118.929 50.5752 120.003 49.801 121.225 49.801C121.518 49.801 121.81 49.8472 122.09 49.9376C123.562 50.4123 124.371 51.9874 123.893 53.4485Z" fill="white"/>
<path d="M128.178 37.8053C126.761 38.8276 126.445 40.804 127.475 42.2116C128.071 43.0248 129.034 43.5103 130.051 43.5103C130.725 43.5103 131.37 43.3028 131.916 42.9093C132.603 42.414 133.054 41.683 133.187 40.8507C133.32 40.0185 133.118 39.1852 132.619 38.503C132.12 37.8212 131.383 37.3733 130.544 37.2417C129.707 37.1097 128.866 37.3106 128.178 37.8053ZM130.486 37.6049C131.227 37.7216 131.878 38.1171 132.319 38.7197C132.759 39.3203 132.937 40.057 132.819 40.7927C132.702 41.5289 132.303 42.1746 131.697 42.6113C131.2 42.9694 130.622 43.142 130.05 43.142C129.181 43.142 128.323 42.7438 127.775 41.9948C126.865 40.7521 127.144 39.0059 128.397 38.1033C129 37.6676 129.74 37.4873 130.486 37.6049Z" fill="white"/>
<path d="M144.667 34.697L143.535 35.8203L144.667 36.9436L145.799 35.8203L144.667 34.697Z" fill="white"/>
<path d="M138.076 35.5403L137.276 36.916L138.662 37.7103L139.463 36.3346L138.076 35.5403Z" fill="white"/>
<path d="M124.033 44.8338L123.961 46.4209L125.561 46.4921L125.632 44.905L124.033 44.8338Z" fill="white"/>
<path d="M163.484 44.8329L163.412 46.4199L165.012 46.4911L165.083 44.904L163.484 44.8329Z" fill="white"/>
<path d="M151.249 35.5738L149.862 36.3682L150.663 37.7439L152.049 36.9496L151.249 35.5738Z" fill="white"/>
<path d="M123.834 36.9854L123.833 36.9855L123.832 36.9869L123.834 36.9854Z" fill="white"/>
<path d="M132.615 47.4069C132.7 47.4069 132.785 47.3765 132.852 47.3149C132.993 47.1854 133.002 46.9667 132.871 46.8263C132.741 46.6858 132.52 46.6768 132.379 46.8069C132.237 46.9363 132.228 47.155 132.359 47.2955C132.428 47.3695 132.521 47.4069 132.615 47.4069Z" fill="white"/>
<path d="M130.365 48.9813C130.248 49.132 130.275 49.3494 130.427 49.467C130.49 49.5161 130.566 49.5397 130.641 49.5397C130.745 49.5397 130.847 49.494 130.916 49.4061C131.034 49.2553 131.007 49.038 130.855 48.9203C130.703 48.8034 130.484 48.8304 130.365 48.9813Z" fill="white"/>
<path d="M161.195 53.8861C161.013 53.9491 160.916 54.1456 160.98 54.3263C161.029 54.4695 161.165 54.5594 161.309 54.5594C161.347 54.5594 161.386 54.5533 161.423 54.5408C161.605 54.4778 161.702 54.2813 161.639 54.1007C161.576 53.92 161.377 53.8239 161.195 53.8861Z" fill="white"/>
<path d="M158.528 49.4942C158.603 49.4942 158.679 49.4701 158.742 49.4202C158.894 49.3025 158.921 49.0853 158.802 48.9344C158.684 48.7842 158.465 48.7573 158.313 48.8756C158.162 48.9933 158.134 49.2106 158.253 49.3613C158.322 49.4486 158.424 49.4942 158.528 49.4942Z" fill="white"/>
<path d="M154.534 45.4346C154.639 45.2741 154.593 45.0602 154.432 44.9557C154.271 44.8513 154.054 44.8962 153.949 45.0568C153.844 45.2166 153.89 45.4311 154.051 45.5356C154.109 45.5737 154.176 45.5917 154.241 45.5917C154.355 45.5917 154.467 45.5363 154.534 45.4346Z" fill="white"/>
<path d="M151.353 43.7312C151.276 43.9063 151.356 44.1098 151.533 44.1866H151.533C151.579 44.206 151.626 44.2156 151.672 44.2156C151.807 44.2156 151.935 44.1382 151.992 44.008C152.07 43.8329 151.989 43.6288 151.812 43.5527C151.636 43.4759 151.43 43.5555 151.353 43.7312Z" fill="white"/>
<path d="M160.298 51.8706C160.466 51.7792 160.528 51.5688 160.436 51.4013C160.344 51.2332 160.133 51.1716 159.964 51.2629C159.794 51.3543 159.732 51.5646 159.824 51.7322C159.888 51.8477 160.007 51.9127 160.131 51.9127C160.187 51.9127 160.245 51.8989 160.298 51.8706Z" fill="white"/>
<path d="M156.546 47.3675C156.641 47.3675 156.735 47.3302 156.804 47.2555C156.934 47.115 156.924 46.8956 156.783 46.7669C156.64 46.6375 156.42 46.6472 156.29 46.7877C156.16 46.9289 156.169 47.1475 156.311 47.2762V47.2769C156.378 47.3378 156.463 47.3675 156.546 47.3675Z" fill="white"/>
<path d="M161.972 56.6777C161.782 56.7095 161.654 56.8874 161.686 57.0763C161.715 57.2452 161.862 57.3649 162.029 57.3649C162.049 57.3649 162.068 57.3635 162.088 57.36C162.278 57.3282 162.406 57.1497 162.374 56.9614C162.342 56.7732 162.162 56.6459 161.972 56.6777Z" fill="white"/>
<path d="M129.045 51.9646C129.169 51.9646 129.289 51.8988 129.352 51.7833C129.444 51.6151 129.38 51.4047 129.211 51.3141C129.042 51.2234 128.83 51.2857 128.739 51.4538C128.647 51.622 128.71 51.8317 128.88 51.9231C128.932 51.9507 128.989 51.9646 129.045 51.9646Z" fill="white"/>
<path d="M128.205 54.3847C128.267 54.2041 128.17 54.0076 127.988 53.9453C127.806 53.8837 127.608 53.9806 127.545 54.1612C127.483 54.3418 127.58 54.5384 127.763 54.6006C127.799 54.6131 127.838 54.6193 127.875 54.6193C128.02 54.6193 128.156 54.5286 128.205 54.3847Z" fill="white"/>
<path d="M127.509 57.1383V57.1367L127.509 57.1371L127.509 57.1383Z" fill="white"/>
<path d="M140.573 42.8641C140.525 42.6793 140.335 42.5672 140.149 42.6143C139.962 42.6613 139.849 42.8495 139.896 43.035C139.937 43.1914 140.078 43.2951 140.234 43.2951C140.262 43.2951 140.292 43.2917 140.32 43.2848C140.507 43.2377 140.62 43.0495 140.573 42.8641Z" fill="white"/>
<path d="M143.141 42.8155C143.333 42.7995 143.475 42.6328 143.459 42.4425C143.443 42.2522 143.275 42.1103 143.083 42.1262C142.891 42.1421 142.749 42.3096 142.765 42.4999C142.78 42.6805 142.932 42.8169 143.112 42.8169C143.122 42.8169 143.132 42.8169 143.141 42.8162V42.8155H143.141Z" fill="white"/>
<path d="M145.682 42.4388C145.667 42.6291 145.81 42.7959 146.002 42.8111C146.011 42.8117 146.021 42.8125 146.03 42.8125C146.21 42.8125 146.363 42.6748 146.377 42.4941C146.393 42.3031 146.25 42.1364 146.058 42.1218C146.058 42.1211 146.058 42.1211 146.058 42.1211C145.866 42.1066 145.697 42.2485 145.682 42.4388Z" fill="white"/>
<path d="M148.91 43.2799C149.066 43.2799 149.208 43.1755 149.248 43.0184C149.294 42.8329 149.181 42.6447 148.994 42.5983C148.807 42.5519 148.618 42.6647 148.571 42.8502C148.524 43.0356 148.638 43.2232 148.825 43.2695C148.853 43.2772 148.882 43.2799 148.91 43.2799Z" fill="white"/>
<path d="M127.221 56.739C127.031 56.7079 126.852 56.8359 126.82 57.0242C126.789 57.2131 126.918 57.3909 127.108 57.4221C127.127 57.4248 127.146 57.4269 127.165 57.4269C127.332 57.4269 127.481 57.3067 127.509 57.1364C127.54 56.9477 127.411 56.7702 127.221 56.739Z" fill="white"/>
<path d="M137.157 44.0336C137.215 44.1629 137.342 44.2398 137.476 44.2398C137.523 44.2398 137.571 44.2301 137.616 44.21H137.617C137.793 44.1332 137.873 43.9291 137.795 43.754C137.717 43.5796 137.511 43.5 137.335 43.5775C137.159 43.6543 137.079 43.8585 137.157 44.0336Z" fill="white"/>
<path d="M134.622 45.4676C134.689 45.5686 134.8 45.6233 134.914 45.6233C134.98 45.6233 135.046 45.6053 135.105 45.5665C135.266 45.462 135.311 45.2475 135.205 45.0877C135.099 44.9278 134.883 44.8836 134.722 44.9887C134.723 44.9887 134.723 44.9887 134.723 44.9887C134.562 45.0932 134.516 45.3077 134.622 45.4676Z" fill="white"/>
<path d="M142.238 29.7178H141.889C141.889 30.9949 142.937 32.034 144.224 32.034C145.511 32.034 146.558 30.9949 146.558 29.7178H146.209C146.209 30.8041 145.319 31.688 144.224 31.688C143.129 31.688 142.238 30.8041 142.238 29.7178Z" fill="white"/>
<path d="M136.34 30.7561L135.998 30.8236C136.12 31.4304 136.472 31.954 136.991 32.2977C137.379 32.5552 137.826 32.6888 138.283 32.6888C138.436 32.6888 138.59 32.6738 138.743 32.6436C139.354 32.5228 139.882 32.173 140.228 31.6587C140.575 31.1442 140.699 30.5267 140.577 29.9199L140.235 29.9874C140.338 30.5036 140.233 31.0288 139.939 31.4664C139.644 31.904 139.195 32.2015 138.675 32.3042C137.601 32.5162 136.554 31.8217 136.34 30.7561Z" fill="white"/>
<path d="M130.76 32.9167L130.438 33.0491C130.676 33.6207 131.125 34.0659 131.701 34.3027C131.989 34.421 132.292 34.4802 132.594 34.4802C132.897 34.4802 133.199 34.421 133.488 34.3026C134.064 34.0659 134.512 33.6207 134.751 33.0491C134.989 32.4775 134.989 31.848 134.751 31.2764L134.429 31.4087C134.632 31.895 134.632 32.4305 134.429 32.9167C134.226 33.4029 133.844 33.7816 133.354 33.983C132.343 34.3987 131.179 33.9204 130.76 32.9167Z" fill="white"/>
<path d="M126.975 36.9526C126.455 36.8499 126.006 36.5524 125.711 36.1148L125.421 36.3071C125.768 36.8215 126.295 37.1713 126.907 37.292C127.06 37.3222 127.214 37.3372 127.367 37.3372C127.824 37.3372 128.271 37.2036 128.659 36.9461C129.178 36.6024 129.53 36.0789 129.652 35.4721C129.773 34.8653 129.65 34.2478 129.303 33.7334L129.013 33.9257C129.308 34.3632 129.413 34.8885 129.31 35.4046C129.206 35.9208 128.906 36.366 128.465 36.6584C128.025 36.9507 127.495 37.0553 126.975 36.9526Z" fill="white"/>
<path d="M122.793 41.1532C123.417 41.1532 124.003 40.9123 124.444 40.4748C125.354 39.5717 125.354 38.1023 124.444 37.1992L124.197 37.4438C124.971 38.212 124.971 39.462 124.197 40.2301C123.822 40.6023 123.323 40.8072 122.793 40.8072C122.263 40.8072 121.764 40.6023 121.389 40.2301L121.142 40.4748C121.583 40.9123 122.17 41.1532 122.793 41.1532Z" fill="white"/>
<path d="M117.959 45.1021L117.765 45.3898C118.162 45.6534 118.613 45.7795 119.058 45.7795C119.812 45.7795 120.553 45.4183 121.003 44.7508C121.349 44.2363 121.473 43.6189 121.351 43.0121C121.229 42.4053 120.877 41.8818 120.359 41.5381L120.165 41.8258C120.606 42.1182 120.906 42.5634 121.009 43.0796C121.113 43.5957 121.007 44.121 120.713 44.5585C120.104 45.4619 118.869 45.7056 117.959 45.1021Z" fill="white"/>
<path d="M115.419 50.8647C115.71 50.9844 116.012 51.041 116.309 51.041C117.225 51.041 118.097 50.5022 118.469 49.6112C118.707 49.0396 118.707 48.41 118.469 47.8384C118.23 47.2668 117.781 46.8217 117.205 46.585L117.072 46.9046C117.562 47.106 117.944 47.4846 118.147 47.9708C118.349 48.4571 118.349 48.9926 118.147 49.4788C117.727 50.4824 116.564 50.9607 115.552 50.5451L115.419 50.8647Z" fill="white"/>
<path d="M115.105 52.1455L115.037 52.4849C115.557 52.5876 116.006 52.8851 116.301 53.3227C116.595 53.7602 116.7 54.2855 116.597 54.8016C116.494 55.3178 116.194 55.763 115.753 56.0554C115.312 56.3478 114.782 56.4523 114.262 56.3496L114.194 56.689C114.347 56.7192 114.501 56.7342 114.654 56.7342C115.111 56.7342 115.558 56.6006 115.946 56.3431C116.465 55.9994 116.817 55.4759 116.939 54.8691C117.061 54.2624 116.937 53.6448 116.59 53.1304C116.244 52.616 115.717 52.2662 115.105 52.1455Z" fill="white"/>
<path d="M173.304 55.3181C172.863 55.0257 172.564 54.5805 172.46 54.0643C172.357 53.5481 172.462 53.0229 172.757 52.5853C173.051 52.1477 173.5 51.8502 174.02 51.7475L173.952 51.4082C173.341 51.5289 172.813 51.8787 172.467 52.3931C172.12 52.9075 171.996 53.525 172.118 54.1318C172.24 54.7386 172.592 55.2621 173.111 55.6057C173.499 55.8633 173.946 55.9968 174.403 55.9968C174.556 55.9968 174.71 55.9819 174.863 55.9516L174.795 55.6122C174.274 55.715 173.745 55.6104 173.304 55.3181Z" fill="white"/>
<path d="M170.446 47.1441C170.208 47.7157 170.208 48.3453 170.446 48.9169C170.818 49.808 171.689 50.3468 172.606 50.3467C172.903 50.3467 173.205 50.2901 173.496 50.1704L173.363 49.8508C172.351 50.2664 171.187 49.7881 170.768 48.7845C170.565 48.2983 170.565 47.7627 170.768 47.2766C170.971 46.7903 171.353 46.4117 171.843 46.2103L171.71 45.8906C171.134 46.1273 170.685 46.5725 170.446 47.1441Z" fill="white"/>
<path d="M167.433 42.387C167.311 42.9938 167.435 43.6113 167.781 44.1257C168.128 44.6402 168.655 44.9899 169.267 45.1106C169.42 45.1409 169.574 45.1558 169.727 45.1558C170.184 45.1558 170.631 45.0223 171.019 44.7648L170.825 44.4771C170.384 44.7694 169.855 44.874 169.335 44.7713C168.815 44.6686 168.366 44.3711 168.071 43.9335C167.776 43.496 167.671 42.9707 167.775 42.4545C167.878 41.9384 168.178 41.4932 168.619 41.2008L168.425 40.9131C167.907 41.2568 167.554 41.7803 167.433 42.387Z" fill="white"/>
<path d="M164.226 39.9426C164.681 40.3941 165.278 40.6199 165.876 40.6199C166.474 40.6199 167.072 40.3941 167.527 39.9426L167.28 39.698C166.506 40.4661 165.246 40.4662 164.472 39.698C163.698 38.9297 163.698 37.6798 164.472 36.9117L164.226 36.667C163.315 37.5701 163.315 39.0395 164.226 39.9426Z" fill="white"/>
<path d="M158.923 35.0551C159.045 35.6619 159.397 36.1854 159.916 36.5291C160.304 36.7867 160.751 36.9202 161.208 36.9202C161.361 36.9202 161.515 36.9052 161.668 36.875C162.279 36.7543 162.807 36.4045 163.153 35.8901L162.863 35.6978C162.569 36.1354 162.12 36.433 161.6 36.5356C161.08 36.6383 160.55 36.5338 160.109 36.2414C159.668 35.949 159.368 35.5038 159.265 34.9876C159.162 34.4715 159.267 33.9462 159.562 33.5087L159.272 33.3164C158.925 33.8308 158.801 34.4484 158.923 35.0551Z" fill="white"/>
<path d="M153.754 30.9883C153.515 31.5598 153.515 32.1894 153.754 32.761C153.993 33.3326 154.441 33.7777 155.017 34.0145C155.305 34.1329 155.608 34.1921 155.911 34.1921C156.213 34.1921 156.516 34.1329 156.804 34.0145C157.38 33.7777 157.829 33.3326 158.067 32.761L157.745 32.6286C157.542 33.1148 157.16 33.4934 156.67 33.6948C156.18 33.8962 155.641 33.8962 155.151 33.6948C154.661 33.4934 154.279 33.1148 154.076 32.6286C153.873 32.1424 153.873 31.6068 154.076 31.1206L153.754 30.9883Z" fill="white"/>
<path d="M147.885 29.7734C147.763 30.3802 147.887 30.9977 148.233 31.5122C148.58 32.0266 149.107 32.3763 149.719 32.4971C149.872 32.5273 150.026 32.5423 150.179 32.5423C150.636 32.5422 151.083 32.4087 151.471 32.1512C151.989 31.8074 152.342 31.284 152.464 30.6772L152.122 30.6097C152.018 31.1258 151.718 31.5711 151.277 31.8635C150.836 32.1558 150.307 32.2604 149.787 32.1577C149.267 32.055 148.818 31.7575 148.523 31.3199C148.229 30.8823 148.123 30.3571 148.227 29.8409L147.885 29.7734Z" fill="white"/>
<path d="M144.562 39.3008C143.412 39.3008 142.436 40.1904 142.339 41.3261L142.687 41.3553C142.768 40.3972 143.592 39.6468 144.562 39.6468C145.532 39.6468 146.356 40.3972 146.438 41.3553L146.785 41.3261C146.688 40.1904 145.712 39.3008 144.562 39.3008Z" fill="white"/>
<path d="M139.179 40.0148C138.068 40.31 137.357 41.42 137.56 42.5419L137.903 42.4809C137.732 41.5345 138.332 40.5981 139.269 40.349C140.206 40.0998 141.197 40.6132 141.526 41.5176L141.854 41.4001C141.464 40.328 140.289 39.7196 139.179 40.0148Z" fill="white"/>
<path d="M133.26 44.9437L133.576 44.7966C133.164 43.9264 133.499 42.8678 134.339 42.3867C135.179 41.9054 136.27 42.1466 136.824 42.9358L137.11 42.7381C136.454 41.8027 135.16 41.5166 134.165 42.087C133.169 42.6573 132.772 43.9121 133.26 44.9437Z" fill="white"/>
<path d="M132.652 45.5132L132.877 45.2488C131.999 44.5138 130.675 44.5698 129.862 45.3763C129.049 46.1829 128.993 47.497 129.733 48.368L130 48.1449C129.375 47.4101 129.423 46.3015 130.109 45.621C130.794 44.9405 131.912 44.8932 132.652 45.5132Z" fill="white"/>
<path d="M129.295 49.0737L129.443 48.7605C128.403 48.2759 127.139 48.6702 126.564 49.658C125.989 50.6459 126.277 51.9297 127.22 52.5808L127.419 52.2968C126.624 51.7476 126.381 50.6645 126.866 49.8311C127.351 48.9976 128.418 48.665 129.295 49.0737Z" fill="white"/>
<path d="M126.98 53.3757L127.042 53.0351C125.912 52.8343 124.793 53.5395 124.495 54.6414C124.198 55.7432 124.811 56.9093 125.891 57.296L126.01 56.9705C125.098 56.6442 124.581 55.6605 124.832 54.7309C125.083 53.8013 126.027 53.2059 126.98 53.3757Z" fill="white"/>
<path d="M162.143 52.9577L162.202 53.2986C163.179 53.1312 164.103 53.7134 164.352 54.6529C164.603 55.6001 164.096 56.5633 163.174 56.8934L163.293 57.2188C164.386 56.8276 164.986 55.6866 164.689 54.565C164.394 53.4506 163.299 52.7594 162.143 52.9577Z" fill="white"/>
<path d="M161.745 52.2275L161.944 52.5115C162.887 51.8604 163.175 50.5765 162.601 49.5887C162.026 48.6008 160.761 48.2066 159.722 48.6912L159.87 49.0044C160.747 48.5956 161.814 48.9282 162.299 49.7617C162.784 50.5951 162.541 51.6782 161.745 52.2275Z" fill="white"/>
<path d="M159.039 45.5643C159.725 46.2449 159.773 47.3536 159.148 48.0883L159.415 48.3115C160.155 47.4405 160.099 46.1263 159.286 45.3196C158.473 44.5132 157.149 44.4571 156.271 45.1922L156.496 45.4566C157.236 44.8365 158.354 44.8839 159.039 45.5643Z" fill="white"/>
<path d="M152.025 42.698L152.311 42.8957C152.865 42.1065 153.956 41.8655 154.796 42.3466C155.636 42.8278 155.971 43.8864 155.559 44.7566L155.875 44.9037C156.363 43.8721 155.966 42.6173 154.97 42.0469C153.975 41.4766 152.681 41.7627 152.025 42.698Z" fill="white"/>
<path d="M147.273 41.3796L147.601 41.497C147.93 40.5927 148.921 40.079 149.858 40.3285C150.795 40.5776 151.395 41.5139 151.224 42.4603L151.567 42.5214C151.77 41.3995 151.059 40.2894 149.948 39.9942C148.838 39.6992 147.663 40.3075 147.273 41.3796Z" fill="white"/>
<path d="M122.247 17.1848C122.353 17.1848 122.462 17.1604 122.563 17.109C122.906 16.9357 123.042 16.5188 122.867 16.1784C122.692 15.8379 122.272 15.7028 121.929 15.8766C121.586 16.0499 121.449 16.4668 121.625 16.8072C121.748 17.047 121.993 17.1848 122.247 17.1848Z" fill="white"/>
<path d="M166.566 17.0795C166.667 17.1304 166.775 17.1547 166.882 17.1547C167.136 17.1547 167.381 17.0163 167.504 16.7766C167.679 16.4361 167.542 16.0193 167.199 15.846C166.856 15.6727 166.435 15.8078 166.261 16.1483C166.086 16.4888 166.223 16.9056 166.566 17.0795Z" fill="white"/>
<path d="M95.3449 52.2356C95.2847 52.6131 95.5446 52.9675 95.9251 53.0273C95.9619 53.0328 95.9983 53.0356 96.0345 53.0356C96.3715 53.0356 96.6683 52.7925 96.7225 52.4509C96.7827 52.0734 96.5227 51.7196 96.1422 51.6598C95.7617 51.6006 95.4046 51.858 95.3449 52.2356Z" fill="white"/>
<path d="M152.252 12.4429C152.59 12.4429 152.886 12.1994 152.94 11.8584C153 11.4808 152.74 11.1265 152.359 11.0672C151.979 11.0074 151.622 11.2654 151.562 11.6435C151.502 12.0211 151.762 12.3748 152.143 12.4341C152.18 12.4402 152.217 12.4429 152.252 12.4429Z" fill="white"/>
<path d="M109.327 24.9877C109.054 25.2583 109.055 25.6963 109.328 25.9664C109.464 26.1009 109.642 26.168 109.82 26.168C109.999 26.168 110.178 26.1004 110.314 25.9648C110.586 25.694 110.585 25.2562 110.313 24.986C110.04 24.7163 109.598 24.7169 109.327 24.9877Z" fill="white"/>
<path d="M179.334 26.1122C179.513 26.1122 179.692 26.0447 179.828 25.9091C180.1 25.6384 180.099 25.1999 179.826 24.9303C179.554 24.6607 179.112 24.6613 178.84 24.932C178.568 25.2027 178.569 25.6411 178.842 25.9107H178.842C178.978 26.0453 179.156 26.1122 179.334 26.1122Z" fill="white"/>
<path d="M100.166 37.5137C99.9914 37.8542 100.128 38.2705 100.471 38.4444C100.572 38.4958 100.68 38.5196 100.787 38.5202C101.041 38.5202 101.286 38.3818 101.409 38.1421C101.584 37.8016 101.448 37.3848 101.105 37.2115C100.761 37.0376 100.341 37.1733 100.166 37.5137Z" fill="white"/>
<path d="M136.761 11.0946C136.381 11.1549 136.122 11.5098 136.183 11.8873C136.237 12.2272 136.534 12.4702 136.87 12.4702C136.907 12.4702 136.944 12.4675 136.981 12.4614C137.361 12.4016 137.621 12.0468 137.56 11.6692C137.499 11.2917 137.142 11.0348 136.762 11.0946C136.761 11.0946 136.761 11.0946 136.761 11.0946Z" fill="white"/>
<path d="M151.05 49.7997C150.92 49.9894 150.969 50.2475 151.16 50.3762C151.232 50.4253 151.314 50.4482 151.395 50.4482C151.529 50.4482 151.66 50.3852 151.741 50.2668C151.872 50.0773 151.822 49.8191 151.631 49.6904C151.44 49.561 151.18 49.6102 151.05 49.7997Z" fill="white"/>
<path d="M154.93 53.7118C154.729 53.8246 154.658 54.0771 154.771 54.2772C154.847 54.4128 154.99 54.4889 155.136 54.4889C155.205 54.4889 155.276 54.4716 155.34 54.4356C155.542 54.3228 155.613 54.0696 155.5 53.8695C155.387 53.6703 155.131 53.599 154.93 53.7118Z" fill="white"/>
<path d="M153.218 51.5341C153.047 51.6892 153.036 51.9514 153.192 52.121C153.275 52.2096 153.388 52.2552 153.501 52.2552C153.602 52.2552 153.704 52.2186 153.784 52.1459C153.954 51.9902 153.965 51.728 153.809 51.5591C153.653 51.3902 153.388 51.3792 153.218 51.5341Z" fill="white"/>
<path d="M140.73 49.0048C140.774 49.0048 140.819 48.9971 140.863 48.9826C141.082 48.9093 141.2 48.6733 141.126 48.456C141.052 48.2387 140.815 48.1224 140.596 48.1958C140.377 48.2692 140.259 48.5051 140.333 48.7224C140.392 48.8954 140.555 49.0048 140.73 49.0048Z" fill="white"/>
<path d="M146.177 48.4799C146.196 48.4826 146.215 48.484 146.234 48.484C146.439 48.484 146.619 48.3324 146.648 48.1242C146.679 47.8965 146.517 47.6875 146.289 47.6571C146.06 47.6266 145.849 47.7857 145.818 48.0127C145.787 48.2404 145.948 48.4494 146.177 48.4799Z" fill="white"/>
<path d="M143.45 48.4285C143.464 48.4285 143.477 48.4278 143.49 48.4264C143.72 48.405 143.889 48.2023 143.867 47.9738C143.846 47.7455 143.641 47.578 143.411 47.5995C143.411 47.6002 143.411 47.6002 143.411 47.6002C143.182 47.6216 143.013 47.8237 143.035 48.0521C143.055 48.2672 143.237 48.4285 143.45 48.4285Z" fill="white"/>
<path d="M148.78 49.1398C148.829 49.1585 148.88 49.1674 148.93 49.1674C149.098 49.1674 149.257 49.0657 149.32 48.901C149.403 48.6872 149.296 48.4464 149.08 48.3647C148.864 48.2824 148.622 48.3889 148.539 48.6035C148.456 48.8173 148.564 49.0574 148.78 49.1398Z" fill="white"/>
<path d="M134.535 53.3071C134.338 53.1867 134.081 53.2469 133.959 53.4421C133.838 53.6379 133.898 53.8932 134.095 54.0137C134.163 54.0558 134.24 54.0759 134.315 54.0759C134.455 54.0759 134.592 54.0053 134.671 53.8787C134.793 53.6836 134.732 53.4275 134.535 53.3071Z" fill="white"/>
<path d="M156.095 56.2212C155.873 56.2849 155.745 56.5153 155.809 56.7354C155.861 56.9174 156.029 57.0357 156.211 57.0357C156.249 57.0357 156.288 57.0302 156.326 57.0191C156.549 56.9561 156.677 56.7257 156.613 56.5057C156.549 56.2849 156.317 56.1582 156.095 56.2212Z" fill="white"/>
<path d="M135.742 51.1997C135.579 51.3616 135.58 51.6245 135.744 51.7865C135.825 51.8675 135.932 51.9076 136.039 51.9076C136.146 51.9076 136.254 51.8668 136.336 51.7851C136.498 51.6225 136.498 51.3595 136.334 51.1976C136.171 51.0363 135.906 51.037 135.742 51.1997Z" fill="white"/>
<path d="M137.993 49.4182C137.797 49.54 137.737 49.7961 137.86 49.9905C137.938 50.1164 138.075 50.1856 138.215 50.1856C138.291 50.1856 138.367 50.1656 138.436 50.1227C138.632 50.0016 138.692 49.7455 138.57 49.5511C138.447 49.3566 138.189 49.2971 137.993 49.4182Z" fill="white"/>
<path d="M133.269 55.7682C133.05 55.6963 132.813 55.8139 132.74 56.0312C132.667 56.2485 132.785 56.4838 133.005 56.5564C133.049 56.5709 133.094 56.5779 133.137 56.5779C133.313 56.5779 133.476 56.4671 133.534 56.2934C133.607 56.0755 133.488 55.8409 133.269 55.7682Z" fill="white"/>
<path d="M133.231 54.1984L129.505 52.3086C129.444 52.4269 129.383 52.5485 129.324 52.6699L133.095 54.4688C133.139 54.378 133.184 54.2879 133.231 54.1984Z" fill="white"/>
<path d="M155.141 46.7803L152.537 50.0303C152.617 50.093 152.695 50.1567 152.773 50.2213L155.455 47.0339C155.352 46.9487 155.247 46.8634 155.141 46.7803Z" fill="white"/>
<path d="M147.42 47.5944C147.52 47.6166 147.618 47.6399 147.717 47.6644L148.734 43.6367C148.604 43.6044 148.471 43.5732 148.34 43.5439L147.42 47.5944Z" fill="white"/>
<path d="M156.219 54.7014L160.026 52.9771C159.97 52.8559 159.913 52.7344 159.855 52.6162L156.09 54.4277C156.134 54.5184 156.177 54.6096 156.219 54.7014Z" fill="white"/>
<path d="M144.576 47.2859L144.603 47.2858C144.697 47.2858 144.791 47.2868 144.885 47.2889L144.975 43.1378C144.851 43.1351 144.727 43.1338 144.602 43.1338L144.576 43.1339V47.2859H144.576Z" fill="white"/>
<path d="M131.341 49.4804L134.614 52.0672C134.678 51.9884 134.742 51.9104 134.807 51.8332L131.597 49.1689C131.512 49.2701 131.426 49.3749 131.341 49.4804Z" fill="white"/>
<path d="M140.805 43.5577L141.74 47.6047C141.838 47.5824 141.937 47.5611 142.036 47.5411L141.201 43.4727C141.069 43.4994 140.935 43.528 140.805 43.5577Z" fill="white"/>
<path d="M139.323 48.4165L137.591 44.6367C137.469 44.6918 137.346 44.7492 137.224 44.8074L139.049 48.5439C139.14 48.5004 139.231 48.4579 139.323 48.4165Z" fill="white"/>
<path d="M136.873 49.8717L134.337 46.5693C134.23 46.6501 134.123 46.7332 134.018 46.8166L136.634 50.0571C136.713 49.9944 136.793 49.9326 136.873 49.8717Z" fill="white"/>
<path d="M158.076 49.7501C157.994 49.6439 157.911 49.5381 157.828 49.4355L154.563 52.0328C154.627 52.1117 154.69 52.1913 154.751 52.2717L158.076 49.7501Z" fill="white"/>
<path d="M151.926 44.7812L150.116 48.5245C150.208 48.5684 150.299 48.6134 150.39 48.6593L152.289 44.9591C152.167 44.8977 152.045 44.838 151.926 44.7812Z" fill="white"/>
<path d="M157.038 57.098C157.061 57.1958 157.082 57.2939 157.102 57.3925L161.202 56.561C161.175 56.4299 161.146 56.2977 161.116 56.168L157.038 57.098Z" fill="white"/>
<path d="M128.075 56.2273L132.157 57.1424C132.179 57.0441 132.203 56.9462 132.228 56.8487L128.169 55.8369C128.136 55.9666 128.105 56.098 128.075 56.2273Z" fill="white"/>
<path d="M203.83 57.4547C202.519 26.2378 176.628 1.14404 144.809 0.943591C112.856 0.742306 86.5601 25.7174 85.0488 57.1003L85.4217 57.1027C85.473 56.082 85.5435 55.0663 85.6452 54.0594L111.917 56.7685L111.953 56.4243L85.6739 53.7144C85.9536 51.0988 86.4205 48.5398 87.0361 46.0382L95.0948 48.0116L95.1617 47.7428L87.1008 45.7688C87.5378 44.0288 88.0552 42.3215 88.6453 40.6467C89.1245 40.2102 89.6107 39.9083 90.1387 40.0844H90.1392C90.8935 40.3332 91.009 41.2992 91.1314 42.3223C91.2601 43.4015 91.3923 44.5177 92.3471 44.8319C93.2988 45.1477 94.0786 44.3332 94.8323 43.5437C95.549 42.7925 96.2183 42.0893 96.9789 42.3371C97.7348 42.5864 97.8497 43.5519 97.9716 44.5745C98.1003 45.6547 98.2335 46.7709 99.1878 47.0852C100.141 47.3984 100.918 46.5895 101.669 45.8015C102.388 45.0483 103.061 44.3441 103.82 44.5903C104.575 44.8396 104.69 45.8052 104.812 46.8278C104.942 47.9085 105.074 49.0241 106.029 49.3384C106.985 49.6552 107.762 48.8386 108.515 48.0497L108.531 48.0328C109.14 47.3955 109.72 46.7888 110.353 46.7928C110.455 46.7934 110.557 46.8095 110.661 46.8441C111.417 47.0929 111.533 48.0599 111.655 49.0841C111.784 50.1628 111.917 51.2774 112.871 51.5922L112.921 51.6089L113.025 51.2993L112.975 51.2825C112.219 51.0332 112.103 50.0661 111.982 49.042C111.852 47.9633 111.719 46.8482 110.765 46.5344C109.809 46.2176 109.031 47.0347 108.278 47.8237C107.563 48.5718 106.887 49.2781 106.133 49.0288C105.377 48.7795 105.262 47.8129 105.14 46.7893C105.011 45.7101 104.878 44.5949 103.924 44.2807C102.968 43.9613 102.195 44.7758 101.444 45.5633C100.722 46.3165 100.052 47.0223 99.2918 46.7755C98.5359 46.5262 98.4209 45.5607 98.2991 44.5381C98.1703 43.4574 98.0371 42.3417 97.0829 42.0275C96.1296 41.7122 95.3503 42.5288 94.5956 43.3177C93.883 44.0628 93.2085 44.7655 92.4516 44.5228C91.6952 44.273 91.5802 43.3065 91.4583 42.2833C91.3296 41.2042 91.1964 40.089 90.2426 39.7748C89.7929 39.6261 89.3429 39.7295 88.8456 40.0723C89.1858 39.1384 89.5475 38.215 89.9334 37.3037L97.5832 40.5044L97.6916 40.2494L90.0376 37.0469C90.9522 34.9155 91.9982 32.8544 93.151 30.861L116.027 43.931L116.201 43.6312L93.3269 30.5622C93.7871 29.777 94.2646 29.0037 94.76 28.2422L116.911 42.4793L117.101 42.1889L94.9502 27.9521C95.5384 27.0595 96.1484 26.1829 96.7834 25.3248L103.451 30.1958L103.616 29.9729L96.9466 25.1003C97.4103 24.4798 97.8892 23.872 98.3766 23.2706L118.902 39.7233L119.121 39.4541L98.5938 23C99.1712 22.2961 99.765 21.6068 100.374 20.9305L120.003 38.4265L120.236 38.1692L100.604 20.6705C102.361 18.742 104.248 16.9352 106.246 15.2523L111.581 21.5311L111.795 21.3527L106.458 15.0723C108.749 13.1604 111.184 11.4142 113.75 9.86038L118.042 16.909L118.28 16.7659L113.986 9.71237C115.97 8.52412 118.035 7.45954 120.161 6.50503L130.933 30.4384L131.252 30.2973L120.479 6.36428C121.313 5.99566 122.157 5.64592 123.011 5.31511L132.508 29.7792L132.834 29.6548L123.336 5.19001C124.337 4.80908 125.349 4.45294 126.375 4.1254L128.895 11.9913L129.161 11.9074L126.64 4.03819C127.38 3.80557 128.129 3.59226 128.881 3.38823L135.751 28.7105L136.088 28.6206L129.217 3.29563C130.099 3.06229 130.988 2.85052 131.885 2.65722L137.411 28.3039L137.752 28.2316L132.225 2.58134C134.763 2.05006 137.361 1.68651 140.006 1.49111L140.606 9.72337L140.884 9.70341L140.284 1.4718C141.779 1.36838 143.284 1.30183 144.806 1.31143C145.081 1.31316 145.352 1.33182 145.627 1.33727C146.217 1.66375 146.675 2.03705 146.671 2.59643C146.666 3.38655 145.777 3.79297 144.836 4.22372C143.839 4.67981 142.811 5.15009 142.804 6.14775C142.798 7.14592 143.82 7.62911 144.809 8.09617C145.747 8.54031 146.631 8.9579 146.626 9.748C146.621 10.5381 145.732 10.9445 144.79 11.3753C143.793 11.8314 142.765 12.3017 142.759 13.2998C142.752 14.2975 143.774 14.7807 144.763 15.2477C145.701 15.6919 146.585 16.1095 146.58 16.9001C146.575 17.6902 145.686 18.0966 144.744 18.5274C143.747 18.9835 142.719 19.4537 142.713 20.4519C142.707 21.4501 143.729 21.9333 144.717 22.4003C145.656 22.8445 146.539 23.2621 146.534 24.0527C146.529 24.8433 145.639 25.2502 144.697 25.6815C143.702 26.1366 142.674 26.6069 142.667 27.605L142.667 27.6574L142.996 27.6595L142.996 27.6071C143.001 26.817 143.892 26.4101 144.834 25.9788C145.83 25.5227 146.857 25.0524 146.864 24.0548C146.87 23.0571 145.848 22.5734 144.86 22.1058C143.921 21.6622 143.037 21.2441 143.042 20.454C143.047 19.6639 143.937 19.257 144.88 18.8257C145.876 18.3696 146.903 17.8993 146.909 16.9022C146.916 15.9045 145.895 15.4213 144.906 14.9538C143.967 14.5096 143.082 14.0915 143.087 13.3019C143.092 12.5118 143.983 12.1049 144.926 11.6736C145.922 11.218 146.949 10.7477 146.955 9.75009C146.961 8.75295 145.94 8.26976 144.952 7.80219C144.012 7.35805 143.128 6.93994 143.133 6.14983C143.138 5.36075 144.029 4.9533 144.971 4.52204C145.967 4.06646 146.994 3.59617 147.001 2.59852C147.004 2.12031 146.76 1.72293 146.265 1.35737C147.276 1.3882 148.279 1.44384 149.276 1.52461L148.57 9.75185L148.848 9.7753L149.554 1.54742C151.895 1.74801 154.2 2.07162 156.455 2.53593L150.985 28.2163L151.327 28.2878L156.797 2.60429C157.695 2.7947 158.585 3.00485 159.468 3.2353L152.65 28.6014L152.987 28.6906L159.804 3.3284C160.673 3.56095 161.536 3.80823 162.389 4.07877L159.706 12.0998L159.971 12.187L162.653 4.16937C163.564 4.4632 164.466 4.77757 165.357 5.11359L155.907 29.6281L156.232 29.7518L165.681 5.24278C166.536 5.571 167.383 5.91636 168.218 6.2824L157.49 30.267L157.809 30.4073L168.535 6.42715C170.937 7.49662 173.26 8.71047 175.48 10.0763L171.081 17.0985L171.318 17.2447L175.714 10.2273C178.263 11.8124 180.678 13.5886 182.947 15.5288L177.508 21.7667L177.719 21.9478L183.156 15.7115C184.911 17.2263 186.581 18.8352 188.145 20.5424L168.524 38.1133L168.758 38.3701L188.384 20.7944C188.995 21.4696 189.59 22.1601 190.169 22.8629L169.642 39.3957L169.862 39.6644L190.388 23.1327C190.995 23.8771 191.582 24.6369 192.152 25.4105L185.018 30.4857L185.18 30.7107L192.313 25.637C192.833 26.3503 193.34 27.0737 193.828 27.8104L171.669 42.1258L171.859 42.4158L194.015 28.1028C194.513 28.8637 194.994 29.6355 195.457 30.42L172.572 43.566L172.746 43.8654L195.629 30.7211C196.936 32.9657 198.104 35.2977 199.107 37.7158L191.368 40.8395L191.473 41.0959L199.208 37.9739C199.865 39.5815 200.462 41.2195 200.976 42.8935C200.842 43.614 200.629 44.1873 200.074 44.3618C199.314 44.6067 198.649 43.8874 197.944 43.1298C197.199 42.3309 196.431 41.5081 195.474 41.8093C194.516 42.1115 194.369 43.2249 194.226 44.3019C194.091 45.3249 193.964 46.2889 193.204 46.5292C192.446 46.77 191.749 46.0202 191.075 45.2967L191.05 45.2703C190.318 44.4864 189.564 43.673 188.604 43.9762C187.646 44.2784 187.499 45.3949 187.357 46.4744C187.221 47.4938 187.093 48.4563 186.335 48.6961C185.575 48.9353 184.911 48.2196 184.206 47.4635L184.182 47.4382C183.45 46.6522 182.687 45.8398 181.735 46.1431C180.776 46.4458 180.629 47.5602 180.487 48.6377C180.352 49.6597 180.225 50.6237 179.465 50.8629C178.71 51.1053 178.01 50.3549 177.336 49.6309L177.313 49.6071C176.581 48.8206 175.82 48.0108 174.865 48.3104L174.814 48.3265L174.915 48.6375L174.966 48.6214C175.066 48.5907 175.165 48.5764 175.262 48.577C175.91 48.5811 176.511 49.2265 177.095 49.8534C177.727 50.5319 178.38 51.2337 179.149 51.2385C179.287 51.2394 179.428 51.2177 179.566 51.1739C180.523 50.8722 180.671 49.7577 180.814 48.6798C180.949 47.6578 181.076 46.6938 181.836 46.454C182.598 46.2107 183.291 46.9636 183.965 47.6865L183.99 47.7134C184.722 48.4994 185.478 49.3123 186.436 49.007C187.394 48.7043 187.548 47.539 187.683 46.5103C187.819 45.4894 187.947 44.5269 188.705 44.2871C189.464 44.0453 190.129 44.7626 190.834 45.5197L190.861 45.5481C191.592 46.3341 192.35 47.1429 193.305 46.8401C194.262 46.5379 194.41 45.4245 194.553 44.3481C194.688 43.324 194.815 42.36 195.574 42.1203C196.335 41.8836 197.028 42.6298 197.703 43.3528C198.454 44.1579 199.22 44.9765 200.173 44.6733C200.652 44.5225 200.957 44.1571 201.155 43.5338C201.441 44.5059 201.7 45.4886 201.936 46.4806L193.802 48.3643L193.865 48.6338L201.997 46.7507C202.517 48.9807 202.909 51.2567 203.163 53.5744L176.85 56.3493L176.887 56.6934L203.205 53.9179C203.325 55.0801 203.399 56.2548 203.449 57.4358" fill="white"/>
<path d="M147.089 28.3517C146.859 28.3348 146.658 28.5064 146.641 28.7352C146.624 28.9635 146.797 29.1625 147.027 29.1802C147.036 29.181 147.045 29.181 147.054 29.1811C147.273 29.1834 147.459 29.0165 147.476 28.7966C147.493 28.5678 147.32 28.3687 147.089 28.3517Z" fill="white"/>
<path d="M149.893 28.6823C149.665 28.6453 149.45 28.7987 149.413 29.0247C149.376 29.2513 149.53 29.4646 149.758 29.5017C149.779 29.5053 149.8 29.5069 149.822 29.5071C150.025 29.5092 150.205 29.3644 150.239 29.1593C150.276 28.9326 150.121 28.7192 149.893 28.6823Z" fill="white"/>
<path d="M144.268 28.2657C144.036 28.2687 143.851 28.4572 143.854 28.6862C143.857 28.9153 144.047 29.0986 144.278 29.0963C144.509 29.0931 144.695 28.9048 144.691 28.6757C144.688 28.4459 144.498 28.2626 144.268 28.2657Z" fill="white"/>
<path d="M141.449 28.424C141.218 28.4465 141.051 28.6503 141.074 28.879C141.096 29.0909 141.275 29.2499 141.485 29.2521C141.501 29.2523 141.516 29.2517 141.533 29.2498C141.762 29.2266 141.93 29.0236 141.907 28.7956C141.884 28.567 141.678 28.4008 141.449 28.424Z" fill="white"/>
<path d="M138.655 28.8279C138.427 28.8711 138.279 29.089 138.322 29.3144C138.36 29.5113 138.534 29.6487 138.728 29.6508C138.755 29.6511 138.784 29.6486 138.812 29.6433C139.038 29.6008 139.187 29.383 139.144 29.1576C139.101 28.9322 138.881 28.7845 138.655 28.8279Z" fill="white"/>
<path d="M135.907 29.4772C135.685 29.5399 135.556 29.7698 135.619 29.9905C135.671 30.1709 135.837 30.2896 136.017 30.2915C136.056 30.2919 136.097 30.2868 136.137 30.2755C136.359 30.2121 136.488 29.983 136.424 29.7623C136.361 29.5415 136.129 29.4138 135.907 29.4772Z" fill="white"/>
<path d="M123.616 36.1455C123.442 36.2967 123.425 36.5594 123.577 36.7313C123.659 36.8235 123.772 36.8711 123.887 36.8723C123.987 36.8734 124.087 36.839 124.168 36.7687C124.341 36.6168 124.358 36.3553 124.206 36.1829C124.054 36.0111 123.789 35.9937 123.616 36.1455Z" fill="white"/>
<path d="M121.579 38.0865C121.419 38.2531 121.425 38.5154 121.592 38.6735C121.672 38.7491 121.775 38.7876 121.876 38.7886C121.989 38.7898 122.101 38.7467 122.184 38.6597C122.343 38.4939 122.337 38.2315 122.17 38.0727C122.003 37.9145 121.738 37.9207 121.579 38.0865Z" fill="white"/>
<path d="M117.171 44.6988C116.967 44.5894 116.713 44.6642 116.603 44.8658C116.493 45.0675 116.568 45.3195 116.772 45.4289C116.833 45.462 116.9 45.4786 116.966 45.4793C117.116 45.4809 117.262 45.4022 117.339 45.2619C117.448 45.0602 117.373 44.8082 117.171 44.6988Z" fill="white"/>
<path d="M119.721 40.1985C119.577 40.3777 119.606 40.6389 119.787 40.782C119.863 40.8416 119.953 40.8716 120.043 40.8726C120.168 40.8738 120.292 40.8205 120.375 40.7162C120.519 40.5371 120.489 40.2758 120.309 40.1328C120.128 39.9897 119.865 40.0188 119.721 40.1985Z" fill="white"/>
<path d="M130.641 31.488C130.433 31.5888 130.348 31.8379 130.45 32.0437C130.522 32.1891 130.668 32.2744 130.822 32.276C130.885 32.2767 130.949 32.2628 131.01 32.233C131.217 32.1321 131.303 31.8831 131.201 31.6772C131.099 31.4713 130.849 31.387 130.641 31.488Z" fill="white"/>
<path d="M128.164 32.8327C127.967 32.9518 127.903 33.2064 128.023 33.4028C128.101 33.5303 128.237 33.6016 128.377 33.6031C128.452 33.6039 128.528 33.5839 128.598 33.5424C128.795 33.4241 128.859 33.1687 128.739 32.9723C128.619 32.7766 128.361 32.7137 128.164 32.8327Z" fill="white"/>
<path d="M133.229 30.3666C133.013 30.4488 132.905 30.6892 132.988 30.9032C133.052 31.0665 133.208 31.1677 133.374 31.1695C133.426 31.1701 133.478 31.1609 133.529 31.1414C133.744 31.0592 133.852 30.8188 133.77 30.6048C133.686 30.3909 133.444 30.2844 133.229 30.3666Z" fill="white"/>
<path d="M170.266 41.6699C170.077 41.8015 170.031 42.0605 170.164 42.2481C170.244 42.3624 170.372 42.4239 170.502 42.4253C170.587 42.4262 170.672 42.4015 170.747 42.3497C170.936 42.2181 170.982 41.9591 170.849 41.7715C170.717 41.5839 170.455 41.5383 170.266 41.6699Z" fill="white"/>
<path d="M173.113 46.4187C172.904 46.5155 172.812 46.7622 172.91 46.9702C172.98 47.1197 173.129 47.2091 173.285 47.2108C173.346 47.2114 173.407 47.1989 173.466 47.1719C173.675 47.0751 173.766 46.8283 173.669 46.6204C173.571 46.4125 173.323 46.3219 173.113 46.4187Z" fill="white"/>
<path d="M174.743 49.2116C174.665 48.9956 174.424 48.8837 174.207 48.961C173.99 49.039 173.877 49.2766 173.956 49.4926C174.017 49.6607 174.175 49.7655 174.345 49.7673C174.393 49.7678 174.443 49.76 174.491 49.7425C174.708 49.6645 174.821 49.427 174.743 49.2116Z" fill="white"/>
<path d="M176.175 54.6261C176.137 54.4001 175.921 54.2483 175.693 54.286C175.464 54.3245 175.311 54.5388 175.35 54.7648H175.349C175.384 54.9658 175.559 55.1088 175.757 55.1109C175.782 55.1112 175.807 55.1094 175.832 55.1049C176.06 55.0671 176.213 54.8527 176.175 54.6261C176.175 54.6261 176.175 54.6261 176.175 54.6261Z" fill="white"/>
<path d="M164.538 35.6536C164.39 35.8293 164.414 36.0911 164.591 36.2383C164.669 36.3021 164.762 36.3335 164.855 36.3345C164.976 36.3357 165.097 36.2844 165.181 36.185C165.329 36.0087 165.305 35.7468 165.127 35.6003C164.95 35.4531 164.686 35.4774 164.538 35.6536Z" fill="white"/>
<path d="M168.538 39.4997C168.361 39.6474 168.338 39.9095 168.487 40.0853H168.487C168.569 40.1818 168.685 40.2314 168.803 40.2327C168.899 40.2337 168.997 40.2022 169.077 40.1352C169.254 39.9876 169.277 39.7255 169.127 39.5502C168.978 39.375 168.714 39.3521 168.538 39.4997Z" fill="white"/>
<path d="M114.893 49.7448C114.673 49.6726 114.436 49.7912 114.364 50.0091C114.292 50.2264 114.411 50.4616 114.63 50.533C114.672 50.5473 114.715 50.554 114.757 50.5544C114.934 50.5563 115.1 50.4452 115.158 50.2694V50.2687C115.231 50.0514 115.112 49.8163 114.893 49.7448Z" fill="white"/>
<path d="M171.796 43.9815C171.596 44.0964 171.527 44.3497 171.643 44.5488C171.719 44.6804 171.858 44.7545 172.001 44.756C172.074 44.7567 172.147 44.7388 172.214 44.7008C172.414 44.586 172.483 44.332 172.367 44.1336C172.252 43.9351 171.996 43.8667 171.796 43.9815Z" fill="white"/>
<path d="M115.918 47.1722C115.706 47.0807 115.46 47.1777 115.368 47.3879C115.276 47.5986 115.374 47.8433 115.586 47.934C115.639 47.9568 115.693 47.9678 115.748 47.9683C115.911 47.9701 116.068 47.8762 116.136 47.7177C116.228 47.5069 116.131 47.2623 115.918 47.1722Z" fill="white"/>
<path d="M175.581 51.887C175.522 51.665 175.293 51.5325 175.069 51.591C174.846 51.6489 174.713 51.8758 174.771 52.0979C174.82 52.2825 174.987 52.4053 175.171 52.4072C175.208 52.4076 175.245 52.4032 175.282 52.3939C175.506 52.3361 175.639 52.1091 175.581 51.887Z" fill="white"/>
<path d="M118.638 42.3465C118.445 42.22 118.186 42.2718 118.058 42.463C117.93 42.6546 117.983 42.912 118.176 43.0385C118.245 43.085 118.325 43.1072 118.402 43.108C118.539 43.1095 118.675 43.0438 118.756 42.9221C118.883 42.7311 118.831 42.4731 118.638 42.3465Z" fill="white"/>
<path d="M125.817 34.3901C125.816 34.3901 125.816 34.3901 125.816 34.3901C125.63 34.5258 125.59 34.7856 125.727 34.9705C125.807 35.0799 125.932 35.1387 126.06 35.14C126.147 35.1409 126.236 35.1149 126.312 35.0596C126.497 34.9238 126.538 34.664 126.401 34.4793C126.264 34.2944 126.002 34.2543 125.817 34.3901Z" fill="white"/>
<path d="M162.298 34.0069C162.166 34.1951 162.213 34.4538 162.403 34.5845C162.475 34.6337 162.556 34.6574 162.637 34.6583C162.771 34.6597 162.903 34.5973 162.986 34.4799C163.117 34.2916 163.071 34.033 162.88 33.9023C162.691 33.7716 162.43 33.818 162.298 34.0069Z" fill="white"/>
<path d="M155.359 30.0746C155.141 29.9983 154.902 30.1114 154.824 30.3272C154.747 30.5436 154.861 30.7808 155.08 30.8571C155.124 30.8729 155.169 30.881 155.215 30.8814C155.388 30.8833 155.552 30.7763 155.614 30.6046C155.691 30.3889 155.577 30.151 155.359 30.0746Z" fill="white"/>
<path d="M166.623 37.4893C166.46 37.6516 166.461 37.9146 166.624 38.0769H166.625C166.705 38.1559 166.81 38.1965 166.915 38.1976C167.024 38.1988 167.133 38.1577 167.217 38.0748C167.379 37.9125 167.379 37.6495 167.215 37.488C167.052 37.3263 166.787 37.3271 166.623 37.4893Z" fill="white"/>
<path d="M152.657 29.2563C152.433 29.1992 152.205 29.3332 152.147 29.5554C152.09 29.7777 152.225 30.004 152.449 30.0611C152.482 30.069 152.516 30.0736 152.549 30.0739C152.737 30.0759 152.91 29.951 152.958 29.7619C153.016 29.5396 152.881 29.3133 152.657 29.2563Z" fill="white"/>
<path d="M113.553 55.1077C113.324 55.0755 113.112 55.2331 113.08 55.4605C113.047 55.6878 113.206 55.8977 113.435 55.93C113.453 55.9322 113.472 55.9338 113.49 55.934C113.697 55.9362 113.878 55.7858 113.908 55.5772C113.941 55.3498 113.781 55.1399 113.553 55.1077Z" fill="white"/>
<path d="M157.977 31.1278C157.767 31.0321 157.519 31.1236 157.423 31.3324C157.326 31.5403 157.419 31.7869 157.629 31.8826C157.684 31.9074 157.742 31.9197 157.799 31.9204C157.958 31.9221 158.112 31.8316 158.184 31.678C158.28 31.4693 158.188 31.2234 157.977 31.1278Z" fill="white"/>
<path d="M114.102 52.3967C113.877 52.3446 113.652 52.4833 113.599 52.7064C113.547 52.93 113.687 53.1536 113.911 53.2058C113.942 53.2123 113.973 53.2161 114.003 53.2164C114.194 53.2185 114.369 53.0888 114.414 52.8955C114.467 52.6726 114.327 52.4489 114.102 52.3967Z" fill="white"/>
<path d="M160.491 32.4071C160.29 32.2936 160.035 32.3629 159.921 32.5617C159.806 32.7612 159.876 33.0145 160.076 33.128C160.141 33.1647 160.21 33.182 160.279 33.1828C160.426 33.1843 160.569 33.109 160.647 32.9735C160.762 32.774 160.692 32.5207 160.491 32.4071Z" fill="white"/>
<path d="M140.365 114.106C140.054 115.51 139.238 115.7 138.039 115.676C136.887 115.676 136.456 115.51 136.456 114.344V113.273V112.991V108.636C136.456 107.565 136.72 107.398 137.607 107.398V106.97L136.216 106.994H135.28L134.009 106.97V107.398C134.921 107.398 135.017 107.731 135.017 108.755V112.991V113.273V114.653C135.017 115.51 134.945 115.772 133.817 115.772V116.2L135.424 116.152H138.399L140.269 116.2L140.749 114.201L140.365 114.106Z" fill="white"/>
<path d="M129.422 115.771C129.062 115.962 127.527 116.39 126.16 116.39C123.017 116.39 121.195 114.319 121.195 111.725C121.195 109.036 123.449 107.37 125.2 107.084C126.975 106.775 128.678 107.108 129.446 107.56L129.518 109.345H129.014C128.654 107.727 127.479 107.536 126.303 107.513C124.241 107.441 122.49 108.988 122.634 111.63C122.778 114.058 124.529 115.819 126.16 115.819C126.927 115.819 128.894 115.724 129.134 113.986H129.614L129.422 115.771Z" fill="white"/>
<path d="M162.493 116.199L159.734 116.152L158.343 116.199V115.771C159.351 115.771 159.423 115.509 159.423 114.295V108.821C159.423 107.703 159.447 107.441 158.343 107.441V107.013L159.734 107.036L161.989 107.013C163.356 107.013 164.772 107.631 164.819 109.036C164.843 110.297 163.932 111.011 162.997 111.273C164.795 111.416 165.707 112.487 165.707 113.748C165.731 115.557 163.98 116.223 162.493 116.199ZM160.766 107.632V111.035C162.181 111.106 163.38 110.868 163.404 109.202C163.428 107.798 162.301 107.489 160.766 107.632ZM160.766 111.677V114.652C160.766 115.438 161.126 115.652 162.181 115.652C163.14 115.652 164.268 115.009 164.268 113.843C164.268 112.249 163.14 111.63 160.766 111.677Z" fill="white"/>
<path d="M153.228 108.703V112.701C153.228 115.366 151.597 116.461 149.534 116.461C147.448 116.437 145.864 115.509 145.864 112.986V108.536C145.864 107.774 145.96 107.441 144.953 107.441V107.013L146.296 107.036H147.232L148.215 107.013V107.441C147.376 107.441 147.256 107.632 147.256 108.417V113.201C147.256 114.819 148.143 115.7 149.75 115.7C151.357 115.7 152.317 114.438 152.317 113.153V108.655C152.317 107.512 152.221 107.441 151.213 107.441V107.013L152.437 107.036H153.348L154.14 107.013V107.441C153.444 107.441 153.228 107.536 153.228 108.703Z" fill="white"/>
</svg>
