<?xml version="1.0" encoding="UTF-8" standalone="no"?>
<!-- Generator: Adobe Illustrator 23.0.3, SVG Export Plug-In . SVG Version: 6.00 Build 0)  -->

<svg
   xmlns:dc="http://purl.org/dc/elements/1.1/"
   xmlns:cc="http://creativecommons.org/ns#"
   xmlns:rdf="http://www.w3.org/1999/02/22-rdf-syntax-ns#"
   xmlns:svg="http://www.w3.org/2000/svg"
   xmlns="http://www.w3.org/2000/svg"
   xmlns:sodipodi="http://sodipodi.sourceforge.net/DTD/sodipodi-0.dtd"
   xmlns:inkscape="http://www.inkscape.org/namespaces/inkscape"
   version="1.1"
   id="Ebene_1"
   x="0px"
   y="0px"
   viewBox="0 0 127.6 203.8"
   enable-background="new 0 0 127.6 203.8"
   xml:space="preserve"
   sodipodi:docname="logo.svg"
   inkscape:version="0.92.4 (5da689c313, 2019-01-14)"><metadata
   id="metadata189"><rdf:RDF><cc:Work
       rdf:about=""><dc:format>image/svg+xml</dc:format><dc:type
         rdf:resource="http://purl.org/dc/dcmitype/StillImage" /><dc:title></dc:title></cc:Work></rdf:RDF></metadata><defs
   id="defs187" /><sodipodi:namedview
   pagecolor="#ffffff"
   bordercolor="#666666"
   borderopacity="1"
   objecttolerance="10"
   gridtolerance="10"
   guidetolerance="10"
   inkscape:pageopacity="0"
   inkscape:pageshadow="2"
   inkscape:window-width="2560"
   inkscape:window-height="1057"
   id="namedview185"
   showgrid="false"
   inkscape:zoom="1.157998"
   inkscape:cx="63.799999"
   inkscape:cy="101.9"
   inkscape:window-x="-8"
   inkscape:window-y="-8"
   inkscape:window-maximized="1"
   inkscape:current-layer="Ebene_1" />
<g
   id="g182">
	<rect
   fill="#AB0A3D"
   width="127.6"
   height="203.8"
   id="rect2" />
	<g
   id="g30">
		<g
   id="g6">
			<path
   fill="#FFFFFF"
   d="M96.8,126l5.6,5.7c-10.5,8.8-26.2,8.2-35.9-1.7c-9.8-10-10-25.7-1-36l5.6,5.7c-5.9,7.2-5.6,17.9,1.1,24.7     C78.8,131.2,89.4,131.8,96.8,126z"
   id="path4" />
		</g>
		<g
   id="g10">
			<path
   fill="#FFFFFF"
   d="M24.1,63.1l5.7-5.6l32.9,33.6c-1.9,2.1-3.4,4.3-4.6,6.7L24.1,63.1z"
   id="path8" />
		</g>
		
			<rect
   x="17.4"
   y="50.7"
   transform="matrix(0.7147 -0.6995 0.6995 0.7147 -32.1483 30.5617)"
   fill="#FFFFFF"
   width="7.9"
   height="7.9"
   id="rect12" />
		
			<rect
   x="34.5"
   y="34"
   transform="matrix(0.7147 -0.6995 0.6995 0.7147 -15.5713 37.7044)"
   fill="#FFFFFF"
   width="7.9"
   height="7.9"
   id="rect14" />
		
			<rect
   x="43.1"
   y="25.5"
   transform="matrix(0.7147 -0.6995 0.6995 0.7147 -7.2054 41.2946)"
   fill="#FFFFFF"
   width="7.9"
   height="7.9"
   id="rect16" />
		
			<rect
   x="51.5"
   y="17.4"
   transform="matrix(0.7147 -0.6995 0.6995 0.7147 0.9066 44.8754)"
   fill="#FFFFFF"
   width="7.9"
   height="7.9"
   id="rect18" />
		
			<rect
   x="59.8"
   y="42.6"
   transform="matrix(0.7147 -0.6995 0.6995 0.7147 -14.351 57.8715)"
   fill="#FFFFFF"
   width="7.9"
   height="7.9"
   id="rect20" />
		
			<rect
   x="51.1"
   y="51"
   transform="matrix(0.7147 -0.6995 0.6995 0.7147 -22.7562 54.182)"
   fill="#FFFFFF"
   width="7.9"
   height="7.9"
   id="rect22" />
		
			<rect
   x="42.8"
   y="42.5"
   transform="matrix(0.7147 -0.6995 0.6995 0.7147 -19.1637 45.9432)"
   fill="#FFFFFF"
   width="7.9"
   height="7.9"
   id="rect24" />
		
			<rect
   x="42.8"
   y="42.5"
   transform="matrix(0.7147 -0.6995 0.6995 0.7147 -19.1637 45.9432)"
   fill="#FFFFFF"
   width="7.9"
   height="7.9"
   id="rect26" />
		<path
   fill="#FFFFFF"
   d="M75.3,87L30,40.7l-5.7,5.5l49.6,50.6c7.3-5.8,18-5.2,24.7,1.6s7,17.5,1.1,24.7l5.6,5.7    c9.1-10.3,8.8-26-1-36C96.5,85,84.9,83,75.3,87z"
   id="path28" />
	</g>
	<g
   id="g180">
		<g
   id="g38">
			<g
   id="g36">
				<rect
   x="9.6"
   y="154"
   fill="#FFFFFF"
   width="1.8"
   height="1.9"
   id="rect32" />
				<path
   fill="#FFFFFF"
   d="M11.5,156h-2v-2.1h2V156z M9.6,155.8h1.6V154H9.6V155.8z"
   id="path34" />
			</g>
		</g>
		<g
   id="g46">
			<g
   id="g44">
				<rect
   x="9.6"
   y="158"
   fill="#FFFFFF"
   width="1.8"
   height="10.2"
   id="rect40" />
				<path
   fill="#FFFFFF"
   d="M11.5,168.3h-2v-10.4h2V168.3z M9.6,168.1h1.6v-10H9.6V168.1z"
   id="path42" />
			</g>
		</g>
		<g
   id="g54">
			<g
   id="g52">
				<rect
   x="67.8"
   y="154"
   fill="#FFFFFF"
   width="1.8"
   height="1.9"
   id="rect48" />
				<path
   fill="#FFFFFF"
   d="M69.7,156h-2v-2.1h2V156z M67.9,155.8h1.6V154h-1.6V155.8z"
   id="path50" />
			</g>
		</g>
		<g
   id="g62">
			<g
   id="g60">
				<path
   fill="#FFFFFF"
   d="M20,168.2h1.8v-6.9c0-1.1-0.2-2-0.7-2.6s-1.2-0.9-2.1-0.9c-0.6,0-1.1,0.2-1.5,0.5      c-0.5,0.3-0.9,0.7-1.3,1.3V158h-1.7v10.2h1.8v-7.1c0.3-0.5,0.7-0.9,1.1-1.3c0.4-0.3,0.8-0.5,1.3-0.5c0.9,0,1.4,0.7,1.4,2.1      L20,168.2L20,168.2z"
   id="path56" />
				<path
   fill="#FFFFFF"
   d="M21.9,168.2h-2v-6.8c0-1.3-0.4-2-1.3-2c-0.4,0-0.8,0.1-1.2,0.4c-0.4,0.3-0.8,0.7-1.1,1.2v7.1h-2v-10.4      h1.9v1.3c0.3-0.5,0.7-0.8,1.1-1.1c0.5-0.3,1-0.5,1.6-0.5c0.9,0,1.7,0.3,2.2,0.9c0.5,0.6,0.8,1.5,0.8,2.6V168.2z M20.1,168.1h1.6      v-6.9c0-1.1-0.2-1.9-0.7-2.5s-1.1-0.9-2-0.9c-0.5,0-1,0.2-1.5,0.4c-0.5,0.3-0.9,0.7-1.3,1.3l-0.2,0.2V158h-1.5v10h1.6v-7l0,0      c0.3-0.5,0.7-1,1.1-1.3s0.9-0.5,1.3-0.5c1,0,1.5,0.7,1.5,2.2v6.7H20.1z"
   id="path58" />
			</g>
		</g>
		<g
   id="g70">
			<g
   id="g68">
				<path
   fill="#FFFFFF"
   d="M30.3,166.5v1.6H32v-14.2h-1.8v4.9c-0.4-0.3-0.8-0.5-1.3-0.7s-0.9-0.3-1.3-0.3c-1,0-1.7,0.3-2.2,0.9      c-0.5,0.6-0.8,1.5-0.8,2.6v3.7c0,1.1,0.2,2,0.7,2.6s1.1,0.9,2,0.9C28.4,168.4,29.4,167.8,30.3,166.5z M26.4,164.7v-3.2      c0-0.7,0.1-1.3,0.4-1.6c0.3-0.4,0.7-0.5,1.2-0.5c0.3,0,0.7,0.1,1.1,0.3s0.8,0.4,1.1,0.8v4.6c-0.3,0.6-0.7,1.1-1.1,1.4      c-0.4,0.3-0.8,0.5-1.3,0.5C26.9,166.8,26.4,166.1,26.4,164.7z"
   id="path64" />
				<path
   fill="#FFFFFF"
   d="M27.3,168.5c-0.9,0-1.6-0.3-2.1-0.9c-0.5-0.6-0.7-1.5-0.7-2.7v-3.7c0-1.1,0.3-2,0.8-2.6s1.3-1,2.3-1      c0.4,0,0.9,0.1,1.3,0.3s0.8,0.4,1.1,0.6v-4.8h2v14.4h-1.9v-1.5C29.3,167.9,28.4,168.5,27.3,168.5z M27.6,157.8      c-0.9,0-1.7,0.3-2.1,0.9c-0.5,0.6-0.8,1.4-0.8,2.5v3.7c0,1.1,0.2,2,0.7,2.5c0.4,0.6,1.1,0.9,1.9,0.9c1.1,0,2-0.6,2.8-1.9      l0.2-0.2v1.9h1.5V154h-1.6v5l-0.1-0.1c-0.4-0.3-0.8-0.5-1.2-0.7C28.4,157.9,28,157.8,27.6,157.8z M27.8,166.9      c-0.9,0-1.4-0.7-1.4-2.2v-3.2c0-0.7,0.1-1.3,0.4-1.7s0.7-0.6,1.2-0.6c0.3,0,0.7,0.1,1.1,0.3s0.8,0.5,1.1,0.8l0,0v4.7l0,0      c-0.3,0.6-0.7,1.1-1.2,1.4C28.7,166.7,28.2,166.9,27.8,166.9z M28,159.4c-0.5,0-0.8,0.2-1.1,0.5c-0.3,0.3-0.4,0.9-0.4,1.6v3.2      c0,1.4,0.4,2,1.2,2c0.4,0,0.8-0.2,1.2-0.5c0.4-0.3,0.8-0.8,1.1-1.3v-4.5c-0.3-0.3-0.6-0.5-1-0.7C28.7,159.5,28.3,159.4,28,159.4      z"
   id="path66" />
			</g>
		</g>
		<g
   id="g78">
			<g
   id="g76">
				<path
   fill="#FFFFFF"
   d="M39.3,168c0.5-0.3,0.9-0.7,1.3-1.3v1.5h1.7V158h-1.8v7.1c-0.3,0.5-0.7,0.9-1.1,1.2      c-0.4,0.3-0.8,0.4-1.2,0.4s-0.7-0.2-1-0.5c-0.2-0.3-0.3-0.9-0.3-1.6V158H35v6.9c0,1.1,0.2,2,0.7,2.6s1.2,0.9,2,0.9      C38.3,168.4,38.8,168.3,39.3,168z"
   id="path72" />
				<path
   fill="#FFFFFF"
   d="M37.8,168.5c-0.9,0-1.6-0.3-2.1-0.9c-0.5-0.6-0.8-1.5-0.8-2.7v-7h2v6.7c0,0.7,0.1,1.2,0.3,1.6      c0.2,0.3,0.5,0.5,0.9,0.5s0.7-0.1,1.1-0.4c0.4-0.3,0.8-0.7,1.1-1.2v-7.2h2v10.4h-1.9V167c-0.3,0.5-0.7,0.8-1.1,1.1l0,0      C38.8,168.3,38.3,168.5,37.8,168.5z M35.1,158.1v6.9c0,1.1,0.2,2,0.7,2.5c0.5,0.6,1.1,0.9,2,0.9c0.5,0,1-0.1,1.4-0.4l0,0      c0.5-0.3,0.9-0.7,1.2-1.2l0.2-0.2v1.7h1.5v-10h-1.6v7l0,0c-0.3,0.5-0.7,1-1.1,1.3c-0.4,0.3-0.8,0.5-1.2,0.5s-0.8-0.2-1-0.6      c-0.2-0.4-0.4-0.9-0.4-1.7v-6.5h-1.7V158.1z"
   id="path74" />
			</g>
		</g>
		<g
   id="g86">
			<g
   id="g84">
				<path
   fill="#FFFFFF"
   d="M49.4,162.6l-2-0.9c-0.4-0.2-0.6-0.3-0.7-0.5c-0.1-0.2-0.2-0.4-0.2-0.6v-0.2c0-0.8,0.6-1.2,1.9-1.2      c0.6,0,1.3,0.1,2,0.3V158c-0.8-0.2-1.5-0.3-2.1-0.3c-1.2,0-2.1,0.2-2.7,0.7c-0.6,0.5-0.9,1.2-0.9,2.1v0.3c0,0.5,0.1,1,0.4,1.4      c0.3,0.4,0.7,0.7,1.4,1l2.1,0.9c0.3,0.1,0.5,0.3,0.7,0.5c0.1,0.2,0.2,0.5,0.2,0.8v0.2c0,0.4-0.1,0.7-0.4,0.9      c-0.3,0.2-0.8,0.3-1.4,0.3c-0.7,0-1.5-0.2-2.6-0.5l-0.1,1.6c1.2,0.3,2.1,0.4,2.7,0.4c1.2,0,2.1-0.2,2.7-0.7s0.9-1.2,0.9-2.2      v-0.5C51.2,164,50.6,163.2,49.4,162.6z"
   id="path80" />
				<path
   fill="#FFFFFF"
   d="M47.6,168.5c-0.6,0-1.6-0.1-2.8-0.4h-0.1V168l0.1-1.7h0.1c1,0.3,1.9,0.5,2.6,0.5c0.7,0,1.1-0.1,1.4-0.3      c0.2-0.2,0.4-0.4,0.4-0.9v-0.2c0-0.3-0.1-0.6-0.2-0.7c-0.1-0.2-0.3-0.3-0.6-0.5l-2.1-0.9c-0.6-0.3-1.1-0.6-1.4-1      c-0.3-0.4-0.5-0.9-0.5-1.4v-0.3c0-1,0.3-1.7,0.9-2.2c0.6-0.5,1.5-0.7,2.8-0.7c0.6,0,1.3,0.1,2.2,0.3h0.1v1.7h-0.1      c-0.7-0.2-1.4-0.2-2-0.2c-1.2,0-1.8,0.4-1.8,1.1v0.2c0,0.2,0.1,0.4,0.2,0.5c0.1,0.1,0.4,0.3,0.7,0.5l2,0.9      c1.2,0.6,1.9,1.4,1.9,2.5v0.5c0,1-0.3,1.7-0.9,2.2C49.8,168.3,48.9,168.5,47.6,168.5z M45,167.9c1.1,0.3,2,0.4,2.6,0.4      c1.2,0,2.1-0.2,2.6-0.7s0.8-1.2,0.8-2.1V165c0-1-0.6-1.8-1.7-2.4l-2-0.9c-0.4-0.2-0.6-0.3-0.8-0.5s-0.2-0.4-0.2-0.7v-0.2      c0-0.9,0.7-1.3,2-1.3c0.6,0,1.2,0.1,1.9,0.2v-1.3c-0.8-0.2-1.5-0.2-2-0.2c-1.2,0-2.1,0.2-2.6,0.7s-0.8,1.2-0.9,2.1v0.3      c0,0.5,0.1,0.9,0.4,1.3c0.3,0.4,0.7,0.7,1.3,1l2.1,0.9c0.3,0.1,0.6,0.3,0.7,0.5c0.1,0.2,0.2,0.5,0.2,0.8v0.2      c0,0.5-0.1,0.8-0.4,1c-0.3,0.2-0.8,0.3-1.5,0.3s-1.5-0.1-2.5-0.4L45,167.9z"
   id="path82" />
			</g>
		</g>
		<g
   id="g94">
			<g
   id="g92">
				<path
   fill="#FFFFFF"
   d="M53.8,165.3c0,1.1,0.3,1.9,0.8,2.4s1.3,0.7,2.5,0.7c0.5,0,1.1-0.1,1.7-0.3v-1.5      c-0.6,0.1-1.1,0.2-1.7,0.2c-0.5,0-0.8-0.1-1-0.3s-0.3-0.6-0.3-1.1v-6h2.8V158h-2.8v-2.7h-1.5L54,158h-1.5v1.5H54v5.8H53.8z"
   id="path88" />
				<path
   fill="#FFFFFF"
   d="M57.1,168.5c-1.1,0-2-0.3-2.5-0.8s-0.8-1.3-0.8-2.5v-5.7h-1.5v-1.6h1.5l0.3-2.7h1.6v2.7h2.8v1.6h-2.8      v5.9c0,0.5,0.1,0.9,0.3,1.1c0.2,0.2,0.5,0.3,1,0.3c0.6,0,1.2-0.1,1.7-0.2h0.1v1.7h-0.1C58.2,168.4,57.6,168.5,57.1,168.5z       M52.5,159.3H54v5.9c0,1.1,0.3,1.9,0.7,2.3c0.5,0.5,1.3,0.7,2.4,0.7c0.5,0,1-0.1,1.6-0.2v-1.3c-0.5,0.1-1.1,0.2-1.7,0.2      c-0.5,0-0.9-0.1-1.1-0.4c-0.2-0.2-0.4-0.6-0.4-1.2v-6.1h2.8v-1.3h-2.8v-2.7h-1.3l-0.3,2.7h-1.5L52.5,159.3L52.5,159.3z"
   id="path90" />
			</g>
		</g>
		<g
   id="g102">
			<g
   id="g100">
				<path
   fill="#FFFFFF"
   d="M62.6,161.2c0.6-1,1.4-1.5,2.4-1.5c0.3,0,0.6,0,0.8,0.1v-2c-0.1,0-0.3,0-0.5,0c-0.6,0-1.1,0.2-1.5,0.5      c-0.5,0.3-0.9,0.7-1.3,1.3V158h-1.7v10.2h1.8C62.6,168.2,62.6,161.2,62.6,161.2z"
   id="path96" />
				<path
   fill="#FFFFFF"
   d="M62.7,168.2h-2v-10.4h1.9v1.3c0.3-0.5,0.7-0.8,1.1-1.1c0.5-0.3,1-0.5,1.6-0.5c0.2,0,0.4,0,0.5,0h0.1v2.2      h-0.1c-0.2,0-0.5-0.1-0.8-0.1c-0.9,0-1.7,0.5-2.3,1.4V168.2z M60.9,168.1h1.6v-6.9l0,0c0.6-1,1.4-1.5,2.4-1.5c0.3,0,0.5,0,0.7,0      v-1.8c-0.1,0-0.2,0-0.4,0c-0.5,0-1,0.2-1.5,0.4c-0.5,0.3-0.9,0.7-1.3,1.3l-0.2,0.2v-1.7h-1.5v10H60.9z"
   id="path98" />
			</g>
		</g>
		<g
   id="g110">
			<g
   id="g108">
				<rect
   x="67.8"
   y="158"
   fill="#FFFFFF"
   width="1.8"
   height="10.2"
   id="rect104" />
				<path
   fill="#FFFFFF"
   d="M69.7,168.2h-2v-10.4h2V168.2z M67.9,168.1h1.6v-10h-1.6V168.1z"
   id="path106" />
			</g>
		</g>
		<g
   id="g118">
			<g
   id="g116">
				<path
   fill="#FFFFFF"
   d="M76.1,157.7c-1.2,0-2.1,0.3-2.7,1c-0.6,0.6-0.9,1.6-0.9,2.8v3.3c0,1.3,0.3,2.2,0.9,2.8s1.6,0.9,3,0.9      c0.6,0,1.5-0.1,2.8-0.4v-1.5c-1.1,0.2-2,0.3-2.8,0.3s-1.3-0.2-1.6-0.5c-0.3-0.3-0.5-0.8-0.5-1.5v-1.2h5.4v-2.1      c0-1.2-0.3-2.1-0.9-2.8C78.2,158,77.3,157.7,76.1,157.7z M77.9,162.2h-3.6v-1c0-0.6,0.2-1.1,0.5-1.5c0.3-0.3,0.8-0.5,1.3-0.5      c0.6,0,1,0.2,1.3,0.5s0.5,0.9,0.5,1.5C77.9,161.2,77.9,162.2,77.9,162.2z"
   id="path112" />
				<path
   fill="#FFFFFF"
   d="M76.4,168.5c-1.4,0-2.5-0.3-3.1-0.9c-0.6-0.6-0.9-1.6-0.9-2.8v-3.3c0-1.2,0.3-2.2,0.9-2.8      c0.6-0.7,1.5-1,2.8-1c1.2,0,2.1,0.3,2.8,1c0.6,0.7,1,1.6,1,2.8v2.2h-5.5v1.1c0,0.7,0.2,1.2,0.5,1.5s0.9,0.4,1.6,0.4      s1.6-0.1,2.7-0.3h0.1v1.7h-0.1C77.9,168.4,77,168.5,76.4,168.5z M76.1,157.8c-1.2,0-2.1,0.3-2.6,0.9c-0.6,0.6-0.9,1.5-0.9,2.7      v3.3c0,1.2,0.3,2.1,0.9,2.7c0.6,0.6,1.6,0.9,3,0.9c0.5,0,1.4-0.1,2.7-0.3v-1.4c-1.1,0.2-2,0.3-2.7,0.3c-0.8,0-1.3-0.2-1.7-0.5      c-0.4-0.3-0.5-0.9-0.5-1.6v-1.3h5.5v-2.1c0-1.2-0.3-2.1-0.9-2.7C78.1,158.1,77.2,157.8,76.1,157.8z M78,162.3h-3.8v-1.1      c0-0.7,0.2-1.2,0.5-1.5c0.3-0.4,0.8-0.5,1.4-0.5s1.1,0.2,1.4,0.5c0.3,0.4,0.5,0.9,0.5,1.6V162.3z M74.4,162.1h3.5v-0.8      c0-0.6-0.2-1.1-0.5-1.5c-0.3-0.3-0.7-0.5-1.3-0.5c-0.5,0-0.9,0.2-1.2,0.5c-0.3,0.3-0.5,0.8-0.5,1.4V162.1z"
   id="path114" />
			</g>
		</g>
		<g
   id="g128">
			<path
   fill="#FFFFFF"
   d="M91.7,168.5c-2.6,0-3.9-1.3-3.9-3.9v-3.1c0-2.6,1.3-3.9,3.9-3.9c0.6,0,1.4,0.1,2.2,0.3H94v1.7h-0.1     c-0.8-0.2-1.5-0.3-2.1-0.3s-1.1,0.2-1.5,0.5l0,0c-0.3,0.3-0.5,0.8-0.5,1.5v3.4c0,0.7,0.2,1.2,0.5,1.5s0.8,0.5,1.4,0.5     c0.4,0,0.7,0,1-0.1c0.3,0,0.7-0.1,1.1-0.2h0.1v1.8h-0.1C93.1,168.4,92.3,168.5,91.7,168.5z"
   id="path120" />
			<rect
   x="96.4"
   y="153.8"
   fill="#FFFFFF"
   width="2"
   height="14.4"
   id="rect122" />
			<path
   fill="#FFFFFF"
   d="M104.1,168.5c-0.9,0-1.6-0.3-2.1-0.9c-0.5-0.6-0.8-1.5-0.8-2.7v-7h2v6.7c0,0.7,0.1,1.2,0.3,1.6     c0.2,0.3,0.5,0.5,0.9,0.5s0.7-0.1,1.1-0.4c0.4-0.3,0.8-0.7,1.1-1.2v-7.2h2v10.4h-1.9V167c-0.3,0.5-0.7,0.8-1.1,1.1     C105.2,168.3,104.7,168.5,104.1,168.5z"
   id="path124" />
			<path
   fill="#FFFFFF"
   d="M115.2,168.5c-1.3,0-2.2-0.3-2.8-1c-0.6-0.6-0.9-1.6-0.9-2.9v-10.8h2v5.2c0.3-0.4,0.7-0.8,1.1-1     c0.5-0.3,1-0.4,1.6-0.4c0.9,0,1.6,0.3,2.1,0.9l0,0c0.5,0.6,0.7,1.5,0.7,2.7v3.3c0,1.3-0.3,2.3-0.9,2.9     C117.4,168.2,116.4,168.5,115.2,168.5z M113.4,161v3.8c0,0.7,0.2,1.2,0.5,1.5s0.7,0.5,1.3,0.5c1.2,0,1.8-0.7,1.8-2.1v-3.3     c0-1.4-0.4-2.1-1.3-2.1c-0.4,0-0.8,0.1-1.2,0.4C114.1,160.1,113.7,160.5,113.4,161z"
   id="path126" />
		</g>
		<g
   id="g136">
			<g
   id="g134">
				<path
   fill="#FFFFFF"
   d="M14,178.7c-0.5,0-1,0.1-1.5,0.4s-0.9,0.7-1.3,1.2v-5.4H9.5v10.7c0,1.3,0.3,2.2,0.9,2.9      c0.6,0.6,1.5,0.9,2.7,0.9c1.3,0,2.2-0.3,2.8-1c0.6-0.6,0.9-1.6,0.9-2.9v-3.3c0-1.2-0.2-2-0.7-2.6C15.6,179,14.9,178.7,14,178.7z       M15,185.8c0,1.4-0.6,2.1-1.9,2.1c-0.6,0-1-0.2-1.3-0.5c-0.3-0.4-0.5-0.9-0.5-1.6V182c0.3-0.5,0.7-0.9,1.1-1.3      c0.4-0.3,0.8-0.5,1.2-0.5c0.9,0,1.4,0.7,1.4,2.2V185.8z"
   id="path130" />
				<path
   fill="#FFFFFF"
   d="M13.1,189.5c-1.3,0-2.2-0.3-2.8-1c-0.6-0.6-0.9-1.6-0.9-2.9v-10.8h2v5.2c0.3-0.4,0.7-0.8,1.1-1      c0.5-0.3,1-0.4,1.6-0.4c0.9,0,1.6,0.3,2.1,0.9c0.5,0.6,0.7,1.5,0.7,2.7v3.3c0,1.3-0.3,2.3-0.9,2.9      C15.3,189.1,14.3,189.5,13.1,189.5z M9.5,175v10.6c0,1.2,0.3,2.2,0.8,2.8c0.6,0.6,1.5,0.9,2.7,0.9s2.2-0.3,2.8-0.9      c0.6-0.6,0.9-1.6,0.9-2.8v-3.3c0-1.1-0.2-2-0.7-2.6s-1.1-0.9-2-0.9c-0.5,0-1,0.1-1.5,0.4s-0.9,0.7-1.2,1.2l-0.2,0.2V175H9.5z       M13.1,188c-0.6,0-1.1-0.2-1.4-0.6c-0.3-0.4-0.5-0.9-0.5-1.6V182l0,0c0.3-0.5,0.7-1,1.1-1.3c0.4-0.3,0.9-0.5,1.3-0.5      c1,0,1.5,0.8,1.5,2.3v3.3C15.1,187.3,14.4,188,13.1,188z M11.3,182v3.8c0,0.7,0.2,1.2,0.5,1.5s0.7,0.5,1.3,0.5      c1.2,0,1.8-0.7,1.8-2.1v-3.3c0-1.4-0.4-2.1-1.3-2.1c-0.4,0-0.8,0.1-1.2,0.4C12,181.1,11.6,181.5,11.3,182z"
   id="path132" />
			</g>
		</g>
		<g
   id="g144">
			<g
   id="g142">
				<path
   fill="#FFFFFF"
   d="M22.6,179.2c-0.5,0.3-0.9,0.7-1.3,1.3V179h-1.7v10.2h1.8v-7c0.6-1,1.4-1.5,2.4-1.5c0.3,0,0.6,0,0.8,0.1      v-2c-0.1,0-0.3,0-0.5,0C23.6,178.7,23.1,178.9,22.6,179.2z"
   id="path138" />
				<path
   fill="#FFFFFF"
   d="M21.5,189.2h-2v-10.4h1.9v1.3c0.3-0.5,0.7-0.8,1.1-1.1c0.5-0.3,1-0.5,1.6-0.5c0.2,0,0.4,0,0.5,0h0.1v2.2      h-0.1c-0.2,0-0.5-0.1-0.8-0.1c-0.9,0-1.7,0.5-2.3,1.4C21.5,182,21.5,189.2,21.5,189.2z M19.7,189.1h1.6v-6.9l0,0      c0.6-1,1.4-1.5,2.4-1.5c0.3,0,0.5,0,0.7,0v-1.8c-0.1,0-0.2,0-0.4,0c-0.5,0-1,0.2-1.5,0.4c-0.5,0.3-0.9,0.7-1.3,1.3l-0.2,0.2      v-1.7h-1.5v10H19.7z"
   id="path140" />
			</g>
		</g>
		<g
   id="g152">
			<g
   id="g150">
				<path
   fill="#FFFFFF"
   d="M29.9,178.7c-1.2,0-2.1,0.3-2.7,1c-0.6,0.6-0.9,1.6-0.9,2.8v3.3c0,1.3,0.3,2.2,0.9,2.8      c0.6,0.6,1.6,0.9,3,0.9c0.6,0,1.5-0.1,2.8-0.4v-1.5c-1.1,0.2-2,0.3-2.8,0.3s-1.3-0.2-1.6-0.5c-0.3-0.3-0.5-0.8-0.5-1.5v-1.2h5.4      v-2.1c0-1.2-0.3-2.1-0.9-2.8C32,179,31.1,178.7,29.9,178.7z M31.7,183.2h-3.6v-1c0-0.6,0.2-1.1,0.5-1.5c0.3-0.3,0.8-0.5,1.3-0.5      c0.6,0,1,0.2,1.3,0.5s0.5,0.9,0.5,1.5C31.7,182.2,31.7,183.2,31.7,183.2z"
   id="path146" />
				<path
   fill="#FFFFFF"
   d="M30.2,189.5c-1.4,0-2.5-0.3-3.1-0.9s-0.9-1.6-0.9-2.8v-3.3c0-1.2,0.3-2.2,0.9-2.8c0.6-0.7,1.5-1,2.8-1      c1.2,0,2.1,0.3,2.8,1c0.6,0.7,1,1.6,1,2.8v2.2h-5.5v1.1c0,0.7,0.2,1.2,0.5,1.5s0.9,0.4,1.6,0.4s1.6-0.1,2.7-0.3h0.1v1.7H33      C31.7,189.4,30.8,189.5,30.2,189.5z M29.9,178.8c-1.2,0-2.1,0.3-2.6,0.9c-0.6,0.6-0.9,1.5-0.9,2.7v3.3c0,1.2,0.3,2.1,0.9,2.7      s1.6,0.9,3,0.9c0.5,0,1.5-0.1,2.7-0.3v-1.4c-1.1,0.2-2,0.3-2.7,0.3c-0.8,0-1.3-0.2-1.7-0.5c-0.4-0.3-0.5-0.9-0.5-1.6v-1.3h5.5      v-2.1c0-1.2-0.3-2.1-0.9-2.7C31.9,179.1,31,178.8,29.9,178.8z M31.8,183.3H28v-1.1c0-0.7,0.2-1.2,0.5-1.5s0.8-0.5,1.4-0.5      s1.1,0.2,1.4,0.5c0.3,0.4,0.5,0.9,0.5,1.6V183.3z M28.2,183.1h3.5v-0.8c0-0.6-0.2-1.1-0.5-1.5c-0.3-0.3-0.7-0.5-1.3-0.5      c-0.5,0-0.9,0.2-1.2,0.5c-0.3,0.3-0.5,0.8-0.5,1.4V183.1z"
   id="path148" />
			</g>
		</g>
		<g
   id="g160">
			<g
   id="g158">
				<path
   fill="#FFFFFF"
   d="M46,178.7c-0.6,0-1.1,0.2-1.6,0.5s-0.9,0.8-1.3,1.4c-0.2-0.6-0.5-1.1-1-1.4c-0.4-0.3-1-0.5-1.6-0.5      c-0.5,0-1,0.2-1.5,0.5s-0.9,0.7-1.3,1.3V179H36v10.2h1.8v-7.1c0.3-0.5,0.7-0.9,1.1-1.3c0.4-0.3,0.8-0.5,1.2-0.5      c0.9,0,1.4,0.7,1.4,2.1v6.7h1.8V182c0.3-0.5,0.7-0.9,1.1-1.3c0.4-0.3,0.8-0.5,1.2-0.5c0.9,0,1.4,0.7,1.4,2.1v6.7h1.8v-6.9      c0-1.1-0.2-2-0.7-2.6C47.6,179,46.9,178.7,46,178.7z"
   id="path154" />
				<path
   fill="#FFFFFF"
   d="M48.9,189.2h-2v-6.8c0-1.3-0.4-2-1.3-2c-0.4,0-0.8,0.1-1.2,0.4s-0.8,0.7-1.1,1.2v7.1h-2v-6.8      c0-1.3-0.4-2-1.3-2c-0.4,0-0.8,0.1-1.2,0.4s-0.8,0.7-1.1,1.2v7.1h-2v-10.4h1.9v1.3c0.3-0.5,0.7-0.8,1.1-1.1      c0.5-0.3,1-0.5,1.6-0.5c0.7,0,1.2,0.2,1.7,0.5c0.4,0.3,0.7,0.7,0.9,1.3c0.4-0.6,0.8-1,1.2-1.3c0.5-0.3,1.1-0.5,1.6-0.5      c0.9,0,1.7,0.3,2.1,0.9c0.5,0.6,0.7,1.5,0.7,2.6v7.4H48.9z M47.1,189.1h1.6v-6.9c0-1.1-0.2-1.9-0.7-2.5s-1.1-0.9-2-0.9      c-0.5,0-1,0.2-1.5,0.5s-0.9,0.8-1.3,1.4l-0.1,0.2l-0.1-0.2c-0.2-0.6-0.5-1.1-0.9-1.4s-1-0.5-1.6-0.5c-0.5,0-1,0.2-1.5,0.4      c-0.5,0.3-0.9,0.7-1.2,1.3l-0.2,0.3v-1.7h-1.5v10h1.6v-7l0,0c0.3-0.5,0.7-1,1.1-1.3c0.4-0.3,0.9-0.5,1.3-0.5      c1,0,1.4,0.7,1.4,2.2v6.6h1.6v-7l0,0c0.3-0.5,0.7-1,1.1-1.3c0.4-0.3,0.9-0.5,1.3-0.5c1,0,1.4,0.7,1.4,2.2v6.6H47.1z"
   id="path156" />
			</g>
		</g>
		<g
   id="g168">
			<g
   id="g166">
				<path
   fill="#FFFFFF"
   d="M55.3,178.7c-1.2,0-2.1,0.3-2.7,1s-0.9,1.6-0.9,2.8v3.3c0,1.3,0.3,2.2,0.9,2.8c0.6,0.6,1.6,0.9,3,0.9      c0.6,0,1.5-0.1,2.8-0.4v-1.5c-1.1,0.2-2,0.3-2.8,0.3s-1.3-0.2-1.6-0.5s-0.5-0.8-0.5-1.5v-1.2h5.4v-2.1c0-1.2-0.3-2.1-0.9-2.8      C57.4,179,56.5,178.7,55.3,178.7z M57.1,183.2h-3.6v-1c0-0.6,0.2-1.1,0.5-1.5c0.3-0.3,0.8-0.5,1.3-0.5c0.6,0,1,0.2,1.3,0.5      s0.5,0.9,0.5,1.5V183.2z"
   id="path162" />
				<path
   fill="#FFFFFF"
   d="M55.6,189.5c-1.4,0-2.5-0.3-3.1-0.9s-0.9-1.6-0.9-2.8v-3.3c0-1.2,0.3-2.2,0.9-2.8c0.6-0.7,1.5-1,2.8-1      c1.2,0,2.1,0.3,2.8,1c0.6,0.7,1,1.6,1,2.8v2.2h-5.4v1.1c0,0.7,0.2,1.2,0.5,1.5s0.9,0.4,1.6,0.4c0.7,0,1.6-0.1,2.7-0.3h0.1v1.7      h-0.1C57.1,189.4,56.2,189.5,55.6,189.5z M55.3,178.8c-1.2,0-2.1,0.3-2.6,0.9c-0.6,0.6-0.9,1.5-0.9,2.7v3.3      c0,1.2,0.3,2.1,0.9,2.7c0.6,0.6,1.6,0.9,3,0.9c0.5,0,1.5-0.1,2.7-0.3v-1.4c-1.1,0.2-2,0.3-2.7,0.3c-0.8,0-1.3-0.2-1.7-0.5      s-0.5-0.9-0.5-1.6v-1.3h5.4v-2.1c0-1.2-0.3-2.1-0.9-2.7C57.3,179.1,56.4,178.8,55.3,178.8z M57.2,183.3h-3.8v-1.1      c0-0.7,0.2-1.2,0.5-1.5c0.3-0.4,0.8-0.5,1.4-0.5c0.6,0,1.1,0.2,1.4,0.5c0.3,0.4,0.5,0.9,0.5,1.6      C57.2,182.3,57.2,183.3,57.2,183.3z M53.6,183.1H57v-0.8c0-0.6-0.2-1.1-0.5-1.5c-0.3-0.3-0.7-0.5-1.3-0.5      c-0.5,0-0.9,0.2-1.2,0.5s-0.5,0.8-0.5,1.4L53.6,183.1L53.6,183.1z"
   id="path164" />
			</g>
		</g>
		<g
   id="g176">
			<g
   id="g174">
				<path
   fill="#FFFFFF"
   d="M66,178.7c-0.6,0-1.1,0.2-1.5,0.5c-0.5,0.3-0.9,0.7-1.3,1.3V179h-1.7v10.2h1.8v-7.1      c0.3-0.5,0.7-0.9,1.1-1.3c0.4-0.3,0.8-0.5,1.3-0.5c0.9,0,1.4,0.7,1.4,2.1v6.7h1.8v-6.9c0-1.1-0.2-2-0.7-2.6      C67.6,179,66.9,178.7,66,178.7z"
   id="path170" />
				<path
   fill="#FFFFFF"
   d="M68.9,189.2h-2v-6.8c0-1.3-0.4-2-1.3-2c-0.4,0-0.8,0.1-1.2,0.4c-0.4,0.3-0.8,0.7-1.1,1.2v7.1h-2v-10.4      h1.9v1.3c0.3-0.5,0.7-0.8,1.1-1.1c0.5-0.3,1-0.5,1.6-0.5c0.9,0,1.7,0.3,2.2,0.9s0.8,1.5,0.8,2.6V189.2z M67.1,189.1h1.6v-6.9      c0-1.1-0.2-1.9-0.7-2.5s-1.1-0.9-2-0.9c-0.5,0-1,0.2-1.5,0.4c-0.5,0.3-0.9,0.7-1.3,1.3l-0.2,0.2V179h-1.5v10h1.6v-7l0,0      c0.3-0.5,0.7-1,1.1-1.3c0.4-0.3,0.9-0.5,1.3-0.5c1,0,1.5,0.7,1.5,2.2L67.1,189.1L67.1,189.1z"
   id="path172" />
			</g>
		</g>
		<path
   fill="#FFFFFF"
   d="M85.8,161.4v1.6h-4v-1.6H85.8z"
   id="path178" />
	</g>
</g>
<style
   id="style191"
   type="text/css">
	.st0{fill:#AB0A3D;}
	.st1{fill:#FFFFFF;}
</style><g
   id="g225"
   transform="translate(-0.9,-89.4)">
	<rect
   id="rect193"
   height="299"
   width="131.89999"
   class="st0"
   y="0"
   x="0"
   style="fill:#ab0a3d" />
	<path
   id="path195"
   d="m 13.5,282.1 c -1.3,0 -2.3,-0.3 -2.9,-1 -0.6,-0.7 -0.9,-1.7 -0.9,-3 V 267 h 2 v 5.4 c 0.3,-0.4 0.7,-0.8 1.2,-1 0.5,-0.3 1,-0.4 1.6,-0.4 0.9,0 1.7,0.3 2.2,1 0.5,0.6 0.8,1.6 0.8,2.8 v 3.4 c 0,1.3 -0.3,2.3 -1,3 -0.6,0.6 -1.6,0.9 -3,0.9 z m -1.7,-7.7 v 3.9 c 0,0.7 0.2,1.2 0.5,1.6 0.3,0.4 0.7,0.5 1.3,0.5 1.3,0 1.9,-0.7 1.9,-2.1 v -3.4 c 0,-1.5 -0.4,-2.2 -1.3,-2.2 -0.4,0 -0.8,0.2 -1.2,0.5 -0.6,0.3 -0.9,0.7 -1.2,1.2 z m 10.5,7.5 h -2 v -10.7 h 1.9 v 1.4 c 0.4,-0.5 0.8,-0.9 1.2,-1.1 0.5,-0.3 1.1,-0.5 1.6,-0.5 0.2,0 0.4,0 0.5,0 h 0.1 v 2.3 h -0.1 c -0.2,0 -0.5,-0.1 -0.8,-0.1 -1,0 -1.8,0.5 -2.3,1.4 v 7.3 z m 8.9,0.2 c -1.5,0 -2.5,-0.3 -3.2,-1 -0.7,-0.6 -1,-1.6 -1,-2.9 v -3.4 c 0,-1.3 0.3,-2.3 1,-2.9 0.6,-0.7 1.6,-1 2.9,-1 1.2,0 2.2,0.3 2.9,1 0.7,0.7 1,1.7 1,2.9 v 2.3 h -5.6 v 1.2 c 0,0.7 0.2,1.2 0.5,1.5 0.3,0.3 0.9,0.5 1.6,0.5 0.8,0 1.7,-0.1 2.8,-0.3 h 0.1 l 0.1,1.8 h -0.1 c -1.4,0.2 -2.4,0.3 -3,0.3 z m -2.1,-6.6 h 3.6 v -0.9 c 0,-0.7 -0.2,-1.2 -0.5,-1.5 -0.3,-0.3 -0.8,-0.5 -1.3,-0.5 -0.5,0 -1,0.2 -1.3,0.5 -0.3,0.3 -0.5,0.8 -0.5,1.5 z m 21.4,6.4 h -2 v -7 c 0,-1.4 -0.4,-2.1 -1.3,-2.1 -0.4,0 -0.8,0.2 -1.2,0.5 -0.4,0.3 -0.8,0.7 -1.1,1.2 v 7.4 h -2 v -7 c 0,-1.4 -0.4,-2.1 -1.3,-2.1 -0.4,0 -0.8,0.2 -1.2,0.5 -0.4,0.3 -0.8,0.7 -1.1,1.2 v 7.4 h -2 v -10.7 h 1.9 v 1.4 c 0.3,-0.5 0.7,-0.9 1.2,-1.1 0.5,-0.3 1,-0.5 1.6,-0.5 0.7,0 1.3,0.2 1.7,0.5 0.4,0.3 0.7,0.8 1,1.3 0.4,-0.6 0.8,-1 1.3,-1.3 0.5,-0.3 1.1,-0.5 1.7,-0.5 1,0 1.7,0.3 2.2,1 0.5,0.6 0.8,1.6 0.8,2.7 v 7.2 z m 6.9,0.2 c -1.5,0 -2.5,-0.3 -3.2,-1 -0.7,-0.6 -1,-1.6 -1,-2.9 v -3.4 c 0,-1.3 0.3,-2.3 1,-2.9 0.6,-0.7 1.6,-1 2.9,-1 1.2,0 2.2,0.3 2.9,1 0.7,0.7 1,1.7 1,2.9 v 2.3 h -5.6 v 1.2 c 0,0.7 0.2,1.2 0.5,1.5 0.3,0.3 0.9,0.5 1.6,0.5 0.8,0 1.7,-0.1 2.8,-0.3 h 0.1 v 1.8 h -0.1 c -1.3,0.2 -2.3,0.3 -2.9,0.3 z m -2.1,-6.6 h 3.6 v -0.9 c 0,-0.7 -0.2,-1.2 -0.5,-1.5 -0.3,-0.3 -0.8,-0.5 -1.3,-0.5 -0.5,0 -1,0.2 -1.3,0.5 -0.3,0.3 -0.5,0.8 -0.5,1.5 z m 15.8,6.4 h -2 v -7 c 0,-1.4 -0.4,-2.1 -1.3,-2.1 -0.4,0 -0.8,0.2 -1.2,0.5 -0.4,0.3 -0.8,0.7 -1.1,1.2 v 7.4 h -2 v -10.7 h 1.9 v 1.4 c 0.4,-0.5 0.8,-0.9 1.2,-1.1 0.5,-0.3 1.1,-0.5 1.6,-0.5 1,0 1.7,0.3 2.2,1 0.5,0.6 0.8,1.6 0.8,2.7 v 7.2 z M 11.9,247.5 h -2 v -2.2 h 2 z m 0,2 h -2 v 10.7 h 2 z M 72,245.4 h -2 v 2.2 h 2 z m -49.4,7.5 c 0,-1.2 -0.3,-2.1 -0.8,-2.7 -0.5,-0.6 -1.3,-1 -2.2,-1 -0.6,0 -1.1,0.2 -1.6,0.5 -0.4,0.3 -0.8,0.7 -1.2,1.1 v -1.4 h -1.9 v 10.7 h 2 v -7.4 c 0.3,-0.5 0.7,-0.9 1.1,-1.2 0.4,-0.3 0.8,-0.5 1.2,-0.5 0.9,0 1.3,0.7 1.3,2.1 v 7 h 2 v -7.2 z m 8.6,5.8 v 1.5 h 2 v -14.9 h -2 v 4.9 c -0.4,-0.3 -0.7,-0.5 -1.2,-0.7 -0.5,-0.2 -0.9,-0.3 -1.4,-0.3 -1,0 -1.8,0.3 -2.4,1 -0.5,0.6 -0.8,1.6 -0.8,2.7 v 3.8 c 0,1.2 0.3,2.1 0.7,2.7 0.5,0.6 1.2,0.9 2.2,0.9 1,0.2 2,-0.4 2.9,-1.6 z M 30,251.4 c 0.4,0.2 0.7,0.4 1,0.7 v 4.7 c -0.3,0.6 -0.7,1.1 -1.1,1.4 -0.4,0.3 -0.8,0.5 -1.2,0.5 -0.9,0 -1.3,-0.7 -1.3,-2.1 v -3.3 c 0,-0.7 0.1,-1.3 0.4,-1.6 0.3,-0.3 0.6,-0.5 1.1,-0.5 0.4,-0.1 0.7,0 1.1,0.2 z m 10.6,8.6 v 0 c 0.4,-0.3 0.8,-0.6 1.2,-1.1 v 1.3 h 1.9 v -10.7 h -2 v 7.4 c -0.3,0.5 -0.7,0.9 -1.1,1.2 -0.4,0.3 -0.8,0.4 -1.2,0.4 -0.4,0 -0.7,-0.2 -0.9,-0.5 -0.2,-0.3 -0.3,-0.9 -0.3,-1.6 v -6.9 h -2 v 7.3 c 0,1.2 0.3,2.1 0.8,2.7 0.5,0.6 1.2,0.9 2.2,0.9 0.4,0.1 0.9,-0.1 1.4,-0.4 z M 52,259.7 c 0.6,-0.5 0.9,-1.3 0.9,-2.3 v -0.5 c 0,-1.1 -0.6,-2 -1.9,-2.6 l -2.1,-0.9 c -0.3,-0.2 -0.6,-0.3 -0.7,-0.5 -0.1,-0.1 -0.2,-0.3 -0.2,-0.6 v -0.2 c 0,-0.8 0.6,-1.2 1.9,-1.2 0.6,0 1.3,0.1 2.1,0.3 h 0.1 v -1.7 H 52 c -0.9,-0.2 -1.6,-0.3 -2.2,-0.3 -1.3,0 -2.2,0.3 -2.8,0.8 -0.6,0.5 -0.9,1.3 -1,2.3 v 0.3 c 0,0.6 0.2,1 0.5,1.5 0.3,0.4 0.8,0.8 1.5,1.1 l 2.1,0.9 c 0.3,0.1 0.5,0.3 0.7,0.5 0.1,0.2 0.2,0.4 0.2,0.8 v 0.2 c 0,0.4 -0.1,0.7 -0.4,0.9 -0.3,0.2 -0.7,0.3 -1.4,0.3 -0.7,0 -1.6,-0.2 -2.7,-0.5 h -0.1 l -0.1,1.8 v 0.1 h 0.1 c 1.2,0.3 2.2,0.5 2.8,0.5 1.3,-0.2 2.2,-0.5 2.8,-1 z m 8.7,0.5 v 0 -1.7 h -0.1 c -0.6,0.1 -1.2,0.2 -1.8,0.2 -0.5,0 -0.8,-0.1 -1,-0.3 -0.2,-0.2 -0.3,-0.6 -0.3,-1.1 v -6.1 h 2.8 v -1.7 h -2.8 v -2.8 h -1.7 l -0.4,2.8 H 54 v 1.7 h 1.5 v 5.9 c 0,1.2 0.3,2 0.8,2.6 0.5,0.5 1.4,0.8 2.6,0.8 0.6,0 1.2,-0.1 1.8,-0.3 z m 4,-7.3 c 0.6,-1 1.4,-1.4 2.3,-1.4 0.4,0 0.6,0 0.8,0.1 h 0.1 v -2.3 h -0.1 c -0.1,0 -0.3,0 -0.5,0 -0.6,0 -1.1,0.2 -1.6,0.5 -0.4,0.3 -0.8,0.7 -1.2,1.1 v -1.4 h -1.9 v 10.7 h 2 v -7.3 z m 7.3,-3.4 h -2 v 10.7 h 2 z m 9.8,10.6 v 0 -1.8 h -0.1 c -1.1,0.2 -2.1,0.3 -2.8,0.3 -0.7,0 -1.3,-0.2 -1.6,-0.5 -0.3,-0.3 -0.5,-0.8 -0.5,-1.5 v -1.2 h 5.6 v -2.3 c 0,-1.3 -0.3,-2.3 -1,-2.9 -0.7,-0.7 -1.6,-1 -2.9,-1 -1.3,0 -2.2,0.3 -2.9,1 -0.6,0.7 -1,1.7 -1,2.9 v 3.4 c 0,1.3 0.3,2.3 1,2.9 0.7,0.6 1.7,1 3.2,1 0.7,0.1 1.6,-0.1 3,-0.3 z m -5,-7.2 c 0,-0.6 0.2,-1.1 0.5,-1.5 0.3,-0.3 0.7,-0.5 1.3,-0.5 0.6,0 1,0.2 1.3,0.5 0.3,0.3 0.5,0.8 0.5,1.5 v 0.9 h -3.6 z m 20.2,7.3 v 0 -1.8 h -0.1 c -0.4,0.1 -0.8,0.2 -1.1,0.2 -0.3,0 -0.7,0.1 -1.1,0.1 -0.6,0 -1.1,-0.2 -1.5,-0.5 -0.4,-0.3 -0.5,-0.9 -0.5,-1.6 v -3.5 c 0,-0.7 0.2,-1.2 0.5,-1.5 v 0 c 0.3,-0.4 0.8,-0.5 1.5,-0.5 0.6,0 1.3,0.1 2.2,0.3 H 97 v -1.8 h -0.1 c -0.8,-0.2 -1.6,-0.3 -2.3,-0.3 -2.7,0 -4.1,1.3 -4.1,4 v 3.2 c 0,2.7 1.4,4 4,4 0.8,0 1.6,-0.1 2.5,-0.3 z m 4.6,-14.9 h -2 v 14.9 h 2 z m 7.5,14.7 c 0.4,-0.3 0.8,-0.6 1.2,-1.1 v 1.3 h 1.9 v -10.7 h -2 v 7.4 c -0.3,0.5 -0.7,0.9 -1.1,1.2 -0.4,0.3 -0.8,0.4 -1.2,0.4 -0.4,0 -0.7,-0.2 -0.9,-0.5 -0.2,-0.3 -0.3,-0.9 -0.3,-1.6 v -6.9 h -2 v 7.3 c 0,1.2 0.3,2.1 0.8,2.7 0.5,0.6 1.2,0.9 2.2,0.9 0.3,0.1 0.9,-0.1 1.4,-0.4 z m 12.7,-0.6 c 0.6,-0.7 1,-1.7 1,-3 V 253 c 0,-1.2 -0.3,-2.1 -0.8,-2.8 v 0 c -0.5,-0.6 -1.2,-1 -2.2,-1 -0.6,0 -1.1,0.1 -1.6,0.4 -0.4,0.3 -0.8,0.6 -1.2,1 v -5.4 h -2 v 11.1 c 0,1.3 0.3,2.4 0.9,3 0.6,0.7 1.6,1 2.9,1 1.4,0.2 2.4,-0.2 3,-0.9 z m -3.6,-7.9 c 0.4,-0.3 0.8,-0.5 1.2,-0.5 0.9,0 1.3,0.7 1.3,2.2 v 3.4 c 0,1.4 -0.6,2.1 -1.9,2.1 -0.6,0 -1,-0.2 -1.3,-0.5 -0.3,-0.4 -0.5,-0.9 -0.5,-1.6 v -3.9 c 0.4,-0.5 0.8,-0.9 1.2,-1.2 z m -33.8,1.6 v 1.6 h 4.2 v -1.6 z"
   class="st1"
   inkscape:connector-curvature="0"
   style="fill:#ffffff" />
	<g
   id="g223">
		<g
   id="g199">
			<path
   id="path197"
   d="m 100,216.2 5.8,5.9 C 95,231.2 78.7,230.6 68.7,220.3 58.6,210 58.3,193.8 67.7,183.1 l 5.8,5.9 c -6.1,7.5 -5.8,18.5 1.1,25.6 6.8,7.1 17.9,7.6 25.4,1.6 z"
   class="st1"
   inkscape:connector-curvature="0"
   style="fill:#ffffff" />
		</g>
		<g
   id="g203">
			<path
   id="path201"
   d="m 24.9,151.2 5.9,-5.7 34,34.7 c -1.9,2.1 -3.5,4.5 -4.7,6.9 z"
   class="st1"
   inkscape:connector-curvature="0"
   style="fill:#ffffff" />
		</g>
		
			<rect
   id="rect205"
   height="8.1999998"
   width="8.1999998"
   class="st1"
   transform="matrix(0.7147,-0.6995,0.6995,0.7147,-93.3601,56.1339)"
   y="138.39999"
   x="18"
   style="fill:#ffffff" />
		
			<rect
   id="rect207"
   height="8.1999998"
   width="8.1999998"
   class="st1"
   transform="matrix(0.7147,-0.6995,0.6995,0.7147,-76.3011,63.5245)"
   y="121.2"
   x="35.599998"
   style="fill:#ffffff" />
		
			<rect
   id="rect209"
   height="8.1999998"
   width="8.1999998"
   class="st1"
   transform="matrix(0.7147,-0.6995,0.6995,0.7147,-67.6362,67.2784)"
   y="112.4"
   x="44.5"
   style="fill:#ffffff" />
		<rect
   id="rect211"
   height="8.1999998"
   width="8.1999998"
   class="st1"
   transform="matrix(0.7147,-0.6995,0.6995,0.7147,-59.256,70.909)"
   y="104"
   x="53.200001"
   style="fill:#ffffff" />
		
			<rect
   id="rect213"
   height="8.1999998"
   width="8.1999998"
   class="st1"
   transform="matrix(0.7147,-0.6995,0.6995,0.7147,-75.0284,84.3412)"
   y="130"
   x="61.799999"
   style="fill:#ffffff" />
		
			<rect
   id="rect215"
   height="8.1999998"
   width="8.1999998"
   class="st1"
   transform="matrix(0.7147,-0.6995,0.6995,0.7147,-83.6933,80.5872)"
   y="138.8"
   x="52.799999"
   style="fill:#ffffff" />
		
			<rect
   id="rect217"
   height="8.1999998"
   width="8.1999998"
   class="st1"
   transform="matrix(0.7147,-0.6995,0.6995,0.7147,-79.9972,72.0559)"
   y="130"
   x="44.200001"
   style="fill:#ffffff" />
		
			<rect
   id="rect219"
   height="8.1999998"
   width="8.1999998"
   class="st1"
   transform="matrix(0.7147,-0.6995,0.6995,0.7147,-79.9972,72.0559)"
   y="130"
   x="44.200001"
   style="fill:#ffffff" />
		<path
   id="path221"
   d="M 77.8,175.9 31,128.1 l -5.9,5.7 51.2,52.3 c 7.6,-6 18.6,-5.4 25.5,1.6 6.9,7.1 7.2,18.1 1.1,25.6 l 5.8,5.9 c 9.4,-10.6 9.1,-26.9 -1,-37.2 -8,-8.1 -19.9,-10.2 -29.9,-6.1 z"
   class="st1"
   inkscape:connector-curvature="0"
   style="fill:#ffffff" />
	</g>
</g></svg>