<svg width="1683" height="146" viewBox="0 0 1683 146" fill="none" xmlns="http://www.w3.org/2000/svg">
<path d="M56.912 145.953C43.1773 145.953 32.1765 143.675 23.9096 139.118C15.6427 134.496 9.65412 127.954 5.94379 119.492C2.29855 111.03 0.47593 100.941 0.47593 89.2238V2.81213H29.4751V91.3719C29.4751 101.917 32.0137 109.631 37.091 114.513C42.1683 119.33 48.7753 121.738 56.912 121.738C62.3148 121.738 67.0992 120.697 71.2651 118.614C75.4311 116.465 78.6858 113.178 81.0292 108.752C83.4376 104.26 84.6419 98.4671 84.6419 91.3719V2.81213H113.446V90.2002C113.446 101.592 111.591 111.486 107.88 119.883C104.17 128.215 98.1488 134.659 89.8168 139.216C81.5499 143.707 70.5817 145.953 56.912 145.953ZM130.071 144V2.81213H158.289L222.731 96.2539V2.81213H251.242V144H225.563L158.484 46.8479V144H130.071ZM271.107 144V2.81213H299.521V144H271.107ZM350.024 144V28.1986H307.355V2.81213H420.325V28.1986H378.632V144H350.024ZM428.079 144V2.81213H525.036L524.939 26.8316H456.688V61.1034H515.956V84.6347H456.493V119.688L526.013 119.785V144H428.079ZM540.892 144V2.81213C541.608 2.81213 543.593 2.81213 546.848 2.81213C550.168 2.81213 554.041 2.81213 558.467 2.81213C562.959 2.81213 567.418 2.84468 571.844 2.90978C576.335 2.90978 580.078 2.94232 583.073 3.00741C600.192 3.39797 614.155 6.45737 624.96 12.1856C635.766 17.9138 643.675 25.9203 648.687 36.2051C653.764 46.4899 656.303 58.6624 656.303 72.7226C656.303 87.3686 653.634 100.029 648.296 110.705C642.959 121.315 634.789 129.517 623.789 135.31C612.853 141.103 598.955 144 582.096 144H540.892ZM569.598 120.957H582.682C590.754 120.957 598.077 119.395 604.651 116.27C611.291 113.146 616.596 108.036 620.567 100.941C624.537 93.8454 626.523 84.3743 626.523 72.5273C626.523 61.5265 624.765 52.6087 621.25 45.7739C617.735 38.8739 612.723 33.8292 606.213 30.6396C599.704 27.45 591.99 25.8552 583.073 25.8552H569.598V120.957ZM691.612 144L742.092 2.81213H772.263L822.743 144H794.33L782.808 111.291H731.937L720.221 144H691.612ZM738.382 86.3922H775.876L757.226 30.2491L738.382 86.3922ZM832.226 144V2.81213H891.787C903.048 2.81213 912.259 4.60221 919.419 8.18235C926.579 11.7625 931.852 16.7421 935.237 23.1213C938.622 29.4354 940.314 36.7259 940.314 44.9927C940.314 52.4134 939.142 58.6949 936.799 63.8373C934.521 68.9146 931.494 73.1457 927.718 76.5306C924.008 79.9154 919.94 82.6819 915.513 84.83L941.779 144H912.194L889.248 89.6144H860.64V144H832.226ZM860.64 67.6453H886.71C894.325 67.6453 900.347 65.5948 904.773 61.494C909.264 57.3931 911.51 52.1205 911.51 45.6762C911.51 39.1669 909.362 34.0245 905.066 30.2491C900.77 26.4736 895.334 24.5859 888.76 24.5859H860.64V67.6453ZM985.136 144V28.1986H942.467V2.81213H1055.44V28.1986H1013.74V144H985.136ZM1115.73 145.953C1108.7 145.953 1101.83 145.074 1095.13 143.317C1088.42 141.559 1082.31 138.923 1076.77 135.408C1071.24 131.893 1066.68 127.499 1063.1 122.226C1059.59 116.954 1057.47 110.77 1056.76 103.675H1085.95C1086.93 107.971 1088.78 111.583 1091.52 114.513C1094.32 117.442 1097.9 119.688 1102.26 121.25C1106.68 122.812 1111.73 123.593 1117.39 123.593C1121.88 123.593 1126.15 122.942 1130.18 121.64C1134.22 120.339 1137.5 118.353 1140.04 115.684C1142.58 113.015 1143.85 109.663 1143.85 105.627C1143.85 100.81 1142.09 97.1978 1138.58 94.7893C1135.06 92.3157 1130.28 90.3629 1124.23 88.9309L1097.77 83.1701C1090.28 81.6079 1083.74 79.1994 1078.14 75.9447C1072.61 72.6249 1068.34 68.3288 1065.35 63.0562C1062.35 57.7185 1060.86 51.2417 1060.86 43.6258C1060.86 34.8381 1063.27 27.2548 1068.08 20.8756C1072.96 14.4964 1079.57 9.61441 1087.9 6.22955C1096.3 2.77959 1105.71 1.05461 1116.12 1.05461C1127.9 1.05461 1137.83 2.97487 1145.9 6.81538C1154.04 10.5908 1160.25 15.7332 1164.55 22.2425C1168.85 28.6868 1171.03 35.8797 1171.09 43.8211H1142.58C1142.06 38.939 1140.56 35.0334 1138.09 32.1042C1135.62 29.1099 1132.43 26.9618 1128.52 25.66C1124.68 24.293 1120.29 23.6095 1115.34 23.6095C1106.81 23.6095 1100.6 25.3345 1096.69 28.7845C1092.79 32.2344 1090.83 36.2377 1090.83 40.7942C1090.83 45.0904 1092.3 48.5729 1095.23 51.2417C1098.22 53.8455 1103.01 55.8308 1109.58 57.1978L1134.09 62.4704C1143.2 64.2279 1150.59 67.0269 1156.25 70.8674C1161.91 74.6428 1166.05 79.2319 1168.65 84.6347C1171.26 90.0375 1172.56 96.0912 1172.56 102.796C1172.56 111.323 1170.12 118.841 1165.23 125.351C1160.42 131.795 1153.75 136.84 1145.22 140.485C1136.69 144.13 1126.86 145.953 1115.73 145.953ZM1276.15 145.953C1263 145.953 1251.64 142.893 1242.07 136.775C1232.5 130.656 1225.11 122.063 1219.91 110.998C1214.76 99.9317 1212.19 87.0106 1212.19 72.2344C1212.19 57.3931 1214.76 44.6673 1219.91 34.057C1225.05 23.3817 1232.4 15.1799 1241.97 9.45168C1251.54 3.72345 1262.93 0.859328 1276.15 0.859328C1286.76 0.859328 1296.2 3.00741 1304.46 7.30359C1312.8 11.5347 1319.5 17.328 1324.58 24.6836C1329.72 32.0391 1332.75 40.3386 1333.66 49.5818H1303.78C1302.87 44.6998 1301.21 40.3711 1298.8 36.5957C1296.39 32.7552 1293.23 29.7609 1289.33 27.6128C1285.42 25.3996 1280.74 24.293 1275.27 24.293C1268.69 24.293 1263.03 25.8878 1258.28 29.0774C1253.53 32.267 1249.88 37.4093 1247.34 44.5045C1244.81 51.5997 1243.54 60.9732 1243.54 72.6249C1243.54 90.2002 1246.33 102.926 1251.93 110.802C1257.6 118.614 1265.37 122.519 1275.27 122.519C1280.74 122.519 1285.42 121.282 1289.33 118.809C1293.23 116.27 1296.39 112.95 1298.8 108.849C1301.21 104.684 1302.87 100.127 1303.78 95.1799H1333.66C1332.81 101.884 1331.18 108.296 1328.78 114.415C1326.37 120.469 1322.95 125.871 1318.52 130.623C1314.1 135.375 1308.4 139.118 1301.44 141.852C1294.47 144.586 1286.04 145.953 1276.15 145.953ZM1347.09 144V2.81213H1375.79V119.883H1437.11V144H1347.09ZM1500.32 145.953C1486.58 145.953 1475.58 143.675 1467.32 139.118C1459.05 134.496 1453.06 127.954 1449.35 119.492C1445.7 111.03 1443.88 100.941 1443.88 89.2238V2.81213H1472.88V91.3719C1472.88 101.917 1475.42 109.631 1480.5 114.513C1485.57 119.33 1492.18 121.738 1500.32 121.738C1505.72 121.738 1510.5 120.697 1514.67 118.614C1518.84 116.465 1522.09 113.178 1524.43 108.752C1526.84 104.26 1528.05 98.4671 1528.05 91.3719V2.81213H1556.85V90.2002C1556.85 101.592 1555 111.486 1551.29 119.883C1547.58 128.215 1541.55 134.659 1533.22 139.216C1524.96 143.707 1513.99 145.953 1500.32 145.953ZM1573.48 144V2.81213H1624.64C1643.13 2.81213 1656.83 6.00172 1665.75 12.3809C1674.73 18.695 1679.22 27.8406 1679.22 39.8178C1679.22 46.8479 1677.43 52.9667 1673.85 58.1742C1670.27 63.3166 1663.89 67.808 1654.71 71.6485C1660.64 73.1457 1665.42 75.1636 1669.07 77.7022C1672.71 80.2409 1675.51 83.0725 1677.46 86.1969C1679.42 89.2563 1680.75 92.4785 1681.47 95.8633C1682.18 99.1831 1682.54 102.47 1682.54 105.725C1682.54 118.744 1678.11 128.378 1669.26 134.627C1660.41 140.876 1646.32 144 1626.98 144H1573.48ZM1601.89 121.933H1627.57C1636.16 121.933 1642.64 120.208 1647 116.758C1651.43 113.308 1653.64 108.687 1653.64 102.893C1653.64 98.7275 1652.56 95.2449 1650.42 92.4459C1648.27 89.5818 1645.34 87.4337 1641.63 86.0017C1637.98 84.5696 1633.82 83.8536 1629.13 83.8536H1601.89V121.933ZM1601.89 61.201H1629.13C1632.06 61.201 1634.86 60.8756 1637.53 60.2246C1640.26 59.5086 1642.67 58.4346 1644.75 57.0025C1646.9 55.5704 1648.59 53.7478 1649.83 51.5346C1651.07 49.2564 1651.69 46.5875 1651.69 43.5281C1651.69 37.4093 1649.38 32.7877 1644.75 29.6632C1640.2 26.4736 1634.34 24.8788 1627.18 24.8788H1601.89V61.201Z" fill="#323232"/>
</svg>
