<svg xmlns="http://www.w3.org/2000/svg" width="68.184" height="113.751" viewBox="0 0 68.184 113.751">
  <g id="logo_matisse" transform="translate(-2.475 -1.294)">
    <path id="Path_1" data-name="Path 1" d="M13.839,18.138H31.9l3.613-5.417S38.14,8.432,33.705,6.4c-2.068-.675-2.711,0-2.711,0s-2.068-2.973-4.513-1.353a3.689,3.689,0,0,0-3.613-1.356,3.691,3.691,0,0,0-3.613,1.356C16.809,3.431,14.744,6.4,14.744,6.4s-.64-.675-2.711,0c-4.438,2.031-1.8,6.319-1.8,6.319ZM32.8,8.208c1.994.75.9,3.16.9,3.16l-2.714,4.51h-1.8S31.976,9.788,32.8,8.208ZM27.38,6.85s.227-.6,1.812,0c1.767.942.446,3.616.446,3.616l-3.16,5.415h-.9Zm-4.513-.9c3.275.109,2.258,2.706,2.258,2.706l-1.35,6.322H21.965L20.61,8.657S19.6,6.063,22.867,5.951Zm-6.319.9c1.577-.6,1.807,0,1.807,0l1.8,9.026h-.9l-3.162-5.409S14.781,7.792,16.548,6.85ZM12.937,8.208c.827,1.577,3.611,7.67,3.611,7.67H14.741l-2.706-4.51S10.946,8.958,12.937,8.208Z" transform="translate(11.645 3.921)" fill="#0166A6"/>
    <path id="Path_2" data-name="Path 2" d="M11.1,9.413l1.356,2.709H27.8l1.353-2.709H11.1Z" transform="translate(14.387 13.548)" fill="#0166A6"/>
    <circle id="Ellipse_1" data-name="Ellipse 1" cx="2.709" cy="2.709" r="2.709" transform="translate(31.803 1.294)" fill="#0166A6"/>
    <path id="Path_3" data-name="Path 3" d="M26.367,77.9s-14.424-5.46-14.424-30.212c1.58-10.608,4.889-27.61,24.379-29.791,8.2.072,14.144-.376,21.667,15.8l2.258-.451L58.44,21.058S29.519,2.529,8.786,28.28c-10.9,15.188-5.719,36.337.9,45.144a26.523,26.523,0,0,0,16.706,9.93Z" transform="translate(0 22.217)" fill="#0166A6"/>
    <path id="Path_4" data-name="Path 4" d="M19.118,20.407S-4.775,37.332,15.539,57.425c3.611,3.611,17.226,7.144,26.18.9.155-1.879.907-8.569.907-8.569s-1.585,10.381-14.9,9.928c-5.42-.753-13.995-6.768-13.995-18.513s5.417-17.149,5.417-17.149Z" transform="translate(8.14 31.894)" fill="#0166A6"/>
    <path id="Path_5" data-name="Path 5" d="M16.68,21.819a10.281,10.281,0,0,1,8.577,8.126c.827.075.9,0,.9,0l-1.8-9.028L16.68,19.561v2.258Z" transform="translate(23.703 30.482)" fill="#0166A6"/>
    <path id="Path_6" data-name="Path 6" d="M31.888,18.381s-.606-2.4,4.513-2.706,7.219-.451,7.219-.451a3.38,3.38,0,0,0,.4-1.812,3.3,3.3,0,0,0-.4-1.8H7.964s-1.5,2.106,0,3.611c2.335,0,8.577.451,8.577.451s3.611,1.446,3.611,3.256" transform="translate(8.044 17.219)" fill="#0166A6"/>
    <path id="Path_7" data-name="Path 7" d="M22.943,65.283s.456-42.128.456-48.746c-5.271-1.356-11.286,2.3-11.286,2.3V60.773C15.049,65.811,22.943,65.283,22.943,65.283Z" transform="translate(16.082 24.932)" fill="#0166A6"/>
    <path id="Path_8" data-name="Path 8" d="M35.777,53.408s-4.6,0-4.964-6.319V37.606s-7.523,0-10.838-1.809V47.534s.075,4.668-6.319,6.325c-3.16.224-5.417.448-5.417.448a2.6,2.6,0,0,0,0,3.162H42.993s.9-.606,0-3.162C40.289,53.936,35.777,53.408,35.777,53.408Z" transform="translate(8.668 57.575)" fill="#0166A6"/>
    <path id="Path_9" data-name="Path 9" d="M45.531,28.529C44.325,28.6,18,28.98,18,28.98a1.9,1.9,0,0,0,0,2.709c2.034-.075,7.673.448,7.673.448s3.16.755,3.16,3.613V49.743s.574,4.619-7.219,6.77a12.178,12.178,0,0,1-4.638.758l.12,3.758s7.979.827,19.86-8.126V33.944s-.069-2.711,4.515-2.711,4.964-.456,4.964-.456S46.737,28.449,45.531,28.529Z" transform="translate(24.192 45.444)" fill="#0166A6"/>
  </g>
</svg>
