<?xml version="1.0" encoding="UTF-8"?>
<svg width="282px" height="27px" viewBox="0 0 282 27" version="1.1" xmlns="http://www.w3.org/2000/svg" xmlns:xlink="http://www.w3.org/1999/xlink">
    <!-- Generator: Sketch 62 (91390) - https://sketch.com -->
    <title>ic-logo / default</title>
    <desc>Created with Sketch.</desc>
    <defs>
        <polygon id="path-1" points="0.0933541985 0.491162659 18.8172931 0.491162659 18.8172931 27.2430025 0.0933541985 27.2430025"></polygon>
        <polygon id="path-3" points="0.438714504 0.455316603 22.4117527 0.455316603 22.4117527 27.2430025 0.438714504 27.2430025"></polygon>
        <polygon id="path-5" points="0.606479389 0.144244529 15.4152824 0.144244529 15.4152824 25.9720448 0.606479389 25.9720448"></polygon>
    </defs>
    <g id="⚛️-Symbols" stroke="none" stroke-width="1" fill="none" fill-rule="evenodd">
        <g id="menu-expanded" transform="translate(-21.000000, -64.000000)">
            <g id="Group-8">
                <g id="ic-logo-/-blue" transform="translate(21.000000, 58.000000)">
                    <g id="Group-26" transform="translate(0.000000, 5.250000)">
                        <polygon id="Fill-1" fill="#AC8253" points="0 1.12284186 0 6.28825852 2.76977099 6.28825852 2.76977099 21.8217884 0 21.8217884 0 26.987922 10.672229 26.987922 10.672229 21.8217884 7.94048855 21.8217884 7.94048855 6.28825852 10.672229 6.28825852 10.672229 1.12284186"></polygon>
                        <g id="Group-25" transform="translate(18.656489, 0.261963)">
                            <path d="M7.82022595,21.5601122 C12.1040427,21.5601122 15.5755847,18.0543679 15.5755847,13.7750658 C15.5755847,9.49504669 12.1040427,6.02658232 7.82022595,6.02658232 L5.67831756,6.02658232 L5.67831756,21.5601122 L7.82022595,21.5601122 Z M7.82022595,0.861165649 C9.55527939,0.861165649 11.254455,1.19310013 12.8431267,1.85768601 C14.3937679,2.52083804 15.7592794,3.4427986 16.9410962,4.62428461 C18.1609435,5.84161667 19.0837221,7.2073514 19.7115847,8.75661794 C20.4133557,10.3431644 20.7455847,12.0408336 20.7455847,13.7750658 C20.7455847,15.5458609 20.4133557,17.2435302 19.7115847,18.8293597 C19.0837221,20.3800601 18.1609435,21.7443609 16.9410962,22.92513 C15.7592794,24.1058991 14.3937679,25.0658565 12.8431267,25.6931625 C11.254455,26.3943113 9.55527939,26.7262458 7.82022595,26.7262458 L2.61291298,26.7262458 L2.61291298,26.6889659 L0.5076,26.6889659 L0.5076,0.861165649 L7.82022595,0.861165649 Z" id="Fill-2" fill="#AC8253"></path>
                            <polygon id="Fill-4" fill="#AC8253" points="43.8172031 6.02658232 31.7414321 6.02658232 31.7414321 10.7862216 41.7126076 10.7862216 41.7126076 15.9523552 31.7414321 15.9523552 31.7414321 21.5601122 43.7074168 21.5601122 43.7074168 26.7262458 26.5714321 26.7262458 26.5714321 0.861165649 43.8172031 0.861165649"></polygon>
                            <path d="M65.0429771,16.7629062 L62.3471145,11.0081804 L59.4295267,16.7629062 L65.0429771,16.7629062 Z M67.4805191,21.9297567 L56.7709771,21.9297567 L54.3334351,26.725959 L48.5362901,26.725959 L61.7199695,0.86087888 L63.2340153,0.86087888 L75.4576031,26.725959 L69.7336489,26.725959 L67.4805191,21.9297567 Z" id="Fill-6" fill="#AC8253"></path>
                            <g id="Group-10" transform="translate(77.496183, 0.000000)">
                                <mask id="mask-2" fill="white">
                                    <use xlink:href="#path-1"></use>
                                </mask>
                                <g id="Clip-9"></g>
                                <path d="M9.06784275,15.7673179 C8.21825496,15.5457892 6.63030076,15.1407288 5.15285038,14.1442085 C3.08485038,12.7791906 1.94034656,10.7861499 1.82984275,8.31420592 C1.71862137,6.24803925 2.38379695,4.43996419 3.71343053,3.0383834 C5.63361374,1.04534268 8.40266718,0.491162659 9.73230076,0.491162659 C13.4994763,0.491162659 15.6040718,1.85761431 17.4876595,3.07494637 L18.3372473,3.62840948 L15.6413847,8.01811749 L14.7178885,7.42809141 C13.0567435,6.3584451 11.9854305,5.65729625 9.73230076,5.65729625 C9.40007176,5.65729625 8.10703359,5.91610477 7.44257557,6.6165367 C7.22085038,6.83806533 6.96324733,7.24384268 6.99984275,8.09339421 C7.03643817,9.42113212 7.95993435,10.1595609 10.3228504,10.749587 C10.618484,10.8234298 10.8402092,10.8972727 11.0612168,10.9711156 C13.5360718,11.8192333 15.456255,12.9634394 16.7858885,14.4023001 C18.1155221,15.8777237 18.8172931,17.6119559 18.8172931,19.4573109 C18.8172931,21.2653859 18.0423313,23.1473039 16.7492931,24.5868815 C15.2352473,26.2831169 13.1299344,27.2430742 10.8036137,27.2430742 C9.65839237,27.2430742 8.10703359,27.1685144 6.26075878,26.6150513 C3.93443817,25.8773395 1.86643817,24.5868815 0.0933541985,22.7042466 L3.86124733,19.1619394 C6.59298779,22.0762237 9.65839237,22.0762237 10.8036137,22.0762237 C12.9455221,22.0762237 13.6472931,20.1211798 13.6472931,19.4573109 C13.6472931,18.0542962 12.0586214,16.7631213 9.36347634,15.8411608 L9.25225496,15.8045978 L9.06784275,15.7673179 Z" id="Fill-8" fill="#AC8253" mask="url(#mask-2)"></path>
                            </g>
                            <g id="Group-13" transform="translate(118.396947, 0.000000)">
                                <mask id="mask-4" fill="white">
                                    <use xlink:href="#path-3"></use>
                                </mask>
                                <g id="Clip-12"></g>
                                <path d="M18.7931115,7.13343683 C13.7702107,3.88650108 6.19998168,6.91190821 6.19998168,13.848837 C6.19998168,21.1177002 14.2136611,24.0327015 19.088745,20.3427085 L22.4117527,24.1431073 C20.0861496,26.0623052 17.0939359,27.2430742 13.8441191,27.2430742 C6.45830229,27.2430742 0.438714504,21.228106 0.438714504,13.848837 C0.438714504,6.46956788 6.45830229,0.455316603 13.8441191,0.455316603 C16.9461191,0.455316603 19.8271115,1.52496291 22.1161191,3.29575808 L18.7931115,7.13343683 Z" id="Fill-11" fill="#AC8253" mask="url(#mask-4)"></path>
                            </g>
                            <path d="M160.925847,16.7629062 L158.230702,11.0081804 L155.312397,16.7629062 L160.925847,16.7629062 Z M163.363389,21.9297567 L152.653847,21.9297567 L150.217023,26.725959 L144.41916,26.725959 L157.60284,0.86087888 L159.116885,0.86087888 L171.341191,26.725959 L165.616519,26.725959 L163.363389,21.9297567 Z" id="Fill-14" fill="#AC8253"></path>
                            <polygon id="Fill-16" fill="#AC8253" points="218.119466 0.861093957 218.119466 6.02651062 210.954656 6.02651062 210.954656 26.7261741 205.784656 26.7261741 205.784656 6.02651062 198.582534 6.02651062 198.582534 0.861093957"></polygon>
                            <polygon id="Fill-18" fill="#AC8253" points="240.637058 6.02658232 228.561287 6.02658232 228.561287 10.7862216 238.531745 10.7862216 238.531745 15.9523552 228.561287 15.9523552 228.561287 21.5601122 240.526554 21.5601122 240.526554 26.7262458 223.391287 26.7262458 223.391287 0.861165649 240.637058 0.861165649"></polygon>
                            <g id="Group-22" transform="translate(247.557252, 0.716921)">
                                <mask id="mask-6" fill="white">
                                    <use xlink:href="#path-5"></use>
                                </mask>
                                <g id="Clip-21"></g>
                                <polygon id="Fill-20" fill="#AC8253" mask="url(#mask-6)" points="5.77719695 20.8431911 15.415426 20.8431911 15.415426 25.9720448 0.606479389 25.9720448 0.606479389 0.144244529 5.77719695 0.144244529"></polygon>
                            </g>
                            <path d="M185.96185,11.1458293 L181.337911,11.1458293 L181.337911,5.89868359 L185.96185,5.89868359 C187.410598,5.89868359 188.58811,7.07443422 188.58811,8.52261489 C188.58811,9.97007863 187.410598,11.1458293 185.96185,11.1458293 L185.96185,11.1458293 Z M190.05695,15.1935659 C192.305774,13.8099081 193.821973,11.3487179 193.821973,8.52261489 C193.821973,4.19241132 190.295896,0.670177863 185.96185,0.670177863 L176.104049,0.670177863 L176.104049,26.8492695 L181.337911,26.8492695 L181.337911,16.3750519 L184.255499,16.3750519 L189.347285,22.5599304 C191.604003,25.3057383 194.939927,26.880814 198.496858,26.880814 L198.496858,21.6515913 C196.511377,21.6515913 194.650034,20.773363 193.387133,19.2391518 L190.05695,15.1935659 Z" id="Fill-23" fill="#AC8253"></path>
                        </g>
                    </g>
                </g>
            </g>
        </g>
    </g>
</svg>