<svg xmlns="http://www.w3.org/2000/svg" width="299.7mm" height="368.1mm" viewBox="0 0 849.4 1043.5"><defs><style>.cls-1{fill:#9f8833}.cls-3{fill:#7f1621}.cls-4{fill:none;stroke:#c49109;stroke-miterlimit:10;stroke-width:2.1px}.cls-5{fill:#c49109}</style></defs><g id="Layer_1"><path class="cls-3" d="M648.9 541s2.6 67.4 71.9 109.3c4.1 2.5 5.7 7.7 3.6 12.1l-18.2 36.9c-2 4.1-6.2 6.7-10.7 6.7s-1.9-.1-2.8-.3c-1.9-.5-3.9-.8-5.9-.8-3.6 0-7.2 1-9.8 4.1 0 0-9.9 8 6.8 22.5 3.5 3 4.3 8.1 1.9 12.1l-17.8 29.9c-1.8 3.1-5.1 4.9-8.6 4.9s-2.1-.2-3.2-.5c-4.7-1.6-11.6-3.2-19.8-3.2-16.8 0-39.5 6.7-62.5 33.7 0 0-13.3 17.1-31.9 48 0 0-39.4 64.6-117.3 70.8h-.2c-77.9-6.2-117.3-70.8-117.3-70.8-18.5-30.8-31.9-48-31.9-48-22.9-27.1-45.7-33.7-62.5-33.7s-15.1 1.6-19.8 3.2c-1 .4-2.1.5-3.2.5-3.4 0-6.7-1.8-8.6-4.9l-17.8-29.9c-2.4-4-1.6-9.1 1.9-12.1C181.9 717 172 709 172 709c-2.6-3.1-6.2-4.1-9.8-4.1s-4 .3-5.9.8c-.9.2-1.9.3-2.8.3-4.4 0-8.6-2.5-10.7-6.7l-18.2-36.9c-2.2-4.3-.6-9.6 3.5-12.1C197.3 608.4 200 541 200 541c2.4-28.3-37.6-39.5-37.6-39.5-26.1-6.6-39.3-28.7-39.3-28.7-7.3-11.4-4.7-21.9-4.7-21.9 1.2-3.3.9-8.7.9-8.7-.7-2-1.3-9.3-1.3-9.3.8-10.9 5.4-14 10.2-14s13.2 5.2 13.2 5.2c2.4 2.3 5.2 4 8 5.2 2.8 1.2 5.6 2 8 2.4 3.1.6 5.5.6 6.2.6h.3c1.4-.3 2.7-.4 4-.4 7.2 0 11.7 3.6 11.7 3.6 9.7 7 19.9 8.7 19.9 8.7-12.2-59.1-34.2-96.7-34.2-96.7-7.2-12.1-22.1-16.4-33-17.9-7.5-1-13.1-7.5-13.1-15V197.4c0-5.3 3.9-9.8 9.1-10.4 83.6-11.3 116-34.3 116-34.3 62.3-39 102.6-44.1 102.6-44.1 6-1.1 11.7-1.7 17-1.7 39.8 0 58.8 28.7 60.3 31.1 1.5-2.4 20.5-31.1 60.3-31.1s11 .5 17 1.7c0 0 40.3 5.1 102.6 44.1 0 0 32.4 23 116 34.3 5.2.7 9.1 5.2 9.1 10.4v117.2c0 7.6-5.6 14-13.1 15-10.9 1.5-25.8 5.7-33 17.9 0 0-22 37.6-34.2 96.7 0 0 10.2-1.7 19.9-8.7 0 0 4.5-3.6 11.7-3.6s2.6.1 4 .4h.3c.8 0 3.2 0 6.2-.6 2.4-.4 5.2-1.1 8-2.4 2.8-1.2 5.5-2.9 8-5.2 0 0 6.9-5.2 13.2-5.2s9.5 3.1 10.3 14c0 0-.6 7.3-1.3 9.3 0 0-.3 5.4.9 8.7 0 0 2.6 10.5-4.7 21.9 0 0-13.2 22.1-39.3 28.7 0 0-40 11.2-37.6 39.5"/><path class="cls-1" d="M425.2 840.8h-.5.5m-.6 0h-.6.6m230.7-361.7c.2-.2.4-.5.7-.7l-.7.7zm4.8-4.2c.7-.5 1.4-.9 2.1-1.3-.7.4-1.4.8-2.1 1.3m29.5-22.5v-.4.4m-34.3 26.7l.7-.7-.7.7z"/><path class="cls-1" d="M660.1 474.9c.7-.5 1.4-.9 2.1-1.3-.7.4-1.4.8-2.1 1.3m29.6-23.1v.1"/><path class="cls-5" d="M435.8 795.3c-9.3 0-19.2-1.6-29.3-5.6h-.2c-1.4-.7-35.1-15.8-55.6-40.7-4-4.5-9-15.9-.1-27.4 1.4-1.8 34.8-46.2 73.8-47.2.9 0 23.1.3 39.4 7.1 1 .3 8.6 2.7 17.4 3.6 6.2.7 10.9 5.9 10.9 12.1v21.2c0 3.8-1.8 7.4-4.8 9.7-3.1 2.3-7 3.1-10.7 2-7.6-2.2-14.7-6.5-21.1-12.8l-.3-.3c-.7-.9-18.7-21.4-46.4-1.3-1.2 1.1-11.2 10.8-11 21.4.1 5.3 2.7 10 8 14.4 3 1.9 36.4 21.4 76.5-1.6 4.6-2.7 10.3-2 14.2 1.6l6.5 6.1c1.5 1.4 2.4 3.4 2.3 5.5 0 2.1-1 4.1-2.6 5.4-8.7 7.4-34.7 26.8-67.1 26.8m-26-13c40.3 15.8 76.5-10.2 87.6-19.4l-5.9-5.5c-1.3-1.2-3.2-1.4-4.8-.5-45.5 26.1-83.4 2.3-85 1.3l-.4-.3c-7.2-5.9-11-12.9-11.1-20.6-.3-15 13.3-27.1 13.8-27.6l.3-.2c32.4-23.6 55-.1 57.2 2.3 5.4 5.3 11.4 8.9 17.6 10.7 1.3.4 2.6.1 3.7-.7 1-.8 1.6-2 1.6-3.3v-21.2c0-2.1-1.6-3.9-3.7-4.1-10.3-1.1-18.8-3.9-19.2-4h-.3c-14.4-6.1-35.1-6.6-36.5-6.6-35.1.9-67.2 43.6-67.6 44-7 9-.9 16.5-.2 17.3 18.9 23 50.9 37.7 52.6 38.5"/><path class="cls-5" d="M686.5 501.4c26.1-6.6 39.3-28.7 39.3-28.7 7.3-11.4 4.7-21.9 4.7-21.9-1.2-3.3-.9-8.7-.9-8.7.7-2 1.3-9.3 1.3-9.3-.8-10.9-5.4-14-10.3-14s-13.2 5.2-13.2 5.2c-2.4 2.3-5.2 4-8 5.2-2.8 1.2-5.6 2-8 2.4-3.1.6-5.5.6-6.2.6h-.3c-1.4-.3-2.7-.4-4-.4-7.2 0-11.7 3.6-11.7 3.6-9.7 7-19.9 8.7-19.9 8.7 12.1-59.1 34.2-96.7 34.2-96.7 7.2-12.1 22.1-16.4 33-17.9 7.5-1 13.1-7.5 13.1-15V197.3c0-5.3-3.9-9.8-9.1-10.5-83.6-11.3-116-34.3-116-34.3-62.3-39-102.6-44.1-102.6-44.1-6-1.1-11.7-1.7-17-1.7-39.8 0-58.8 28.7-60.3 31.1-1.5-2.4-20.6-31.1-60.3-31.1s-10.9.5-17 1.7c0 0-40.3 5.1-102.6 44.1 0 0-32.4 23-116 34.3-5.2.7-9.1 5.2-9.1 10.5v117.2c0 7.6 5.6 14 13.1 15 10.9 1.5 25.8 5.7 33 17.9 0 0 22 37.6 34.2 96.7 0 0-10.2-1.7-19.9-8.7 0 0-4.5-3.6-11.7-3.6s-2.6.1-4 .4h-.3c-.8 0-3.2 0-6.2-.6-2.4-.4-5.2-1.1-8-2.4-2.8-1.2-5.5-2.9-8-5.2 0 0-6.9-5.2-13.2-5.2s-9.4 3.1-10.2 14c0 0 .6 7.3 1.3 9.3 0 0 .3 5.4-.9 8.7 0 0-2.6 10.5 4.7 21.9 0 0 13.2 22.1 39.3 28.7 0 0 40 11.2 37.6 39.5 0 0-2.6 67.4-71.9 109.3-4.1 2.5-5.7 7.7-3.5 12.1l18.2 36.9c2 4.1 6.2 6.7 10.7 6.7s1.9-.1 2.8-.3c1.9-.5 3.9-.8 5.9-.8 3.6 0 7.2 1 9.8 4.1 0 0 9.9 8-6.8 22.5-3.5 3-4.3 8.1-1.9 12.1l17.8 29.9c1.9 3.1 5.1 4.9 8.6 4.9s2.1-.2 3.2-.5c4.7-1.6 11.6-3.2 19.8-3.2 16.8 0 39.5 6.7 62.5 33.7 0 0 13.3 17.1 31.9 48 0 0 39.4 64.6 117.3 70.8h.2c77.9-6.2 117.3-70.8 117.3-70.8 18.5-30.8 31.9-48 31.9-48 23-27.1 45.7-33.7 62.5-33.7s15.1 1.6 19.8 3.2c1.1.4 2.1.5 3.2.5 3.5 0 6.7-1.8 8.6-4.9l17.8-29.9c2.4-4 1.6-9.1-1.9-12.1-16.7-14.5-6.8-22.5-6.8-22.5 2.6-3.1 6.2-4.1 9.8-4.1s4 .3 5.9.8c.9.2 1.9.3 2.8.3 4.5 0 8.6-2.5 10.7-6.7l18.2-36.9c2.2-4.3.6-9.6-3.6-12.1-69.2-41.9-71.9-109.3-71.9-109.3-2.4-28.3 37.6-39.5 37.6-39.5m-18.2-56.2c20.4-11 20.9 5.2 20.9 6.8v.8c-2.1 9.7-9.5 12.7-9.5 12.7-11.9 3.3-16.5 7.5-16.8 7.8-.3.2-.7.4-1 .6-.7.4-1.4.9-2.1 1.3-.3.2-.7.5-1 .7-.3.2-.7.5-1 .8-.2.2-.5.4-.7.6-.5.4-.9.8-1.4 1.3l-.7.7c-8.3 7.8-8.5-1-8.5-2.1v-.7c1.1-11.9 21.3-30.5 22-31.1m-37.3 258.8c-1.1 1.8-2.9 3.1-5 3.4l-22.5 2.8c-5.4.7-9.2 5.4-8.9 10.8l1.9 26.4c-2 1.7-3.8 3.7-5.4 5.9l-6 8.2c-3.5 4.8-8.6 8.2-14.4 9.5l-9.8 2.2c-1.7.4-3.4.9-5 1.6-3.8-7.4-7.5-18.1-4.5-23.1 1.6-2.6 5.3-3.8 11-3.5 2.1.6 9 2 13.1-2.5 3.8-4.3 3.4-11.6-1.4-22.4-.8-2.1-6.7-15.6-33.5-36l-114.3-83.1-2.2-1.8-2.2 1.8-114.4 83.1c-26.7 20.3-32.6 33.9-33.4 36-4.8 10.8-5.3 18.1-1.4 22.4 4.1 4.6 10.9 3.1 13.1 2.5 5.7-.3 9.5.9 11 3.5 3 5-.7 15.7-4.5 23.1-1.6-.7-3.3-1.2-5-1.6l-9.8-2.2c-5.8-1.3-10.9-4.7-14.5-9.5l-6-8.2c-1.6-2.1-3.4-4.1-5.4-5.8l1.9-26.4c.4-5.4-3.5-10.1-8.9-10.8l-22.5-2.9c-2.1-.3-3.9-1.5-5-3.4L204.5 682c-.6-1.1-1.4-2.1-2.1-3 2.5-4.2 7.4-10.9 12.9-12.4 2.5-.7 4.9-.3 7.4 1.3h.1c1.7 1.1 6.2 4.5 6.7 8.5.3 2.4-.9 5-3.6 7.7l-7 6.9h9.8c1.1 0 27-.5 64.9-23.9h.1c3.1-2.2 76-51.4 96-72.8 1.9-1.7 17-15.8 17.2-35.3V420.1c13.6 3.3 26 6.9 35.5 9.9v128.9c.2 19.6 15.3 33.7 17.2 35.3 20 21.3 93 70.6 96 72.7h.1c37.9 23.5 63.8 23.9 64.9 23.9h9.8l-7-6.8c-2.7-2.7-3.9-5.3-3.6-7.7.5-4 5-7.4 6.7-8.4h.1c2.5-1.7 4.9-2.1 7.4-1.4 5.5 1.6 10.4 8.2 12.9 12.4-.8 1-1.5 2-2.1 3l-13.2 22.2zm2.4 28.7c-.4.7-1 1.2-1.7 1.4l-20.7 5.6c-.8.2-1.6.5-2.3.7-2.3.8-4.6-.8-4.8-3.2l-1-13.6c-.2-2.9 1.9-5.4 4.7-5.8l17.9-2.3c1.8-.2 3.4.9 4 2.6l4.1 12.3c.2.7.2 1.5-.2 2.2m-84.4 46.3c-1.7 1.3-3.2 2.9-4.5 4.6-13 16.6-55.7 70.2-80.8 87.8-5.5-8.7-20.7-29.7-39.1-30.6H424c-18.4.9-33.6 21.9-39.1 30.6-25-17.5-67.8-71.1-80.8-87.8-1.3-1.7-2.8-3.2-4.5-4.6 3.5-6.7 10.2-21.9 4.5-31.3-3.3-5.4-9.6-7.9-18.8-7.3h-.5l-.5.2c-1.7.5-4.4.7-5.2-.1 0 0-2.2-2.6 2.9-13.8v-.3c.2-.1 4.9-12.6 30.8-32.4l111.9-81.3L536.5 694c26 19.8 30.7 32.3 30.8 32.4v.4c5.2 11.2 3.1 13.7 3 13.8-.8.9-3.5.7-5.2.1l-.5-.2h-.5c-9.2-.6-15.5 1.9-18.8 7.3-5.7 9.5.9 24.6 4.5 31.3m-304-55.3l-1 13.6c-.2 2.4-2.6 4-4.8 3.2-.8-.3-1.6-.5-2.3-.7l-20.8-5.6c-.7-.2-1.3-.7-1.7-1.4-.4-.7-.4-1.4-.2-2.2l4.1-12.3c.6-1.7 2.2-2.8 4-2.6l18 2.3c2.9.4 4.9 2.9 4.7 5.8m214.8-509.5c4.2 3 8.9 4.5 14.2 4.5s5-.3 7.6-.9l13.4-3.4c2.2-.4 3.7-2.4 3.3-4.6-.3-2.2-2.5-3.7-4.7-3.3-.5 0-1.2 0-2-.2-1.1-.3-2.6-.9-4-2.3-1.9-1.9-4-5.6-4.6-12.5 1.5-1.2 2.4-2.6 2.7-3.1 8-10.9 22.1-6.4 22.7-6.2h.1c14.2 4.3 10.6 21 10.4 21.7v.4c-1.4 11.4-6 20.1-13.6 26.1-15.2 11.9-38 9.2-38.2 9.2h-.2c-14.1-1.1-27.4-16-35.3-26.9-4.1-5.7-1.7-13.7 4.9-16.2 1.2-.5 2.5-.7 3.8-.7 4 0 7.8 2.2 9.6 6 2.2 4.6 5.4 9.2 9.9 12.5m.9-21.7c2 0 3.9-.3 5.6-.9 1.6-.6 3.4-.3 4.9.6 2.4 1.5 4.2 3.8 5 6.6.5 1.8 1.1 3.5 1.8 5 1.5 3.1-.8 6.6-4.2 6.4h-.1c-4.4-.3-7.6-1.8-9.4-2.7-3.3-2.3-5.7-5.8-7.4-9.4-1.3-2.6.7-5.7 3.6-5.7m40 122.6c-.6-2.3-1.7-9.6.8-12.9.6-.8 1.8-1.9 4.9-1.9s5.4.1 8.1 3.6c1.9 2.4 2.4 6.2 1.3 11.2-.2.7-2 6-6.1 8.7l-.5.4-.4.5c-.2.3-5.6 7.2-3.8 16.8.3 1.6 0 3.3-.7 4.8-.8 1.5-2.1 3.1-4.5 4.5l-.5.3-.4.4c-.8.8-7.9 8.4-7 16.8s0 .2 0 .2c0 .1.8 7.9-12.1 15.3-7.7 4.4-17.3-2.4-15.2-11 .1-.5.3-.9.4-1.3 1.1-2.5 3.4-4.2 7-5.2 2 0 7.1-.3 10.2-4.4 2.9-3.8 2.9-9.3.2-16.3-.6-1.6-7.1-17.8-32.7-24.2v-21.5c10.1 2.4 33.5 8.7 44.3 19.1 2.9 2.8 7.7 0 6.6-3.9zm-18 157v-.4c.2-1.4 4-34.4-19.1-42.9-.1 0-5.3-2-13.8-4.8-2.4-.8-5.1-1.7-8-2.6-9.8-3-22.1-6.6-35.5-9.8-2.6-.6-5.3-1.2-8-1.8-4.1-.9-8.3-1.7-12.6-2.5-3.9-1.5-44.5-17.7-47-48.4 0-.1-.8-13 7.2-27 9.6-16.9 27.2-28.3 52.4-34v17c-8.2 2.7-19.7 7.9-25.7 17.3-4.1 6.3-5.2 13.6-3.2 21.5.4 2.3 4.1 16.2 29 25.4 2.5.9 5.1 1.8 8 2.6 2 .6 4.2 1.1 6.4 1.6h.4c.2 0 11.8 1.6 28.7 6.7 2.5.8 5.2 1.6 8 2.6 4.4 1.5 9.1 3.3 14 5.4.3.1.5.2.8.3 7.8 3.3 16 7.2 24.3 12 .9.6 10.4 7.1 17.9 18.7 10.3 15.9 12.4 33.6 6.2 52.6-2.7 4.1-27.8 41-63.2 39v-26.4c11.7 0 29.1-4.5 32.9-22.2m-33.1 14.2v-53.8c6.8 2.3 10.9 3.8 11.1 3.9 16.5 6 14.2 31.9 14 34.2-3.1 13.9-18 15.6-25 15.7m-51.5-162.8v47.1c-19-7.9-21.1-18.2-21.1-18.2v-.4c-1.6-5.8-.9-10.8 2.1-15.2 4.2-6.5 12.3-10.7 19-13.2m60.2 63.8c-3-1.1-5.9-2.2-8.7-3.1v-54.5c20.2 5.7 25 18 25.2 18.6 1.6 4.2 1.9 7.4.9 8.7-.9 1.2-3.2 1.3-3.8 1.3h-1.3c-8.1 1.9-11.6 6.5-13 10-2.6 6.1-1.2 13.4.8 18.9m-16.9-145.1v139.5c-15.2-4.5-25.7-5.9-27.5-6.2-2.9-.6-5.5-1.3-8-2.1V242.2h35.5zm-25.6-29.5c-8 10.9-21.3 25.8-35.3 26.9h-.2c-.2 0-23 2.8-38.2-9.2-7.6-6-12.2-14.8-13.6-26.1v-.4c-.2-.7-3.8-17.4 10.4-21.6h.1c.6-.2 14.7-4.7 22.7 6.2.3.5 1.3 1.8 2.8 3.1-.6 6.9-2.7 10.6-4.6 12.5-2.7 2.8-5.9 2.5-5.9 2.5-2-.2-3.9 1.2-4.3 3.1-.4 2 .8 4.1 2.8 4.7 4.5 1.1 9 2.3 13.5 3.4 2.6.6 5.1.9 7.5.9 5.3 0 10.1-1.5 14.2-4.5 4.6-3.2 7.7-7.9 9.9-12.5 2.4-5 8.2-7.3 13.3-5.3 6.6 2.5 9 10.5 4.9 16.2m-25.4-14.2c-1.7 3.5-4.1 7-7.4 9.4-1.3.9-4.5 3.1-9.2 3.3h-.6c-3.4 0-5.6-3.5-4.1-6.5.9-1.7 1.6-3.5 2.1-5.6.7-2.8 2.5-5.1 5-6.6 1.5-.9 3.2-1.2 4.9-.6 1.7.6 3.6.9 5.6.9s4 1.9 4 4-.1 1.1-.4 1.7m-20.6-22.7v.4c0 1.9-1.4 3.5-3.3 3.7h-.3c-.8 0-1.6-.2-2.2-.8-9.1-7.6-21.3-6.5-27.3-4.5-16.9 5.1-17.8 22.3-15.9 30.9 1.6 13.5 7.2 24 16.6 31.3 12.3 9.6 28 11.2 37 11.2s6.4-.3 7-.4c5.9-.5 11.5-2.7 16.8-6V290c-35.5 7.6-52 24.9-59.6 38.6-8.9 16-8 30.5-7.9 31.1 3 37.2 50.5 54.7 52.5 55.4h.3c0 .1.3.2.3.2 4.9.9 9.7 1.8 14.4 2.9v66.6c-7-1.7-19.7-5.8-24.9-14.8-3-5.2-3-11.3 0-18.7 1.7-2.7 7.6-13.1 4.3-20.5-1-2.3-3.4-5.3-8.8-6.2-.4 0-10.2-1.7-19.1 4.9-7.3 5.4-11.8 14.6-13.3 27.2-1 5.7.4 18.1 12.8 24.8h.2c.9.5 2.6 1.8 2.7 2.9 0 1.1-1.4 3.4-5.8 6.3-1.5.3-6.2 1.3-12.2.6h-.4c-1.4 0-2.7.7-3.4 1.9-.5.9-10.4 17.4-10.4 33.4s.6 8.2 2.3 12c3.5 8.1 11.5 13.1 20.3 13.1s2.6-.1 3.9-.3c9.2-1.6 12.8-5.9 14.2-9.3 1.9-4.6 1.1-10.2-2.4-16.9-1.4-2.6-.3-5.8 2.4-6.8 5.7-2.3 16.7-3.9 37.6 0v40.5c-.2 16.7-14.5 29.4-14.6 29.5l-.3.3c-19 20.3-92.1 69.8-94.7 71.6-23.7 14.6-42.6 19.8-52.6 21.6.7-2.2 1-4.4.7-6.6-1.1-8.4-9.3-13.5-10.5-14.3-4.4-2.8-9.2-3.5-13.8-2.2-7.8 2.2-13.7 10-16.8 14.8-1.1-.7-2.2-1.2-3.4-1.7l-11.9-4.8c28-28.2 49.2-80.3 50.1-82.7 22.1-58.4 3.1-170.4 2.3-175.1v-.2c-14.4-65.7-50.4-100.9-65.2-113-1.9-1.5-3.1-3.8-3.2-6.3l-3.2-61.6c0-.8.6-1.5 1.4-1.6 56.7-7.2 103.4-39.9 105.4-41.3h.1c29.1-22.2 72.7-35.9 73.1-36 26.7-8 41.4 2.3 47.8 9.4h-1.6c-9.4 0-17.1 7.6-17.1 17m-22.6 347.8c4.9 6.9 6.8 12.4 5.5 15.5-1.1 2.7-5.1 3.9-8.2 4.5-6.6 1.1-13-2.2-15.5-8-4.2-9.7.4-22.9 4-31 1.3-2.9 4.1-4.8 7.3-5 4.9-.2 8.2-1.2 8.4-1.2l.5-.2.5-.3c7-4.4 10.3-9.1 10-13.9-.4-5.9-6-8.9-7.1-9.4-10.3-5.6-8.7-15.9-8.6-16.4v-.2c1.3-10.4 4.6-17.7 10.1-21.8 6.1-4.6 12.8-3.6 13-3.5 2.3.4 2.7 1.3 2.8 1.6 1.3 2.8-1.6 9.6-3.9 13.3l-.2.3v.3c-4.2 9.8-4.1 18.6.2 26.1 7.2 12.5 24.2 17.4 31.8 19v17.2c-44-7.9-50.4 7.7-51 9.7-.1.4-.2.8-.2 1.2 0 .8.2 1.6.7 2.3m287.8 135.3c-4.7-1.3-9.4-.6-13.8 2.2-1.3.7-9.5 5.8-10.5 14.3-.3 2.2 0 4.4.7 6.6-10.1-1.8-28.9-7-52.6-21.6-2.6-1.8-75.8-51.3-94.7-71.6l-.3-.3c-.1-.1-14.4-12.8-14.6-29.5v-30.1h3c15.1 0 30.2-5.9 44.3-17.6 14.3-11.8 22.6-25.1 23-25.6l.2-.4.2-.4c9-27.1 1.1-47.7-7.1-60.2-8.8-13.5-19.7-20.6-20.2-20.8h-.2c-5.8-3.5-11.5-6.4-17.1-9 25.2-10.2 24.3-25 24-27.1-.4-3.7 2.8-8.2 4.5-10.1 9.2-5.6 9-14.6 9-15v-.5l-.2-.5c-1.2-4-.3-7.4.6-9.5.4-1 1.1-1.9 1.9-2.6 5.8-4.7 7.8-11.8 7.9-12.2v-.2c1.7-7.5.7-13.6-2.8-18.1-5.2-6.5-13.9-6.6-14.3-6.6h-.1c-6.1 0-9.4 2.7-11.2 5-1.4 1.8-2.2 3.9-2.7 6-.4 1.9-2.5 2.8-4.2 1.9-13.7-7.5-31.3-11.9-38.6-13.5v-50.3c5.2 3.3 10.9 5.5 16.8 6 .6 0 3.2.4 7 .4 9 0 24.7-1.6 37-11.2 9.4-7.3 15-17.8 16.6-31.3 1.9-8.6 1-25.8-15.9-30.9-6-2-18.2-3.1-27.3 4.5-.7.6-1.7.9-2.6.8-1.9-.2-3.3-1.7-3.3-3.6v-1.2c-.3-9.2-8.1-16.4-17.4-16.4H460c6.4-7 21.1-17.4 47.7-9.4.4.1 44.1 13.9 73.2 36h.1c2 1.5 48.7 34.2 105.3 41.4.8.1 1.4.8 1.4 1.6l-3.2 61.6c-.1 2.4-1.3 4.7-3.2 6.3-14.8 12.1-50.9 47.3-65.2 113v.2c-.9 4.7-19.9 116.7 2.3 175.2.9 2.3 22.1 54.5 50.1 82.6l-11.9 4.8c-1.2.5-2.3 1.1-3.4 1.7-3.1-4.9-9-12.6-16.8-14.8M461.5 166.7c5 0 9.1 4.1 9.1 9s-.5 3.4-1.4 4.8c-1 1.5-2.3 2.7-4 3.5-1.1.5-2.4.8-3.7.8h-73.8c-1.3 0-2.5-.3-3.7-.8-1.7-.7-3-1.9-4-3.5-.9-1.4-1.4-3-1.4-4.8 0-5 4.1-9 9.1-9h73.8zM180.4 445.1c.6.6 20.9 19.3 22 31.1v.6c0 1.2-.2 10-8.5 2.2-2.4-2.6-5.2-4.5-8-6.1-.3-.3-4.9-4.5-16.8-7.8 0 0-7.7-3.1-9.6-13.2 0-.6-.2-18.2 20.9-6.8m13.8 64.4c-12.3-10.9-28.2-15.5-29.4-15.8h-.2c-22.4-5.7-34.3-24.9-34.4-25v-.2c-4.9-7.4-4.1-14.1-3.9-15.5 1.5-4.5 1.2-10.1 1.2-11.2v-1.2l-.4-1c-.2-.9-.6-3.9-.9-6.8.4-4.8 1.7-5.9 1.7-5.9h.5c2.3 0 6 1.9 8 3.3 1.6 1.4 3.2 2.7 4.9 3.7 5.1 3.2 8.5 8.4 9.2 14.3 1.7 13.4 6 26.5 16 27.5h.2c.2 0 15.7 1 22.9 10.9v.2c.4.3 3.7 4.4 9.1 9.6 2.5 2.4 4 5.8 3.9 9.3v.2c-.1 4.4-5.3 6.7-8.6 3.8M651.5 583c9 21.2 27.5 51.3 65.1 74.1.6.4.8 1.1.5 1.7l-18.2 36.9c-.7 1.3-2 2.2-3.5 2.2s-.6 0-.9-.1c-2.7-.7-5.3-1-7.8-1-6.3 0-11.7 2.2-15.5 6.5-1.6 1.6-5.1 5.6-5.2 12.1-.1 7.3 4.1 14.8 12.5 22.1.6.5.7 1.3.3 2L661 769.4c-.4.6-1 1-1.7 1s-.4 0-.7-.1c-7-2.4-14.8-3.6-22.4-3.6-17.2 0-43 6.3-68.6 36.5h-.1v.3c-.6.7-13.8 17.9-32.4 48.7-.4.6-10 15.9-28.3 31.6-10.8 9.3-22.5 16.9-34.8 22.7-12.6 5.9-33.8 10.5-47.4 12.4-13.7-1.9-34.9-6.5-47.5-12.4-12.3-5.8-24-13.4-34.8-22.7-18.3-15.7-27.9-31-28.3-31.6-18.6-30.9-31.8-48-32.4-48.7h-.1c0-.1-.1-.3-.1-.3-25.6-30.2-51.4-36.5-68.6-36.5s-15.3 1.2-22.4 3.6c-.2 0-.4.1-.7.1-.7 0-1.3-.4-1.7-1l-17.8-29.9c-.4-.6-.3-1.5.3-2 8.4-7.3 12.6-14.7 12.5-22.1-.1-6.5-3.5-10.6-5.2-12.1-3.8-4.2-9.2-6.5-15.5-6.5s-5.1.3-7.8 1c-.3 0-.6.1-.9.1-1.5 0-2.8-.9-3.5-2.2l-18.2-36.9c-.3-.6 0-1.4.5-1.7 37.6-22.7 56.2-52.9 65.1-74.1 7.3-17.4 9.6-31.7 10.3-38.2.7-7.3 1.4-14.2 1.8-20.6.5-6.5.8-12.5 1-18.1 0-3.5.1-6.8.2-10 .1-21.1.2-34.7-.9-42.3l-2.4-11.5c-12.3-59.7-34.2-97.5-35.1-99.2-8.8-14.8-25.9-20-38.8-21.7-3.5-.5-6.2-3.5-6.2-7.1V197.1c0-1.3 1-2.4 2.2-2.5 81.9-11.1 116-33.3 119.3-35.6 59.6-37.3 98.8-42.8 99.2-42.8h.4c5.3-1 10.5-1.5 15.5-1.5 9 0 17.4 1.6 25.2 4.8 8.2 3.3 13.6 7.5 15.2 8.8 7.6 6.1 11.8 12.5 13.2 14.9 3.6 5.8 5.4 11.4 6.5 15.6h-25c-1.8-2.8-6-8.3-13-12.8-8.9-5.7-24.3-11.1-47.2-4.2-1.8.6-45.4 14.3-75.6 37.2-1.7 1.2-47.8 33-101.7 39.8-5 .6-8.6 5-8.4 10l3.2 61.6c.2 4.7 2.5 9.1 6.1 12 11 9 48.2 43.4 62.4 108.4.6 3.6 19.2 115.1-1.9 170.8-.2.6-22.8 56.2-50.8 82.4-1.4 1.3-2 3.2-1.7 5.1.4 1.9 1.6 3.5 3.4 4.2l15.4 6.2c3.2 1.3 6 3.7 7.8 6.7l13.2 22.2c1.4 2.3 1.6 5 .8 7.5l-4.1 12.3c-.9 2.8-.7 5.9.7 8.5 1.4 2.6 3.8 4.5 6.6 5.3l20.8 5.6c6.2 1.7 11.7 5.5 15.5 10.6l6 8.2c4.7 6.4 11.5 10.8 19.1 12.5l9.8 2.2c4.7 1 8.9 3.7 11.8 7.5 14.5 18.6 46.8 58.7 71.6 80.6 13.5 12.8 1 22.5 1 22.5 13.8.7 17.3-9.1 17.3-9.1l2-3.6c4.6-8.3 19.6-29.5 34.9-30.1h.1c18.4.7 34.7 29.8 34.9 30.1l2 3.6s3.5 9.9 17.3 9.1c0 0-12.5-9.7 1-22.5h.1c24.8-22.1 57-62.1 71.5-80.7 2.9-3.8 7.1-6.4 11.8-7.5l9.8-2.2c7.7-1.7 14.5-6.2 19.2-12.5l6-8.2c3.8-5.2 9.3-9 15.5-10.6l20.8-5.6c2.8-.8 5.3-2.7 6.7-5.3 1.4-2.6 1.7-5.7.7-8.5l-4.1-12.3c-.8-2.5-.5-5.2.8-7.5l13.2-22.2c1.8-3 4.6-5.4 7.8-6.7l15.4-6.2c1.8-.7 3.1-2.3 3.4-4.2.3-1.9-.3-3.8-1.7-5.1-28-26.2-50.6-81.8-50.8-82.3-21.1-55.8-2.5-167.2-1.9-170.8 14.2-65 51.4-99.4 62.4-108.4 3.7-3 5.9-7.4 6.1-12l3.2-61.6c.3-5-3.4-9.4-8.4-10-53.9-6.8-100-38.6-101.7-39.8-30.2-22.9-73.7-36.6-75.6-37.2-22.9-6.9-38.3-1.5-47.1 4.2-7.1 4.5-11.2 10-13 12.8h-25c1-4.3 2.9-9.8 6.5-15.6 1.4-2.3 5.6-8.8 13.2-14.9 1.6-1.2 7-5.4 15.2-8.8 7.8-3.2 16.2-4.8 25.2-4.8s10.2.5 15.5 1.5h.4c.4 0 39.6 5.5 99.2 42.8 3.3 2.3 37.4 24.5 119.3 35.6 1.3.2 2.2 1.3 2.2 2.5v117.2c0 3.6-2.7 6.6-6.2 7.1-12.8 1.7-30 6.9-38.8 21.7-.9 1.6-22.8 39.5-35.1 99.2l-2.4 11.5c-.8 5.3-1 13.5-1 25.2v17.1c0 3.2 0 6.5.2 10 .3 11.2 1.4 24 2.8 38.7.4 3.2 1.1 8.4 2.7 15s4 14.5 7.6 23.2m-4.6-77.3v-.2c0-3.5 1.3-6.9 3.9-9.3 5.4-5.2 8.8-9.3 9-9.6v-.2c7.3-9.8 22.8-10.8 23-10.8h.2c10-1 14.2-14.1 16-27.5.7-5.9 4.2-11.2 9.2-14.3 1.7-1.1 3.4-2.3 4.9-3.8 2-1.4 5.7-3.3 8-3.3h.5s1.2 1.1 1.7 5.9c-.3 2.8-.7 5.9-.9 6.8l-.3 1v1.2c-.1 1.1-.3 6.7 1.1 11.2.2 1.4 1 8.1-3.7 15.5v.2c-.1.2-12 19.4-34.4 25-1.1.3-17.1 4.9-29.4 15.8-3.3 2.9-8.4.6-8.6-3.8"/><path class="cls-1" d="M242.1 976.5c0 .3 0 .6-.1.9v-.7c.1 0 .1-.2.1-.2zm497.4-17.3l.8-.6.7-.8s.8-1 2-2.4c-1.2 1.3-2.3 2.5-3.5 3.8"/><path class="cls-5" d="M293.6 971.2c2.1-4.4 4.5-7.9 7.1-10.5 2.6-2.6 5.3-4.2 8.1-4.9 2.8-.7 5.5-.5 8.3.6 2 .8 3.5 1.7 4.6 2.7 1.1 1 1.9 2.3 2.4 3.8s.7 3.5.6 5.9c1.6.6 2.4.9 3.9 1.4 1.4-3.9 2.1-5.9 3.4-9.8-2.5-1.6-4.7-2.9-6.8-3.9-2.1-1.1-4.3-2.1-6.6-3-4.4-1.8-8.6-2.5-12.8-2-4.2.5-8 2.1-11.6 4.8-3.6 2.8-6.7 6.5-9.1 11.3-3.9 7.7-5.2 14.4-3.4 20.1 1.7 5.7 6.4 10.4 13.8 13.5 2.7 1.1 5.2 1.9 7.5 2.3 2.3.4 4.6.5 6.8.2.9 1.6 1.3 2.4 2.2 4 1.5.2 2.3.3 3.8.5 1.7-5 2.6-7.5 4.3-12.4.5-1.5 1-2.6 1.3-3.4.4-.8.8-1.4 1.2-1.8.5-.5 1-.8 1.6-1 .6-.2 1.5-.3 2.6-.2.2-.7.4-1 .6-1.8-6.8-2.2-10.2-3.5-16.9-6.1-.3.7-.4 1-.7 1.7 1.4.9 2.3 1.8 2.8 2.6s.7 1.7.6 2.7c0 1-.5 2.6-1.3 4.8-.3.8-.5 1.3-.8 2.1-.9 2.5-2.5 4.1-4.6 4.7-2.1.6-5 .2-8.4-1.3-3.2-1.3-5.6-3.4-7.1-6s-2-5.8-1.6-9.4c.4-3.7 1.7-7.8 3.8-12.2m89.8 12c-1.1-4.1-3.1-7.3-6-9.8-2.9-2.5-6.6-4.2-11.2-5.2-4.3-.9-8.4-.8-12.2.3-3.8 1.2-7.2 3.4-10.2 6.8-3 3.4-5.3 7.7-6.9 13.1-1.3 4.4-1.9 8.3-1.7 11.8.2 3.5 1.1 6.5 2.6 9.2 1.5 2.6 3.7 4.8 6.5 6.6 2.8 1.7 6 3 9.7 3.8 5.2 1.1 10.1 1 14.3-.2 4.3-1.3 7.8-3.9 10.5-7.6 2.7-3.7 4.4-8.5 5.2-14.4.8-5.5.5-10.2-.6-14.3m-8.5 14.4c-.7 4.5-2 8.3-3.6 11.4-1.7 3.1-3.9 5.4-6.5 6.7-2.6 1.3-5.7 1.6-9 .9-5.2-1.1-8.8-4.1-10.4-8.7-1.7-4.6-1.4-10.7.6-18.1.9-3.3 2-6.2 3.2-8.8 1.2-2.5 2.7-4.6 4.3-6.2 1.6-1.6 3.4-2.7 5.3-3.3 2-.6 4.1-.7 6.5-.2 2.7.6 4.9 1.9 6.6 3.9 1.7 2 2.9 4.9 3.5 8.7.6 3.8.5 8.4-.4 13.8m67.6 1.7c-.2-4.2-1-7.8-2.3-10.8-1.3-3-3.1-5.5-5.4-7.4-2.3-2-5.1-3.5-8.3-4.5-3.2-1-7.3-1.6-12.3-1.8-7-.3-10.5-.5-17.4-1.3 0 .7-.1 1.1-.2 1.8 1.2.5 2.1.8 2.5 1.1.5.3.9.7 1.1 1.2.3.5.4 1.1.5 1.9 0 .8 0 2.1-.1 3.8-.9 10.9-1.9 21.8-2.8 32.7-.1 1.7-.3 3-.6 3.8-.2.8-.5 1.4-.9 1.8-.4.4-.9.7-1.5.9-.6.2-1.7.4-3.2.6 0 .7-.1 1.1-.2 1.8 6.8.7 10.2 1 17 1.3 5.2.3 9.4.2 12.6-.2 3.2-.4 6-1.1 8.3-2.1 2.9-1.3 5.3-2.9 7.2-4.9 2.2-2.3 3.8-5.1 4.8-8.4 1-3.3 1.3-7.1 1.1-11.4m-9.1 8.2c-.3 2.1-.9 4.1-1.6 5.9-.8 1.8-1.8 3.3-3.1 4.7-1.3 1.4-2.8 2.4-4.5 3.2-1.7.7-3.5 1.3-5.6 1.6-2 .3-4.4.4-7 .3-2.4 0-4.2-.3-5.5-.4l2.7-44.7c1.6 0 3.4 0 5.2.1 4 .2 7.4 1 10.2 2.5 2.9 1.5 5.1 3.9 6.8 7.2 1.7 3.3 2.6 7.5 2.7 12.6 0 2.6 0 4.9-.4 7.1m85.6-21.6c-1.7-5.3-3.9-9.5-6.7-12.7-2.8-3.2-6-5.3-9.7-6.3-3.7-1-7.8-1-12.4 0-4.3 1-7.9 2.8-10.9 5.5s-5 6.2-6.2 10.5c-1.2 4.3-1.5 9.2-.6 14.8.7 4.5 1.8 8.3 3.5 11.4 1.7 3.1 3.7 5.5 6.2 7.2 2.5 1.7 5.4 2.8 8.6 3.2 3.2.4 6.7.2 10.4-.7 5.2-1.2 9.6-3.4 12.9-6.4 3.3-3 5.4-6.8 6.3-11.3.9-4.5.3-9.6-1.4-15.2m-6.6 16c-.2 3.6-1.2 6.5-3.1 8.8-1.8 2.3-4.4 3.9-7.8 4.6-5.2 1.2-9.7 0-13.2-3.4s-5.8-9-7.2-16.7c-.6-3.4-.9-6.5-.9-9.3 0-2.8.4-5.3 1.2-7.5.8-2.2 1.9-3.9 3.4-5.3s3.4-2.3 5.8-2.9c2.7-.6 5.2-.4 7.6.7 2.4 1.1 4.7 3.2 6.9 6.3 2.2 3.2 4 7.4 5.5 12.7 1.2 4.3 1.8 8.3 1.6 11.9m41.6-26.4c.8 0 1.6.4 2.4.9.8.6 1.8 1.6 2.9 2.9 1.5-.7 2.3-1.1 3.9-1.8-2.8-5.8-4.2-8.7-6.9-14.4-1.5.7-2.2 1.1-3.7 1.7.4 1.8.5 3.2.4 4.2 0 1-.4 1.8-.9 2.4-.5.6-1.4 1.2-2.6 1.7-3.3 1.4-5 2.2-8.3 3.5-3.1-7.7-4.6-11.5-7.7-19.1 4.5-1.8 6.7-2.7 11-4.7 1.2-.5 2.3-.9 3.1-1 .9-.1 1.7 0 2.5.1.8.2 1.7.7 2.7 1.4 1 .7 2.1 1.7 3.4 3 1.5-.7 2.2-1.1 3.7-1.9-2.1-4.1-3.1-6.1-5.2-10.2-11 5.6-22.4 10.5-34 14.6.2.7.4 1 .6 1.7 1.3-.1 2.2-.1 2.8 0 .6 0 1.1.3 1.5.6.4.3.9.8 1.3 1.5s.9 1.9 1.5 3.5c3.8 10.2 7.6 20.5 11.5 30.7.7 1.7 1 3.1 1.2 4 .1.9 0 1.7-.5 2.4s-1.5 1.6-3.2 2.6c.2.7.4 1 .6 1.7 8-2.8 11.9-4.4 19.8-7.7-.3-.7-.4-1-.7-1.7-1.3.3-2.3.5-3.2.6-.9 0-1.7 0-2.3-.3-.7-.3-1.3-.8-1.8-1.6-.6-.8-1.1-1.8-1.7-3.2-2.2-5.5-3.3-8.3-5.6-13.8 3.4-1.4 5.1-2.1 8.4-3.6 1.2-.5 2.3-.8 3.1-.8m46.5-135.6c-1.1 4.8-1.6 7.2-2.6 12 1.4.7 2.1 1 3.6 1.6.9-1.7 1.7-3 2.5-4s1.6-1.7 2.3-2.1c.8-.4 1.5-.6 2.3-.5.8 0 1.7.3 2.9.7 1.8.6 2.7 1 4.5 1.5-2.6 12-5.2 24.1-7.8 36.1-.3 1.4-.6 2.5-.9 3.1-.3.7-.6 1.2-.9 1.5-.3.3-.7.6-1.1.7-.4.1-.9.2-1.5.1-.6 0-1.3-.1-2-.3-.2.7-.2 1-.4 1.7 6.6 2.8 9.9 4 16.5 5.9.2-.7.2-1 .4-1.7-1.1-.6-1.9-1.2-2.4-1.6-.5-.5-.9-1-1.1-1.5-.2-.6-.3-1.3-.3-2.2 0-.9.2-2 .5-3.4 2.6-12.1 5.2-24.3 7.8-36.4 1.8.5 2.7.7 4.6 1.2 1.3.3 2.3.7 2.9 1.1.6.4 1.1 1 1.6 1.7s.8 1.8 1.1 3.1c.3 1.3.4 3.1.5 5.2 1.4.3 2.1.4 3.5.7 1.1-5 1.6-7.6 2.7-12.6-13.7-2.3-26.1-6.7-39-11.7m72.5 16.1c-.2.7-.2 1.1-.4 1.8 1.3.5 2.2 1 2.6 1.5.4.5.6 1.1.7 1.9 0 .8-.2 2.3-.6 4.4-1.1 5.2-1.6 7.9-2.7 13.1-8.1-.7-12.1-1.1-20.2-2.1 1.1-5.2 1.6-7.8 2.7-13 .3-1.7.7-2.9 1-3.7.3-.8.6-1.4 1-1.7.4-.4.8-.7 1.3-.9.5-.2 1.4-.4 2.5-.6.1-.7.2-1.1.4-1.8-6.1-.7-9.2-1-15.2-2-.2.7-.2 1.1-.4 1.8 1 .5 1.8.9 2.2 1.2.4.3.7.7.9 1.2.2.5.3 1.1.2 1.9 0 .8-.2 2-.6 3.7-2.6 12.7-4 19-6.6 31.6-.4 1.8-.7 3.1-1.1 4-.3.9-.8 1.5-1.4 1.9-.6.4-1.7.6-3.3.7-.2.7-.2 1.1-.4 1.8 6.1 1.2 9.1 1.6 15.2 2.5.2-.7.2-1.1.4-1.8-1-.4-1.8-.8-2.2-1.2-.4-.4-.7-.8-.9-1.3-.2-.5-.2-1.1-.2-1.9 0-.8.2-2 .6-3.6 1.3-6.1 1.9-9.2 3.2-15.3 8.1 1 12.1 1.4 20.2 2.1-1.3 6.2-1.9 9.3-3.2 15.5-.4 2-.8 3.5-1.2 4.3-.4.8-.9 1.4-1.5 1.8-.6.4-1.6.7-3 .9-.1.7-.2 1.1-.4 1.8 6.1.6 9.1.9 15.2 1.4.1-.7.2-1.1.4-1.8-.9-.3-1.5-.6-1.9-.9-.4-.3-.7-.5-.9-.8-.2-.3-.3-.7-.4-1.1v-1.7c0-.7.3-1.8.6-3.2 2.6-12.8 4-19.2 6.6-32 .4-2 .8-3.5 1.2-4.3.4-.8.9-1.5 1.5-1.8.6-.4 1.6-.7 3.1-.9.2-.7.2-1.1.4-1.8-6.1-.5-9.1-.8-15.2-1.3m48.3 4.9c-.1.7-.2 1.1-.4 1.8 1 .3 1.7.7 2.1 1.3.4.6.5 1.3.3 2.2-.2.9-.6 1.9-1.2 2.9s-1.6 2.3-2.9 3.9c-3.9 4.6-5.9 7-9.8 11.7-1.7-6-2.6-8.9-4.3-14.9-.5-1.7-.8-3-1-4-.1-.9-.1-1.7 0-2.4.4-1.7 1.7-2.6 4-2.6.2-.7.2-1.1.4-1.8-6.2-.8-9.3-1.1-15.4-1.6-.2.7-.2 1.1-.4 1.8.8.4 1.4.8 1.9 1.5.5.6 1 1.5 1.4 2.5.4 1 1 2.8 1.7 5.2 2.4 8 3.7 12 6.1 20-1 4.7-1.5 7.1-2.5 11.8-.3 1.4-.6 2.6-.9 3.4-.3.8-.7 1.5-1.2 2s-1 .9-1.6 1.1c-.6.2-1.5.4-2.7.5-.2.7-.2 1.1-.4 1.8 6.6.6 9.9 1 16.6 1.9.2-.7.2-1.1.4-1.8-1.1-.4-1.9-.8-2.4-1.2-.5-.4-.9-.8-1.1-1.4-.2-.6-.3-1.3-.3-2.1 0-.9.2-2 .5-3.4 1-4.8 1.5-7.1 2.5-11.9 5.5-6.4 8.2-9.6 13.7-15.7 2-2.3 3.6-3.9 4.6-4.9 1-.9 1.9-1.6 2.8-2.1.9-.5 1.9-.8 2.9-.9.2-.7.2-1.1.4-1.8-5.5-1.3-8.2-1.8-13.7-2.7m38.3 10.1c-1.7-.9-3.5-1.7-5.3-2.4-3.2-1.2-6.1-1.5-8.7-1.2-2.7.3-4.8 1.3-6.5 3-1.7 1.6-2.8 3.8-3.4 6.5-.4 1.8-.3 3.6.1 5.4.5 1.7 1.4 3.5 2.7 5.2 1.4 1.7 3.3 3.7 5.8 5.9 2.6 2.3 4.5 4.2 5.7 5.8 1.2 1.5 2 3 2.3 4.5.4 1.4.4 3 0 4.8-.6 2.7-1.8 4.6-3.6 5.5-1.8.9-4.1 1-6.9.2-2-.6-3.7-1.3-4.8-2.2-1.2-.9-2-2.1-2.6-3.5-.6-1.4-.9-3.2-.9-5.5-1.5-.3-2.2-.5-3.6-.8-.8 4-1.3 5.9-2.1 9.9 4.7 2.3 8.9 4 12.7 5 2.3.7 4.5 1 6.6 1.2 2.1.1 3.9 0 5.5-.6 1.6-.5 3-1.5 4.2-2.9 1.2-1.4 2-3.3 2.5-5.7.5-2.2.4-4.3-.2-6.3-.6-2-1.6-4-3-6-1.4-1.9-3.5-4.2-6.2-6.8-2.3-2.1-4-3.8-5.1-5.2-1.1-1.4-1.8-2.7-2.2-4.1-.4-1.3-.4-2.8 0-4.5.3-1.6 1-2.9 2-3.8 1-.9 2.1-1.5 3.5-1.7 1.4-.2 2.8 0 4.4.6 1.8.6 3.2 1.4 4.2 2.3 1 .9 1.8 2.1 2.4 3.6.6 1.5.9 3.4 1 5.6 1.4.6 2.1.9 3.6 1.5.8-3.7 1.2-5.6 2-9.3-2.5-1.9-4.5-3.2-6.2-4.1m-608.9 34.9c-.9-.1-1.5-.2-2-.4-.4-.2-.8-.3-1.1-.6-.3-.2-.5-.5-.8-.9s-.5-.9-.7-1.6c-.2-.7-.5-1.7-.9-3-2.5-9.9-5.1-19.9-7.6-29.8-.5-1.9-.7-3.2-.8-4.1 0-.8.1-1.5.5-1.9.4-.5 1.1-1 2.2-1.4-.2-.7-.3-1-.4-1.7-5.3.7-7.9 1.1-13.2 2 .2.7.3 1 .4 1.7 1.3.2 2.2.4 2.8.7.5.3 1 .8 1.3 1.6.4.7.8 2 1.3 4 1.2 4.9 1.9 7.3 3.1 12.2-7 1.1-10.5 1.8-17.3 3.3-1.2-4.9-1.9-7.3-3.1-12.2-.4-1.6-.6-2.8-.7-3.6v-1.8c.1-.4.4-.8.7-1.2.3-.3.9-.7 1.8-1.2-.2-.7-.3-1-.4-1.7-5.2 1.1-7.8 1.7-13 3.1.2.7.3 1 .4 1.7 1 0 1.7.1 2.2.3.5.1.9.4 1.2.7.3.3.6.9.9 1.5.3.7.6 1.8 1 3.4 2.5 9.9 5.1 19.9 7.6 29.8.4 1.7.7 3 .8 3.8 0 .9 0 1.6-.4 2.1-.3.6-1.1 1.2-2.2 1.9.2.7.3 1 .4 1.7 5.1-1.4 7.7-2 13-3.1-.2-.7-.2-1-.4-1.7-1 0-1.8-.2-2.3-.4-.5-.2-.9-.5-1.2-.8-.3-.4-.6-.9-.9-1.6-.3-.7-.6-1.8-1-3.3-1.5-5.8-2.2-8.7-3.7-14.4 6.9-1.5 10.4-2.2 17.3-3.3 1.5 5.8 2.2 8.7 3.7 14.4.5 1.9.7 3.3.8 4.1 0 .8-.1 1.5-.5 2s-1.1 1-2.1 1.5c.2.7.3 1 .4 1.7 5.2-.9 7.9-1.3 13.2-2-.2-.7-.3-1-.4-1.7m43.9-4.9c-1-.1-1.9-.4-2.6-.9-.7-.5-1.3-1.1-2-2-.6-.9-1.4-2.2-2.4-3.9-6.9-12.4-13.8-24.8-20.6-37.2l-5 .5c-1.2 13.2-2.3 26.4-3.5 39.6-.2 2.5-.6 4.4-1.1 5.8-.5 1.4-1.4 2.3-2.5 2.6.2.7.3 1 .4 1.7 5.4-.7 8.1-1 13.5-1.6-.2-.7-.3-1-.4-1.7-1.4 0-2.5-.4-3.3-.9-.8-.6-1.4-1.5-1.7-2.9-.2-.7-.3-1.5-.4-2.4v-4c0-1.4.1-2.1.2-3.5 5.9-.7 8.9-1 14.8-1.6.9 1.7 1.4 2.6 2.3 4.3.6 1.1 1.1 2.1 1.5 3 .4.9.7 1.7.9 2.5.2.8.3 1.5.1 2-.1.5-.4 1-.9 1.3-.4.3-1.2.7-2.2 1 .2.7.3 1 .4 1.7 5.9-.6 8.8-1 14.6-1.7-.2-.7-.3-1-.4-1.7M163 887.1c.6-9.2.9-13.8 1.6-23 4.7 8.6 7 12.9 11.7 21.6-5.3.6-8 .9-13.3 1.5m35.9-22.6c.7.8 1.8 2.2 3.4 4 8.5 9.7 17 19.4 25.6 29 1.6-.3 2.3-.5 3.9-.9-3.3-12.9-6.6-25.7-9.9-38.6-.4-1.7-.7-2.9-.7-3.7 0-.8 0-1.4.1-1.8.1-.4.4-.8.7-1.1.3-.3.9-.7 1.7-1.2-.2-.7-.3-1-.4-1.7-4.4 1.1-6.7 1.6-11.1 2.5.2.7.3 1 .4 1.7 1 .1 1.8.2 2.2.4.4.2.8.4 1.1.8.3.3.6.9.9 1.6.3.7.6 1.9 1 3.5.7 2.9 1.1 4.3 1.9 7.2.9 3.4 1.9 7.1 3 11.3 1.1 4.2 1.9 6.9 2.4 8.3h-.4c-.9-1.2-1.7-2.2-2.5-3.1s-1.7-2-2.8-3.2c-7.6-8.5-15.2-17.1-22.7-25.7-3.9.6-5.9.9-9.9 1.4.2.7.3 1 .4 1.7 1 .2 1.8.4 2.3.5.5.2.9.5 1.2.8.4.4.7.9 1 1.6.3.7.6 1.9 1 3.4 2.5 9.9 5.1 19.9 7.6 29.8.4 1.7.7 3 .8 3.8 0 .8 0 1.5-.4 2-.3.5-1.1 1-2.3 1.6.2.7.2 1 .4 1.7 4.6-.6 6.9-.9 11.5-1.6-.2-.7-.3-1-.4-1.7-1-.1-1.8-.3-2.3-.5s-.9-.5-1.2-.9c-.3-.4-.6-.9-.9-1.6-.3-.7-.6-1.8-1-3.4-.7-2.8-1.1-4.2-1.8-7l-3.6-13.8c-1.2-4.6-2.2-7.8-2.8-9.5h.5c.6.8 1.3 1.7 2 2.5"/><path class="cls-1" d="M242.1 976.5c0 .3 0 .6-.1.9v-.7c.1 0 .1-.2.1-.2z"/><path class="cls-5" d="M847.8 915.9c-34.6-65-139.9-72.8-139.9-72.8-12-.3-19.7-1-24.6-1.7-4.5-.7-7.9-4.7-7.6-9.2 1.9-37.6-37-43.2-37-43.2-1.9-.2-3.8-.3-5.6-.3-32 0-49.3 34.2-49.3 34.2-8.1 15.2-25.8 39.5-34.6 51.3-2.8 3.8-1.8 9.1 2.1 11.7l16.3 10.6c5.3 3.5 6.5 10.8 2.5 15.8-34.4 43.7-138.2 49.1-145.2 49.5-5.7-.2-110.8-5.4-145.4-49.5-4-5-2.8-12.4 2.5-15.8l16.3-10.6c3.9-2.6 4.9-7.9 2.1-11.7-8.8-11.8-26.5-36.1-34.6-51.3 0 0-17.3-34.2-49.3-34.2s-3.7.1-5.6.3c0 0-39 5.6-37 43.2.2 4.6-3.1 8.5-7.6 9.2-4.9.7-12.6 1.4-24.6 1.7 0 0-105.3 7.8-139.9 72.8-2.8 5.2-1.9 11.6 2.1 15.9 9.7 10.2 29 32.2 48.4 63 4.5 7.1 12.2 11.3 20.4 11.3s4.2-.3 6.3-.8c16.2-4.4 38.2-12.8 44.6-26.3 0 0 4.8-16.3-8.3-25.8-.2-.2-.5-.3-.8-.5 0 0-.8-.9-1.9-2.3-.7-.9-1.5-1.9-2.4-3.1-3.3-4.4-1.2-10.7 4.1-12.3 13.8-4.1 40.6-10.9 69.5-11.3h.2c5 0 9.6 2.9 11.6 7.5 4 8.8 12.3 23.2 26.4 29.3 0 0 10.1 1 12.5 16.3 0 0-1.3 13.1 16.3 23 0 0 89 43.8 173.9 43.9h.2c84.9 0 173.9-43.9 173.9-43.9 17.6-9.9 16.3-23 16.3-23 2.4-15.3 12.5-16.3 12.5-16.3 14.1-6.2 22.4-20.5 26.4-29.3 2.1-4.6 6.6-7.5 11.6-7.5h.2c29 .4 55.7 7.2 69.5 11.3 5.3 1.6 7.3 7.9 4.1 12.3-.9 1.2-1.7 2.2-2.4 3.1-1.1 1.5-1.9 2.3-1.9 2.3-.3.2-.5.3-.8.5-13.1 9.5-8.3 25.8-8.3 25.8 6.3 13.6 28.4 21.9 44.6 26.3 2.1.6 4.2.8 6.3.8 8.1 0 15.9-4.1 20.3-11.3 19.4-30.9 38.7-52.8 48.4-63 4.1-4.3 4.9-10.7 2.1-15.9m-737.8 43.3s.2.2.3.2c7.6 5.3 6.2 14.2 5.7 16.7-4.2 8-18.4 15.7-39.1 21.4-1.4.4-2.8.6-4.2.6-5.5 0-10.6-2.8-13.6-7.5-8.8-13.9-17.5-26.1-25.4-36.2 28.8-1.6 46.2-8.2 51.8-19.5.5-1 .9-2.1 1.2-3.1 5.8 7.5 12.6 15.8 19.8 23.7 1.2 1.3 2.3 2.5 3.5 3.8m74-43.8h-.3c-30.1.5-57.8 7.5-71.7 11.7-5 1.5-8.9 5.3-10.5 10.2v.1c-4-4.8-7.7-9.6-11.1-14 3-1.4 5.4-2.3 9.3-3.8-.2-.7-.3-1-.4-1.7-1 .1-1.8.1-2.3 0-.5 0-1-.3-1.4-.7-.4-.4-.8-.9-1.1-1.7-.3-.7-.7-1.8-1-3.2-3-11.8-6-23.5-9-35.3 1.5-.6 2.3-.9 3.8-1.5 1.1-.4 2-.6 2.6-.5.6 0 1.2.3 1.9.7.6.4 1.3 1.1 2 2.1s1.6 2.4 2.5 4.2c1.2-.4 1.8-.6 3-.9-1.2-4.8-1.8-7.2-3.1-12-11.1 3.4-21.8 7.9-31.9 13.8 1.2 4.8 1.8 7.2 3.1 12 1.1-.7 1.7-1 2.8-1.6-.1-2-.1-3.8 0-5.2.1-1.4.3-2.6.6-3.5.3-.9.8-1.6 1.3-2.1s1.3-1 2.2-1.4c1.5-.7 2.2-1.1 3.7-1.7 3 11.8 6 23.5 9 35.3.3 1.4.6 2.5.6 3.2v1.9c0 .3-.1.5-.2.8-1.8-2.5-3.5-4.8-5-6.9v-.1s0-.1-.1-.2c-5.3-7.4-14.4-10.7-23.1-8.6l-19.2 4.6c-4.2 1-7.6 4-9 8.1-1.5 4-.8 8.5 1.7 11.9 3.1 4.2 4.5 7.8 3.6 9.7-1 2.1-5.5 3.6-12 3.9-3.1-3.7-5.9-6.9-8.5-9.6-2.6-2.7-4.8-5.1-6.8-7.1-1.7-1.8-2-4.4-.9-6.6 7.2-13.6 18.6-25.7 33.7-35.8 12.4-8.3 27.3-15.4 44.3-21 28.1-9.3 52.9-11.5 55.2-11.7 9-.2 16.5-.7 22.4-1.4.6.1 15.2-.2 31.2-2.4h.2l3.2-.5c13.7-2.1 23.9-5 30.2-8.7 1.2-.6 9.2-5.2 10.8-13.4 1-5.3-.8-10.7-5.5-16l-.5-.4c-.3-.3-7.9-6.4-17.7-5.2-6.5.8-12.2 4.6-17.1 11.3l-.2.4c-.3.5-6.4 11.4-7.8 25.2-4.1.5-8.1.9-11.7 1.2 1.6-2.7 2.4-5.9 2.2-9.2-.6-12.5 3.9-21.8 13.7-28.3 7.6-5 15.7-6.5 16.4-6.6 1.5-.2 3-.3 4.5-.3 26.6 0 42 29.5 42.2 29.8v.2c1.1 2.1 2.5 4.4 3.9 6.9-3.9 2.2-6.4 3.5-11 5.5.2.7.3 1 .4 1.7.8-.3 1.5-.3 2 0 .6.2 1 .8 1.2 1.7.2.6.2 1.3.1 2.1 0 1-.4 2.4-.9 4.1-.4 1.4-1.2 3.8-2.5 7-1 2.7-1.9 4.6-2.4 5.7-.6 1.1-1.1 1.8-1.7 2.3-.6.5-1.2.9-2 1.2-.4.1-.5.2-.9.3-1.3-5.1-1.9-7.6-3.2-12.6-.4-1.6-.6-2.8-.7-3.6v-1.9c.1-.5.4-.9.7-1.3.3-.4.9-.9 1.7-1.5-.2-.7-.3-1-.4-1.7-5 1.9-7.6 2.7-12.7 4.2.2.7.3 1 .4 1.7 1 0 1.7 0 2.2.2.4.1.8.3 1.2.7.3.3.6.8.9 1.5.3.7.6 1.8 1 3.4 2.5 9.9 5.1 19.9 7.6 29.8.4 1.7.7 3 .8 3.8 0 .9 0 1.6-.3 2.2-.3.6-1 1.2-2.2 2 .2.7.3 1 .4 1.7 5.1-1.5 7.7-2.3 12.7-4.2-.2-.7-.3-1-.4-1.7h-2.2c-.5-.1-.9-.4-1.2-.7-.3-.3-.6-.8-.9-1.5-.3-.7-.6-1.8-1-3.3-1.5-5.8-2.2-8.7-3.7-14.4.6-.2 1-.3 1.6-.6.7-.3 1.4-.4 1.8-.3.5 0 1 .2 1.5.5s1.3 1 2.5 2.1c4 3.7 6 5.5 9.9 9 .7.6 1.2 1.1 1.6 1.6.4.5.6.9.7 1.3.1.5 0 1-.2 1.4-.3.4-.7.8-1.5 1.2.2.7.3 1 .4 1.7 5.2-2.3 7.7-3.6 12.7-6.6-.2-.7-.3-1-.4-1.7-.7.3-1.3.4-2 .3-.7 0-1.4-.3-2.2-.7-.8-.4-2.1-1.3-3.7-2.7-6.1-5.1-9.1-7.8-15.3-13.3 2.6-6.9 3.9-10.4 6.5-17.6.8-2.2 1.4-3.9 1.9-4.9.4-1 .9-1.9 1.4-2.6.2-.3.4-.6.6-.8 9 14.7 22.3 33 30.2 43.7v.2l-16.3 10.6c-30.3 19.5-93.7 25.7-93.7 25.7m58.4 61.5c0-.3 0-.6.1-.9v.2l-.1.7zm364.9 1.5c-.5 2.7-2.8 8.5-11.9 13.8-2.2 1.1-23.7 11.4-54.3 21.5-27.5 9.2-75.9 19.8-116 21.2-40.1-1.3-88.5-12-116-21.2-30.5-10.2-52-20.5-54.3-21.5-9.1-5.2-11.4-11-11.9-13.8-.1-.8-.1-1.5 0-2.3 5.1-42.4 19.2-56 25.6-60.1 1.6-1 3.7-.6 4.9.9 31.9 40.6 124.1 50.7 151.3 52.7h.6c27.2-2 119.4-12.1 151.3-52.7 1.2-1.5 3.3-1.9 4.9-.9 6.4 4.1 20.6 17.8 25.6 60.1v2.3m183.8 11.8c-3 4.7-8 7.5-13.6 7.5s-2.9-.2-4.2-.6c-20.7-5.7-34.9-13.5-39.1-21.4-.6-2.5-1.9-11.4 5.7-16.7 0 0 .2-.1.3-.2 1.2-1.3 2.4-2.5 3.5-3.8 7.3-7.9 14-16.1 19.8-23.7.3 1 .7 2.1 1.2 3.1 5.6 11.3 23 17.9 51.8 19.5-7.9 10.1-16.6 22.3-25.4 36.2m49.4-64.2c-3.9 4.1-9.1 9.3-15.3 16.7-3.3-.2-6-.7-8.1-1.3-2.1-.7-3.4-1.6-3.9-2.6-.9-1.8.5-5.4 3.6-9.7 2.5-3.4 3.2-7.9 1.7-11.9-1.5-4-4.9-7.1-9-8.1l-19.2-4.6c-8.8-2.1-17.9 1.3-23.1 8.6 0 0 0 .1-.1.2v.1c-4.7 6.6-11 15-18.1 23.6v-.1c-1.6-4.9-5.6-8.7-10.5-10.2-13.9-4.2-41.6-11.2-71.7-11.6h-.3s-63.3-6.2-93.7-25.7l-16.3-10.6v-.2c9.6-12.9 27-36.9 35.3-52.3v-.2c.2-.3 15.6-29.8 42.2-29.8s3 0 4.5.3c.7.1 8.8 1.6 16.4 6.6 9.9 6.5 14.4 15.8 13.7 28.3-.2 3.3.6 6.5 2.2 9.2-3.6-.3-7.6-.7-11.7-1.2-1.3-13.8-7.5-24.7-7.8-25.2l-.2-.4c-4.9-6.7-10.6-10.5-17.1-11.3-9.8-1.2-17.3 5-17.7 5.2l-.4.4c-4.7 5.3-6.5 10.7-5.5 16 1.6 8.2 9.7 12.8 10.8 13.4 6.4 3.7 16.5 6.6 30.2 8.7l3.2.5h.2c16 2.2 30.6 2.6 31.2 2.6 5.9.6 13.4 1 22.4 1.2 2.3.2 27.1 2.5 55.2 11.7 17 5.6 32 12.7 44.3 21 15.1 10.2 26.4 22.2 33.7 35.8 1.2 2.2.8 4.8-.9 6.6"/><path class="cls-3" d="M815.9 954.4c-7.9 10.1-16.6 22.3-25.4 36.2-3 4.7-8 7.5-13.6 7.5s-2.9-.2-4.2-.6c-20.7-5.7-34.9-13.5-39.1-21.4-.6-2.5-1.9-11.4 5.7-16.7 0 0 .2-.1.3-.2l.8-.6.7-.8s.8-1 2-2.4c7.3-7.9 14-16.1 19.8-23.7.3 1 .7 2.1 1.2 3.1 5.6 11.3 23 17.9 51.8 19.5"/><path class="cls-3" d="M840.7 919.7c-7.2-13.6-18.6-25.7-33.7-35.8-12.4-8.3-27.3-15.4-44.3-21-28.1-9.3-52.9-11.5-55.2-11.7-9-.2-16.5-.7-22.4-1.4-.6.1-15.2-.2-31.2-2.4h-.2l-3.2-.5c-13.7-2.1-23.9-5-30.2-8.7-1.2-.6-9.2-5.2-10.8-13.4-1-5.3.8-10.7 5.5-16l.5-.4c.3-.3 7.9-6.4 17.7-5.2 6.5.8 12.2 4.6 17.1 11.3l.2.4c.3.5 6.4 11.4 7.8 25.2 4.1.5 8.1.9 11.7 1.2-1.6-2.7-2.4-5.9-2.2-9.2.6-12.5-3.9-21.8-13.7-28.3-7.6-5-15.7-6.5-16.4-6.6-1.5-.2-3-.3-4.5-.3-26.6 0-42 29.5-42.2 29.8v.2c-8.3 15.4-25.6 39.4-35.3 52.3v.2L572 890c30.3 19.5 93.7 25.7 93.7 25.7h.3c30.1.5 57.8 7.5 71.7 11.7 5 1.5 8.9 5.3 10.5 10.2v.1c7.2-8.6 13.4-17 18.1-23.6v-.1s0-.1.1-.2c5.3-7.4 14.4-10.7 23.1-8.6l19.2 4.6c4.2 1 7.6 4 9 8.1 1.5 4 .8 8.5-1.7 11.9-3.1 4.2-4.5 7.8-3.6 9.7.5 1 1.9 1.9 3.9 2.6 2.1.7 4.8 1.1 8.1 1.3 6.2-7.4 11.4-12.6 15.3-16.7 1.7-1.8 2-4.4.9-6.6m-208.5-61.8c-.3-1.3-.6-2.3-1.1-3.1s-1-1.3-1.6-1.7c-.6-.4-1.6-.8-2.9-1.1-1.8-.4-2.7-.7-4.6-1.2-2.6 12.1-5.2 24.3-7.8 36.4-.3 1.4-.5 2.5-.5 3.4 0 .9 0 1.6.3 2.2.2.6.6 1.1 1.1 1.5.5.4 1.3 1 2.4 1.6-.1.7-.2 1-.4 1.7-6.6-2-9.9-3.1-16.5-5.9.2-.7.2-1 .4-1.7.7.1 1.4.2 2 .3.6 0 1.1 0 1.5-.1.4-.1.8-.4 1.1-.7.3-.3.6-.8.9-1.5.3-.7.6-1.7.9-3.1 2.6-12 5.2-24.1 7.8-36.1l-4.5-1.5c-1.1-.4-2.1-.6-2.9-.7-.8 0-1.6.1-2.3.5-.8.4-1.6 1.1-2.3 2.1-.8 1-1.6 2.3-2.5 4-1.4-.6-2.1-.9-3.6-1.6 1.1-4.8 1.6-7.2 2.6-12 12.9 5 25.3 9.4 39 11.7-1.1 5.1-1.6 7.6-2.7 12.6-1.4-.3-2.1-.4-3.5-.7 0-2.2-.3-3.9-.5-5.2m55.5.6c-1.4.2-2.4.5-3.1.9-.6.4-1.1 1-1.5 1.8-.4.8-.8 2.3-1.2 4.3-2.7 12.8-4 19.2-6.6 32-.3 1.4-.5 2.5-.6 3.2v1.7c0 .4.2.8.4 1.1.2.3.5.6.9.8.4.3 1 .5 1.9.9-.2.7-.2 1.1-.4 1.8-6.1-.5-9.1-.8-15.2-1.4.2-.7.2-1.1.4-1.8 1.4-.2 2.4-.5 3-.9.6-.4 1.1-1 1.5-1.8.4-.8.8-2.3 1.2-4.3 1.3-6.2 1.9-9.3 3.2-15.5-8.1-.7-12.1-1.1-20.2-2.1-1.3 6.1-1.9 9.2-3.2 15.3-.3 1.6-.5 2.8-.6 3.6 0 .8 0 1.4.2 1.9s.4.9.9 1.3c.4.4 1.2.8 2.2 1.2-.1.7-.2 1.1-.4 1.8-6.1-.8-9.1-1.3-15.2-2.5.1-.7.2-1.1.4-1.8 1.6-.1 2.7-.4 3.3-.7.6-.4 1.1-1 1.4-1.9.3-.8.7-2.2 1.1-4 2.6-12.6 4-18.9 6.6-31.6.3-1.7.5-2.9.6-3.7 0-.8 0-1.4-.2-1.9s-.5-.9-.9-1.2c-.4-.3-1.1-.7-2.2-1.2.1-.7.2-1.1.4-1.8 6.1.9 9.1 1.3 15.2 2-.2.7-.2 1.1-.4 1.8-1.1.2-2 .3-2.5.6-.5.2-1 .5-1.3.9-.4.4-.7 1-1 1.7-.3.8-.6 2-1 3.7-1.1 5.2-1.6 7.8-2.7 13 8 1 12.1 1.4 20.2 2.1 1.1-5.2 1.6-7.8 2.7-13.1.4-2.1.6-3.6.6-4.4 0-.8-.3-1.4-.7-1.9-.4-.5-1.3-1-2.6-1.5.1-.7.2-1.1.4-1.8 6.1.5 9.1.8 15.2 1.3-.1.7-.2 1.1-.4 1.8m20.5 47.9c.2.6.6 1 1.1 1.4.5.4 1.3.8 2.4 1.2-.1.7-.2 1.1-.4 1.8-6.6-.9-9.9-1.2-16.6-1.9.1-.7.2-1.1.4-1.8 1.2-.1 2.1-.3 2.7-.5.6-.2 1.1-.6 1.6-1.1.4-.5.8-1.2 1.2-2 .3-.8.7-2 .9-3.4 1-4.7 1.5-7.1 2.4-11.8-2.4-8-3.6-12-6.1-20-.7-2.4-1.3-4.1-1.7-5.2-.4-1-.9-1.9-1.4-2.5-.5-.6-1.2-1.1-1.9-1.5.2-.7.2-1.1.4-1.8 6.2.6 9.3.9 15.4 1.6-.2.7-.2 1.1-.4 1.8-2.3 0-3.7.9-4 2.6-.2.7-.2 1.5 0 2.4.1.9.5 2.2 1 4 1.7 5.9 2.6 8.9 4.3 14.9 3.9-4.7 5.9-7.1 9.8-11.7 1.3-1.6 2.3-2.9 2.9-3.9.6-1 1-2 1.2-2.9.2-.9 0-1.6-.3-2.2-.4-.6-1.1-1-2.1-1.3.2-.7.2-1.1.4-1.8 5.5.9 8.2 1.5 13.7 2.7-.1.7-.2 1.1-.4 1.8-1.1.1-2 .4-2.9.9-.9.5-1.8 1.2-2.8 2.1-1 .9-2.5 2.5-4.6 4.9-5.5 6.1-8.2 9.3-13.7 15.7-1 4.7-1.5 7.1-2.5 11.9-.3 1.4-.5 2.5-.5 3.4 0 .9 0 1.6.3 2.1m56.1-21.8c-1.4-.6-2.1-1-3.6-1.5-.1-2.3-.5-4.1-1-5.6-.6-1.5-1.4-2.7-2.4-3.6-1-.9-2.4-1.7-4.2-2.3-1.6-.6-3-.7-4.4-.6-1.4.2-2.5.7-3.5 1.7-1 .9-1.6 2.2-2 3.8-.4 1.7-.4 3.2 0 4.5.4 1.3 1.1 2.7 2.2 4.1 1.1 1.4 2.8 3.1 5.1 5.2 2.7 2.5 4.8 4.8 6.2 6.8 1.4 1.9 2.4 3.9 3 6 .6 2 .7 4.1.2 6.3-.5 2.4-1.4 4.3-2.5 5.7-1.2 1.4-2.6 2.3-4.2 2.9-1.6.6-3.5.7-5.5.6-2.1-.2-4.3-.6-6.6-1.2-3.8-1-8-2.7-12.7-5 .8-4 1.2-6 2.1-9.9 1.4.3 2.2.5 3.6.8 0 2.2.3 4 .9 5.5.6 1.4 1.4 2.6 2.6 3.5 1.2.9 2.8 1.6 4.8 2.2 2.8.8 5.1.8 6.9-.2 1.8-.9 3-2.7 3.6-5.5.4-1.8.4-3.3 0-4.8-.4-1.4-1.2-2.9-2.3-4.5-1.2-1.5-3.1-3.5-5.7-5.8-2.5-2.2-4.5-4.2-5.8-5.9-1.3-1.7-2.3-3.5-2.7-5.2-.5-1.7-.5-3.5-.1-5.4.6-2.7 1.7-4.9 3.4-6.5 1.7-1.6 3.9-2.7 6.5-3 2.7-.3 5.6 0 8.7 1.2 1.8.7 3.6 1.5 5.3 2.4 1.7.9 3.8 2.2 6.2 4.1-.8 3.7-1.2 5.6-2 9.3m-156.8 91.7c-5-42.4-19.2-56-25.6-60.1-1.6-1-3.7-.6-4.9.9-31.9 40.6-124.1 50.7-151.3 52.7h-.6c-27.2-2-119.4-12.1-151.3-52.7-1.2-1.5-3.3-1.9-4.9-.9-6.4 4.1-20.6 17.8-25.6 60.1v2.3c.5 2.7 2.8 8.5 11.9 13.8 2.2 1.1 23.7 11.4 54.3 21.5 27.5 9.2 75.9 19.8 116 21.2 40.1-1.3 88.5-12 116-21.2 30.5-10.2 52-20.5 54.3-21.5 9.1-5.2 11.4-11 11.9-13.8.1-.8.1-1.5 0-2.3m-278.4-6.1c-1.6-.5-2.4-.8-3.9-1.4 0-2.4-.1-4.4-.6-5.9s-1.3-2.8-2.4-3.8c-1.1-1-2.7-1.9-4.6-2.7-2.8-1.1-5.5-1.3-8.3-.6-2.8.7-5.5 2.3-8.1 4.9-2.6 2.6-5 6.1-7.1 10.5-2.1 4.5-3.4 8.5-3.8 12.2-.4 3.7.1 6.8 1.6 9.4 1.5 2.6 3.8 4.6 7.1 6 3.5 1.4 6.3 1.8 8.4 1.3 2.1-.6 3.7-2.1 4.6-4.7.3-.8.5-1.3.8-2.1.8-2.1 1.2-3.7 1.3-4.8 0-1-.1-1.9-.6-2.7-.5-.8-1.4-1.6-2.8-2.6.3-.7.4-1 .7-1.7 6.7 2.7 10.1 3.9 16.9 6.1-.2.7-.4 1.1-.6 1.8-1.1 0-2 0-2.6.2-.6.2-1.2.5-1.6 1-.5.5-.9 1.1-1.2 1.8-.4.8-.8 1.9-1.3 3.4-1.7 5-2.6 7.5-4.3 12.4-1.5-.2-2.3-.3-3.8-.5-.9-1.6-1.4-2.4-2.2-4-2.3.2-4.6.2-6.8-.2-2.3-.4-4.8-1.1-7.5-2.3-7.5-3.1-12.1-7.8-13.8-13.5-1.7-5.7-.5-12.4 3.4-20.1 2.4-4.8 5.5-8.5 9.1-11.3 3.6-2.8 7.5-4.4 11.6-4.8 4.2-.5 8.4.2 12.8 2 2.3.9 4.5 1.9 6.6 3 2.1 1.1 4.3 2.4 6.8 3.9-1.4 3.9-2.1 5.9-3.4 9.8m54.5 27.1c-.8 5.9-2.5 10.7-5.2 14.4-2.7 3.7-6.2 6.3-10.5 7.6-4.3 1.3-9.1 1.4-14.3.2-3.7-.8-7-2.1-9.7-3.8-2.8-1.7-4.9-3.9-6.5-6.5-1.6-2.6-2.4-5.7-2.6-9.2-.2-3.5.4-7.4 1.7-11.8 1.6-5.4 4-9.7 6.9-13.1 2.9-3.4 6.3-5.6 10.2-6.8 3.8-1.2 7.9-1.3 12.2-.3 4.6 1 8.3 2.7 11.2 5.2 2.9 2.5 4.9 5.8 6 9.8 1.1 4.1 1.4 8.8.6 14.3m57.4 13.4c-1 3.3-2.6 6.1-4.8 8.4-1.9 2-4.3 3.6-7.2 4.9-2.4 1-5.2 1.8-8.3 2.1-3.2.4-7.4.5-12.6.2-6.8-.4-10.2-.6-17-1.3 0-.7.1-1.1.2-1.8 1.5-.2 2.5-.4 3.2-.6.6-.2 1.2-.5 1.5-.9.4-.4.7-1 .9-1.8.2-.8.4-2 .6-3.8.9-10.9 1.9-21.8 2.8-32.7.2-1.8.2-3 .1-3.8 0-.8-.2-1.4-.5-1.9s-.6-.8-1.1-1.2c-.5-.3-1.3-.7-2.5-1.1 0-.7.1-1.1.2-1.8 6.9.7 10.4 1 17.4 1.3 5 .2 9.1.8 12.3 1.8 3.2 1.1 6 2.5 8.3 4.5 2.3 2 4.1 4.4 5.4 7.4 1.3 3 2.1 6.6 2.3 10.8.2 4.3-.1 8.1-1.1 11.4m78.9-9.7c-.9 4.5-2.9 8.3-6.3 11.3-3.3 3-7.6 5.2-12.9 6.4-3.7.9-7.2 1.1-10.4.7-3.2-.4-6.1-1.4-8.6-3.1-2.5-1.7-4.6-4.1-6.2-7.2-1.7-3.1-2.8-6.9-3.5-11.4-.8-5.6-.6-10.5.6-14.8 1.2-4.3 3.3-7.8 6.2-10.5 2.9-2.7 6.5-4.5 10.9-5.5 4.6-1.1 8.7-1.1 12.4 0 3.7 1 6.9 3.1 9.7 6.3 2.8 3.2 5 7.4 6.7 12.7 1.8 5.6 2.3 10.7 1.4 15.2m38.7-21.9c-1.1-1.4-2.1-2.3-2.9-2.9-.8-.6-1.6-.9-2.4-.9-.8 0-1.8.2-3.1.8-3.4 1.5-5 2.2-8.4 3.6 2.2 5.5 3.3 8.3 5.6 13.8.6 1.4 1.1 2.5 1.7 3.2.5.8 1.1 1.3 1.8 1.6.7.3 1.5.4 2.3.3.9 0 2-.3 3.2-.6.3.7.4 1 .7 1.7-7.8 3.4-11.8 4.9-19.8 7.7-.2-.7-.4-1-.6-1.7 1.7-1 2.8-1.9 3.2-2.6.5-.7.6-1.5.5-2.4-.1-.9-.5-2.3-1.2-4-3.8-10.2-7.6-20.5-11.5-30.7-.6-1.6-1.1-2.8-1.5-3.5-.4-.7-.8-1.2-1.3-1.5-.4-.3-1-.5-1.5-.6h-2.8c-.2-.7-.4-1-.6-1.7 11.6-4.1 23-9 34-14.6 2.1 4.1 3.1 6.1 5.2 10.2-1.5.8-2.2 1.1-3.7 1.9-1.3-1.3-2.5-2.3-3.4-3-1-.7-1.9-1.2-2.7-1.4-.8-.2-1.6-.3-2.5-.1-.8.1-1.9.5-3.1 1-4.4 2-6.6 2.9-11 4.7 3.1 7.7 4.6 11.5 7.7 19.1 3.4-1.4 5-2.1 8.3-3.5 1.2-.5 2-1.1 2.6-1.7.5-.6.8-1.5.9-2.4 0-1 0-2.4-.4-4.2 1.5-.7 2.2-1 3.7-1.7 2.8 5.8 4.2 8.7 6.9 14.4-1.5.7-2.3 1.1-3.9 1.8"/><path class="cls-3" d="M511.9 1002.1c-.2 3.6-1.2 6.5-3.1 8.8-1.8 2.3-4.4 3.9-7.8 4.6-5.2 1.2-9.7 0-13.2-3.4s-5.8-9-7.2-16.7c-.6-3.4-.9-6.5-.9-9.3 0-2.8.4-5.3 1.2-7.5.8-2.2 1.9-3.9 3.4-5.3s3.4-2.3 5.8-2.9c2.7-.6 5.2-.4 7.6.7 2.4 1.1 4.7 3.2 6.9 6.3 2.2 3.2 4 7.4 5.5 12.7 1.2 4.3 1.8 8.3 1.6 11.9m-78.7 5.6c-.3 2.1-.9 4.1-1.6 5.9-.8 1.8-1.8 3.3-3.1 4.7-1.3 1.4-2.8 2.4-4.5 3.2-1.7.7-3.5 1.3-5.6 1.6-2 .3-4.4.4-7 .3-2.4 0-4.2-.3-5.5-.4l2.7-44.7c1.6 0 3.4 0 5.2.1 4 .2 7.4 1 10.2 2.5 2.9 1.5 5.1 3.9 6.8 7.2 1.7 3.3 2.6 7.5 2.7 12.6 0 2.6 0 4.9-.4 7.1m-58.4-10c-.7 4.5-2 8.3-3.6 11.4-1.7 3.1-3.9 5.4-6.5 6.7-2.6 1.3-5.7 1.6-9 .9-5.2-1.1-8.8-4.1-10.4-8.7-1.7-4.6-1.4-10.7.6-18.1.9-3.3 2-6.2 3.2-8.8 1.2-2.5 2.7-4.6 4.3-6.2 1.6-1.6 3.4-2.7 5.3-3.3 2-.6 4.1-.7 6.5-.2 2.7.6 4.9 1.9 6.6 3.9 1.7 2 2.9 4.9 3.5 8.7.6 3.8.5 8.4-.4 13.8m-258.7-21.6c-4.2 8-18.4 15.7-39.1 21.4-1.4.4-2.8.6-4.2.6-5.5 0-10.6-2.8-13.6-7.5-8.8-13.9-17.5-26.1-25.4-36.2 28.8-1.6 46.2-8.2 51.8-19.5.5-1 .9-2.1 1.2-3.1 5.8 7.5 12.6 15.8 19.8 23.7 1.2 1.3 2.3 2.5 3.5 3.8 0 0 .2.2.3.2 7.6 5.3 6.2 14.2 5.7 16.7"/><path class="cls-3" d="M293.9 878.9c-8-10.7-21.2-28.9-30.2-43.7-.2.2-.4.5-.6.8-.5.7-1 1.6-1.4 2.6-.5 1-1.1 2.7-1.9 4.9-2.5 7.2-3.9 10.7-6.5 17.6 6.2 5.5 9.2 8.2 15.3 13.3 1.6 1.3 2.8 2.2 3.7 2.6.8.4 1.6.7 2.2.7.7 0 1.3 0 2-.3.2.7.3 1 .4 1.7-5 2.9-7.6 4.2-12.7 6.6-.2-.7-.3-1-.4-1.7.7-.4 1.2-.8 1.4-1.2.3-.4.3-.9.2-1.4-.1-.4-.4-.9-.7-1.3-.4-.5-.9-1-1.6-1.6-4-3.5-5.9-5.3-9.9-9-1.2-1.1-2-1.8-2.5-2.1-.5-.3-1-.5-1.5-.5s-1.1 0-1.8.3c-.6.2-1 .3-1.6.6 1.5 5.8 2.2 8.7 3.7 14.4.4 1.5.7 2.6 1 3.3.3.7.6 1.2.9 1.5.3.3.7.6 1.2.7.5.1 1.2.2 2.2 0 .2.7.3 1 .4 1.7-5 1.9-7.6 2.7-12.7 4.2-.2-.7-.3-1-.4-1.7 1.2-.7 1.9-1.4 2.2-2 .3-.6.4-1.3.3-2.2 0-.9-.3-2.1-.8-3.8-2.5-9.9-5.1-19.9-7.6-29.8-.4-1.6-.7-2.7-1-3.4-.3-.7-.6-1.2-.9-1.5-.3-.3-.7-.6-1.2-.7-.5-.1-1.2-.2-2.2-.2-.2-.7-.3-1-.4-1.7 5.1-1.5 7.7-2.3 12.7-4.2.2.7.2 1 .4 1.7-.8.6-1.4 1.1-1.7 1.5-.3.4-.6.8-.7 1.3-.1.5-.2 1.1 0 1.9 0 .8.3 2 .7 3.6 1.3 5.1 1.9 7.6 3.2 12.6.4-.1.5-.2.9-.3.8-.3 1.4-.7 2-1.2.6-.5 1.1-1.3 1.7-2.3.6-1.1 1.4-2.9 2.4-5.7 1.2-3.2 2.1-5.6 2.5-7 .5-1.7.8-3.1.9-4.1 0-.8 0-1.5-.1-2.1-.2-.9-.6-1.5-1.2-1.7-.6-.2-1.2-.2-2 0-.2-.7-.3-1-.4-1.7 4.5-2 7-3.3 11-5.5-1.4-2.4-2.8-4.7-3.9-6.9v-.2c-.1-.3-15.6-29.8-42.2-29.8s-3 0-4.5.3c-.7.1-8.8 1.6-16.4 6.6-9.9 6.5-14.4 15.8-13.7 28.3.2 3.3-.6 6.5-2.2 9.2 3.6-.3 7.6-.7 11.7-1.2 1.3-13.8 7.5-24.7 7.8-25.2l.2-.4c4.9-6.7 10.6-10.5 17.1-11.3 9.8-1.2 17.4 5 17.7 5.2l.5.4c4.7 5.3 6.5 10.7 5.5 16-1.6 8.2-9.7 12.8-10.8 13.4-6.4 3.7-16.5 6.6-30.2 8.7l-3.2.5h-.2c-16 2.2-30.6 2.6-31.2 2.6-5.9.6-13.4 1-22.4 1.2-2.4.2-27.1 2.5-55.2 11.7-17 5.6-32 12.7-44.3 21-15.1 10.2-26.4 22.2-33.7 35.8-1.2 2.2-.8 4.8.9 6.6 1.9 2 4.2 4.3 6.8 7.1 2.6 2.7 5.4 5.9 8.5 9.6 6.6-.4 11.1-1.9 12-3.9.9-1.8-.5-5.4-3.6-9.7-2.5-3.4-3.2-7.9-1.7-11.9 1.5-4 4.9-7.1 9-8.1l19.2-4.6c8.8-2.1 17.9 1.3 23.1 8.6 0 0 0 .1.1.2v.1c1.5 2.1 3.2 4.4 5 6.9 0-.2.1-.5.2-.8v-1.9c0-.8-.3-1.8-.6-3.2-3-11.7-6-23.5-9-35.3-1.5.7-2.2 1-3.7 1.7-.9.5-1.6.9-2.2 1.4-.5.5-1 1.2-1.3 2.1-.3.9-.5 2.1-.6 3.5-.1 1.4-.1 3.2 0 5.2-1.1.6-1.7 1-2.8 1.6-1.2-4.8-1.8-7.2-3.1-12 10-5.8 20.8-10.4 31.9-13.8 1.2 4.8 1.8 7.2 3.1 12-1.2.4-1.8.6-3 .9-1-1.8-1.8-3.2-2.5-4.2s-1.4-1.7-2-2.1c-.6-.4-1.2-.7-1.9-.7-.6 0-1.5.1-2.6.5-1.5.6-2.3.9-3.8 1.5 3 11.8 6 23.5 9 35.3.4 1.4.7 2.4 1 3.2.3.7.7 1.3 1.1 1.7.4.4.8.6 1.4.7h2.3c.2.7.3 1 .4 1.7-3.8 1.4-6.3 2.4-9.3 3.8 3.3 4.4 7.1 9.2 11.1 14v-.1c1.6-4.9 5.6-8.7 10.5-10.2 13.9-4.2 41.6-11.2 71.7-11.6h.3s63.3-6.2 93.7-25.7l16.3-10.6v-.2m-156.4 31.2c-.2-.7-.3-1-.4-1.7 1.1-.5 1.8-1 2.1-1.5.4-.5.5-1.1.5-2 0-.8-.3-2.2-.8-4.1-1.5-5.8-2.2-8.7-3.7-14.4-7 1.1-10.5 1.8-17.3 3.3 1.5 5.8 2.2 8.7 3.7 14.4.4 1.5.7 2.7 1 3.3.3.7.6 1.2.9 1.6.3.4.7.6 1.2.8.5.2 1.2.3 2.3.4.2.7.3 1 .4 1.7-5.2 1.1-7.8 1.7-13 3.1-.2-.7-.3-1-.4-1.7 1.2-.7 1.9-1.3 2.2-1.9.3-.6.4-1.3.4-2.1 0-.9-.3-2.1-.8-3.8-2.5-9.9-5.1-19.9-7.6-29.8-.4-1.6-.8-2.7-1-3.4-.3-.7-.6-1.2-.9-1.5-.3-.3-.7-.6-1.2-.7-.5-.1-1.2-.2-2.2-.3-.2-.7-.3-1-.4-1.7 5.1-1.4 7.7-2 13-3.1.2.7.3 1 .4 1.7-.8.5-1.4.8-1.8 1.2-.3.3-.6.7-.7 1.2-.1.4-.2 1 0 1.8 0 .8.3 2 .7 3.6 1.2 4.9 1.9 7.3 3.1 12.2 6.9-1.5 10.4-2.2 17.3-3.3-1.2-4.9-1.9-7.3-3.1-12.2-.5-2-.9-3.4-1.3-4-.4-.7-.8-1.2-1.3-1.6-.5-.3-1.4-.6-2.8-.7-.2-.7-.3-1-.4-1.7 5.2-.9 7.9-1.3 13.2-2 .2.7.3 1 .4 1.7-1.1.5-1.8 1-2.2 1.4-.4.5-.5 1.1-.5 1.9 0 .8.3 2.2.8 4.1 2.5 9.9 5.1 19.9 7.6 29.8.4 1.3.6 2.3.9 3 .2.7.5 1.2.7 1.6s.5.7.8.9c.3.2.6.4 1.1.6.5.1 1.1.3 2 .4.2.7.3 1 .4 1.7-5.3.7-7.9 1.1-13.2 2m42.2-5.6c-.2-.7-.3-1-.4-1.7 1-.3 1.7-.7 2.2-1 .5-.3.7-.7.9-1.3.1-.5 0-1.2-.1-2-.2-.8-.5-1.6-.9-2.5-.4-.9-.9-1.9-1.5-3-.9-1.7-1.4-2.6-2.3-4.3-5.9.7-8.9 1-14.8 1.6 0 1.4-.1 2.1-.2 3.5-.1 1.8-.1 3.1 0 4 0 .9.2 1.7.4 2.4.4 1.4.9 2.4 1.7 2.9.8.6 1.9.9 3.3.9.2.7.3 1 .4 1.7-5.4.6-8.1.9-13.5 1.6-.2-.7-.3-1-.4-1.7 1.1-.4 2-1.2 2.5-2.6.6-1.4.9-3.3 1.1-5.8 1.2-13.2 2.3-26.4 3.5-39.6l5-.5c6.9 12.4 13.8 24.8 20.6 37.2 1 1.7 1.8 3 2.4 3.9.6.9 1.3 1.6 2 2 .7.5 1.5.8 2.6.9.2.7.2 1 .4 1.7-5.9.7-8.8 1-14.6 1.7m47.7-6.8c-8.6-9.6-17.1-19.3-25.6-29-1.6-1.8-2.7-3.2-3.4-4-.7-.9-1.4-1.7-2-2.5h-.5c.6 1.8 1.5 4.9 2.8 9.5s2.5 9.2 3.6 13.8c.7 2.8 1.1 4.2 1.8 7 .4 1.5.7 2.7 1 3.4.3.7.6 1.2.9 1.6.3.4.7.7 1.2.9s1.3.4 2.3.5c.2.7.2 1 .4 1.7-4.6.7-6.9 1-11.5 1.6-.2-.7-.3-1-.4-1.7 1.2-.5 2-1.1 2.3-1.6.3-.5.5-1.2.4-2 0-.8-.3-2.1-.8-3.8-2.5-9.9-5.1-19.9-7.6-29.8-.4-1.6-.7-2.7-1-3.4-.3-.7-.6-1.2-1-1.6-.3-.4-.7-.6-1.2-.8-.5-.2-1.2-.4-2.3-.6-.2-.7-.3-1-.4-1.7 4-.5 5.9-.8 9.9-1.4 7.5 8.6 15.1 17.2 22.7 25.7 1.1 1.2 2 2.3 2.8 3.2.8.9 1.6 2 2.5 3.1h.4c-.5-1.4-1.3-4.1-2.4-8.3-1.1-4.1-2.2-7.9-3-11.3-.7-2.9-1.1-4.3-1.9-7.2-.4-1.6-.7-2.7-1-3.5-.3-.7-.6-1.2-.9-1.6-.3-.4-.7-.6-1.1-.8-.5-.2-1.2-.3-2.2-.4-.2-.7-.3-1-.4-1.7 4.5-.9 6.7-1.4 11.1-2.5.2.7.3 1 .4 1.7-.8.5-1.4.9-1.7 1.2-.3.3-.6.7-.7 1.1-.1.4-.2 1-.1 1.8 0 .8.3 2 .7 3.7 3.3 12.9 6.6 25.7 9.9 38.6-1.5.4-2.3.5-3.9.9"/><path class="cls-3" d="M176.3 885.7c-5.3.6-8 .9-13.3 1.5.6-9.2.9-13.8 1.6-23 4.7 8.6 7 12.9 11.7 21.6"/><path class="cls-1" d="M737 950.3c-1.1 1.5-1.9 2.3-1.9 2.3-.3.2-.5.3-.8.5.9-.9 1.8-1.9 2.7-2.9m2.5 9l-.3.3c0-.1.2-.2.3-.2z"/><path class="cls-3" d="M202.2 837.8s27.4-3.1 28.1-17.3c0 0 1.6-7.6-11.2-7.6 0 0-15.8 5.3-16.9 24.9M50.3 936.1c5.7 0 11.4-1.1 16.5-3.6 3.9-1.8 7.4-4.4 8.1-7.7 0 0 1.6-8.9-7.6-10.6 0 0-13.6 3.1-20.7 3.1 0 0-7.5.5-3.1 4.5 0 0 6.1 8.2 6.6 14.4h.2zm597.3-98.3s-27.4-3.1-28.1-17.3c0 0-1.6-7.6 11.2-7.6 0 0 15.8 5.3 16.9 24.9m151.9 98.3c-5.7 0-11.4-1.1-16.5-3.6-3.9-1.8-7.4-4.4-8.1-7.7 0 0-1.6-8.9 7.6-10.6 0 0 13.6 3.1 20.7 3.1 0 0 7.5.5 3.1 4.5 0 0-6.1 8.2-6.6 14.4h-.2z"/><path class="cls-5" d="M222.2 53.6c-20.6 1.8-29.4-1.3-29.5-1.3h-.8c-.1 0-.3.1-.4.3v77.3c0 1 .8 1.8 1.7 1.9.2 0 24.2 2.4 57.6 2.8h9.1c30.2 0 70.9-1.8 108.1-9.2.5 0 47.9-9.6 69.8-15.9.3 0 37.7-10.4 82.7-18.6 21-3.8 40.3-6.6 57.6-8.3v22.9c0 .1 0 .2.1.2 0 0 0 .1.1.1q0 .1.1.2c0 .1.1.1.2.2h1.6s.1 0 .2-.1c11.3-7.6 46.9-8.2 103-2.1 42.6 4.7 82.3 11.8 82.7 11.8h.3c.6 0 1.2-.3 1.5-.8.4-.6.4-1.4 0-2-8.1-13.6-29.4-33.5-36.3-39.7l45-21c.7-.3 1.1-1 1.1-1.8-.1-.8-.6-1.5-1.3-1.7-26.4-9.9-58.8-15.3-81.3-18.1-20-2.5-35.9-3.4-41.2-3.6V6.5c0-.9-.6-1.7-1.5-1.8C637 1 616.1.1 590 1.9c-15.2 1-37 4.4-67.2 9.2-33.3 5.3-153.2 39.1-214.2 42.3-55.4 2.9-70-1.2-86.6.1"/><path class="cls-4" d="M222.2 53.6c-20.6 1.8-29.4-1.3-29.5-1.3h-.8c-.1 0-.3.1-.4.3v77.3c0 1 .8 1.8 1.7 1.9.2 0 24.2 2.4 57.6 2.8h9.1c30.2 0 70.9-1.8 108.1-9.2.5 0 47.9-9.6 69.8-15.9.3 0 37.7-10.4 82.7-18.6 21-3.8 40.3-6.6 57.6-8.3v22.9c0 .1 0 .2.1.2 0 0 0 .1.1.1q0 .1.1.2c0 .1.1.1.2.2h1.6s.1 0 .2-.1c11.3-7.6 46.9-8.2 103-2.1 42.6 4.7 82.3 11.8 82.7 11.8h.3c.6 0 1.2-.3 1.5-.8.4-.6.4-1.4 0-2-8.1-13.6-29.4-33.5-36.3-39.7l45-21c.7-.3 1.1-1 1.1-1.8-.1-.8-.6-1.5-1.3-1.7-26.4-9.9-58.8-15.3-81.3-18.1-20-2.5-35.9-3.4-41.2-3.6V6.5c0-.9-.6-1.7-1.5-1.8C637 1 616.1.1 590 1.9c-15.2 1-37 4.4-67.2 9.2-33.3 5.3-153.2 39.1-214.2 42.3-55.4 2.9-70-1.2-86.6.1z"/><path class="cls-5" d="M255.1 54.4V41.3h-.1v-.2h-.8c-.8 0-26.1 2.3-61.2.4-32.7-1.8-81-7.7-124.9-25.6-.8-.3-1.7 0-2.3.7-.5.8-.4 1.7.2 2.4l42.4 45.4-54.2 18.1c-.8.3-1.2.9-1.3 1.7 0 .8.4 1.5 1.2 1.8.1 0 15.5 6.4 39.8 13.5 22.2 6.4 58.5 14.8 97.3 18.2v9.8c0 .6.4.9.2 2.3"/><path class="cls-4" d="M255.1 54.4V41.3h-.1v-.2h-.8c-.8 0-26.1 2.3-61.2.4-32.7-1.8-81-7.7-124.9-25.6-.8-.3-1.7 0-2.3.7-.5.8-.4 1.7.2 2.4l42.4 45.4-54.2 18.1c-.8.3-1.2.9-1.3 1.7 0 .8.4 1.5 1.2 1.8.1 0 15.5 6.4 39.8 13.5 22.2 6.4 56.5 14.8 98.4 18.2l2 9.8c-2.1.9-2.2 3.4-2.1 2.2"/><path class="cls-3" d="M594.1 76.9c22.2-1.4 40.5-.7 54.7 2 .8.1 1.2.3 1.3.3.3 0 .6 0 .8.1V7.1c-25.7-5.7-67.5-3.8-121.3 5.5-3 .5-6 1-9.1 1.6-45 8.2-82.3 18.5-82.7 18.6-22 6.3-69.4 15.8-69.8 15.9-41.1 8.2-86.5 9.5-117.3 9.1-27.8-.3-49.1-2-55.6-2.6v72.2c6 .6 27.4 2.4 55.6 2.7 30.6.3 75.7-.9 116.5-9.1.5 0 47.7-9.6 69.6-15.8.4-.1 37.8-10.4 83-18.6 26.5-4.9 50.4-8 71.2-9.5 1 0 2-.1 3.1-.2"/><path class="cls-5" d="M243.4 74.3v8.3h-2.8c-.4-1.2-.8-2.3-1.1-3-.4-.8-.7-1.4-1.1-1.8-.4-.4-.9-.7-1.4-.9-.5-.2-1.3-.3-2.2-.3h-8c0-.1-.2 14.7-.2 14.7h5.6c.8.1 1.4 0 1.9-.3s.8-.7 1.2-1.3c.3-.6.6-1.6.9-2.9h2.6l-.2 11.6H236c-.3-1.3-.5-2.2-.8-2.9-.3-.6-.7-1.1-1.1-1.4-.4-.3-1.1-.4-1.9-.4h-5.6l-.2 10.6c0 1.1 0 2 .1 2.6.1.7.3 1.2.6 1.6.3.4.7.7 1.2.9.5.2 1.1.4 1.8.6v1.3l-12.2-.2v-1.3c1.2-.3 1.9-.6 2.3-.9.4-.3.6-.9.8-1.5.1-.7.2-1.7.2-3l.4-23.6V78c0-.6-.2-1-.4-1.3-.2-.3-.5-.6-.8-.8-.3-.2-.9-.4-1.8-.7v-1.3l25 .4zm21.8 37.9c-2.2 0-4.2-.4-6-1.1-1.8-.7-3.3-1.9-4.6-3.4-1.3-1.5-2.3-3.5-3-5.8-.7-2.4-1-5.2-1-8.5 0-4.1.6-7.6 1.9-10.5 1.2-2.9 3-5.1 5.3-6.6s5-2.3 8-2.3c3.2 0 6 .7 8.2 2.2 2.2 1.4 3.9 3.5 5 6.3s1.7 6.2 1.7 10.2c0 4.3-.7 7.9-1.9 10.8-1.3 2.9-3.1 5.1-5.4 6.6-2.3 1.5-5 2.2-8.1 2.2m-9-19.6c0 5.6.8 9.9 2.4 12.8 1.6 2.9 4 4.4 7.1 4.4 2 0 3.7-.6 5.1-1.9 1.4-1.3 2.4-3.1 3.1-5.6.7-2.4 1.1-5.3 1.1-8.6 0-4-.4-7.3-1.2-9.9-.8-2.6-1.9-4.5-3.3-5.7-1.4-1.2-3-1.8-4.9-1.8-1.6 0-3 .4-4.2 1.1-1.2.8-2.2 1.9-2.9 3.3-.8 1.4-1.3 3.1-1.7 5.1-.4 2-.5 4.2-.6 6.7m62 4.8c.1 2 0 3.7-.3 5.2-.3 1.4-.7 2.6-1.4 3.7-.6 1-1.3 1.8-2.3 2.5-.9.7-2 1.3-3.4 1.7-1.3.5-2.9.7-4.7.8-2.2.1-4.1 0-5.7-.5-1.6-.4-2.9-1.2-4-2.2-1.1-1.1-1.9-2.4-2.4-3.8-.5-1.5-.9-3.4-1-5.8l-.9-18c0-1.4-.2-2.4-.3-2.9-.1-.5-.3-.9-.5-1.2-.2-.3-.5-.5-.8-.7-.3-.2-1-.4-1.9-.6v-1.3l11.4-.6V75c-.9.3-1.6.6-2 1-.4.3-.6.8-.7 1.5-.1.6-.1 1.7 0 3.2l1 19.3c0 1.8.4 3.2.8 4.4.4 1.2 1 2.1 1.7 2.7.7.6 1.5 1.1 2.5 1.3.9.3 2.1.3 3.5.3 1.3 0 2.4-.3 3.3-.8s1.7-1.2 2.3-2.2c.6-.9 1-2.1 1.2-3.4.2-1.3.2-3.1 0-5.4l-.9-17.1c0-1.6-.2-2.7-.4-3.2-.2-.6-.5-1-.8-1.3-.4-.3-1.1-.6-2.2-.8v-1.3l10.8-.6v1.3c-1 .3-1.7.7-2.1 1-.4.3-.6.8-.7 1.5-.1.6-.1 1.7 0 3.2l.9 17.6zm35.8-6.5c.8 1 1.5 1.8 2.1 2.6.6.7 1.2 1.6 1.8 2.5h.4c-.3-1.1-.7-3.3-1.3-6.6-.6-3.2-1.2-6.2-1.6-8.8l-1-5.7c-.2-1.2-.4-2.1-.6-2.7-.2-.6-.4-1-.6-1.3-.2-.3-.5-.5-.9-.6-.4-.1-1-.2-1.8-.3l-.2-1.3 9.7-1.6.2 1.3c-.8.4-1.3.6-1.6.9-.3.2-.5.5-.7.8-.2.3-.2.8-.3 1.4 0 .6 0 1.5.3 2.9l5.1 30.2-3.4.6-19.3-22.7c-1.2-1.4-2.1-2.4-2.6-3.1-.5-.7-1-1.3-1.5-1.9h-.5c.4 1.4.9 3.9 1.5 7.5.7 3.6 1.3 7.2 1.9 10.8l.9 5.5c.2 1.2.4 2.1.6 2.6.2.5.4 1 .6 1.3.2.3.6.5 1 .7.4.2 1 .3 1.9.3l.2 1.3-9.8 1.7-.2-1.3c1.1-.5 1.8-.9 2.1-1.3.3-.4.5-1 .5-1.6s0-1.7-.3-3l-3.9-23.3c-.2-1.2-.4-2.1-.6-2.7-.2-.6-.4-1-.7-1.2-.3-.3-.6-.5-.9-.6-.4-.1-1-.2-1.9-.3l-.2-1.3 8.4-1.4 17.1 20zm22 10.6l-.3-1.3c.8-.4 1.3-.7 1.6-1 .3-.3.5-.6.7-.9.1-.3.2-.8.1-1.4 0-.6-.2-1.5-.4-2.7l-4.9-23.1c-.3-1.2-.5-2.1-.7-2.7-.2-.5-.4-.9-.7-1.2-.3-.3-.6-.4-1-.6-.4-.1-1-.2-1.9-.3l-.3-1.3 11.7-2.5c3.4-.7 6.2-.9 8.5-.7 2.3.3 4.4 1 6.1 2.1 1.8 1.1 3.3 2.7 4.5 4.7 1.2 2 2.1 4.5 2.7 7.5.6 3 .9 5.7.7 8.2-.2 2.4-.8 4.6-1.8 6.4-.9 1.6-2 3-3.5 4.2-1.2 1-2.7 1.9-4.4 2.5-1.7.7-4.1 1.3-7.1 2l-9.7 2.1zm7.6-4.2c.7 0 1.8-.3 3.2-.6 1.5-.3 2.8-.7 3.9-1.2s2.1-1.1 3-1.9c.8-.7 1.6-1.7 2.1-2.8.6-1.1 1-2.3 1.2-3.7.2-1.3.3-2.8.2-4.4 0-1.6-.3-3.2-.7-5-.8-3.6-1.9-6.5-3.5-8.6-1.5-2.1-3.4-3.5-5.5-4.2-2.1-.7-4.5-.7-7.1-.2-1.2.3-2.4.5-3.4.8l6.7 31.6zm47.7-46.9l2 8-2.6.7c-.5-.8-1-1.5-1.4-2.1-.4-.6-.9-1.1-1.3-1.4-.4-.4-.8-.6-1.3-.8-.4-.2-.9-.2-1.4-.2-.5 0-1.1.1-1.8.3l-8.4 2.1 3.5 13.9 5.7-1.4c.8-.2 1.4-.5 1.7-.8.4-.3.7-.8.8-1.4.2-.6.2-1.5.2-2.7l2.5-.6 2.6 10.2-2.5.6c-.5-1-1-1.7-1.4-2.2-.4-.5-.9-.8-1.4-.9-.5-.1-1.1 0-2 .1l-5.7 1.4 3.9 15.3 8.2-2.1c.9-.2 1.5-.5 2-.8.5-.3.9-.7 1.2-1.1.3-.5.5-1 .7-1.7.2-.7.2-1.3.3-2 0-.7 0-1.7.1-3l2.6-.7 1.9 9.4-24.5 6.2-.3-1.3c1-.6 1.7-1.1 2-1.5.3-.4.4-1 .4-1.7s-.2-1.7-.6-3l-5.8-22.9c-.3-1.2-.6-2.1-.8-2.6-.2-.5-.5-.9-.8-1.2-.3-.3-.6-.4-1-.5-.4-.1-1-.2-1.9-.2l-.3-1.3 24.8-6.3zm18.5 33.8l-.3-1.3c.8-.4 1.3-.7 1.6-1 .3-.3.5-.6.7-.9.1-.3.2-.8.1-1.4 0-.6-.2-1.5-.5-2.7l-5.1-23.1c-.3-1.2-.5-2.1-.7-2.7-.2-.5-.5-.9-.7-1.2-.3-.3-.6-.4-1-.6-.4-.1-1-.2-1.9-.2l-.3-1.3 11.7-2.6c3.4-.7 6.2-1 8.5-.7 2.3.3 4.4.9 6.2 2.1 1.8 1.1 3.3 2.7 4.5 4.6 1.2 2 2.1 4.5 2.8 7.4.7 3 .9 5.7.7 8.2-.2 2.4-.8 4.6-1.7 6.4-.8 1.6-2 3-3.5 4.3-1.2 1-2.7 1.9-4.4 2.6-1.7.7-4.1 1.4-7.1 2l-9.7 2.1zm7.6-4.3c.7 0 1.8-.3 3.2-.6 1.5-.3 2.8-.8 3.9-1.3s2.1-1.1 2.9-1.9c.8-.7 1.5-1.7 2.1-2.8.6-1.1.9-2.4 1.1-3.7.2-1.3.3-2.8.1-4.4-.1-1.6-.4-3.2-.8-5-.8-3.6-2-6.5-3.5-8.6-1.6-2.1-3.4-3.5-5.5-4.1-2.1-.6-4.5-.7-7.1 0-1.2.3-2.3.6-3.4.9l7 31.5zM518.8 63c.2 1 .4 1.8.6 2.3.2.5.5.9.8 1.2.4.3.8.5 1.4.6.6 0 1.3.1 2.2 0 .9 0 2-.2 3.4-.4l.3 2-19.9 3.5-.3-2c2-.4 3.4-.8 4.2-1.1.8-.3 1.4-.6 1.8-1 .4-.4.6-.9.8-1.5.1-.6 0-1.5-.2-2.8L510.1 42c-.1-.7-.3-1.2-.7-1.5-.3-.3-.7-.4-1.2-.3-.6.1-1.3.5-2.3 1.3-1 .8-2.1 1.8-3.5 3.1l-1.5-1.9 11.3-9.7 1.5-.3c.2 1.7.6 4.1 1.1 7.2l4 23zm22.1 2.6l-.2-1.3c2.5-.3 4.6-1.2 6.3-2.6 1.7-1.4 3-3.2 3.8-5.6.8-2.3 1.2-5.3 1.1-8.9h-.3c-1.4 1.2-2.8 2.2-4.2 2.9-1.4.7-3 1.2-4.7 1.4-2 .3-3.8 0-5.4-.6-1.6-.7-2.8-1.8-3.8-3.3-.9-1.5-1.6-3.4-1.9-5.5-.2-1.6-.2-3.2.2-4.7.3-1.5 1-2.9 1.9-4.1.9-1.2 2.1-2.3 3.6-3.1 1.5-.9 3.3-1.4 5.5-1.7 3.8-.5 6.9.4 9.2 2.7 2.3 2.3 3.9 6 4.5 10.9.6 4.5.4 8.5-.6 12s-2.7 6.3-5.1 8.5c-2.4 2.2-5.3 3.7-8.8 4.5l-1.3-1.3zm3.4-17.2c.7 0 1.3-.2 1.9-.4.6-.2 1.2-.5 1.8-.8.6-.3 1.1-.7 1.6-1.1.5-.4 1-.9 1.4-1.3.1-.2.3-.4.4-.6 0-.3.2-.6.2-1s0-1-.1-1.8c-.3-2.5-.9-4.6-1.6-6.3-.7-1.7-1.7-2.9-2.8-3.7s-2.5-1-4-.8c-1.4.2-2.5.6-3.3 1.2-.9.6-1.5 1.3-2 2.2-.5.9-.8 1.9-.9 3.1-.1 1.1 0 2.4 0 3.7.4 2.7 1.2 4.7 2.5 6 1.3 1.3 3 1.9 5 1.6m40.3 8.9c.9 0 1.6-.2 2.1-.3.5-.2 1-.4 1.3-.6.3-.3.5-.6.7-1.1.2-.4.3-1.1.6-2l2.3-.2.2 8-22.4 1.8v-1.3c.5-2 1.4-4 2.6-6.1 1.2-2.1 2.9-4.6 5.1-7.5 1.9-2.5 3.3-4.4 4.1-5.6.9-1.4 1.6-2.6 2-3.6.4-1 .7-1.9.9-2.8.2-.9.2-1.7.1-2.6-.1-1.4-.4-2.5-.9-3.6-.5-1-1.3-1.8-2.2-2.3-.9-.5-2.1-.7-3.5-.6-3.4.3-5.5 2.3-6.4 6.2l-3.3.3-.4-5.2c2.1-1.2 4.1-2.1 6-2.7 1.9-.6 3.6-1 5.1-1.1 3.4-.3 6 .3 7.8 1.6 1.8 1.3 2.9 3.4 3.1 6.2v2.7c-.1.8-.4 1.6-.7 2.5-.3.8-.8 1.7-1.4 2.7-.6 1-1.3 1.9-2.1 2.9s-2.1 2.7-4 5c-3.2 3.9-5.5 7.3-6.9 10.2l10.3-.8zM627.8 25l-16.4 36h-4v-1.4l15.1-31v-.4l-12-.2c-.7 0-1.3 0-1.8.2-.4.1-.8.3-1.1.6-.3.3-.6.6-.8 1-.2.4-.5 1.2-.9 2.5h-2.4l.7-8.9 23.5.3V25z"/><path class="cls-3" d="M239.1 45.8h.4c-11 .4-27.2.6-46.1-.5-21-1.2-41.4-3.5-60.5-7.1-20.9-3.9-40.3-9.1-58-15.8h.1c0 .1-.1 0-.2 0l38.8 41.5c.4.4.5 1 .4 1.5v.1c-.1.6-.6 1.1-1.2 1.3L60.6 84.2C66.9 86.6 79 91 95.3 95.7c21.9 6.4 55.9 14.6 94.1 18v-.2h.1V51.2h.7c.8 0 26.7 0 48-4.8h-.3"/><path d="M233.8 52.8c5.8 0 12.2 0 19.1-.3v-6.7c-9.3 3.5-21.1 5.5-31.8 6.7h.4-.4c3.9.1 8.2.2 12.7.2" fill="#8b0d1b"/><path class="cls-3" d="M603.5 85.1c1.2-.6 2.5-1.1 3.7-1.6 1.7-.7 3.4-1.2 5.1-1.8 2.2-.7 4.5-1.3 6.8-1.8h-4.2c-10 0-21 .6-33 1.6v17.9c6.5-5.9 13.8-10.7 21.6-14.2"/><path class="cls-3" d="M771.6 50.2c-25.2-8.7-55-13.6-76.1-16.3-19.6-2.4-35.3-3.3-40.7-3.6v51.4c0 .6-.3 1.1-.7 1.5-.4.3-.8.4-1.2.4h-.4c-1.2-.3-2.6-.6-3.9-.8-2.5-.5-10.8-1.7-21.7-.2-10 1.3-24 5.2-37.7 15.8h.1c17.2-4.1 49.1-3.6 95.1 1.4 4.3.5 8.6 1 12.8 1.5 2.1.3 4.2.5 6.3.8 3.1.4 6.2.8 9.2 1.2 1 .1 2 .3 3 .4 5.9.8 11.5 1.6 16.7 2.4 1.7.3 3.4.5 5.1.8.8.1 1.6.2 2.4.4 1.6.2 3.1.5 4.6.7 2.2.3 4.3.7 6.3 1 1.3.2 2.5.4 3.7.6 1.8.3 3.4.6 4.8.8 1.4.2 2.7.5 3.8.6-10.9-15.4-35-37-35.3-37.2-.5-.4-.7-1-.6-1.7 0-.5.3-.9.7-1.2.1-.1.2-.2.4-.3l43.4-20.2z"/></g></svg>