<svg xmlns="http://www.w3.org/2000/svg" viewBox="0 0 1335 234.75"><defs><style>.cls-1{fill:#fff;}</style></defs><title>petroleum club logo</title><g id="Layer_2" data-name="Layer 2"><g id="Layer_1-2" data-name="Layer 1"><path class="cls-1" d="M743.71,168.43c2.82-1.7,4.23-4.71,6.14-7.21a48,48,0,0,1,9.4-9.54c2-1.47,4.11-3,6.78-1.38a7.28,7.28,0,0,1,3.65,6.56c0,3.88,0,7.75.06,11.63,0,.88-.21,1.9,1.36,2.82,3.14-4.56,6.49-9.06,9.42-13.82,2.16-3.48,4.7-5.9,9-5s5.86,3.95,6.34,8.1c1.47,12.83.76,25.65.43,38.49-.19,7.69.67,15.39,0,23.1-.13,1.37.06,2.75-.54,4-.4.86-.84,1.7-2,1.62-.91,0-1.3-.74-1.59-1.47-2-5.13-3.89-10.29-4.36-15.89-1.06-12.6.47-25.23-.5-37.83a34,34,0,0,0-.75-4.57c-.4-1.87.42-4.72-2-5.19-2.2-.42-2.87,2.44-4.08,3.9-3.58,4.31-6,9.35-8.72,14.22a40.66,40.66,0,0,1-3.12,5.16c-2.39,3-5.31,2.57-6.5-1.18-1.37-4.3-1.38-8.85-1.28-13.29a25.35,25.35,0,0,0-.93-7.75c-1.06-3.69-2.23-4-4.83-1-5.61,6.47-9.8,13.89-13.84,21.39-2.6,4.83-3.46,5-7.21,1.05-1.51-1.58-2.3-1-3.31.23-1.77,2.06-2.5,4.68-3.28,7.14-1.27,4-4,7-6.7,9.9-4.4,4.69-10.94,4.06-14.87-1.21a42.77,42.77,0,0,1-5.71-10.07c-1.06-2.73-2.52-3.43-4.7-1a19.16,19.16,0,0,1-2,1.89c-9.25,7.62-16.07,7.25-23.18-2.25-3.24-4.32-5.1-4.44-8.73-.75a40.05,40.05,0,0,1-13.87,8.94c-8.17,3.28-15.47,2.35-21.74-3.81-5.57-5.48-5.6-5.47-11-.06a125.12,125.12,0,0,1-11.14,10.43c-8.23,6.47-16,2.7-20.82-4.6a53.92,53.92,0,0,1-6.19-12.41c-1.58-4.77-3.87-6.8-8.23-2.6-5.32,5.13-12.25,6.42-19.41,5.53-2.44-.31-3.64.5-5.11,2.07-2.82,3-4.89,6.69-8.6,9a15.93,15.93,0,0,1-21.64-4.05c-1.61-2.18-2-5.9-4.89-6.31-2.67-.39-3.41,3.51-5.85,4.73-1.85.93-3.15,2.93-4.77,4.37-5,4.41-12.11,4.43-17.53.66-8.31-5.76-10.67-13.89-11.26-23.49a107.6,107.6,0,0,1,1.23-22.85c.46-3-1.47-4.18-4-4.67-6.77-1.35-10.61,1.32-13.18,8.19-3.19,8.49-6.52,17-11.4,24.7-.83,1.31-1.65,3.1-3.47,2.29-2.23-1-.46-2.64-.05-4,3.71-11.9,9.65-23,12.19-35.34.94-4.56-.9-8.83-.59-13.34a31.15,31.15,0,0,1,2.45-11.2c1-2.27,2.08-4.4,4.92-3.92s4.15,2.75,4.27,5.4c.18,4,.45,8-.32,12-.42,2.15-1.95,4.92.39,6.44,2.05,1.34,4.81.81,7.12-.38,1.63-.85,3.42-1.42,4.67-2.93,2-2.39,4.72-3.48,7.46-2.21,3,1.42,3.84,4.65,2.93,7.61a113.27,113.27,0,0,0-3.5,16.28c-1.52,10-4.11,20-1.91,30.3,1.82,8.45,7.82,12,15.32,8.06,8.28-4.4,14-11,14-21.19,0-4.78-.12-9.53.71-14.33a32.72,32.72,0,0,1,6.18-14.26c1.64-2.22,3.41-3.2,5.87-2.39s2.56,3.23,2.55,5.43c0,6.63-2.2,12.85-4.76,18.74-3.14,7.24-2,14.23-.19,21.23,1.38,5.3,5.73,8.43,10.47,8.22,5.72-.26,7.55-5.22,10.13-9,2.3-3.37-1-5.32-2.79-7.4a40.64,40.64,0,0,1-10.49-24.53c-.35-4.82,1.64-8.79,4.92-12.07,2.76-2.75,7.45-1.59,10.42,2.12,4.91,6.12,5.95,13.41,6.46,20.86.19,2.76.07,5.54.09,8.32,0,2.6-.61,5.57,2.3,7,3.36,1.68,6.81,2.54,10.62.7,9.61-4.65,10.94-12.55,10-22.15-1.82-19-.55-37.81,2.81-56.61,1.24-7,1.74-14.1,3.81-20.89,3.09-10.19,6-20.64,13.46-28.69,5.54-5.94,11.35-4.55,15,2.71,2.36,4.73,3,9.6,3.27,14.79,1.07,22.1-4.28,43-11.84,63.42-3.68,9.92-9,19.24-13.72,28.75-2,3.92-2.76,7.84-1.38,12.05,1.82,5.59,3.18,11.36,6.12,16.53,4.21,7.43,8.43,8.35,15.48,3.74,5.23-3.43,8.35-8.64,11.91-13.48,1.21-1.64.41-3.57,0-5.4a62.9,62.9,0,0,1,6.35-44c2-3.72,4.85-6.66,9-6.07,4.3.62,6.72,4.17,7.36,8.55,1.41,9.63-2,18.32-5.41,27-1.47,3.73-3.46,7.25-5,11a14.23,14.23,0,0,0,6.37,17.51c4.21,2.36,7.8-.21,11.56-1.17,8.51-2.19,14.39-7.86,18.09-15.46,2.37-4.85,1.61-10.6,2.48-15.92a36.33,36.33,0,0,1,4.5-12.54,4.69,4.69,0,0,1,5.46-2.48c2.83.58,2.34,3,2.2,4.89a45.6,45.6,0,0,1-1.3,7.3c-2,7.93-1.63,16-1.2,24,.19,3.5.82,7.59,4.85,8.79,3.66,1.1,6.77-1,9.67-3.32,7.92-6.3,8.22-15.43,9.44-24.31.57-4.1,1.18-8.37,4.81-11.18,1.48-1.14,3.21-2.19,5.14-1.28s1.57,2.84,1.31,4.52q-1.5,9.84-3.08,19.67c-1.06,6.47-1.3,13,.27,19.35,1.39,5.7,4.25,6.4,8.43,2.16a37.78,37.78,0,0,0,6.68-10c4.79-9.64,8.21-19.62,9.16-30.43.3-3.3.81-6.87,3.42-9.43,1.67-1.64,3.47-3.32,6.11-1.9,2.48,1.34,3.35,3.36,2.85,6.2-.78,4.41-1.33,8.86-2,13.3C742.89,166.29,742.46,167.39,743.71,168.43ZM603.82,75.71c-.68-3.08,0-8-1.86-12.53-1.44-3.44-3-3.6-5.21-.5A44.23,44.23,0,0,0,590.29,75a221.18,221.18,0,0,0-9.23,45.7c-1,11.52-2.77,23-1.93,34.6.09,1.29-.56,3.19,1.23,3.56,1.47.3,1.74-1.54,2.25-2.56a205,205,0,0,0,12-28.54C600,111.29,602.84,94.49,603.82,75.71ZM545.2,171.15c-1.13-5.78-.53-12-4.09-17.18-1.12-1.61-2.26-4.06-5-3.29s-3.06,3-3.54,5.42c-1.49,7.52.79,13.85,5.46,19.67,1.21,1.51,2.26,3.37,4.23,2.95,2.2-.48,2.51-2.86,2.87-4.81A14.94,14.94,0,0,0,545.2,171.15Zm86.18-30.67c-3.14,2.74-3.42,6.18-4.54,9.13-1.92,5.06-2.47,10.48-3.06,15.85-.11,1-.18,2.41,1.14,2.74s1.9-.84,2.35-1.83c1.21-2.66,2.76-5.27,3.42-8.07C632,152.6,634.56,146.84,631.38,140.48Z"/><path class="cls-1" d="M150.7,24.91c5.66-.3,13.85,1.66,21.91,1.41,12.11-.38,24,1.6,36,1.92,15.1.39,30.16,2,45.25,3.08,7.4.51,14.8,1.06,22.21,1.25,10.06.25,19.89,2.47,29.93,2.88,11.56.47,23.15,1.22,34.62,2.68,10.93,1.39,22.5,1.22,31.86,8.37,4.53,3.45,9.9,6.74,7.91,14.24-1.06,4-4.29,5.58-7.08,7.48-7.93,5.4-17.21,7.8-26.39,9.64-7,1.41-13.58,4.07-20.48,5.7-8.67,2.06-17.19,4.7-25.84,6.85-12.55,3.11-25.12,6.2-37.76,8.93-9.32,2-18.79,3.33-28.16,5.15a265.64,265.64,0,0,1-28.85,3.86c-7.13.59-14.27,1.73-21.29,2.53-10.17,1.16-20.5,1.62-30.65,3.34-4.82.81-9.85.28-14.7,1-7,1-14.08,1.35-21.13,1.86-3.31.23-4.46,2.81-5.11,5.76-1.47,6.67-1.23,13.52-2.23,20.23-2.13,14.3-1.88,28.83-4.53,43.1-.89,4.74,0,9.82-1.22,14.67-.32,1.27.11,3.23-1.82,3.22a3.68,3.68,0,0,1-3.54-3.15,39.49,39.49,0,0,1-1-7.31c0-19.33-.78-38.67,1.82-57.94a46.93,46.93,0,0,0,.2-13.3c-.51-3.41-2.36-4.18-5-4.14q-16.61.26-33.21.8a20.27,20.27,0,0,1-7.71-1.38c-4.11-1.5-3.69-5-3.16-8.2s3-2.73,5.47-2.7c13.13.13,26.26.1,39.39.11,3.93,0,5.9-1.91,6.11-5.94.74-13.93,2.56-27.8,3.22-41.7.3-6.47,1.91-12.82,1.47-19.35-.23-3.47-1.41-4.81-5-5.12-15.89-1.36-31.81-.62-47.72-.8-3.67,0-6.46-1-7.59-4.71-2-6.35,1.12-9.71,7.71-8.55a11.17,11.17,0,0,0,1.8.43c15.65-.42,31.2,1.44,46.8,2,4.76.17,5.32-3.64,5.67-7,.36-3.52,0-7.12.15-10.67.11-2.58.81-5.08,4-5.37s4.31,2.13,4.75,4.67c.74,4.24,2,8.62,1.57,12.8-.52,5.27,2.34,6,6.12,6.5C133,25,140.57,25,150.7,24.91Zm-17.64,80.36c8.69.57,17.29-1,25.94-1.25,9.09-.3,18.14-1.41,27.19-2.35,6.33-.66,12.42-2.71,18.7-3,9.89-.53,19.64-2.17,29.41-3.42,16.38-2.09,32.43-6.25,48.64-9.38q30.88-6,61.2-14.7c8.85-2.54,18.21-3.7,26.23-8.82,4.75-3,4.61-6.53-.08-9.6-5.13-3.35-11-3.69-16.66-5.14a173,173,0,0,0-35.5-5c-14.27-.63-28.34-3.4-42.77-2.73-7,.32-14.49-1.12-21.62-1.11-18.29,0-36.51-1.66-54.8-1.33-7.22.13-14.44-1.22-21.73-.88a90.85,90.85,0,0,1-13.31-.17c-13.21-1.34-26.43-1.43-39.66-1.63-4.16-.06-6.29,1.6-6.44,6-.47,13.84-2.47,27.61-2.32,41.48.06,5.73-1.88,11.25-1.43,17,.41,5.15,1.3,6.17,6.47,6.07C124.7,105.21,128.88,105.27,133.06,105.27Z"/><path class="cls-1" d="M1135.6,184.59c-.46-8.26,1.82-14.45,2.88-20.82a7.87,7.87,0,0,1,1.56-3.32c1.13-1.5,2.58-3,4.68-2.28s2.45,2.64,2.51,4.55A9.4,9.4,0,0,1,1147,166c-2.76,8.46-1.62,17.12-1.45,25.74a9.77,9.77,0,0,0,.47,2.73c.75,2.34,1.14,5.28,3.91,5.89,2.93.65,5.24-1.17,7.26-3.27a26.78,26.78,0,0,0,7.84-18.72c.09-4.37.94-8.7,5-11.47,1.15-.79,2.45-1.71,3.86-1.08s1.4,2.33,1.36,3.69c-.23,8.14-.63,16.28,0,24.43.35,4.49.73,9,2.28,13.21,2,5.39,8.88,7.19,12.31,2.66,7.64-10.09,13.62-21,11.76-34.49-.63-4.59-.93-9.22-1.28-13.85-1.36-17.94.12-35.82,2-53.62,1.08-10.18,4.33-19.94,8.59-29.31a13.42,13.42,0,0,1,4.27-4.82c5.18-4.11,10.71-1.81,12.17,4.71,1.66,7.45.64,14.78-.24,22.15-2.82,23.69-8,46.93-13.88,70-2.15,8.42-.1,16.25,1.52,24.18,1.45,7.1,3.12,14.19,6.12,20.88,1.49,3.32,3.38,6,7.24,6.39s5.67-2.1,7.56-5c6.08-9.46,7.28-20.25,8.71-30.95a8.77,8.77,0,0,0-1.52-6.21c-2.42-3.3-1.56-6.77-.49-10.23a4,4,0,0,1,3.21-3c1.86-.26,2.69,1.2,3.48,2.57a12.24,12.24,0,0,1,1.59,5.76c.12,3.12,1.93,4.35,4.91,4.15,12.45-.85,25-1.11,37.33-2.71,10.88-1.41,21.71-2.76,32.68-3.09a17.5,17.5,0,0,1,5.8.91c3.39,1,3.81,4.09,3.65,6.76-.18,3-2.68,3.62-5.48,3.67-17,.26-34.06.39-51.07,1.12-7.4.32-14.71,1-22.13,0-3.2-.44-5.76,1.1-6.52,5-1.68,8.63-3.24,17.34-7.43,25.25-.37.68-.64,1.42-1.06,2.06-7.11,10.86-15.65,11.62-24.34,1.89a37.91,37.91,0,0,1-8.76-15.09c-.6-2.13-.87-5.35-3.36-5.64-2.72-.32-3,3.06-4.19,4.92-2.08,3.25-3.91,6.59-6.8,9.32-4.84,4.57-10.33,5-15.85,1.21-5.81-4-9.64-9.06-10.38-16.21-.15-1.49-.73-2.84-2.22-3.23a3.45,3.45,0,0,0-3.88,1.93,15.31,15.31,0,0,1-5.23,5.76c-6,3.75-11.13,2.64-14.94-3.48-2.56-4.12-3.66-4.09-6.28.16s-4.83,9-9.1,12.17c-9.26,6.89-18,5.21-23.63-4.87-3-5.38-6.27-10.69-7.91-16.74-.45-1.67-1.1-3.61-2.8-4-2.08-.49-2.39,2-3.57,3.14-1,.93-1.61,2.29-2.58,3.26s-2.1,2.84-3.82,1.42.17-2.53.77-3.59c2.12-3.76,4.62-7.32,6.57-11.16,2.55-5,2-10.52,1.48-15.91-1.72-18.37-.15-36.59,1.63-54.88a201.06,201.06,0,0,1,9.22-42.9,71.29,71.29,0,0,1,6.25-14c2.21-3.78,5.61-6.68,10.11-6.18s5.73,4.41,6.91,8.35c1.93,6.47,1.11,12.84.46,19.32-1.07,10.6-1.07,21.4-3.59,31.73-3.37,13.74-6.59,27.51-12.29,40.7-4.08,9.46-8.83,19.39-7.33,30.33,1.25,9.15,1.53,18.45,4.2,27.39,2.82,9.46,13.74,11.83,19.4,2.79,1.93-3.09,4.65-5.61,6.36-9C1135.26,190,1135.5,190.09,1135.6,184.59Zm-32-39.54c2.72-7.77,6.11-15.39,8-23.36,2.66-11.1,4.36-22.44,6.19-33.72,1.6-9.89,2.84-19.85,2.31-29.91-.1-2,0-4.58-2.42-5-2.2-.35-1.9,2.4-2.74,3.73a14,14,0,0,0-1.69,3.81c-6,22.21-10.84,44.65-12.15,67.69C1100.75,133.78,1099.86,139.43,1103.56,145.05Zm107.28,5.8c2.26-9.24,6.07-17.81,7.47-27.08,1.79-11.82,5-23.44,5-35.51,0-2.25,1.47-6-1.47-6.48s-3.36,3.47-4.33,5.7c-4.12,9.46-4.54,19.69-5.79,29.74-.64,5.18-1.12,10.4-1.57,15.61A65.21,65.21,0,0,0,1210.84,150.85Z"/><path class="cls-1" d="M947.05,216.07a150.59,150.59,0,0,1-48.94-5.57c-17.55-5-33.07-13.5-44.37-27.9-8.45-10.77-11.21-23.8-10.65-37.57.73-18.07,7.92-33.65,18.46-47.72,15.32-20.42,35.38-35.13,58.26-46.15,6.82-3.29,13.56-6.78,20.54-9.71,6.52-2.74,13.33-4.76,19.94-7.28,11.88-4.52,24.4-6.53,36.58-9.8,11.52-3.09,23.14-4.68,34.88-6.23s23.6-3,35.54-2.46a18.29,18.29,0,0,1,4.58.53,6.08,6.08,0,0,1,4.52,6.31c-.05,3.42-2.65,4.32-5.41,4.58-7.38.7-14.78,1.2-22.16,1.88-23.11,2.11-45.61,6.93-68,13.33-17.86,5.12-35.71,10-52.13,18.79-13,6.94-27,12.26-38.39,22-10.25,8.76-20.86,17.38-28.14,28.72-8.61,13.43-15.89,27.92-13.24,44.73,1.8,11.49,6.27,21.73,15.71,29.63,11.36,9.5,24.6,15,38.47,18.57a133.72,133.72,0,0,0,31.58,3.74c12.84.17,25.51-1.11,38.15-2.48,9.66-1,18.76-5,27.74-8.73,12.4-5.15,25.31-9.06,37.08-15.82,5.77-3.31,10-2.47,12,1.06s.46,6.14-6.09,9.79c-14.64,8.17-30.3,13.82-46.5,18.11C980.63,214.8,963.78,214.93,947.05,216.07Z"/><path class="cls-1" d="M514.42,99.92a31.92,31.92,0,0,1-4.74.82c-27.8.41-55.6,2.25-83.42.16a89.11,89.11,0,0,0-13.35.53c-2.66.19-4,2-4.6,4.54-2.83,12.63-6.54,25.15-8.17,37.93-1.07,8.4-1.74,17.1-.75,25.78.54,4.8-.1,9.75.11,14.68.43,10.35,2.09,20.49,3.48,30.7.35,2.62,1.83,6.82-.92,7.4s-2.41-3.9-2.82-6.27c-2.58-14.88-4.39-29.87-5.69-44.92-.2-2.34.12-5.92-2.1-6.47-2.05-.52-3.09,3-4.29,4.86a70.22,70.22,0,0,1-23.49,22.54C348.92,201,329.49,196,322,181.53c-2.36-4.55-3.08-4.44-7.25-1.14-4.36,3.46-8.76,6.89-14.23,8.53-1.43.43-3,1.63-4-.43s.54-3.12,2.15-3.91c6-3,11.59-6.45,16.22-11.4a8.17,8.17,0,0,0,2.54-6.16,124.91,124.91,0,0,1,1.83-24.8,32.19,32.19,0,0,1,12.7-20.34c4.79-3.61,13.25.69,13.83,6.66.95,9.81-2.85,18.14-8.08,26-3.24,4.87-6.91,9.45-10.23,14.27s0,8.77,2.19,12.36c7.64,12.32,23.53,13.94,35.29,4.39,11.42-9.28,19.58-20.8,26.3-33.62a6.72,6.72,0,0,0,.83-4.73c-1-6,1-11.94.8-18a92.29,92.29,0,0,1,1.34-21.6c.63-3.13-.57-6.55-5.37-7.1-3.4-.39-6.76-.44-10.15-.62a37.6,37.6,0,0,1-5.52-.47c-2.05-.4-4.07-1.25-3.5-4,.52-2.49,2.2-3.35,4.79-3.29,5.32.13,10.63.24,16,0,4.93-.21,6.31-2.61,7-6.75a89,89,0,0,1,5.6-20,13.52,13.52,0,0,1,3.28-5c1.68-1.56,3.21-3.76,5.93-2.25,2.51,1.41,3.32,3.54,3.12,6.61-.49,7.54-1.58,15-2.69,22.44-.53,3.57.49,5.61,4.42,5.9,5.54.4,11.05,1.47,16.57,1.52,15,.16,30,1.26,45,1.17,10.89-.07,21.79,1.13,32.69,1.78C512.53,97.65,513.81,97.77,514.42,99.92Zm-173,32.13c-.49-1.61-.22-4.07-2.46-4.84-2-.7-2.79,1.35-3.85,2.65-5.28,6.46-6.95,14.39-8.9,22.17-.55,2.22-2.4,5.47.4,6.78s3.23-2.6,4.71-4.11C337.43,148.54,340.29,140.79,341.45,132.05Z"/><path class="cls-1" d="M0,232.79H688C684.8,235.13,5.15,235.67,0,232.79Z"/></g></g></svg>