<?xml version="1.0" encoding="UTF-8"?>
<svg id="Layer_1" xmlns="http://www.w3.org/2000/svg" version="1.1" viewBox="0 0 88 100">
  <!-- Generator: Adobe Illustrator 30.0.0, SVG Export Plug-In . SVG Version: 2.1.1 Build 123)  -->
  <defs>
    <style>
      .st0 {
        fill-rule: evenodd;
      }

      .st0, .st1 {
        fill: #fff;
      }
    </style>
  </defs>
  <g>
    <path class="st0" d="M16.8819,46.1211l.418-.7754c3.1331-5.611,9.9239-6.8337,13.337-6.8337,10.3242,0,16.1422,7.6001,24.5867,7.4898,9.1898-.12,14.5721-5.8879,15.0084-5.5793.4.2834-1.5515,2.0587-5.3005,4.6128-2.8453,1.6829-6.632,3.1029-10.8715,3.3538-1.2562.074-3.1033.0295-3.1033.0295-5.4976.0531-14.352-6.9223-21.2451-6.9223h-1.8492c-2.3005,0-7.1013,1.0023-9.4882,4.536h-.0295l-.5672.8652c-.5672,1.0732-1.0446,1.8194-1.0446,3.9377,0,2.8347,1.1934,5.0724,2.6032,6.439,2.4397,2.6016,5.1685,3.3025,7.5715,3.5269,2.238.2092,3.4911.1473,5.6399,0,5.6692-.3879,8.8069-2.9258,9.0695-2.5954.3583.4472-4.3259,2.7446-8.7124,3.1026-1.7852.1461-3.2994.1831-4.2069.1793-6.7131-.0301-12.9771-3.6701-12.8298-10.8901.06-2.8953,1.0138-4.4763,1.0138-4.4763"/>
    <path class="st1" d="M44.1189,39.2579c.1793-.3872,3.0433,1.7908,8.2074,2.5075.9681.1336,1.5449.0985,2.5339.0889.7823-.0078,1.2276.0109,2.0024-.0889,5.8158-.7471,8.305-2.8167,8.5608-2.5075.4062.496-5.8186,4.6557-10.1992,4.412-.1215.0137-.243.0246-.3639.0348-4.2358.3276-11.1304-3.6024-10.7413-4.4468"/>
    <path class="st1" d="M35.3468,45.1067c.1495,1.1042.2987,1.8194,1.3131,2.5659.5246-.5255.8901-.8945,1.5822-.8945,2.0534,0,2.0276,1.7003,2.1768,1.9384.7764-.0295,1.7305-.418,2.2977-1.2823,2.238,2.6548,6.2102,2.932,8.2058,3.1026,2.0879.1796,3.107-.2698,3.1626-.06.119.4485-2.1786.9557-3.1626,1.0744-3.5856.4348-5.6691-.6259-8.9517.5377-.298-.8652-.4774-1.5816-1.7908-2.238-.5072.924-1.402,1.2823-2.2072,1.1331-1.168-.2157-1.7013-1.0744-1.6708-2.3866-1.4023.119-1.8206.6862-2.5671,1.6702-.5355-.5355-.7148-2.2076-5.3702-4.0568-3.056-1.1854-5.7195-.6704-5.6095-1.0744.1106-.4028,1.3131-.5078,3.2226-.5078,2.5068.0311,3.9029.6455,7.101.6872.7114.0078,1.5216-.0904,2.2682-.2092"/>
    <path class="st1" d="M73.3896,46.4489c.2999.1367-2.0285,5.1622-7.101,8.6238-4.0471,2.8515-10.8939,4.3738-11.1897,3.759-.0721-.151.2092-.3872.657-.5072.776-.2092,6.7112-2.4242,9.6373-4.5655,5.3105-3.1626,7.6682-7.459,7.9964-7.3101"/>
    <path class="st1" d="M17.9811,46.926s-2.7536-2.3412-4.3259-3.9977c-1.3597-1.4327-2.5065-2.9845-2.358-3.3712.1563-.4071,1.1739,1.0331,2.7449,2.6554,1.4303,1.4759,4.5351,3.8196,4.5351,3.8196,0,0,3.4448,2.8316,9.3697,4.9823,4.1826,1.5179,9.6296,2.5709,15.7537,2.5954,2.155.0093,3.5505-.0466,5.5507-.2092,5.1619-.4168,10.4243-1.8728,14.6206-4.4449,5.6869-3.4861,9.1298-8.3242,9.4285-8.0268.3723.3742-3.9219,5.8339-8.1754,8.9219-4.5655,3.461-10.116,5.4006-16.3821,5.9383-2.1818.1859-5.1072.2598-5.6079.2676-12.413.2092-21.7526-6.3246-25.1539-9.1307"/>
  </g>
  <path class="st1" d="M80.5452,9.9388l-.6741-1.6865L47.5744.0003v7.38l26.989,6.8939c10.2694,26.984,6.7209,50.2116-10.307,67.2596-4.2952,4.2977-9.906,7.8987-16.6821,10.7656v7.7008c8.8836-3.373,16.2009-7.8687,21.7391-13.4143,19.5614-19.5815,23.4481-46.0843,11.2317-76.6469"/>
  <path class="st1" d="M40.4245,92.299c-6.7761-2.8668-12.3869-6.4678-16.6796-10.768C6.7145,64.4855,3.1661,41.2579,13.4354,14.2739l26.989-6.8939V0L8.1278,8.2521l-.6741,1.6865C-4.7602,40.5011-.876,67.004,18.6854,86.5854c5.5406,5.5457,12.8555,10.0413,21.7391,13.4143v-7.7008h0Z"/>
</svg>