<?xml version="1.0" encoding="UTF-8"?>
<svg width="148px" height="60px" viewBox="0 0 148 60" version="1.1" xmlns="http://www.w3.org/2000/svg" xmlns:xlink="http://www.w3.org/1999/xlink">
    <title>Group</title>
    <g id="Pages" stroke="none" stroke-width="1" fill="none" fill-rule="evenodd">
        <g id="2.-Public-Home-1" transform="translate(-646, -14)">
            <g id="Group" transform="translate(646, 14)">
                <g id="The-Down-Town-Associ" transform="translate(77.096, 24.112)" fill="#111111" fill-rule="nonzero">
                    <g id="Group-3">
                        <path d="M5.984,11.76 C5.248,11.648 5.184,11.44 5.184,9.536 L5.184,0.944 C7.712,0.96 8.24,0.992 8.288,2.224 L8.464,2.224 C8.496,1.856 8.672,0.528 8.816,0.064 C8,0.384 7.248,0.416 4.208,0.416 C0.992,0.416 0.576,0.096 0.288,0 C0.24,0.8 0.096,1.552 0,2.32 L0.176,2.32 C0.48,1.312 0.864,0.96 2.88,0.944 L3.52,0.944 L3.52,9.536 C3.52,11.44 3.456,11.648 2.72,11.76 L2.72,11.92 C3.072,11.904 3.76,11.888 4.352,11.888 C4.928,11.888 5.648,11.904 5.984,11.92 L5.984,11.76 Z" id="Path"></path>
                        <path d="M20.968,11.76 C20.232,11.648 20.168,11.44 20.168,9.552 L20.168,2.624 C20.168,0.736 20.232,0.528 20.968,0.4 L20.968,0.24 C20.632,0.272 19.896,0.272 19.336,0.272 C18.744,0.272 18.056,0.256 17.704,0.24 L17.704,0.4 C18.44,0.528 18.504,0.72 18.504,2.624 L18.504,5.36 C17.528,5.376 16.536,5.376 15.56,5.376 C14.712,5.376 13.88,5.376 13.048,5.36 L13.048,2.624 C13.048,0.736 13.112,0.528 13.848,0.4 L13.848,0.24 C13.512,0.256 12.792,0.272 12.216,0.272 C11.624,0.272 10.936,0.256 10.584,0.24 L10.584,0.4 C11.32,0.528 11.384,0.72 11.384,2.624 L11.384,9.552 C11.384,11.44 11.32,11.648 10.584,11.76 L10.584,11.92 C10.936,11.904 11.64,11.888 12.216,11.888 C12.792,11.888 13.512,11.904 13.848,11.92 L13.848,11.76 C13.112,11.648 13.048,11.44 13.048,9.584 L13.048,5.952 C13.912,5.936 14.792,5.936 15.672,5.936 C16.616,5.936 17.56,5.936 18.504,5.952 L18.504,9.264 C18.504,11.424 18.472,11.632 17.704,11.76 L17.704,11.92 C18.056,11.904 18.744,11.888 19.336,11.888 C19.912,11.888 20.632,11.904 20.968,11.92 L20.968,11.76 Z" id="Path"></path>
                        <path d="M30.4,9.264 C29.888,11.248 29.184,11.36 27.376,11.36 C26.688,11.36 26.24,11.344 25.968,11.28 L25.968,6.128 L27.056,6.128 C28.304,6.128 28.928,6.192 29.168,7.424 L29.328,7.424 C29.312,6.96 29.28,6.528 29.28,5.872 C29.28,5.232 29.312,4.8 29.328,4.32 L29.168,4.32 C28.896,5.456 28.448,5.616 27.056,5.616 L25.968,5.616 L25.968,0.88 C26.176,0.832 26.448,0.8 27.424,0.8 C29.232,0.8 29.888,0.912 30.272,2.704 L30.432,2.704 C30.464,2.208 30.48,1.632 30.48,1.088 C30.48,0.56 30.464,0.24 30.464,0.24 C29.504,0.272 27.568,0.272 25.376,0.272 C24.512,0.272 23.76,0.256 23.424,0.24 L23.424,0.4 C24.224,0.544 24.304,0.72 24.304,2.624 L24.304,9.552 C24.304,11.312 24.272,11.616 23.44,11.76 L23.44,11.92 C23.728,11.904 24.528,11.888 25.2,11.888 L26.752,11.888 C28.288,11.888 29.296,11.904 30.48,11.936 C30.48,11.04 30.544,10.48 30.56,9.264 L30.4,9.264 Z" id="Path"></path>
                    </g>
                    <path d="M40.496,0.848 C40.928,0.72 41.584,0.688 42.048,0.688 C44.496,0.688 47.104,1.552 47.104,6.192 C47.104,10.032 45.312,11.504 42.448,11.504 C41.936,11.504 41.04,11.456 40.496,11.328 L40.496,0.848 Z M37.872,11.92 C38.224,11.904 39.088,11.888 39.648,11.888 C40.624,11.888 42.032,11.936 42.624,11.936 C46.976,11.936 48.992,9.28 48.992,6.16 C48.992,3.248 47.248,0.256 41.856,0.256 C41.456,0.256 40.304,0.272 39.664,0.272 C39.008,0.272 38.224,0.256 37.872,0.24 L37.872,0.4 C38.736,0.56 38.832,0.736 38.832,2.88 L38.832,9.296 C38.832,11.44 38.784,11.616 37.872,11.76 L37.872,11.92 Z" id="Shape"></path>
                    <path d="M56.68,11.76 C55.944,11.648 55.88,11.44 55.88,9.536 L55.88,0.944 C58.408,0.96 58.936,0.992 58.984,2.224 L59.16,2.224 C59.192,1.856 59.368,0.528 59.512,0.064 C58.696,0.384 57.944,0.416 54.904,0.416 C51.688,0.416 51.272,0.096 50.984,0 C50.936,0.8 50.792,1.552 50.696,2.32 L50.872,2.32 C51.176,1.312 51.56,0.96 53.576,0.944 L54.216,0.944 L54.216,9.536 C54.216,11.44 54.152,11.648 53.416,11.76 L53.416,11.92 C53.768,11.904 54.456,11.888 55.048,11.888 C55.624,11.888 56.344,11.904 56.68,11.92 L56.68,11.76 Z" id="Path"></path>
                    <path d="M70.44,11.76 C69.88,11.616 69.688,11.232 69.256,9.888 L66.104,0.016 L65.768,0.016 L62.584,8.336 C61.576,10.976 61.256,11.488 60.328,11.76 L60.328,11.92 C60.648,11.904 60.952,11.888 61.496,11.888 C62.088,11.888 62.712,11.904 63.064,11.92 L63.064,11.76 C62.568,11.68 62.392,11.376 62.392,10.96 C62.392,10.464 62.616,9.84 63.032,8.72 L63.368,7.824 C63.864,7.808 64.344,7.808 65.016,7.808 C65.624,7.808 66.216,7.808 66.824,7.824 L67.352,9.488 C67.64,10.368 67.784,10.848 67.784,11.152 C67.784,11.488 67.608,11.696 67.096,11.76 L67.096,11.92 C67.448,11.904 68.28,11.888 68.872,11.888 C69.416,11.888 70.104,11.904 70.44,11.92 L70.44,11.76 Z M65.016,7.248 C64.408,7.248 64.008,7.248 63.592,7.232 L65.24,2.832 L66.632,7.232 C66.04,7.248 65.48,7.248 65.016,7.248 Z" id="Shape"></path>
                </g>
                <g id="LogoColor" fill="#6B2629">
                    <path d="M37.820116,46.7167134 C38.0242137,46.7504704 38.2353969,46.7699412 38.4502093,46.7699412 C40.1098352,46.7699412 41.4570068,45.7937517 41.7889896,44.4199086 C41.8794885,43.993913 41.8510888,43.9353278 41.845789,43.5395176 C41.8262606,42.3804294 42.0215446,42.0449902 42.0215446,42.0449902 C42.0215446,42.0449902 42.7315373,41.5639233 43.2001037,41.191098 C43.6367564,40.8450593 44.4958332,40.1030954 44.4958332,40.1030954 C44.4958332,40.1030954 44.9502861,41.4325243 45.2661969,42.2473021 C45.5928223,43.0851223 46.4927417,44.9293176 47.2276201,45.4849265 C47.3234763,45.5576827 47.3908752,45.6393679 47.4618457,45.7014094 C48.0635969,46.1593763 48.8517032,46.4398594 49.7108376,46.4398594 C51.5514613,46.4398594 53.0531318,45.1671723 53.1543454,43.5661316 C53.9761512,44.3133953 54.4962748,45.3854411 54.4962748,46.5818004 C54.4962748,48.8325205 52.6679212,50.6625446 50.4155306,50.6625446 C50.1474903,50.6625446 49.8901071,50.6323592 49.6380813,50.5862168 L49.6486808,50.6181881 C49.6486808,50.6181881 49.3434272,50.5773455 48.8641461,50.353777 C48.4328507,50.1744499 47.9979262,49.966723 47.6554015,49.6578978 C47.4388033,49.4857137 47.3571182,49.4467145 46.7305964,48.8574062 C45.2449403,47.4604632 45.468624,47.304236 44.6609317,46.5197588 C44.6271746,46.4860018 44.5970467,46.4593302 44.5651331,46.4274166 C44.6396175,46.6759284 44.6769461,46.9333116 44.6769461,47.20308 C44.6769461,48.8840201 43.130919,50.2472637 41.2263528,50.2472637 C39.318215,50.2472637 37.7721303,48.8840201 37.7721303,47.20308 C37.7721303,47.0379815 37.7917163,46.8747264 37.820116,46.7167134" id="Fill-1"></path>
                    <path d="M25.8292753,46.7167134 C25.6233342,46.7504704 25.4139368,46.7699412 25.1973386,46.7699412 C23.5395561,46.7699412 22.3697531,45.7937517 22.0360997,44.4199086 C21.943815,43.993913 21.9721571,43.9353278 21.9793003,43.5395176 C21.9988287,42.3804294 22.1976266,42.0751757 22.1976266,42.0751757 C22.1976266,42.0751757 21.0705096,41.4112677 20.5983717,41.0384999 C20.161719,40.6941895 19.3061562,39.9521679 19.3061562,39.9521679 C19.3061562,39.9521679 18.6991052,41.4325243 18.3831368,42.2473021 C18.0565114,43.0851223 17.156592,44.9293176 16.4217712,45.4849265 C16.3277008,45.5576827 16.2584585,45.6393679 16.1874304,45.7014094 C15.583951,46.1593763 14.7994163,46.4398594 13.9385537,46.4398594 C12.0960866,46.4398594 10.5962019,45.1671723 10.4950459,43.5661316 C9.67324014,44.3133953 9.15490226,45.3854411 9.15490226,46.5818004 C9.15490226,48.8325205 10.9813549,50.6625446 13.2339184,50.6625446 C13.5001152,50.6625446 13.7592842,50.6323592 14.01131,50.5862168 L14.0006529,50.6181881 C14.0006529,50.6181881 14.3059641,50.5773455 14.7851876,50.353777 C15.2183264,50.1744499 15.6514075,49.966723 15.9939898,49.6578978 C16.2105304,49.4857137 16.2921579,49.4467145 16.9187373,48.8574062 C18.404451,47.4604632 18.1808249,47.304236 18.988402,46.5197588 C19.0221015,46.4860018 19.0523446,46.4593302 19.0842582,46.4274166 C19.0115596,46.6759284 18.9706594,46.9333116 18.9706594,47.20308 C18.9706594,48.8840201 20.5167441,50.2472637 22.4230385,50.2472637 C24.3311763,50.2472637 25.8771458,48.8840201 25.8771458,47.20308 C25.8771458,47.0379815 25.8576174,46.8747264 25.8292753,46.7167134" id="Fill-2"></path>
                    <path d="M30.8049272,25.9185069 C30.8049272,25.9185069 30.94514,26.3729598 30.2724183,29.1064173 C29.5269404,32.1292292 27.3632052,33.8261838 27.3632052,33.8261838 L30.7179999,33.8261838 L30.6860286,33.7942125 L31.9693153,32.3298706 L33.2526595,33.7942125 L33.2207458,33.8261838 L36.492012,33.8261838 C36.492012,33.8261838 34.3283344,32.1292292 33.5827989,29.1064173 C32.9101348,26.3729598 33.0680326,25.9185069 33.0680326,25.9185069 L30.8049272,25.9185069" id="Fill-3"></path>
                    <path d="M39.865471,51.618745 C39.2832482,52.2808096 38.4347709,52.5950497 37.4869235,52.5950497 C36.4751335,52.5950497 35.5006721,52.161911 34.9983486,51.3791044 C34.9983486,51.3791044 34.4285687,50.5554553 33.8074043,48.1965513 C33.6795192,47.7066708 33.5677637,46.6345098 33.5375782,45.8127616 C33.519778,45.3796805 33.3636084,42.2822113 33.3636084,41.8260878 C33.3636084,41.3734782 33.4665502,38.8778179 33.4665502,38.8778179 L33.4754215,38.8778179 C33.9120742,35.8567341 36.4947195,33.8332117 36.4947195,33.8332117 L33.2109528,33.8332117 L31.9684512,35.2372979 L30.7295211,33.8332117 L27.3658551,33.8332117 C27.3658551,33.8332117 29.8455586,35.8407773 30.3070394,38.8227466 C30.3070394,38.8227466 30.4898806,42.3230539 30.4898806,41.9095011 C30.4898806,41.4959484 30.3035255,45.3689658 30.2804255,45.8074043 C30.2324398,46.6593955 30.0726986,47.7669841 29.9467145,48.2586505 C29.3254925,50.6193978 28.8178693,51.3791044 28.8178693,51.3791044 C28.3154883,52.161911 27.3392411,52.5950497 26.3292945,52.5950497 C25.3796613,52.5950497 24.5293982,52.2808096 23.9525903,51.618745 C23.5283229,52.1583394 23.2762971,52.3802373 23.2762971,53.1151158 C23.2762971,54.861669 24.6944967,56.2781405 26.4428934,56.2781405 C26.4428934,56.2781405 28.1770613,56.4076961 29.4017627,55.0107531 C29.70356,54.6646569 29.9555282,54.3735743 30.1650409,54.1304198 L30.152598,55.4066208 C30.0106571,56.1556703 29.5881754,56.9313338 28.9917816,57.3573294 C28.9723108,57.4939706 28.9580821,57.2827874 28.9580821,57.4212143 C28.9580821,59.0362533 30.2697684,60 31.8849802,60 C33.5038212,60 34.8119935,59.0028419 34.8119935,57.3857867 C34.8119935,57.2259879 34.7978225,57.4531856 34.7729367,57.30053 C34.2155997,56.8692346 33.8233035,56.1183417 33.6884481,55.3994777 L33.6777334,54.1587619 C33.8801605,54.3983448 34.1233726,54.6788279 34.4126119,55.0107531 C35.6391566,56.4076961 37.3751104,56.2781405 37.3751104,56.2781405 C39.1234494,56.2781405 40.5381351,54.861669 40.5381351,53.1151158 C40.5381351,52.3802373 40.2842659,52.1583394 39.865471,51.618745" id="Fill-4"></path>
                    <path d="M33.4674143,0 C33.4674143,0.873305426 32.7592073,1.57978417 31.8876877,1.57978417 C31.0143823,1.57978417 30.3061754,0.873305426 30.3061754,0 L24.3119935,0 L24.3119935,3.60146319 L39.4615961,3.60146319 L39.4615961,0 L33.4674143,0" id="Fill-5"></path>
                    <polyline id="Fill-6" points="40.2069012 24.7510657 38.902358 21.5987557 26.0513461 21.5987557 26.0513461 24.7510657 40.2069012 24.7510657"></polyline>
                    <path d="M63.86766,26.4923768 C63.86766,25.232075 62.8457314,24.2098007 61.5853143,24.2098007 C60.6889666,24.2098007 59.9130151,24.728081 59.5420331,25.4788586 C58.5587004,25.1416337 56.9861746,23.865375 56.3507239,19.2486079 C55.7081877,14.5909981 56.908061,12.4805484 56.908061,12.4805484 L54.8597104,10.6185529 C54.8597104,10.6185529 54.2811168,12.1964937 51.1943623,12.5266907 C47.5201429,12.9225585 35.361381,13.0236568 35.361381,13.0236568 L36.4192557,15.8334998 L52.2966512,15.7714006 C52.2966512,15.7714006 53.2054418,21.1815738 53.8497638,22.7862437 C54.7478974,25.0191636 55.6513883,26.8349591 58.6508698,28.6649833 C59.9769576,29.4725604 61.1434771,29.4903606 61.8975383,29.162007 C62.666001,28.8247245 63.6124659,28.0029187 63.7380468,27.2574408 L63.7380468,27.2449979 C63.8215753,27.0088713 63.86766,26.7568455 63.86766,26.4923768" id="Fill-7"></path>
                    <path d="M24.4685664,3.50917854 C24.4685664,3.50917854 26.33229,3.55180691 27.2623949,3.9121318 C27.4611928,3.9901878 27.9759591,4.09848689 27.9759591,5.55747149 C27.9759591,7.13195591 27.6777334,8.44012827 27.459407,9.18912017 L27.3812934,9.29039134 L27.2392949,9.85302815 C27.2339952,9.86541342 27.2322094,9.87255655 27.2322094,9.87255655 L27.2357233,9.87071316 L26.6181305,11.9740773 L29.4882292,11.9740773 L31.8330197,3.12932524 L32.4666846,2.29864818 L24.4685664,3.50917854" id="Fill-8"></path>
                    <path d="M51.319828,23.2222628 C50.8246476,22.0419179 49.953128,20.0557241 49.271535,18.8132225 C49.0496371,18.412055 48.6715696,17.7411191 48.2633166,17.0205269 C48.1869887,16.8713276 48.1053612,16.9689696 48.0272476,16.8216713 L44.3654134,16.8216713 C44.4967549,17.0328546 44.4453128,17.0044549 44.5659972,17.2228388 C44.9138792,17.8919889 45.4090595,18.9392642 45.7552133,20.6964745 C45.9860402,21.8697339 46.1208956,23.2382772 46.1332232,24.6920197 C47.3261262,24.7186336 48.282845,25.689581 48.282845,26.8858827 C48.282845,28.0982565 47.2994547,29.0815892 46.0889243,29.0815892 C45.9913399,29.0815892 46.0711817,29.0727178 45.9771113,29.0603326 C45.9753255,29.0727178 45.8014133,29.0868889 45.7977841,29.0993894 C44.8002803,35.075771 39.8036599,38.2121817 39.8036599,38.2121817 L39.5675909,38.3949652 C38.0606206,39.4014555 36.3672376,40.1203195 34.5585276,40.4859442 L34.5585276,43.2638158 C39.1486808,42.6017512 43.1903683,40.2321326 46.0125965,36.8170245 C46.5912477,36.2704021 47.5000384,35.1166135 48.6502554,33.5297438 C49.953128,31.7280618 49.4277046,32.4327547 50.6986059,30.3631476 C51.6357963,28.8366489 53.1818234,26.9479819 53.1818234,26.9479819 C53.1818234,26.9479819 51.8169093,24.4009371 51.319828,23.2222628" id="Fill-9"></path>
                    <path d="M25.538884,16.7592842 L24.6602212,20.0537655 C24.6531357,20.0662084 24.6424786,20.0910365 24.6336073,20.1318215 C24.2821537,21.83229 23.2900073,22.2441146 22.5142287,22.2441146 C21.8025078,22.2441146 21.2167134,21.8394332 21.1244287,21.1542686 C20.1606244,21.6530205 19.2323054,23.0073352 19.1719344,23.8415838 C19.0636353,25.3414686 19.6494297,26.3425439 21.099543,26.7401398 C22.4574868,27.1129076 23.2348785,25.4107109 23.3076923,25.4054111 L21.220285,33.9519951 C21.220285,33.9519951 21.9320634,35.008084 22.4645724,35.540593 C23.1479512,36.2275433 23.7620876,36.5097546 23.7620876,36.5097546 L28.4125542,16.7592842 L25.538884,16.7592842" id="Fill-10"></path>
                    <path d="M16.4933177,25.095261 C16.4933177,18.7549829 20.4249203,12.5673605 25.9877491,10.4249395 L26.4155306,8.85402665 L26.644514,7.67540996 C19.0812627,9.90838742 13.6657322,16.9018588 13.6657322,25.189389 C13.6657322,34.3607665 20.4267061,41.9524751 29.2342448,43.253562 L29.2342448,40.4010907 C22.4466569,39.0947041 16.4933177,32.6851838 16.4933177,25.095261" id="Fill-11"></path>
                    <path d="M16.7930988,15.0363493 C16.1647337,15.9912823 15.6198395,16.9516302 15.6198395,16.9516302 L14.7926764,16.9516302 C14.240639,22.5801298 11.0882138,25.8922386 11.0882138,25.8922386 C11.0882138,25.8922386 12.7637966,27.3815239 13.5714889,29.4316602 C14.3772802,31.4781674 14.59745,32.4224433 14.4731364,34.3465955 C14.3470947,36.3026614 13.9441991,37.0676101 13.3850762,36.6328008 C12.8259534,36.1978763 13.6956872,35.6405392 11.5231384,34.8950613 C9.34874611,34.1495833 5.67982641,32.9105956 4.56872384,33.4662045 C3.94744422,33.7768155 3.39183532,34.5950497 5.80943969,36.013307 C6.17500672,36.226276 5.31420177,36.384289 5.74722532,36.9434118 C6.18214985,37.5025347 6.80337187,37.6267906 7.36249472,37.6267906 C7.92161757,37.6267906 8.66709551,37.5025347 8.78962326,37.9374016 C8.91387918,38.3722685 7.81516187,41.1039978 10.2842083,41.4696801 C13.042494,41.8779331 14.379066,40.544875 14.9364031,39.5508852 C15.4955259,38.5586236 16.3653174,34.8329045 15.8682937,32.4739429 C15.4618841,30.5410346 16.4292024,19.1046507 16.7930988,15.0363493" id="Fill-12"></path>
                    <path d="M15.898652,13.9035293 C16.4187757,13.1207804 16.37079,13.1864511 16.7275433,12.8243404 C14.501709,12.7764699 13.0497523,13.074638 12.0664772,12.9698529 C8.81646761,12.6202427 8.70102538,10.9978878 8.70102538,10.9978878 L7.02187104,12.8296978 C7.02187104,12.8296978 8.16143093,14.6632359 7.51895234,19.3190599 C6.88344406,23.9376128 5.31080303,25.2138715 4.32747033,25.5510964 C3.95297438,24.798533 3.17903913,24.2801951 2.28441952,24.2801951 C1.0224471,24.2801951 0,25.3026422 0,26.5646146 C0,26.8272975 0.0478705019,27.0811667 0.129555667,27.3155075 C0.131341449,27.3208073 0.129555667,27.3243212 0.131341449,27.3296786 C0.25381159,28.0734283 1.22118745,28.7905065 2.0537079,28.9111909 C3.20743884,29.0798034 3.93690234,28.9662045 5.45637313,28.0946273 C7.52955183,26.9054111 8.66732593,25.3256269 9.73585775,22.7785245 C10.3855371,21.232555 11.4097124,15.8418526 11.4097124,15.8418526 L14.7466493,15.8311955 C15.0377895,15.257844 15.4176428,14.6295365 15.898652,13.9035293" id="Fill-13"></path>
                    <path d="M33.0038596,12.9450248 L32.5636353,12.9290679 L32.5618495,12.9113253 C32.5618495,12.9113253 24.8743423,12.9503821 18.8871884,12.8473828 C18.5357925,13.2414647 18.0299551,13.3461923 17.5435885,13.9709858 C17.1211644,14.5140942 16.6543262,15.2330159 16.2868582,15.8294673 L30.5205845,15.7814816 C30.5205845,15.7814816 30.6999117,16.7027728 30.7619532,17.8812742 C30.82411,19.0616767 30.8454242,20.4905334 30.8454242,20.4905334 L33.2008142,20.5527478 C33.2008142,20.5527478 33.472426,17.0754829 33.3925842,18.1972426 C33.2682707,19.9367679 33.7493375,16.0211222 33.7493375,16.0211222 L33.0038596,12.9450248" id="Fill-14"></path>
                    <path d="M32.8390491,5.88236875 C33.9342525,5.92136795 34.6549023,5.99590998 35.6914628,6.21959369 C35.6187066,5.68351319 35.6755636,6.20363685 35.6755636,5.55747149 C35.6755636,4.09848689 36.1903299,3.9901878 36.3873421,3.9121318 C37.3191751,3.55180691 39.1828987,3.50917854 39.1828987,3.50917854 L31.1847805,2.29864818 L31.8184454,3.12932524 L32.8390491,5.88236875" id="Fill-15"></path>
                    <path d="M33.6790007,9.15225239 L40.3015477,36.2050194 C40.3015477,36.2050194 40.5731019,35.9831215 41.2564807,35.2980145 C41.7854756,34.7636622 42.5008257,33.709359 42.5008257,33.709359 L40.3423327,25.4059296 C40.4151465,25.4130151 40.4896885,25.4183148 40.5642306,25.4183148 C42.0676869,25.4183148 43.2835746,24.1989132 43.2835746,22.6955144 C43.2835746,21.8612658 42.9090211,21.1157303 42.3197127,20.6169208 C42.2256423,21.3020853 41.6399055,21.8310803 40.9299128,21.8310803 C40.1524636,21.8310803 39.3661431,21.8328661 39.0164753,20.1341833 C39.0093322,20.0933408 38.9951035,20.068455 38.9880756,20.054284 L36.4675295,9.90487346 C38.1147125,10.3361688 39.6305542,11.2343024 40.0689927,11.7313261 L44.5419755,11.8306963 C41.3008372,8.88069818 36.9840816,7.00268828 32.2554438,6.90867545 C32.1933446,6.90867545 32.2412727,6.92636046 32.1791159,6.92820385 L31.7513345,9.06705327 C31.9785322,9.05639617 32.8785092,9.03508199 33.1057068,9.06883905" id="Fill-16"></path>
                    <path d="M14.0681094,11.9231537 L16.6436691,11.8983832 C16.3756289,10.3221706 15.9868467,7.76256769 14.7177311,6.7402358 C12.9462921,5.3095357 11.3346519,5.3291217 10.6263873,6.2627405 C9.84888053,7.29042974 9.92699412,8.89682784 10.5909021,9.13646837 C11.8919889,9.60860632 11.8759745,8.28269135 12.932121,8.96607013 C13.5196436,9.34586582 13.8710972,10.962921 14.0681094,11.9231537" id="Fill-17"></path>
                </g>
            </g>
        </g>
    </g>
</svg>