<svg xmlns="http://www.w3.org/2000/svg" width="186" height="70" viewBox="0 0 186 70">
    <g fill="#7D8E60" fill-rule="evenodd">
        <path d="M147.93 32.817v4.136h-.42l-.03-.08c-.831-2.246-2.128-3.385-3.853-3.385-2.941 0-3.99 3.016-3.99 5.838 0 3.984 2.326 5.397 4.318 5.397 2.602 0 3.839-2.196 4.156-2.869l.056-.119.492.274-.047.103c-.468 1.043-1.906 3.468-5.125 3.468-3.545 0-6.02-2.544-6.02-6.185 0-3.632 2.788-6.476 6.348-6.476 1.153 0 2.182.213 3.06.634l.703-.736h.352zm18.282.39v.447l-.119.003c-1.62.051-1.702.452-1.702 1.1v6.726c0 2.184 1.202 3.291 3.573 3.291.895 0 1.639-.264 2.15-.764.629-.614.935-1.468.935-2.61v-5.284c0-1.621-.531-2.22-2.184-2.46l-.105-.015v-.434h4.912v.43l-.102.019c-1.577.279-1.858.887-1.858 2.46v5.469c0 2.539-1.657 3.995-4.547 3.995-2.967 0-4.669-1.326-4.669-3.638v-7.185c0-.623-.313-1.049-1.838-1.1l-.12-.003v-.447h5.674zm13.867 0c4.168 0 4.79 1.866 4.79 2.977 0 1.085-.714 2.29-2.651 2.693 2.053.303 3.17 1.313 3.17 2.894 0 .827-.372 3.521-5.153 3.521h-5.43v-.464l.12-.004c1.531-.05 1.838-.457 1.838-1.099v-8.968c0-.624-.312-1.049-1.838-1.099l-.12-.004v-.447h5.274zm-24.318 0v.448l-.12.003c-1.554.047-1.691.4-1.7 1.017v10.03h1.47c2.316 0 3.314-.77 4.275-3.3l.033-.085.437.032-.187 3.94h-9.882v-.464l.12-.004c1.53-.049 1.838-.456 1.838-1.099v-8.968c0-.623-.312-1.05-1.839-1.099l-.119-.003v-.448h5.674zm24.595 5.988h-1.697v5.51h1.837c2.086 0 2.825-.754 2.825-2.882 0-1.695-1.053-2.628-2.965-2.628zm-.137-5.402h-1.56v4.815h1.628c1.786 0 2.55-.71 2.55-2.373 0-1.712-.783-2.442-2.618-2.442zM53.184 32.817v4.136h-.417l-.03-.08c-.832-2.246-2.13-3.385-3.857-3.385-2.94 0-3.988 3.016-3.988 5.838 0 3.984 2.326 5.397 4.317 5.397 2.604 0 3.84-2.195 4.156-2.869l.057-.119.49.274-.045.103c-.468 1.043-1.902 3.468-5.125 3.468-3.546 0-6.021-2.544-6.021-6.185 0-3.632 2.79-6.476 6.35-6.476 1.152 0 2.181.213 3.06.634l.703-.736h.35zm7.697.102c2.9 0 5.9 2.358 5.9 6.305 0 3.926-3.063 6.356-5.9 6.356-3.693 0-5.9-3.205-5.9-6.305 0-3.926 3.063-6.356 5.9-6.356zm11.801.288v.447l-.12.003c-1.62.051-1.701.452-1.701 1.1v6.726c0 2.184 1.201 3.291 3.57 3.291.897 0 1.641-.264 2.152-.764.628-.615.934-1.469.934-2.61v-5.284c0-1.621-.53-2.22-2.184-2.46l-.105-.015v-.434h4.912v.43l-.102.019c-1.577.279-1.858.887-1.858 2.46v5.469c0 2.539-1.657 3.995-4.546 3.995-2.966 0-4.668-1.326-4.668-3.638v-7.185c0-.623-.313-1.049-1.84-1.1l-.12-.003v-.447h5.676zm12.159 0l.037.05 6.837 9.036v-6.177c0-1.621-.527-2.219-2.167-2.46l-.105-.015v-.434h4.912v.43l-.102.019c-1.591.281-1.874.89-1.874 2.46v9.464h-.567l-.037-.048-7.74-10.127v6.961c0 1.53.282 2.209 2.029 2.46l.105.015v.451h-4.895v-.449l.103-.017c1.53-.255 1.996-.83 1.996-2.46v-6.895c0-1.123-.721-1.784-1.979-1.814l-.12-.002v-.448h3.567zm28.23 0c4.425 0 5.086 1.876 5.086 2.994 0 1.094-.555 2.46-3.073 3.017 1.971.283 2.523 1.336 2.794 3.096l.102.696c.264 1.52.488 1.713 1.995 1.713h.123v.403l-.09.025c-.544.155-1.201.244-1.802.244-1.706 0-2.08-.71-2.275-2.3l-.188-1.615c-.202-1.637-.619-1.946-2.62-1.946h-1.437v4.191c0 .631.124 1.048 1.787 1.1l.12.003v.463h-5.76v-.463l.119-.004c1.531-.05 1.838-.457 1.838-1.099v-8.968c0-.623-.312-1.049-1.838-1.099l-.12-.004v-.446h5.24zm-6.826 0l.109 3.752-.424.035-.037-.076c-1.007-2.073-2.125-3.125-3.324-3.125h-.727v9.932c0 .512.236 1.043 1.979 1.099l.12.004v.464h-6.076v-.464l.12-.004c1.743-.056 1.978-.587 1.978-1.099v-9.932h-.726c-1.23 0-2.349 1.051-3.323 3.124l-.036.077-.428-.035.112-3.752h10.683zm18.737 0v.444l-.116.007c-.82.048-1.281.185-1.407.42-.094.174-.025.442.224.871l2.444 4.267 2.165-3.672c.396-.664.616-1.129.49-1.394-.108-.228-.488-.376-1.27-.494l-.106-.015v-.434h4.254v.431l-.102.018c-1.142.2-1.652.52-2.62 2.133l-2.463 4.081v3.856c0 .549.145 1.046 1.892 1.098l.12.004v.464h-5.903v-.464l.12-.004c1.747-.052 1.892-.55 1.892-1.098V40.21l-3.07-5.203c-.512-.87-.919-1.16-1.895-1.351l-.1-.02v-.429h5.451zm-64.188.281c-2.517 0-3.64 1.774-3.64 5.753 0 3.937 1.206 5.77 3.796 5.77 2.53 0 3.658-1.774 3.658-5.753 0-3.937-1.212-5.77-3.814-5.77zm52.156.304h-1.264v5.156h1.525c2.352 0 2.824-1.032 2.824-2.696 0-1.724-.922-2.46-3.085-2.46zM104.49 15.028l.003.448-.121.003c-.884.022-.932.278-.933.887v6.938c0 2.183 1.202 3.29 3.573 3.29.896 0 1.64-.263 2.15-.763.629-.616.935-1.47.935-2.611v-5.283c0-1.714-.07-2.314-1.417-2.459l-.11-.011v-.44h4.147v.432l-.101.018c-1.578.279-1.859.887-1.859 2.46v5.47c0 2.538-1.656 3.995-4.545 3.995-2.967 0-4.668-1.326-4.668-3.64V16.58c0-.624-.313-1.05-1.841-1.1l-.12-.004v-.447h4.906zm-56.258 0v.429l-.119.005c-1.555.064-1.692.411-1.701 1.019v4.818l4.057-3.926c.536-.525.773-.987.665-1.3-.107-.307-.558-.513-1.304-.595l-.11-.012v-.438h5.068v.432l-.103.018c-1.415.23-2.028.692-3.838 2.413l-2.07 1.979 3.524 4.685c1.305 1.721 1.54 1.897 2.8 2.092l.104.016v.45h-5.398v-.458l.114-.009c.631-.049.983-.169 1.075-.367.089-.192-.037-.52-.385-1l-3.09-4.2-1.11 1.055v3.43c0 .676.07 1.031 1.563 1.082l.12.004v.464h-5.538v-.464l.12-.004c1.532-.05 1.84-.452 1.84-1.082V16.56c0-.613-.313-1.031-1.84-1.082l-.12-.004v-.447h5.676zm13.939 0v.448l-.12.003c-1.678.052-1.878.512-1.892 1.034v9.033c0 .57.142 1.045 1.892 1.1l.12.003v.464h-5.902v-.464l.12-.004c1.68-.052 1.878-.492 1.891-1.031l.001-9.036c0-.548-.145-1.045-1.893-1.099l-.12-.003v-.448h5.903zm12.425 0l.111 3.753-.427.033-.037-.076c-1.004-2.072-2.122-3.124-3.322-3.124h-.728v9.932c0 .511.235 1.042 1.98 1.1l.12.003v.464h-6.075v-.464l.119-.004c1.744-.057 1.98-.588 1.98-1.1v-9.931h-.726c-1.232 0-2.35 1.051-3.325 3.123l-.036.077-.427-.033.112-3.753h10.68zm11.379 0l.034.325-7.494 11.174h3.689c1.342 0 2.002-.878 3.416-3.202l.043-.07.42.062-.296 3.796h-9.714l-.031-.325 7.492-11.174h-3.15c-1.193 0-2.155.86-3.433 3.064l-.042.073-.424-.064.369-3.66h9.121zm6.94 0c4.168 0 4.79 1.865 4.79 2.976 0 1.086-.714 2.293-2.654 2.693 2.055.304 3.174 1.315 3.174 2.896 0 .826-.372 3.52-5.153 3.52h-5.43v-.464l.118-.004c1.533-.05 1.841-.458 1.841-1.1V16.58c0-.624-.313-1.05-1.84-1.1l-.12-.003v-.448h5.275zm26.612 0v.448l-.119.003c-1.623.05-1.702.425-1.702 1.083v3.987h5.53v-3.987c0-.658-.077-1.033-1.685-1.083l-.12-.003v-.448h5.659v.448l-.12.003c-1.528.05-1.841.47-1.841 1.083v9.001c0 .63.308 1.032 1.842 1.082l.119.004v.464h-5.658v-.464l.12-.004c1.61-.05 1.684-.405 1.684-1.082v-4.411h-5.53v4.411c0 .677.076 1.032 1.702 1.082l.12.004v.464h-5.677v-.464l.119-.004c1.534-.05 1.842-.451 1.842-1.082v-9.001c0-.614-.314-1.033-1.842-1.083l-.119-.003v-.448h5.676zm19.158 0l.054 3.907-.433.033-.033-.086c-.809-2.12-1.627-3.268-3.63-3.268h-2.166v4.935h.969c1.307 0 2.057-.348 2.534-2.251l.024-.093h.445v5.273h-.445l-.024-.093c-.476-1.902-1.227-2.25-2.534-2.25h-.969v5.392h2.166c2.375 0 3.298-1.22 4.168-3.471l.033-.086.435.034-.092 4.11h-10.563v-.465l.119-.004c1.531-.05 1.839-.458 1.839-1.1v-8.967c0-.623-.313-1.049-1.839-1.099l-.12-.003v-.448h10.062zm8.008 0v.448l-.119.003c-1.625.05-1.704.43-1.704 1.1v9.948h1.474c2.312 0 3.311-.771 4.274-3.3l.033-.086.435.033-.184 3.94h-9.886v-.465l.12-.004c1.533-.05 1.841-.458 1.841-1.1v-8.967c0-.623-.313-1.049-1.841-1.099l-.12-.003v-.448h5.677zm-53.5 5.988h-1.697v5.511h1.836c2.086 0 2.825-.755 2.825-2.883 0-1.695-1.052-2.628-2.964-2.628zm-.137-5.402h-1.56v4.816h1.627c1.787 0 2.55-.71 2.55-2.374 0-1.711-.783-2.442-2.617-2.442zm13.462 2.246c.521 0 .925.368.925.89 0 .52-.404.89-.925.89-.522 0-.94-.37-.94-.89 0-.522.418-.89.94-.89zm0-2.85c.521 0 .925.369.925.89s-.404.89-.925.89c-.522 0-.94-.369-.94-.89s.418-.89.94-.89z"/>
        <path d="M28.769 0L0 27.41 32.018 70 46.209 70 14.416 27.41 42.748 0z"/>
    </g>
</svg>
