<svg id="Layer_1" data-name="Layer 1" xmlns="http://www.w3.org/2000/svg" viewBox="0 0 205.05 113.21"><defs><style>.cls-1{fill:#455560;}.cls-2{fill:#bc9b6a;}.cls-3{fill:#fff;}</style></defs><rect class="cls-1" y="89.42" width="205.05" height="1.1"/><path class="cls-2" d="M144.43,40.23A40.23,40.23,0,1,1,104.2,0a40.23,40.23,0,0,1,40.23,40.23"/><path class="cls-3" d="M101.86,56a2.27,2.27,0,0,1,.49-.54l.5.9c.45.79.78,1.38,1.25,2.09a3.61,3.61,0,0,1-.42.38l-.13.09a2.85,2.85,0,0,1-.26.17l-.15.07-.22.09-.14,0-.13,0h-.12c-.45-.06-.74-.5-.91-.85a2.71,2.71,0,0,1,.24-2.43m-3.37-.44.41-1.32.41,1.32,1.38,0-1.13.8.45,1.31-1.11-.83-1.11.83.44-1.31-1.13-.8Zm1.62-2.78a.26.26,0,0,1,.35-.15,4.88,4.88,0,0,1,2.07,2.07,4.26,4.26,0,0,1,1.85-.41h.16a4.05,4.05,0,0,1,1.85.41,4.94,4.94,0,0,1,2.07-2.07.28.28,0,0,1,.36.15.29.29,0,0,1-.15.36,4.37,4.37,0,0,0-1.81,1.84,2.93,2.93,0,0,1,.66.73,3.3,3.3,0,0,1,.28,2.95,1.85,1.85,0,0,1-1.33,1.16l-.2,0a2.74,2.74,0,0,1-1.81-1,2.74,2.74,0,0,1-1.81,1l-.2,0a1.85,1.85,0,0,1-1.33-1.16,3.3,3.3,0,0,1,.28-2.95,2.62,2.62,0,0,1,.67-.72,4.47,4.47,0,0,0-1.81-1.85.28.28,0,0,1-.15-.36M104,49.92l.55-1.77.55,1.77,1.85,0L105.4,51l.59,1.76-1.48-1.11L103,52.73l.59-1.76-1.51-1.07Zm5.89,4.28.41,1.32,1.38,0-1.13.8.44,1.31-1.1-.83-1.11.83.44-1.31-1.12-.8,1.37,0Zm-3.86,11-1.48-1.1L103,65.23l.59-1.75-1.51-1.07,1.85,0,.55-1.77.55,1.77,1.85,0-1.51,1.07ZM97.76,59.1a14.86,14.86,0,0,0,6.69,8.5,14.85,14.85,0,0,0,6.67-8.49,30.84,30.84,0,0,0,1-11.06H96.71A30.82,30.82,0,0,0,97.76,59.1m5.57-3.05c-.16-.27-.33-.58-.52-.92l.35-.14.13,0,.25-.07.18,0a1.75,1.75,0,0,1,.24,0h1l.27,0,.15,0,.27.08a.53.53,0,0,1,.12,0l.35.14c-.19.34-.37.65-.52.93-.41.72-.72,1.27-1.13,1.91-.41-.64-.73-1.19-1.13-1.92m2.74.27.51-.9a2.52,2.52,0,0,1,.49.54,2.78,2.78,0,0,1,.24,2.43,1.37,1.37,0,0,1-.92.85h-.12l-.13,0-.14,0-.22-.09-.14-.07-.28-.18-.12-.08a3.61,3.61,0,0,1-.42-.38c.47-.71.8-1.3,1.25-2.09m25.59-19.49a1.25,1.25,0,0,0-.08-.12,1.6,1.6,0,0,0-1.35-.59l1.9-3.68a2,2,0,0,1,.37,0,.88.88,0,0,1,.67.23,1.18,1.18,0,0,1,.26.85Zm-5.87,5.9a.38.38,0,0,0-.19.27c0,.27-1.19,6.69-2.06,8.76l-2.11,2.39V52.71c.28-2.52.32-5.86-1.06-7.43a16.36,16.36,0,0,0-3.54-3.17,1.78,1.78,0,0,1-.35-.25c-1-1-2-2.43-2-3.55,1,0,4.57.4,6.19,3.12a9.24,9.24,0,0,1,.66,1.38c0,.09.16.4.39.4h.07a.21.21,0,0,0,.13-.11.46.46,0,0,0,0-.36s0,0,0-.07c-.07-.18-.12-.34-.17-.49-.12-.33-.22-.62-.4-1a15.79,15.79,0,0,0-2.66-4.21c-2.15-2.25-2.75-4.72-1.94-5.53a1.35,1.35,0,0,1,.28-.2c1.22-.42,2.09-.4,2.51,0a2,2,0,0,1,.37,1.51c0,.24-.1.56-.68.56a1.09,1.09,0,0,1-.26,0,.32.32,0,0,0-.37.37,2.48,2.48,0,0,0,2.44,2,3.23,3.23,0,0,0,1.07-.19,32.38,32.38,0,0,1,1.84,6.22.37.37,0,0,0,.36.32h0a.38.38,0,0,0,.36-.36,5.71,5.71,0,0,1,2.52-4.19c.42.43.81.81,1.17,1.11a5.49,5.49,0,0,1-2.49,4.21m-2.14-9.57.2.26.1.12c.7.93,1.66,2.18,2.63,3.29a5.83,5.83,0,0,0-2.34,3,44.55,44.55,0,0,0-1.56-4.75,2.54,2.54,0,0,0,1-1.92m-12.4-.65a11,11,0,0,0-1.18-.34l-.35-.09h-.07c-.26-.06-.54-.12-.86-.17l-.11,0-.42-.07a21.94,21.94,0,0,0-3.06-.21h-.42l-.7,0-.68,0-.63.05h0l-.59.06h-.07l-.52.06h-.11l-.41.06-.18,0-.39.06-.5.08c-1,.18-1.79.36-2,.43-.07,0-.18-.09-.33-.31l0,0a1.82,1.82,0,0,1-.18-.37v0a.28.28,0,0,1,0-.13v-.05a.15.15,0,0,1,0-.07s0-.05,0-.07v0l0-.06,0,0v0a1.12,1.12,0,0,1,.28-.33,15.84,15.84,0,0,1,2-.45h0l.92-.14h0l1-.12h0c.38,0,.77-.06,1.16-.08H103c.42,0,.86,0,1.29,0h0c.44,0,.93,0,1.48,0l.65,0,.64.06c.59.05,1.2.13,1.81.22h0c.81.12,1.54.26,2.23.42l.21,0a.82.82,0,0,1,.34.65.33.33,0,0,1,0,.14c-.21.53-.4.72-.47.75M110.89,42a9,9,0,0,1-.87,2.38H108.1a13,13,0,0,0,2.16-3.5l.06-.15a3.92,3.92,0,0,1,.38-.86c.1.06.29.38.19,2.14M114,45.9a.16.16,0,0,1,.17.15c0,.27,0,.57.08.88.3,3,.79,8-.81,12.75a18.55,18.55,0,0,1-8.92,10.47l-.08,0-.07,0a18.49,18.49,0,0,1-8.95-10.48c-1.62-4.82-1.2-10.08-.57-13.64a.16.16,0,0,1,.17-.14h3.81a17.69,17.69,0,0,0,1.43,1.88l0,0h0s0,0,0,0a.27.27,0,0,0,.15,0h0a13.66,13.66,0,0,0,5.86-2ZM98.07,41.82a2.45,2.45,0,0,1,0-.34l0-.12.06-.19s0,0,0-.05a1.36,1.36,0,0,1,.3-.55,15.44,15.44,0,0,0,1.21,1.69l0,.05.25.27a7.83,7.83,0,0,0,1,1l.05,0,.08.06-.17.21a3.16,3.16,0,0,0-.2.27,5.42,5.42,0,0,0-.75,2.44c-1.4-1.8-2.08-3.34-2-4.58,0,0,0-.09,0-.14m3.12.85a7.17,7.17,0,0,1-1-1c-.13-.16-.26-.32-.4-.51l0,0c-.11-.15-.22-.3-.32-.46a1.82,1.82,0,0,1-.15-.23l0-.07c-.39-.6-.7-1.16-.89-1.52l.15.08h0l.07,0a2.46,2.46,0,0,1,.41.28l.08.07a3.28,3.28,0,0,1,.34.31l.06.07a5.29,5.29,0,0,1,.34.41l.08.1c.1.15.2.3.29.45s.2.33.28.49l0,.09c.08.16.15.32.22.47l0,.07.18.41,0,0,.16.44m6.38-7.38,0,0a6.28,6.28,0,0,1-.31,2,6.55,6.55,0,0,0-.45,2.27A9.86,9.86,0,0,1,102.11,43c-.3-1-1.23-3.7-3.1-4.75A22.58,22.58,0,0,0,105.5,36a8.87,8.87,0,0,1-.34,1.27.4.4,0,0,0,.08.39.39.39,0,0,0,.39.1,3.19,3.19,0,0,0,1.94-2.49m.46,6.37a8.06,8.06,0,0,1-.28-.91l0-.1c0-.15-.06-.29-.08-.43v-.07c0-.14,0-.28,0-.41a4.77,4.77,0,0,1,0-.86v0h0s0,0,0-.06.06-.31.1-.45,0-.2.08-.3l.09-.27.07-.22a6.47,6.47,0,0,0,.34-1.72,4.86,4.86,0,0,0,1.56.4c0,.35-.06,1.43-.15,2.75A3.3,3.3,0,0,1,108,41.66M104.89,46l0,0-.34.16-.12,0-.35.14-.09,0-.38.14-.11,0-.35.11-.11,0-.33.1-.13,0-.3.07-.56.12-.19,0a.57.57,0,0,1-.18,0l-.35.06h-.11a5.76,5.76,0,0,1,.84-2.89,2.22,2.22,0,0,1,.37-.42l.9-.37.17-.08c.18-.08.35-.17.52-.26l.09,0,.1-.05.11,0,.16-.09.21-.13.35-.2.08,0c.2-.12.38-.25.55-.37l.12-.09.06-.05.44-.34,0,0a5.84,5.84,0,0,0,.44-.4l.09-.08.07-.08.1-.1.12-.13.08-.09.11-.12a8.12,8.12,0,0,0,.51,1.62.38.38,0,0,0,.48.21l.09,0h0l.2-.1a5.23,5.23,0,0,0,.57-.35.35.35,0,0,0,0,.08l-.15.23-.13.19c-.1.15-.21.3-.34.47l0,.07c-.13.17-.26.35-.41.53l-.55.66-.18.22a3.89,3.89,0,0,1-.34.36l0,0-.08.07-.24.22-.07,0,0,0-.3.21-.08,0-.08.05-.27.17-.09.05-.47.24Zm3.19-11.3-.2-.16a1.05,1.05,0,0,0-.21-.12.78.78,0,0,0-.21,0,.63.63,0,0,0-.6.58,3.18,3.18,0,0,1-.68,1.5,9.3,9.3,0,0,0,.16-.92v-.12c0-.15,0-.3,0-.44v-.14h0c0-.21,0-.43,0-.64v-.06a4.58,4.58,0,0,0-.1-.63,4.89,4.89,0,0,0-.32-1c2.95.64,4.1,2.16,4.52,3a3.18,3.18,0,0,1-2.37-.79m2.63,4.47h0l-.29,0a.77.77,0,0,1,0-.15c0-.41,0-.76.07-1.1.12.45.24.9.37,1.33,0,0-.06,0-.1,0h0M97.8,37.89h-.09a.38.38,0,0,1-.15,0h0a4.22,4.22,0,0,1-1.21-2.7l1,2.14a.3.3,0,0,0,.34.16s2.36-.44,5.38-1.23a3.5,3.5,0,0,0,.46-.14c.69-.25.73-.46.72-.86a1.62,1.62,0,0,1,0-.21,2.31,2.31,0,0,1,.06-.53c.06-.32.48-.61,1.16-.81a5.31,5.31,0,0,1,.08,1.51,22.93,22.93,0,0,1-7.8,2.63m-1.06-4.11a2.23,2.23,0,0,0-.15.52c0,.06,0,.12,0,.18h-.1a2.68,2.68,0,0,1,.3-.7m.35,1.32.28.39h0l.55.74a.27.27,0,0,0,.1.09l0,0h.16c.15,0,2.81-.54,3.74-.88a1.71,1.71,0,0,1,.44-.12v0a.88.88,0,0,0,.09.21l.14.24,0,0-4.82,1L97,35.1Zm2.62-2.2a29.63,29.63,0,0,1,5.06-.53,1.52,1.52,0,0,1,.6.79c-.69.2-1.47.58-1.61,1.28a2.83,2.83,0,0,0-.07.63c0,.3,0,.35-.46.51-.07-.11-.15-.23-.2-.33s0,0,0-.09a.55.55,0,0,0-.56-.44,2,2,0,0,0-.68.16,29.77,29.77,0,0,1-3.24.77,12.71,12.71,0,0,1,1.2-2.75m-2.52,1.56a5,5,0,0,1,.33-.77,2.76,2.76,0,0,0,.22-.34l.06-.1.15,0,.13,0s.34-.09.85-.2a12.62,12.62,0,0,0-1,2.22l-.48-.66a.31.31,0,0,0-.25-.13h0v0M98.4,24c-.17-.87-.35-1.75-.53-2.58C98.17,19,99,18.25,99,18.25a3.08,3.08,0,0,0,1.79,2.32.14.14,0,0,0,0,.07c-.06.71-.14,1.38-.23,2a3.2,3.2,0,0,0-1-.72A3.82,3.82,0,0,0,98.4,24m6.07-6a12.17,12.17,0,0,1,2.83.33l0,2.28-.27-.19-.08-.77a.65.65,0,0,0-.13-.3l0,0-.1,0a.24.24,0,0,0-.18.08.37.37,0,0,0-.13.27v.62l-.29.18-.22-.24-.11-.79a.33.33,0,0,0-.28-.29l-.33-.07a.38.38,0,0,0-.27.07.42.42,0,0,0-.14.24l-.07.65-.33.31L104,20l-.08-.65a.32.32,0,0,0-.14-.24.32.32,0,0,0-.27-.06l-.33.06a.34.34,0,0,0-.28.29l-.1.79-.22.24-.3-.18v-.62a.36.36,0,0,0-.17-.3.28.28,0,0,0-.24,0l0,0a.48.48,0,0,0-.14.26l0,.74-.3.23,0-2.17a12.07,12.07,0,0,1,3.19-.42m-.18-2.46a7,7,0,0,0,1.43,1.69c-.43,0-.85-.06-1.28-.06a14.66,14.66,0,0,0-1.62.09,6.69,6.69,0,0,0,1.47-1.72m.08,6.75a.52.52,0,0,1,0,.11c.48,2.21,1.45,5.2,3.42,7.16a29.94,29.94,0,0,0-6.89,0c2-1.95,3-4.9,3.45-7.27m-5.74,2.24h0a10.63,10.63,0,0,1,1-1.52,1.41,1.41,0,0,1,.57.74,11.55,11.55,0,0,1-1.61.79m.92,1.81A2.84,2.84,0,0,0,99.1,28c-.09-.54-.22-1.33-.38-2.25a3.38,3.38,0,0,1,.83.58m1.16.71a2.6,2.6,0,0,0-.79-1.22,5.21,5.21,0,0,0-.52-.41,3.59,3.59,0,0,0-.38-.21l.13-.05.29-.13,0,0,.82-.41a9.44,9.44,0,0,0,3.38-2.9,15.25,15.25,0,0,1-3,7,2.94,2.94,0,0,0,0-1.66m9.66-1.45c-.1.6-.2,1.17-.28,1.64a3.54,3.54,0,0,0-.55-1.19,4.06,4.06,0,0,1,.83-.45m-1.9-1c.22.12.44.23.64.32l.21.1.25.11.14.06-.28.16-.05,0a1.64,1.64,0,0,0-.22.14,2.83,2.83,0,0,0-1.14,1.5,3.13,3.13,0,0,0,0,1.66,15.37,15.37,0,0,1-3-7,9.48,9.48,0,0,0,3.43,2.91m.92-1.63a10,10,0,0,1,1,1.53l0,.14a14.28,14.28,0,0,1-1.78-.83,2.19,2.19,0,0,1,.76-.84m-22,23.13,0,.11c0,.13-.11.27-.17.44a.14.14,0,0,1,0,.07l-.15.55s0,.07,0,.1v0c0,.14-.06.29-.08.43l0,.15v0l-.06.43v0s0,.09,0,.14c0,.2,0,.4,0,.6v.17c0,.15,0,.3,0,.45v.61c0,.1,0,.2,0,.3s0,.2,0,.3,0,.47,0,.7v.1l0,.42v.11c0,.15,0,.3,0,.44,0,.33.07.66.12,1l-2-2.2a68.2,68.2,0,0,1-2-8.71.53.53,0,0,0-.25-.36,5.35,5.35,0,0,1-2.42-4c.33-.28.68-.61,1.06-1a5.57,5.57,0,0,1,2.36,4,.51.51,0,0,0,.51.48.51.51,0,0,0,.51-.44,32.23,32.23,0,0,1,1.79-6.06,3.55,3.55,0,0,0,1,.15A2.59,2.59,0,0,0,90,33.69a.4.4,0,0,0-.11-.4.43.43,0,0,0-.31-.14h-.09l-.24,0c-.46,0-.54-.2-.55-.42a2,2,0,0,1,.33-1.42A1.23,1.23,0,0,1,90,31a4.51,4.51,0,0,1,1.45.29,1.08,1.08,0,0,1,.25.18c.76.76.15,3.14-2,5.34a14.28,14.28,0,0,0-2.47,3.94l-.1.2c-.84,1.91-.77,2.06-.72,2.18l.06.12.11,0h.09c.23,0,.33-.2.58-.72a8.59,8.59,0,0,1,.59-1.1c1.53-2.56,4.82-3,6-3.07a6.37,6.37,0,0,1-2,3.32,2.8,2.8,0,0,1-.33.23,16.45,16.45,0,0,0-3.57,3.19,3.64,3.64,0,0,0-.3.41l-.08.14-.18.33ZM84.45,33.56l.07-.1.23-.3a2.55,2.55,0,0,0,1,1.92,42.67,42.67,0,0,0-1.57,4.75,5.83,5.83,0,0,0-2.34-3c1-1.1,1.92-2.35,2.63-3.27m-7.56,3.15-.12.18L75,33.5c0-.74.37-1.09,1-1.09a3.25,3.25,0,0,1,.37,0l1.89,3.68a1.68,1.68,0,0,0-1.38.59M96,22A9.7,9.7,0,0,0,95.78,20l1.44,1.81c.16.73.31,1.44.44,2.11A9.47,9.47,0,0,0,96,22m15.86-.11L113.29,20a9.7,9.7,0,0,0-.21,1.92,9.39,9.39,0,0,0-1.67,2c.13-.67.28-1.38.44-2.11m21.77,10.35a1.55,1.55,0,0,0-1.12-.42,2.72,2.72,0,0,0-.7.1.24.24,0,0,0-.15.13l-1.05,2A21.05,21.05,0,0,1,126,31.1a6.54,6.54,0,0,0,1.31.13,4.49,4.49,0,0,0,3.48-1.44.17.17,0,0,0,0-.24,6.91,6.91,0,0,0-4.49-1.72,6.68,6.68,0,0,0-3,.69,4,4,0,0,0-2.13-.48,10.18,10.18,0,0,0-1.79.18.23.23,0,0,0-.1.07,16,16,0,0,1-2.46,2.26,2.21,2.21,0,0,0-.65.42c-1.18,1.18-.31,4.05,1.94,6.41a13.92,13.92,0,0,1,1.59,2.07,9.8,9.8,0,0,0-5.54-1.77h-.08a.24.24,0,0,0-.24.2c-.35,1.74,1.57,3.83,2.17,4.43a4.1,4.1,0,0,0,.45.33,15.71,15.71,0,0,1,3.42,3,5.77,5.77,0,0,1,1,3.33,28.84,28.84,0,0,1-9.38-15.94,2,2,0,0,0,.78-1.08,1.38,1.38,0,0,0-.59-1.6.19.19,0,0,0-.08,0c-.26-.07-.52-.11-.78-.17-.14-.22-.27-.43-.39-.65s0-.62.07-1c1.34-.39,2.32-3.1,2.32-3.1s-.12.89-.26,2.91A3.18,3.18,0,0,0,114,31.3c-1.08-1.37-.82-3.28-.46-4.66s-.18-1.72-.18-1.72a2.72,2.72,0,0,0-1-.13,4.59,4.59,0,0,0-.76,1.88,2.4,2.4,0,0,1-1,1.33c.08-.69.19-1.42.32-2.17a19.44,19.44,0,0,1,2.34-2.93,2.55,2.55,0,0,0,1,1.94,9.24,9.24,0,0,1-.45-2.35l.2-.1a5.69,5.69,0,0,1-.4,5.68s1.49-.48,1.75-3.75c.22-2.72-1.18-3-1.18-3a2.87,2.87,0,0,0-.36.23A4.4,4.4,0,0,1,115,18.71l-.87-.6A10.48,10.48,0,0,0,112,20.78c.15-.72.3-1.34.42-1.84.72-.57,3.3-3.53,3.3-3.53a8.47,8.47,0,0,0-3,2.51.44.44,0,0,0,0-.1A5.82,5.82,0,0,0,114,14.09a8.06,8.06,0,0,0-1.62,3.69h0a.73.73,0,0,0-.09.13,7,7,0,0,0-.62-3.69,5.88,5.88,0,0,0,.48,4,15.76,15.76,0,0,0-.76,2.5c0-1.19-.29-3.71-1.38-3.81l-.81.36s.48,2.56-1,3.4a3.14,3.14,0,0,0,1.95-2.39s.83.75,1.13,3.15c-.19.83-.37,1.72-.53,2.58a3.81,3.81,0,0,0-1.19-2.05,3.74,3.74,0,0,0-1.37,1.16,20.71,20.71,0,0,1-.31-2.67l.08-2.36s0,0,0,0,0-.05,0-.07a.1.1,0,0,0,0-.05s0,0,0,0c-2.25-1.36-2.94-2.61-3.16-3.3l.89.59-1.1-2.71,2.71,1.11-.8-1.21.8-1.2-2.71,1.1,1.1-2.71-1.2.8-1.21-.8,1.11,2.71-2.72-1.1.81,1.2-.81,1.21,2.72-1.11-1.11,2.71.88-.58c-.22.69-.92,1.94-3.16,3.29l0,0s0,0,0,0a.16.16,0,0,0,0,.09s0,0,0,0v.07a.22.22,0,0,0,0,.08l.08,2.32c-1.33-.93-.89-3.29-.89-3.29l-.81-.36c-1.1.1-1.33,2.62-1.39,3.8A16.09,16.09,0,0,0,97,18.19a5.88,5.88,0,0,0,.48-4,7,7,0,0,0-.62,3.69.73.73,0,0,0-.1-.13h0a8,8,0,0,0-1.63-3.69,5.87,5.87,0,0,0,1.37,3.73l0,.1a8.47,8.47,0,0,0-3-2.51s2.58,3,3.3,3.53c.12.5.26,1.13.42,1.84A10.48,10.48,0,0,0,95,18.11l-.88.6a4.34,4.34,0,0,1,1.16,2.81,2.48,2.48,0,0,0-.35-.23s-1.4.31-1.18,3c.25,3.27,1.74,3.75,1.74,3.75a5.72,5.72,0,0,1-.4-5.68l.21.1a9.62,9.62,0,0,1-.45,2.35,2.53,2.53,0,0,0,1-1.94,16.41,16.41,0,0,1,1.95,2.36.26.26,0,0,0,.07.11l.33.46c.12.75.23,1.48.32,2.17a2.4,2.4,0,0,1-1-1.33,4.59,4.59,0,0,0-.76-1.88,2.69,2.69,0,0,0-1,.13s-.54.35-.18,1.72.62,3.29-.47,4.66a3.18,3.18,0,0,0,1.41-2.91c-.14-2-.26-2.91-.26-2.91s1,2.71,2.32,3.1c0,.2,0,.39,0,.58a9.24,9.24,0,0,1-.69,1.09l-.41.12-.06,0a1.39,1.39,0,0,0-.6,1.6,2.31,2.31,0,0,0,.61.93l-.1.17L97,32.92a.17.17,0,0,0-.2,0,3.38,3.38,0,0,0-.71,3.3h0A27.85,27.85,0,0,1,87.49,49a5.76,5.76,0,0,1,1-3.34,15.7,15.7,0,0,1,3.41-3,3.55,3.55,0,0,0,.46-.33c.59-.6,2.51-2.69,2.16-4.43a.24.24,0,0,0-.24-.2h-.08a9.72,9.72,0,0,0-5.54,1.79,12,12,0,0,1,1.6-2.09C92.53,35,93.4,32.15,92.22,31a2.21,2.21,0,0,0-.65-.42,16,16,0,0,1-2.46-2.26.18.18,0,0,0-.1-.07A10,10,0,0,0,87.22,28a3.94,3.94,0,0,0-2.12.48,6.78,6.78,0,0,0-3-.69,6.91,6.91,0,0,0-4.49,1.72.17.17,0,0,0,0,.24,4.5,4.5,0,0,0,3.49,1.44,6.68,6.68,0,0,0,1.31-.13A21.19,21.19,0,0,1,77.89,34l-1-2a.27.27,0,0,0-.15-.13,2.72,2.72,0,0,0-.7-.1c-1,0-1.64.66-1.67,1.81a.28.28,0,0,0,0,.13L76.65,38a2,2,0,0,0,1.27,1.29,1.27,1.27,0,0,0,.28,0,2.5,2.5,0,0,0,1.31-.53,6,6,0,0,0,2.69,4.41c.16.93,1.25,6.86,2.11,8.85a.25.25,0,0,0,0,.07l3.23,3.55a.21.21,0,0,0,.18.09.27.27,0,0,0,.12,0s0,0,0,0h0a18.27,18.27,0,0,0,4.53-5,37,37,0,0,1,.33-5.08L93,44a.18.18,0,0,1,.18-.14H96a50.19,50.19,0,0,0,1.7-5c.15.27.34.63.59,1.06a2.88,2.88,0,0,0-.78,1.44,5.32,5.32,0,0,0,.43,3H93.53l-.24,1.3a37.66,37.66,0,0,0,.82,14.56,17.43,17.43,0,0,0,9.49,11.21l.31.15,1,0,.37-.17a17.46,17.46,0,0,0,9.49-11.21,38,38,0,0,0,.87-14.56l-.19-1.33h-4.62a9.27,9.27,0,0,0,.69-2.35c0-.16,0-.32,0-.47.28.83.57,1.6.87,2.35h3.25a.18.18,0,0,1,.18.15l.26,1.6a35.83,35.83,0,0,1,.33,5.92,18.1,18.1,0,0,0,4,4.36h0s0,0,0,0a.37.37,0,0,0,.14,0,.25.25,0,0,0,.19-.09l3.3-3.73,0-.07c.85-2,1.94-7.92,2.11-8.85a6,6,0,0,0,2.68-4.41,2.5,2.5,0,0,0,1.32.53l.27,0A2,2,0,0,0,131.76,38L134,33.7a.2.2,0,0,0,0-.11,1.85,1.85,0,0,0-.44-1.4m-2.49,24.07a2,2,0,0,1-1.34.43h-.07c-1.12.11-1.49-1.16-1.49-1.18a.32.32,0,0,0-.31-.21.28.28,0,0,0-.27.19l-1.12,2.85a15,15,0,0,0-5.73,2.33l0-.08a.38.38,0,0,0-.28-.24.36.36,0,0,0-.35.11,5.6,5.6,0,0,1-1,.78l-1.26-1.87c.42-.32.88-.65,1.41-1l.27-.19.14-.09c1-.68,2-1.3,3-1.82l.12-.06.66-.34.17-.08.61-.29.16-.07.58-.26.12,0a18.42,18.42,0,0,1,2.22-.77l.08,0,.29-.08.22-.06.28-.06.18,0,.22,0,.18,0,.17,0,.18,0,.11,0,.23,0a1.81,1.81,0,0,1,1.94,1.43,1.89,1.89,0,0,1-.25.92m-14.25,6.19.5-.39c.38-.31.69-.56,1-.78l.26.38a14.88,14.88,0,0,1-1.75.79m2.23-6.16.34,1.17c-.47.31-.94.64-1.43,1ZM87.79,60.36h-.08a.38.38,0,0,0-.28.24l0,.08a15,15,0,0,0-5.74-2.33l-1.11-2.85a.31.31,0,0,0-.58,0s-.35,1.19-1.37,1.19h-.19a2,2,0,0,1-1.34-.43,1.84,1.84,0,0,1-.25-.9,1.8,1.8,0,0,1,1.94-1.45L79,54l.11,0,.18,0,.18,0,.16,0,.24,0,.16,0,.29.06.15,0,.39.1h0a20.28,20.28,0,0,1,2.24.79l.11,0,.58.26.16.07c.2.09.4.18.61.29l.17.08.66.34.12.06c.81.44,1.64.93,2.47,1.47l.38.25.14.1.41.28c.52.37,1,.69,1.41,1l-1.26,1.87a5.19,5.19,0,0,1-1-.79.39.39,0,0,0-.27-.11m1.3-4,1.09,2.17c-.49-.36-1-.7-1.43-1Zm1.73,5.76.5.4a14.88,14.88,0,0,1-1.75-.79l.26-.38,1,.77M132,55.25a2.41,2.41,0,0,0-2.61-2c-1,.08-4.48.63-9.47,3.87l-.52-1.68a.26.26,0,0,0-.15-.17.28.28,0,0,0-.22,0,25.32,25.32,0,0,0-3.34,2.81c-.06.29-.12.58-.2.86a29.8,29.8,0,0,1,3.05-2.71l-1.44,2.89v0a.13.13,0,0,0,0,.06.14.14,0,0,0,0,.11s0,0,0,0l1,1.44c-.3.22-.63.48-1,.79l-.81.64a5.78,5.78,0,0,0-.69.63c-.6.2-1.18.38-1.73.54l-.32.61c.76-.21,1.61-.46,2.47-.76l.5-.18.31-.12.41-.16.31-.12.54-.24.32-.15.41-.21a8.92,8.92,0,0,0,.92-.54c-.14.23-.32.51-.52.81h0a1,1,0,0,1-.12.17l-.12.19-.34.46-.11.15c-.16.21-.33.43-.52.66l0,0-.54.64-.18.2-.46.5-.23.23c-.16.17-.34.33-.51.5l-.23.22c-.25.23-.51.47-.79.7-.29,0-.58,0-.88.06h-1L112.32,66l-.31.42.78,1.12a.27.27,0,0,0,.19.11h.69l.65,0a16.83,16.83,0,0,1-7.19,3.24,15.15,15.15,0,0,1-1.69.92L105,72,105,72h0l-1.06,0-.07,0-.34-.15A15.31,15.31,0,0,1,102,71a16.76,16.76,0,0,1-8.09-3.35l.61,0c.23,0,.46,0,.69,0a.23.23,0,0,0,.19-.1l1.14-1.64c-.1-.14-.21-.28-.31-.43l-1.17,1.68a13,13,0,0,1-1.4,0l-.45,0h0a22.86,22.86,0,0,1-4.7-5.45l.21.13.16.1.44.24a19.36,19.36,0,0,0,2.25,1h0l.78.28h0l.93.3c.83.26,1.61.47,2.25.63l-.33-.6c-.76-.2-1.66-.46-2.58-.77a6.67,6.67,0,0,0-.69-.63l-.81-.64c-.4-.31-.72-.57-1-.79l1-1.44s0,0,0,0a.43.43,0,0,0,0-.11.13.13,0,0,0,0-.06v0l-1.45-2.89a29.32,29.32,0,0,1,4.1,3.82c-.11-.35-.22-.71-.31-1.07a26.34,26.34,0,0,0-4.27-3.71.24.24,0,0,0-.22,0,.26.26,0,0,0-.15.16l-.52,1.68c-5-3.23-8.43-3.78-9.47-3.86a2.41,2.41,0,0,0-2.61,2,2.23,2.23,0,0,0,.27,1.23L77.57,61a3.07,3.07,0,0,0,1.82,1.58,4.14,4.14,0,0,1,2.07,1.5,3.42,3.42,0,0,0,.44.75.19.19,0,0,0,.14.07h0c.21,0,.83-.41.3-3.6,0-.13-.06-.24-2.2-1.51a6.34,6.34,0,0,0,1.59-.36.15.15,0,0,0,.1-.09.17.17,0,0,0,0-.14L81.78,59a15.32,15.32,0,0,1,5.5,2.38L86,64.84a.25.25,0,0,0,.1.3h0a21.7,21.7,0,0,0,17.91,10h.22a21.69,21.69,0,0,0,17.91-10,.07.07,0,0,0,0,0,.24.24,0,0,0,.08-.26l-1.3-3.47a15.06,15.06,0,0,1,5.5-2.37l-.09.23a.33.33,0,0,0,0,.14.22.22,0,0,0,.1.09,7.12,7.12,0,0,0,1.6.37c-2.14,1.26-2.23,1.37-2.2,1.51-.53,3.19.09,3.55.3,3.59h0a.21.21,0,0,0,.14-.07,4.74,4.74,0,0,0,.44-.74,4.08,4.08,0,0,1,2.07-1.51A3.07,3.07,0,0,0,130.63,61l1.1-4.54a2.23,2.23,0,0,0,.27-1.23M78.68,16.07l.4,1.3,1.37,0-1.11.8.43,1.29-1.09-.81-1.1.81L78,18.15l-1.12-.8,1.37,0Zm12.37,0,.41,1.3,1.37,0-1.11.8.43,1.29-1.1-.81L90,19.44l.44-1.29-1.12-.8,1.36,0Zm-6.11,5,.55,1.75,1.83,0-1.49,1.06.58,1.73-1.47-1.09-1.47,1.09.59-1.73-1.5-1.06,1.83,0Zm0-11,.55,1.76,1.83,0-1.49,1.07.58,1.74-1.47-1.1-1.47,1.1.59-1.74-1.5-1.07,1.83,0Zm2.76,7A3,3,0,0,1,88,19.7a1.54,1.54,0,0,1-1,.94,2.29,2.29,0,0,1-1.68-.88c.53-.81.92-1.5,1.37-2.3.17-.3.35-.63.56-1a2.68,2.68,0,0,1,.47.54m-2.9,2.1c-.42-.66-.75-1.24-1.22-2.08l-.56-1a4.06,4.06,0,0,1,1.7-.33h.19a3.92,3.92,0,0,1,1.67.33l-.57,1c-.45.8-.79,1.39-1.21,2m-2.18,1.52a1.55,1.55,0,0,1-1-.94A3,3,0,0,1,81.91,17a2.17,2.17,0,0,1,.47-.54c.2.34.37.65.53.94.53.94.89,1.57,1.4,2.34a2.29,2.29,0,0,1-1.69.88m6.75-7.43A5.51,5.51,0,0,0,87,15.58a4.63,4.63,0,0,0-2.13-.48h-.15a4.56,4.56,0,0,0-2.13.48,5.51,5.51,0,0,0-2.36-2.37.24.24,0,0,0-.32.14.23.23,0,0,0,.13.32,5.23,5.23,0,0,1,2.12,2.17,3.07,3.07,0,0,0-.79.84,3.7,3.7,0,0,0-.31,3.3,2,2,0,0,0,1.46,1.28l.23,0a3.12,3.12,0,0,0,2-1.14,3.16,3.16,0,0,0,2,1.14l.22,0A2,2,0,0,0,88.54,20a3.7,3.7,0,0,0-.31-3.3,3.07,3.07,0,0,0-.79-.84,5.25,5.25,0,0,1,2.11-2.17.25.25,0,1,0-.18-.46m28.42,2.86.41,1.3,1.37,0-1.12.8.44,1.29-1.1-.81-1.09.81.43-1.29-1.11-.8,1.37,0Zm12.38,0,.41,1.3,1.37,0-1.12.8.44,1.29-1.1-.81-1.1.81.44-1.29-1.11-.8,1.36,0Zm-6.11,5,.54,1.75,1.84,0-1.5,1.06.59,1.73-1.47-1.09-1.48,1.09.59-1.73-1.5-1.06,1.84,0Zm0-11,.54,1.76,1.84,0-1.5,1.07.59,1.74-1.47-1.1-1.48,1.1.59-1.74-1.5-1.07,1.84,0Zm2.76,7a3,3,0,0,1,.26,2.68,1.51,1.51,0,0,1-1,.94,2.26,2.26,0,0,1-1.68-.88c.52-.8.9-1.47,1.37-2.3.16-.3.35-.62.55-1a2.7,2.7,0,0,1,.48.54m-4.12,0-.56-1a4,4,0,0,1,1.71-.34H124a4,4,0,0,1,1.71.34l-.57,1c-.44.79-.78,1.38-1.2,2-.42-.65-.75-1.23-1.22-2.07m-1,3.59a1.51,1.51,0,0,1-1-.94A3,3,0,0,1,121,17a2.45,2.45,0,0,1,.48-.54l.53.94c.48.85.86,1.53,1.39,2.34a2.28,2.28,0,0,1-1.68.88m6.74-7.43a5.47,5.47,0,0,0-2.35,2.36,4.54,4.54,0,0,0-2.16-.48h-.13a4.63,4.63,0,0,0-2.13.48,5.46,5.46,0,0,0-2.35-2.37.25.25,0,0,0-.33.14.25.25,0,0,0,.14.32,5.25,5.25,0,0,1,2.11,2.17,3.23,3.23,0,0,0-.79.84,3.66,3.66,0,0,0-.3,3.3,2,2,0,0,0,1.46,1.28l.22,0a3.16,3.16,0,0,0,2-1.14,3.12,3.12,0,0,0,2,1.14l.22,0A2,2,0,0,0,127.65,20a3.66,3.66,0,0,0-.3-3.3,3.23,3.23,0,0,0-.79-.84,5.25,5.25,0,0,1,2.11-2.17.25.25,0,0,0,.14-.32.25.25,0,0,0-.33-.14"/><path class="cls-2" d="M6.65,109.76c0,1.21,0,2,1.11,2.7v.07H3.54v-.07c1.06-.4.94-2,.94-2.92V100H2.6a3.71,3.71,0,0,0-2.54.85H0l.75-2.54H.81a3.13,3.13,0,0,0,.81.15H10.1a2.37,2.37,0,0,0,1-.15h.06l-.68,2.54H10.4c-.28-.75-1.13-.85-1.83-.85H6.65Z"/><path class="cls-2" d="M15.47,105.68v3.86c0,1-.12,2.52.94,2.92v.07H12.36v-.07c1.07-.4.94-2,.94-2.92v-8.05c0-1,.15-2.52-.94-2.93V98.5h4.05v.06c-1.06.41-.94,2-.94,3v2.64h7.7v-2.64c0-1,.15-2.54-.94-3V98.5H26.3v.06c-1.09.41-1,2-1,2.93v8.05c0,1-.13,2.52,1,2.92v.07H22.23v-.07c1.09-.4.94-2,.94-2.92v-3.86Z"/><path class="cls-2" d="M32.09,110.74l2.71.25a5.28,5.28,0,0,0,3.94-1.26h.07l-1,2.8H29v-.07c1.09-.38,1-2,1-2.92v-8c0-1,.13-2.54-1-2.94V98.5h7.93a2.19,2.19,0,0,0,1-.11H38v2.5H37.9a3,3,0,0,0-2.52-.85,27.38,27.38,0,0,0-3.29.15v4h2.54a2.17,2.17,0,0,0,.94-.13h.06v2.26h-.06c-.34-.62-1.24-.6-1.9-.6H32.09Z"/><path class="cls-2" d="M137.49,110.74l2.7.25a5.31,5.31,0,0,0,3.95-1.26h.06l-1,2.8h-8.89v-.07c1.09-.38,1-2,1-2.92v-8c0-1,.13-2.54-1-2.94V98.5h7.94a2.16,2.16,0,0,0,1-.11h.06v2.5h-.06a3,3,0,0,0-2.52-.85,27.12,27.12,0,0,0-3.28.15v4H140A2.17,2.17,0,0,0,141,104H141v2.26H141c-.34-.62-1.24-.6-1.9-.6h-1.57Z"/><path class="cls-2" d="M50.86,111c1.75.17,3.52-.64,3.52-2.66s-2-3-3.88-2.86l-1.5.09v5.26Zm-1.15-6.84c1.38,0,3.37-.47,3.37-2.22a2.25,2.25,0,0,0-2.65-2.11L49,100v4.18Zm-2.88-2.66c0-1,.15-2.52-.94-2.92V98.5h5c2.82,0,4.46,1.19,4.46,3.09a3,3,0,0,1-2.13,2.77c1.92.41,3.47,1.69,3.47,3.78a4.3,4.3,0,0,1-2.56,3.73,10.75,10.75,0,0,1-4.77.66H45.89v-.07c1.07-.4.94-2,.94-2.94Z"/><path class="cls-2" d="M63.5,98.5c2.85,0,4.41,1.49,4.41,3.43a4.15,4.15,0,0,1-3.39,3.75l3.07,3.86a15,15,0,0,0,3.45,3h-2a2.8,2.8,0,0,1-2.47-1.07L64,108.24l-2-3c1.7-.26,3.68-1,3.68-3A2.45,2.45,0,0,0,63,99.82a11.71,11.71,0,0,0-1.45.17v9.55c0,1-.13,2.54,1,2.92v.07H58.42v-.07c1.09-.38.94-2,.94-2.92v-8c0-1,.15-2.54-.94-2.94V98.5Z"/><path class="cls-2" d="M72.37,101.51c0-1,.15-2.54-.94-2.94V98.5h4v.07c-1.07.4-.94,2-.94,2.94v8c0,1-.13,2.52.94,2.92v.07h-4v-.07c1.06-.38.94-2,.94-2.92Z"/><path class="cls-2" d="M86.37,101A4.87,4.87,0,0,0,83,99.69c-1.21,0-2.75.47-2.75,1.94,0,2.92,7.33,2.88,7.33,6.83,0,2.28-2.38,4.41-5.71,4.41a10.93,10.93,0,0,1-3.81-.64l-.62-2.67a7.36,7.36,0,0,0,4.67,1.77c1.21,0,3.05-.72,3.05-2.21,0-3.33-7.34-2.73-7.34-7.25,0-2.69,2.75-3.71,5.35-3.71a10.7,10.7,0,0,1,3.18.47Z"/><path class="cls-2" d="M94.71,111c1.75.17,3.52-.64,3.52-2.66s-2-3-3.88-2.86l-1.49.09v5.26Zm-1.15-6.84c1.39,0,3.37-.47,3.37-2.22a2.24,2.24,0,0,0-2.64-2.11l-1.43.15v4.18Zm-2.87-2.66c0-1,.15-2.52-.94-2.92V98.5h5c2.81,0,4.45,1.19,4.45,3.09a3,3,0,0,1-2.13,2.77c1.92.41,3.48,1.69,3.48,3.78A4.3,4.3,0,0,1,98,111.87a10.79,10.79,0,0,1-4.78.66H89.75v-.07c1.06-.4.94-2,.94-2.94Z"/><path class="cls-2" d="M109,100.31l-2.11,5.37h4.2Zm-2.66,7-1.11,3c-.45,1.19-.6,1.81.43,2.19v.07h-3.93v-.07c1.24-.62,1.6-1.81,2.07-3l3.56-8.89c.3-.77.71-1.67-.32-2V98.5h3.37l4.43,10.94c.49,1.21.88,2.4,2.09,3v.07h-4.37v-.07c1-.47.88-.7.3-2.19l-1.15-3Z"/><path class="cls-2" d="M120.35,109.76c0,1.19,0,2,1.11,2.7v.07h-3.77v-.07c1.13-.66,1.13-1.51,1.13-2.7v-8.51c0-1.19,0-2-1.11-2.68V98.5h3.11v0a1.36,1.36,0,0,0,.32.54l.3.42,7.8,9.85v-8.08c0-1.19,0-2-1.11-2.68V98.5h3.75v.07c-1.1.63-1.1,1.49-1.1,2.68v12a5.91,5.91,0,0,1-3.12-2.43l-7.31-9.27Z"/><path class="cls-2" d="M164.11,101.15a7.41,7.41,0,0,0-4-1.22,4.89,4.89,0,0,0-5,5.24c0,3.14,2.13,5.93,5.41,5.93a9.46,9.46,0,0,0,4.54-1.34h.06l-1.08,2.47a7.54,7.54,0,0,1-3.22.64c-5,0-8.14-2.82-8.14-7.38,0-4.41,3.11-7.33,7.48-7.33a17.52,17.52,0,0,1,3.88.53Z"/><path class="cls-2" d="M173.12,111a5.19,5.19,0,0,0,3.77-1.3H177l-1.11,2.84h-8.76v-.07c1.09-.38,1-2,1-2.92v-8c0-1,.13-2.54-1-2.94V98.5h4.07v.07c-1.09.4-.94,2-.94,2.94v9.29Z"/><path class="cls-2" d="M188,111.12a5.8,5.8,0,0,1-8,.26c-1.13-1.24-1.09-2.67-1.09-4.2v-5.69c0-1,.15-2.52-.94-2.93V98.5H182v.06c-1.06.41-.94,2-.94,2.93v5.69c0,2.83,1.2,4.15,3.39,4.15a3.79,3.79,0,0,0,3.12-1.49,2.85,2.85,0,0,0,.44-1.94v-6.41c0-1,.13-2.52-.93-2.93V98.5h4l0,.06c-1.09.41-1,2-1,3v8c0,1-.13,2.52,1,2.92v.07H188Z"/><path class="cls-2" d="M198.75,111c1.75.17,3.52-.64,3.52-2.66s-2-3-3.88-2.86l-1.49.09v5.26Zm-1.15-6.84c1.39,0,3.37-.47,3.37-2.22a2.24,2.24,0,0,0-2.64-2.11l-1.43.15v4.18Zm-2.87-2.66c0-1,.15-2.52-.94-2.92V98.5h5.05c2.81,0,4.46,1.19,4.46,3.09a3,3,0,0,1-2.14,2.77c1.92.41,3.48,1.69,3.48,3.78a4.3,4.3,0,0,1-2.56,3.73,10.77,10.77,0,0,1-4.77.66h-3.52v-.07c1.06-.4.94-2,.94-2.94Z"/></svg>