<?xml version="1.0" encoding="utf-8"?>
<!-- Generator: Adobe Illustrator 19.1.0, SVG Export Plug-In . SVG Version: 6.00 Build 0)  -->
<svg version="1.0" id="Layer_1" xmlns="http://www.w3.org/2000/svg" xmlns:xlink="http://www.w3.org/1999/xlink" x="0px" y="0px"
	 viewBox="0 0 226.1 47" style="enable-background:new 0 0 226.1 47;" xml:space="preserve">
<style type="text/css">
	.st0{fill:#263E8B;}
	.st1{clip-path:url(#SVGID_2_);}
	.st2{clip-path:url(#SVGID_4_);fill:#263E8B;}
	.st3{clip-path:url(#SVGID_4_);fill:#FDB813;}
	.st4{clip-path:url(#SVGID_6_);}
	.st5{clip-path:url(#SVGID_6_);fill:#FDB813;}
	.st6{clip-path:url(#SVGID_6_);fill:#263E8B;}
	.st7{clip-path:url(#SVGID_8_);fill:#263E8B;}
</style>
<g>
	<g>
		<g>
			<path class="st0" d="M75.4,13L75,11.9h-2.1L72.4,13h-1.2l2.1-5h1.1l2.1,5H75.4z M73.9,9.5l-0.6,1.4h1.2L73.9,9.5z"/>
			<path class="st0" d="M79.2,11.7c0.2,0.2,0.4,0.3,0.7,0.3c0.3,0,0.6-0.1,0.7-0.3c0.2-0.2,0.3-0.5,0.3-0.9V8H82v2.8
				c0,0.7-0.2,1.3-0.6,1.7C81,12.8,80.5,13,79.9,13c-0.6,0-1.1-0.2-1.5-0.6c-0.4-0.4-0.6-0.9-0.6-1.7V8h1.1v2.7
				C78.9,11.2,79,11.5,79.2,11.7z"/>
			<path class="st0" d="M85.2,9C85.1,9.1,85,9.2,85,9.4c0,0.1,0.1,0.3,0.2,0.3c0.1,0.1,0.4,0.2,0.9,0.3c0.5,0.1,0.8,0.3,1.1,0.5
				c0.3,0.2,0.4,0.6,0.4,1c0,0.4-0.2,0.8-0.5,1.1c-0.3,0.3-0.8,0.4-1.3,0.4c-0.8,0-1.5-0.3-2.1-0.9l0.7-0.8c0.5,0.5,1,0.7,1.5,0.7
				c0.2,0,0.4,0,0.5-0.1c0.1-0.1,0.2-0.2,0.2-0.4s-0.1-0.3-0.2-0.4S85.9,11,85.5,11c-0.6-0.1-1-0.3-1.3-0.5c-0.3-0.2-0.4-0.6-0.4-1
				s0.2-0.8,0.5-1.1c0.3-0.3,0.8-0.4,1.3-0.4c0.3,0,0.7,0.1,1,0.2c0.3,0.1,0.6,0.3,0.9,0.5l-0.6,0.8c-0.4-0.3-0.9-0.5-1.3-0.5
				C85.4,8.9,85.3,8.9,85.2,9z"/>
			<path class="st0" d="M91.5,9v4h-1.1V9H89V8h3.9v1H91.5z"/>
			<path class="st0" d="M98.5,9.7c0,0.8-0.3,1.3-0.9,1.5l1.3,1.8h-1.4l-1.1-1.6h-0.8V13h-1.1V8h1.9c0.8,0,1.3,0.1,1.6,0.4
				C98.4,8.7,98.5,9.1,98.5,9.7z M97.2,10.3c0.1-0.1,0.2-0.3,0.2-0.6c0-0.3-0.1-0.4-0.2-0.5C97,9,96.8,9,96.4,9h-0.8v1.5h0.8
				C96.8,10.4,97,10.4,97.2,10.3z"/>
			<path class="st0" d="M104.3,13l-0.5-1.1h-2.1l-0.5,1.1h-1.2l2.1-5h1.1l2.1,5H104.3z M102.8,9.5l-0.6,1.4h1.2L102.8,9.5z"/>
			<path class="st0" d="M106.9,13V8h1.1v4h2.1v1H106.9z"/>
			<path class="st0" d="M115.5,13l-0.5-1.1H113l-0.5,1.1h-1.2l2.1-5h1.1l2.1,5H115.5z M114.1,9.5l-0.6,1.4h1.2L114.1,9.5z"/>
			<path class="st0" d="M119.4,9c-0.1,0.1-0.2,0.2-0.2,0.3c0,0.1,0.1,0.3,0.2,0.3c0.1,0.1,0.4,0.2,0.9,0.3c0.5,0.1,0.8,0.3,1.1,0.5
				c0.3,0.2,0.4,0.6,0.4,1c0,0.4-0.2,0.8-0.5,1.1c-0.3,0.3-0.8,0.4-1.3,0.4c-0.8,0-1.5-0.3-2.1-0.9l0.7-0.8c0.5,0.5,1,0.7,1.5,0.7
				c0.2,0,0.4,0,0.5-0.1c0.1-0.1,0.2-0.2,0.2-0.4s-0.1-0.3-0.2-0.4c-0.1-0.1-0.4-0.2-0.7-0.3c-0.6-0.1-1-0.3-1.3-0.5
				c-0.3-0.2-0.4-0.6-0.4-1s0.2-0.8,0.5-1.1c0.3-0.3,0.8-0.4,1.3-0.4c0.3,0,0.7,0.1,1,0.2c0.3,0.1,0.6,0.3,0.9,0.5l-0.6,0.8
				c-0.4-0.3-0.9-0.5-1.3-0.5C119.6,8.9,119.5,8.9,119.4,9z"/>
			<path class="st0" d="M123.6,8h1.1v5h-1.1V8z"/>
			<path class="st0" d="M130.4,13l-0.5-1.1h-2.1l-0.5,1.1h-1.2l2.1-5h1.1l2.1,5H130.4z M128.9,9.5l-0.6,1.4h1.2L128.9,9.5z"/>
			<path class="st0" d="M136.5,8h1.1v5h-1.1l-2.4-3.1V13H133V8h1l2.4,3.2V8z"/>
			<path class="st0" d="M77.7,31.7h-3.6l-1.5,9.8l3.9,0.2v0.2h-8.8v-0.2l2.8-0.2l3.2-21.5l-2.7-0.2v-0.2h9.1c3.6,0,5.6,2,5.6,4.7
				c0,2.9-1.6,5.1-5.8,6.5L77.7,31.7z M78.5,31.2c2.1-0.9,4.9-2.5,4.9-6.4c0-2.9-1.4-4.8-4.6-4.8h-3l-1.7,11.2H78.5z"/>
			<path class="st0" d="M86,41.5L88.4,28l-3,1.1L85.3,29l4.9-2.1l0.1,0.1l-2.6,14.5l3.1-2.4l0.1,0.1l-3.7,3.2L86,41.5z M89.7,20.2
				l0.8-0.2l1.3,0.2v1.3l-0.5,1.1l-0.7,0.2L89,22.6l0.1-1.3L89.7,20.2z"/>
			<path class="st0" d="M99.8,26.9c2.2,0,4.4,1.9,4.4,5.8c0,3.9-2,7.3-5.5,8.8l-1.9,0.9c-2.2,0-4.4-2.1-4.4-6c0-3.9,2-7.1,5.5-8.7
				L99.8,26.9z M94.3,35.8c0,3.9,1.7,5.5,3.7,5.8c3.3-1.1,4.3-5.4,4.3-8.3c0-4-1.6-5.2-3.8-5.6C95.2,28.7,94.3,32.9,94.3,35.8z"/>
			<path class="st0" d="M107.6,41.9h-1.8l2.4-13.9l-3,1.1l-0.1-0.2l4.9-2.1l0.1,0.1l-0.6,3.6l5.2-3.7c2.2,0,3.1,1.2,2.7,3l-2.1,11.5
				l3.1-2.3l0.1,0.1l-3.7,3.2l-1.3-0.8l2-10.9c0.3-1.5-0.2-2.3-1.5-2.3c-0.9,0-1.8,0.5-3.3,1.5l-1.3,0.9L107.6,41.9z"/>
			<path class="st0" d="M121.7,34.9c0,3.9,2,5.4,3.9,6.1c0.9-0.5,3.3-1.9,4-2.4l0.2,0.2c-1,0.8-2.3,1.7-3.7,2.6l-1.5,0.9
				c-2.2-0.3-4.6-2.3-4.6-6c0-3.9,2.4-7.2,6.5-8.8l1.8-0.7c1.4,0.3,2.5,1.1,2.5,3.1c0,0.7-0.1,1.4-0.6,2.3L121.7,34.9z M121.7,34.7
				l6.4-2.2c0.3-0.7,0.5-1.3,0.5-2.1c0-1.6-0.8-2.4-2-2.7C124,29,121.8,31.1,121.7,34.7z"/>
			<path class="st0" d="M133.4,34.9c0,3.9,2,5.4,3.9,6.1c0.9-0.5,3.3-1.9,4-2.4l0.2,0.2c-1,0.8-2.3,1.7-3.7,2.6l-1.5,0.9
				c-2.2-0.3-4.6-2.3-4.6-6c0-3.9,2.4-7.2,6.5-8.8l1.8-0.7c1.4,0.3,2.5,1.1,2.5,3.1c0,0.7-0.1,1.4-0.6,2.3L133.4,34.9z M133.4,34.7
				l6.4-2.2c0.3-0.7,0.5-1.3,0.5-2.1c0-1.6-0.8-2.4-2-2.7C135.6,29,133.5,31.1,133.4,34.7z"/>
			<path class="st0" d="M144.3,41.9l2.5-13.9l-3,1.1l-0.1-0.2l4.9-2.1l0.1,0.1l-1.2,6.7l4.4-6.4h1.9l-0.5,2.4h-2.6l-3.3,4.6
				l-1.4,7.7H144.3z"/>
			<path class="st0" d="M155.6,42.3c-0.8-0.4-2.2-1.3-2.8-1.8l1.5-1.4c0.9,0.8,1.9,1.4,3.6,2.3C159.3,41,160,40,160,39
				c0-1.3-0.4-2-1.6-3.2l-2.1-2.1c-0.8-0.8-1.2-1.5-1.2-2.7c0-1.3,1-2.7,3.5-3.5l2-0.6c0.8,0.1,1.6,0.4,2.4,1l-1.2,1.5
				c-1-0.7-2.3-1.3-3.5-1.7c-1.1,0.4-1.7,1.5-1.7,2.3c0,1.1,0.5,1.8,1.1,2.5l2.2,2.2c1.3,1.3,1.8,2.1,1.8,3.5c0,1.6-1.1,2.6-3,3.2
				L155.6,42.3z"/>
			<path class="st0" d="M164.8,28.5l2.5-4.5l-1.1,0.1l-0.6-0.1l0.1-1.4l0.4-1.1l1.7-0.1l0.7,0.1l-0.1,1.3l-0.4,1.2L164.8,28.5
				L164.8,28.5z"/>
			<path class="st0" d="M178.3,31.7c0,6.6,2.8,9.6,6.8,10.1c1.4-0.5,3.8-1.8,4.4-2.2l2.4-4.1h0.2l-1.1,4.8l-6.6,2.1
				c-4.8,0-8.5-3.9-8.5-9.4c0-5,2.5-10.6,8.4-12.9l2.3-0.9c3,0,5.2,1,6.3,1.9l-0.2,4.9h-0.2l-1.2-3.8c-1.1-0.9-2.9-1.8-5.8-2.1
				C180.9,21.6,178.3,26.3,178.3,31.7z"/>
			<path class="st0" d="M193.6,41.5l3.8-21.4l-3,0.9l0-0.2l4.8-1.7l0.2,0.2l-3.9,22.1l3.1-2.3l0.1,0.1l-3.7,3.2L193.6,41.5z"/>
			<path class="st0" d="M213,39.2L213,39.2l-4,3.1l-1.1-0.8l0.5-3l-5.2,3.8c-2.2,0-3-1.1-2.7-2.9l2.1-11.6l-3,1l-0.1-0.2l4.9-1.8
				l0.1,0.1l-2.1,11.9c-0.3,1.5,0.3,2,1.2,2c1,0,1.7-0.3,3.6-1.6l1.3-0.9l1.9-11h1.8l-2.5,14.1L213,39.2z"/>
			<path class="st0" d="M214.9,21.1l0-0.2l4.8-1.7l0.2,0.2l-2,11.3l4.5-3.8c2,0.4,3.7,2,3.7,5.4c0,3.5-1.9,7.2-5.4,8.8l-2.6,1.2
				c-1.5-0.2-2.4-0.6-3.7-1.5l3.6-20.7L214.9,21.1z M217.9,30.9l-1.6,8.9c1,1,2.6,1.5,3.4,1.5c3.5-1.4,4.5-4.9,4.5-7.9
				c0-3-1.1-4.5-2.9-5.1L217.9,30.9z"/>
		</g>
	</g>
	<g>
		<g>
			<defs>
				<rect id="SVGID_1_" width="61.4" height="47"/>
			</defs>
			<clipPath id="SVGID_2_">
				<use xlink:href="#SVGID_1_"  style="overflow:visible;"/>
			</clipPath>
			<g class="st1">
				<defs>
					<rect id="SVGID_3_" x="-13.8" y="-4.2" width="90.6" height="56.6"/>
				</defs>
				<clipPath id="SVGID_4_">
					<use xlink:href="#SVGID_3_"  style="overflow:visible;"/>
				</clipPath>
				<path class="st2" d="M45.8,31.1v-0.5c0.1-0.6-0.9-1.3-2.2-1.5c-0.3-0.1-0.7-0.1-1-0.1V29v0.1c0.3,0,0.6,0,1,0.1
					c0.6,0.1,1.2,0.3,1.6,0.6c0.4,0.3,0.5,0.5,0.5,0.7c-0.1,0.3-0.7,0.6-1.5,0.6c-0.3-0.2-0.4-0.5-0.5-0.7c-0.1-0.2-0.1-0.4-0.1-0.4
					c0,0,0-0.1-0.1-0.1c0,0-0.1,0-0.1,0.1c0,0,0,0.5,0.5,1c-0.1,0-0.3,0-0.4,0c-0.2-0.2-0.3-0.4-0.4-0.6c-0.1-0.2-0.1-0.4-0.1-0.4
					c0,0,0-0.1-0.1-0.1c0,0-0.1,0-0.1,0.1c0,0,0,0.5,0.4,0.9c0,0-0.1,0-0.1,0c-0.6-0.1-1.2-0.3-1.6-0.6c-0.4-0.3-0.5-0.5-0.5-0.7
					c0.1-0.3,0.7-0.6,1.5-0.6l0-0.1h0c-0.9,0-1.5,0.3-1.6,0.7c0,0.1,0,0.1,0,0.2v0.5c-0.1,0.6,0.9,1.3,2.2,1.5
					c1.3,0.3,2.5,0,2.6-0.6C45.8,31.2,45.8,31.1,45.8,31.1"/>
				<path class="st2" d="M42.6,28.9"/>
				<path class="st2" d="M25.6,31.1v-0.5c0.1-0.6-0.9-1.3-2.2-1.5c-0.3-0.1-0.7-0.1-1-0.1V29v0.1c0.3,0,0.6,0,1,0.1
					c0.6,0.1,1.2,0.3,1.6,0.6c0.4,0.3,0.5,0.5,0.5,0.7c-0.1,0.3-0.7,0.6-1.5,0.6c-0.3-0.2-0.4-0.5-0.5-0.7c-0.1-0.2-0.1-0.4-0.1-0.4
					c0,0,0-0.1-0.1-0.1c0,0-0.1,0-0.1,0.1c0,0,0,0.5,0.5,1c-0.1,0-0.3,0-0.4,0c-0.2-0.2-0.3-0.4-0.4-0.6c-0.1-0.2-0.1-0.4-0.1-0.4
					c0,0,0-0.1-0.1-0.1c0,0-0.1,0-0.1,0.1c0,0,0,0.5,0.4,0.9c0,0-0.1,0-0.1,0c-0.6-0.1-1.2-0.3-1.6-0.6c-0.4-0.3-0.5-0.5-0.5-0.7
					c0.1-0.3,0.7-0.6,1.5-0.6l0-0.1h0c-0.9,0-1.5,0.3-1.6,0.7c0,0.1,0,0.1,0,0.2v0.5c-0.1,0.6,0.9,1.3,2.2,1.5
					c1.3,0.3,2.5,0,2.6-0.6C25.6,31.2,25.6,31.1,25.6,31.1"/>
				<path class="st2" d="M22.4,28.9"/>
				<path class="st2" d="M35.7,31.1v-0.5c0.1-0.6-0.9-1.3-2.2-1.5c-0.3-0.1-0.7-0.1-1-0.1V29v0.1c0.3,0,0.6,0,1,0.1
					c0.6,0.1,1.2,0.3,1.6,0.6c0.4,0.3,0.5,0.5,0.5,0.7c-0.1,0.3-0.7,0.6-1.5,0.6c-0.3-0.2-0.4-0.5-0.5-0.7c-0.1-0.2-0.1-0.4-0.1-0.4
					c0,0,0-0.1-0.1-0.1c0,0-0.1,0-0.1,0.1c0,0,0,0.5,0.5,1c-0.1,0-0.3,0-0.4,0c-0.2-0.2-0.3-0.4-0.4-0.6c-0.1-0.2-0.1-0.4-0.1-0.4
					c0,0,0-0.1-0.1-0.1c0,0-0.1,0-0.1,0.1c0,0,0,0.5,0.4,0.9c0,0-0.1,0-0.1,0c-0.6-0.1-1.2-0.3-1.6-0.6c-0.4-0.3-0.5-0.5-0.5-0.7
					c0.1-0.3,0.7-0.6,1.5-0.6l0-0.1h0c-0.9,0-1.5,0.3-1.6,0.7c0,0.1,0,0.1,0,0.2v0.5c-0.1,0.6,0.9,1.3,2.2,1.5
					c1.3,0.3,2.5,0,2.6-0.6C35.7,31.2,35.7,31.1,35.7,31.1"/>
				<path class="st2" d="M32.5,28.9"/>
				<path class="st3" d="M17.3,29L17.3,29L17.3,29z"/>
				<path class="st3" d="M20.5,31.1v-0.5c0.1-0.6-0.9-1.3-2.2-1.5c-0.3-0.1-0.7-0.1-1-0.1V29v0.1c0.3,0,0.6,0,1,0.1
					c0.6,0.1,1.2,0.3,1.6,0.6c0.4,0.3,0.5,0.5,0.5,0.7c-0.1,0.3-0.7,0.6-1.5,0.6c-0.3-0.2-0.4-0.5-0.5-0.7c-0.1-0.2-0.1-0.4-0.1-0.4
					c0,0,0-0.1-0.1-0.1c0,0-0.1,0-0.1,0.1c0,0,0,0.5,0.5,1c-0.1,0-0.3,0-0.4,0c-0.2-0.2-0.3-0.4-0.4-0.6c-0.1-0.2-0.1-0.4-0.1-0.4
					c0,0,0-0.1-0.1-0.1c0,0-0.1,0-0.1,0.1c0,0,0,0.5,0.4,0.9c0,0-0.1,0-0.1,0c-0.6-0.1-1.2-0.3-1.6-0.6c-0.4-0.3-0.5-0.5-0.5-0.7
					c0.1-0.3,0.7-0.6,1.5-0.6l0-0.1h0c-0.9,0-1.5,0.3-1.6,0.7c0,0.1,0,0.1,0,0.2v0.5c-0.1,0.6,0.9,1.3,2.2,1.5
					c1.3,0.3,2.5,0,2.6-0.6C20.5,31.2,20.5,31.1,20.5,31.1"/>
				<path class="st3" d="M17.3,28.9"/>
				<path class="st3" d="M27.4,29L27.4,29L27.4,29z"/>
				<path class="st3" d="M30.6,31.1v-0.5c0.1-0.6-0.9-1.3-2.2-1.5c-0.3-0.1-0.7-0.1-1-0.1V29v0.1c0.3,0,0.6,0,1,0.1
					c0.6,0.1,1.2,0.3,1.6,0.6c0.4,0.3,0.5,0.5,0.5,0.7c-0.1,0.3-0.7,0.6-1.5,0.6c-0.3-0.2-0.4-0.5-0.5-0.7c-0.1-0.2-0.1-0.4-0.1-0.4
					c0,0,0-0.1-0.1-0.1c0,0-0.1,0-0.1,0.1c0,0,0,0.5,0.5,1c-0.1,0-0.3,0-0.4,0c-0.2-0.2-0.3-0.4-0.4-0.6c-0.1-0.2-0.1-0.4-0.1-0.4
					c0,0,0-0.1-0.1-0.1c0,0-0.1,0-0.1,0.1c0,0,0,0.5,0.4,0.9c0,0-0.1,0-0.1,0c-0.6-0.1-1.2-0.3-1.6-0.6c-0.4-0.3-0.5-0.5-0.5-0.7
					c0.1-0.3,0.7-0.6,1.5-0.6l0-0.1h0c-0.9,0-1.5,0.3-1.6,0.7c0,0.1,0,0.1,0,0.2v0.5c-0.1,0.6,0.9,1.3,2.2,1.5
					c1.3,0.3,2.5,0,2.6-0.6C30.6,31.2,30.6,31.1,30.6,31.1"/>
				<path class="st3" d="M27.4,28.9"/>
				<path class="st3" d="M37.6,29L37.6,29L37.6,29z"/>
				<path class="st3" d="M40.8,31.1v-0.5c0.1-0.6-0.9-1.3-2.2-1.5c-0.3-0.1-0.7-0.1-1-0.1V29v0.1c0.3,0,0.6,0,1,0.1
					c0.6,0.1,1.2,0.3,1.6,0.6c0.4,0.3,0.5,0.5,0.5,0.7c-0.1,0.3-0.7,0.6-1.5,0.6c-0.3-0.2-0.4-0.5-0.5-0.7c-0.1-0.2-0.1-0.4-0.1-0.4
					c0,0,0-0.1-0.1-0.1c0,0-0.1,0-0.1,0.1c0,0,0,0.5,0.5,1c-0.1,0-0.3,0-0.4,0c-0.2-0.2-0.3-0.4-0.4-0.6C38,30.3,38,30.1,38,30.1
					c0,0,0-0.1-0.1-0.1c0,0-0.1,0-0.1,0.1c0,0,0,0.5,0.4,0.9c0,0-0.1,0-0.1,0c-0.6-0.1-1.2-0.3-1.6-0.6c-0.4-0.3-0.5-0.5-0.5-0.7
					c0.1-0.3,0.7-0.6,1.5-0.6l0-0.1h0c-0.9,0-1.5,0.3-1.6,0.7c0,0.1,0,0.1,0,0.2v0.5c-0.1,0.6,0.9,1.3,2.2,1.5
					c1.3,0.3,2.5,0,2.6-0.6C40.8,31.2,40.8,31.1,40.8,31.1"/>
				<path class="st3" d="M37.6,28.9"/>
			</g>
			<g class="st1">
				<defs>
					<rect id="SVGID_5_" x="-13.8" y="-4.2" width="90.6" height="56.6"/>
				</defs>
				<clipPath id="SVGID_6_">
					<use xlink:href="#SVGID_5_"  style="overflow:visible;"/>
				</clipPath>
				<path class="st4" d="M21.1,17.3c-0.1,0-0.2,0.1-0.2,0.2c0,0.1,0.1,0.2,0.2,0.2c0.1,0,0.2-0.1,0.2-0.2
					C21.3,17.4,21.2,17.3,21.1,17.3 M21.1,17.6c-0.1,0-0.1-0.1-0.1-0.1c0-0.1,0.1-0.1,0.1-0.1c0.1,0,0.1,0.1,0.1,0.1
					C21.2,17.6,21.2,17.6,21.1,17.6"/>
				<path class="st4" d="M21.1,17.2c-0.2,0-0.3,0.1-0.3,0.3s0.1,0.3,0.3,0.3c0.2,0,0.3-0.1,0.3-0.3S21.3,17.2,21.1,17.2 M21.1,17.7
					c-0.1,0-0.2-0.1-0.2-0.2c0-0.1,0.1-0.2,0.2-0.2c0.1,0,0.2,0.1,0.2,0.2C21.3,17.6,21.2,17.7,21.1,17.7"/>
				<path class="st5" d="M41.6,20.6c2.2-0.5,4.9-0.7,7.9-0.7l0.1-0.1c-3.1,0-5.8,0.3-8.1,0.7L41.6,20.6z"/>
				<path class="st4" d="M21.1,17.3c-0.1,0-0.2,0.1-0.2,0.2c0,0.1,0.1,0.2,0.2,0.2c0.1,0,0.2-0.1,0.2-0.2
					C21.3,17.4,21.2,17.3,21.1,17.3 M21.1,17.6c-0.1,0-0.1-0.1-0.1-0.1c0-0.1,0.1-0.1,0.1-0.1c0.1,0,0.1,0.1,0.1,0.1
					C21.2,17.6,21.2,17.6,21.1,17.6"/>
				<path class="st5" d="M46.6,17.7c-0.9,0-1.8,0.1-2.8,0.1c-1.3,0.1-2.3,0.2-3.2,0.4c1.6-0.7,3.8-1.4,6.9-1.6l0.1-0.1
					c-4,0.3-6.6,1.3-8.1,2.1c1-0.2,2.3-0.5,4.3-0.6c1-0.1,1.9-0.1,2.8-0.1L46.6,17.7z"/>
				<path class="st4" d="M21.1,17.2c-0.2,0-0.3,0.1-0.3,0.3s0.1,0.3,0.3,0.3c0.2,0,0.3-0.1,0.3-0.3S21.3,17.2,21.1,17.2 M21.1,17.7
					c-0.1,0-0.2-0.1-0.2-0.2c0-0.1,0.1-0.2,0.2-0.2c0.1,0,0.2,0.1,0.2,0.2C21.3,17.6,21.2,17.7,21.1,17.7"/>
				<path class="st5" d="M21.1,17.8c0.2,0,0.4-0.2,0.4-0.4c0-0.2-0.2-0.4-0.4-0.4c-0.2,0-0.4,0.2-0.4,0.4
					C20.7,17.7,20.9,17.8,21.1,17.8"/>
				<path class="st5" d="M43.7,27.4c0-0.2,0-0.4-0.1-0.5c-0.1-0.5-0.4-1-0.8-1.3c-0.2-0.1-0.3-0.2-0.5-0.3l0,0.2
					c0.1,0.1,0.3,0.2,0.4,0.3c0.4,0.3,0.7,0.7,0.8,1.2c0,0.2,0.1,0.4,0.1,0.6L43.7,27.4z"/>
				<path class="st5" d="M47.4,16.6c-0.3,0.4-0.7,0.8-1,1.2c0.1,0,0.1,0,0.2,0c0.3-0.4,0.6-0.7,0.9-1.1c0.1-0.1,0.1-0.2,0.2-0.3
					c-0.1,0-0.1,0-0.2,0C47.4,16.5,47.4,16.6,47.4,16.6"/>
				<path class="st5" d="M21.1,17.2c-0.2,0-0.3,0.1-0.3,0.3c0,0.2,0.1,0.3,0.3,0.3c0.2,0,0.3-0.1,0.3-0.3
					C21.4,17.3,21.3,17.2,21.1,17.2"/>
				<path class="st5" d="M18.9,24.8c0-2.1,0.5-4,1.5-5.7c-0.6-0.3-1.1-0.9-1.1-1.6c0-0.4,0.1-0.8,0.4-1.1l0.4-0.6
					c-0.2-0.2-0.3-0.5-0.1-1c0.2-0.4,0.6-0.6,1.4-0.6c0.5,0,1.1,0.1,1.4,0.1c0.7,0.1,1.4,0.2,2.1,0.3l0.1,0c1.7-1,3.7-1.6,5.9-1.6
					c3,0,5.8,1.2,7.9,3c0,0,0,0,0,0l0.1,0.1c0,0,0,0,0,0c0.1,0,0.1-0.1,0.2-0.1c0.2-0.1,0.5-0.2,0.7-0.2c0,0,0,0,0,0
					c0.1,0,0.2-0.1,0.4-0.1c0,0,0,0,0.1,0c0.1,0,0.2-0.1,0.3-0.1c0,0,0,0,0,0c0.1,0,0.2-0.1,0.3-0.1c0,0,0,0,0,0
					c1.9-0.6,3.8-1,5.7-1.2c0,0,0,0,0,0h0c0.1,0,0.1,0,0.2,0l0,0c0.1,0,0.2,0,0.4,0c0,0,0,0,0.1,0c0.1,0,0.2,0,0.3,0c0,0,0,0,0.1,0
					c0.1,0,0.2,0,0.3,0c0,0,0,0,0,0c0.5,0,1-0.1,1.5-0.1h0c0.1,0,0.2,0,0.4,0c0,0,0.1,0,0.1,0c0,0,0,0,0,0c0.1,0,0.1,0,0.2,0
					c0.7-0.6,1.5-1,2.5-1.2c0,0,0,0,0,0c0,0,0,0,0,0c0,0,0,0,0,0c0,0,0,0,0,0c0,0,0,0,0,0c0,0,0,0,0,0c0,0,0,0,0,0c0,0,0,0,0,0
					c0,0,0,0,0,0c0,0,0,0,0,0c0,0,0,0,0,0c0,0,0,0,0,0c0,0,0,0,0,0c0,0,0,0,0,0c0,0,0,0,0,0c0,0,0,0,0,0c0,0,0,0,0,0c0,0,0,0,0,0
					c0,0,0,0,0,0c0,0,0,0,0,0c0,0,0,0,0,0c0,0,0,0,0,0c0,0,0,0,0,0c0,0,0,0,0,0c0,0,0,0,0,0c0,0,0,0,0,0c0,0,0,0,0,0c0,0,0,0,0,0
					c0,0,0,0,0,0c0,0,0,0,0,0c0,0,0,0,0,0c0,0,0,0,0,0c0,0,0,0,0,0c0,0,0,0,0,0c-1.6-0.1-2.9,0.4-4,1.2c-0.6,0-1.1,0.1-1.6,0.1
					c0.4-0.5,0.7-1.1,0.9-1.9c0,0,0,0,0,0c0,0,0,0,0,0c0,0,0,0,0,0c0,0,0,0,0,0c0,0,0,0,0,0c0,0,0,0,0,0c0,0,0,0,0,0c0,0,0,0,0,0
					c0,0,0,0,0,0c0,0,0,0,0,0c0,0,0,0,0,0c0,0,0,0,0,0c0,0,0,0,0,0c0,0,0,0,0,0c0,0,0,0,0,0c0,0,0,0,0,0c0,0,0,0,0,0c0,0,0,0,0,0
					c0,0,0,0,0,0c0,0,0,0,0,0c0,0,0,0,0,0c0,0,0,0,0,0l0,0c0,0,0,0,0,0c-0.8,1.1-2.3,1.6-3.7,2c-0.5,0.1-1,0.3-1.4,0.5
					c0.6-1,1-2.2,1.4-3.4c0.7-2,1.4-4.1,3.3-5.1c0,0,0,0,0,0c0,0,0,0,0,0c0,0,0,0,0,0c0,0,0,0,0,0c0,0,0,0,0,0c0,0,0,0,0,0
					c0,0,0,0,0,0c0,0,0,0,0,0c0,0,0,0,0,0c0,0,0,0,0,0c0,0,0,0,0,0s0,0,0,0c0,0,0,0,0,0c0,0,0,0,0,0c0,0,0,0,0,0c0,0,0,0,0,0
					c0,0,0,0,0,0c0,0,0,0,0,0c0,0,0,0,0,0c0,0,0,0,0,0c0,0,0,0,0,0c0,0,0,0,0,0c0,0,0,0,0,0c0,0,0,0,0,0c0,0,0,0,0,0c0,0,0,0,0,0
					c0,0,0,0,0,0c0,0,0,0,0,0c0,0,0,0,0,0c0,0,0,0,0,0c0,0,0,0,0,0c0,0,0,0,0,0c0,0,0,0,0,0c0,0,0,0,0,0c-2.5,0.7-3.6,2.6-4.6,4.5
					c-0.9,1.5-1.7,3-3.3,3.9c0.2-1.2,0.8-2.1,1.4-3c0.8-1.2,1.7-2.5,1.5-4.4c0,0,0,0,0,0c0,0,0,0,0,0c0,0,0,0,0,0c0,0,0,0,0,0
					c0,0,0,0,0,0c0,0,0,0,0,0c0,0,0,0,0,0c0,0,0,0,0,0c0,0,0,0,0,0c0,0,0,0,0,0c0,0,0,0,0,0c0,0,0,0,0,0c0,0,0,0,0,0c0,0,0,0,0,0
					c0,0,0,0,0,0c0,0,0,0,0,0c0,0,0,0,0,0c0,0,0,0,0,0c0,0,0,0,0,0c0,0,0,0,0,0c0,0,0,0,0,0c0,0,0,0,0,0c0,0,0,0,0,0c0,0,0,0,0,0
					c0,0,0,0,0,0c0,0,0,0,0,0c0,0,0,0,0,0c0,0,0,0,0,0c0,0,0,0,0,0c0,0,0,0,0,0c0,0,0,0,0,0c0,0,0,0,0,0c0,0,0,0,0,0c0,0,0,0,0,0
					c-0.4,1.4-1.6,2.3-2.7,3.2c-0.4,0.3-0.8,0.6-1.2,0.9c0.2-1.1,0.2-2.3,0.2-3.5c0-2.1-0.1-4.3,1.3-5.9c0,0,0,0,0,0c0,0,0,0,0,0
					c0,0,0,0,0,0c0,0,0,0,0,0c0,0,0,0,0,0c0,0,0,0,0,0c0,0,0,0,0,0c0,0,0,0,0,0c0,0,0,0,0,0c0,0,0,0,0,0c0,0,0,0,0,0c0,0,0,0,0,0
					c0,0,0,0,0,0c0,0,0,0,0,0c0,0,0,0,0,0c0,0,0,0,0,0c0,0,0,0,0,0c0,0,0,0,0,0c0,0,0,0,0,0c0,0,0,0,0,0c0,0,0,0,0,0c0,0,0,0,0,0
					c0,0,0,0,0,0c0,0,0,0,0,0c0,0,0,0,0,0c0,0,0,0,0,0c0,0,0,0,0,0c0,0,0,0,0,0c0,0,0,0,0,0c0,0,0,0,0,0c0,0,0,0,0,0c0,0,0,0,0,0
					c0,0,0,0,0,0c0,0,0,0,0,0c-2.1,1.5-2.5,3.7-2.8,5.8c-0.3,1.7-0.6,3.5-2,5c-0.3-1.2,0-2.4,0.3-3.5c0.4-1.5,0.7-3-0.1-4.6
					c0,0,0,0,0,0c0,0,0,0,0,0c0,0,0,0,0,0c0,0,0,0,0,0c0,0,0,0-0.1,0c0,0,0,0,0,0c0,0,0,0,0,0c0,0,0,0,0,0c0,0,0,0,0,0c0,0,0,0,0,0
					c0,0,0,0,0,0c0,0,0,0,0,0c0,0,0,0,0,0c0,0,0,0,0,0c0,0,0,0,0,0c0,0,0,0,0,0c0,0,0,0,0,0c0,0,0,0,0,0c0,0,0,0,0,0
					C34.7,5.7,33.8,7,33,8.3c-0.6,0.9-1.2,1.8-1.4,2.8c-0.4-1.5-0.2-3.1,0.1-4.6C32.1,4.3,32.4,2.2,31,0c0,0,0,0,0,0c0,0,0,0,0,0
					c0,0,0,0,0,0c0,0,0,0,0,0c0,0,0,0,0,0c0,0,0,0,0,0c0,0,0,0,0,0c0,0,0,0,0,0c0,0,0,0,0,0c0,0,0,0,0,0c0,0,0,0,0,0c0,0,0,0,0,0
					c0,0,0,0,0,0c0,0,0,0,0,0c0,0,0,0,0,0c0,0,0,0,0,0c0,0,0,0,0,0c0,0,0,0,0,0c0,0,0,0,0,0c0,0,0,0,0,0c0,0,0,0,0,0c0,0,0,0,0,0
					c0,0,0,0,0,0c0,0,0,0,0,0c0,0,0,0,0,0c0,0,0,0,0,0c0,0,0,0,0,0c0,0,0,0,0,0c0,0,0,0,0,0c0,0,0,0,0,0c0,0,0,0,0,0c0,0,0,0,0,0
					c0,0,0,0,0,0c0,0,0,0,0,0c0.8,2,0,4-0.8,6c-0.4,1.1-0.9,2.3-1,3.5c-0.2-0.4-0.5-0.9-0.8-1.3c-0.8-1.2-1.6-2.5-1.5-3.9
					c0,0,0,0,0,0c0,0,0,0,0,0c0,0,0,0,0,0c0,0,0,0,0,0c0,0,0,0,0,0c0,0,0,0,0,0c0,0,0,0,0,0c0,0,0,0,0,0c0,0,0,0,0,0c0,0,0,0,0,0
					c0,0,0,0,0,0c0,0,0,0,0,0c0,0,0,0,0,0c0,0,0,0,0,0c0,0-0.1,0-0.1,0c0,0,0,0,0,0c0,0,0,0,0,0C25.9,6,26.2,7.5,26.6,9
					c0.3,1.1,0.6,2.3,0.3,3.5c-1.3-1.4-1.6-3.2-2-5c-0.4-2.1-0.8-4.3-2.8-5.8c0,0,0,0,0,0c0,0,0,0,0,0c0,0,0,0,0,0c0,0,0,0,0,0
					c0,0,0,0,0,0c0,0,0,0,0,0c0,0,0,0,0,0c0,0,0,0,0,0c0,0,0,0,0,0c0,0,0,0,0,0c0,0,0,0,0,0c0,0,0,0,0,0c0,0,0,0,0,0c0,0,0,0,0,0
					c0,0,0,0,0,0c0,0,0,0,0,0c0,0,0,0,0,0c0,0,0,0,0,0c0,0,0,0,0,0c0,0,0,0,0,0c0,0,0,0,0,0c0,0,0,0,0,0c0,0,0,0,0,0c0,0,0,0,0,0
					c0,0,0,0,0,0c0,0,0,0,0,0c0,0,0,0,0,0c0,0,0,0,0,0c0,0,0,0,0,0c0,0,0,0,0,0c0,0,0,0,0,0c0,0,0,0,0,0c0,0,0,0,0,0c0,0,0,0,0,0
					c1.4,1.6,1.3,3.8,1.3,5.9c0,1.2,0,2.3,0.2,3.5c-0.4-0.3-0.8-0.6-1.2-0.9c-1.2-0.9-2.4-1.8-2.7-3.2c0,0,0,0,0,0c0,0,0,0,0,0
					c0,0,0,0,0,0c0,0,0,0,0,0c0,0,0,0,0,0c0,0,0,0,0,0c0,0,0,0,0,0c0,0,0,0,0,0c0,0,0,0,0,0c0,0,0,0,0,0c0,0,0,0,0,0c0,0,0,0,0,0
					c0,0,0,0,0,0c0,0,0,0,0,0c0,0,0,0,0,0c0,0,0,0,0,0c0,0,0,0,0,0c0,0,0,0,0,0c0,0,0,0,0,0c0,0,0,0,0,0c0,0,0,0,0,0c0,0,0,0,0,0
					c0,0,0,0,0,0c0,0,0,0,0,0c0,0,0,0,0,0c0,0,0,0,0,0c0,0,0,0,0,0c0,0,0,0,0,0c0,0,0,0,0,0c0,0,0,0,0,0c0,0,0,0,0,0c0,0,0,0,0,0
					c-0.2,1.9,0.7,3.2,1.5,4.4c0.6,0.8,1.1,1.7,1.4,2.8c-0.1,0-0.3,0-0.4,0c-1.3-0.9-2.1-2.3-2.8-3.6c-1.1-1.8-2.2-3.7-4.6-4.5
					c0,0,0,0,0,0c0,0,0,0,0,0c0,0,0,0,0,0c0,0,0,0,0,0c0,0,0,0,0,0c0,0,0,0,0,0c0,0,0,0,0,0c0,0,0,0,0,0c0,0,0,0,0,0c0,0,0,0,0,0
					c0,0,0,0,0,0c0,0,0,0,0,0c0,0,0,0,0,0c0,0,0,0,0,0c0,0,0,0,0,0c0,0,0,0,0,0c0,0,0,0,0,0c0,0,0,0,0,0c0,0,0,0,0,0c0,0,0,0,0,0
					c0,0,0,0,0,0c0,0,0,0,0,0c0,0,0,0,0,0c0,0,0,0,0,0c0,0,0,0,0,0c0,0,0,0,0,0c0,0,0,0,0,0c0,0,0,0,0,0c0,0,0,0,0,0c0,0,0,0,0,0
					c0,0,0,0,0,0c0,0,0,0,0,0c0,0,0,0,0,0c0,0,0,0,0,0c1.9,1.1,2.6,3.1,3.3,5.1c0.4,1.2,0.8,2.3,1.4,3.4c-0.5-0.2-0.9-0.3-1.4-0.5
					c-1.4-0.4-2.8-0.9-3.7-2c0,0,0,0,0,0c0,0,0,0,0,0c0,0,0,0,0,0c0,0,0,0,0,0c0,0,0,0,0,0c0,0,0,0,0,0c0,0,0,0,0,0c0,0,0,0,0,0
					c0,0,0,0,0,0c0,0,0,0,0,0c0,0,0,0,0,0c0,0,0,0,0,0c0,0,0,0,0,0c0,0,0,0,0,0c0,0,0,0,0,0c0,0,0,0,0,0c0,0,0,0,0,0c0,0,0,0,0,0
					c0,0,0,0,0,0c0,0,0,0,0,0c0,0,0,0,0,0c0,0,0,0,0,0c0,0,0,0,0,0c0,0,0,0,0,0c0.5,1.8,1.7,2.7,2.9,3.6c0.8,0.6,1.6,1.1,2.1,1.9
					c-1.5-0.4-2.7-1.4-3.9-2.4c-1.6-1.4-3.3-2.8-5.9-2.6c0,0,0,0,0,0c0,0,0,0,0,0c0,0,0,0,0,0c0,0,0,0,0,0c0,0,0,0,0,0c0,0,0,0,0,0
					c0,0,0,0,0,0c0,0,0,0,0,0c0,0,0,0,0,0c0,0,0,0,0,0c0,0,0,0,0,0c0,0,0,0,0,0c0,0,0,0,0,0c0,0,0,0,0,0c0,0,0,0,0,0c0,0,0,0,0,0
					c0,0,0,0,0,0c0,0,0,0,0,0c0,0,0,0,0,0c0,0,0,0,0,0c0,0,0,0,0,0c0,0,0,0,0,0c0,0,0,0,0,0c0,0,0,0,0,0c0,0,0,0,0,0c0,0,0,0,0,0
					c0,0,0,0,0,0c0,0,0,0,0,0c0,0,0,0,0,0c0,0,0,0,0,0c0,0,0,0,0,0c0,0,0,0,0,0c0,0,0,0,0,0c0,0,0,0,0,0c2.1,0.4,3.5,2.1,4.8,3.7
					c0.7,0.9,1.5,1.8,2.3,2.5c-0.5,0-0.9,0-1.4,0c-1.5,0.1-3,0.1-4.1-0.7c0,0,0,0,0,0l0,0c0,0,0,0,0,0c0,0,0,0,0,0c0,0,0,0,0,0
					c0,0,0,0,0,0c0,0,0,0,0,0c0,0,0,0,0,0c0,0,0,0,0,0c0,0,0,0,0,0c0,0,0,0,0,0c0,0,0,0,0,0c0,0,0,0,0,0c0,0,0,0,0,0c0,0,0,0,0,0
					c0,0,0,0,0,0c0,0,0,0,0,0c0,0,0,0,0,0c0,0,0,0,0,0c0,0,0,0,0,0c0,0,0,0,0,0c0,0,0,0,0,0c0,0,0,0,0,0c0,0,0,0,0,0c0,0,0,0,0,0
					c0,0,0,0,0,0c0,0,0,0,0,0c0,0,0,0,0,0c1.1,1.6,2.5,2,4,2.4c1,0.3,2,0.6,2.9,1.3c-1.7,0.2-3.3-0.3-4.8-0.9
					c-2-0.7-4.1-1.5-6.4-0.4c0,0,0,0,0,0c0,0,0,0,0,0c0,0,0,0,0,0c0,0,0,0,0,0c0,0,0,0,0,0c0,0,0,0,0,0c0,0,0,0,0,0c0,0,0,0,0,0
					c0,0,0,0,0,0c0,0,0,0,0,0c0,0,0,0,0,0c0,0,0,0,0,0c0,0,0,0,0,0c0,0,0,0,0,0c0,0,0,0,0,0c0,0,0,0,0,0c0,0,0,0,0,0c0,0,0,0,0,0
					c0,0,0,0,0,0c0,0,0,0,0,0c0,0,0,0,0,0c0,0,0,0,0,0c0,0,0,0,0,0c0,0,0,0,0,0c0,0,0,0,0,0c0,0,0,0,0,0c0,0,0,0,0,0c0,0,0,0,0,0
					c0,0,0,0,0,0c0,0,0,0,0,0c0,0,0,0,0,0c0,0,0,0,0,0c0,0,0,0,0,0c0,0,0,0,0,0c2.1-0.4,4,0.7,5.8,1.8c1.2,0.7,2.5,1.5,3.8,1.8
					c-0.7,0.2-1.4,0.6-2.1,1c-1.3,0.7-2.6,1.4-4,1.2c0,0,0,0,0,0c0,0,0,0,0,0c0,0,0,0,0,0c0,0,0,0,0,0c0,0,0,0,0,0c0,0,0,0,0,0
					c0,0,0,0,0,0c0,0,0,0,0,0v0c0,0,0,0,0,0c0,0,0,0,0,0c0,0,0,0,0,0c0,0,0,0,0,0c0,0,0,0,0,0c0,0,0,0,0,0c0,0,0,0,0,0c0,0,0,0,0,0
					c0,0,0,0,0,0c0,0,0,0,0,0c0,0,0,0,0,0c0,0,0,0,0,0c0,0,0,0,0,0c1.6,1,3.1,0.7,4.6,0.5c0.2,0,0.4-0.1,0.6-0.1c0,0,0,0,0,0l0.2,0
					c1.3-0.6,2.6-1.2,3.9-1.7C19,25.4,18.9,25.1,18.9,24.8 M49.3,14c0.1,0,0.1-0.1,0.2-0.1c0,0,0,0,0,0c0,0,0.1-0.1,0.1-0.1
					c0,0,0,0,0,0c0.1,0,0.1-0.1,0.2-0.1c0,0,0,0,0,0c0,0,0.1-0.1,0.1-0.1c0,0,0,0,0,0c0.1,0,0.1-0.1,0.2-0.1c0,0,0,0,0,0
					c0,0,0.1,0,0.1-0.1c0,0,0,0,0,0c0.1,0,0.1,0,0.2-0.1c0,0,0,0,0,0c0,0,0.1,0,0.1-0.1c0,0,0,0,0,0c0.1,0,0.1,0,0.2-0.1
					c0,0,0,0,0,0c0,0,0.1,0,0.1,0c0,0,0,0,0,0c0,0,0.1,0,0.1,0c-0.6,0.2-1.1,0.5-1.5,0.9c-0.1,0-0.2,0-0.3,0
					C49.4,14,49.4,14,49.3,14C49.3,14,49.3,14,49.3,14 M45.7,14.3C45.7,14.3,45.7,14.3,45.7,14.3c0.1,0,0.1-0.1,0.1-0.1c0,0,0,0,0,0
					c0,0,0.1,0,0.1-0.1c0,0,0,0,0,0c0,0,0,0,0.1,0c0,0,0,0,0,0c0,0,0,0,0.1,0c0,0,0,0,0,0c0,0,0,0,0.1-0.1c0,0,0,0,0,0
					c0,0,0,0,0.1-0.1c0,0,0,0,0,0c0.1-0.1,0.1-0.1,0.2-0.2c0,0,0,0,0,0c0,0,0,0,0.1-0.1c0,0,0,0,0,0c0,0,0,0,0.1-0.1c0,0,0,0,0,0
					c0,0,0,0,0.1-0.1c0,0,0,0,0,0c0,0,0,0,0.1-0.1c0,0,0,0,0,0c0,0,0,0,0.1-0.1c0,0,0,0,0,0c0,0,0.1-0.1,0.1-0.1c0,0,0,0,0,0
					c0,0,0-0.1,0.1-0.1c-0.2,0.5-0.5,1-0.8,1.3C46.2,14.2,45.9,14.2,45.7,14.3C45.7,14.3,45.7,14.3,45.7,14.3 M39.3,15.8
					C39.4,15.7,39.4,15.7,39.3,15.8c0.1-0.1,0.2-0.1,0.2-0.1c0,0,0.1,0,0.1,0c0,0,0.1,0,0.1-0.1c0,0,0.1,0,0.1-0.1
					c0,0,0.1,0,0.1-0.1c0,0,0.1,0,0.1-0.1c0,0,0.1,0,0.1-0.1c0,0,0.1,0,0.1-0.1c0,0,0.1,0,0.1-0.1c0,0,0.1,0,0.1-0.1
					c0,0,0.1,0,0.1-0.1c0,0,0.1,0,0.1-0.1c0,0,0.1,0,0.1-0.1c0,0,0,0,0.1-0.1c0,0,0,0,0.1-0.1c0,0,0,0,0.1-0.1c0,0,0,0,0.1-0.1
					c0,0,0,0,0.1-0.1c0,0,0,0,0.1-0.1c0,0,0,0,0.1-0.1c0,0,0,0,0.1-0.1c0,0,0,0,0.1-0.1c0,0,0,0,0.1-0.1c0,0,0,0,0.1-0.1
					c0,0,0-0.1,0.1-0.1c0,0,0-0.1,0.1-0.1c0,0,0-0.1,0.1-0.1c0,0,0-0.1,0.1-0.1c0,0,0-0.1,0.1-0.1c0,0,0-0.1,0.1-0.1
					c0,0,0-0.1,0.1-0.1c0,0,0-0.1,0.1-0.1c0,0,0-0.1,0.1-0.1c0,0,0-0.1,0.1-0.1c0,0,0-0.1,0.1-0.1c0,0,0-0.1,0.1-0.1
					c0,0,0-0.1,0.1-0.1c0,0,0-0.1,0-0.1c0,0,0-0.1,0.1-0.1c0,0,0-0.1,0-0.1c0,0,0-0.1,0-0.1c0,0,0-0.1,0-0.1c0,0,0-0.1,0-0.1
					c0,0,0-0.1,0-0.1c0,0,0-0.1,0-0.1c0,0,0-0.1,0-0.1c0,0,0-0.1,0-0.1c0,0,0-0.1,0-0.1c0,0,0-0.1,0-0.1c0,0,0-0.1,0-0.1
					c0,0,0-0.1,0-0.1c0,0,0-0.1,0-0.1c0,0,0-0.1,0-0.1c0,0,0-0.1,0-0.1c0,0,0-0.1,0-0.1c0,0,0-0.1,0-0.1c0,0,0-0.1,0-0.1
					c0,0,0-0.1,0.1-0.1c0,0,0,0,0-0.1c0-0.1,0.1-0.1,0.1-0.2c0.4-1,0.9-1.9,1.5-2.8c0-0.1,0.1-0.1,0.1-0.2c0,0,0,0,0,0
					c0,0,0.1-0.1,0.1-0.1c0,0,0,0,0,0c0,0,0.1-0.1,0.1-0.1c0,0,0,0,0,0c0,0,0.1-0.1,0.1-0.1c0,0,0,0,0,0c0,0,0.1-0.1,0.1-0.1
					c0,0,0,0,0,0c0,0,0.1-0.1,0.1-0.1c0,0,0,0,0,0c0,0,0.1-0.1,0.1-0.1c0,0,0,0,0,0c0,0,0.1-0.1,0.1-0.1c0,0,0,0,0,0
					c0,0,0.1-0.1,0.1-0.1c0,0,0,0,0,0c0,0,0.1-0.1,0.1-0.1c0,0,0,0,0,0c0,0,0.1-0.1,0.1-0.1c-1.3,1.2-1.9,2.9-2.5,4.6
					c-0.4,1.1-0.7,2.1-1.3,3.1c-0.1,0.1-0.2,0.3-0.3,0.4c-0.2,0.1-0.4,0.2-0.6,0.3C40.8,15.3,40.1,15.6,39.3,15.8
					C39.3,15.8,39.3,15.8,39.3,15.8C39.3,15.8,39.3,15.8,39.3,15.8 M37.9,13.2C37.9,13.2,37.9,13.2,37.9,13.2c0-0.1,0-0.1,0.1-0.1
					c0,0,0,0,0-0.1c0,0,0,0,0-0.1c0,0,0,0,0-0.1c0,0,0,0,0-0.1c0,0,0,0,0-0.1c0,0,0,0,0-0.1c0,0,0,0,0-0.1c0,0,0,0,0-0.1
					c0,0,0,0,0-0.1c0,0,0,0,0,0c0,0,0,0,0-0.1c0,0,0,0,0,0c0,0,0,0,0-0.1c0,0,0,0,0,0c0,0,0,0,0-0.1c0,0,0,0,0,0c0,0,0,0,0-0.1
					c0,0,0,0,0,0c0,0,0,0,0-0.1c0,0,0,0,0,0c0,0,0,0,0.1-0.1c0,0,0,0,0,0c0,0,0,0,0.1-0.1c0,0,0,0,0,0c0,0,0,0,0.1-0.1c0,0,0,0,0,0
					c0,0,0,0,0.1-0.1c0,0,0,0,0,0c0,0,0,0,0.1-0.1c0,0,0,0,0,0c0,0,0,0,0.1-0.1c0,0,0,0,0,0c0,0,0,0,0.1-0.1c0,0,0,0,0,0
					c0,0,0,0,0.1-0.1c0,0,0,0,0,0c0,0,0,0,0.1-0.1c0,0,0,0,0,0c0,0,0-0.1,0.1-0.1c0,0,0,0,0,0c0,0,0.1-0.1,0.1-0.1
					c0,0,0.1-0.1,0.1-0.1c0,0,0,0,0,0c0,0,0,0,0.1-0.1c0,0,0,0,0,0c0,0,0,0,0.1-0.1c0,0,0,0,0,0c0,0,0,0,0.1-0.1c0,0,0,0,0,0
					c0,0,0,0,0.1-0.1c0,0,0,0,0,0c0,0,0-0.1,0.1-0.1c0,0,0,0,0,0c0,0,0.1-0.1,0.1-0.1c0,0,0,0,0,0c0,0,0.1-0.1,0.1-0.1c0,0,0,0,0,0
					c0,0,0,0,0.1-0.1c0,0,0,0,0,0c0,0,0,0,0.1-0.1c0,0,0,0,0,0c0,0,0,0,0.1-0.1c0,0,0,0,0,0c0,0,0,0,0.1-0.1c0,0,0,0,0,0
					c0,0,0-0.1,0.1-0.1c0,0,0,0,0,0c0,0,0.1-0.1,0.1-0.1c0,0,0,0,0,0c0,0,0-0.1,0.1-0.1c0,0,0,0,0,0c0,0,0,0,0.1-0.1c0,0,0,0,0,0
					c0,0,0,0,0-0.1c0,0,0,0,0,0c0,0,0,0,0-0.1c0,0,0,0,0,0c0,0,0-0.1,0-0.1c0,0,0,0,0,0c0-0.1,0.1-0.2,0.1-0.2c0,0,0,0,0,0
					c0,0,0-0.1,0-0.1c0,0,0,0,0,0c0,0,0-0.1,0-0.1c0,0,0,0,0,0c0,0,0-0.1,0-0.1c0,0,0,0,0,0c0,0,0-0.1,0-0.1c0,0,0,0,0,0
					c0,0,0-0.1,0-0.1c0,0,0,0,0,0c0,0,0-0.1,0-0.1c0,0,0,0,0,0c0,0,0-0.1,0-0.1c0,1.5-0.8,2.6-1.5,3.7c-0.6,0.9-1.3,1.9-1.5,3.2
					c-0.2,0.1-0.4,0.2-0.6,0.3c-0.2-0.2-0.5-0.3-0.7-0.5c0,0,0,0,0,0c0,0,0,0,0-0.1c0,0,0,0,0-0.1c0,0,0,0,0-0.1c0,0,0,0,0-0.1
					c0,0,0,0,0-0.1c0,0,0,0,0-0.1c0,0,0,0,0-0.1c0,0,0,0,0-0.1c0,0,0,0,0-0.1c0,0,0,0,0-0.1c0,0,0,0,0-0.1c0,0,0,0,0-0.1
					c0,0,0,0,0-0.1c0,0,0,0,0-0.1c0,0,0,0,0-0.1C37.8,13.3,37.9,13.3,37.9,13.2C37.9,13.3,37.9,13.2,37.9,13.2 M35.5,13.2
					C35.5,13.2,35.5,13.2,35.5,13.2C35.5,13.2,35.6,13.1,35.5,13.2c0.1-0.1,0.1-0.1,0.1-0.1c0,0,0,0,0,0c0,0,0,0,0,0c0,0,0,0,0,0
					c0,0,0,0,0,0c0,0,0,0,0,0c0,0,0,0,0,0c0,0,0,0,0,0c0,0,0,0,0,0c0,0,0,0,0,0c0,0,0,0,0,0c0,0,0,0,0,0c0,0,0,0,0,0c0,0,0,0,0,0
					c0,0,0,0,0,0c0,0,0,0,0,0c0,0,0,0,0,0c0,0,0,0,0,0c0,0,0,0,0,0c0,0,0,0,0,0c0,0,0,0,0,0c0,0,0,0,0,0c0,0,0,0,0,0c0,0,0,0,0,0
					c0,0,0,0,0,0c0,0,0,0,0,0c0,0,0,0,0,0c0,0,0,0,0,0c0,0,0,0,0,0c0,0,0,0,0,0c0,0,0,0,0,0c0,0,0,0,0,0c0,0,0,0,0,0c0,0,0,0,0,0
					c0,0,0,0,0,0c0,0,0,0,0,0c0,0,0,0,0,0c0,0,0,0,0,0c0,0,0,0,0,0c0,0,0,0,0,0c0,0,0,0,0,0c0,0,0,0,0,0c0,0,0,0,0,0c0,0,0,0,0,0
					c0,0,0,0,0,0c0,0,0,0,0,0c0,0,0,0,0,0c0,0,0,0,0,0c0,0,0,0,0,0c0,0,0,0,0,0c0,0,0,0,0,0c0,0,0,0,0,0c0,0,0,0,0,0c0,0,0,0,0,0
					c0,0,0,0,0-0.1c0,0,0,0,0,0c0,0,0,0,0-0.1c0,0,0,0,0,0c0,0,0,0,0-0.1c0,0,0,0,0,0c0,0,0,0,0-0.1c0,0,0,0,0,0c0,0,0,0,0-0.1
					c0,0,0,0,0,0c0,0,0,0,0-0.1c0,0,0,0,0,0c0,0,0,0,0-0.1c0,0,0,0,0,0c0,0,0,0,0-0.1c0,0,0,0,0,0c0,0,0,0,0-0.1c0,0,0,0,0,0
					c0,0,0,0,0-0.1c0,0,0,0,0,0c0,0,0,0,0-0.1c0,0,0,0,0,0c0,0,0,0,0-0.1c0,0,0,0,0,0c0,0,0,0,0-0.1c0,0,0,0,0,0c0,0,0,0,0-0.1
					c0,0,0,0,0,0c0,0,0,0,0-0.1c0,0,0,0,0,0c0,0,0,0,0-0.1c0,0,0,0,0,0c0,0,0,0,0-0.1c0,0,0,0,0,0c0,0,0,0,0-0.1c0,0,0,0,0,0
					c0,0,0,0,0-0.1c0,0,0,0,0,0c0,0,0,0,0-0.1c0,0,0,0,0,0c0,0,0,0,0-0.1c0,0,0,0,0,0c0,0,0,0,0-0.1c0,0,0,0,0,0c0,0,0,0,0-0.1
					c0,0,0,0,0,0c0,0,0,0,0-0.1c0,0,0,0,0,0c0,0,0,0,0-0.1c0,0,0,0,0,0c0,0,0,0,0-0.1c0,0,0,0,0,0c0,0,0,0,0-0.1c0,0,0,0,0,0
					c0,0,0,0,0-0.1c0,0,0,0,0,0c0,0,0,0,0-0.1c0,0,0,0,0,0c0,0,0,0,0-0.1c0,0,0,0,0,0c0-0.1,0-0.2,0-0.3c0.1-1,0.2-2.1,0.5-3.1
					c0-0.1,0-0.1,0.1-0.2c0,0,0,0,0,0c0-0.1,0-0.1,0.1-0.2c0,0,0,0,0,0c0-0.1,0-0.1,0.1-0.2c0,0,0,0,0,0c0,0,0-0.1,0.1-0.1
					c0,0,0,0,0,0c0-0.1,0-0.1,0.1-0.2c0,0,0,0,0,0c0,0,0-0.1,0.1-0.1c0,0,0,0,0,0c0-0.1,0.1-0.1,0.1-0.2c0,0,0,0,0,0
					c0,0,0-0.1,0.1-0.1c0,0,0,0,0,0c0,0,0.1-0.1,0.1-0.1c0,0,0,0,0,0c0,0,0.1-0.1,0.1-0.1c0,0,0,0,0,0c0,0,0.1-0.1,0.1-0.1
					c-0.8,1.5-0.8,3.4-0.8,5.2c0,1.1,0,2.3-0.1,3.3c0,0.1,0,0.2-0.1,0.3c-0.7,0.6-1.3,1.3-1.5,2.3C36,13.5,35.7,13.3,35.5,13.2
					C35.5,13.2,35.5,13.2,35.5,13.2 M33,11.7C33,11.7,33,11.7,33,11.7c0-0.1,0-0.1,0-0.1c0,0,0,0,0-0.1c0,0,0,0,0-0.1c0,0,0,0,0-0.1
					c0,0,0,0,0-0.1c0,0,0,0,0-0.1c0,0,0,0,0-0.1c0,0,0,0,0-0.1c0,0,0,0,0-0.1c0,0,0,0,0-0.1c0,0,0,0,0-0.1c0,0,0,0,0-0.1
					c0,0,0,0,0-0.1c0,0,0,0,0-0.1c0,0,0,0,0-0.1c0,0,0,0,0-0.1c0,0,0,0,0-0.1c0,0,0,0,0-0.1c0,0,0,0,0-0.1c0,0,0,0,0-0.1
					c0,0,0,0,0-0.1c0,0,0,0,0-0.1c0,0,0,0,0-0.1c0,0,0,0,0-0.1c0,0,0,0,0-0.1c0,0,0,0,0-0.1c0,0,0,0,0-0.1c0,0,0,0,0-0.1
					c0,0,0,0,0-0.1c0,0,0,0,0-0.1c0,0,0,0,0-0.1c0,0,0,0,0-0.1c0,0,0,0,0-0.1c0,0,0,0,0-0.1c0,0,0,0,0-0.1c0,0,0,0,0-0.1
					c0,0,0,0,0-0.1c0,0,0,0,0-0.1c0,0,0,0,0-0.1c0,0,0,0,0-0.1c0,0,0,0,0-0.1c0,0,0,0,0-0.1c0,0,0,0,0-0.1c0,0,0,0,0-0.1
					c0,0,0,0,0-0.1c0,0,0-0.1,0.1-0.1c0,0,0-0.1,0.1-0.1c0,0,0,0,0,0c0,0,0-0.1,0-0.1c0,0,0,0,0,0c0,0,0,0,0-0.1c0,0,0,0,0,0
					c0,0,0,0,0-0.1c0,0,0,0,0,0c0,0,0,0,0-0.1c0,0,0,0,0,0c0,0,0-0.1,0-0.1c0,0,0,0,0,0c0,0,0-0.1,0-0.1c0,0,0,0,0,0
					c0,0,0-0.1,0-0.1c0,0,0,0,0,0c0,0,0-0.1,0-0.1c0,0,0,0,0,0c0,0,0-0.1,0-0.1c0,0,0,0,0,0c0,0,0-0.1,0-0.1c0,0,0,0,0,0
					c0,0,0-0.1,0-0.1c0,0,0,0,0,0c0,0,0-0.1,0-0.1c0,0,0,0,0,0c0,0,0-0.1,0-0.1c0,0,0,0,0,0c0,0,0-0.1,0-0.1c0,0,0,0,0,0
					c0,0,0-0.1,0-0.1c0,0,0,0,0,0c0,0,0-0.1,0-0.1c0,0,0,0,0,0c0,0,0-0.1,0-0.1c0,0,0,0,0,0c0,0,0-0.1,0-0.1c0,0,0,0,0,0
					c0-0.1,0-0.2,0-0.3c0,0,0,0,0,0c0,0,0-0.1,0-0.1c0,0,0,0,0,0c0,0,0-0.1,0-0.1c0,0,0,0,0-0.1c0,0,0-0.1,0-0.1c0,0,0,0,0-0.1
					c0,0,0-0.1,0-0.1c0,0,0,0,0,0c0,0,0-0.1,0-0.1c0,0,0,0,0,0c0,0,0-0.1,0-0.1c0,0,0,0,0,0c0,0,0-0.1,0-0.1c0.5,1.4,0.2,2.7-0.1,4
					c-0.3,1.2-0.6,2.3-0.3,3.6c-0.1,0.1-0.2,0.2-0.2,0.2c-0.4-0.1-0.7-0.2-1.1-0.3c0,0,0,0,0,0c0,0,0,0,0-0.1c0,0,0,0,0-0.1
					c0,0,0,0,0-0.1c0,0,0,0,0-0.1c0,0,0,0,0-0.1c0,0,0,0,0-0.1c0,0,0,0,0-0.1c0,0,0,0,0-0.1c0,0,0,0,0-0.1C33,11.8,33,11.8,33,11.7
					C33,11.8,33,11.7,33,11.7 M29.3,9.3c0.2-1.1,0.6-2.1,1-3.2c0.6-1.7,1.3-3.4,1-5.1c0,0,0,0.1,0,0.1c0,0,0,0,0,0c0,0,0,0.1,0,0.1
					c0,0,0,0,0,0c0,0.1,0,0.1,0,0.2c0,0,0,0,0,0c0,0,0,0.1,0,0.1c0,0,0,0,0,0c0,0.1,0,0.1,0,0.2c0,0,0,0,0,0c0,0,0,0.1,0,0.1
					c0,0,0,0,0,0c0,0.1,0,0.1,0,0.2c0,0,0,0,0,0c0,0.1,0,0.1,0,0.2c0,0,0,0,0,0c0,0.1,0,0.1,0,0.2c0,0,0,0,0,0c0,0.1,0,0.1,0,0.2
					c0,0,0,0,0,0c0,0.1,0,0.1,0,0.2c-0.1,1-0.4,2.1-0.6,3.1c0,0.1-0.1,0.2-0.1,0.3c0,0,0,0,0,0c0,0,0,0,0,0.1c0,0,0,0,0,0
					c0,0,0,0,0,0.1c0,0,0,0,0,0c0,0,0,0,0,0.1c0,0,0,0,0,0c0,0,0,0,0,0.1c0,0,0,0,0,0c0,0,0,0,0,0.1c0,0,0,0,0,0c0,0,0,0,0,0.1
					c0,0,0,0,0,0c0,0,0,0,0,0.1c0,0,0,0,0,0c0,0,0,0,0,0.1c0,0,0,0,0,0c0,0,0,0,0,0.1c0,0,0,0,0,0c0,0,0,0,0,0.1c0,0,0,0,0,0
					c0,0,0,0,0,0.1c0,0,0,0,0,0c0,0,0,0,0,0c0,0,0,0,0,0c0,0,0,0,0,0c0,0,0,0,0,0c0,0,0,0,0,0c0,0,0,0,0,0c0,0,0,0,0,0c0,0,0,0,0,0
					c0,0,0,0,0,0c0,0,0,0,0,0c0,0,0,0,0,0c0,0,0,0,0,0c0,0,0,0,0,0c0,0,0,0,0,0c0,0,0,0,0,0c0,0,0,0,0,0c0,0,0,0,0,0c0,0,0,0,0,0.1
					c0,0,0,0,0,0c0,0,0,0,0,0.1c0,0,0,0,0,0c0,0,0,0,0,0.1c0,0,0,0,0,0c0,0,0,0,0,0.1c0,0,0,0,0,0c0,0,0,0,0,0.1c0,0,0,0,0,0
					c0,0,0,0,0,0.1c0,0,0,0,0,0c0,0,0,0,0,0.1c0,0,0,0,0,0c0,0,0,0,0,0.1c0,0,0,0,0,0c0,0,0,0,0,0.1c0,0,0,0,0,0c0,0,0,0,0,0.1
					c0,0,0,0,0,0c0,0,0,0,0,0.1c0,0,0,0,0,0c0,0,0,0,0,0.1c0,0,0,0,0,0c0,0,0,0,0,0.1c0,0,0,0,0,0c0,0,0,0,0,0.1c0,0,0,0,0,0
					c0,0,0,0,0,0.1c0,0,0,0,0,0c0,0,0,0,0,0.1c0,0,0,0,0,0c0,0,0,0,0,0.1c0,0,0,0,0,0c0,0,0,0,0,0.1c0,0,0,0,0,0c0,0,0,0,0,0.1
					c0,0,0,0,0,0c0,0,0,0,0,0.1c0,0,0,0,0,0c0,0,0,0,0,0.1c0,0,0,0,0,0c0,0,0,0,0,0.1c0,0,0,0,0,0c0,0,0,0,0,0.1c0,0,0,0,0,0
					c0,0,0,0,0,0.1c0,0,0,0,0,0c0,0,0,0,0,0.1c0,0,0,0,0,0c0,0,0,0,0,0.1c0,0,0,0,0,0c0,0,0,0,0,0.1c0,0,0,0,0,0c0,0,0,0,0,0.1
					c0,0,0,0,0,0c0,0,0,0,0,0.1c0,0,0,0,0,0c0,0,0,0,0,0c0,0,0,0,0,0c0,0,0,0,0,0c0,0,0,0,0,0c0,0,0,0,0,0c0,0,0,0,0,0c0,0,0,0,0,0
					c0,0,0,0,0,0.1c0,0,0,0,0,0c0,0,0,0,0,0.1c0,0,0,0,0,0c0,0,0,0,0,0.1c0,0,0,0,0,0c0,0,0,0,0,0.1c0,0,0,0,0,0c0,0,0,0,0,0.1
					c0,0,0,0,0,0c0,0,0,0,0,0.1c0,0,0,0,0,0c0,0,0,0,0,0c0,0-0.1,0-0.1,0c-0.3,0-0.6,0-0.8,0c0.1-0.9-0.2-1.7-0.6-2.5
					C29.2,9.6,29.2,9.5,29.3,9.3 M26.7,8.9c-0.3-1.3-0.6-2.6-0.1-4c0,0,0,0.1,0,0.1c0,0,0,0,0,0c0,0,0,0.1,0,0.1c0,0,0,0,0,0
					c0,0,0,0.1,0,0.1c0,0,0,0,0,0c0,0,0,0.1,0,0.1c0,0,0,0,0,0.1c0,0,0,0.1,0,0.1c0,0,0,0,0,0.1c0,0,0,0.1,0,0.1c0,0,0,0,0,0
					c0,0,0,0.1,0,0.1c0,0,0,0,0,0c0,0.1,0,0.2,0,0.3c0,0,0,0,0,0c0,0,0,0.1,0,0.1c0,0,0,0,0,0c0,0,0,0.1,0,0.1c0,0,0,0,0,0
					c0,0,0,0.1,0,0.1c0,0,0,0,0,0c0,0,0,0.1,0,0.1c0,0,0,0,0,0c0,0,0,0.1,0,0.1c0,0,0,0,0,0c0,0,0,0.1,0,0.1c0,0,0,0,0,0
					c0,0,0,0.1,0,0.1c0,0,0,0,0,0c0,0,0,0.1,0,0.1c0,0,0,0,0,0c0,0,0,0.1,0,0.1c0,0,0,0,0,0c0,0,0,0.1,0,0.1c0,0,0,0,0,0
					c0,0,0,0.1,0,0.1c0,0,0,0,0,0c0,0,0,0.1,0,0.1c0,0,0,0,0,0c0,0,0,0.1,0,0.1c0,0,0,0,0,0c0,0,0,0.1,0,0.1c0,0,0,0,0,0
					c0,0,0,0,0,0.1c0,0,0,0,0,0c0,0,0,0,0,0.1c0,0,0,0,0,0c0,0,0,0,0,0.1c0,0,0,0,0,0c0,0,0,0.1,0,0.1c0,0,0,0,0,0
					c0,0,0,0.1,0.1,0.1c0,0,0,0.1,0.1,0.1c0,0,0,0,0,0.1c0,0,0,0,0,0.1c0,0,0,0,0,0.1c0,0,0,0,0,0.1c0,0,0,0,0,0.1c0,0,0,0,0,0.1
					c0,0,0,0,0,0.1c0,0,0,0,0,0.1c0,0,0,0,0,0.1c0,0,0,0,0,0.1c0,0,0,0,0,0.1c0,0,0,0,0,0.1c0,0,0,0,0,0.1c0,0,0,0,0,0.1
					c0,0,0,0,0,0.1c0,0,0,0,0,0.1c0,0,0,0,0,0.1c0,0,0,0,0,0.1c0,0,0,0,0,0.1c0,0,0,0,0,0.1c0,0,0,0,0,0.1c0,0,0,0,0,0.1
					c0,0,0,0,0,0.1c0,0,0,0,0,0.1c0,0,0,0,0,0.1c0,0,0,0,0,0.1c0,0,0,0,0,0.1c0,0,0,0,0,0.1c0,0,0,0,0,0.1c0,0,0,0,0,0.1
					c0,0,0,0,0,0.1c0,0,0,0,0,0.1c0,0,0,0,0,0.1c0,0,0,0,0,0.1c0,0,0,0,0,0.1c0,0,0,0,0,0.1c0,0,0,0,0,0.1c0,0,0,0,0,0.1
					c0,0,0,0,0,0.1c0,0,0,0,0,0.1c0,0,0,0,0,0.1c0,0,0,0,0,0.1c0,0,0,0,0,0.1c0,0,0,0,0,0.1c0,0,0,0,0,0.1c0,0,0,0,0,0.1
					c0,0,0,0,0,0.1c0,0,0,0,0,0.1c0,0,0,0,0,0.1c0,0,0,0,0,0.1c0,0,0,0,0,0.1c0,0,0,0,0,0.1c0,0,0,0,0,0.1c0,0,0,0,0,0.1
					c0,0,0,0,0,0.1c0,0,0,0,0,0.1c0,0,0,0,0,0.1c0,0,0,0,0,0c-0.4,0.1-0.7,0.2-1.1,0.3c-0.1-0.1-0.2-0.1-0.2-0.2
					C27.3,11.3,27,10.1,26.7,8.9 M23.4,7.7c0-1.8,0.1-3.7-0.8-5.2c0,0,0.1,0.1,0.1,0.1c0,0,0,0,0,0c0,0,0.1,0.1,0.1,0.1c0,0,0,0,0,0
					c0,0,0.1,0.1,0.1,0.1c0,0,0,0,0,0c0,0,0,0.1,0.1,0.1c0,0,0,0,0,0c0,0.1,0.1,0.1,0.1,0.2c0,0,0,0,0,0c0,0,0,0.1,0.1,0.1
					c0,0,0,0,0,0c0,0.1,0,0.1,0.1,0.2c0,0,0,0,0,0c0,0,0,0.1,0.1,0.1c0,0,0,0,0,0c0,0.1,0,0.1,0.1,0.2c0,0,0,0,0,0
					c0,0.1,0,0.1,0.1,0.2c0,0,0,0,0,0c0,0.1,0,0.1,0.1,0.2c0.3,1,0.4,2.1,0.5,3.1c0,0.1,0,0.2,0,0.3c0,0,0,0,0,0c0,0,0,0,0,0.1
					c0,0,0,0,0,0c0,0,0,0,0,0.1c0,0,0,0,0,0c0,0,0,0,0,0.1c0,0,0,0,0,0c0,0,0,0,0,0.1c0,0,0,0,0,0c0,0,0,0,0,0.1c0,0,0,0,0,0
					c0,0,0,0,0,0.1c0,0,0,0,0,0c0,0,0,0,0,0.1c0,0,0,0,0,0c0,0,0,0,0,0.1c0,0,0,0,0,0c0,0,0,0,0,0.1c0,0,0,0,0,0c0,0,0,0,0,0.1
					c0,0,0,0,0,0c0,0,0,0,0,0.1c0,0,0,0,0,0c0,0,0,0,0,0.1c0,0,0,0,0,0c0,0,0,0,0,0.1c0,0,0,0,0,0c0,0,0,0,0,0.1c0,0,0,0,0,0
					c0,0,0,0,0,0.1c0,0,0,0,0,0c0,0,0,0,0,0.1c0,0,0,0,0,0c0,0,0,0,0,0.1c0,0,0,0,0,0c0,0,0,0,0,0.1c0,0,0,0,0,0c0,0,0,0,0,0.1
					c0,0,0,0,0,0c0,0,0,0,0,0.1c0,0,0,0,0,0c0,0,0,0,0,0.1c0,0,0,0,0,0c0,0,0,0,0,0.1c0,0,0,0,0,0c0,0,0,0,0,0.1c0,0,0,0,0,0
					c0,0,0,0,0,0.1c0,0,0,0,0,0c0,0,0,0,0,0.1c0,0,0,0,0,0c0,0,0,0,0,0.1c0,0,0,0,0,0c0,0,0,0,0,0.1c0,0,0,0,0,0c0,0,0,0,0,0.1
					c0,0,0,0,0,0c0,0,0,0,0,0.1c0,0,0,0,0,0c0,0,0,0,0,0.1c0,0,0,0,0,0c0,0,0,0,0,0c0,0,0,0,0,0c0,0,0,0,0,0c0,0,0,0,0,0
					c0,0,0,0,0,0c0,0,0,0,0,0c0,0,0,0,0,0c0,0,0,0,0,0c0,0,0,0,0,0c0,0,0,0,0,0c0,0,0,0,0,0c0,0,0,0,0,0c0,0,0,0,0,0c0,0,0,0,0,0
					c0,0,0,0,0,0c0,0,0,0,0,0c0,0,0,0,0,0c0,0,0,0,0,0c0,0,0,0,0,0c0,0,0,0,0,0c0,0,0,0,0,0c0,0,0,0,0,0c0,0,0,0,0,0c0,0,0,0,0,0
					c0,0,0,0,0,0c0,0,0,0,0,0c0,0,0,0,0,0c0,0,0,0,0,0c0,0,0,0,0,0c0,0,0,0,0,0c0,0,0,0,0,0c0,0,0,0,0,0c0,0,0,0,0,0c0,0,0,0,0,0
					c0,0,0,0,0,0c0,0,0,0,0,0c0,0,0,0,0,0c0,0,0,0,0,0c0,0,0,0,0,0c0,0,0,0,0,0c0,0,0,0,0,0c0,0,0,0,0,0c0,0,0,0,0,0c0,0,0,0,0,0
					c0,0,0,0,0,0c0,0,0,0,0,0c0,0,0,0,0,0c0,0,0,0,0,0c0,0,0,0,0,0c0,0,0,0,0,0c0,0,0,0,0,0c0,0,0,0,0,0c0,0,0,0,0,0c0,0,0,0,0,0
					c0,0,0,0,0,0c0,0,0,0,0,0c-0.3,0.1-0.5,0.2-0.7,0.3c-0.2-0.9-0.8-1.6-1.5-2.2c0-0.1,0-0.2-0.1-0.3C23.4,10,23.4,8.8,23.4,7.7
					 M21,11.4c-0.7-1.1-1.5-2.2-1.5-3.7c0,0,0,0.1,0,0.1c0,0,0,0,0,0c0,0,0,0.1,0,0.1c0,0,0,0,0,0c0,0,0,0.1,0,0.1c0,0,0,0,0,0
					c0,0,0,0.1,0,0.1c0,0,0,0,0,0c0,0,0,0.1,0,0.1c0,0,0,0,0,0c0,0,0,0.1,0,0.1c0,0,0,0,0,0c0,0,0,0.1,0,0.1c0,0,0,0,0,0
					c0,0.1,0.1,0.2,0.1,0.2c0,0,0,0,0,0c0,0,0,0.1,0,0.1c0,0,0,0,0,0c0,0,0,0,0,0.1c0,0,0,0,0,0c0,0,0,0,0,0.1c0,0,0,0,0,0
					c0,0,0,0,0.1,0.1c0,0,0,0,0,0c0,0,0,0.1,0.1,0.1c0,0,0,0,0,0c0,0,0.1,0.1,0.1,0.1c0,0,0,0,0,0c0,0,0,0.1,0.1,0.1c0,0,0,0,0,0
					c0,0,0,0,0.1,0.1c0,0,0,0,0,0c0,0,0,0,0.1,0.1c0,0,0,0,0,0c0,0,0,0,0.1,0.1c0,0,0,0,0,0c0,0,0,0,0.1,0.1c0,0,0,0,0,0
					c0,0,0.1,0.1,0.1,0.1c0,0,0,0,0,0c0,0,0.1,0.1,0.1,0.1c0,0,0,0,0,0c0,0,0,0.1,0.1,0.1c0,0,0,0,0,0c0,0,0,0,0.1,0.1c0,0,0,0,0,0
					c0,0,0,0,0.1,0.1c0,0,0,0,0,0c0,0,0,0,0.1,0.1c0,0,0,0,0,0c0,0,0,0,0.1,0.1c0,0,0,0,0,0c0,0,0.1,0.1,0.1,0.1
					c0,0,0.1,0.1,0.1,0.1c0,0,0,0,0,0c0,0,0,0.1,0.1,0.1c0,0,0,0,0,0c0,0,0,0,0.1,0.1c0,0,0,0,0,0c0,0,0,0,0.1,0.1c0,0,0,0,0,0
					c0,0,0,0,0.1,0.1c0,0,0,0,0,0c0,0,0,0,0.1,0.1c0,0,0,0,0,0c0,0,0,0,0.1,0.1c0,0,0,0,0,0c0,0,0,0,0.1,0.1c0,0,0,0,0,0
					c0,0,0,0,0.1,0.1c0,0,0,0,0,0c0,0,0,0,0.1,0.1c0,0,0,0,0,0c0,0,0,0,0.1,0.1c0,0,0,0,0,0c0,0,0,0,0,0.1c0,0,0,0,0,0
					c0,0,0,0,0,0.1c0,0,0,0,0,0c0,0,0,0,0,0.1c0,0,0,0,0,0c0,0,0,0,0,0.1c0,0,0,0,0,0c0,0,0,0,0,0.1c0,0,0,0,0,0c0,0,0,0,0,0.1
					c0,0,0,0,0,0.1c0,0,0,0,0,0.1c0,0,0,0,0,0.1c0,0,0,0,0,0.1c0,0,0,0,0,0.1c0,0,0,0,0,0.1c0,0,0,0,0,0.1c0,0,0,0,0,0.1
					c0,0,0,0,0,0.1c0,0,0,0,0,0.1c0,0,0,0,0,0.1c0,0,0,0,0,0.1c0,0,0,0,0,0.1c0,0,0,0,0,0.1c0,0,0,0,0,0.1c0,0,0,0,0,0.1
					c0,0,0,0,0,0.1c0,0,0,0,0,0.1c0,0,0,0,0,0.1c0,0,0,0,0,0.1c0,0,0,0,0,0.1c0,0,0,0,0,0.1c0,0,0,0,0,0.1c0,0,0,0,0,0.1
					c0,0,0,0,0,0.1c0,0,0,0,0,0.1c0,0,0,0,0,0.1c-0.1,0-0.1,0.1-0.2,0.1c-0.3-0.1-0.6-0.1-0.9-0.2c-0.1,0-0.1,0-0.2,0
					C22.2,13.2,21.6,12.3,21,11.4 M19,14.4c-0.5-0.9-0.9-2-1.3-3.1c-0.6-1.7-1.2-3.5-2.5-4.6c0,0,0.1,0.1,0.1,0.1c0,0,0,0,0,0
					c0,0,0.1,0.1,0.1,0.1c0,0,0,0,0,0c0,0,0.1,0.1,0.1,0.1c0,0,0,0,0,0c0,0,0.1,0.1,0.1,0.1c0,0,0,0,0,0c0,0,0.1,0.1,0.1,0.1
					c0,0,0,0,0,0c0,0,0.1,0.1,0.1,0.1c0,0,0,0,0,0c0,0,0.1,0.1,0.1,0.1c0,0,0,0,0,0c0,0,0.1,0.1,0.1,0.1c0,0,0,0,0,0
					c0,0,0.1,0.1,0.1,0.1c0,0,0,0,0,0c0,0,0.1,0.1,0.1,0.1c0,0,0,0,0,0c0,0.1,0.1,0.1,0.1,0.2c0.6,0.8,1.1,1.8,1.5,2.8
					c0,0.1,0.1,0.1,0.1,0.2c0,0,0,0,0,0.1c0,0,0,0.1,0.1,0.1c0,0,0,0,0,0.1c0,0,0,0.1,0.1,0.1c0,0,0,0.1,0,0.1c0,0,0,0.1,0,0.1
					c0,0,0,0.1,0,0.1c0,0,0,0.1,0,0.1c0,0,0,0.1,0,0.1c0,0,0,0.1,0,0.1c0,0,0,0.1,0,0.1c0,0,0,0.1,0,0.1c0,0,0,0.1,0,0.1
					c0,0,0,0.1,0,0.1c0,0,0,0.1,0,0.1c0,0,0,0.1,0,0.1c0,0,0,0.1,0,0.1c0,0,0,0.1,0,0.1c0,0,0,0.1,0,0.1c0,0,0,0.1,0,0.1
					c0,0,0,0.1,0,0.1c0,0,0,0.1,0.1,0.1c0,0,0,0.1,0.1,0.1c0,0,0,0.1,0.1,0.1c0,0,0,0.1,0.1,0.1c0,0,0,0.1,0.1,0.1
					c0,0,0,0.1,0.1,0.1c0,0,0,0.1,0.1,0.1c0,0,0,0.1,0.1,0.1c0,0,0,0.1,0.1,0.1c0,0,0,0.1,0.1,0.1c0,0,0,0.1,0.1,0.1
					c0,0,0,0.1,0.1,0.1c0,0,0,0.1,0.1,0.1c0,0,0,0.1,0.1,0.1c0,0,0,0.1,0.1,0.1c0,0,0,0,0.1,0.1c0,0,0,0,0,0
					c-0.2,0.1-0.3,0.2-0.4,0.4c0,0.1,0,0.2-0.1,0.3c-0.2-0.1-0.4-0.2-0.5-0.2C19.2,14.7,19.1,14.6,19,14.4 M16.8,15.8
					c-1.1-0.8-2.1-1.6-2.7-3c0,0,0,0.1,0.1,0.1c0,0,0,0,0,0c0,0,0.1,0.1,0.1,0.1c0,0,0,0,0,0c0,0,0,0.1,0.1,0.1c0,0,0,0,0,0
					c0,0,0,0,0.1,0.1c0,0,0,0,0,0c0,0,0,0,0.1,0.1c0,0,0,0,0,0c0,0,0,0,0.1,0.1c0,0,0,0,0,0c0,0,0,0,0.1,0.1c0,0,0,0,0,0
					c0.1,0.1,0.1,0.1,0.2,0.2c0,0,0,0,0,0c0,0,0,0,0.1,0.1c0,0,0,0,0,0c0,0,0,0,0.1,0.1c0,0,0,0,0,0c0,0,0,0,0.1,0c0,0,0,0,0,0
					c0,0,0,0,0.1,0c0,0,0,0,0,0c0,0,0.1,0,0.1,0.1c0,0,0,0,0,0c0,0,0.1,0,0.1,0.1c0,0,0,0,0,0c0,0,0.1,0,0.1,0.1c0,0,0,0,0,0
					c0,0,0,0,0.1,0c0,0,0,0,0,0c0,0,0,0,0.1,0c0,0,0,0,0,0c0,0,0,0,0.1,0c0,0,0,0,0,0c0,0,0,0,0.1,0c0,0,0,0,0,0c0,0,0.1,0,0.1,0
					c0,0,0,0,0,0c0,0,0.1,0,0.1,0.1c0,0,0,0,0,0c0,0,0.1,0,0.1,0c0,0,0,0,0,0c0,0,0,0,0.1,0c0,0,0,0,0.1,0c0,0,0,0,0.1,0
					c0,0,0,0,0.1,0c0,0,0,0,0.1,0c0,0,0,0,0.1,0c0,0,0,0,0.1,0c0,0,0,0,0,0c0,0,0.1,0,0.1,0.1c0.1,0,0.1,0.1,0.2,0.1c0,0,0,0,0,0
					c0,0,0,0,0.1,0c0,0,0,0,0.1,0c0,0,0,0,0.1,0c0,0,0,0,0.1,0c0,0,0,0,0.1,0c0,0,0,0,0.1,0c0,0,0,0,0.1,0c0,0,0,0,0.1,0
					c0,0,0,0,0.1,0c0,0,0,0,0.1,0c0,0,0,0,0.1,0c0,0,0,0,0.1,0c0,0,0,0,0.1,0c0,0,0,0,0.1,0c0,0,0,0,0.1,0c0,0,0,0,0.1,0
					c0,0,0,0,0.1,0c0,0,0,0,0.1,0c0,0,0,0,0.1,0c0,0,0,0,0.1,0c0,0,0,0,0,0c0,0,0,0,0.1,0c0,0,0,0,0,0c0,0,0,0,0.1,0c0,0,0,0,0,0
					c0,0,0,0,0.1,0c0,0,0,0,0,0c0,0,0,0,0.1,0c0,0,0,0,0,0c0,0,0,0,0.1,0c0,0,0,0,0,0c0,0,0,0,0.1,0c0,0,0,0,0,0c0,0,0,0,0.1,0
					c0,0,0,0,0,0c0,0,0,0,0.1,0c0,0,0,0,0,0c-0.2,0.3-0.3,0.6-0.3,1c0,0.2,0,0.3,0.1,0.5c-0.1,0-0.2,0-0.2-0.1
					C18.5,17,17.6,16.4,16.8,15.8 M14,16.6c-1.1-1.4-2.3-2.8-3.9-3.5c0,0,0.1,0,0.1,0c0,0,0,0,0,0c0,0,0.1,0,0.1,0c0,0,0,0,0,0
					c0.1,0,0.1,0,0.2,0.1c0,0,0,0,0,0c0,0,0.1,0,0.1,0c0,0,0,0,0,0c0.1,0,0.1,0,0.2,0.1c0,0,0,0,0,0c0,0,0.1,0,0.1,0.1c0,0,0,0,0,0
					c0.1,0,0.1,0.1,0.2,0.1c0,0,0,0,0,0c0,0,0.1,0,0.1,0.1c0,0,0,0,0,0c0.1,0,0.1,0.1,0.2,0.1c0,0,0,0,0,0c0,0,0.1,0.1,0.1,0.1
					c0,0,0,0,0,0c0.1,0,0.1,0.1,0.2,0.1c0.9,0.6,1.6,1.4,2.4,2.1c0,0,0,0,0.1,0.1c0,0,0,0,0,0c0,0,0,0,0.1,0.1c0,0,0,0,0,0
					c0,0,0,0,0.1,0.1c0,0,0,0,0,0c0,0,0,0,0,0c0,0,0,0,0,0c0,0,0,0,0,0c0,0,0,0,0,0c0,0,0,0,0,0c0,0,0,0,0,0c0,0,0,0,0,0
					c0,0,0,0,0,0c0,0,0,0,0,0c0,0,0,0,0,0c0,0,0,0,0,0c0,0,0,0,0,0c0,0,0,0,0,0c0,0,0,0,0,0c0,0,0,0,0,0c0,0,0,0,0,0c0,0,0,0,0,0
					c0,0,0,0,0,0c0,0,0,0,0,0c0,0,0,0,0,0c0,0,0,0,0,0c0,0,0,0,0,0c0,0,0,0,0,0c0,0,0,0,0,0c0,0,0,0,0,0c0,0,0,0,0,0c0,0,0,0,0,0
					c0,0,0,0,0,0c0,0,0,0,0,0c0,0,0,0,0,0c0,0,0,0,0,0c0,0,0,0,0,0c0,0,0,0,0,0c0,0,0,0,0,0c0,0,0,0,0,0c0,0,0,0,0,0c0,0,0,0,0,0
					c0,0,0,0,0,0c0,0,0,0,0,0c0,0,0,0,0,0c0,0,0,0,0,0c0,0,0,0,0,0c0,0,0,0,0,0c0,0,0,0,0,0c0,0,0,0,0,0c0,0,0,0,0,0c0,0,0,0,0,0
					c0,0,0,0,0,0c0,0,0,0,0,0c0,0,0,0,0,0c0,0,0,0,0,0c0,0,0,0,0,0c0,0,0,0,0,0c0,0,0,0,0,0c0,0,0,0,0,0c0,0,0,0,0,0c0,0,0,0,0,0
					c0,0,0,0,0,0c0,0,0,0,0,0c0,0,0,0,0,0c0,0,0,0,0,0c0,0,0,0,0,0c0,0,0,0,0,0c0,0,0,0,0,0c0,0,0,0,0,0c0,0,0,0,0,0c0,0,0,0,0,0
					c0,0,0,0,0,0c0,0,0,0,0,0c0,0,0,0,0,0c0,0,0,0,0,0c0,0,0,0,0,0c0,0,0,0,0,0c0,0,0,0,0,0c0,0,0,0,0,0c0,0,0,0,0,0c0,0,0,0,0,0
					c0,0,0,0,0,0c0,0,0,0,0,0c0,0,0,0,0,0c0,0,0,0,0,0c0,0,0,0,0,0c0,0,0,0,0,0c0,0,0,0,0,0c0,0,0,0,0,0c0,0,0,0,0,0c0,0,0,0,0,0
					c0,0,0,0,0,0c0,0,0,0,0,0c0,0,0,0,0,0c0,0,0,0,0,0c0,0,0,0,0.1,0c0,0,0,0,0,0c0,0,0,0,0.1,0c0,0,0,0,0,0c0,0,0,0,0.1,0
					c0,0,0,0,0,0c0,0,0,0,0.1,0c0,0,0,0,0,0c0,0,0,0,0.1,0c0,0,0,0,0,0c0,0,0,0,0.1,0c0,0,0,0,0,0c0,0,0,0,0.1,0c0,0,0,0,0,0
					c0,0,0,0,0.1,0c0,0,0,0,0,0c0,0,0,0,0.1,0c0,0,0,0,0.1,0c0,0,0,0,0.1,0c0,0,0,0,0.1,0c0,0,0,0,0,0c0,0,0,0,0.1,0c0,0,0,0,0,0
					c0,0,0,0,0.1,0c-0.1,0.2-0.2,0.5-0.3,0.7c-0.8-0.6-1.7-0.7-2.7-0.8c-0.1,0-0.1-0.1-0.2-0.1C15.4,18.4,14.7,17.5,14,16.6
					 M15.2,27.2c-0.3,0-0.6,0.1-0.9,0.1c-1.3,0.2-2.6,0.4-4-0.2c0,0,0,0,0,0c0,0,0.1,0,0.1,0c0,0,0,0,0,0c0,0,0.1,0,0.1,0
					c0,0,0,0,0,0c0,0,0.1,0,0.1,0c0,0,0,0,0,0c0,0,0.1,0,0.1,0c0,0,0,0,0,0c0,0,0.1,0,0.1,0c0,0,0,0,0,0c0,0,0.1,0,0.1,0
					c0,0,0,0,0,0c0,0,0.1,0,0.1,0c0,0,0,0,0,0c0,0,0,0,0,0c0,0,0.1,0,0.1,0c0,0,0,0,0,0c0,0,0.1,0,0.1,0c0,0,0,0,0,0
					c0,0,0.1,0,0.1,0c0,0,0,0,0,0c0.1,0,0.1,0,0.2,0c0,0,0,0,0,0c0,0,0.1,0,0.1,0c0,0,0,0,0,0c0,0,0.1,0,0.1,0c0,0,0,0,0,0
					c0,0,0.1,0,0.1,0c0,0,0,0,0,0c0,0,0.1,0,0.1,0c0,0,0,0,0,0c0,0,0.1,0,0.1,0c0,0,0,0,0,0c0.1,0,0.1,0,0.2-0.1c0,0,0,0,0,0
					c0,0,0.1,0,0.1,0c0,0,0,0,0,0c0,0,0.1,0,0.1,0c0,0,0,0,0,0c0,0,0.1,0,0.1,0c0,0,0,0,0,0c0,0,0.1,0,0.1,0c0,0,0,0,0,0
					c0,0,0.1,0,0.1,0c0,0,0,0,0,0c0.1,0,0.1,0,0.2-0.1c0,0,0,0,0,0c0,0,0.1,0,0.1,0c0,0,0,0,0,0c0,0,0.1,0,0.1,0c0,0,0,0,0,0
					c0,0,0.1,0,0.1,0c0,0,0,0,0,0c0,0,0.1,0,0.1,0c0,0,0,0,0,0c0,0,0,0,0.1,0c0,0,0,0,0,0c0,0,0.1,0,0.1,0c0.1,0,0.2-0.1,0.3-0.1
					c0,0,0,0,0,0c0,0,0.1,0,0.1,0c0,0,0,0,0,0c0,0,0.1,0,0.1,0c0,0,0,0,0,0c0,0,0.1,0,0.1,0c0,0,0,0,0.1,0c0,0,0.1,0,0.1,0
					c0,0,0,0,0.1,0c0,0,0.1,0,0.1,0c0,0,0,0,0.1,0c0,0,0,0,0.1,0c0,0,0,0,0.1,0c0,0,0,0,0.1,0c0,0,0,0,0.1,0c0,0,0,0,0.1,0
					c0,0,0,0,0.1,0c0,0,0,0,0.1,0c0,0,0,0,0.1,0c0,0,0,0,0.1,0c0,0,0,0,0.1,0c0,0,0,0,0.1,0c0,0,0,0,0.1,0c0,0,0,0,0.1,0
					c0,0,0,0,0.1,0c0,0,0,0,0.1,0c0,0,0,0,0.1,0c0,0,0,0,0.1,0c0,0,0,0,0.1,0c0,0,0,0,0.1,0c0,0,0,0,0.1,0c0,0,0,0,0.1,0
					c0,0,0,0,0.1,0c0,0,0,0,0.1,0c0,0,0,0,0.1,0c0,0,0,0,0.1,0c0,0,0,0,0.1,0c0,0,0,0,0.1,0c0,0,0,0,0.1,0c0,0,0,0,0.1,0
					c0,0,0,0,0.1,0c0,0,0,0,0.1,0c0,0,0,0,0.1,0c0,0,0,0,0.1,0c0,0,0,0,0.1,0c0,0,0,0,0.1,0c0,0,0,0,0.1,0c0,0,0,0,0.1,0
					c0,0,0,0,0.1,0c0,0,0,0,0.1,0c0,0,0,0,0.1,0c0,0,0,0,0.1,0c0,0,0,0,0,0C17,26.4,16.1,26.8,15.2,27.2 M18.1,24.6
					c-0.7-0.2-1.4-0.1-2,0.1c-0.3-0.1-0.7-0.2-1-0.3c-1-0.4-2-1-3-1.5C10.6,21.9,9,21,7.2,20.9c0,0,0.1,0,0.1,0c0,0,0,0,0,0
					c0,0,0.1,0,0.1,0c0,0,0,0,0,0c0.1,0,0.1,0,0.2,0c0,0,0,0,0,0c0,0,0.1,0,0.1,0c0,0,0,0,0,0c0.1,0,0.1,0,0.2,0c0,0,0,0,0,0
					c0,0,0.1,0,0.1,0c0,0,0,0,0,0c0.1,0,0.1,0,0.2,0c0,0,0,0,0,0c0.1,0,0.1,0,0.2,0c0,0,0,0,0,0c0.1,0,0.1,0,0.2,0c0,0,0,0,0,0
					c0.1,0,0.1,0,0.2,0c0,0,0,0,0,0c0.1,0,0.1,0,0.2,0c1,0.3,2,0.7,2.9,1.2c0,0,0.1,0,0.1,0.1c0,0,0,0,0,0c0,0,0.1,0,0.1,0.1
					c0,0,0,0,0,0c0,0,0.1,0,0.1,0c0,0,0,0,0,0c0,0,0.1,0,0.1,0.1c0,0,0,0,0,0c0,0,0.1,0,0.1,0c0,0,0,0,0,0c0,0,0.1,0,0.1,0.1
					c0,0,0,0,0,0c0,0,0.1,0,0.1,0c0,0,0,0,0,0c0,0,0.1,0,0.1,0.1c0,0,0,0,0,0c0,0,0.1,0,0.1,0c0,0,0,0,0,0c0,0,0.1,0,0.1,0
					c0,0,0,0,0,0c0,0,0.1,0,0.1,0c0,0,0,0,0,0c0,0,0.1,0,0.1,0c0,0,0,0,0,0c0,0,0.1,0,0.1,0c0,0,0,0,0,0c0,0,0.1,0,0.1,0
					c0,0,0,0,0,0c0,0,0.1,0,0.1,0c0,0,0,0,0,0c0,0,0.1,0,0.1,0c0,0,0,0,0,0c0,0,0.1,0,0.1,0c0,0,0,0,0,0c0,0,0.1,0,0.1,0
					c0,0,0,0,0,0c0,0,0.1,0,0.1,0c0,0,0,0,0,0c0,0,0.1,0,0.1,0c0,0,0,0,0,0c0,0,0.1,0,0.1,0c0,0,0,0,0,0c0,0,0.1,0,0.1,0
					c0,0,0,0,0,0c0,0,0.1,0,0.1,0c0,0,0,0,0,0c0,0,0.1,0,0.1,0c0,0,0,0,0,0c0,0,0.1,0,0.1,0c0,0,0,0,0,0c0,0,0.1,0,0.1,0
					c0,0,0,0,0,0c0,0,0.1,0,0.1,0c0,0,0,0,0,0c0,0,0.1,0,0.1,0c0,0,0,0,0,0c0,0,0.1,0,0.1,0c0,0,0,0,0,0c0,0,0.1,0,0.1,0
					c0,0,0,0,0,0c0,0,0.1,0,0.1,0c0,0,0,0,0,0c0,0,0.1,0,0.1,0c0,0,0,0,0,0c0,0,0,0,0,0c0,0,0,0,0,0c0,0,0.1,0,0.1,0c0,0,0,0,0,0
					c0,0,0.1,0,0.1,0c0,0,0,0,0,0c0,0,0.1,0,0.1,0c0,0,0,0,0,0c0,0,0.1,0,0.1,0c0,0,0,0,0,0c0,0,0.1,0,0.1,0c0,0,0,0,0,0
					c0,0,0,0,0.1,0c0,0,0,0,0,0c0,0,0,0,0.1,0c0,0,0,0,0,0c0,0,0,0,0.1,0c0,0,0,0,0,0c0,0,0,0,0.1,0c0,0,0,0,0,0c0,0,0,0,0.1,0
					c0,0,0,0,0,0c0,0,0,0,0.1,0c0,0,0,0,0.1,0c0,0,0,0,0.1,0c0,0,0.1,0,0.1,0c0,0,0,0,0,0c0,0,0,0,0,0
					C18.2,23.8,18.1,24.2,18.1,24.6 M18.4,22.1c-0.3,0.1-0.5,0.2-0.8,0.2c-0.9-0.7-2-1.1-3-1.4c-1.3-0.4-2.5-0.7-3.5-1.9
					c0,0,0,0,0.1,0.1c0,0,0,0,0,0c0,0,0.1,0.1,0.1,0.1c0,0,0,0,0,0c0,0,0.1,0,0.1,0.1c0,0,0,0,0,0c0,0,0,0,0.1,0c0,0,0,0,0,0
					c0,0,0,0,0.1,0c0,0,0,0,0,0c0,0,0.1,0,0.1,0c0,0,0,0,0,0c0,0,0.1,0,0.1,0c0,0,0,0,0,0c0.1,0,0.2,0.1,0.2,0.1c0,0,0,0,0,0
					c0,0,0.1,0,0.1,0c0,0,0,0,0,0c0,0,0.1,0,0.1,0c0,0,0,0,0,0c0,0,0.1,0,0.1,0c0,0,0,0,0,0c0,0,0.1,0,0.1,0c0,0,0,0,0,0
					c0,0,0.1,0,0.1,0c0,0,0,0,0,0c0,0,0.1,0,0.1,0c0,0,0,0,0,0c0,0,0.1,0,0.1,0c0,0,0,0,0,0c0,0,0.1,0,0.1,0c0,0,0,0,0,0
					c0,0,0.1,0,0.1,0c0,0,0,0,0,0c0,0,0.1,0,0.1,0c0,0,0,0,0,0c0,0,0.1,0,0.1,0c0,0,0,0,0,0c0,0,0.1,0,0.1,0c0,0,0,0,0,0
					c0,0,0.1,0,0.1,0c0,0,0,0,0,0c0,0,0.1,0,0.1,0c0,0,0,0,0,0c0,0,0.1,0,0.1,0c0,0,0,0,0,0c0,0,0.1,0,0.1,0c0,0,0,0,0,0
					c0,0,0.1,0,0.1,0c0,0,0,0,0,0c0,0,0.1,0,0.1,0c0,0,0,0,0,0c0,0,0.1,0,0.1,0c0.1,0,0.3,0,0.4,0c0,0,0,0,0,0c0,0,0.1,0,0.1,0
					c0,0,0,0,0,0c0,0,0.1,0,0.1,0c0,0,0,0,0.1,0c0,0,0,0,0.1,0c0,0,0,0,0.1,0c0,0,0,0,0.1,0c0,0,0,0,0.1,0c0,0,0,0,0.1,0
					c0,0,0,0,0.1,0c0,0,0,0,0.1,0c0,0,0,0,0.1,0c0,0,0,0,0.1,0c0,0,0,0,0.1,0c0,0,0,0,0.1,0c0,0,0,0,0.1,0c0,0,0,0,0.1,0
					c0,0,0,0,0.1,0c0,0,0,0,0.1,0c0,0,0,0,0.1,0c0,0,0,0,0.1,0c0,0,0,0,0.1,0c0,0,0,0,0.1,0c0,0,0,0,0.1,0c0,0,0,0,0.1,0
					c0,0,0,0,0.1,0c0,0,0,0,0.1,0c0,0,0,0,0.1,0c0,0,0,0,0.1,0c0,0,0,0,0.1,0c0,0,0,0,0.1,0c0,0,0,0,0.1,0c0,0,0,0,0.1,0
					c0,0,0,0,0.1,0c0,0,0,0,0.1,0c0,0,0,0,0.1,0c0,0,0,0,0.1,0c0,0,0,0,0.1,0c0,0,0,0,0.1,0c0,0,0,0,0.1,0c0,0,0,0,0.1,0
					c0,0,0,0,0.1,0c0,0,0,0,0.1,0c0,0,0,0,0.1,0c0,0,0,0,0.1,0c0,0,0,0,0.1,0c0,0,0,0,0.1,0c0,0,0,0,0.1,0c0,0,0,0,0.1,0
					c0,0,0,0,0.1,0c0,0,0,0,0.1,0c0,0,0,0,0.1,0c0,0,0,0,0.1,0c0,0,0,0,0.1,0c0,0,0,0,0.1,0c0,0,0,0,0,0
					C18.5,21.6,18.5,21.9,18.4,22.1"/>
				<path class="st5" d="M55.2,21.1C55.2,21.1,55.2,21.1,55.2,21.1C55.2,21.1,55.2,21.1,55.2,21.1C55.2,21,55.2,21,55.2,21.1
					C55.2,21,55.2,21,55.2,21.1C55.2,21,55.2,21,55.2,21.1C55.2,21,55.2,21,55.2,21.1C55.2,21,55.2,21,55.2,21.1
					C55.2,21,55.2,21,55.2,21.1C55.2,21,55.2,21,55.2,21.1C55.1,21,55.1,21,55.2,21.1C55.1,21,55.1,21,55.2,21.1
					C55.1,21,55.1,21,55.2,21.1c-2.4-1.1-4.5-0.3-6.5,0.4c-1.5,0.5-3.1,1.1-4.8,0.9c0.9-0.7,1.9-1,2.9-1.3c1-0.3,2-0.6,2.9-1.3
					c0,0-0.1,0-0.1,0c0,0-0.1,0-0.1,0c-0.8,0.6-1.8,0.9-2.8,1.2c-1,0.3-2.1,0.6-3,1.4c-0.3,0-0.6-0.1-0.9-0.2c0-0.2-0.1-0.4-0.2-0.6
					c0,0,0,0,0.1,0c0,0,0,0,0.1,0c0,0,0,0,0.1,0c0,0,0,0,0.1,0c0,0,0,0,0.1,0c0,0,0,0,0.1,0c0,0,0,0,0.1,0c0,0,0,0,0.1,0
					c0,0,0,0,0.1,0c0,0,0,0,0.1,0c0,0,0,0,0.1,0c0,0,0,0,0.1,0c0,0,0,0,0.1,0c0,0,0,0,0.1,0c0,0,0,0,0.1,0c0,0,0,0,0.1,0
					c0,0,0,0,0.1,0c0,0,0,0,0.1,0c0,0,0,0,0.1,0c0,0,0,0,0.1,0c0,0,0,0,0.1,0c0,0,0,0,0.1,0c0,0,0,0,0.1,0c0,0,0,0,0.1,0
					c0,0,0,0,0.1,0c0,0,0,0,0.1,0c0,0,0,0,0.1,0c0,0,0,0,0.1,0c0,0,0,0,0.1,0c0,0,0,0,0.1,0c0,0,0,0,0.1,0c0,0,0,0,0.1,0
					c0,0,0,0,0.1,0c0,0,0,0,0.1,0c0,0,0,0,0.1,0c0,0,0,0,0.1,0c0,0,0,0,0.1,0c0,0,0,0,0.1,0c0,0,0,0,0.1,0c0,0,0,0,0.1,0
					c0,0,0,0,0.1,0c0,0,0,0,0.1,0c0,0,0,0,0.1,0c0,0,0,0,0.1,0c0,0,0,0,0.1,0c0,0,0,0,0.1,0c0,0,0,0,0.1,0c0,0,0,0,0.1,0
					c0,0,0,0,0.1,0c0,0,0,0,0.1,0c0,0,0,0,0.1,0c0,0,0,0,0.1,0c0,0,0,0,0.1,0c0,0,0.1,0,0.1,0c0,0,0,0,0,0c0,0,0.1,0,0.1,0
					c0,0,0,0,0,0c0.1,0,0.3,0,0.4,0c0,0,0.1,0,0.1,0c0,0,0,0,0,0c0,0,0.1,0,0.1,0c0,0,0,0,0,0c0,0,0.1,0,0.1,0c0,0,0,0,0,0
					c0,0,0.1,0,0.1,0c0,0,0,0,0,0c0,0,0.1,0,0.1,0c0,0,0,0,0,0c0,0,0.1,0,0.1,0c0,0,0,0,0,0c0,0,0.1,0,0.1,0c0,0,0,0,0,0
					c0,0,0.1,0,0.1,0c0,0,0,0,0,0c0,0,0.1,0,0.1,0c0,0,0,0,0,0c0,0,0.1,0,0.1,0c0,0,0,0,0,0c0,0,0.1,0,0.1,0c0,0,0,0,0,0
					c0,0,0.1,0,0.1,0c0,0,0,0,0,0c0,0,0.1,0,0.1,0c0,0,0,0,0,0c0,0,0.1,0,0.1,0c0,0,0,0,0,0c0,0,0.1,0,0.1,0c0,0,0,0,0,0
					c0,0,0.1,0,0.1,0c-2.7,0-5.2,0.3-7.2,0.7c0.5,1.3,0.8,2.8,0.8,4.3c0,0.2,0,0.4,0,0.6c0.2,0.1,0.3,0.2,0.4,0.3
					c0.2,0.1,0.3,0.3,0.4,0.5c0,0,0,0,0,0c0,0,0,0,0.1,0c0,0,0,0,0.1,0c0,0,0,0,0.1,0c0,0,0,0,0.1,0c0,0,0,0,0.1,0c0,0,0,0,0.1,0
					c0,0,0,0,0.1,0c0,0,0,0,0.1,0c0,0,0,0,0.1,0c0,0,0,0,0.1,0c0,0,0,0,0.1,0c0,0,0,0,0.1,0c0,0,0,0,0.1,0c0,0,0,0,0.1,0
					c0,0,0,0,0.1,0c0,0,0,0,0.1,0c0,0,0,0,0.1,0c0,0,0,0,0.1,0c0,0,0,0,0.1,0c0,0,0,0,0.1,0c0,0,0,0,0.1,0c0,0,0,0,0.1,0
					c0,0,0,0,0.1,0c0,0,0,0,0.1,0c0,0,0,0,0.1,0c0,0,0,0,0.1,0c0,0,0,0,0.1,0c0,0,0,0,0.1,0c0,0,0,0,0.1,0c0,0,0,0,0.1,0
					c0,0,0,0,0.1,0c0,0,0,0,0.1,0c0,0,0,0,0.1,0c0,0,0,0,0.1,0c0,0,0,0,0.1,0c0,0,0,0,0.1,0c0,0,0,0,0.1,0c0,0,0,0,0.1,0
					c0,0,0,0,0.1,0c0,0,0,0,0.1,0c0,0,0,0,0.1,0c0,0,0,0,0.1,0c0,0,0,0,0.1,0c0,0,0,0,0.1,0c0,0,0,0,0.1,0c0,0,0,0,0.1,0
					c0,0,0,0,0.1,0c0,0,0,0,0.1,0c0,0,0,0,0.1,0c0,0,0,0,0.1,0c0,0,0,0,0.1,0c0,0,0,0,0.1,0c0,0,0,0,0.1,0c0,0,0,0,0.1,0
					c0,0,0,0,0.1,0c0,0,0,0,0.1,0c0,0,0,0,0,0c0.1,0,0.1,0,0.2,0.1c0,0,0.1,0,0.1,0c0,0,0,0,0,0c0,0,0.1,0,0.1,0c0,0,0,0,0,0
					c0,0,0.1,0,0.1,0c0,0,0,0,0,0c0,0,0.1,0,0.1,0c0,0,0,0,0,0c0,0,0.1,0,0.1,0c0,0,0,0,0,0c0,0,0.1,0,0.1,0c0,0,0,0,0,0
					c0.1,0,0.1,0,0.2,0.1c0,0,0,0,0,0c0,0,0.1,0,0.1,0c0,0,0,0,0,0c0,0,0.1,0,0.1,0c0,0,0,0,0,0c0,0,0.1,0,0.1,0c0,0,0,0,0,0
					c0,0,0.1,0,0.1,0c0,0,0,0,0,0c0,0,0.1,0,0.1,0c0,0,0,0,0,0c0,0,0.1,0,0.1,0c0,0,0,0,0,0c0,0,0.1,0,0.1,0c0,0,0,0,0,0
					c0,0,0.1,0,0.1,0c0,0,0,0,0,0c0,0,0.1,0,0.1,0c0,0,0,0,0,0c0,0,0.1,0,0.1,0c0,0,0,0,0,0c0,0,0.1,0,0.1,0c0,0,0,0,0,0
					c0,0,0.1,0,0.1,0c0,0,0,0,0,0c0,0,0.1,0,0.1,0c0,0,0,0,0,0c0,0,0.1,0,0.1,0c0,0,0,0,0,0c0,0,0.1,0,0.1,0c0,0,0,0,0,0
					c0,0,0.1,0,0.1,0c0,0,0,0,0,0c0,0,0.1,0,0.1,0c0,0,0,0,0,0c0,0,0,0,0,0c0,0,0.1,0,0.1,0c0,0,0,0,0,0c0,0,0.1,0,0.1,0
					c0,0,0,0,0,0c0,0,0.1,0,0.1,0c0,0,0,0,0,0c0,0,0.1,0,0.1,0c0,0,0,0,0,0c0,0,0.1,0,0.1,0c0,0,0,0,0,0c0,0,0.1,0,0.1,0
					c0,0,0,0,0,0c0,0,0.1,0,0.1,0c0,0,0,0,0,0c-1.4,0.6-2.7,0.4-4,0.2c-1.1-0.2-2.2-0.3-3.4,0c0,0,0,0.1,0,0.1
					c1.1-0.3,2.3-0.1,3.3,0c1.5,0.2,3,0.5,4.6-0.5c0,0,0,0,0,0c0,0,0,0,0,0c0,0,0,0,0,0c0,0,0,0,0,0c0,0,0,0,0,0c0,0,0,0,0,0
					c0,0,0,0,0,0c0,0,0,0,0,0c0,0,0,0,0,0c0,0,0,0,0,0c0,0,0,0,0,0c0,0,0,0,0,0c0,0,0,0,0,0v0c0,0,0,0,0,0c0,0,0,0,0,0l0,0
					c0,0,0,0,0,0c0,0,0,0,0,0c0,0,0,0,0,0c0,0,0,0,0,0c0,0,0,0,0,0c0,0,0,0,0,0c0,0,0,0,0,0c0,0,0,0,0,0c0,0,0,0,0,0c0,0,0,0,0,0
					c0,0,0,0,0,0c0,0,0,0,0,0c0,0,0,0,0,0c-1.4,0.2-2.7-0.5-4-1.2c-0.7-0.4-1.3-0.7-2-0.9c1.3-0.3,2.6-1.1,3.8-1.8
					C51.1,21.9,53,20.7,55.2,21.1C55.1,21.1,55.1,21.1,55.2,21.1C55.1,21.1,55.1,21.1,55.2,21.1C55.1,21.1,55.1,21.1,55.2,21.1
					C55.1,21.1,55.1,21.1,55.2,21.1C55.1,21.1,55.1,21.1,55.2,21.1C55.1,21.1,55.1,21.1,55.2,21.1C55.1,21.1,55.1,21.1,55.2,21.1
					C55.1,21.1,55.1,21.1,55.2,21.1C55.1,21.1,55.1,21.1,55.2,21.1C55.2,21.1,55.2,21.1,55.2,21.1C55.2,21.1,55.2,21.1,55.2,21.1
					C55.2,21.1,55.2,21.1,55.2,21.1C55.2,21.1,55.2,21.1,55.2,21.1C55.2,21.1,55.2,21.1,55.2,21.1C55.2,21.1,55.2,21.1,55.2,21.1
					C55.2,21.1,55.2,21.1,55.2,21.1C55.2,21.1,55.2,21.1,55.2,21.1C55.2,21.1,55.2,21.1,55.2,21.1C55.2,21.1,55.2,21.1,55.2,21.1
					C55.2,21.1,55.2,21.1,55.2,21.1C55.2,21.1,55.2,21.1,55.2,21.1C55.2,21.1,55.2,21.1,55.2,21.1 M49.2,22.8c-1,0.6-1.9,1.2-3,1.5
					c-0.4,0.1-0.7,0.2-1.1,0.3c-0.7-0.2-1.3-0.3-2-0.1l0,0c0-0.4,0-0.7-0.1-1.1c0,0,0,0,0,0c0.3,0.1,0.5,0.1,0.8,0.1c0,0,0,0,0,0
					c0,0,0.1,0,0.1,0c0,0,0,0,0,0c0,0,0.1,0,0.1,0c0,0,0,0,0,0c0,0,0.1,0,0.1,0c0,0,0,0,0,0c0,0,0.1,0,0.1,0c0,0,0,0,0,0
					c0,0,0.1,0,0.1,0c0,0,0,0,0,0c0,0,0.1,0,0.1,0c0,0,0,0,0,0c0,0,0,0,0,0c0,0,0,0,0,0c0,0,0.1,0,0.1,0c0,0,0,0,0,0
					c0,0,0.1,0,0.1,0c0,0,0,0,0,0c0,0,0.1,0,0.1,0c0,0,0,0,0,0c0,0,0.1,0,0.1,0c0,0,0,0,0,0c0,0,0.1,0,0.1,0c0,0,0,0,0,0
					c0,0,0.1,0,0.1,0c0,0,0,0,0,0c0,0,0.1,0,0.1,0c0,0,0,0,0,0c0,0,0.1,0,0.1,0c0,0,0,0,0,0c0,0,0.1,0,0.1,0c0,0,0,0,0,0
					c0,0,0.1,0,0.1,0c0,0,0,0,0,0c0,0,0.1,0,0.1,0c0,0,0,0,0,0c0,0,0.1,0,0.1,0c0,0,0,0,0,0c0,0,0.1,0,0.1,0c0,0,0,0,0,0
					c0,0,0.1,0,0.1,0c0,0,0,0,0,0c0,0,0.1,0,0.1,0c0,0,0,0,0,0c0,0,0.1,0,0.1,0c0,0,0,0,0,0c0,0,0.1,0,0.1,0c0,0,0,0,0,0
					c0,0,0.1,0,0.1,0c0,0,0,0,0,0c0,0,0.1,0,0.1,0c0,0,0,0,0,0c0,0,0.1,0,0.1,0c0,0,0,0,0,0c0,0,0.1,0,0.1,0c0,0,0,0,0,0
					c0,0,0.1,0,0.1,0c0,0,0,0,0,0c0,0,0.1,0,0.1-0.1c0,0,0,0,0,0c0,0,0.1,0,0.1,0c0,0,0,0,0,0c0,0,0.1,0,0.1-0.1c0,0,0,0,0,0
					c0,0,0.1,0,0.1,0c0,0,0,0,0,0c0,0,0.1,0,0.1-0.1c0,0,0,0,0,0c0,0,0.1,0,0.1-0.1c0,0,0,0,0,0c0,0,0.1,0,0.1-0.1c0,0,0,0,0,0
					c0,0,0.1,0,0.1-0.1c0,0,0,0,0,0c0,0,0.1,0,0.1-0.1c0,0,0,0,0,0c0,0,0.1,0,0.1-0.1c1-0.4,1.9-0.9,2.9-1.2c0.1,0,0.1,0,0.2,0
					c0,0,0,0,0,0c0.1,0,0.1,0,0.2,0c0,0,0,0,0,0c0.1,0,0.1,0,0.2,0c0,0,0,0,0,0c0.1,0,0.1,0,0.2,0c0,0,0,0,0,0c0.1,0,0.1,0,0.2,0
					c0,0,0,0,0,0c0.1,0,0.1,0,0.2,0c0,0,0,0,0,0c0.1,0,0.1,0,0.2,0c0,0,0,0,0,0c0.1,0,0.1,0,0.1,0c0,0,0,0,0,0c0.1,0,0.1,0,0.2,0
					c0,0,0,0,0,0c0,0,0.1,0,0.1,0c0,0,0,0,0,0c0,0,0.1,0,0.1,0C52.4,21,50.8,21.9,49.2,22.8"/>
				<path class="st5" d="M45.1,17.9C45.1,17.9,45.1,17.8,45.1,17.9C45.1,17.8,45.1,17.8,45.1,17.9c0.1-0.1,0.1-0.1,0.1-0.1
					c0,0,0,0,0,0c0,0,0,0,0,0c0,0,0,0,0,0c0,0,0,0,0,0c0,0,0,0,0,0c0,0,0,0,0,0c0,0,0,0,0,0c0,0,0,0,0,0c0,0,0,0,0,0c0,0,0,0,0,0
					c0,0,0,0,0,0c0,0,0,0,0,0c0,0,0,0,0,0c0,0,0,0,0,0c0,0,0,0,0,0c0,0,0,0,0,0c0,0,0,0,0,0c0,0,0,0,0,0c0,0,0,0,0,0c0,0,0,0,0,0
					c0,0,0,0,0,0c0,0,0,0,0,0c0,0,0,0,0,0c0,0,0,0,0,0c0,0,0,0,0,0c0,0,0,0,0,0c0,0,0,0,0,0c0,0,0,0,0,0c0,0,0,0,0,0c0,0,0,0,0,0
					c0,0,0,0,0,0c0,0,0,0,0,0c0,0,0,0,0,0c0,0,0,0,0,0c0,0,0,0,0,0c0,0,0,0,0,0c0,0,0,0,0,0c0,0,0,0,0,0c-0.7,0.1-1.3,0.2-1.9,0.3
					c-0.7,0.5-1.4,0.8-2.2,1c0.2-0.2,0.4-0.5,0.6-0.7c-0.1,0-0.2,0-0.2,0.1c-0.2,0.2-0.4,0.4-0.5,0.6c-0.3,0.1-0.7,0.1-1.1,0.1
					c0-0.1-0.1-0.1-0.1-0.2c-0.3,0.1-0.5,0.2-0.8,0.3c0,0.1,0.1,0.1,0.1,0.2c0.9-0.2,2-0.4,3.4-0.4C44.3,17.9,44.7,17.9,45.1,17.9"
					/>
				<path class="st5" d="M39.9,15.8c0.1,0,0.2-0.1,0.3-0.1C40.1,15.7,40,15.7,39.9,15.8"/>
				<path class="st5" d="M40.3,15.6c0.1,0,0.2-0.1,0.3-0.1C40.5,15.6,40.4,15.6,40.3,15.6"/>
				<path class="st5" d="M39.5,15.9c0.1,0,0.2-0.1,0.4-0.1C39.7,15.8,39.6,15.9,39.5,15.9"/>
				<path class="st5" d="M46.5,14.3c0.1,0,0.2,0,0.4,0C46.7,14.3,46.6,14.3,46.5,14.3"/>
				<path class="st5" d="M47.3,14.2c0.1,0,0.2,0,0.3,0C47.5,14.2,47.4,14.2,47.3,14.2"/>
				<path class="st5" d="M49.5,14.2c-0.1,0-0.2,0-0.4,0C49.2,14.2,49.4,14.2,49.5,14.2"/>
				<path class="st5" d="M46.9,14.3c0.1,0,0.2,0,0.3,0C47.1,14.3,47,14.3,46.9,14.3"/>
				<path class="st5" d="M21.1,17.7c-0.1,0-0.2-0.1-0.2-0.2c0-0.1,0.1-0.2,0.2-0.2c0.1,0,0.2,0.1,0.2,0.2
					C21.3,17.6,21.2,17.7,21.1,17.7"/>
				<path class="st6" d="M51.9,14.7c-0.2-0.1-0.5-0.2-0.7-0.2c-4.2-0.2-8.3,0.4-12.2,1.9c-1.1,0.5-2.1,1-3.2,1.5
					c-0.4,0.2-0.8,0.5-1.2,0.7c-0.1,0-0.1,0-0.2,0c-2.2-1.1-4.3-2.4-6.7-3.1c-0.9-0.2-1.7-0.5-2.6-0.6c-0.9-0.1-1.7-0.2-2.5-0.4
					c-0.5-0.1-2.1-0.3-2.4,0.2c-0.1,0.4,0,0.7,0.3,0.8L20,16.6c-0.2,0.3-0.3,0.6-0.3,1c0.1,0.7,0.7,1.3,1.4,1.3
					c0.8,0,1.5-0.6,1.5-1.4c0-0.2,0-0.4-0.1-0.5l-0.3-0.5c-0.1-0.1,0-0.3,0.2-0.3c0,0,0.3,0,0.6,0c0.3,0.1,2.3,0.5,3.3,0.9
					c2.2,0.8,4.5,2,6.5,3.3c-0.9,0.8-1.7,1.6-2.4,2.5c-0.4,0.6-1.3,2.1-1.4,2.3l-1.9,0c0.5-0.9,1-1.8,1.3-2.8
					c0.1-0.2,0.1-0.5,0.2-0.7c0-0.4,0.1-0.8,0-1.2c-0.1,0-0.1,0.1-0.1,0.1c-0.1,0.1-0.1,0.2-0.2,0.3c-0.1,0.1-0.2,0.3-0.3,0.4
					c-0.5,0.6-1.2,1.1-1.9,1.5c-3.7,2.3-7.8,3.4-11.5,5.4c-0.5,0.3-1,0.6-1.4,1c-0.1,0.1-0.2,0.1-0.1,0.3c0.1,0,0.2,0,0.4,0
					c0.4-0.1,0.9-0.3,1.3-0.4c1.6-0.4,3.3-0.5,4.9-0.6l23.6,0.1c0.1-0.4,0.1-0.8,0-1.3c-0.1-0.4-0.3-0.8-0.7-1.1
					c-0.3-0.3-0.7-0.4-1.1-0.6c-0.2-0.1-0.4-0.1-0.6-0.1c-2.4-0.1-4.8,0-7.2,0c1.3-3.8,7.6-5.7,15.8-5.7c1.4,0,1-1.4,0.2-1.4
					c-1.8,0-3.9,0.1-5.8,0.2c-3.1,0.2-4.6,0.8-5.9,1c0,0,4.3-3.8,13.7-3.1c0.4-0.1,0.6-0.4,0.6-0.8C52.2,15.1,52.1,14.8,51.9,14.7
					 M21.1,18.1c-0.3,0-0.6-0.3-0.6-0.6c0-0.3,0.3-0.6,0.6-0.6c0.3,0,0.6,0.3,0.6,0.6C21.7,17.8,21.4,18.1,21.1,18.1"/>
			</g>
			<g class="st1">
				<defs>
					<rect id="SVGID_7_" x="-13.8" y="-4.2" width="90.6" height="56.6"/>
				</defs>
				<clipPath id="SVGID_8_">
					<use xlink:href="#SVGID_7_"  style="overflow:visible;"/>
				</clipPath>
				<path class="st7" d="M10.1,37.3l-0.4-0.1l-0.2,0.6l-0.4-0.1l0.6-1.8l0.8,0.3c0.3,0.1,0.6,0.4,0.4,0.8
					C10.8,37.3,10.5,37.4,10.1,37.3 M10.4,36.5L10,36.3l-0.2,0.5l0.4,0.1c0.2,0.1,0.3,0,0.3-0.1C10.6,36.7,10.6,36.5,10.4,36.5"/>
				<path class="st7" d="M12.3,38.5l-0.2-0.7l-0.4,0l-0.1,0.7l-0.4,0l0.2-1.9l0.9,0.1c0.4,0,0.6,0.3,0.6,0.7c0,0.3-0.2,0.4-0.4,0.5
					l0.3,0.8L12.3,38.5z M12.3,37l-0.5-0.1l-0.1,0.5l0.5,0.1c0.2,0,0.3,0,0.3-0.2C12.5,37.1,12.5,37,12.3,37"/>
				
					<rect x="12.8" y="37.4" transform="matrix(2.978815e-002 0.9996 -0.9996 2.978815e-002 50.8863 22.7809)" class="st7" width="1.9" height="0.4"/>
				<path class="st7" d="M16.3,38.3l-0.1-0.7c0-0.1,0-0.3,0-0.4c0,0.1-0.1,0.2-0.1,0.3l-0.3,0.9l-0.5-0.8c-0.1-0.1-0.1-0.2-0.2-0.3
					c0,0.1,0,0.3,0.1,0.4l0.1,0.7l-0.4,0l-0.2-1.9l0.4,0l0.5,0.8c0.1,0.1,0.1,0.2,0.2,0.3c0-0.1,0.1-0.2,0.1-0.3l0.3-0.9l0.4,0
					l0.2,1.9L16.3,38.3z"/>
				
					<rect x="16.6" y="37.1" transform="matrix(-4.355705e-002 0.9991 -0.9991 -4.355705e-002 55.5759 21.3801)" class="st7" width="1.9" height="0.4"/>
				
					<rect x="19" y="37.8" transform="matrix(-0.4658 0.8849 -0.8849 -0.4658 62.905 37.9836)" class="st7" width="1.9" height="0.4"/>
				<path class="st7" d="M21.3,40l0.1-1.2c0-0.1,0-0.2,0-0.2c0,0.1-0.2,0.2-0.3,0.3l-0.5,0.6l-0.3-0.2l1.2-1.5l0.3,0.2l-0.1,1.2
					c0,0.1,0,0.2,0,0.2c0-0.1,0.2-0.2,0.3-0.3l0.5-0.6l0.3,0.2l-1.2,1.5L21.3,40z"/>
				<polygon class="st7" points="24.5,41.1 23.4,42.1 23.1,41.9 24.2,40.8 23.8,40.4 24.1,40.2 25.1,41.2 24.9,41.5 				"/>
				<polygon class="st7" points="24.4,43.1 25.5,41.6 26.6,42.4 26.3,42.7 25.6,42.1 25.4,42.4 25.8,42.7 25.6,43 25.2,42.7 
					24.9,43 25.7,43.6 25.5,43.9 				"/>
				<path class="st7" d="M27.3,44.8l0-0.8l-0.4-0.1l-0.3,0.6l-0.3-0.1l0.7-1.7l0.8,0.3c0.3,0.1,0.5,0.4,0.4,0.8
					c-0.1,0.3-0.3,0.4-0.5,0.4l0,0.8L27.3,44.8z M27.7,43.3l-0.5-0.2L27,43.5l0.5,0.2c0.2,0.1,0.3,0,0.3-0.1
					C27.9,43.5,27.8,43.4,27.7,43.3"/>
				<path class="st7" d="M29.7,45.4l-0.2-0.7l-0.4,0L29,45.3l-0.4,0l0.2-1.9l0.9,0.1c0.4,0,0.6,0.3,0.6,0.7c0,0.3-0.2,0.4-0.4,0.5
					l0.3,0.8L29.7,45.4z M29.7,43.8l-0.5-0.1l-0.1,0.5l0.5,0.1c0.2,0,0.3,0,0.3-0.2C30,43.9,29.9,43.8,29.7,43.8"/>
				<path class="st7" d="M32.3,45.1l-0.2-0.4l-0.7,0.1l-0.1,0.4L31,45.4l0.3-2l0.4-0.1l1.1,1.7L32.3,45.1z M31.7,44.1
					c-0.1-0.1-0.1-0.2-0.2-0.3c0,0.1,0,0.2,0,0.3l0,0.4l0.4-0.1L31.7,44.1z"/>
				<path class="st7" d="M33.8,44.5c-0.3,0.1-0.6,0.1-0.8,0l0.1-0.3c0.2,0.1,0.4,0.1,0.5,0c0.2-0.1,0.3-0.2,0.2-0.3
					c-0.1-0.1-0.1-0.1-0.5,0c-0.3,0.1-0.6,0.1-0.8-0.2c-0.2-0.3,0-0.6,0.4-0.8c0.3-0.1,0.5-0.1,0.7,0l-0.1,0.4
					c-0.2-0.1-0.3-0.1-0.5,0c-0.2,0.1-0.2,0.2-0.2,0.3c0.1,0.1,0.1,0.1,0.4,0c0.3-0.1,0.6-0.1,0.8,0.2C34.4,44,34.3,44.3,33.8,44.5"
					/>
				<path class="st7" d="M37,42.3l-0.4-0.2l-0.5,0.4l0.2,0.4l-0.3,0.3l-0.6-1.9l0.3-0.2l1.8,1L37,42.3z M35.9,41.7
					c-0.1-0.1-0.2-0.1-0.3-0.2c0,0.1,0.1,0.2,0.1,0.3l0.1,0.3l0.3-0.3L35.9,41.7z"/>
				<path class="st7" d="M38.2,41.3c-0.4,0.3-0.8,0.3-1.1-0.2l-0.7-0.8l0.3-0.2l0.7,0.8c0.2,0.2,0.4,0.3,0.6,0.1
					c0.2-0.2,0.2-0.4,0-0.6l-0.7-0.8l0.3-0.2l0.7,0.8C38.6,40.6,38.6,41,38.2,41.3"/>
				<path class="st7" d="M39.8,40.1c-0.3,0.2-0.6,0.2-0.8,0.1l0.1-0.4c0.2,0.1,0.4,0,0.5-0.1c0.2-0.1,0.2-0.2,0.2-0.3
					c-0.1-0.1-0.1-0.1-0.5,0c-0.3,0.1-0.6,0.2-0.8-0.2c-0.2-0.3,0-0.6,0.3-0.8c0.2-0.2,0.5-0.2,0.7-0.1l-0.1,0.4
					c-0.2,0-0.3,0-0.5,0.1c-0.2,0.1-0.2,0.2-0.1,0.3c0.1,0.1,0.2,0.1,0.4,0c0.3-0.1,0.6-0.2,0.8,0.2C40.3,39.5,40.2,39.9,39.8,40.1"
					/>
				<polygon class="st7" points="40.9,37.9 41.4,39.3 41.1,39.4 40.5,38 40,38.2 39.9,37.9 41.2,37.3 41.4,37.7 				"/>
				<path class="st7" d="M43.3,38.8l-0.4-0.6l-0.4,0.1l0.1,0.7L42.3,39L42,37.1l0.9-0.1c0.4-0.1,0.7,0.1,0.7,0.5
					c0,0.3-0.1,0.5-0.3,0.6l0.5,0.7L43.3,38.8z M42.9,37.3l-0.5,0.1l0.1,0.5l0.5-0.1c0.2,0,0.3-0.1,0.2-0.3
					C43.2,37.4,43.1,37.3,42.9,37.3"/>
				<path class="st7" d="M45.6,38.8l-0.1-0.4l-0.7,0l-0.2,0.4l-0.4,0l0.8-1.8l0.4,0l0.6,1.9L45.6,38.8z M45.3,37.7
					c0-0.1-0.1-0.2-0.1-0.3c0,0.1-0.1,0.2-0.1,0.3L44.9,38l0.4,0L45.3,37.7z"/>
				<polygon class="st7" points="46.7,39 46.9,37.1 47.3,37.1 47.1,38.6 48.1,38.7 48,39.1 				"/>
				<polygon class="st7" points="48.7,39.1 48.5,37.3 49.8,37.1 49.8,37.5 48.9,37.6 49,37.9 49.5,37.8 49.5,38.2 49,38.3 
					49.1,38.7 50,38.6 50.1,39 				"/>
				<path class="st7" d="M51.6,38.3c-0.3,0.1-0.6,0.1-0.8,0L51,38c0.2,0.1,0.4,0.1,0.5,0c0.2-0.1,0.3-0.2,0.2-0.3
					c-0.1-0.1-0.1-0.1-0.5,0c-0.3,0.1-0.6,0.1-0.8-0.3c-0.1-0.3,0-0.6,0.4-0.8c0.3-0.1,0.5-0.1,0.7,0l-0.1,0.4
					c-0.2-0.1-0.3-0.1-0.5,0c-0.2,0.1-0.2,0.2-0.2,0.3c0.1,0.1,0.1,0.1,0.4,0c0.3-0.1,0.6-0.1,0.8,0.2
					C52.2,37.8,52.1,38.1,51.6,38.3"/>
				<path class="st7" d="M61.2,28.1c-0.1,0-0.2-0.1-0.2-0.1l0.1-0.1L61,27.8c-0.7-0.4-1.7-0.6-2.5-0.3c-0.3,0.1-0.7,0.2-1.1,0.5
					c-0.2,0.1-0.3,0.2-0.5,0.3c0,0,0,0,0,0c0.1-0.7,0.2-1.5-0.1-2.2c-0.1-0.3-0.3-0.5-0.5-0.7c-0.4-0.5-0.9-0.9-1.6-1l-0.2,0l0,0.2
					c0,0.2,0.2,0.3,0.3,0.4c0,0,0,0,0,0.1c0,0.1,0.1,0.1,0.2,0.2c0,0,0,0,0,0c0.2,0.3,0.2,0.7,0.1,1c-0.2,0.9-0.7,1.6-1.4,2
					c-0.6,0.4-1.4,0.6-2.1,0.8c-0.8,0.2-1.5,0.4-2.2,0.9c-0.7,0.4-1.4,1.3-1.4,2.2c0,0.5,0.2,0.9,0.5,1.2c0.1,0.1,0.1,0.1,0.2,0.2
					c0.4,0.5,1.3,1.3,1.8,1.7c-0.5,0.4-1.1,0.6-1.8,0.8c-1.3,0.4-2.6,0.2-3.9,0c-1.1-0.2-2.3-0.3-3.4-0.1c-2.2,0.4-4,1.7-5.1,2.8
					c-0.1,0.1-0.3,0.3-0.4,0.4c-1.7,1.6-3.3,3.2-5.9,3.1c-1.2-0.1-2.3-0.4-3.3-1.2c-0.9-0.7-1.8-1.5-2.6-2.4c-1.5-1.5-3-3.2-5.2-3.5
					c-1.2-0.2-2.4,0.1-3.5,0.3c-1.4,0.3-2.7,0.6-4,0.1c-0.6-0.2-1.2-0.5-1.7-0.9c0.2-0.2,0.5-0.5,0.8-0.7c0.6-0.5,1.2-0.9,1.2-0.9
					l0,0c0.1,0,0.1-0.1,0.2-0.1c0.4-0.4,0.5-1,0.3-1.7c-0.1-0.6-0.4-1.2-0.8-1.5c-0.5-0.5-1.2-0.8-1.8-1.1c-0.3-0.2-0.7-0.3-1-0.5
					c-1-0.6-1.6-1.6-1.7-2.6c0-0.5,0.1-1.1,0.4-1.6c0.1-0.1,0.2-0.2,0.3-0.4C7.7,23.4,7.9,23.2,8,23c0,0,0-0.1,0-0.1
					c0,0-0.1,0-0.1,0c-0.3,0.1-0.5,0.3-0.8,0.4c-0.7,0.4-1.1,0.8-1.5,1.4c-0.4,0.6-0.6,1.2-0.8,2c-0.2-0.1-0.4-0.3-0.6-0.5
					c-0.3-0.3-0.6-0.6-0.9-0.7c-1.1-0.5-2-0.5-2.9-0.1c0,0,0,0-0.1,0.1c-0.1,0-0.1,0.1-0.2,0.1c0,0-0.1,0-0.1,0.1c0,0,0,0.1,0,0.1
					c0.2,0.2,0.5,0.3,0.8,0.4c0.3,0.1,0.5,0.2,0.7,0.3c0.4,0.3,0.6,0.7,0.9,1.2c0.1,0.2,0.2,0.4,0.3,0.6c0.4,0.7,1.1,1.1,1.7,1.5
					c0.7,0.4,1.3,0.8,1.7,1.6C5.6,31.7,5,32,4.4,32.2l0,0l0,0C4,32.4,4,33,4.3,33.8c0.2,0.7,0.5,1.4,0.6,1.5
					c0.3,0.5,0.7,1.1,1.1,1.6c0.6,0.7,1.2,1.3,2.1,1.8c2.1,1.4,4.7,1.8,8,1.3c2.2-0.3,3.9,0.3,5.4,1.9c0.1,0.1,0.2,0.3,0.3,0.4
					c0.2,0.3,0.4,0.5,0.7,0.8c0.7,0.8,1.4,1.5,2.3,2c1,0.7,2.1,1.2,3.3,1.5c0.8,0.2,1.6,0.3,2.5,0.3c1.7,0,3.4-0.5,4.9-1.4
					c1-0.6,1.8-1.4,2.7-2.2c0.8-0.8,1.7-1.5,2.6-2.1c1.9-1.1,4.3-1,6-0.8c1.2,0.2,2.3,0.2,3.3,0c1.1-0.2,2.1-0.6,3.1-1.3
					c0.9-0.6,1.8-1.5,2.5-2.5c0-0.1,0.1-0.2,0.2-0.3c0.4-0.6,1-1.4,0.9-2c0-0.2-0.2-0.4-0.4-0.5c-0.2-0.4-0.8-0.7-1.4-1
					c-0.1,0-0.1-0.1-0.2-0.1c0,0,0.1,0,0.1,0c0.7,0,1.6-0.4,2-0.7c0.7-0.4,1-1,1.4-1.6c0.1-0.2,0.3-0.4,0.4-0.6
					c0.7-1,1.5-1.4,2.6-1.8l0.2-0.1L61.2,28.1z M4.6,29.7c-0.6-0.4-1.2-0.8-1.6-1.5c-0.1-0.2-0.2-0.4-0.3-0.6
					c-0.2-0.5-0.4-0.9-0.9-1.3c-0.2-0.2-0.5-0.3-0.8-0.4c-0.2-0.1-0.5-0.2-0.6-0.3c0.8-0.4,1.6-0.3,2.6,0.1c0.3,0.1,0.6,0.4,0.9,0.7
					c0.3,0.3,0.6,0.6,1,0.7c0,0,0,0,0,0c0,0,0,0,0,0c0,0,0,0,0.1,0c0,0,0,0,0-0.1v0c0,0,0,0,0,0c0,0,0,0,0,0c0,0,0,0,0,0
					c0,0,0,0,0,0c0,0,0,0,0,0c0,0,0,0,0,0c0,0,0,0,0,0c0,0,0,0,0,0c0,0,0,0,0,0c0,0,0,0,0,0c0.2-1,0.5-1.7,0.9-2.4
					c0.4-0.6,0.9-1.1,1.6-1.4c-0.1,0.1-0.1,0.2-0.2,0.2C7,23.8,6.9,23.9,6.8,24c-0.3,0.5-0.4,1.2-0.4,1.7c0.1,1.1,0.8,2.2,1.8,2.8
					c0.3,0.2,0.7,0.4,1,0.5c0.6,0.3,1.2,0.6,1.7,1.1c0.3,0.3,0.6,0.9,0.7,1.4c0.2,0.7,0,1.2-0.2,1.4c0,0-0.1,0.1-0.1,0.1
					c0,0-0.1,0.1-0.2,0.1c-0.7,0-1-0.7-1.3-1.4c-0.3-0.7-0.7-1.5-1.5-1.5c-0.1,0-0.2,0-0.2,0c-0.2,0-0.3,0.1-0.5,0.2
					c0,0-0.1,0-0.1,0.1c-0.2,0.1-0.4,0.3-0.6,0.4c0,0,0,0,0,0c0,0,0,0,0,0c-0.2,0.1-0.4,0.3-0.6,0.4C5.9,30.6,5.2,30.1,4.6,29.7
					 M56.1,34.3c0.1,0.5-0.5,1.3-0.9,1.8c-0.1,0.1-0.1,0.2-0.2,0.3c-0.7,1-1.5,1.8-2.4,2.5c-0.9,0.6-1.9,1-3,1.2c-1,0.2-2,0.2-3.2,0
					c-1.7-0.3-4.2-0.4-6.1,0.8c-1,0.6-1.8,1.4-2.6,2.1c-0.8,0.8-1.7,1.5-2.6,2.1c-2.2,1.3-4.8,1.7-7.2,1c-1.2-0.3-2.3-0.8-3.2-1.5
					c-1-0.7-1.9-1.5-2.6-2.4c-0.9-1.1-1.7-1.9-2.7-2.3c-0.7-0.3-1.5-0.5-2.4-0.5c-0.4,0-0.7,0-1.1,0.1c-3.2,0.4-5.8,0-7.9-1.3
					c-1.3-0.8-2.2-1.8-2.8-2.9c-0.5-0.9-1.1-2.4-0.6-2.8c0.7-0.2,1.2-0.4,1.8-0.7c0.2-0.1,0.4-0.2,0.6-0.4c0.2-0.1,0.4-0.2,0.6-0.4
					c0,0,0,0,0,0c-0.1,1,0.3,2.1,1,3c0.3,0.4,0.7,0.7,1,1c0.5,0.4,1.1,0.7,1.8,0.9c1.4,0.5,2.8,0.2,4.2-0.1c1.1-0.2,2.2-0.5,3.4-0.3
					c2.2,0.3,3.6,1.9,5.1,3.4c1.6,1.7,3.3,3.5,6,3.6c0.1,0,0.2,0,0.3,0c2.5,0,4.1-1.5,5.8-3.1c0.1-0.1,0.3-0.3,0.4-0.4
					c1.1-1,2.8-2.3,5-2.7c1.1-0.2,2.3,0,3.4,0.1c1.3,0.2,2.7,0.4,4,0c0.7-0.2,1.3-0.5,1.9-0.9c0.4-0.3,0.8-0.6,1.1-0.9
					c0.8-0.9,1.1-1.9,0.9-2.9c0,0,0.1,0,0.1,0.1c0.2,0.1,0.4,0.3,0.5,0.5c0,0,0,0,0,0c0.2,0.2,0.4,0.4,0.6,0.6c0,0,0.1,0.1,0.1,0.1
					c0.2,0.1,0.4,0.3,0.7,0.4C55.3,33.5,56,34,56.1,34.3 M58.2,29.7c-0.1,0.2-0.3,0.4-0.4,0.6c-0.4,0.6-0.7,1.1-1.4,1.5
					c-0.6,0.4-1.8,0.9-2.5,0.5c-0.3-0.1-0.5-0.4-0.7-0.6c-0.5-0.5-1-1-1.8-0.8c0,0-0.1,0-0.1,0l0,0l0,0c0,0-0.1,0-0.1,0.1
					c-0.3,0.3-0.4,0.6-0.5,1c-0.1,0.2-0.1,0.5-0.3,0.7c-0.1,0.2-0.3,0.4-0.5,0.6c-0.4,0.1-0.9,0-1.2,0c-0.3-0.3-0.5-0.7-0.5-1.1
					c0-0.8,0.7-1.6,1.3-2c0.7-0.4,1.4-0.6,2.2-0.9c0.7-0.2,1.5-0.4,2.2-0.8c0.7-0.5,1.2-1.2,1.5-2.1c0.1-0.4,0.1-0.8-0.1-1.2
					c-0.1-0.1-0.2-0.2-0.3-0.3c-0.1-0.1-0.1-0.1-0.1-0.2c0.6,0.2,1.2,0.6,1.4,1.2c0.3,0.7,0.2,1.4,0.1,2.2c0,0.2-0.1,0.5-0.1,0.7
					l0,0.2l0.2-0.1c0.2-0.1,0.4-0.2,0.6-0.4c0.1-0.1,0.3-0.2,0.4-0.3c0.4-0.2,0.7-0.4,1-0.4c0.7-0.2,1.5-0.1,2.1,0.2
					C59.7,28.2,58.9,28.7,58.2,29.7"/>
			</g>
		</g>
	</g>
</g>
</svg>
