<svg xmlns="http://www.w3.org/2000/svg" xmlns:xlink="http://www.w3.org/1999/xlink" width="1333" zoomAndPan="magnify" viewBox="0 0 999.75 999.749992" height="1333" preserveAspectRatio="xMidYMid meet" version="1.0"><defs><clipPath id="080ef4df5e"><path d="M 1 0.863281 L 893 0.863281 L 893 562 L 1 562 Z M 1 0.863281 " clip-rule="nonzero"/></clipPath><clipPath id="23b64205fd"><path d="M 2 615 L 892 615 L 892 684.519531 L 2 684.519531 Z M 2 615 " clip-rule="nonzero"/></clipPath><clipPath id="b684d6dafb"><rect x="0" width="894" y="0" height="686"/></clipPath></defs><g transform="matrix(1, 0, 0, 1, 53, 157)"><g clip-path="url(#b684d6dafb)"><path fill="#ffffff" d="M 486.496094 209.332031 C 479.578125 204.722656 467.003906 202.417969 448.765625 202.417969 L 407.679688 202.417969 L 407.679688 263.808594 L 448.765625 263.808594 C 466.792969 263.808594 479.160156 261.503906 486.289062 256.894531 C 493.203125 252.285156 496.769531 244.324219 496.769531 233.007812 C 496.769531 221.902344 493.414062 213.941406 486.496094 209.332031 Z M 486.496094 209.332031 " fill-opacity="1" fill-rule="nonzero"/><path fill="#ffffff" d="M 733.84375 309.484375 C 728.1875 304.875 719.171875 302.566406 706.804688 302.566406 L 652.304688 302.566406 L 652.304688 360.1875 L 706.804688 360.1875 C 719.171875 360.1875 728.1875 357.882812 733.84375 353.273438 C 739.503906 348.664062 742.230469 341.328125 742.230469 331.480469 C 742.441406 321.425781 739.503906 314.09375 733.84375 309.484375 Z M 733.84375 309.484375 " fill-opacity="1" fill-rule="nonzero"/><path fill="#ffffff" d="M 733.007812 252.492188 C 738.667969 247.882812 741.601562 240.550781 741.601562 230.914062 C 741.601562 221.066406 738.667969 213.734375 733.007812 209.332031 C 727.347656 204.722656 718.332031 202.417969 706.175781 202.417969 L 652.515625 202.417969 L 652.515625 259.40625 L 706.175781 259.40625 C 718.332031 259.40625 727.136719 257.101562 733.007812 252.492188 Z M 733.007812 252.492188 " fill-opacity="1" fill-rule="nonzero"/><g clip-path="url(#080ef4df5e)"><path fill="#ffffff" d="M 1.863281 0.863281 L 1.863281 561.113281 L 892.105469 561.113281 L 892.105469 0.863281 Z M 319.222656 403.136719 L 256.335938 403.136719 L 145.660156 218.132812 L 145.660156 403.136719 L 92.625 403.136719 L 92.625 158.628906 L 160.960938 158.628906 L 266.398438 334.207031 L 266.398438 158.628906 L 319.222656 158.628906 Z M 502.847656 403.136719 L 446.042969 306.96875 L 407.679688 306.96875 L 407.679688 403.136719 L 353.808594 403.136719 L 353.808594 158.628906 L 461.554688 158.628906 C 492.574219 158.628906 515.425781 164.496094 529.886719 176.4375 C 544.351562 188.382812 551.6875 206.820312 551.6875 231.960938 C 551.6875 250.609375 547.285156 265.902344 538.273438 277.84375 C 529.257812 289.789062 516.472656 297.332031 499.703125 300.683594 L 563.847656 402.925781 L 502.847656 402.925781 Z M 779.960938 387.214844 C 765.917969 397.898438 744.117188 403.347656 714.351562 403.347656 L 598.433594 403.347656 L 598.433594 158.628906 L 704.917969 158.628906 C 721.6875 158.628906 735.101562 159.46875 745.585938 161.144531 C 756.066406 162.820312 764.449219 165.753906 770.949219 169.523438 C 780.378906 175.179688 787.71875 182.515625 792.539062 191.523438 C 797.570312 200.53125 800.085938 210.800781 800.085938 222.113281 C 800.085938 235.730469 796.941406 247.253906 790.863281 256.894531 C 784.78125 266.320312 774.929688 274.492188 761.933594 280.988281 C 775.351562 286.226562 785.203125 293.347656 791.492188 302.359375 C 797.777344 311.367188 801.132812 322.683594 801.132812 336.511719 C 800.921875 359.558594 794.003906 376.320312 779.960938 387.214844 Z M 779.960938 387.214844 " fill-opacity="1" fill-rule="nonzero"/></g><g clip-path="url(#23b64205fd)"><path fill="#ffffff" d="M 838.023438 629.835938 L 838.023438 617.683594 L 891.6875 617.683594 L 891.6875 629.835938 L 871.984375 629.835938 L 871.984375 683.261719 L 857.519531 683.261719 L 857.519531 629.835938 Z M 830.480469 683.054688 L 816.015625 683.054688 L 816.015625 617.683594 L 830.480469 617.683594 Z M 749.355469 617.683594 L 769.898438 672.578125 L 790.652344 617.683594 L 802.601562 617.683594 L 802.601562 683.054688 L 794.425781 683.054688 L 794.425781 628.578125 L 794.214844 628.578125 L 773.671875 683.054688 L 766.335938 683.054688 L 746.003906 628.578125 L 745.792969 628.578125 L 745.792969 683.054688 L 737.617188 683.054688 L 737.617188 617.683594 Z M 669.492188 617.683594 L 690.035156 672.578125 L 710.789062 617.683594 L 722.734375 617.683594 L 722.734375 683.054688 L 714.5625 683.054688 L 714.5625 628.578125 L 714.351562 628.578125 L 693.808594 683.054688 L 686.472656 683.054688 L 665.929688 628.578125 L 665.71875 628.578125 L 665.71875 683.054688 L 657.542969 683.054688 L 657.542969 617.683594 Z M 586.066406 637.585938 C 587.324219 633.398438 589.417969 629.835938 591.933594 626.691406 C 594.449219 623.550781 597.804688 621.035156 601.785156 619.148438 C 605.769531 617.265625 610.171875 616.21875 615.410156 616.21875 C 620.652344 616.21875 625.265625 617.265625 629.035156 619.148438 C 633.019531 621.035156 636.164062 623.550781 638.890625 626.691406 C 641.613281 629.835938 643.5 633.605469 644.757812 637.585938 C 646.015625 641.777344 646.644531 645.96875 646.644531 650.367188 C 646.644531 654.769531 646.015625 659.167969 644.757812 663.148438 C 643.5 667.339844 641.40625 670.902344 638.890625 674.042969 C 636.164062 677.1875 633.019531 679.699219 629.035156 681.585938 C 625.054688 683.472656 620.652344 684.308594 615.410156 684.308594 C 610.171875 684.308594 605.769531 683.472656 601.785156 681.585938 C 597.804688 679.699219 594.660156 677.1875 591.933594 674.042969 C 589.210938 670.902344 587.324219 667.128906 586.066406 663.148438 C 584.808594 658.957031 584.179688 654.769531 584.179688 650.367188 C 584.179688 645.96875 584.597656 641.777344 586.066406 637.585938 M 594.03125 660.214844 C 594.871094 663.359375 596.128906 666.292969 598.011719 668.804688 C 599.898438 671.320312 602.207031 673.414062 605.140625 674.882812 C 608.074219 676.347656 611.429688 677.1875 615.410156 677.1875 C 619.394531 677.1875 622.75 676.347656 625.683594 674.882812 C 628.617188 673.414062 630.921875 671.320312 632.808594 668.804688 C 634.695312 666.292969 635.953125 663.359375 636.792969 660.214844 C 637.632812 657.074219 638.050781 653.722656 638.050781 650.367188 C 638.050781 647.015625 637.632812 643.875 636.792969 640.519531 C 635.953125 637.378906 634.488281 634.445312 632.808594 631.929688 C 630.921875 629.417969 628.617188 627.320312 625.683594 625.644531 C 622.75 624.179688 619.394531 623.339844 615.410156 623.339844 C 611.429688 623.339844 608.074219 624.179688 605.140625 625.644531 C 602.207031 627.113281 599.898438 629.207031 598.011719 631.929688 C 596.128906 634.445312 594.871094 637.378906 594.03125 640.519531 C 593.191406 643.664062 592.773438 647.015625 592.773438 650.367188 C 592.773438 653.722656 593.191406 657.074219 594.03125 660.214844 M 561.121094 626.902344 C 557.765625 624.597656 553.785156 623.339844 549.171875 623.339844 C 545.191406 623.339844 541.835938 623.96875 539.109375 625.644531 C 536.386719 627.113281 534.082031 628.996094 532.195312 631.511719 C 530.308594 634.027344 529.050781 636.75 528.210938 639.890625 C 527.371094 643.035156 526.953125 646.386719 526.953125 649.738281 C 526.953125 653.511719 527.371094 657.074219 528.210938 660.214844 C 529.050781 663.566406 530.308594 666.5 532.195312 669.015625 C 534.082031 671.53125 536.386719 673.414062 539.109375 674.882812 C 541.835938 676.347656 545.191406 676.976562 549.171875 676.976562 C 552.105469 676.976562 554.621094 676.558594 556.929688 675.511719 C 559.234375 674.464844 561.121094 673.207031 562.796875 671.53125 C 564.476562 669.855469 565.734375 667.757812 566.570312 665.453125 C 567.410156 663.148438 568.039062 660.636719 568.246094 657.910156 L 577.050781 657.910156 C 576.214844 666.082031 573.277344 672.578125 568.457031 677.1875 C 563.636719 681.796875 556.929688 684.101562 548.753906 684.101562 C 543.722656 684.101562 539.320312 683.261719 535.546875 681.585938 C 531.773438 679.910156 528.628906 677.394531 526.113281 674.464844 C 523.597656 671.320312 521.710938 667.757812 520.457031 663.566406 C 519.199219 659.378906 518.570312 654.976562 518.570312 650.160156 C 518.570312 645.339844 519.199219 640.941406 520.664062 636.75 C 521.921875 632.558594 524.019531 628.996094 526.535156 625.855469 C 529.050781 622.710938 532.402344 620.199219 536.175781 618.523438 C 540.160156 616.636719 544.5625 615.796875 549.59375 615.796875 C 552.945312 615.796875 556.300781 616.21875 559.234375 617.054688 C 562.378906 617.894531 565.105469 619.359375 567.410156 621.035156 C 569.714844 622.710938 571.8125 625.015625 573.277344 627.742188 C 574.957031 630.464844 576.003906 633.398438 576.421875 636.960938 L 567.617188 636.960938 C 566.570312 632.769531 564.265625 629.417969 561.121094 626.902344 M 424.660156 637.585938 C 425.917969 633.398438 428.015625 629.835938 430.53125 626.691406 C 433.253906 623.550781 436.398438 621.035156 440.382812 619.148438 C 444.363281 617.265625 448.765625 616.21875 454.007812 616.21875 C 459.246094 616.21875 463.859375 617.265625 467.632812 619.148438 C 471.613281 621.035156 474.757812 623.550781 477.484375 626.691406 C 480.207031 629.835938 482.09375 633.605469 483.351562 637.585938 C 484.609375 641.777344 485.238281 645.96875 485.238281 650.367188 C 485.238281 654.769531 484.609375 659.167969 483.351562 663.148438 C 482.09375 667.339844 480 670.902344 477.484375 674.042969 C 474.757812 677.1875 471.613281 679.699219 467.632812 681.585938 C 463.648438 683.472656 459.246094 684.308594 454.007812 684.308594 C 448.765625 684.308594 444.15625 683.472656 440.382812 681.585938 C 436.398438 679.699219 433.253906 677.1875 430.53125 674.042969 C 427.804688 670.902344 425.917969 667.128906 424.660156 663.148438 C 423.402344 658.957031 422.773438 654.769531 422.773438 650.367188 C 422.773438 645.96875 423.402344 641.777344 424.660156 637.585938 M 432.625 660.214844 C 433.464844 663.359375 434.722656 666.292969 436.609375 668.804688 C 438.496094 671.320312 440.800781 673.414062 443.734375 674.882812 C 446.667969 676.347656 450.023438 677.1875 454.007812 677.1875 C 457.988281 677.1875 461.34375 676.347656 464.277344 674.882812 C 467.210938 673.414062 469.519531 671.320312 471.40625 668.804688 C 473.292969 666.292969 474.550781 663.359375 475.386719 660.214844 C 476.226562 657.074219 476.644531 653.722656 476.644531 650.367188 C 476.644531 647.015625 476.226562 643.875 475.386719 640.519531 C 474.550781 637.378906 473.292969 634.445312 471.40625 631.929688 C 469.519531 629.417969 467.210938 627.320312 464.277344 625.644531 C 461.34375 624.179688 457.988281 623.339844 454.007812 623.339844 C 450.023438 623.339844 446.667969 624.179688 443.734375 625.644531 C 440.800781 627.113281 438.496094 629.207031 436.609375 631.929688 C 434.722656 634.445312 433.464844 637.378906 432.625 640.519531 C 431.789062 643.664062 431.367188 647.015625 431.367188 650.367188 C 431.367188 653.722656 431.785156 657.074219 432.625 660.214844 M 366.804688 625.015625 L 366.804688 617.683594 L 419.210938 617.683594 L 419.210938 625.015625 L 397.410156 625.015625 L 397.410156 683.054688 L 388.816406 683.054688 L 388.816406 625.015625 Z M 318.175781 682.425781 C 314.402344 683.890625 310.628906 684.730469 306.644531 684.730469 C 301.824219 684.730469 297.421875 683.890625 293.441406 682.003906 C 289.667969 680.121094 286.3125 677.816406 283.585938 674.671875 C 280.863281 671.53125 278.765625 668.175781 277.507812 664.195312 C 276.042969 660.214844 275.414062 656.027344 275.414062 651.835938 C 275.414062 647.015625 276.042969 642.617188 277.300781 638.214844 C 278.558594 633.816406 280.652344 630.046875 283.167969 626.902344 C 285.683594 623.757812 289.039062 621.035156 292.8125 619.148438 C 296.585938 617.265625 301.195312 616.21875 306.4375 616.21875 C 310 616.21875 313.351562 616.636719 316.496094 617.472656 C 319.640625 618.3125 322.367188 619.570312 324.882812 621.453125 C 327.398438 623.339844 329.492188 625.4375 331.171875 628.160156 C 332.847656 630.882812 333.894531 634.234375 334.523438 638.007812 L 326.140625 638.007812 C 325.722656 635.492188 324.882812 633.398438 323.835938 631.511719 C 322.785156 629.625 321.320312 628.160156 319.640625 627.113281 C 317.964844 625.855469 316.078125 625.015625 313.773438 624.386719 C 311.675781 623.757812 309.371094 623.550781 306.855469 623.550781 C 302.871094 623.550781 299.519531 624.386719 296.582031 625.855469 C 293.648438 627.53125 291.34375 629.625 289.667969 632.140625 C 287.78125 634.65625 286.523438 637.796875 285.683594 640.941406 C 284.84375 644.292969 284.425781 647.644531 284.425781 651.207031 C 284.425781 654.558594 284.84375 657.910156 285.894531 661.054688 C 286.941406 664.195312 288.410156 666.921875 290.085938 669.433594 C 291.972656 671.949219 294.277344 673.835938 297.210938 675.300781 C 299.9375 676.769531 303.292969 677.394531 306.855469 677.394531 C 310.210938 677.394531 313.351562 676.769531 315.867188 675.71875 C 318.59375 674.671875 320.691406 673.207031 322.578125 671.109375 C 324.464844 669.226562 325.722656 666.921875 326.558594 664.40625 C 327.398438 661.890625 327.816406 658.957031 327.816406 656.027344 L 306.855469 656.027344 L 306.855469 648.691406 L 335.574219 648.691406 L 335.574219 683.054688 L 330.121094 683.054688 L 327.816406 674.882812 C 325.09375 678.445312 321.949219 680.957031 318.175781 682.425781 M 221.75 617.683594 L 256.128906 670.691406 L 256.335938 670.691406 L 256.335938 617.683594 L 264.511719 617.683594 L 264.511719 683.054688 L 255.078125 683.054688 L 220.914062 630.464844 L 220.703125 630.464844 L 220.703125 683.054688 L 212.527344 683.054688 L 212.527344 617.683594 Z M 197.855469 683.054688 L 189.050781 683.054688 L 189.050781 617.683594 L 197.855469 617.683594 Z M 158.65625 647.433594 C 160.542969 647.015625 162.007812 646.597656 163.476562 645.550781 C 164.945312 644.710938 165.992188 643.453125 166.832031 641.988281 C 167.667969 640.519531 168.089844 638.636719 168.089844 636.121094 C 168.089844 632.769531 167.25 630.046875 165.363281 628.160156 C 163.476562 626.0625 160.542969 625.015625 156.558594 625.015625 L 134.757812 625.015625 L 134.757812 647.855469 L 152.996094 647.855469 C 154.882812 647.855469 156.769531 647.644531 158.65625 647.433594 M 156.769531 617.683594 C 163.058594 617.683594 167.878906 619.148438 171.441406 622.292969 C 175.007812 625.4375 176.683594 629.625 176.683594 634.863281 C 176.683594 638.84375 175.84375 642.40625 173.957031 645.339844 C 172.070312 648.273438 169.347656 650.367188 165.363281 651.417969 L 165.363281 651.625 C 167.25 652.042969 168.71875 652.671875 169.976562 653.511719 C 171.234375 654.347656 172.070312 655.398438 172.699219 656.652344 C 173.328125 657.910156 173.957031 659.167969 174.167969 660.636719 C 174.585938 662.101562 174.796875 663.566406 175.007812 665.246094 C 175.214844 666.921875 175.214844 668.386719 175.214844 670.0625 C 175.214844 671.738281 175.425781 673.414062 175.636719 674.882812 C 175.84375 676.558594 176.265625 678.023438 176.683594 679.492188 C 177.101562 680.957031 177.730469 682.214844 178.777344 683.261719 L 169.136719 683.261719 C 168.507812 682.632812 168.089844 681.585938 167.878906 680.539062 C 167.667969 679.492188 167.460938 678.023438 167.460938 676.558594 C 167.460938 675.089844 167.25 673.625 167.25 671.949219 C 167.25 670.273438 167.039062 668.597656 166.621094 667.128906 C 166.410156 665.453125 165.992188 663.988281 165.78125 662.519531 C 165.363281 661.054688 164.945312 659.796875 164.105469 658.75 C 163.265625 657.703125 162.21875 656.863281 160.960938 656.234375 C 159.703125 655.605469 158.027344 655.1875 155.929688 655.1875 L 134.757812 655.1875 L 134.757812 683.054688 L 125.957031 683.054688 L 125.957031 617.683594 Z M 94.09375 617.683594 L 119.667969 683.054688 L 110.023438 683.054688 L 102.898438 663.359375 L 75.019531 663.359375 L 67.683594 683.054688 L 58.878906 683.054688 L 84.453125 617.683594 Z M 99.964844 656.234375 L 89.0625 625.644531 L 88.851562 625.644531 L 77.742188 656.234375 Z M 24.5 617.683594 C 34.5625 617.683594 42.316406 620.199219 47.769531 625.4375 C 53.21875 630.671875 55.945312 638.425781 55.945312 648.902344 C 55.945312 654.347656 55.316406 659.167969 54.058594 663.566406 C 52.800781 667.757812 50.914062 671.320312 48.398438 674.253906 C 45.882812 677.1875 42.527344 679.28125 38.546875 680.957031 C 34.5625 682.425781 29.949219 683.261719 24.5 683.261719 L 2.070312 683.261719 L 2.070312 617.894531 L 24.5 617.894531 Z M 25.339844 675.929688 C 26.386719 675.929688 27.433594 675.929688 29.113281 675.71875 C 30.578125 675.511719 32.046875 675.300781 33.722656 674.671875 C 35.402344 674.042969 37.078125 673.207031 38.546875 672.160156 C 40.222656 671.109375 41.6875 669.644531 42.945312 667.757812 C 44.203125 665.871094 45.253906 663.566406 46.089844 660.636719 C 46.929688 657.703125 47.347656 654.347656 47.347656 650.367188 C 47.347656 646.386719 46.929688 643.035156 46.300781 639.890625 C 45.460938 636.75 44.203125 634.234375 42.527344 631.929688 C 40.851562 629.835938 38.546875 628.160156 35.820312 626.902344 C 33.09375 625.855469 29.742188 625.226562 25.550781 625.226562 L 10.875 625.226562 L 10.875 675.929688 Z M 25.339844 675.929688 " fill-opacity="1" fill-rule="nonzero"/></g><path fill="#ffffff" d="M 1.234375 576.617188 L 224.054688 576.617188 L 224.054688 597.570312 L 1.234375 597.570312 Z M 1.234375 576.617188 " fill-opacity="1" fill-rule="nonzero"/><path fill="#ffffff" d="M 223.847656 576.617188 L 446.671875 576.617188 L 446.671875 597.570312 L 223.847656 597.570312 Z M 223.847656 576.617188 " fill-opacity="1" fill-rule="nonzero"/><path fill="#ffffff" d="M 446.671875 576.617188 L 669.492188 576.617188 L 669.492188 597.570312 L 446.671875 597.570312 Z M 446.671875 576.617188 " fill-opacity="1" fill-rule="nonzero"/><path fill="#ffffff" d="M 669.703125 576.617188 L 892.527344 576.617188 L 892.527344 597.570312 L 669.703125 597.570312 Z M 669.703125 576.617188 " fill-opacity="1" fill-rule="nonzero"/></g></g></svg>