<svg id="Layer_1" data-name="Layer 1" xmlns="http://www.w3.org/2000/svg" viewBox="0 0 516.13 592.29"><defs><style>.cls-1{fill:#fff;}</style></defs><path class="cls-1" d="M288.13,533.83c.2,9.14-6.54,10.11-13.27,11.23a8.29,8.29,0,0,1,5,7.45c.12,2-.74,4.14-1.37,6.15-.16.54-1,1-1.7,1.2-2.85,1-7.05-.86-8.24-3.63-.26-.61-.53-1.21-.82-1.8-.74-1.52-2-1.88-3.32-.83a31.52,31.52,0,0,0-3.3,3c-1.43,1.53-1.37,2.64.07,4.2s3.14,3.13,4.5,4.85c1.5,1.9,2.13,4.16.65,6.31s-4.46,4.21-7.36,3.31a4.75,4.75,0,0,0-2.92.24,2.11,2.11,0,0,0-.94,1.78c.79,4.25-1.23,6.89-5.7,7.16a33.26,33.26,0,0,1-3.6,0c-2.45-.11-3.61-1.08-4-3.5-.39-2.24-.6-4.51-1-6.74-.46-2.43-2.31-4-4.64-3.35s-3.21-.65-3.86-2.14a33,33,0,0,1-1.83-6.12,2.49,2.49,0,0,1,.81-1.82c1.21-1.22,2.79-2.14,3.77-3.5a4.93,4.93,0,0,0,.49-3.47c-.26-1.35-1.67-1-2.72-1.05a4.23,4.23,0,0,0-3.7,1.43c-3.47,3.7-9.53,2.94-11.78-1.23a5.8,5.8,0,0,1,.1-5.36,45,45,0,0,1,2.47-4.29,6.84,6.84,0,0,0-1.18-.59,14.14,14.14,0,0,1-7.47-5.58c-1.54-2.06-.49-4,1.63-6.26s3.23-2.16,5.92-.77a19.06,19.06,0,0,0,2.45,1.09,2.74,2.74,0,0,0,3.74-2.18,10.16,10.16,0,0,0-.09-3.39c-.41-2-1-2.31-3.07-1.8-1.85.46-3.68,1-5.54,1.38-2.29.49-4.22-.71-5.19-3.1s-.36-4.76,1.65-6a45.8,45.8,0,0,0,4-2.45,3.45,3.45,0,0,0,1.38-4c-.53-2-.18-4.26-.2-6.41,0-.17.09-.35.1-.53.39-4.05-.09-4.63-4-5.33a230.63,230.63,0,0,1-37.91-9.95c-5.54-2-11-4.32-16.5-6.34a21.64,21.64,0,0,0-6.09-1.29c-5.7-.31-11.36-.07-16.79,2a2.65,2.65,0,0,1-2-.16c-8.37-4.6-16.82-9.07-25-14C103.5,464,98,459.32,94.24,453a25.19,25.19,0,0,1-3.8-15.6,3.43,3.43,0,0,0-1.29-2.93C82.89,428,76.5,421.59,70.43,414.9a161.75,161.75,0,0,1-17.5-23.16c-4.52-7.24-9.23-14.38-13.34-21.84a219.4,219.4,0,0,1-17.76-41.82A258,258,0,0,1,14,295.32,197.72,197.72,0,0,1,10.82,262c0-8.73-.17-17.49.56-26.16.83-9.82,2.24-19.62,4-29.31,4.15-22.71,12-44.15,22.53-64.7a252,252,0,0,1,23.14-36.86A247.24,247.24,0,0,1,82.63,80a224.4,224.4,0,0,1,26.19-23.32c7-5.16,14-10.4,21.45-14.84a285.61,285.61,0,0,1,26.63-14c8-3.7,16.46-6.66,24.83-9.62a195.54,195.54,0,0,1,33.45-8.6c7.64-1.24,15.3-2.66,23-3.14,11.17-.69,22.39-.88,33.58-.72,6.6.09,13.19,1.32,19.79,2A178.63,178.63,0,0,1,323.61,14c10,2.93,19.95,6.4,29.73,10.13a200.93,200.93,0,0,1,33.85,17.12A248.45,248.45,0,0,1,417.3,63.11a254.19,254.19,0,0,1,29.14,28.63,221.68,221.68,0,0,1,14.37,18.54c5.88,8.58,11.57,17.33,16.67,26.39a207.72,207.72,0,0,1,18.24,43.2c2.89,9.8,5.17,19.8,7.17,29.81a177.42,177.42,0,0,1,2.92,22.39c.7,10,1.15,20.09,1,30.13a212,212,0,0,1-3,30.84,258.15,258.15,0,0,1-7.18,31.61,234,234,0,0,1-12.07,31.81,253,253,0,0,1-17.92,32.09,231.56,231.56,0,0,1-25.92,33.11c-9.77,10.21-20,20-31.33,28.37-7.67,5.67-15.52,11.14-23.62,16.16a221.9,221.9,0,0,1-50.29,23c-8.6,2.72-17.4,4.81-26.14,7.09-4.59,1.2-9.31,1.95-13.83,3.35-7.46,2.3-9.19,7.86-8,14.47a9.47,9.47,0,0,0,2,4.89c1.45,1.69,1.16,3.34-.43,5.53a4.17,4.17,0,0,1-4.73,1.18c-1.52-.5-3-1.23-4.5-1.71a1.75,1.75,0,0,0-1.44.57,5.73,5.73,0,0,0-.84,1.78c-.71,1.89-.27,2.79,1.61,3.59C282.1,531.17,285.1,532.51,288.13,533.83ZM201.45,404.3c5.87,1.76,11.47,3.35,17,5.13a5.35,5.35,0,0,0,5.14-.79c9.19-6.14,19.27-9.43,30.42-8.76,2.13.13,4.34,0,6.38,1.22a21,21,0,0,0,14,2.56c6-.81,11.94-2.17,17.9-3.33,7.76-1.52,15.21-1.27,22,3.51a2.06,2.06,0,0,0,1.64.06c2.44-.95,4.85-2,7.26-3a150.3,150.3,0,0,0,28.64-16.1,159.76,159.76,0,0,0,29.95-27.43A158.11,158.11,0,0,0,403,324.67a161.43,161.43,0,0,0,11.82-33.54A142,142,0,0,0,418.67,266c.38-7.47.28-15,.05-22.45a143.74,143.74,0,0,0-3.15-24,150.63,150.63,0,0,0-15.63-42.73,162.55,162.55,0,0,0-24.06-33.39,157.4,157.4,0,0,0-38.58-30.12,161.1,161.1,0,0,0-32.73-13.61,148.21,148.21,0,0,0-27.27-5.46,176.66,176.66,0,0,0-21.46-.76c-7.26.18-14.54.9-21.75,1.79a138.58,138.58,0,0,0-30.49,7.83A163.16,163.16,0,0,0,173.54,118a160.68,160.68,0,0,0-33.64,28,157.63,157.63,0,0,0-24.12,34.69A152.93,152.93,0,0,0,105.35,206c-2.57,8.47-4.78,17.06-5.57,25.91-.71,8-1.54,16-1.6,24a141.57,141.57,0,0,0,2.25,25.36,169.38,169.38,0,0,0,6,23.95,163.65,163.65,0,0,0,9.89,23.42,150.72,150.72,0,0,0,23,33c1.22,1.34,2.87,2.24,4.78,1.51,8.67-3.33,17.05-2.36,25.28,1.53,9.11,4.3,16.64,10.95,24.83,16.6a1.7,1.7,0,0,1,.67,1.16c0,2.76,1.43,4.88,3.12,6.85s3.34,3.58,4.86,5.49a5.53,5.53,0,0,1,.48,6.69C202.83,402.33,202.23,403.14,201.45,404.3ZM292.94,75.77a10,10,0,0,1,1.51-.64c1.56-.31,4.14,1.46,3.72,2.69-1.28,3.77.76,5.89,3.37,8.05a46,46,0,0,1,4.44,5,2.6,2.6,0,0,0,1.1.77,184.16,184.16,0,0,1,27.6,10.87,157.56,157.56,0,0,1,24.88,15.18,162,162,0,0,1,31,30,177.28,177.28,0,0,1,20.85,33.16A165.41,165.41,0,0,1,423,213.55,141.62,141.62,0,0,1,427,239c.4,7.34.66,14.71.36,22.05a205.1,205.1,0,0,1-2.12,20.66,156.88,156.88,0,0,1-10.57,37.49A164.26,164.26,0,0,1,389.55,361a155.67,155.67,0,0,1-21.87,22.14,176.78,176.78,0,0,1-27.59,18.9,151.8,151.8,0,0,1-24.66,11c-6.76,2.24-13.67,4-20.55,5.85-3.28.87-5.77,4.89-4.77,8.12,1.39,4.56,2.74,9.14,4.14,13.7.59,1.91,1.26,3.79,1.89,5.69l.58-.18a42.58,42.58,0,0,0-1.43-5.63,22.25,22.25,0,0,1-1.5-10.17c.18-2.22,1.1-3.22,3.23-3.21a8.63,8.63,0,0,0,4.52,5.44c.88.5,1.67,1.14,2.53,1.67,2.1,1.27,2.93,3.17,3.46,5.53.85,3.81,2.15,7.52,3.26,11.27l.5-.14a1.66,1.66,0,0,0,.07-.49c-1-5.85-2-11.71-3.06-17.55-.34-1.86-1.09-3.64-1.59-5.48-.73-2.65-.2-3.73,2.34-4.93,5.36,5.35,4.93,12.62,6.29,19.31,0-4-.23-7.93,2.63-11.8a45.06,45.06,0,0,1,2.43,6c.89,3.53,1.46,7.13,2.18,10.7.57,2.8,1.68,4.93,3.16,5.92-3.22-12.42-6.47-24.65-6.26-37.95,1,.51,2.19.7,2.48,1.3a53.93,53.93,0,0,1,3.51,8.62c2,7.19,3.65,14.46,5.45,21.7.61,2.43,1.24,4.85,1.86,7.27l.7-.1c-.21-2.71-.07-5.5-.71-8.1-1.29-5.21-3-10.32-4.54-15.46-1.43-4.76-1.78-9.49.33-14.16.47-1,1-2.48,2.29-2s2.74.81,3,2.78c1.27,9.83,1.94,19.76,4.63,29.37.63,2.27,1.48,4.49,2.23,6.74l.51-.14a18.81,18.81,0,0,0-.06-4.38c-1-3.94-2.16-7.81-3.28-11.7-1.18-4.08-2.16-8.18-.73-12.59,2.54,1.57,4.65,3.49,5.56,6.2,1.1,3.33,1.76,6.8,2.58,10.22,1,4,1.89,8,2.83,12,.42,1.77,1.49,2.32,3.29,1.61a9.8,9.8,0,0,0-.13-1.16c-1.33-5.63-2.57-11.29-4.07-16.89-.46-1.73.21-2.67,1.26-3.68s1.95-.92,2.57.38a45.37,45.37,0,0,1,2.13,4.92c.48,1.42,1.15,1.7,2.53,1.17,2.79-1.06,4.23-.32,5.11,2.55.64,2.05,1.13,4.15,1.79,6.19s1.6,4.23,4.17,5a3.09,3.09,0,0,0,.09-.78c-.87-4.38-1.33-8.9-2.74-13.11-2.66-8-5.87-15.76-8.85-23.62-.66-1.71.15-3.06,2-2.75,1.22.21,2.31,1.2,3.44,1.87.8.47,1.57,1,2.35,1.49l.39-.43c-2.29-5.54-7.57-10.33-4.73-17.35,3.15,1.67,4.89,4.31,6.3,7.17s2.6,5.69,4.07,9a10.1,10.1,0,0,0-.83-6.51c-1.09-2.39-2.32-4.71-3.41-7.1a7.42,7.42,0,0,1,1-8.23c.54.66,1,1.22,1.42,1.73a36.82,36.82,0,0,1,9.62,22.3,19.09,19.09,0,0,1-.56,6.53c-.95,3.31-3.75,5.11-6.6,6.75-.59.35-1.46,1-1.45,1.47.13,5.9,2.37,11.12,5.31,16.12,1.49-1,1.81-1.75,1.51-3.3a11,11,0,0,1-.36-3,2.16,2.16,0,0,1,3.63-1.47c1.15,1,2.2,2,3.34,3,.82.68,1.51,1,2.26-.32a9.48,9.48,0,0,1,7.37-5.08,4.86,4.86,0,0,0,2-.55,92.35,92.35,0,0,0,8-5.44,20.59,20.59,0,0,0,4.47-5,3.92,3.92,0,0,0-.72-5.31,56.29,56.29,0,0,1-4.3-4.81Q390.32,403.41,380,391.13a2.59,2.59,0,0,1-.56-1.44c-.08-1.24,0-2.49,0-3.67,2.06-1,6.33-.86,9.38,0,6.29,1.76,11,5.79,15.34,10.44,1.51,1.63,2.91,3.37,4.5,5.22a22.92,22.92,0,0,1,.51-3.55,2.63,2.63,0,0,1,1.33-1.52c2-.81,3.59.18,4.87,1.64,1.49,1.71,2.84,3.53,4.29,5.27a2.76,2.76,0,0,0,3.23,1.17c-.39-.73-.69-1.44-1.1-2.07a2.37,2.37,0,0,1,.48-3.35,3.6,3.6,0,0,1,2.88,0c1.21.44,2.22,1.4,3.42,1.92a1.86,1.86,0,0,0,1.72-.33c5.92-7.74,12-15.37,17.58-23.35a192,192,0,0,0,16.24-28.84A215.73,215.73,0,0,0,479.2,304.9c2.5-11,4.58-22.15,5.07-33.48.38-8.73.84-17.47.63-26.2a177.94,177.94,0,0,0-4-34.87c-2.08-9.2-4.36-18.39-7.15-27.39a213.14,213.14,0,0,0-15.46-36A207.22,207.22,0,0,0,435.92,113,247.07,247.07,0,0,0,410,85.46a233.46,233.46,0,0,0-24.17-19.17,223.62,223.62,0,0,0-30.53-17.56,185.84,185.84,0,0,0-27.9-10.91c-9.57-2.82-19.36-4.94-29.07-7.26-4.5-1.08-4.59-1-8,2.13-1.77,1.65-3.45,2.73-5.74,1.05-.07,0-.23,0-.35.07-.48,2.48-.27,2.75,2.18,2.77.48,0,1,0,1.44,0A1.72,1.72,0,0,1,290,38.12a25,25,0,0,1,.57,5.49c-.25,3.64-.83,7.25-1.3,10.87-.11.9,0,1.36,1.08,1.63a4.43,4.43,0,0,1,3.33,3.67,25,25,0,0,1,.28,5.53C293.72,68.7,293.3,72.08,292.94,75.77ZM131.88,375.63c1-.36,2-.46,2.59-1,1.05-1,.75-4.71-.21-5.87-4.41-5.34-9-10.53-13.13-16.09a151.62,151.62,0,0,1-16-27.38,178.52,178.52,0,0,1-9.85-27.64,144.91,144.91,0,0,1-4.72-27.5c-.54-7.86-.58-15.78-.5-23.66A139,139,0,0,1,93.43,218a167.36,167.36,0,0,1,9.87-30.82,181,181,0,0,1,21-35.81c1.09-1.47,2.26-2.87,3.44-4.36l-25.18-25.93c-2.45,2.74-3.28,3-5.93,1.85a16.54,16.54,0,0,1-2.84-1.83c-1.32-1-2.59-2-3.9-3.06-2.27,3.88-5.1,4.23-8.13,1.13-.81-.83-1.56-1.74-2.45-2.73a14.09,14.09,0,0,1-.83,1.35A229.1,229.1,0,0,0,58.26,150a215.11,215.11,0,0,0-18.1,46.21c-2.25,8.79-3.7,17.8-5.28,26.75a174.6,174.6,0,0,0-2.27,29c-.09,11.5.29,23,2.38,34.35,1.6,8.74,3.14,17.52,5.25,26.16,3.79,15.52,9.82,30.23,17.09,44.43A245.67,245.67,0,0,0,78,389.78c.71,1,1.29,1.14,2.34.53,2.84-1.65,5.72-3.22,8.62-4.77a1.85,1.85,0,0,1,1.53-.1,2.34,2.34,0,0,1,.08,3.92c-1.21,1-2.58,1.72-3.82,2.64-1,.73-2,1.52-1.6,3.36,1.72-1.3,3.31-2.43,4.81-3.66,4.06-3.32,8.07-6.71,12.17-10,.5-.4,1.46-.27,2.21-.28,1.34,0,2.91.46,4-.08a45.3,45.3,0,0,0,6.29-4.28c2.67-2,5.08-4.42,8-6C126.64,368.75,131,370.89,131.88,375.63ZM98.07,425.68C51.46,379.58,24.9,324.49,23.81,258.53S46.47,136,92,88.8c58.69-60.88,160.76-94.08,260.25-51,84.09,36.41,151.23,126.8,140.57,238.48-5.19,54.39-27.47,101.15-65.3,140.39s-84.36,62-138.45,69.85c.29,2.28.59,4.55.88,6.82C408.76,478.05,500,375.88,500.8,256.07c.39-58.21-17.62-110.25-54.63-155.09C404.58,50.58,351.39,20.31,286,13c-51.59-5.74-100.21,4.35-145.3,29.82C89.48,71.76,53.24,114.25,32.45,169.09c-39,103-1.23,204.38,61.15,261.27C95.07,428.81,96.55,427.27,98.07,425.68Zm37.32-293.45c2.6-3.4,2.6-3.42,6.79-3.12a5.72,5.72,0,0,0,4.33-1.47c6.1-4.88,12.17-9.85,18.6-14.27a146.29,146.29,0,0,1,29.53-15.61c5.76-2.27,11.54-4.59,17.48-6.3a165.88,165.88,0,0,1,19.33-4.29A179.49,179.49,0,0,1,252.26,85c7.05-.31,14.13.21,21.2.24,3.06,0,6.12-.31,9.18-.48a2.2,2.2,0,0,0-1.11-1A6.15,6.15,0,0,1,277.6,79a22.1,22.1,0,0,1,0-5.33c.42-3.86,1.07-7.69,1.51-11.55a2.1,2.1,0,0,0-.74-1.75c-3.34-1.67-4.09-4.6-4.12-7.94,0-1.28,0-2.57,0-3.85-4.64,0-6.34-3.44-4.86-7a16.07,16.07,0,0,0,1.07-9.26c-.74-4.14-1.35-5.05-5.55-5-5.69.06-11.38.13-17.07.33-4,.15-8,.32-12,.85-6.49.88-12.94,2.1-19.41,3.1a171.91,171.91,0,0,0-28.3,7.39,226.65,226.65,0,0,0-30.49,12.73,232.06,232.06,0,0,0-27.89,16.44,241.35,241.35,0,0,0-36,31,8.9,8.9,0,0,0-2.51,8.07,3.81,3.81,0,0,0,1.8,2.39c.46.27,1.67-.29,2.25-.81a3,3,0,0,1,3.76-.37c7,3.33,12.58,8.37,17.45,14.28.8,1,1.62,1.89,2.45,2.85,2.57-3,3.88-3.23,7.19-1.28A12,12,0,0,1,128,125.6C130.45,127.77,132.87,130,135.39,132.23ZM255.36,423c-2.48-1.8-5.08-2.21-8.77-1.39-3.2.71-6.26,1-8.86-1.66-.23-.23-1.14-.07-1.55.19-2,1.28-2.78,3.35-3.52,5.46-.95,2.68-2.24,5-5.42,5.61a1.58,1.58,0,0,0-1,.86c-1,2.81-1.1,5.49,2.74,6.42.75.18,1.51.37,2.24.62a36.46,36.46,0,0,1,4.47,1.71,2.61,2.61,0,0,1,1.14,1.84c0,.31-1,.81-1.56,1.11a20.54,20.54,0,0,1-2.06.82l.18.44h5.93c-2.29-5.79-1.39-10.37,2.41-12.88,3.5-2.32,7.1-1.73,10.47,1.71,4.06-4.27,8-5.15,12.29-2.77,3.72,2.05,5.47,6.95,4.2,11.79-1.2,4.58-4.26,6.8-9.39,6.78V444.3l1.2-.14c2.71-.33,4-1.8,3.93-4.36s-2-4.27-4.77-4.34a4.14,4.14,0,0,0-4.43,4c-.09.92-.16,1.84-.24,2.68h-4.24c-.12-2.62.31-5.55-3.37-5.95a3.74,3.74,0,0,0-4.24,2.77c-.58,2.63.19,3.55,4.41,5.28v4.45c-2.45.29-4.71.68-7,.77-3.11.13-6.24,0-9.35.05s-5,1.53-5.3,4.12a114.56,114.56,0,0,0-.79,12c0,4,1.84,5.83,5.75,6.53.39.07.8.09,1.7.19-.69,1.39-1.26,2.53-1.95,3.89,2.15.89,5.67-.81,6.92,2.69-1.22,1.41-2.74,1.61-4.43,1.56-1.86-.06-3.69.17-5,1.74,1.37,2.81,1.25,3.34-.44,6a20.86,20.86,0,0,0-2.18,4.45c-.41,1.18-.18,2.56-.52,3.77-1.65,5.83-.94,11.38,2.56,16.26,2.43,3.38,5.49,6.29,8.24,9.45,2.15,2.46,4.5,4.27,8,3a2.77,2.77,0,0,1,1.25,0c5.86.73,11.72,1.41,17.56,2.27,2.31.34,3.16-.2,3.3-2.59a2.67,2.67,0,0,1,.82-1.73c4.19-3.28,8.46-6.45,12.63-9.75a3.18,3.18,0,0,0,1.07-2.19c.09-4.25,0-8.5,0-12.76,0-4.66-.12-4.73-4.73-5.06a7.58,7.58,0,0,1-3.83-1.51c-1.12-.88-.7-1.93.67-2.5,1.79-.74,3.58-1.51,5.37-2.27-.38-1.55-1.5-1.71-2.67-1.77a27.17,27.17,0,0,1-3.73-.2c-1.67-.32-2.26-1.59-1.16-2.84a9,9,0,0,1,3.52-2.1,26.92,26.92,0,0,1,4-.91v-.52c-3.63-2-7.85-1.92-12.22-2.93a18.83,18.83,0,0,1,1.71-.79c2.81-1,5.69-1.77,8.44-2.88,3.3-1.33,5.81-3.45,5.41-7.5-.15-1.51-.68-3-.72-4.5-.05-2-1.35-2.59-2.91-3.08a27.57,27.57,0,0,1-3.64-1.39,1.4,1.4,0,0,1-.47-1.24c.71-2.84.66-3-2.13-3.95-.44-.16-.9-.29-1.34-.47-2-.84-2.65-1.79-2.25-3.27a3.52,3.52,0,0,1,3.95-2.54c1.25.13,2.5.23,3.75.26a3.56,3.56,0,0,0,4-3.62,14.68,14.68,0,0,0-.33-3.55c-.57-2.8-1.24-5.58-1.89-8.35a1.3,1.3,0,0,0-.53-.84c-2.6-1.11-3.15-3.37-3.43-5.84s-1.64-4.47-3.58-4.7c-3.31-.39-6.64-.58-10-.81-1-.06-1.44.29-1,1.44a2.17,2.17,0,0,1-.19,1.84A37.42,37.42,0,0,1,255.36,423Zm-64-24.1-.18,0c0-.48,0-1,0-1.44-.39-5.11-1.75-9.65-7-11.94a11.6,11.6,0,0,1-2-1.25c-5.5-3.9-10.88-8-16.55-11.63-4.94-3.17-10.33-3.82-15.85-1.12-2.94,1.43-4.6,4.07-6.46,6.56-7,9.44-14.28,18.72-21.09,28.32-6.22,8.77-12,17.89-18,26.82a15.37,15.37,0,0,0-3,7.92c-.25,5.06.46,9.85,4.6,13.2,5.44,4.39,11,8.73,16.77,12.57,6.67,4.39,14.06,6.5,22.16,4.63a4.13,4.13,0,0,0,2.85-1.86c5.09-7.95,10.13-15.94,15.38-23.78,4.22-6.31,8.57-12.53,13.13-18.6a48.67,48.67,0,0,0,6.22-10c1.72-4,3.55-8,7.61-10.37a1.35,1.35,0,0,0,.43-.91C190.79,403.6,191.06,401.23,191.35,398.86Zm-33.28,74.68a241.89,241.89,0,0,0,59.37,18.37c.39-2,.76-3.93,1.12-5.85.18-.93-.27-1.15-1.16-1.33-5.83-1.17-11.71-2.21-17.45-3.72a239.69,239.69,0,0,1-32.43-11l-6.42-2.7Zm58.35-31.47c-1.39-.89-2.62-1.6-3.78-2.42-2.65-1.86-4.77-.95-5.18,2.27a23,23,0,0,1-.28,2.5c-1.64,6.66-3.33,13.31-5,20-.75,3-1.44,6.06-2.15,9.09l.43.19,3.59-2.76a8.55,8.55,0,0,1-.91-.69c-1.56-1.66-1.55-2.61-.25-4.4a8.22,8.22,0,0,0,1.22-2.55c.46-1.6.74-3.26,1.13-4.88a4.52,4.52,0,0,1,4.08-3.74c2.28,6.49-1.74,12-2.61,18a4.31,4.31,0,0,0,1.45-1.5c.75-1.74,1.45-3.52,2-5.32,1.11-3.43,2-7,6.2-8ZM202,444.25l.61.14a47,47,0,0,0,1.18-4.89c.37-2.84-1.64-4.61-3.35-6.37-3.51-3.62-8.11-5.14-12.88-6.21a1.48,1.48,0,0,0-1.31.55,6.73,6.73,0,0,0-.59,3.21c.38,1.91,1.62,3.68.08,6.13,1-.61,1.48-.92,2-1.14,1.66-.72,4-.06,4.44,1.49.81,2.68,2.63,3.49,5.17,3.35.54,0,1.08,0,1.62,0,2.12,0,2.8.68,2.91,2.73C201.83,443.57,201.92,443.91,202,444.25Zm64.71,95.25c-2.53-.13-5.12-.24-7.7-.39-2.13-.13-4.27-.4-6.4-.4a9.8,9.8,0,0,0-2.73.82l.18.54a30.24,30.24,0,0,1,3.81.45c2.48.6,4.89,1.46,7.38,2A4.44,4.44,0,0,0,266.68,539.5Zm56.79-63.14-.72-4.18c-3.36,3.65-6.54.38-9.7.41-.8,3.8-.17,4.45,3.4,3.6a4.51,4.51,0,0,0,.53-.07A6.86,6.86,0,0,1,323.47,476.36Zm-135-28.31a11.24,11.24,0,0,0-.87,1.62c-.28.84-.87,2-.55,2.53a3.23,3.23,0,0,0,3.29,1.65c1.54-.17,3.34-2.52,3.71-5.05C192,450.5,190.42,448.76,188.5,448.05Zm75.92,83.44-16.35,1.4,0,.41h17ZM296.64,86.94c-1.86-2-3.39-3.63-5.17-5.52-.39,2.08-.71,3.77-1.05,5.52ZM131.5,138.56c.87-3.08-1.29-4.23-3-5.56a4.8,4.8,0,0,0-4.36-1ZM406.32,410.22c0,3.92,3.51,8.37,6.4,8.14Zm-50.2,33.61-.56-.09c-.11.41-.39.87-.29,1.23.6,2.24,1.24,4.46,2,6.66.12.37.76.57,1.15.84l.48-.46ZM247.8,546.42l.26-.5c-.27-.22-.52-.59-.81-.62-2.29-.26-4.6-.48-6.91-.65-.23,0-.49.35-.74.54.26.26.5.72.77.75C242.84,546.14,245.32,546.27,247.8,546.42ZM417.12,412.09a4.74,4.74,0,0,0-4.21-4.94ZM216,470.4l-.47.09c.23,1.53.46,3.06.72,4.74l2-.3C217.38,473.25,216.68,471.83,216,470.4Zm-20.52-9.17c-.49,1.86-1,3.71-1.58,6C196.33,465.46,195.94,463.35,195.45,461.23ZM316,444.47l-.45.15,1.81,5.32.41-.13Z"/><path class="cls-1" d="M216,470.4c.71,1.43,1.41,2.85,2.25,4.53l-2,.3c-.26-1.68-.49-3.21-.72-4.74Z"/><path class="cls-1" d="M195.45,461.23c.49,2.12.88,4.23-1.58,6C194.48,464.94,195,463.09,195.45,461.23Z"/><path class="cls-1" d="M316,444.47l1.77,5.34-.41.13-1.81-5.32Z"/><path class="cls-1" d="M309.49,244.26h1.43c3.65,0,6,1.46,7.33,4.89s2.2,6.84,3.56,10.14a33.59,33.59,0,0,0,3.22,5.06,6.2,6.2,0,0,1-6.94.68,59.24,59.24,0,0,1-6.9-4.46,26.12,26.12,0,0,0-7.94-4.27c-2.4-.69-4.49-2.43-6.73-3.69s-4.63-2.16-7.24-.77c.09.21.12.39.17.4,3.16.32,4.13,2.64,4.85,5.22.25.92.56,1.83.88,2.73,1.08,3.05,2.65,4.09,5.72,3.5a8.25,8.25,0,0,1,7.3,2.06c2.76,2.45,5.22,5.24,7.91,7.78a39.79,39.79,0,0,0,4.6,3.67c1.38,1,2.71,4.83,2,6.42a2.93,2.93,0,0,1-3.45,1.87c-4-.6-7.29-2.82-10.81-4.56a30.66,30.66,0,0,0-8-2.95c-2-.36-4.27.47-6.42.77l-.36.7c1,1.31,1.83,2.95,3.13,3.85a28.46,28.46,0,0,0,6.38,3.14c3.06,1.12,4.93,3.54,6.9,5.83s3.9,5,7.25,5.78c.17,0,.41.15.44.27.61,2.32,2.46,4.46,1.5,7-1.07,2.88-2.34,5.92-6,6.21a90.48,90.48,0,0,1-9.46-.06,22.31,22.31,0,0,1-2.73-.39c-.89-6.28-6.56-7.7-11.08-10.44-2.3-1.4-4.38-3.18-6.82-5-2.75,1.63-6.24,1.08-9.75.66-2.55-.31-5.16-.75-7.44.92a2.41,2.41,0,0,0-1,1.52c.08,5.39.26,10.78.41,16.17a3.8,3.8,0,0,0,1.88,3c3.4,2.52,6.95,4.93,9.24,8.61a19.92,19.92,0,0,1,2.12,4.87,3.23,3.23,0,0,0,2.63,2.37,18.41,18.41,0,0,0,4.07.23,7.93,7.93,0,0,1,5.81,1.78,4.47,4.47,0,0,0,2.79.65c5.07,0,5.72.78,4.54,5.72-.55,2.31.66,3.62,3.05,3,3.52-.86,7-2,10.49-2.84,6.19-1.42,12.8,3.4,13.77,9.7.51,3.31-1.61,5-3.57,6.94a8.66,8.66,0,0,1-6.47,2.58c-3.94-.1-7.87-.46-11.8-.59a11.87,11.87,0,0,0-7.1,1.95,7.84,7.84,0,0,1-4.24,1.12c-4-.1-8-.58-12-.77-2.72-.12-5.46,0-8.19,0a14.85,14.85,0,0,1-2.92-.54c-5.39-1.23-10.82-.86-16.25-.46-5.24.4-10.57,1.14-15.66-.4-3.85-1.16-6.93.74-10.35,1.37-4.84.89-9.58,1.23-14-1.57a4,4,0,0,0-2.37-.2c-4.55.61-9.07,1.62-13.62,1.81a16.45,16.45,0,0,1-7.87-1.81c-3.9-2-4.82-8-2.46-11.72s5.77-5,9.91-5.44c3.17-.31,6.49,0,9.39-1.77a15.58,15.58,0,0,0,2.12-1.61c.56-.49,1.13-1.58,1.53-1.51a13.06,13.06,0,0,1,3.19,1.41c.24.12.38.44.6.7-.3.6-.6,1.18-.86,1.78-.43,1,0,1.59.92,2a1.29,1.29,0,0,0,1.92-1,4,4,0,0,0,.26-1.76c-.37-2.09.92-3,2.46-3.87,3.3-1.92,6.63-3.8,9.77-6a9,9,0,0,0,3.68-7.17c5.24-.48,8.67-4.35,12.84-7,2.89-1.82,3.85-4,3.84-7.32,0-4,.91-8.06,1.2-12.11a23.56,23.56,0,0,0-1.88-11.76c-4.06,3.43-8.58,2-12.9,1.33-4.12-.6-7.33.77-8.59,4.73-.4,1.26-2.93,2.18-4.64,2.6-4.88,1.21-9.72,0-14.54-.81-5.38-.94-10.74-1.75-16,.49-1.26.53-3.49-1.14-3.87-2.72-.81-3.42,1.9-7,5.38-6.5,4.06.61,6-1.48,7.54-4.57.32-.64.64-1.28,1-1.91,1.42-2.61,3.45-4.15,6.59-4.07,8.1.21,15.31-2.54,22-6.84,1.91-1.22,3.76-2.58,5.77-3.61a17.62,17.62,0,0,1,4.49-1.39c2.2-.46,4.54-.47,6.62-1.22,1.07-.39,2-1.83,2.5-3,.92-2.07-.71-3.25-2.17-4.14a3.89,3.89,0,0,0-4.71.15,15.84,15.84,0,0,0-2.85,3.4c-1.44,2.21-3.13,3.74-6,3.35a1.94,1.94,0,0,0-1.49.67c-3.5,4.15-8.32,5.83-13.3,7.24-3,.86-6.06,1.71-9.06,2.67a2,2,0,0,1-2.32-.37c-1.57-1.44-3.61-1.48-5.6-1.08-2.74.55-5.44,1.23-8.17,1.82s-3.79-.28-3.32-2.9a32.43,32.43,0,0,1,2-5.71c.09-.26.57-.38.88-.56,5.94-3.32,11.86-6.67,17.83-9.95,2.19-1.21,4.48-2.24,6.74-3.33a9.62,9.62,0,0,0,1.46-.64c1.46-1.12,3.06-2.59,2.53-4.41a4.42,4.42,0,0,0-4.6-2.8,36.13,36.13,0,0,0-7.72,1.7c-2.31.72-4.48,1.89-6.77,2.71-4.28,1.53-6.42.14-7-4.45-.13-1.11-.2-2.24-.32-3.57,3.76-.51,5-3.62,6.49-6.57,1.26-2.56,2.88-4.37,6-5,2.06-.39,3.79-2.36,5.7-3.56,5.67-3.57,11.66-6.24,18.47-6.6l6.45-.35c.4-2.11,1.64-3.91,4.4-3.82a26.54,26.54,0,0,1,4.23.65c2.74.56,4-.08,5.37-2.95a35,35,0,0,0-3.6-.69c-6-.48-11.75.69-17.61,1.5s-10.41,4.21-15.42,6.73c-3.38,1.71-6.86,1.78-9.88-1.08a2.78,2.78,0,0,1-.78-3.14c.83-2.89,3-4.47,5.47-5.82,2.76-1.51,5.5-3.08,8.25-4.63a1.33,1.33,0,0,0,.31-.18c3.07-3.17,3.88-3.67.16-7.33-1.61-1.59-3.47-2.91-5.11-4.47-1.86-1.77-1.78-3.36,0-5.17a31,31,0,0,1,12.56-7.34c6.32-2.07,12.75-3.84,19.11-5.81,1.64-.5,3.19-1.29,4.77-1.94-.58-2-2.06-3.28-4.12-3a49.8,49.8,0,0,0-10,1.9c-4,1.35-7.19.57-9.94-2.43a2.15,2.15,0,0,1-.39-1.78c1.84-5.81,6-9.49,11.56-11.35a127.1,127.1,0,0,1,14.31-3.65,8.12,8.12,0,0,0,6.4-5.46c.28-.74.33-2.15-.07-2.42a4.15,4.15,0,0,0-2.94-.54,22.31,22.31,0,0,0-3.91,1.69c-2.65,1.19-5.55.14-5.92-2.34-.34-2.32-.29-4.77,1.2-6.73a22.49,22.49,0,0,1,4.16-4.11c1.85-1.4,4-2.46,5.92-3.7,3.42-2.18,5.49-5.88,3.46-11.87a3.83,3.83,0,0,1,4.47-.47,3.44,3.44,0,0,1,1.91,3.87,10.56,10.56,0,0,1-.42,2.65c-.95,2.55-.12,4.62,1.64,6.38,2.15,2.16,4.38,4.25,6.65,6.29,3.14,2.83,4.43,6.18,3.21,9.21a9.8,9.8,0,0,1-2.39,3.93c-.82.69-2.44.58-3.69.53-1.48-.05-2.94-.5-4.43-.65s-2.12.57-2,2c.13,1.77.67,3.27,2.61,3.73,3.82.89,7.66,1.69,11.48,2.61a56.59,56.59,0,0,1,8.06,2.26c4.31,1.76,5.88,5.52,6.12,9.9,0,.42-.69,1-1.19,1.31-3.86,2.17-8.07,2.16-12.22,1.44-5-.87-9.86-2.16-14.79-3.28-1.31,2.35-1.12,3.55,1.26,4.78s4.71,2,7.14,3c2.18-1.75,4.48-1.51,6.79-.18,1.7,1,3.33,2.14,5.09,3a24.79,24.79,0,0,0,3.87,1.18c.33.09.83,0,1,.23,2.2,2.93,5.69,3.56,8.71,5.06a10.81,10.81,0,0,1,3.72,2.38,9.14,9.14,0,0,1,1.86,4.44,5.09,5.09,0,0,0,1.56,3.57,7.46,7.46,0,0,1,2.13,3c1.2,3.82.32,5.26-3.45,5.63-2.16.21-4.67.3-6.3-2-.44-.64-1.64-.85-2.53-1.05a9.15,9.15,0,0,0-2.34,0c-2.2.08-4.36,0-5.74-2.33-.69,4,1.25,9.17,5,10.91,4.2,1.93,8.66,3.31,12.92,5.12,2.51,1.06,5.2,2.1,7.2,3.84,3.29,2.87,3.45,6.89,2.58,11a3,3,0,0,1-2.88,2.45,8.31,8.31,0,0,1-6.3-1.46,12.15,12.15,0,0,0-8.81-2.17c-.83.09-1.68,0-2.51,0-3.17.24-5.26-1.08-6.28-4.13-.36-1.09-2-1.28-3.74-.4-1.11.57-1.8,1.4-1.09,2.77a10.71,10.71,0,0,0,7.28,5.35c3.28.87,6.61,1.56,9.85,2.55a10.2,10.2,0,0,1,7.57,8.25A13.28,13.28,0,0,0,309.49,244.26ZM265.2,226l14.56.73c-.37-1.31-.33-2.67-1-3.17-2.85-2.24-6-3.79-9.85-3.35C265.81,220.54,264.29,222.8,265.2,226Zm-49,128.74c2,.1,3.6.14,5.21.25,2.34.17,4.68.53,7,.51a2.61,2.61,0,0,0,2.37-2.88,3.55,3.55,0,0,0-1.94-2.42,7.43,7.43,0,0,0-3.28-.2c-1.77.07-3.57.51-5.29.28-1.31-.18-2.37-.49-3.33.67S215.59,353.5,216.24,354.71Zm57.84-.6c.23-1.56.43-2.94-1.15-3.73a11.23,11.23,0,0,0-10.73-.13,4.5,4.5,0,0,0-2.32,3.86Zm-11.44-109c1.71-.41,2.65.26,3.44,2a4.46,4.46,0,0,0,4.69,2.63l10.2-1.09c-.5-1.69-1.35-2.05-3-1.65a8.94,8.94,0,0,1-4.11.11,15,15,0,0,1-4.09-2.11,9.47,9.47,0,0,0-6-1.78C262.28,243.29,262,243.75,262.64,245.09Zm.56-51.73a26,26,0,0,0,3.54,1c3.68.46,7.39-1.49,11.1.23-1.68-3.39-4.51-4.76-8-4.9A6.94,6.94,0,0,0,263.2,193.36Zm5.87,149a69.16,69.16,0,0,0,6.38,2.89,13.11,13.11,0,0,0,5.21.77c1.09-.08,2.71-1.06,3-2,.41-1.39-.83-2.5-2.36-2.76a8.66,8.66,0,0,0-2.49-.07C275.42,341.62,272.07,342,269.07,342.4ZM253.66,192.24a37.35,37.35,0,0,0-4.53-.8c-2.4-.11-4.94-.78-7.09.9a9.1,9.1,0,0,0-1.38,1.77,14.08,14.08,0,0,0,1.82,1.3c2.9,1.48,5.7.22,8.5-.42A3.32,3.32,0,0,0,253.66,192.24Zm-24,47.77c1.53-.15,2.86-.26,4.2-.4a17.74,17.74,0,0,0,3.35-.41c1.58-.47,2.65-3.18,1.62-4s-2.45-1.74-4-.89c-1.16.63-2.35,1.19-3.47,1.87C229.56,237.27,229.14,238.4,229.68,240Zm1,104c1.59,3.24,9.83,2.77,12-.48C238.67,341.58,234.87,344.4,230.73,344Zm34.15-74.08,8.69.61c.26-2.38-.72-3.43-3.56-4C268.34,266.21,265.33,268,264.88,269.94Zm42.65,82.63c2,0,4.08,0,6.13,0a4.07,4.07,0,0,0,1.39-.65c-.32-.56-.55-1.49-1-1.6a13.47,13.47,0,0,0-4.18-.47C308.49,349.92,307.18,350.5,307.53,352.57Zm-51.24-6.52a18,18,0,0,1-2.17-2.38c-1.09-1.72-2.49-2.13-4.28-1.12-1,.55-1,1.29-.18,1.8C251.54,345.59,253.51,346.73,256.29,346.05Z"/><path class="cls-1" d="M334.07,94.22l-6.85-3.09,7-31.31-.48-.18Q327.36,74,320.92,88.38l-6.38-2.8C319.68,74,324.8,62.53,330,50.85l10.17,4.47c-2.08,10-4.13,19.84-6.18,29.71l.4.25q9-12.25,18-24.51l9.83,4.48L346.9,99.82,340.41,97l12.95-28.43-.38-.23Z"/><path class="cls-1" d="M434.08,231.57c-.55-2.59-1.06-5-1.57-7.45q11.85-10.16,23.65-20.26l-.13-.31L429.4,209.2c-.52-2.33-1-4.53-1.52-6.9l37.44-8c.49,2.35,1,4.72,1.45,7.11a1.64,1.64,0,0,1-.51,1.29q-10.68,9.18-21.41,18.29a12.53,12.53,0,0,0-1,1.2L470,216.55c.51,2.37,1,4.63,1.51,7Z"/><path class="cls-1" d="M377.19,122.15l27.37-26.09c3.12,3.33,6.17,6.72,9.38,10,2.53,2.56,4.64,5.31,5.51,8.86a12.55,12.55,0,0,1-1.73,9.64,29.6,29.6,0,0,1-14.61,12.7,12.42,12.42,0,0,1-14-2.68C385,130.56,381.17,126.3,377.19,122.15Zm28-16.37-18.3,17.41c1.67,1.77,3.14,3.42,4.7,5,2.53,2.52,5.47,3.61,8.94,2.06a22.24,22.24,0,0,0,10.84-10.06c1.23-2.32,1.57-4.93-.05-7.16C409.54,110.51,407.36,108.28,405.21,105.78Z"/><path class="cls-1" d="M466.26,263.31V244.26h-8.05v17.87h-6.48V244.55H441.61v20.17h-6.75V237.23l37.91-.92c0,1.69,0,3.23,0,4.76.16,6.88.31,13.76.51,20.64,0,1-.23,1.6-1.33,1.6Z"/><path class="cls-1" d="M470.09,291.74c-.6,2.43-1.21,4.85-1.82,7.3l-13.83-3.57-3.51,14.07L464.76,313c-.6,2.39-1.19,4.78-1.82,7.32l-37-9.22,1.82-7.25L444.62,308c1.18-4.61,2.35-9.22,3.59-14.1l-16.95-4.11c.6-2.4,1.18-4.79,1.8-7.27Z"/><path class="cls-1" d="M371,88.66l14.54,10.45-3.74,5.14L367.28,93.81c-1.95,2.74-3.92,5.48-5.9,8.26l16.34,11.71-3.85,5.31L351.54,103l22.14-30.61L395.12,87.9l-3.73,5.28q-3.66-2.62-7.34-5.27c-2.38-1.71-4.77-3.41-7.12-5.17-.7-.54-1.15-.69-1.73.16C373.88,84.81,372.47,86.66,371,88.66Z"/><path class="cls-1" d="M450.51,349.73l-40.07-4.49,3.5-7.15,8,1.14,5.95-12.66-6-5.5,3.35-7c6.23,6,12.31,12,18.42,17.84q4.85,4.67,9.78,9.21a1.24,1.24,0,0,1,.35,1.8C452.63,345.13,451.61,347.41,450.51,349.73Zm-6.14-7.48.18-.37-11.68-10.63-4.24,8.94Z"/><path class="cls-1" d="M445.15,174.62l-3.77-7.05c4.38-3,4.62-9.11.34-12.81-2.51-2.18-5.58-2.2-8.63-1.44A23.5,23.5,0,0,0,421.45,160c-2.19,2.33-3.15,5.13-2.14,8.25a7.64,7.64,0,0,0,6.69,5.7,7.85,7.85,0,0,0,3.15-.38c1-.32,1.48-.23,1.94.79.85,1.88,1.87,3.69,2.83,5.57-4.36,1.59-8.61,2-12.82-.18-8.16-4.22-13.6-16.58-4.1-26,5.69-5.65,12.63-8.81,20.85-8,5.4.51,9.28,3.54,11.78,8.31s3.13,9.82.35,14.7C448.81,170.79,447,172.46,445.15,174.62Z"/><path class="cls-1" d="M423.5,391.2l-5.37-3.89c2.14-2.92,4.28-5.84,6.54-8.94l-25.32-18.3,4.44-5.95,8.23,6c5.37,3.88,10.76,7.74,16.11,11.65.95.7,1.3.22,1.81-.51,1.81-2.59,3.67-5.14,5.59-7.82l5.43,3.76Z"/><path class="cls-1" d="M459,177.2l2.36,7L425.58,197c-.81-2.25-1.66-4.57-2.55-7Z"/><path class="cls-1" d="M400.08,148.2l30.65-22.29L435,132l-30.62,22.18Z"/><path class="cls-1" d="M305.86,429.37c-.24.44-.47,1.6-1.14,2a2.78,2.78,0,0,1-2.39-.65,12.85,12.85,0,0,1-2.85-3.61c-.29-.58.34-1.81.86-2.51a2.29,2.29,0,0,1,1.89-.51C304,424.38,305.87,427.06,305.86,429.37Z"/><path class="cls-1" d="M316.1,427.61a2.64,2.64,0,0,1-2.83-2.91c0-1.9,1-3.48,2.15-3.44,1,0,3.13,2.77,3.24,4.15C318.74,426.45,317.4,427.6,316.1,427.61Z"/><path class="cls-1" d="M64.69,241.85c2-4.08,5.39-4.48,9.07-4.42a63,63,0,0,0,6.44-.35,4.14,4.14,0,0,0,1.5-.8c.35-.21.67-.49,1.15-.85,0,2.62-.12,4.92,0,7.21.11,1.6-.68,2-2,2-2.33.06-4.67.17-7,.15-4.39,0-5.93,1.24-6.16,5.56-.14,2.69,0,5.4,0,8.34h14.9V266h-38c0-3.49-.05-6.75,0-10a98.67,98.67,0,0,1,.48-11.42c.83-5.88,6.69-9.6,12.5-8.48A9.06,9.06,0,0,1,64.69,241.85ZM51.13,258.56h10.2c0-3.56.14-7.13,0-10.69-.15-2.54-1.39-3.68-3.81-4.19s-5.87.69-6,3.78c-.09,2.44-.25,4.87-.34,7.31C51.09,256,51.13,257.22,51.13,258.56Z"/><path class="cls-1" d="M54.59,217.67l8.08,1.57c1.17-5.78,2.34-11.49,3.56-17.51l6.39,1.14L69,220.61l9.81,2c1.32-6.52,2.64-13.06,4-19.87L89.23,204c-1.84,9.18-3.66,18.23-5.49,27.33l-37.28-7.59c1.83-8.79,3.65-17.48,5.5-26.35l6.58,1.23C57.22,205,55.94,211.21,54.59,217.67Z"/><path class="cls-1" d="M92.3,165.57c1.14-1.79,2.12-3.44,3.23-5A1.76,1.76,0,0,1,97,160a5.7,5.7,0,0,0,7.27-2.15,26.46,26.46,0,0,0,3.2-6.67,3.44,3.44,0,0,0-1.81-4.1,3.52,3.52,0,0,0-4.46.36c-2.65,2.31-5.21,4.72-7.89,7-2.25,1.93-4.5,4.07-7.69,4.18-5.5.2-11.3-5.75-11-11.49a17.36,17.36,0,0,1,8.62-14.34c3.9-2.41,8.08-1.94,12.19.09l-3.86,6.09c-5.47-2-9.38,2.32-10.39,7.16-.38,1.8.68,3.53,2.46,4.59,1.54.91,2.77.21,3.88-.77,3.16-2.8,6.26-5.69,9.43-8.5s6.46-3.55,10.24-1.77c4.11,1.93,7,4.86,7,9.72,0,7.19-3.51,12.62-9.2,16.51C101,168.64,96.57,168,92.3,165.57Z"/><path class="cls-1" d="M79.21,197c1-2.29,1.85-4.43,2.73-6.55,5.34,1.29,8.49-1.91,9.56-8.22a19.18,19.18,0,0,0,0-2.15,3.31,3.31,0,0,0-2.43-3.56c-1.54-.51-3.13-.47-4.26.93-1.86,2.33-3.62,4.74-5.46,7.08-.93,1.18-1.87,2.35-2.9,3.43-4.52,4.72-7.78,4.71-13.25,1.7-3.67-2-5.19-5.51-5.17-9.63a17.73,17.73,0,0,1,3.34-10.26c3.42-4.84,8.12-6.9,14.94-5.14l-2.73,6.66c-2.62-.37-5.07,0-6.84,2.34a9.42,9.42,0,0,0-2.29,6.27,4.31,4.31,0,0,0,3,4.19,3.56,3.56,0,0,0,4.08-1.47c2.58-3.22,5-6.58,7.73-9.67a12.52,12.52,0,0,1,4.9-3.72c6.3-2.14,13.53,3.26,13.74,10a20.32,20.32,0,0,1-6.61,16.06c-2.6,2.44-5.89,3-9.37,2.45C81.13,197.55,80.28,197.24,79.21,197Z"/><path class="cls-1" d="M50.33,305c-1-6-2.17-11.8-3-17.65-.81-5.65,3.12-10.64,9-11.7,3.44-.62,6.88-.94,10.11.95s4.53,5.1,5.26,8.58c.55,2.62,1,5.27,1.51,8l13.19-2.35c.45,2.4.89,4.79,1.37,7.36Zm5-8.51,11.38-2.06c-.42-2.32-.81-4.53-1.23-6.74A8.5,8.5,0,0,0,65,286c-1.11-2.72-3.15-3.76-6.21-3.19-3.24.6-4.85,2.24-4.65,5.29C54.31,290.87,54.92,293.61,55.37,296.51Z"/><path class="cls-1" d="M78.27,345.74l4.17,6.62a6.94,6.94,0,0,0-2.83,7.35A7.85,7.85,0,0,0,84.46,366a10.48,10.48,0,0,0,8-.34c4.37-1.8,8.33-4.15,10.88-8.36a8,8,0,0,0-.79-9.51,7.48,7.48,0,0,0-8.74-2.2c-1.25.51-1.65-.19-2.1-.91-1-1.61-1.9-3.28-2.84-4.92,8.6-4.66,18-.4,21.61,8.83,2.55,6.58.65,12.28-4.09,17a28,28,0,0,1-15.06,8.05,15.45,15.45,0,0,1-16.14-7.42c-3-5.08-3.75-10.3-.8-15.61A38.08,38.08,0,0,1,78.27,345.74Z"/><path class="cls-1" d="M92.25,312.64c.88,2.39,1.72,4.67,2.62,7.09-3.88,1.51-7.71,3-11.5,4.51a6.29,6.29,0,0,0-2.31,1.54c-5.63,6.35-11.19,12.75-16.94,19.32-1.09-2.79-2.12-5.46-3.32-8.53l13-12.76a6.49,6.49,0,0,0-1.18-.3c-4.85-.17-9.7-.35-14.55-.46-1.62,0-2.75-.48-3.27-2.24-.58-2-1.43-3.88-2.2-5.92,3.65.4,7.2.78,10.74,1.19a109.37,109.37,0,0,1,11.18,1.37c5.49,1.2,9.75-2,14.51-3.47C90.07,313.67,91,313.16,92.25,312.64Z"/><path class="cls-1" d="M224,42l11.59-1.12q2.85-.28,5.68-.61c6.37-.73,11.28,1.83,12,8,.42,3.61-.33,6.78-3.71,9a4.53,4.53,0,0,0,.86.49,7,7,0,0,1,5.26,5.34c1.68,6.86-.53,12.93-8.17,14.54-4.71,1-9.57,1.22-14.36,1.78-1.77.2-3.54.34-5.49.53C226.39,67.39,225.18,54.79,224,42ZM234.14,73l3.25-.39c2.72-.36,5.47-.57,8.14-1.13,2.46-.51,3.56-2.63,3.29-5.61-.23-2.52-1.58-4-4.11-4.12a31.55,31.55,0,0,0-4.66.08c-2.34.2-4.67.53-7,.81C233.41,66.12,233.76,69.38,234.14,73Zm-1.66-16.53c1.63-.15,3.06-.22,4.46-.44a58.65,58.65,0,0,0,7.5-1.39c1.73-.51,2.52-2.61,2.19-4.44s-1.37-3.09-3.37-3.1c-3.88,0-7.77.32-11.62.5C231.94,50.72,232.19,53.44,232.48,56.44Z"/><path class="cls-1" d="M203.53,46.82l7.22-2.1c2.29,7.59,4.65,15,6.71,22.45a35.6,35.6,0,0,1,1.19,8.6c.1,3.83-2.09,6.51-5.36,8.26-4.48,2.4-9.14,4.09-14.37,2.94a9.19,9.19,0,0,1-6.42-4.76,69.94,69.94,0,0,1-4.05-9.9c-2-6.22-3.86-12.52-5.81-18.92L190,51.14c2.22,7.66,4.37,15.35,6.7,23,.78,2.58,2,5,4.93,6a7.13,7.13,0,0,0,9.22-8.72C208.68,63.19,206,55.14,203.53,46.82Z"/><path class="cls-1" d="M148,84.36,142.1,89a7.6,7.6,0,0,0-6.93-2.11,8.84,8.84,0,0,0-5.9,4A7.81,7.81,0,0,0,128.6,98c2,5.75,5.42,10.43,11.12,12.91a8,8,0,0,0,11.36-6.7c.18-1.72-.64-3.54-1.08-5.67l5.71-4.28c6.7,10.9,0,21.26-10,24-4.9,1.34-9.42-.05-13.38-2.92a27.48,27.48,0,0,1-10.79-15.15c-2.67-9.72,3.4-17.08,11.36-19.68C138.69,78.62,143.63,80.32,148,84.36Z"/><path class="cls-1" d="M171.26,93.64l16.35-8.43c1,1.94,2,3.87,3,5.83l-23.11,11.89-17.63-33.8,6.78-3.42C161.53,75,166.37,84.28,171.26,93.64Z"/><path class="cls-1" d="M261.14,494.78v-5.47c2,0,2.92-1.24,3.13-3a4,4,0,0,0-2.71-4.19c-1.82-.66-3.74-1-5.62-1.52l-.21.41c.44.6.94,1.16,1.32,1.79A8.33,8.33,0,0,1,255.53,493c-5.39,5.07-15.12,2.7-17.16-4.38-1.55-5.42.16-10.17,6.43-12.11a28,28,0,0,1,17.6.29c6.66,2.26,7.69,8.89,5.64,13.79A7.47,7.47,0,0,1,261.14,494.78Zm-13.26-4.86c3.11.09,5.36-1.55,5.61-4.09s-1.68-4.54-4.45-4.88-5.81,1.32-6.32,3.57C242,487.63,244.09,489.81,247.88,489.92Z"/><path class="cls-1" d="M251.47,472.59a72.17,72.17,0,0,1-8.68-2.32c-3.92-1.53-5-4.95-4.8-8.92a8,8,0,0,1,5.75-7.48,26.38,26.38,0,0,1,7.67-1.41,44.26,44.26,0,0,1,9.76.68c7.74,1.52,9.27,8.29,6.74,13.83-1.4,3.07-4.4,4.16-7.41,4.75C257.83,472.25,255.06,472.27,251.47,472.59Zm2.5-14.88c-2.8.31-5.23.46-7.62.86s-3.66,1.9-3.66,3.76,1.21,3.21,3.66,3.69a19.92,19.92,0,0,0,4.6.53c3.54-.15,7.08-.43,10.6-.84,1.78-.21,2.6-1.6,2.73-3.3a3.34,3.34,0,0,0-2.74-3.49C258.94,458.36,256.29,458.07,254,457.71Z"/><path class="cls-1" d="M243.13,516.67c-.26-3.28-1.46-5.91-4.48-7.49a1.92,1.92,0,0,1-.84-1.33,28.67,28.67,0,0,1,0-3.37H268v5.42c-3.95,0-7.88,0-11.81,0-2.63,0-5.26,0-7.89-.14-.85,0-1.16.09-1.11,1.06.11,1.89,0,3.8,0,5.85Z"/><path class="cls-1" d="M141.42,421a10.83,10.83,0,0,0-.27,2.26c.72,4.7,2.49,8.8,6.72,11.46,1.82,1.14,3.7,2.21,5.4,3.5,2.07,1.58,2.44,3.68.81,5.64-4.07,4.91-7.48,10.43-12.78,14.22a19.43,19.43,0,0,1-5,3.07c-1.3.42-3-.08-4.45-.51-8.35-2.49-15.39-6.93-20.25-14.34a8.4,8.4,0,0,1-.69-3c0-.28.1-.6.08-.89-.32-4.69,2.46-7.8,5.1-11.29,5.52-7.28,10.59-14.91,15.67-22.52,5.42-8.1,10.79-16.23,17.54-23.32,5.36-5.62,10.18-6,17.11-1.7q5.47,3.39,10.91,6.85a2.28,2.28,0,0,1,.71.74c1.05,1.74,2.17,3.45,3.06,5.26,1.58,3.22.41,6.15-1.19,9s-3,6.13-5,8.86c-5.14,7.09-11.51,12.59-20.92,11.82-3-.25-5.89-2.37-8.84-3.63C144,422.05,142.9,421.59,141.42,421Zm3.46-6.08a29.12,29.12,0,0,0,11.5,4.76,6.26,6.26,0,0,0,4.73-1.1,32.7,32.7,0,0,0,5.81-5c3.15-3.56,4.57-8,6-12.5.76-2.42.72-4.44-1.41-6.19-1-.79-1.51-2.08-2.51-2.79a22.64,22.64,0,0,0-4.81-2.56,2.31,2.31,0,0,0-2,.76C156.36,398.42,150.68,406.6,144.88,414.91Zm-11.37,14.26c-1.69,2.62-3.22,5-4.74,7.38a35.31,35.31,0,0,0-3.15,5.2,16.81,16.81,0,0,0-1.27,5.84,3.84,3.84,0,0,0,2.47,4q3,1,6.11,1.89c3.48,1,6.22-.32,8.85-3.83a7.13,7.13,0,0,0-.23-8.47c-1.22-1.4-2.35-2.87-3.56-4.27C136.05,434.65,133.77,432.61,133.51,429.17Z"/><path class="cls-1" d="M210.06,450.26v-3.11c.67.51,1.62,1,1.56,1.23a8.85,8.85,0,0,1-1.19,2.07Z"/><path class="cls-1" d="M247.88,489.92c-3.79-.11-5.88-2.29-5.16-5.4.51-2.25,3.48-3.92,6.32-3.57s4.69,2.44,4.45,4.88S251,490,247.88,489.92Z"/></svg>