<svg xmlns="http://www.w3.org/2000/svg" xmlns:xlink="http://www.w3.org/1999/xlink" id="Layer_1" x="0px" y="0px" viewBox="0 0 300 300" style="enable-background:new 0 0 300 300;" xml:space="preserve"><style type="text/css">	.st0{fill:#395082;}	.st1{fill:none;}	.st2{fill:#EF3E33;}</style><g>	<path class="st0" d="M262.4,162c-0.1,0.2-0.2,0.7-0.3,1.5c-0.2,1.5-0.2,1.9,0.1,2.4c0.4,0.7,1,1.1,1.8,1.2c0.1,0,0.3,0,0.5,0  c0.6,0,2.6-0.2,3-3c0-0.3,0.1-0.9,0.1-1.3c0,0,0,0,0-0.1L262.4,162z"></path>	<path class="st0" d="M255.8,161.1c-0.3,0-0.4,0-0.6,0c-0.4,0-0.5,0-0.8,0.5c-0.2,0.4-0.4,1.2-0.6,2.1c-0.2,1.3,0,2.3,0.5,3  c0.4,0.5,1,0.8,1.8,1c0.1,0,0.3,0,0.4,0l0,0c0.7,0,2.2-0.2,3.3-1.9c0.4-0.6,0.6-1.2,0.7-1.7c0-0.2,0.1-0.3,0.1-0.5  c0.1-0.3,0.2-1.3,0.3-1.8l-0.9-0.1C258.2,161.4,256,161.1,255.8,161.1z"></path>	<path class="st0" d="M47.8,164.1c1.1-0.2,1.2-0.3,1.4-1c0.2-0.7,0.1-1.8,0-2.6c-0.2-1.6-1.2-3.5-3.1-3.5c-0.2,0-0.3,0-0.5,0  c-0.9,0.1-3.1,0.7-4.1,3.3c-0.4,1-0.4,1.7-0.3,2.4c0,0.3,0.2,1.5,0.2,2.2l1.2-0.2c3.2-0.4,4.9-0.7,5.1-0.7L47.8,164.1z"></path>	<polygon class="st0" points="121.5,37.1 120.7,42.7 125.2,41.4  "></polygon>	<polygon class="st0" points="56.2,94.3 58.6,90.3 52.9,89.8  "></polygon>	<path class="st0" d="M38.9,161c-0.5-0.4-1.2-0.7-1.9-0.7c-0.1,0-0.3,0-0.4,0c-1.1,0.2-2.1,0.7-2.7,1.4c-0.6,0.7-0.8,1.7-0.6,2.8  c0,0.4,0.2,1,0.3,1.4c0,0,0,0.1,0,0.1l6.3-0.9c0-0.5-0.1-1.2-0.2-1.7C39.6,161.8,39.5,161.5,38.9,161z"></path>	<path class="st0" d="M41.3,145.5c0.1-0.3,0.3-1.6,0.4-2.8c0-0.6,0.1-1.3-0.2-1.9c-0.4-0.9-1.5-1.5-2.8-1.6c-2.4-0.1-3.8,1.3-3.9,4  c0,0.7,0,1.5,0,1.8L41.3,145.5z"></path>	<polygon class="st0" points="173.8,35.2 170.5,39.8 175.1,40.7  "></polygon>	<path class="st0" d="M151.7,12.7c-74.3,0-134.6,60.2-134.6,134.5c0,45.6,23.9,85.5,58.6,109.9c0,0,0,0,0,0  c20.4,14.4,45.1,23.2,71.7,24.3c0.1-2.4,0.2-4.6,0.2-6c0,0-0.1,0-0.2,0c-3.6,0.8-13,2.6-13.4,2.7l-5.3,1.1l1.8-5.1  c0,0,0.1-0.2,0.1-0.4c-18.3-3.1-35.2-10-50.1-20l0,0C46,230.6,23.2,191.1,23.2,146.4c0-71.2,57.9-129.1,129.1-129.1  c71.2,0,129.1,57.9,129.1,129.1c0,48.5-26.9,90.8-66.5,112.9l0,0c-12.7,7.1-26.8,12.1-41.7,14.6c0.1,0.2,0.1,0.3,0.1,0.3l1.8,5.1  l-5.3-1.1c-0.5-0.1-9.7-2-13.4-2.7c-0.1,0-0.1,0-0.2,0c0,1.5,0.1,3.7,0.2,6.1c19.1-0.5,37.3-5.4,53.6-13.1c0,0,0,0,0,0  c0.1-0.1,0.3-0.1,0.4-0.2c0.5-0.2,1.1-0.5,1.6-0.8l0-0.1c43.9-22.1,74.1-67.6,74.1-120.2C286.3,72.9,226,12.7,151.7,12.7z"></path>	<path class="st0" d="M88.2,115.8C88.2,115.8,88.2,115.8,88.2,115.8c0-0.1,0-0.1-0.1-0.1C88.2,115.7,88.2,115.7,88.2,115.8z"></path>	<path class="st0" d="M214.7,256.4c38.3-21.8,64.2-62.9,64.2-110c0-69.8-56.8-126.5-126.5-126.5c-69.8,0-126.5,56.7-126.5,126.5  c0,44.7,23.3,84,58.3,106.5c0,0,0,0,0,0c14.1,9.1,30.1,15.5,47.4,18.4c0.2-0.6,0.5-1.3,0.7-2c-1.4-1.2-9.3-8-14.6-12.6l-3.5-3  l5.7-2.8c-0.5-1.5-1.8-5.7-2.6-8.4l-1.6-5l5.2,1.1c1.6,0.3,3.8,0.8,5.5,1.2c-9.2-2.5-17.8-6.3-25.6-11.2c-1.3-11-2.9-23.5-4.8-37  c7.1-5.5,30.9-8.3,52-3.4c14.8,3.4,40.2,1.2,52.9-7.4c8-5.4,13.5-10.9,18-15.2c3.1-3,5.7-5.6,8.4-7.4c5.9-4,15.3-6.3,15.4-6.3  l4.9-0.9c-1,27.9-14,52.8-34,69.7c0,0,0,0,0,0.1l-0.1-0.2c-10.6,8.9-23.1,15.6-36.9,19.3c0,0,0,0.1,0.1,0.1c1.6-0.3,4.5-1,6.4-1.4  l5-1.1l-1.4,5c0,0-1.9,6.5-2.4,8.5l5.7,2.8l-3.5,3c-5.3,4.6-13.2,11.4-14.6,12.6c0.2,0.7,0.5,1.4,0.7,2.1  c15.1-2.4,29.2-7.5,42-14.8L214.7,256.4z M257.4,182.3c-1.6,0-2.8-1.3-2.8-2.8c0-1.6,1.3-2.9,2.8-2.9c1.6,0,2.9,1.3,2.9,2.9  C260.2,181,259,182.3,257.4,182.3z M269.6,158.5c-0.1,0.8-0.3,1.7-0.4,2.4c-0.1,0.3-0.1,0.6-0.1,0.6c0,0.3-0.1,0.6-0.1,1  c-0.1,0.6-0.2,1.3-0.3,2.1c-0.8,5.1-3.5,5.4-4,5.4c-0.1,0-0.2,0-0.3,0c-1.6-0.2-2.4-1.5-3.1-2.8c-0.9,1.9-2.6,3.6-4.5,3.6  c-0.2,0-0.3,0-0.5,0c-2.4-0.4-4.5-2.9-3.8-7.6c0.1-0.5,0.2-1.4,0.4-2.3l0.3-1.7c0,0,0.1-0.5,0.1-1.1c0.1-0.5,0.1-1.2,0.2-1.6  c0.1-0.4,0.2-0.7,0.5-0.7c0.2,0,0.3,0.1,0.4,0.2c0.1,0.1,0.1,0.3,0.1,0.4c0,0.1,0,0.3,0,0.5c0,0.1,0,0.2,0,0.3  c0,0.2,0.1,0.3,0.7,0.5l0.1,0c0.8,0.3,2.3,0.5,4.2,0.8l3.9,0.6c3,0.4,3.5,0.5,4.1,0.5c0.1,0,0.2,0,0.2,0c0.4,0,0.6-0.1,0.8-0.7  c0.1-0.2,0.1-0.6,0.2-0.9c0-0.2,0.2-0.5,0.5-0.5c0.2,0,0.3,0.1,0.4,0.2C269.6,158.1,269.6,158.3,269.6,158.5z M268.3,132.9  c0-0.2,0-0.6,0-0.9c0-0.3,0.2-0.6,0.5-0.6h0c0.3,0,0.5,0.2,0.5,0.7c0,0.8,0.1,1.8,0.1,2.4c0,0.3,0,0.5,0,0.6c0,0.1,0,0.3,0,0.6  c0,0.6,0.1,1.5,0.1,2.1c0,0.3,0,0.5-0.2,0.7l-0.1,0.1l-0.2,0c-0.3,0-0.5-0.3-0.5-0.5c0-0.2,0-0.3-0.1-0.6c-0.1-0.5-0.2-0.6-0.9-0.6  c-0.6,0-1.2,0-3.9,0.1l-3.4,0.2c-3,0.1-4,1.1-4.7,2.1c-0.8,1.2-0.9,2.3-0.9,3.8c0.1,1.5,0.7,3,1.5,3.8c0.9,0.8,2.1,1.2,3.9,1.2  c0.3,0,0.6,0,0.9,0l2.6-0.1c3-0.1,3.7-0.2,4.3-0.3l0.1,0c0.5-0.1,0.7-0.1,0.8-0.8c0-0.2,0-0.6,0-0.9c0-0.3,0.2-0.6,0.5-0.6  c0.3,0,0.5,0.2,0.5,0.7c0,0.8,0.1,1.7,0.1,2.3c0,0.3,0,0.5,0,0.6c0,0.1,0,0.3,0,0.6c0,0.5,0.1,1.2,0.1,1.7c0,0.2,0,0.5-0.1,0.6  c-0.1,0.1-0.2,0.1-0.3,0.1h0c-0.3,0-0.5-0.2-0.5-0.5c0-0.2,0-0.3-0.1-0.6c-0.1-0.5-0.3-0.6-0.9-0.6c-0.5,0-0.9,0-2.2,0.1l-4.4,0.2  c-0.3,0-0.6,0-0.8,0c-2.6,0-4.5-0.8-5.7-2.3c-1.5-1.9-1.8-4-1.8-5.7c-0.1-2.5,0.3-4.4,1.2-5.8c0.8-1.2,2.1-2.6,5.5-2.7l3-0.1  c3.2-0.2,3.8-0.2,4.4-0.3C268.1,133.6,268.3,133.5,268.3,132.9z M266.1,117.3c0.1,0.3,0.1,0.6,0.1,0.6c0,0.1,0.1,0.5,0.2,0.9  c0.2,0.6,0.4,1.5,0.5,1.9c0.1,0.6-0.1,0.8-0.3,0.8l-0.1,0c-0.3,0-0.4-0.2-0.5-0.4c0-0.2-0.2-0.5-0.2-0.8c-0.2-0.5-0.4-0.5-0.6-0.5  c-0.1,0-0.2,0-0.4,0c-0.6,0.1-1.2,0.2-3.8,0.9l-4,0.9c-2.4,0.6-3.9,1-4.1,1.4c-0.3,0.5,0.1,2.2,0.4,3.3c0.3,1.4,0.6,2.4,1.2,2.8  c0.3,0.2,0.7,0.3,1.1,0.3c0.4,0,0.6,0.2,0.7,0.5c0,0.1,0,0.3-0.1,0.4c-0.1,0.1-0.2,0.2-0.5,0.3c-0.2,0.1-1,0.1-1.7,0.1  c-0.2,0-0.4,0-0.5,0c-0.8-0.1-0.9-0.4-1.2-1.8c-0.4-1.9-0.8-3.3-1-4.5l-0.1-0.4c-0.2-1-0.4-1.7-0.5-2.4c0-0.1-0.1-0.6-0.3-1  l-0.1-0.2c-0.1-0.5-0.3-0.9-0.3-1.3c-0.1-0.6,0.1-0.8,0.3-0.8l0.1,0c0.2,0,0.4,0.1,0.5,0.4c0,0.2,0.1,0.4,0.3,0.7  c0.1,0.2,0.2,0.2,0.5,0.2c0.1,0,0.2,0,0.3,0c0.9,0,2.5-0.4,4.3-0.9l4-0.9c2.7-0.6,3.3-0.8,3.9-1c0.6-0.2,0.7-0.3,0.6-1  c0-0.2-0.1-0.6-0.2-0.9c0-0.1,0-0.3,0.1-0.4c0.1-0.1,0.2-0.2,0.3-0.2l0.1,0c0.4,0,0.5,0.4,0.5,0.6  C265.7,115.8,265.9,116.7,266.1,117.3z M234.7,65.5c-1-1.1-1.5-1.4-2-1.4c-0.4,0-0.5,0-0.6,0.1c-0.1,0-0.1,0-0.2,0c0,0-0.1,0-0.2,0  c-0.2,0-0.4-0.2-0.4-0.2c-0.1-0.1-0.1-0.2-0.1-0.4c0-0.1,0.1-0.3,0.2-0.3c0.1-0.1,0.5-0.3,1.6-0.9c0.3-0.1,0.4-0.2,0.5-0.2l0.1,0  c0.3-0.1,0.7-0.1,0.8,0c0.1,0.1,0.1,0.2,0.2,0.3c0.1,0.2,0.2,0.4,0.4,0.7c0.4,0.6,1.1,1.3,1.3,1.6l6.7,7.4c0.6,0.7,1,1.1,1.3,1.3  c0.1,0.1,0.2,0.2,0.3,0.3c0.1,0.1,0.2,0.2,0.3,0.2l0.1,0.1l0,0.2c0,0.2-0.2,0.3-0.2,0.4c-0.3,0.3-0.8,0.7-1.3,1.1  c-0.3,0.2-0.5,0.4-0.5,0.4c-0.2,0.2-0.6,0.2-0.8,0c-0.3-0.4,0-0.7,0.1-0.8l0.1-0.2c0.2-0.2,0.5-0.6-1.3-2.7l-2-2.2l-6.1,5.6  c-1.5,1.4-2.7,2.4-3.2,3c-0.3,0.4-0.4,0.6-0.1,1.1c0.2,0.3,0.6,0.8,0.7,0.9c0.1,0.1,0.2,0.3,0.2,0.4c0,0.1,0,0.2-0.2,0.3l-0.1,0.1  l-0.2,0c-0.2,0-0.4-0.1-0.6-0.3c-0.7-0.8-1.5-1.7-1.9-2.1c-0.2-0.2-0.3-0.3-0.3-0.3c0,0-0.1-0.1-0.3-0.3c-0.4-0.4-1.2-1.3-1.6-1.7  c-0.2-0.2-0.3-0.3-0.3-0.6c0-0.1,0.1-0.2,0.1-0.3c0.2-0.2,0.4-0.3,0.7,0.1c0.2,0.2,0.4,0.3,0.6,0.5c0.1,0.1,0.2,0.1,0.3,0.1  c0.2,0,0.5-0.1,0.7-0.3c0.7-0.5,1.9-1.6,3.3-2.9l6.1-5.6L234.7,65.5z M209.9,51.5c1.9-2.6,2.2-3.1,2.5-3.6c0.3-0.5,0.4-0.7-0.2-1.1  c-0.2-0.1-0.5-0.4-0.7-0.5c-0.1-0.1-0.2-0.3-0.2-0.4c0-0.1,0-0.3,0.1-0.3c0.1-0.2,0.5-0.2,0.9,0c1,0.7,2.3,1.7,2.5,1.8  c0.1,0.1,1.5,1,2.2,1.5c0.2,0.1,0.4,0.3,0.4,0.5c0,0.1,0,0.2-0.1,0.3c-0.1,0.2-0.5,0.2-0.7,0.1c-0.1-0.1-0.3-0.2-0.5-0.3  c-0.2-0.1-0.3-0.1-0.4-0.1c-0.1,0-0.3,0.1-0.6,0.4c-0.4,0.5-0.8,1.1-2.6,3.6l-0.1,0.2l8.7,6.2l0.1-0.2c1.9-2.7,2.2-3.2,2.5-3.7  c0.3-0.5,0.4-0.7-0.1-1.1c-0.1-0.1-0.5-0.4-0.7-0.5c-0.2-0.2-0.3-0.5-0.2-0.7c0.2-0.3,0.6-0.2,0.9,0c0.7,0.5,1.5,1.1,2,1.5  c0.2,0.2,0.4,0.3,0.4,0.3c0.1,0.1,1.5,1,2.2,1.5c0.2,0.1,0.6,0.5,0.3,0.9c-0.2,0.2-0.5,0.2-0.8,0.1c-0.1-0.1-0.3-0.2-0.5-0.3  c-0.4-0.2-0.5-0.3-1,0.3c-0.4,0.5-0.8,1-2.6,3.5l-2.1,2.9c-1.3,1.8-2.1,3-2.4,3.7c-0.3,0.5-0.3,0.7,0.1,1.1  c0.3,0.2,0.7,0.6,0.9,0.7c0.2,0.1,0.2,0.3,0.3,0.4c0,0.1,0,0.3-0.1,0.4c-0.1,0.1-0.2,0.2-0.3,0.2c-0.2,0-0.3-0.1-0.6-0.2  c-0.8-0.6-1.7-1.3-2.2-1.7c-0.2-0.2-0.4-0.3-0.4-0.3c0,0-0.2-0.1-0.4-0.3c-0.5-0.3-1.3-0.9-1.8-1.2c-0.4-0.3-0.5-0.6-0.3-0.8  c0.2-0.2,0.5-0.3,0.7-0.1c0.1,0.1,0.4,0.2,0.6,0.3c0.3,0.2,0.5,0,0.9-0.4c0.6-0.6,1.5-1.9,2.6-3.5l1.1-1.5l-8.7-6.2l-1.2,1.6  c-1.1,1.6-2,2.8-2.4,3.5c-0.3,0.5-0.3,0.7,0.1,1.1c0.3,0.3,0.7,0.6,0.9,0.8c0.3,0.2,0.3,0.5,0.2,0.7c-0.2,0.3-0.5,0.3-0.9,0  c-1.2-0.9-2.6-1.9-2.6-2l-0.2-0.2c-0.5-0.3-1.4-1-2-1.3c-0.4-0.3-0.5-0.6-0.3-0.8c0.2-0.2,0.5-0.3,0.7-0.1c0.2,0.1,0.5,0.3,0.7,0.4  c0.1,0,0.1,0,0.2,0c0.2,0,0.3-0.2,0.6-0.4c0.6-0.6,1.6-2,2.7-3.5L209.9,51.5z M185.4,41.9c0.6-1.5,2.3-3.5,5.1-4.2  c2.4-0.7,5.2-0.3,8.5,1.1c0.9,0.4,2.3,1,3.5,1.7l0.3,0.2c0.7,0.5,1.4,0.8,2.1,1.2c0.5,0.2,0.5,0.6,0.4,0.7c0,0.1-0.1,0.2-0.2,0.3  c-0.1,0.2-0.2,0.4-0.4,0.8c-0.1,0.3-0.3,0.6-0.4,1c-0.2,0.4-0.4,0.8-0.4,0.9c-0.2,0.4-0.6,0.6-0.9,0.4c-0.5-0.2-0.3-0.7-0.2-0.9  c0.3-0.7,0.2-1.5-0.2-2c-0.5-0.8-1.9-2-4.2-2.9c-2.5-1-4.4-1.3-5.9-1c-2.4,0.6-3.4,2.2-4,3.8c-1.5,3.7,1,8.1,5.8,10.1  c1.8,0.8,3,1.1,4.2,0.8c0.6-0.2,1.2-0.8,1.4-1.1c0.1-0.2,0.4-0.4,0.8-0.3c0.3,0.1,0.4,0.5,0.3,0.8c-0.1,0.2-1.1,1.7-1.7,2.3  c-0.2,0.3-0.4,0.4-0.8,0.4c-0.1,0-0.2,0-0.3,0c-1.4-0.1-3.8-1.1-4.7-1.4c-3.6-1.5-5.9-3.2-7.4-5.5  C184.6,46.8,184.4,44.4,185.4,41.9z M174.9,31.2l0.1,0c0.4,0.1,0.5,0.4,0.6,0.8l0.1,0.3c0.2,0.5,0.8,2.8,1.6,5.6  c0.8,2.9,1.7,6.1,2.2,7.9c0.6,2,1.2,2.2,1.6,2.4c0.3,0.2,0.7,0.3,0.9,0.3c0.1,0,0.4,0.1,0.5,0.3c0.1,0.1,0.1,0.2,0.1,0.3  c0,0.1-0.1,0.3-0.6,0.3c-0.1,0-0.3,0-0.4-0.1c-0.3-0.1-2.3-0.4-4.1-0.9l-0.2,0c-0.6-0.1-1-0.3-1-0.7c0.1-0.3,0.3-0.3,0.4-0.4l0.2,0  l-1.4-5.1l-6-1.2l-2.1,2.9c-0.3,0.4-0.5,0.9-0.6,1.1c0,0,0,0.1,0,0.1c0.1,0.1,0.2,0.2,0.5,0.2l0.2,0.1c0.2,0,0.3,0.1,0.4,0.3  c0.1,0.1,0.1,0.2,0.1,0.4c0,0.2-0.3,0.4-0.8,0.3c-0.4-0.1-1.1-0.2-1.7-0.4c-0.3-0.1-0.6-0.1-0.7-0.2c-0.1,0-0.3,0-0.6-0.1  c-0.6-0.1-1.4-0.2-2.1-0.4c-0.4-0.1-0.6-0.2-0.7-0.3l-0.1-0.1l0-0.2c0-0.2,0.3-0.4,0.5-0.4l0.1,0c0.2,0,0.6,0.1,0.8,0.1  c1,0.1,1.6-0.4,2.3-1.3l8.7-11.4C174.3,31.4,174.6,31.2,174.9,31.2z M144.2,26.3c0.5,0,2,0.1,2.7,0.1l0.3,0l0.3,0  c0.5,0,1.3,0,2.2,0c0.2,0,0.4,0,0.6,0.2c0.1,0.1,0.1,0.2,0.1,0.3c0,0.3-0.3,0.4-0.5,0.5l-0.2,0c-0.1,0-0.2,0.1-0.2,0.1  c0,0.2,0.1,0.5,0.3,0.8c0.4,0.6,4,5.8,5.1,7.4c1.1-1.6,4.4-5.9,4.9-6.6c0.3-0.4,0.5-0.7,0.5-1c0-0.3-0.1-0.3-0.2-0.4  c-0.3-0.1-0.7-0.2-0.7-0.6c0-0.5,0.6-0.5,0.8-0.5c0.5,0,1.1,0.1,1.6,0.1c0.2,0,0.4,0,0.4,0l0.1,0l2.1,0c0.3,0,0.6,0,0.7,0  c0.5,0,0.7,0.3,0.7,0.5c0,0.1,0,0.5-0.7,0.5c-0.3,0-0.9,0.1-1.3,0.3c-0.5,0.3-0.9,0.5-1.5,1.1c-1,0.9-5.3,6.5-5.9,7.5  c-0.4,0.8-0.4,1.5-0.5,2.2L156,41c0,1.1,0,1.9,0,2.4c0,0.7,0.3,1,0.9,1.1c0.4,0.1,1.1,0.1,1.3,0.1c0.2,0,0.3,0.1,0.4,0.2l0.1,0.1  l0,0.2c0,0.2-0.1,0.5-0.8,0.5l0,0c-1.4,0-3-0.1-3.5-0.2l-0.2,0l-0.2,0c-0.6,0-2,0-2.7,0c-0.2,0-0.8,0-0.8-0.5  c0-0.2,0.2-0.5,0.6-0.5l0.1,0c0.2,0,0.5,0,0.8-0.1c0.1,0,0.6-0.1,0.7-1c0.1-0.9,0.1-1.9,0.1-2.4l0-2.1c0-1.2-0.2-1.7-0.6-2.4  c-0.2-0.4-4.1-5.8-5.1-7c-0.6-0.8-1.3-1.4-1.9-1.8c-0.4-0.2-0.9-0.4-1.1-0.4c-0.4,0-0.6-0.3-0.6-0.5  C143.5,26.7,143.6,26.3,144.2,26.3z M115.3,50.5c0.2,0,0.5-0.2,0.7-0.2c0.9-0.4,1.2-1,1.5-2.2l2.7-14c0.1-0.7,0.3-1.1,0.6-1.2  l0.2,0c0.3,0,0.5,0.2,0.8,0.5l0.2,0.2c0.3,0.4,2,2.2,3.9,4.3c2,2.2,4.3,4.8,5.5,6.1c1.3,1.4,1.9,1.5,2.5,1.5c0.3,0,0.7-0.1,1-0.1  c0.4-0.1,0.7,0.1,0.8,0.3l0,0.1l-0.1,0.2c0,0.1-0.1,0.3-0.7,0.4c-0.5,0.1-2.4,0.6-4.1,1l-0.2,0c-0.3,0.1-0.5,0.1-0.7,0.1  c-0.3,0-0.4-0.2-0.4-0.3c-0.1-0.3,0.1-0.5,0.2-0.5c0.1-0.1,0.1-0.1,0.1-0.1l-3.5-3.9l-5.9,1.6l-0.6,3.5c-0.1,0.5-0.1,1,0,1.3  c0,0,0,0.1,0.3,0.1c0.1,0,0.2,0,0.3-0.1l0.2-0.1c0.4-0.1,0.6,0,0.7,0.3c0,0.1,0,0.2,0,0.3c-0.1,0.2-0.3,0.3-0.5,0.3  c-0.4,0.1-1,0.2-1.5,0.4c-0.4,0.1-0.7,0.2-0.8,0.2c-0.1,0-0.3,0.1-0.6,0.2c-0.5,0.2-1.3,0.4-1.9,0.6c-0.2,0-0.3,0.1-0.4,0.1  c-0.4,0-0.5-0.3-0.5-0.3C114.9,50.9,115,50.6,115.3,50.5z M100.4,40.4c0.5-0.2,1.3-0.5,1.8-0.8c0.3-0.1,0.6-0.2,0.6-0.3l0.1-0.1  c0.4-0.2,1.6-0.8,2.3-1c0.5-0.2,0.7-0.1,0.9,0.1c0.1,0.3-0.1,0.6-0.3,0.7c-0.2,0.1-0.3,0.1-0.5,0.3c-0.4,0.3-0.5,0.4-0.3,1  c0.2,0.5,0.4,1,1.3,3l1.9,4.4c0.8,1.8,1.4,3.3,1.9,4c0.3,0.4,0.4,0.5,0.6,0.5c0.1,0,0.2,0,0.3-0.1c0.4-0.1,0.9-0.3,1.1-0.4  c0.3-0.1,0.6,0,0.7,0.2l0.1,0.1l0,0.2c-0.1,0.2-0.2,0.3-0.5,0.4c-1,0.5-2.2,0.9-2.8,1.1c-0.2,0.1-0.3,0.1-0.3,0.1  c0,0-0.2,0.1-0.5,0.2c-0.5,0.3-1.4,0.7-1.9,0.9c-0.2,0.1-0.3,0.1-0.4,0.1c-0.2,0-0.4-0.1-0.4-0.3c-0.1-0.2,0-0.5,0.3-0.7  c0.2-0.1,0.5-0.3,0.7-0.4c0.2-0.1,0.2-0.3,0.1-0.9c-0.2-0.7-0.7-2-1.6-4.1l-1.6-3.7c-1.1-2.6-1.4-3.1-1.7-3.6  c-0.3-0.5-0.5-0.6-0.6-0.6c-0.1,0-0.1,0-0.2,0c-0.3,0.1-0.6,0.2-0.7,0.2c-0.2,0.1-0.6,0-0.7-0.2C99.8,40.9,100,40.6,100.4,40.4z   M79.1,53.7c0-0.2,0.1-0.3,0.2-0.4c0.2-0.1,0.4-0.2,0.7-0.2c0.2,0,0.4,0,0.6,0l0.1,0c0.2,0,0.9,0.1,2,0.2c2.1,0.2,5.4,0.6,8.9,1  c2.2,0.2,4.4,0.5,6.1,0.7c0.5,0.1,1,0.1,1.3,0.2l-5.5-7.8c-0.8-1.1-0.9-1.2-1.5-0.9c-0.4,0.2-0.9,0.5-1.1,0.6  c-0.3,0.2-0.6,0.1-0.7-0.1c-0.3-0.4,0.2-0.7,0.4-0.9c0.7-0.4,1.4-0.9,1.8-1.2c0.2-0.1,0.4-0.3,0.5-0.3c0.1-0.1,0.2-0.1,0.4-0.3  c0.4-0.3,0.9-0.6,1.5-1c0.5-0.3,0.8-0.3,0.9-0.1c0.2,0.2,0,0.6-0.2,0.8c-0.2,0.1-0.3,0.2-0.5,0.4c-0.4,0.4-0.4,0.5,0.3,1.6L102,56  c0.7,1,0.8,1.2,0.8,1.5c0,0.1-0.1,0.2-0.2,0.3c-0.3,0.2-0.6,0.2-2.6,0.1c-0.4,0-5.2-0.4-8.8-0.8c-3.4-0.4-6.6-0.7-8.2-0.9l5.2,7.3  c0.7,1,1.1,1.3,1.5,1.3c0.1,0,0.2,0,0.3-0.1c0.4-0.2,0.9-0.5,1.1-0.6c0.3-0.2,0.6-0.1,0.7,0.1c0.2,0.3,0,0.6-0.4,0.9  c-0.9,0.6-1.7,1.1-2.1,1.3c-0.1,0.1-0.3,0.2-0.3,0.2c0,0-0.1,0.1-0.3,0.2c-0.4,0.3-1.1,0.8-1.8,1.3c-0.2,0.1-0.4,0.2-0.5,0.2  c-0.2,0-0.3-0.1-0.4-0.2c-0.1-0.1-0.1-0.2-0.1-0.4c0-0.1,0.1-0.3,0.3-0.4c0.2-0.1,0.5-0.4,0.8-0.6c0.3-0.3,0.2-0.6-0.8-2.1  l-6.5-9.8C79.2,54.3,79,53.9,79.1,53.7z M60,71.9c0.2-0.3,0.7-0.3,1.2-0.4l0.1,0c0.2,0,0.8-0.1,1.8-0.2c2-0.3,5.5-0.7,9.1-1.2  c2.3-0.3,4.7-0.6,6.4-0.8c0.4,0,0.8-0.1,1-0.1l-7.2-6.3c-0.5-0.5-0.9-0.8-1.2-0.8c-0.1,0-0.2,0-0.4,0.2c-0.4,0.3-0.8,0.7-0.9,0.9  c-0.3,0.3-0.6,0.2-0.7,0L69,63.1l0-0.2c0-0.2,0.1-0.4,0.4-0.6c0.6-0.6,1.2-1.2,1.5-1.6c0.2-0.2,0.3-0.3,0.4-0.4  c0.1-0.1,0.2-0.2,0.4-0.4c0.3-0.3,0.7-0.8,1.1-1.3c0.2-0.2,0.4-0.4,0.6-0.4h0.1l0.2,0.1c0.2,0.2,0.2,0.6,0,0.8  c-0.1,0.1-0.2,0.2-0.4,0.5c-0.3,0.5-0.3,0.6,0.6,1.5l8.8,8.2c0.9,0.8,1.1,1,1.1,1.3c0,0.1,0,0.2-0.1,0.3c-0.3,0.3-0.6,0.4-2.5,0.7  c-0.3,0.1-5.2,0.8-8.8,1.3c-3,0.4-6.5,0.8-8.2,1l6.8,5.9c0.8,0.7,1.3,1,1.6,1c0.1,0,0.3,0,0.4-0.2c0.4-0.3,0.8-0.7,1-0.9  c0.2-0.2,0.5-0.2,0.7-0.1l0.1,0.1l0,0.2c0,0.2-0.1,0.4-0.3,0.6c-0.7,0.8-1.3,1.4-1.7,1.7c-0.1,0.1-0.2,0.2-0.3,0.3  c0,0-0.1,0.2-0.3,0.3c-0.3,0.4-0.8,1-1.4,1.6c-0.2,0.2-0.3,0.3-0.6,0.3c-0.1,0-0.2,0-0.3-0.1c-0.1-0.1-0.1-0.2-0.2-0.3  c0-0.1,0.1-0.3,0.2-0.4c0.1-0.1,0.4-0.4,0.6-0.8c0.2-0.3,0.1-0.6-1.3-1.9l-8.6-8C60.2,73.1,59.5,72.4,60,71.9z M49.5,87.3  c0.2-0.3,0.6-0.3,0.7-0.3l0.2,0c0.1,0,0.2,0,0.3,0c0.5,0,2.9,0.2,5.8,0.3c3,0.2,6.4,0.4,8.2,0.5c2,0.1,2.5-0.4,2.8-0.7  c0.3-0.3,0.5-0.6,0.6-0.8c0.1-0.1,0.3-0.4,0.5-0.4h0.1L69,86c0.3,0.2,0.3,0.5,0,1.1l-0.1,0.2c-0.4,0.6-1.2,2-2,3.4l-0.1,0.1  c-0.3,0.5-0.5,0.8-0.8,0.8h-0.1l-0.1-0.1c-0.3-0.2-0.2-0.4-0.2-0.5c0-0.1,0-0.2,0-0.2l-5.3-0.3l-3.1,5.3l2.1,2.9  c0.3,0.4,0.6,0.8,0.9,1c0.2,0,0.3-0.1,0.5-0.4l0.1-0.2c0.1-0.2,0.3-0.3,0.5-0.3h0.1l0.2,0.1c0.1,0.1,0.2,0.2,0.2,0.3  c0.1,0.2,0,0.4-0.1,0.6c-0.2,0.3-0.5,0.9-0.8,1.3c-0.2,0.3-0.4,0.6-0.5,0.7c0,0.1-0.1,0.3-0.3,0.5c-0.3,0.5-0.7,1.2-1,1.9  c-0.2,0.3-0.3,0.5-0.6,0.5h-0.1l-0.1-0.1c-0.2-0.2-0.3-0.5-0.1-0.7c0.1-0.1,0.3-0.5,0.3-0.7c0.4-0.9,0.2-1.6-0.5-2.6l-7.9-11.9  C49.5,87.9,49.3,87.6,49.5,87.3z M38.2,112.6c0-0.1,0.1-0.2,0.2-0.3c0.1-0.2,0.3-0.4,0.5-0.7c0.3-0.7,0.7-1.6,0.8-1.9l3.6-9.4  c0.3-0.7,0.4-1.3,0.6-1.8c0-0.1,0.1-0.3,0.1-0.4c0-0.2,0.1-0.3,0.1-0.4c0.1-0.3,0.5-0.3,0.7-0.2c0.4,0.1,1,0.4,1.5,0.6  c0.3,0.1,0.5,0.2,0.6,0.3c0.3,0.1,0.5,0.4,0.4,0.7c-0.1,0.3-0.3,0.4-0.8,0.3l-0.2,0c-0.1,0-0.1,0-0.2,0c-0.5,0-1,0.8-1.7,2.4  l-1.1,2.8l7.9,3c1.7,0.6,3.2,1.2,4,1.4c0.2,0,0.3,0.1,0.4,0.1c0,0,0,0,0,0c0.2,0,0.3,0,0.6-0.5c0.2-0.3,0.4-0.9,0.5-1.1  c0.1-0.3,0.4-0.4,0.5-0.4l0.2,0c0.1,0,0.2,0.1,0.2,0.2c0.1,0.2,0.1,0.4,0,0.7c-0.4,1-0.9,2.2-1.1,2.7c-0.1,0.2-0.1,0.3-0.1,0.3  c0,0-0.1,0.2-0.1,0.4c-0.2,0.6-0.6,1.7-0.8,2.2c-0.1,0.2-0.2,0.6-0.6,0.6l-0.2,0c-0.1,0-0.2-0.1-0.3-0.2c0-0.1-0.1-0.2,0-0.4  c0.1-0.2,0.1-0.4,0.2-0.7c0.1-0.3,0-0.5-0.6-0.8c-0.7-0.4-2.1-0.9-3.8-1.6l-8-3.1l-1.2,3.3c-0.5,1.5-0.6,2-0.4,2.5  c0.2,0.3,0.2,0.4,0.3,0.5c0,0,0.1,0.1,0.1,0.1c0.2,0.1,0.2,0.4,0.1,0.6c-0.1,0.2-0.2,0.3-0.5,0.3l-0.2,0c-0.1-0.1-0.5-0.3-1.4-1  c-0.3-0.2-0.5-0.4-0.5-0.4l-0.1-0.1C38.3,113.1,38.1,112.8,38.2,112.6z M35.6,124.2c0.1-0.5,0.3-1.4,0.5-1.9  c0.1-0.4,0.1-0.6,0.2-0.7c0,0,0-0.2,0.1-0.5c0.1-0.6,0.3-1.6,0.4-2.1c0-0.2,0.1-0.6,0.5-0.6l0.1,0c0.1,0,0.2,0.1,0.3,0.2  c0.1,0.1,0.1,0.3,0.1,0.4c0,0.2-0.1,0.3-0.1,0.6c0,0.5,0.1,0.6,0.7,0.8c0.6,0.2,1.2,0.3,4.3,1l3.5,0.8c1.9,0.4,3.5,0.8,4.3,0.8  c0.4,0,0.7,0.1,0.9-0.5c0.1-0.4,0.3-0.9,0.3-1.1c0-0.2,0.3-0.4,0.5-0.4l0.1,0c0.1,0,0.5,0.2,0.3,0.8c-0.2,1.1-0.6,2.4-0.7,2.9  c0,0.2-0.1,0.3-0.1,0.3l-0.1,0.3c-0.1,0.6-0.3,1.6-0.4,2.2c0,0.2-0.1,0.6-0.5,0.6l-0.1,0c-0.1,0-0.2-0.1-0.3-0.2  c-0.1-0.1-0.1-0.3-0.1-0.4c0-0.2,0.1-0.5,0.1-0.8c0-0.3-0.1-0.4-0.7-0.6c-0.9-0.3-2.7-0.7-4.3-1.1l-3.5-0.8  c-3.1-0.7-3.7-0.8-4.3-0.9c-0.5-0.1-0.8,0-0.9,0.4c-0.1,0.3-0.2,0.6-0.2,0.7c-0.1,0.2-0.3,0.4-0.5,0.4l-0.1,0  C35.5,124.9,35.6,124.3,35.6,124.2z M33.3,146.9c0-0.3,0-0.6,0-0.6c0-0.1,0-0.4,0-0.9c0-0.8,0.1-1.9,0.1-2.5  c0.1-1.7,0.3-3.6,1.2-5.1c0.2-0.3,1.4-1.9,3.2-1.8c1.7,0.1,3.1,1.1,4.6,3.3l0,0c2.1-1.9,4-3.6,5.3-4.9c1.1-1.2,1.4-2,1.5-2.7  c0.1-0.5,0.1-0.7,0.1-0.9c0-0.3,0.2-0.5,0.5-0.5c0.1,0,0.2,0.1,0.3,0.1c0.2,0.2,0.2,0.4,0.1,0.8l-0.1,1.7c-0.1,1.5-0.2,2.2-0.6,2.9  c-0.6,1.2-1.6,2.1-3.3,3.5c-0.7,0.6-1.4,1.2-2.1,1.8c-0.5,0.4-0.9,0.7-1.1,0.9c0,0,0,0,0,0.1l-0.2,3.2l0.3,0c2,0.1,3.5,0.2,4.4,0.1  c0.5,0,0.7-0.1,0.8-0.7c0.1-0.3,0.1-0.9,0.2-1.1c0-0.4,0.3-0.5,0.5-0.5c0.1,0,0.3,0.1,0.3,0.1c0.1,0.1,0.2,0.3,0.2,0.6  c-0.1,1.2-0.2,2.5-0.2,3.1l0,0.2c0,0,0,1.8-0.1,2.6c0,0.6-0.3,0.7-0.5,0.7h0c-0.3,0-0.5-0.2-0.5-0.6c0-0.1,0-0.4,0-0.8  c0-0.2-0.1-0.3-0.7-0.5c-0.8-0.2-2.5-0.3-4.3-0.4l-3.8-0.2c-3-0.2-3.6-0.2-4.3-0.2c-0.6,0-0.8,0.1-0.9,0.7c0,0.2-0.1,0.6-0.1,0.9  c0,0.2-0.2,0.5-0.5,0.5c-0.4,0-0.5-0.3-0.5-0.8C33.1,148.7,33.2,147.6,33.3,146.9z M34.8,169.1c-0.7,0.1-0.9,0.3-0.9,1.2  c0,0.2,0,0.7,0.1,1c0,0.2,0,0.3-0.1,0.4l-0.1,0.1l-0.3,0.1c-0.5,0-0.5-0.5-0.6-0.7c-0.1-1-0.3-2.4-0.4-3c0-0.2,0-0.3,0-0.4  c0-0.3-0.1-0.6-0.2-1.1c-0.1-0.6-0.2-1.4-0.3-2.2c-0.7-5,1.6-6.6,3-6.8c1.9-0.3,3.2,0.8,4.5,1.9c0.4-2.1,1.7-5.1,4.5-5.5  c2.7-0.4,5.9,1.8,6.6,7.2c0,0.2,0.1,0.6,0.1,1c0,0.4,0.1,0.8,0.1,1.2c0.1,0.9,0.2,1.7,0.2,1.8l0,0.1c0,0.2,0.1,0.6,0.2,1.1  c0,0.3,0.1,0.7,0.2,1c0,0.3,0.1,0.5,0.1,0.7c0.1,0.5-0.1,0.8-0.4,0.9c-0.2,0-0.5-0.1-0.5-0.5c0-0.2-0.1-0.5-0.2-0.8  c-0.1-0.3-0.4-0.4-1.1-0.5c-1,0-2.9,0.2-5.2,0.6l-4.2,0.6C36.1,168.8,35.5,168.9,34.8,169.1z M43.2,179.5c0-1.6,1.3-2.9,2.8-2.9  c1.6,0,2.8,1.3,2.8,2.9c0,1.6-1.3,2.8-2.8,2.8C44.5,182.3,43.2,181,43.2,179.5z M51.5,205.2c-0.4,0.2-1.7,0.7-2.1,0.8  c-0.5,0.1-0.6,0-1-0.7c-0.8-1.4-1.4-2.5-1.8-3.4c-0.5-0.9-0.8-1.6-1.1-2.1c-0.1-0.2-0.4-0.6-0.6-1c-0.3-0.4-0.5-0.9-0.7-1.2  c-0.1-0.2-0.1-0.4,0-0.5c0.1,0,0.2,0,0.3,0.2c0.1,0.3,0.3,0.5,0.4,0.6c0.3,0.3,0.7,0.2,1.2,0c0.8-0.3,2.2-1.1,3.8-2l3.1-1.7  c2.7-1.5,3.2-1.8,3.7-2.1c0.6-0.4,0.7-0.6,0.5-1.3c0-0.2-0.2-0.5-0.3-0.8c-0.1-0.2-0.1-0.3,0-0.4c0.1-0.1,0.2,0.1,0.4,0.3  c0.5,1,1.1,2.1,1.4,2.7c0.3,0.6,2.5,4.6,2.8,5c0.2,0.3,0.4,0.6,0.5,0.7c0.1,0.1,0.2,0.2,0.2,0.2c0.1,0.1,0,0.2-0.1,0.2  c-0.1,0.1-0.4,0.1-1.2,0.5c-0.2,0.1-1,0.5-1.2,0.5c-0.1,0-0.3,0.1-0.4,0c-0.1-0.1,0-0.2,0.1-0.3c0.1-0.1,0.4-0.3,0.6-0.5  c0.2-0.3,0.4-0.6,0-1.6c-0.1-0.3-1.3-2.5-1.5-2.9c0-0.1-0.1-0.1-0.2,0l-4.3,2.4c-0.1,0.1-0.2,0.1-0.1,0.2c0.2,0.4,1.5,2.8,1.8,3.2  c0.3,0.4,0.5,0.7,0.8,0.7c0.2,0.1,0.3,0.1,0.4,0.2c0,0.1,0,0.2-0.1,0.2c-0.1,0.1-0.4,0.2-1.4,0.6c-0.4,0.2-1.1,0.5-1.2,0.6  c-0.1,0.1-0.4,0.2-0.5,0c-0.1-0.1,0-0.2,0.1-0.2c0.2-0.1,0.4-0.3,0.6-0.4c0.3-0.3,0.4-0.7,0.1-1.4c-0.1-0.4-1.3-2.4-1.5-2.9  c0-0.1-0.1-0.1-0.2,0l-1.4,0.8c-0.6,0.3-2.1,1.1-2.6,1.5c-1.2,0.7-1.1,1.4-0.1,3.3c0.3,0.5,0.7,1.2,1.2,1.6  c0.5,0.3,0.9,0.3,1.7,0.1c0.2-0.1,0.3-0.1,0.4,0.1C51.9,204.9,51.7,205,51.5,205.2z M60.8,215.2c-1.2,0.9-2.5,1.2-4.3,0.6  c-1.2-0.4-2.1-1.4-2.8-2.3c-0.7-1-1.4-2.1-1.6-3c-0.1-0.4-0.1-0.5,0.3-0.7c0.9-0.7,1.9-1.3,2.2-1.5c0.2-0.2,0.5-0.2,0.6-0.1  c0.1,0.2,0,0.3-0.1,0.4c-0.2,0.2-0.5,0.5-0.7,0.8c-0.9,1.3-0.4,2.8,0.4,3.8c1.1,1.4,2.6,1.6,3.8,0.8c0.7-0.5,1.3-1.2,1-3.4  l-0.2-1.4c-0.3-2.8,0.3-4.3,1.7-5.4c2-1.5,4.7-0.5,6.4,1.8c0.8,1.1,1.3,2,1.5,2.6c0.1,0.2,0.1,0.3,0,0.4c-0.2,0.2-0.7,0.4-2,1.4  c-0.3,0.3-0.6,0.3-0.7,0.2c-0.1-0.1,0-0.2,0.2-0.4c0.2-0.1,0.6-0.6,0.7-1.2c0.1-0.5,0.2-1.3-0.6-2.4c-0.9-1.2-2.3-1.8-3.4-1  c-0.7,0.5-1.1,1.2-0.8,3.4l0.1,1C63,212.5,62.3,214.1,60.8,215.2z M73.7,231.8c-0.5,0.6-1.4,0.8-2.1,0.2c-0.8-0.6-0.6-1.5-0.2-2  c0.4-0.5,1.3-0.8,2-0.2C74.1,230.3,74.3,231.1,73.7,231.8z M80.1,220c-0.3,0.3-1.4,1.3-1.8,1.7c-0.2,0.1-0.3,0.2-0.4,0.1  c-0.1-0.1-0.1-0.2,0.1-0.5l0.1-0.2c0.3-0.4,0.4-1.2-0.9-2.6l-1.8-1.9l-5.8,5.8c-1.3,1.3-2.4,2.4-3,3.1c-0.4,0.5-0.5,0.8-0.2,1.3  c0.2,0.2,0.5,0.6,0.7,0.8c0.2,0.2,0.1,0.3,0.1,0.4c-0.1,0.1-0.3,0-0.4-0.1c-1-1-1.9-2-2.3-2.4c-0.3-0.3-1.4-1.3-2-1.9  c-0.2-0.2-0.2-0.3-0.1-0.4c0.1-0.1,0.2-0.1,0.4,0.1c0.2,0.2,0.4,0.4,0.6,0.5c0.4,0.2,0.7,0.1,1.2-0.3c0.7-0.5,1.8-1.7,3.1-3  l5.8-5.8l-2.2-2.1c-0.9-0.8-1.3-1.1-1.9-1c-0.4,0-0.6,0.2-0.7,0.2c-0.2,0.1-0.3,0.1-0.4,0c-0.1-0.1-0.1-0.2,0.1-0.4  c0.2-0.2,1.9-1.3,2-1.4c0.2-0.2,0.4-0.2,0.4-0.1c0.1,0.1,0.1,0.4,0.5,0.8c0.4,0.5,0.9,1.1,1.4,1.5l6,6c0.5,0.5,0.8,0.8,1.1,0.9  c0.3,0.2,0.4,0.3,0.5,0.3C80.4,219.7,80.3,219.8,80.1,220z M55.8,147.2c0-19.2,5.7-37.1,15.4-52c0.8,0.9,1.9,1.7,3,2.2  c1.5,18,4.9,46.1,9.6,77.6c2.5,16.9,5.1,32.8,7.5,46.7C69.7,204.1,55.8,177.3,55.8,147.2z M97.8,179.7l-1.2,7l-0.9,2.9  c-0.7-4.8-1.4-9.7-2.1-14.7c-4-27.1-8.2-51.7-11.7-69.5c1.3,1.8,4.3,6.1,6.3,10.1c0,0,0,0,0,0c0,0,0,0.1,0,0.1  c0.2,0.3,0.3,0.6,0.5,1c0,0,0,0,0,0c0,0.1,0.1,0.1,0.1,0.2l0,0c3,6.2,6.5,14.8,8.1,26.1C99.6,160.7,98.5,174,97.8,179.7z   M219.2,147.5c-3.4,2.3-6.3,5.2-9.7,8.5c-1.2,1.2-2.5,2.5-3.9,3.8l-0.3-2.3c-0.1-0.6-0.6-1-1.2-1c-0.6,0-1,0.5-0.9,1l0.6,3.9  c-0.6,0.5-1.2,1.1-1.8,1.6l-0.3-2.3c-0.1-0.6-0.6-1-1.2-1c-0.6,0-1,0.5-0.9,1l0.6,3.8c-2.2,1.8-4.6,3.7-7.3,5.5  c-3.4,2.3-8.1,4-13.4,5.2l-1.2-8.4c-0.1-0.6-0.6-1-1.2-1c-0.6,0-1,0.5-0.9,1l1.3,8.8c-1.1,0.2-2.2,0.4-3.4,0.6l-1.7-11.4  c-0.1-0.6-0.6-1-1.2-1c-0.6,0-1,0.5-0.9,1l1.7,11.7c-8.3,1-17,0.9-23.1-0.6c-2.2-0.5-7.1-1.6-13.3-2.4l-0.6-3.8  c-0.1-0.6-0.6-1-1.2-1c-0.6,0-1,0.5-0.9,1l0.5,3.6c-9.6-1.2-21.6-1.8-31.1,0.7c0.4-7.2,0.4-17.9-1.5-31.1  c-2-13.2-5.8-23.1-9.3-29.8c3.7-2.2,12.1-5.9,25.6-5.9c12.1,0,24.2,7.9,36,15.4c5,3.2,9.7,6.3,14.4,8.7l1.2,8c0.1,0.6,0.6,1,1.2,1  c0.6,0,1-0.5,0.9-1l-1-7c0.8,0.4,1.6,0.7,2.4,1c7.9,3.1,16.2,6.1,25.1,6.8l0.6,3.8c0.1,0.6,0.6,1,1.2,1s1-0.5,0.9-1l-0.6-3.7  c4.5,0.2,9.1-0.2,13.9-1.5c5.1-1.3,11.8,1,15.7,3.7C225.9,144,222.1,145.6,219.2,147.5z M246.1,142.2c-0.4-0.4-5.1-4.5-10.7-8.6  c-6.2-4.6-16.9-9-26.8-6.4c-10.7,2.8-19.9,0.4-33.2-4.9c-4.7-1.9-10.4-5.6-16.4-9.5c-12.8-8.3-27.4-17.7-43.4-17.7  c-21.1,0-31.7,7.4-33.9,9.2c-0.5-2.4-0.9-4.7-1.4-6.8c2.3-1.1,3.6-3.6,3.2-6.5c-0.4-2.6-2.1-4.9-4.4-6.1c0.8-0.9,1.6-1.8,2.4-2.7  l8.4-8.1c16.7-14.1,38.2-22.6,61.8-22.6c49.8,0,90.7,37.9,95.4,86.5l0,0.4c0.2,1.7,0.3,3.5,0.3,5.2L246.1,142.2z M245.6,108.1  c-1.8-4-2.4-7.3-1.8-10.3c0.6-3,2.3-5.2,5.2-6.6c0.6-0.3,1.8-0.7,3.4-0.7c1.5,0,2.9,0.3,4.2,1c2.6,1.3,4.6,3.7,6.4,7.4  c0.6,1.4,1.2,2.9,1.6,4.1c0.3,1.1,0.6,2,0.9,2.9c0.2,0.5,0.1,0.7-0.3,0.9c-0.1,0-0.2,0.1-0.3,0.1c-0.2,0.1-0.5,0.1-1,0.3  c-0.4,0.2-1,0.4-1.5,0.6c-0.4,0.2-0.7,0.3-0.9,0.4c-0.2,0.1-0.4,0.1-0.5,0.1c-0.2,0-0.4-0.1-0.5-0.3c-0.1-0.2-0.1-0.3,0-0.4  c0.1-0.2,0.3-0.3,0.5-0.5c0.8-0.4,1.4-1.1,1.5-1.9c0.2-1.1-0.1-3.4-1.3-5.9c-1.3-2.8-2.7-4.6-4.4-5.4c-2-1.1-3.9-1.1-6.6,0.2  c-2,0.9-3.5,2.8-4.1,5.1c-0.7,2.5-0.4,5.4,0.8,8.1c0.8,1.7,1.7,3.4,3.1,4.1c0.3,0.1,0.7,0.2,1.2,0.2c0.4,0,0.7,0,0.8-0.1  c0.1,0,0.2,0,0.3,0c0.2,0,0.4,0.1,0.5,0.3c0.1,0.2,0,0.6-0.4,0.8c-0.2,0.1-2.3,0.7-3.2,0.7c-0.1,0-0.2,0-0.2,0  c-0.5,0-0.7-0.2-1-0.5C247.5,111.9,246.3,109.8,245.6,108.1z M241,198.8c0.1-0.1,0.5-0.5,1.7-2.7l3.5-6.7c0.2-0.4,0.3-0.5,0.4-0.4  c0.1,0.1,0.3,0.2,0.3,0.3c1.6,3,8.3,10.6,10.8,12.3c0.3,0.2,0.5,0.3,0.8,0.4c0.4,0.2,0.4,2.4-0.1,3.3c-0.1,0.2-0.2,0.3-0.4,0.2  c-0.2-0.1-0.5-0.3-0.8-0.6c-1.7-1.6-6.5-7.5-9.9-12.9l-2.8,5.5c-0.3,0.6-0.7,1.5-0.6,2.2c0.1,0.5,0.6,1.1,0.9,1.3  c0.2,0.1,0.2,0.2,0.2,0.4c-0.1,0.1-0.2,0.1-0.4,0c-0.8-0.4-3.1-2-3.3-2.1C241,199,240.9,198.9,241,198.8z M236.5,205.2  c1.7-2.4,3.9-3.2,5.8-1.8c2,1.4,1.9,4,1.5,5.4c1.7-0.8,4.4-2.1,6.8-0.4c2.3,1.6,2.9,4.9,0.6,8.2c-2,2.9-4.9,3.8-7.2,2.1  c-2.1-1.5-2.4-4.2-1.8-6.6c-2,1-3.9,1.4-5.5,0.3C235.2,211.2,234.2,208.5,236.5,205.2z M228.2,215.3c2-2.1,4.3-2.6,6-1  c1.8,1.7,1.3,4.3,0.8,5.5c1.8-0.6,4.7-1.5,6.8,0.6c2,1.9,2.2,5.3-0.5,8.2c-2.4,2.5-5.4,3.1-7.5,1.1c-1.9-1.8-1.7-4.5-0.8-6.8  c-2.1,0.7-4.1,0.9-5.5-0.5C226.1,221.1,225.4,218.2,228.2,215.3z M217.2,230.2c0-0.1,1.8-5.2,2.1-6.2c0.1-0.2,0.1-0.5,0.3-0.6  c0.2-0.1,0.4,0,0.5,0.2c0.1,0.1,1.4,2.1,3.7,4.9l2.7,3.5c1.4,1.8,2.6,3.4,3.4,4.1c0.5,0.6,0.8,0.8,1.5,0.4c0.3-0.2,1.2-0.7,1.3-0.8  c0.1-0.1,0.2-0.1,0.3,0.1c0.1,0.1,0,0.2-0.2,0.4c-1.4,1.1-2.7,2-3.2,2.4c-0.4,0.3-2,1.6-3.1,2.5c-0.2,0.2-0.3,0.2-0.4,0.1  c-0.1-0.1-0.1-0.2,0-0.3c0.2-0.2,1.1-1,1.4-1.3c0.5-0.6,0.4-0.9,0-1.6c-0.6-0.9-1.8-2.5-3.2-4.3l-2.3-3c-0.8-1-1.4-1.8-1.9-2.4  c-0.4-0.4-0.5-0.7-0.8-0.5c-0.4,0.3-1.2,2.1-1.5,2.6c-0.1,0.1-0.1,0.2-0.2,0.3c-0.1,0-0.2,0-0.3-0.1  C217.1,230.5,217.1,230.4,217.2,230.2z"></path>	<path class="st0" d="M145.8,142c3.2-1.7,4.8-4.4,4.2-8.3c-1.1-7.5-6.6-9.9-14.2-9.9H117l5.9,40h19.4c7.2,0,13.6-3.5,12.4-11.6  C153.9,147.1,150.9,143.4,145.8,142z M126.8,130.6h8.2c3.1,0,6.2,0.8,6.7,4.6c0.5,3.4-1.6,4.8-4.7,4.8h-8.9L126.8,130.6z   M140.1,156.9h-9.4l-1.6-11h9.6c3.8,0,6.6,1.6,7.2,5.7C146.4,155.8,143.6,156.9,140.1,156.9z"></path>	<path class="st0" d="M245.5,216.4c1.7,1.2,3.9,0.9,5-0.7c1.1-1.5,0.8-3.5-1-4.8c-1.9-1.4-3.9-0.5-6.2,0.5  C243.2,212.9,243.5,215,245.5,216.4z"></path>	<path class="st0" d="M237.8,210c1.2,0.9,2.6,0.6,4.8-0.5c0.1-0.7,0.3-2.6-1.6-4c-1.4-1-3-0.7-3.8,0.5  C236,207.7,236.7,209.2,237.8,210z"></path>	<path class="st0" d="M233.6,220.5c0.3-0.7,0.7-2.5-1-4.2c-1.3-1.2-2.9-1.1-3.8-0.1c-1.4,1.5-0.9,3.1,0,4  C229.9,221.3,231.3,221.2,233.6,220.5z"></path>	<path class="st0" d="M240.6,227.7c1.3-1.3,1.3-3.4-0.3-4.9c-1.7-1.6-3.8-1-6.2-0.4c-0.4,1.4-0.4,3.5,1.4,5.2  C237,229.1,239.2,229.1,240.6,227.7z"></path>	<rect id="_x3C_Slice_x3E_" x="-1.6" y="-1.6" class="st1" width="303.2" height="303.2"></rect>	<path class="st2" d="M121.1,253.8l-2.4,1.2l15,12c0,0,1.1,0.7,1.4,2.2c0.3,0.9-0.1,1.7-0.1,1.7l-1.5,4.9l15-2.7  c0,0,0.9-0.3,1.6,0.6c0.3,0.4,0.4,1,0.4,1l-0.5,15.7h4.1l-0.5-15.7c0,0,0.1-0.8,0.6-1.3c0.7-0.6,1.4-0.4,1.4-0.4l15.2,2.8l-1.6-5.3  c0,0-0.4-0.8,0.1-2c0.4-0.9,0.9-1.2,0.9-1.2l15.4-12.2l-2.5-1.3c0,0-0.7-0.4-1-1.2c-0.3-0.9,0.1-1.5,0.1-1.5l2.6-9.6l-7.9,1.7  c0,0-1.1,0.3-1.9-0.5c-0.6-0.5-0.7-1.1-0.7-1.1l-1.6-3.7l-8.2,8.5c0,0-0.6,0.8-1.6,0.3c-0.9-0.5-0.7-1.4-0.7-1.4l4-18.1l-6.1,3.4  c0,0-0.3,0.2-0.9,0.2c-0.6-0.1-0.9-0.6-0.9-0.6l-6-11.4l-6,11.3c0,0-0.4,0.5-0.7,0.6c-0.6,0.2-1,0-1,0l-6.2-3.5l4,18  c0,0,0.1,0.9-0.4,1.3c-1.1,0.8-1.8,0-1.8,0l-8.3-8.6l-1.8,4.1c0,0-0.3,0.8-1.3,1.1c-0.6,0.3-1.3,0.1-1.3,0.1l-7.8-1.7l2.7,9.9  c0,0,0.2,0.7-0.1,1.3C121.7,253.5,121.1,253.8,121.1,253.8z"></path></g></svg>