<?xml version="1.0" encoding="UTF-8" standalone="no"?> <svg xmlns="http://www.w3.org/2000/svg" xmlns:xlink="http://www.w3.org/1999/xlink" xmlns:serif="http://www.serif.com/" width="100%" height="100%" viewBox="0 0 617 554" version="1.1" xml:space="preserve" style="fill-rule:evenodd;clip-rule:evenodd;stroke-linejoin:round;stroke-miterlimit:2;"><rect id="Artboard1" x="0" y="0" width="616.232" height="553.431" style="fill:none;"></rect><g><g><path d="M304.837,36.376c-80.351,0 -145.473,65.644 -145.473,146.607c0,80.982 65.122,146.614 145.473,146.614c80.329,-0 145.45,-65.632 145.45,-146.614c-0,-80.963 -65.121,-146.607 -145.45,-146.607m0,-9.839c85.732,-0 155.236,70.032 155.236,156.446c-0,86.421 -69.504,156.459 -155.236,156.459c-85.743,-0 -155.235,-70.038 -155.235,-156.459c0,-86.414 69.492,-156.446 155.235,-156.446" style="fill:#0b2647;fill-rule:nonzero;"></path><path d="M304.837,14.567c-92.281,0 -167.099,75.424 -167.099,168.412c0,93.011 74.818,168.429 167.099,168.429c92.264,-0 167.094,-75.418 167.094,-168.429c-0,-92.988 -74.83,-168.412 -167.094,-168.412m0,-5.617c95.358,-0 172.675,77.917 172.675,174.029c0,96.141 -77.317,174.04 -172.675,174.04c-95.374,0 -172.662,-77.899 -172.662,-174.04c-0,-96.112 77.288,-174.029 172.662,-174.029" style="fill:#0b2647;fill-rule:nonzero;"></path><path d="M363.787,139.391c0,0 0.054,-2.256 0.107,-5.314l0.012,-0c0.054,-4.323 0.077,-9.94 -0.119,-13.111c8.04,2.138 16.122,7.161 23.431,13.099l0.802,-0c14.21,11.692 25.355,26.608 27.392,30.301c3.147,5.606 -1.045,7.019 -4.887,7.019l-18.829,-0c-3.83,-0 -5.932,-2.102 -5.932,-6.68c-0,-17.927 -21.977,-25.314 -21.977,-25.314m-14.993,-38.994l0,126.044c0,0 -8.735,3.955 -17.451,5.036l-0,-153.775c-0,-3.194 -4.881,-12.772 3.147,-9.934c8.016,2.838 14.304,5.677 16.739,8.159c2.428,2.47 2.096,4.251 -0.357,5.682c-2.428,1.402 -2.078,6.372 -2.078,18.788Zm38.371,110.238c4.875,-3.599 8.367,-9.697 13.253,-5.03c4.87,4.673 0,10.783 -3.847,14.364c-3.314,3.117 -16.87,18.372 -39.036,27.059l-0.766,0c-3.183,1.182 -6.55,2.262 -10.071,3.106c-28.609,7.042 -35.942,5.284 -41.862,4.572c-5.926,-0.689 -8.373,-3.504 -8.022,-7.363l0.023,-0c0.458,-3.783 2.898,-6.514 7.999,-6.152c5.225,0.344 45.698,8.26 82.329,-30.556m-90.31,60.519l0,-7.292c7.405,0.523 20.415,0.344 26.186,0.368l0,6.924c-6.068,7.553 -20.687,7.244 -26.186,-0m58.216,5.712c-4.893,10.196 -23.034,27.427 -42.569,27.427c-25.813,0 -43.953,-20.753 -46.732,-28.846c1.033,-3.498 3.486,-1.746 3.486,-9.495c-0,-1.805 -0.042,-8.96 -0.107,-18.924c-0.101,-19.429 -0.303,-49.089 -0.434,-71.16l-0.006,-0c-0.077,-14.696 -0.16,-25.717 -0.16,-27.338c0,-5.267 2.096,-9.839 6.633,-9.839c4.536,-0 8.028,-1.063 8.028,8.782l-0,115.676c-0,11.959 9.762,23.562 31.031,23.562c21.282,0 22.333,-17.932 21.644,-22.505c-0.707,-4.578 5.225,-6.68 9.762,-6.68c4.531,0 14.305,9.157 9.424,19.34m-94.883,-126.228l0,66.825c0,0 -17.101,-12.232 -23.033,-19.055c-5.926,-6.834 -8.366,-10.059 -14.649,-11.139c-6.288,-1.081 -9.067,-1.788 -9.067,-5.392c0,-1.3 0.493,-3.088 1.449,-4.768l0.784,-0c1.787,-2.357 4.738,-4.186 8.93,-3.628c7.672,1.075 10.457,-1.039 13.949,-6.318c3.491,-5.273 9.073,-15.801 21.637,-16.525Zm62.794,-6.33l-0,88.612c-0,-0 -17.101,1.074 -26.168,-2.524l-0,-79.402c-0,-8.788 4.186,-16.881 13.247,-16.881c9.073,-0 12.921,4.578 12.921,10.195Zm-130.486,42.961c-5.397,-4.774 -2.256,-7.197 0.475,-10.16l1.057,-0c0.517,-0.683 0.98,-1.407 1.271,-2.209c4.471,-10.302 12.475,-23.544 37.605,-40.811l0.956,0.006c2.025,-1.408 4.18,-2.815 6.436,-4.264c31.044,-19.856 69.07,-22 75.008,-21.626c5.914,0.351 8.717,3.884 8.717,8.153c0,4.24 -2.803,7.078 -10.468,7.078c-19.322,-0.267 -35.497,4.157 -48.383,9.97l-1.496,-0c-19.512,9.079 -30.996,21.252 -33.502,24.624c-4.174,5.63 -6.621,5.986 -12.552,7.019c-6.36,0.238 -9.881,5.695 -11.585,10.819l-0.41,-0c-0.635,2.345 -0.909,4.525 -0.909,6.009c0,5.036 3.474,8.628 8.373,9.346c4.863,0.707 7.321,3.955 11.513,7.922c4.187,3.948 25.468,23.716 32.095,28.027c6.615,4.305 5.92,8.265 4.881,11.133c-1.057,2.886 -6.282,6.11 -10.118,3.949c-29.298,-15.813 -53.37,-48.145 -58.964,-54.985m68.025,-109.205c3.153,-1.068 8.384,-4.257 14.661,-6.383c6.282,-2.143 6.282,3.183 6.282,6.383l0,25.872c-6.282,0.718 -14.304,2.494 -14.304,2.494c-0,-0 0.356,-2.494 -0,-7.102c-0.357,-4.602 -1.39,-11.003 -6.639,-13.823c-5.225,-2.845 -3.123,-6.384 -0,-7.441m174.866,97.804l-0.309,-0c-0.421,-1.473 -1.146,-3.183 -2.221,-5.178c-3.076,-5.576 -13.829,-22.065 -29.891,-37.284l-0.731,-0c-11.175,-10.534 -24.814,-20.391 -40.181,-25.575l-0,-7.09c-0,-1.757 1.039,-5.67 3.129,-7.084c2.096,-1.413 9.067,-6.727 5.225,-11.347c-3.83,-4.608 -16.044,-22.701 -46.042,-26.952c-6.972,-0.356 -12.203,4.976 -7.666,9.934c4.518,4.946 6.282,9.928 6.282,15.955l-0,19.15c-0,-0 -19.191,-0.344 -27.576,1.063l0,-29.078c0,-6.027 -3.135,-18.075 -13.592,-14.186c-10.474,3.89 -23.728,11.342 -30.354,13.129c-6.633,1.763 -12.203,8.159 -4.537,14.18c7.672,6.027 11.163,10.634 11.163,15.236c0,4.62 -0.338,8.159 -0.338,8.159c-0,0 -21.252,8.521 -40.752,24.488l-0.825,0c-12.274,10.166 -23.722,23.271 -28.538,39.054c-3.129,1.051 -6.478,1.959 -9.085,3.426l-1.87,-0c-1.616,1.425 -2.661,3.313 -2.661,6.009c0,7.179 4.181,10.427 10.113,10.427c5.201,5.35 25.408,35.277 57.722,55.039l0.552,-0c6.603,3.913 13.687,7.404 21.27,10.183c0.344,0.701 0,7.737 0,7.737c0,0 -3.486,3.516 -6.276,5.273c-2.803,1.746 -5.588,3.878 -0.363,10.902c5.226,7.019 24.067,35.503 53.721,35.503c29.66,0 50.241,-23.199 57.568,-33.745c1.752,-5.279 5.57,-12.315 0.338,-14.768c-5.225,-2.476 -6.977,-7.392 -2.084,-10.902c1.871,-1.348 7.423,-5.302 13.913,-10.183l0.421,-0c10.332,-7.969 22.933,-18.236 27.178,-24.138c6.971,-9.697 7.678,-15.813 1.402,-21.911c-6.289,-6.116 -12.559,-12.582 -20.943,-4.323c-8.379,8.26 -18.473,17.262 -22.66,19.768l0,-65.038c0,-0 7.666,2.452 7.666,8.788l0,14.411c0,0.695 -0.012,1.443 0.018,2.215l0.107,-0c0.416,3.521 2.268,6.924 10.338,6.924l39.422,-0c4.614,-0 13.491,0.243 11.947,-8.171" style="fill:#0b2647;"></path></g><g><path d="M56.796,528.667c5.896,-0.481 11.899,-2.589 18.009,-6.306c6.11,-3.717 10.629,-8.022 13.557,-12.903c2.927,-4.881 4.388,-9.518 4.388,-13.918c-0,-2.898 -0.814,-5.202 -2.429,-6.918c-1.621,-1.716 -3.664,-2.577 -6.128,-2.577c-3.432,-0 -6.983,1.377 -10.658,4.139c-4.929,3.669 -8.973,8.954 -12.137,15.866c-3.165,6.911 -4.745,13.318 -4.745,19.215c0,1.205 0.042,2.339 0.143,3.402m23.051,-87.056c-4.596,3.142 -8.889,6.597 -12.903,10.368c-4.015,3.771 -7.464,7.559 -10.362,11.377c-2.084,2.761 -4.448,6.455 -7.108,11.092c8.313,0 15.54,-0.558 21.674,-1.663c6.187,-1.116 12.998,-3.343 20.438,-6.668c7.44,-3.343 14.019,-7.131 19.72,-11.383c5.7,-4.305 9.667,-8.408 11.887,-12.321c1.592,-2.755 2.393,-5.32 2.393,-7.684c0,-2.131 -0.777,-3.871 -2.321,-5.219c-1.544,-1.354 -4.032,-2.031 -7.464,-2.031c-4.786,0 -10.374,1.206 -16.751,3.622c-6.377,2.465 -12.244,5.635 -17.612,9.501c2.221,2.993 4.543,6.805 6.959,11.448c1.063,1.984 1.598,3.219 1.598,3.7c-0,0.19 -0.066,0.35 -0.179,0.469c-0.124,0.118 -0.279,0.178 -0.475,0.178c-0.196,-0 -0.386,-0.095 -0.576,-0.291c-0.196,-0.238 -0.635,-1.039 -1.312,-2.387c-2.268,-4.543 -4.804,-8.575 -7.606,-12.108m-1.889,-2.244c-4.78,-5.362 -9.916,-9.4 -15.397,-12.102c-5.486,-2.707 -11.953,-4.061 -19.393,-4.061c-10.195,-0 -18.455,3.236 -24.791,9.708c-4.827,4.929 -7.244,10.344 -7.244,16.235c-0,2.565 0.481,5.053 1.449,7.47c0.968,2.416 2.363,4.649 4.204,6.703c1.835,2.061 4.156,3.902 6.959,5.546c2.85,1.645 5.843,2.851 8.984,3.629c3.189,0.819 5.635,1.229 7.328,1.229c4.103,-6.188 8.645,-11.597 13.627,-16.235c5.018,-4.685 13.117,-10.729 24.274,-18.122m1.889,-0.873c6.276,-3.765 12.511,-6.787 18.698,-9.061c6.187,-2.322 11.817,-3.48 16.894,-3.48c4.008,0 6.929,0.825 8.77,2.47c1.835,1.645 2.749,3.884 2.749,6.74c0,2.464 -0.843,5.243 -2.529,8.337c-1.699,3.093 -4.982,6.614 -9.863,10.575c-6.716,5.463 -15.1,10.659 -25.153,15.587c-7.494,3.676 -15.053,6.312 -22.683,7.904c-5.22,1.062 -11.722,1.787 -19.5,2.179c-5.41,12.267 -8.123,22.873 -8.123,31.815c-0,4.543 0.682,8.064 2.03,10.552c1.354,2.482 3.13,4.204 5.333,5.142c2.197,0.944 5.029,1.437 8.509,1.49c-0.38,-2.47 -0.576,-4.791 -0.576,-6.959c-0,-11.021 3.028,-20.07 9.097,-27.148c6.062,-7.078 12.475,-10.623 19.244,-10.623c3.581,0 6.413,1.039 8.521,3.118c2.096,2.078 3.147,4.904 3.147,8.485c0,7.393 -3.188,14.304 -9.566,20.729c-7.832,8.016 -17.107,12.826 -27.837,14.423c0.44,2.904 1.259,7.007 2.471,12.321c0.142,0.63 0.213,1.022 0.213,1.158c0,0.244 -0.059,0.44 -0.178,0.582c-0.125,0.149 -0.303,0.22 -0.546,0.22c-0.19,-0 -0.386,-0.148 -0.576,-0.433c-0.439,-0.772 -1.283,-4.228 -2.542,-10.368l-0.653,-3.337c-4.97,-0.095 -8.96,-0.873 -11.953,-2.322c-4.014,-1.93 -7.214,-4.952 -9.607,-9.055c-2.393,-4.103 -3.593,-9.014 -3.593,-14.72c0,-7.631 2.352,-16.134 7.037,-25.51c-6.14,-1.11 -11.164,-2.802 -15.077,-5.071c-3.96,-2.274 -7.167,-5.451 -9.607,-9.53c-2.441,-4.085 -3.658,-8.568 -3.658,-13.449c0,-8.07 3.195,-15.053 9.602,-20.949c6.407,-5.897 14.678,-8.842 24.826,-8.842c8.07,0 15.468,1.764 22.178,5.291c5.125,2.606 9.958,6.525 14.501,11.739" style="fill:#0b2647;fill-rule:nonzero;"></path><path d="M146.531,441.761l9.78,-1.021c-4.928,7.25 -12.873,19.625 -23.847,37.112c-11.02,17.546 -18.746,30.23 -23.193,38.056c-1.936,3.337 -3.141,5.801 -3.622,7.393c-0.244,0.92 -0.363,1.787 -0.363,2.612c0,0.867 0.167,1.497 0.505,1.883c0.339,0.391 0.796,0.582 1.378,0.582c1.401,-0 3.022,-0.505 4.857,-1.527c2.904,-1.543 6.205,-4.079 9.928,-7.606c3.771,-3.581 6.888,-6.912 9.352,-10.005c1.063,-1.259 1.764,-1.883 2.102,-1.883c0.19,0 0.351,0.072 0.47,0.22c0.124,0.137 0.184,0.315 0.184,0.505c-0,0.772 -2.536,3.747 -7.613,8.913c-8.455,8.604 -14.91,12.909 -19.351,12.909c-1.788,-0 -3.272,-0.671 -4.46,-1.996c-1.187,-1.33 -1.775,-3.254 -1.775,-5.765c-0,-2.417 0.552,-4.976 1.668,-7.684c1.158,-2.708 4.299,-8.04 9.424,-16.021l6.163,-9.785c-1.894,2.713 -4.471,5.902 -7.761,9.572l-10.872,12.101c-0.142,0.095 -0.315,0.149 -0.505,0.149c-0.196,-0 -0.35,-0.072 -0.475,-0.22c-0.112,-0.143 -0.178,-0.315 -0.178,-0.511c0,-0.38 1.016,-1.686 3.046,-3.907c6.764,-7.345 12.417,-13.99 16.959,-19.933c2.363,-2.999 6.401,-8.919 12.102,-17.761c5.753,-8.847 11.115,-17.635 16.097,-26.382" style="fill:#0b2647;fill-rule:nonzero;"></path><path d="M151.895,488.511l8.194,-0.362l-18.199,28.555c-2.174,3.385 -3.254,6.14 -3.254,8.272c-0,0.813 0.237,1.508 0.718,2.06c0.487,0.558 1.063,0.837 1.74,0.837c1.021,0 2.126,-0.291 3.337,-0.873c2.369,-1.157 5.582,-3.598 9.637,-7.321c4.062,-3.771 7.66,-7.785 10.801,-12.03c4.976,-6.769 9.353,-13.028 13.123,-18.776l9.418,-0.724l-13.984,20.729c-3.771,5.558 -6.211,9.542 -7.322,11.959c-0.682,1.597 -1.015,3.022 -1.015,4.275c0,0.778 0.19,1.378 0.576,1.817c0.392,0.434 0.92,0.653 1.597,0.653c1.883,0 4.305,-1.134 7.251,-3.408c4.637,-3.622 9.251,-8.313 13.841,-14.061c1.211,-1.496 1.912,-2.345 2.102,-2.535c0.19,-0.149 0.41,-0.22 0.653,-0.22c0.196,-0 0.35,0.065 0.475,0.178c0.113,0.125 0.178,0.279 0.178,0.469c0,0.73 -2.589,3.872 -7.761,9.43c-7.63,8.117 -13.384,12.178 -17.243,12.178c-1.693,0 -3.052,-0.653 -4.062,-1.959c-1.354,-1.693 -2.025,-4.157 -2.025,-7.393c0,-1.74 0.333,-3.848 1.004,-6.306c-6.182,6.615 -11.063,11.11 -14.631,13.479c-2.274,1.544 -4.424,2.316 -6.455,2.316c-1.692,-0 -3.07,-0.647 -4.139,-1.954c-1.395,-1.787 -2.096,-4.18 -2.096,-7.173c0,-1.983 0.315,-3.943 0.939,-5.872c0.677,-1.93 1.983,-4.395 3.919,-7.393c0.819,-1.259 4.227,-6.045 10.219,-14.352c-2.417,1.74 -6.983,6.33 -13.699,13.77l-2.102,2.25c-0.148,0.143 -0.339,0.214 -0.582,0.214c-0.19,0 -0.362,-0.071 -0.505,-0.214c-0.148,-0.148 -0.219,-0.32 -0.219,-0.51c-0,-0.291 0.582,-1.063 1.739,-2.316c5.754,-6.235 11.698,-12.131 17.832,-17.689" style="fill:#0b2647;fill-rule:nonzero;"></path><path d="M235.392,441.761l9.429,-1.378l-34.867,58.418c-6.134,10.249 -9.905,17.012 -11.306,20.296c-0.974,2.179 -1.455,3.984 -1.455,5.433c0,1.217 0.291,2.096 0.873,2.654c0.582,0.552 1.496,0.825 2.755,0.825c2.031,0 4.406,-0.576 7.138,-1.739c2.731,-1.158 5.302,-2.845 7.719,-5.066c2.47,-2.274 4.471,-4.762 6.015,-7.469c1.597,-2.756 2.779,-5.843 3.551,-9.275c0.386,-1.889 0.7,-4.834 0.944,-8.848c0.148,-2.708 0.416,-4.37 0.796,-5c0.677,-1.211 1.769,-1.811 3.265,-1.811c1.111,0 2.019,0.422 2.72,1.271c0.695,0.843 1.051,2.161 1.051,3.949c0,2.654 -0.837,5.967 -2.5,9.928c-1.674,3.966 -3.954,7.731 -6.858,11.306l-1.449,1.74c-0.047,0.053 -0.071,0.118 -0.071,0.219c-0,0.048 0.024,0.101 0.071,0.143c0.101,0.047 0.291,0.077 0.582,0.077c2.031,-0 4.447,-0.701 7.25,-2.102c2.803,-1.407 5.629,-3.818 8.479,-7.25c0.339,-0.386 0.66,-0.582 0.945,-0.582c0.243,-0 0.433,0.065 0.582,0.184c0.142,0.119 0.213,0.297 0.213,0.54c0,0.339 -0.653,1.206 -1.953,2.613c-2.607,2.85 -5.327,4.928 -8.159,6.235c-2.82,1.3 -5.398,1.953 -7.719,1.953c-0.333,0 -0.968,-0.047 -1.883,-0.142c-2.945,2.612 -5.005,4.323 -6.163,5.142c-2.945,1.983 -5.647,3.438 -8.117,4.353c-2.459,0.914 -4.685,1.371 -6.669,1.371c-2.369,0 -4.364,-0.891 -5.979,-2.678c-1.621,-1.787 -2.429,-4.204 -2.429,-7.25c0,-2.506 0.737,-5.409 2.215,-8.693c1.473,-3.29 4.65,-8.141 9.531,-14.566c1.638,-2.132 2.458,-3.343 2.458,-3.634c-0,-0.089 -0.024,-0.166 -0.071,-0.214c-0.042,-0.047 -0.095,-0.077 -0.143,-0.077c-0.19,0 -0.849,0.659 -1.954,1.96l-13.2,14.934c-0.48,0.629 -0.89,0.944 -1.229,0.944c-0.243,-0 -0.421,-0.06 -0.546,-0.184c-0.113,-0.119 -0.178,-0.303 -0.178,-0.547c-0,-0.237 0.125,-0.528 0.368,-0.867c0.333,-0.433 2.387,-2.725 6.158,-6.882c3.812,-4.204 6.888,-7.832 9.209,-10.872c2.364,-3.094 4.828,-6.627 7.387,-10.587c3.866,-6.087 6.888,-10.991 9.061,-14.709l14.133,-24.066Z" style="fill:#0b2647;fill-rule:nonzero;"></path><path d="M336.075,427.983c-4.928,1.212 -9.031,2.607 -12.315,4.21c-5.95,2.845 -11.359,6.52 -16.24,11.015c-4.881,4.489 -8.254,8.806 -10.113,12.939c-1.858,4.127 -2.79,8.129 -2.79,12c-0,3.522 0.944,6.253 2.826,8.189c1.888,1.93 4.37,2.897 7.47,2.897c3.527,0 7.339,-1.062 11.448,-3.188c4.109,-2.173 8.022,-5.172 11.745,-8.99c3.718,-3.866 6.871,-8.432 9.46,-13.699c2.583,-5.267 3.877,-10.053 3.877,-14.358c0,-2.262 -0.463,-4.37 -1.378,-6.3c-0.914,-1.93 -2.25,-3.503 -3.99,-4.715m86.623,-0.795l-48.133,74.883c-4.394,6.858 -7.245,11.822 -8.551,14.886c-1.306,3.076 -1.953,5.647 -1.953,7.725c-0,1.063 0.225,1.835 0.682,2.322c0.458,0.481 1.146,0.719 2.067,0.719c1.063,-0 2.227,-0.262 3.479,-0.796c1.835,-0.725 4.133,-2.126 6.888,-4.204c2.803,-2.078 5.552,-4.519 8.26,-7.316c3.527,-3.723 5.944,-6.407 7.25,-8.052c0.339,-0.433 0.659,-0.647 0.944,-0.647c0.196,0 0.351,0.071 0.469,0.214c0.119,0.143 0.185,0.315 0.185,0.505c-0,0.243 -0.125,0.534 -0.363,0.867c-0.338,0.534 -1.834,2.25 -4.501,5.154c-2.701,2.945 -5.189,5.409 -7.458,7.392c-3.628,3.237 -6.692,5.463 -9.203,6.669c-2.566,1.259 -4.668,1.882 -6.312,1.882c-1.639,0 -2.963,-0.612 -3.949,-1.847c-0.992,-1.229 -1.491,-3.42 -1.491,-6.561c0,-3.236 0.44,-6.526 1.313,-9.857c0.867,-3.337 2.434,-7.494 4.709,-12.47c-9.81,11.502 -18.8,19.964 -26.965,25.373c-5.843,3.812 -10.438,5.724 -13.77,5.724c-2.22,0 -4.014,-0.783 -5.368,-2.357c-1.347,-1.562 -2.03,-4.026 -2.03,-7.351c-0,-3.052 0.51,-6.087 1.52,-9.139c1.407,-4.198 3.8,-9.126 7.179,-14.785c1.888,-3.141 7.873,-12.25 17.98,-27.326c4.928,-7.346 8.016,-12.054 9.275,-14.139c1.74,-2.992 3.034,-5.795 3.877,-8.408c0.843,-2.606 1.271,-5.166 1.271,-7.677c0,-3.48 -1.223,-6.283 -3.664,-8.409c-2.44,-2.125 -6.288,-3.188 -11.561,-3.188c-2.411,-0 -4.566,0.237 -6.448,0.718c3.865,3.533 5.795,8.361 5.795,14.501c0,5.504 -1.158,10.676 -3.474,15.516c-2.369,4.827 -5.368,9.031 -8.99,12.606c-3.669,3.574 -7.66,6.407 -11.959,8.485c-4.346,2.126 -8.728,3.189 -13.122,3.189c-4.015,-0 -7.28,-1.259 -9.822,-3.771c-2.535,-2.512 -3.806,-5.754 -3.806,-9.714c-0,-4.495 1.039,-8.866 3.117,-13.117c2.079,-4.258 5.25,-8.408 9.495,-12.464c4.252,-4.115 8.723,-7.446 13.408,-10.011c4.738,-2.607 9.809,-4.584 15.231,-5.938c-3.723,-1.835 -7.785,-2.761 -12.179,-2.761c-6.241,-0 -13.111,2.226 -20.628,6.668c-7.512,4.447 -13.758,10.831 -18.734,19.138c-4.976,8.313 -7.85,16.988 -8.628,26.026c-0.095,0.914 -0.19,1.449 -0.291,1.591c-0.137,0.196 -0.339,0.291 -0.582,0.291c-0.238,0 -0.422,-0.095 -0.54,-0.291c-0.119,-0.19 -0.179,-0.534 -0.179,-1.015c0,-4.157 0.897,-8.842 2.678,-14.061c1.841,-5.261 4.4,-10.439 7.684,-15.51c3.29,-5.077 7.274,-9.471 11.965,-13.194c4.733,-3.771 9.447,-6.567 14.132,-8.408c4.739,-1.835 9.18,-2.755 13.337,-2.755c4.827,-0 9.714,1.229 14.643,3.699c2.363,-0.529 4.928,-0.796 7.683,-0.796c6.621,0 11.585,1.603 14.899,4.816c3.301,3.218 4.958,7.868 4.958,13.96c-0,3.812 -0.541,7.381 -1.627,10.688c-1.093,3.308 -3.521,8.058 -7.292,14.245c-3.765,6.182 -10.148,15.896 -19.132,29.132c-5.457,8.075 -9.014,13.894 -10.653,17.475c-1.692,3.622 -2.535,6.401 -2.535,8.331c-0,1.259 0.297,2.215 0.903,2.862c0.605,0.659 1.442,0.98 2.499,0.98c2.031,-0 4.786,-0.915 8.266,-2.749c6.235,-3.237 12.755,-8.266 19.571,-15.083c8.218,-8.117 16.502,-18.651 24.857,-31.601l27.836,-42.908l3.771,-5.872c0.73,-1.022 1.354,-1.645 1.888,-1.889c0.671,-0.338 2.269,-0.552 4.78,-0.647l5.149,-0.148Z" style="fill:#0b2647;fill-rule:nonzero;"></path><path d="M394.277,528.882l19.423,-28.336c2.857,-4.204 4.282,-7.037 4.282,-8.485c-0,-0.671 -0.19,-1.206 -0.576,-1.592c-0.392,-0.386 -0.873,-0.576 -1.455,-0.576c-1.983,0 -4.228,0.915 -6.734,2.744c-3.723,2.761 -8.8,8.028 -15.231,15.812c-0.575,0.719 -1.039,1.081 -1.371,1.081c-0.244,-0 -0.428,-0.071 -0.546,-0.214c-0.119,-0.148 -0.179,-0.32 -0.179,-0.51c0,-0.291 0.19,-0.648 0.576,-1.087c4.204,-4.976 7.613,-8.794 10.22,-11.448c2.606,-2.661 5.029,-4.668 7.25,-6.021c2.226,-1.402 4.346,-2.097 6.377,-2.097c1.597,0 2.898,0.588 3.919,1.77c1.01,1.188 1.52,2.963 1.52,5.326c0,1.984 -0.558,4.305 -1.668,6.959c-1.164,2.661 -3.694,6.746 -7.613,12.25l17.398,-17.831c3.818,-3.812 6.77,-6.277 8.842,-7.393c1.455,-0.772 2.856,-1.158 4.204,-1.158c1.645,0 2.999,0.612 4.062,1.847c1.062,1.229 1.597,3.005 1.597,5.326c-0,1.402 -0.22,2.785 -0.659,4.133c-0.428,1.354 -1.081,2.779 -1.954,4.275c-0.481,0.826 -1.93,2.898 -4.346,6.241c-3.961,5.505 -6.55,9.418 -7.755,11.733c-0.535,1.069 -0.802,2.007 -0.802,2.833c0,0.968 0.226,1.692 0.689,2.173c0.463,0.481 1.027,0.725 1.704,0.725c1.11,-0 2.345,-0.386 3.699,-1.158c2.465,-1.354 5.552,-3.872 9.275,-7.542c3.723,-3.723 6.912,-7.178 9.566,-10.367c0.487,-0.624 0.873,-0.938 1.164,-0.938c0.244,-0 0.434,0.071 0.576,0.219c0.149,0.143 0.226,0.315 0.226,0.505c-0,0.291 -0.202,0.653 -0.582,1.087c-3.343,4.008 -6.888,7.802 -10.659,11.383c-3.818,3.622 -6.983,6.211 -9.5,7.749c-1.295,0.778 -2.655,1.164 -4.056,1.164c-1.645,-0 -3.04,-0.701 -4.198,-2.102c-1.55,-1.883 -2.322,-4.228 -2.322,-7.025c0,-2.809 0.529,-5.344 1.592,-7.618c1.11,-2.316 4.495,-7.126 10.147,-14.418c2.126,-2.707 3.373,-4.394 3.735,-5.041c0.363,-0.653 0.541,-1.223 0.541,-1.704c-0,-0.434 -0.155,-0.796 -0.469,-1.087c-0.315,-0.291 -0.76,-0.439 -1.336,-0.439c-0.873,-0 -1.817,0.22 -2.833,0.653c-1.496,0.683 -3.479,2.179 -5.944,4.495c-6.038,5.653 -11.739,11.407 -17.107,17.25c-2.998,3.289 -7.226,8.431 -12.677,15.444l-10.012,1.01Z" style="fill:#0b2647;fill-rule:nonzero;"></path><path d="M491.841,470.604c-1.015,0 -1.87,-0.35 -2.577,-1.051c-0.701,-0.694 -1.045,-1.579 -1.045,-2.642c-0,-1.639 0.511,-3.01 1.52,-4.097c1.015,-1.087 2.245,-1.627 3.699,-1.627c1.057,-0 1.895,0.327 2.494,0.974c0.606,0.653 0.915,1.585 0.915,2.797c-0,1.585 -0.511,2.933 -1.526,4.019c-1.016,1.087 -2.174,1.627 -3.48,1.627m-16.959,19.287l9.275,-0.511l-18.413,29.577c-1.449,2.316 -2.173,4.37 -2.173,6.158c-0,1.021 0.267,1.787 0.801,2.315c0.529,0.535 1.206,0.802 2.031,0.802c1.3,0 2.898,-0.511 4.78,-1.52c2.951,-1.645 6.33,-4.323 10.142,-8.046c3.824,-3.723 7.084,-7.298 9.792,-10.73c0.291,-0.386 0.599,-0.582 0.938,-0.582c0.243,0 0.421,0.072 0.546,0.226c0.119,0.136 0.184,0.309 0.184,0.505c0,0.19 -0.053,0.409 -0.148,0.653c-0.095,0.089 -1.449,1.639 -4.062,4.637c-2.607,3.041 -5.552,6.015 -8.835,8.913c-3.343,2.945 -6.265,5.03 -8.777,6.235c-1.929,0.914 -3.622,1.378 -5.071,1.378c-1.882,-0 -3.444,-0.701 -4.673,-2.102c-1.235,-1.402 -1.852,-3.528 -1.852,-6.378c-0,-2.66 0.605,-5.344 1.817,-8.046c1.787,-3.966 5.771,-10.367 11.959,-19.209c-2.37,2.363 -6.36,6.668 -11.959,12.903c-1.212,1.301 -1.865,1.984 -1.96,2.025c-0.19,0.149 -0.392,0.226 -0.582,0.226c-0.243,-0 -0.421,-0.066 -0.546,-0.19c-0.113,-0.113 -0.178,-0.303 -0.178,-0.547c-0,-0.285 0.166,-0.623 0.504,-1.003l16.46,-17.689Z" style="fill:#0b2647;fill-rule:nonzero;"></path><path d="M537.077,456.687c1.111,0 1.978,0.309 2.607,0.909c0.63,0.605 0.944,1.443 0.944,2.5c0,1.549 -0.968,3.669 -2.903,6.377c-2.506,3.58 -6.063,7.108 -10.659,10.587c-3.23,2.512 -5.237,3.765 -6.009,3.765c-0.244,-0 -0.428,-0.054 -0.546,-0.178c-0.125,-0.119 -0.179,-0.256 -0.179,-0.398c0,-0.19 0.078,-0.392 0.256,-0.582c0.166,-0.19 0.926,-0.825 2.28,-1.882c2.559,-1.984 4.667,-4.228 6.306,-6.74c1.015,-1.603 1.882,-3.723 2.607,-6.377c0.968,-3.581 1.763,-5.802 2.399,-6.669c0.623,-0.872 1.585,-1.312 2.897,-1.312m-8.271,39.796c-0,-2.274 -0.493,-3.949 -1.485,-5.035c-0.991,-1.087 -2.375,-1.633 -4.162,-1.633c-2.518,-0 -5.22,1.235 -8.117,3.693c-4.691,3.919 -8.474,8.676 -11.348,14.281c-2.874,5.611 -4.311,10.754 -4.311,15.444c0,1.639 0.375,2.851 1.123,3.617c0.748,0.778 1.823,1.164 3.23,1.164c2.844,-0 5.968,-1.206 9.346,-3.623c4.543,-3.283 8.295,-7.576 11.27,-12.867c2.969,-5.291 4.454,-10.302 4.454,-15.041m-7.025,22.404c-4.061,4.151 -7.517,7.001 -10.367,8.545c-2.851,1.549 -5.629,2.321 -8.337,2.321c-2.898,0 -5.208,-1.074 -6.924,-3.224c-1.716,-2.15 -2.565,-5.932 -2.565,-11.341c0,-1.645 0.113,-3.338 0.356,-5.077c0.196,-1.259 0.291,-1.954 0.291,-2.102c0,-0.095 -0.024,-0.173 -0.071,-0.22c-0.048,-0.042 -0.095,-0.071 -0.148,-0.071c-0.19,-0 -0.428,0.148 -0.719,0.439c-0.968,1.105 -1.668,1.663 -2.108,1.663c-0.243,-0 -0.421,-0.06 -0.54,-0.178c-0.119,-0.125 -0.184,-0.28 -0.184,-0.475c-0,-0.291 0.196,-0.648 0.582,-1.087c3.58,-4.157 7.161,-7.672 10.765,-10.546c3.598,-2.868 7.209,-5.154 10.837,-6.846c3.622,-1.699 6.911,-2.536 9.857,-2.536c3.046,0 5.397,0.867 7.066,2.607c1.668,1.74 2.5,4.252 2.5,7.541c-0,6.182 -2.946,12.44 -8.842,18.77c0.535,0.101 1.063,0.142 1.597,0.142c2.797,0 5.386,-0.647 7.749,-1.959c2.376,-1.348 5.03,-3.765 7.981,-7.244c0.338,-0.434 0.647,-0.654 0.938,-0.654c0.244,0 0.422,0.072 0.546,0.22c0.113,0.143 0.179,0.315 0.179,0.505c-0,0.392 -0.749,1.431 -2.245,3.117c-2.898,3.094 -5.706,5.184 -8.408,6.271c-2.708,1.086 -5.974,1.555 -9.786,1.419" style="fill:#0b2647;fill-rule:nonzero;"></path><path d="M542.581,528.882l19.423,-28.336c2.856,-4.204 4.281,-7.037 4.281,-8.485c-0,-0.671 -0.19,-1.206 -0.576,-1.592c-0.392,-0.386 -0.873,-0.576 -1.455,-0.576c-1.983,0 -4.228,0.915 -6.734,2.744c-3.723,2.761 -8.8,8.028 -15.23,15.812c-0.576,0.719 -1.039,1.081 -1.372,1.081c-0.243,-0 -0.428,-0.071 -0.546,-0.214c-0.119,-0.148 -0.178,-0.32 -0.178,-0.51c-0,-0.291 0.19,-0.648 0.576,-1.087c4.204,-4.976 7.612,-8.794 10.219,-11.448c2.606,-2.661 5.029,-4.668 7.25,-6.021c2.227,-1.402 4.346,-2.097 6.377,-2.097c1.598,0 2.898,0.588 3.919,1.77c1.01,1.188 1.52,2.963 1.52,5.326c0,1.984 -0.558,4.305 -1.668,6.959c-1.164,2.661 -3.694,6.746 -7.613,12.25l17.399,-17.831c3.818,-3.812 6.769,-6.277 8.841,-7.393c1.455,-0.772 2.856,-1.158 4.204,-1.158c1.645,0 2.999,0.612 4.062,1.847c1.063,1.229 1.597,3.005 1.597,5.326c-0,1.402 -0.22,2.785 -0.659,4.133c-0.428,1.354 -1.081,2.779 -1.954,4.275c-0.481,0.826 -1.93,2.898 -4.346,6.241c-3.961,5.505 -6.55,9.418 -7.755,11.733c-0.535,1.069 -0.802,2.007 -0.802,2.833c0,0.968 0.226,1.692 0.689,2.173c0.463,0.481 1.027,0.725 1.704,0.725c1.111,-0 2.346,-0.386 3.7,-1.158c2.464,-1.354 5.551,-3.872 9.275,-7.542c3.723,-3.723 6.911,-7.178 9.566,-10.367c0.486,-0.624 0.872,-0.938 1.163,-0.938c0.244,-0 0.434,0.071 0.576,0.219c0.149,0.143 0.226,0.315 0.226,0.505c-0,0.291 -0.202,0.653 -0.582,1.087c-3.343,4.008 -6.888,7.802 -10.658,11.383c-3.819,3.622 -6.983,6.211 -9.501,7.749c-1.295,0.778 -2.654,1.164 -4.056,1.164c-1.645,-0 -3.04,-0.701 -4.198,-2.102c-1.55,-1.883 -2.322,-4.228 -2.322,-7.025c0,-2.809 0.529,-5.344 1.592,-7.618c1.11,-2.316 4.495,-7.126 10.148,-14.418c2.125,-2.707 3.372,-4.394 3.735,-5.041c0.362,-0.653 0.54,-1.223 0.54,-1.704c-0,-0.434 -0.154,-0.796 -0.469,-1.087c-0.315,-0.291 -0.76,-0.439 -1.336,-0.439c-0.873,-0 -1.817,0.22 -2.833,0.653c-1.496,0.683 -3.479,2.179 -5.943,4.495c-6.039,5.653 -11.74,11.407 -17.108,17.25c-2.998,3.289 -7.226,8.431 -12.677,15.444l-10.011,1.01Z" style="fill:#0b2647;fill-rule:nonzero;"></path></g></g></svg> 