<svg id="Layer_1" data-name="Layer 1" xmlns="http://www.w3.org/2000/svg" viewBox="0 0 494.09 96"><defs><style>.cls-1{fill:#00432a;}.cls-2,.cls-4{fill:none;stroke-miterlimit:10;}.cls-2{stroke:#00432a;}.cls-3{fill:#fff;}.cls-4{stroke:#00423a;}.cls-5{fill:#00423a;}.cls-6{fill:#a09982;}</style></defs><title>ICB_Web_Grafik_Head2</title><path class="cls-1" d="M239.8,26.67H73.5C53.15,26.67,27,7.76,0,7.76H0.09v-7H239.8l254.29-.06v7h-1.54c-24.51,0-49.76,18.91-73.5,18.91Z" transform="translate(0 29.13)"/><rect class="cls-2" x="214.08" y="29.85" width="65.21" height="26.38"/><path class="cls-3" d="M81.4,17.17V8.4H80.24V8.12H84.1V8.4H82.93v8.77H84.1v0.28H80.24V17.17H81.4Z" transform="translate(0 29.13)"/><path class="cls-3" d="M87.1,17.17V8.4H85.93V8.12h2.95l4.19,6.55V8.4H92V8.12h2.52V8.4H93.4v9.05H93.14L87.48,8.7v8.47h1.19v0.28H85.91V17.17h1.2Z" transform="translate(0 29.13)"/><path class="cls-3" d="M99.25,17.17V8.4H98.77a3.41,3.41,0,0,0-.92.08,1.93,1.93,0,0,0-1,1,5.93,5.93,0,0,0-.49,1.55H96.09l0.1-2.95h7.57l0.18,2.95h-0.22a12.41,12.41,0,0,0-.47-1.39,2.13,2.13,0,0,0-.89-1.07,2.48,2.48,0,0,0-1.11-.21h-0.48v8.77H102v0.28h-4.1V17.17h1.31Z" transform="translate(0 29.13)"/><path class="cls-3" d="M106.73,17.17V8.4h-1.17V8.12h6.69l0.1,2.56h-0.19a4.09,4.09,0,0,0-.64-1.59,1.75,1.75,0,0,0-1.14-.64,9.07,9.07,0,0,0-1.11,0h-1.08v4.19a9.57,9.57,0,0,0,1.15-.05,1,1,0,0,0,.83-0.87,5.08,5.08,0,0,0,.06-0.81h0.23v3.85h-0.23c0-.11,0-0.18,0-0.22a3.82,3.82,0,0,0-.11-0.86,1,1,0,0,0-.68-0.7,3,3,0,0,0-.77-0.07h-0.46v4.31H110q0.56,0,.77,0a1.23,1.23,0,0,0,.39-0.11,2.21,2.21,0,0,0,1-1.21,13.24,13.24,0,0,0,.41-1.29h0.19l-0.27,2.91h-6.9V17.17h1.17Z" transform="translate(0 29.13)"/><path class="cls-3" d="M115.93,17.17V8.4h-1.21V8.12H118a12.86,12.86,0,0,1,2,.1,2.6,2.6,0,0,1,1.63.89,1.83,1.83,0,0,1,.38,1.15,2,2,0,0,1-1.29,1.88,4.11,4.11,0,0,1-1.57.4,3.38,3.38,0,0,1,1.39.49,2.62,2.62,0,0,1,1.18,2.41V15.7c0,0.2,0,.31,0,0.34a1.91,1.91,0,0,0,.12.82,0.64,0.64,0,0,0,.53.32,1.85,1.85,0,0,0,.53-0.14l0.1,0.27a2.58,2.58,0,0,1-1,.23,2,2,0,0,1-1.12-.35,1.86,1.86,0,0,1-.73-1.2,7.57,7.57,0,0,1-.1-1.23,5.79,5.79,0,0,0-.08-0.93,1.32,1.32,0,0,0-.8-1,3.36,3.36,0,0,0-1.21-.16h-0.46v4.52h1.13v0.28h-3.83V17.17h1.21Zm1.49-4.83h0.46a5.27,5.27,0,0,0,1.31-.12,1.65,1.65,0,0,0,1.15-1.85,1.87,1.87,0,0,0-.64-1.59,1.66,1.66,0,0,0-.82-0.32,9.26,9.26,0,0,0-1,0h-0.52v3.91h0Z" transform="translate(0 29.13)"/><path class="cls-3" d="M125.76,17.17V8.4h-1.17V8.12h2.95l4.19,6.55V8.4h-1.11V8.12h2.52V8.4h-1.07v9.05H131.8L126.14,8.7v8.47h1.19v0.28h-2.76V17.17h1.2Z" transform="translate(0 29.13)"/><path class="cls-3" d="M139.42,14.44h-2.81l-0.9,2.73h1.21v0.28h-2.47V17.17h0.88l3.16-9.05h0.42l3,9.05h1v0.28h-3.79V17.17h1.22Zm-0.08-.28L138,10.3l-1.31,3.86h2.61Z" transform="translate(0 29.13)"/><path class="cls-3" d="M146.78,17.17V8.4H146.3a3.41,3.41,0,0,0-.92.08,1.93,1.93,0,0,0-1,1,5.93,5.93,0,0,0-.49,1.55h-0.23l0.1-2.95h7.57l0.18,2.95h-0.22a12.41,12.41,0,0,0-.47-1.39,2.13,2.13,0,0,0-.89-1.07,2.48,2.48,0,0,0-1.11-.21h-0.48v8.77h1.27v0.28h-4.1V17.17h1.31Z" transform="translate(0 29.13)"/><path class="cls-3" d="M154.26,17.17V8.4H153.1V8.12H157V8.4H155.8v8.77H157v0.28H153.1V17.17h1.15Z" transform="translate(0 29.13)"/><path class="cls-3" d="M163.12,7.94a3.53,3.53,0,0,1,2.65,1.26,5.18,5.18,0,0,1,1.35,3.64,4.92,4.92,0,0,1-1.33,3.52,3.65,3.65,0,0,1-2.73,1.23,3.52,3.52,0,0,1-2.69-1.25A5.1,5.1,0,0,1,159,12.79a5.45,5.45,0,0,1,.6-2.53,4.44,4.44,0,0,1,1.74-1.87A3.49,3.49,0,0,1,163.12,7.94Zm0,0.38a2.31,2.31,0,0,0-1.24.36,2,2,0,0,0-.88,1.38,17.56,17.56,0,0,0-.14,2.71,16.59,16.59,0,0,0,.15,2.67,2.05,2.05,0,0,0,.87,1.41,2.32,2.32,0,0,0,1.31.35,2,2,0,0,0,1.79-1,2.85,2.85,0,0,0,.35-1.26q0.09-.9.09-2.44a12.93,12.93,0,0,0-.17-2.48A2.31,2.31,0,0,0,164.71,9,2.07,2.07,0,0,0,163.08,8.32Z" transform="translate(0 29.13)"/><path class="cls-3" d="M170.25,17.17V8.4h-1.17V8.12H172l4.19,6.55V8.4h-1.11V8.12h2.52V8.4h-1.07v9.05h-0.26L170.63,8.7v8.47h1.19v0.28h-2.76V17.17h1.2Z" transform="translate(0 29.13)"/><path class="cls-3" d="M183.92,14.44h-2.81l-0.9,2.73h1.21v0.28h-2.47V17.17h0.88L183,8.12h0.42l3,9.05h1v0.28h-3.79V17.17h1.22Zm-0.08-.28-1.31-3.86-1.31,3.86h2.61Z" transform="translate(0 29.13)"/><path class="cls-3" d="M190,17.17V8.4h-1.2V8.12h3.86V8.4h-1.15v8.77h1.65a4.43,4.43,0,0,0,1.16-.1,1.79,1.79,0,0,0,1-.9,7.65,7.65,0,0,0,.51-1.61H196l-0.24,2.88h-7V17.17H190Z" transform="translate(0 29.13)"/><path class="cls-3" d="M324.86,14.8v2.65h-0.21l-0.47-.68a4,4,0,0,1-2.31.82,3.55,3.55,0,0,1-2.44-1A4.71,4.71,0,0,1,318.3,15a5.45,5.45,0,0,1-.42-2.15,5.13,5.13,0,0,1,.94-3.08,4.27,4.27,0,0,1,1.78-1.45,3.35,3.35,0,0,1,3.56.48l0.45-.66h0.18l0,2.46h-0.3A3.34,3.34,0,0,0,323.76,9,2.24,2.24,0,0,0,322,8.3a2.31,2.31,0,0,0-1.28.35,2.16,2.16,0,0,0-.88,1.49,18.59,18.59,0,0,0-.18,3.11,11.9,11.9,0,0,0,.15,2.22,2.19,2.19,0,0,0,.79,1.4,2.23,2.23,0,0,0,1.32.39q1.91,0,2.69-2.46h0.23Z" transform="translate(0 29.13)"/><path class="cls-3" d="M328.12,17.17V8.4h-1.2V8.12h3.86V8.4h-1.16v8.77h1.65a4.43,4.43,0,0,0,1.16-.1,1.79,1.79,0,0,0,1-.9,7.65,7.65,0,0,0,.51-1.61h0.23l-0.24,2.88h-7V17.17h1.2Z" transform="translate(0 29.13)"/><path class="cls-3" d="M342.51,8.4h-1.16V8.12h2.52V8.4h-1v5.34a9.24,9.24,0,0,1-.15,2.08,2.19,2.19,0,0,1-1.12,1.45,3.8,3.8,0,0,1-1.71.33,3.16,3.16,0,0,1-2.45-.88,2.38,2.38,0,0,1-.64-1.32,13.14,13.14,0,0,1-.08-1.65V8.4h-1.18V8.12h3.83V8.4h-1.21v5.34a10.76,10.76,0,0,0,.12,2.15,1.79,1.79,0,0,0,.85,1.09,2.49,2.49,0,0,0,1.21.29,2,2,0,0,0,1.9-1.14,2.76,2.76,0,0,0,.25-0.79,15.27,15.27,0,0,0,0-1.59V8.4h0Z" transform="translate(0 29.13)"/><path class="cls-3" d="M350.3,12.56a4,4,0,0,1,1.83.57,2.07,2.07,0,0,1,1,1.87,2.19,2.19,0,0,1-1,1.83,3.11,3.11,0,0,1-1.41.53,11.31,11.31,0,0,1-1.6.08h-3.34V17.17h1.16V8.4h-1.21V8.12h3.13a5.4,5.4,0,0,1,3,.66,1.86,1.86,0,0,1,.86,1.59,1.93,1.93,0,0,1-1.09,1.74A4.41,4.41,0,0,1,350.3,12.56Zm-2-.13,0.79,0a2.08,2.08,0,0,0,1.7-.58,2.17,2.17,0,0,0,.39-1.4,2.1,2.1,0,0,0-.57-1.68,1.72,1.72,0,0,0-.85-0.35,8.14,8.14,0,0,0-1.08,0h-0.38v4Zm0,4.74h0.83a4.81,4.81,0,0,0,1.09-.09q1.18-.31,1.18-2.1a2.24,2.24,0,0,0-.63-1.87,2.74,2.74,0,0,0-1.63-.4h-0.83v4.44Z" transform="translate(0 29.13)"/><path class="cls-3" d="M364.31,12.56a4,4,0,0,1,1.83.57,2.07,2.07,0,0,1,1,1.87,2.19,2.19,0,0,1-1,1.83,3.12,3.12,0,0,1-1.41.53,11.32,11.32,0,0,1-1.6.08h-3.34V17.17h1.16V8.4h-1.21V8.12h3.13a5.39,5.39,0,0,1,3,.66,1.86,1.86,0,0,1,.86,1.59,1.93,1.93,0,0,1-1.09,1.74A4.4,4.4,0,0,1,364.31,12.56Zm-2-.13,0.79,0a2.08,2.08,0,0,0,1.7-.58,2.17,2.17,0,0,0,.39-1.4,2.11,2.11,0,0,0-.57-1.68,1.73,1.73,0,0,0-.85-0.35,8.13,8.13,0,0,0-1.08,0h-0.38v4h0Zm0,4.74h0.83a4.84,4.84,0,0,0,1.09-.09q1.17-.31,1.18-2.1a2.24,2.24,0,0,0-.63-1.87,2.74,2.74,0,0,0-1.64-.4h-0.83v4.44Z" transform="translate(0 29.13)"/><path class="cls-3" d="M370.43,17.17V8.4h-1.17V8.12h6.69l0.1,2.56h-0.19a4.07,4.07,0,0,0-.64-1.59,1.75,1.75,0,0,0-1.14-.64,9.09,9.09,0,0,0-1.11,0h-1.08v4.19a9.56,9.56,0,0,0,1.15-.05,1,1,0,0,0,.83-0.87,5.08,5.08,0,0,0,.06-0.81h0.23v3.85h-0.23c0-.11,0-0.18,0-0.22a3.82,3.82,0,0,0-.11-0.86,1,1,0,0,0-.68-0.7,3,3,0,0,0-.77-0.07h-0.47v4.31h1.78q0.56,0,.77,0a1.23,1.23,0,0,0,.39-0.11,2.21,2.21,0,0,0,1-1.21,13,13,0,0,0,.41-1.29h0.19l-0.27,2.91h-6.9V17.17h1.17Z" transform="translate(0 29.13)"/><path class="cls-3" d="M379.63,17.17V8.4h-1.21V8.12h3.24a12.86,12.86,0,0,1,2,.1,2.61,2.61,0,0,1,1.63.89,1.83,1.83,0,0,1,.38,1.15,2,2,0,0,1-1.28,1.88,4.11,4.11,0,0,1-1.57.4,3.38,3.38,0,0,1,1.39.49,2.62,2.62,0,0,1,1.18,2.41V15.7c0,0.2,0,.31,0,0.34a1.91,1.91,0,0,0,.12.82,0.64,0.64,0,0,0,.53.32,1.84,1.84,0,0,0,.53-0.14l0.1,0.27a2.58,2.58,0,0,1-1,.23,2,2,0,0,1-1.12-.35,1.86,1.86,0,0,1-.73-1.2,7.45,7.45,0,0,1-.1-1.23,5.91,5.91,0,0,0-.08-0.93,1.32,1.32,0,0,0-.8-1,3.36,3.36,0,0,0-1.21-.16h-0.47v4.52h1.13v0.28h-3.83V17.17h1.21Zm1.49-4.83h0.46a5.27,5.27,0,0,0,1.31-.12A1.65,1.65,0,0,0,384,10.37a1.87,1.87,0,0,0-.64-1.59,1.65,1.65,0,0,0-.82-0.32,9.27,9.27,0,0,0-1,0h-0.52v3.91h0Z" transform="translate(0 29.13)"/><path class="cls-3" d="M389.56,17.17V8.4h-1.2V8.12h3.86V8.4h-1.16v8.77h1.65a4.43,4.43,0,0,0,1.16-.1,1.79,1.79,0,0,0,1-.9,7.65,7.65,0,0,0,.51-1.61h0.23l-0.24,2.88h-7V17.17h1.2Z" transform="translate(0 29.13)"/><path class="cls-3" d="M398.58,17.17V8.4h-1.16V8.12h3.86V8.4h-1.17v8.77h1.17v0.28h-3.86V17.17h1.16Z" transform="translate(0 29.13)"/><path class="cls-3" d="M404.29,17.17V8.4h-1.17V8.12h2.95l4.19,6.55V8.4h-1.11V8.12h2.52V8.4h-1.07v9.05h-0.26L404.66,8.7v8.47h1.19v0.28h-2.76V17.17h1.2Z" transform="translate(0 29.13)"/><circle class="cls-3" cx="255.55" cy="48" r="48"/><circle class="cls-4" cx="255.55" cy="48" r="38.73"/><path class="cls-5" d="M249.36,18.41a59.24,59.24,0,0,0-5.26,6.32c3.34-.46,6.27-2.73,9-5.82l0.26-.29c1.73-2,3.4-4.22,5.09-6.57l1.81-2.51a44.61,44.61,0,0,0-9.71,7.6l-1.23,1.26m-6.47-1.32a43,43,0,0,1-4.6,5.27,3,3,0,0,0,2,2.16A41.56,41.56,0,0,1,246.07,17l0.42-.42h0a37.92,37.92,0,0,1,7.72-6.08c-2.47,0-3-2-3-3.61a8.26,8.26,0,0,1,.14-1.53c-2.64,3.41-5,7.07-7.51,10.51a13.8,13.8,0,0,0-.94,1.26M269.1-4.64a21.54,21.54,0,0,0-11.89,3.5,42.68,42.68,0,0,0-4.14,4.32A7.82,7.82,0,0,0,252,7c0,1.69.64,2.85,2.36,2.85a4.11,4.11,0,0,0,1.37-.25c0.32-.16.64-0.32,1-0.46,2.7-1.61,5.1-5.75,5.93-10.19l0.78-.13c-0.5,3-2,7-4.41,9.42a16.39,16.39,0,0,1,2.7-.63c3.57-4.73,8-9.73,13-11.41a14.5,14.5,0,0,0-5.58-.86m-0.67,13c-0.81,0-1.09.35-1.09,0.63s0.23,0.54,1.3.54a10.54,10.54,0,0,0,2.29-.25,4.54,4.54,0,0,0-2.5-.92M276.14-3.1c-2.64,1.32-5,3.73-7.41,6.64-1,1.25-2,2.59-3,4a18.29,18.29,0,0,1,4.1.56,8.09,8.09,0,0,1,2.11,1,8.51,8.51,0,0,0,5.93-7.87,5.25,5.25,0,0,0-1.68-4.25M244.3,44.6c-4.4,0-9.16-3.51-7.64-11a29.14,29.14,0,0,1,3.28-8.45,3.41,3.41,0,0,1-2.18-2.28,15.75,15.75,0,0,1-10.8,4.48c-2,0-5.37-.66-5.37-3.35a2.17,2.17,0,0,1,2.27-2.35,2,2,0,0,1,2.1,1.93,1.83,1.83,0,0,1-1.85,1.93h0c-0.11,0-.4,0-0.4.16s0.23,0.84,2.42.84c4.73,0,8.4-3.75,12.17-8.67l0.24-.32,0.44-.58,0.06-.08,0.22-.29c3.65-4.9,7-10,11.68-14.1a35.69,35.69,0,0,1,3.83-2.85l0.07-.07a9.75,9.75,0,0,1-4,1,12.09,12.09,0,0,1-4.6-1.23A13,13,0,0,0,241.21-2C236.62-2,230,4.67,230,10.13c0,2.85,1.52,4.11,3.69,4.11s8.05-4,8.05-10.66V3.41h0.84V3.58c0,7.28-4.41,11.5-8.89,11.5-3.41,0-4.54-2.39-4.54-5,0-6.73,9.08-14.62,14.87-14.62,3.43,0,6.46,2.18,9.86,2.18h1.52a10.37,10.37,0,0,0,2.15-.18,22.4,22.4,0,0,1,11.31-3c4.07,0,5.95.57,7.47,1.24A9.89,9.89,0,0,1,279.58-5h0.17l-0.09.73a8.44,8.44,0,0,0-2.46.62,5.81,5.81,0,0,1,3,5.19c0,4.17-4,7.41-7.59,8.08a6.51,6.51,0,0,1,1.71,4.26,9.1,9.1,0,0,1-.4,2.61l-0.4,1.09c-1.95,4.6-7.15,8.39-11.88,8.39a3.5,3.5,0,0,1-3.78-3.74,7.85,7.85,0,0,1,1.78-4.77l0.44-.53a12.37,12.37,0,0,1,5.17-3.45v0.86a11.07,11.07,0,0,0-5.17,4l-0.35.55a6.61,6.61,0,0,0-1,3.39,2.47,2.47,0,0,0,2.77,2.55c2.77,0,6.51-3.61,8.69-7.31,0,0,.45-0.86.89-1.71a8.88,8.88,0,0,0,.91-3.48,4.55,4.55,0,0,0-.53-2.41,9.4,9.4,0,0,1-2.7.48c-1.55,0-2.23-.61-2.23-1.39A0.93,0.93,0,0,1,267,8.11,5,5,0,0,0,266.17,8a8.27,8.27,0,0,0-.92.06c-1.22,1.68-2.46,3.4-3.72,5.08s-2.77,3.58-4.25,5.18l-0.28.3c-3.78,4-8.05,7-13.33,7h-0.23c-3.88,5.71-6.07,11.69-3.91,16a4.54,4.54,0,0,0,4.27,2.23l0.57,0c5.93-.48,11.94-8.28,11.06-14.45a2,2,0,0,0-2.23-1.78,4.58,4.58,0,0,0-1,.1c-1.86.4-5.59,3.18-7.19,9L244.45,36c2.13-6.12,4.82-7.8,6.76-8.7a5.3,5.3,0,0,1,2.21-.52,4,4,0,0,1,3,1.25c1.6,1.68,2.09,4.91.07,8.93a14,14,0,0,1-11.31,7.57,8.4,8.4,0,0,1-.86,0" transform="translate(0 29.13)"/><path class="cls-6" d="M259.67,39.18V32.44H259.2V32.21h1.5v3.48a1.63,1.63,0,0,1,.35-0.51,1.48,1.48,0,0,1,1-.39,1.74,1.74,0,0,1,1,.35,2.12,2.12,0,0,1,.74,1,2.69,2.69,0,0,1-.46,2.72,1.74,1.74,0,0,1-1.35.67,1.45,1.45,0,0,1-1.33-.9v0.79h-1.48V39.18h0.45Zm2.26-4.11a0.9,0.9,0,0,0-.68.32,2.42,2.42,0,0,0-.56,1.73,3.06,3.06,0,0,0,.37,1.61,1.24,1.24,0,0,0,.55.48,0.86,0.86,0,0,0,.36.08,0.73,0.73,0,0,0,.61-0.32,1.47,1.47,0,0,0,.2-0.77c0-.18,0-0.52,0-1a6.64,6.64,0,0,0-.1-1.57A0.76,0.76,0,0,0,261.93,35.07Z" transform="translate(0 29.13)"/><path class="cls-6" d="M268.65,36.82l-3.08,0c0,0.17,0,.27,0,0.32,0,0.54,0,.91,0,1.09a1.05,1.05,0,0,0,1.17,1.05,1.45,1.45,0,0,0,1.15-.56,2,2,0,0,0,.38-0.8h0.27A2,2,0,0,1,268,39a1.75,1.75,0,0,1-1.29.53,2.05,2.05,0,0,1-1.42-.6,2.33,2.33,0,0,1-.8-1.78,2.42,2.42,0,0,1,.43-1.37,2.3,2.3,0,0,1,1-.85,2,2,0,0,1,2.7,1.27A2.82,2.82,0,0,1,268.65,36.82Zm-1.2-.23a4.35,4.35,0,0,0-.09-1.08,0.7,0.7,0,0,0-.74-0.46,1,1,0,0,0-.92.45,1.63,1.63,0,0,0-.12.68v0.43Z" transform="translate(0 29.13)"/><path class="cls-6" d="M269.31,39.23v-4h-0.44V35h1.48v1.09a1.49,1.49,0,0,1,1.25-1.18,0.77,0.77,0,0,1,.49.16,0.6,0.6,0,0,1,.23.49,0.56,0.56,0,0,1-.56.58,0.47,0.47,0,0,1-.44-0.25,0.62,0.62,0,0,1-.08-0.29c0-.16,0-0.24-0.11-0.24a0.47,0.47,0,0,0-.32.29,3.07,3.07,0,0,0-.36,1,9.15,9.15,0,0,0-.1,1.54v1h0.47v0.23h-1.95V39.23h0.44Z" transform="translate(0 29.13)"/><path class="cls-6" d="M272.83,39.23V32.49h-0.5V32.27h1.55v7h0.48v0.23h-2V39.24h0.48Z" transform="translate(0 29.13)"/><path class="cls-6" d="M275.38,39.23v-4h-0.5V35h1.53v4.24h0.49v0.23h-2V39.23h0.5Zm0.48-6.76a0.62,0.62,0,0,1,.49.23,0.61,0.61,0,0,1,.16.42,0.63,0.63,0,0,1-.2.47,0.62,0.62,0,0,1-.45.18,0.6,0.6,0,0,1-.45-0.18,0.64,0.64,0,0,1-.2-0.48,0.62,0.62,0,0,1,.2-0.47A0.6,0.6,0,0,1,275.86,32.48Z" transform="translate(0 29.13)"/><path class="cls-6" d="M277.84,39.23v-4h-0.37V35h1.41v0.62a1.74,1.74,0,0,1,1.45-.74,1.44,1.44,0,0,1,1.12.47,1.18,1.18,0,0,1,.3.64,6.38,6.38,0,0,1,0,.7v2.56h0.36v0.23h-1.71V39.24h0.35V37.46q0-1.51,0-1.64a0.61,0.61,0,0,0-.66-0.64,1.09,1.09,0,0,0-.6.2,1.18,1.18,0,0,0-.49.69,8,8,0,0,0-.13,1.8v1.37h0.39v0.23h-1.8V39.23h0.38Z" transform="translate(0 29.13)"/></svg>