<svg xmlns="http://www.w3.org/2000/svg" width="192.629" height="64.082" viewBox="0 0 192.629 64.082">
  <g id="logo-1" transform="translate(-54 -285)">
    <g id="logo111" transform="translate(2 184)">
      <g id="Group_137" data-name="Group 137">
        <g id="Group_125" data-name="Group 125" transform="translate(52.175 101)">
          <g id="Group_125-2" data-name="Group 125">
            <path id="Path_165" data-name="Path 165" d="M78.7,69.175l.032-20.9a11.822,11.822,0,0,0-11.8-11.839L33.138,36.4V64.324h.009l-.009,5.8a11.822,11.822,0,0,0,11.8,11.839l21.917.032c.281,0,.559-.013.835-.032h11Z" transform="translate(-33.138 -36.4)" fill="#91257d"/>
          </g>
        </g>
        <g id="Group_127" data-name="Group 127" transform="translate(58.385 123.875)">
          <path id="Path_166" data-name="Path 166" d="M76.38,202.226c0-3.639.815-6.538,3.032-6.538,1.421,0,2.026,1.1,2.369,2.2l-.872.322c-.322-.967-.682-1.592-1.5-1.592-1.421,0-1.952,2.464-1.952,5.61s.531,5.61,1.952,5.61c.91,0,1.289-.853,1.554-1.952l.872.341c-.322,1.327-.967,2.539-2.426,2.539C77.195,208.765,76.38,205.867,76.38,202.226Z" transform="translate(-76.38 -195.688)" fill="#fff"/>
          <path id="Path_167" data-name="Path 167" d="M145.136,209.781V197.14h1.023v11.712h3.317v.929Z" transform="translate(-135.262 -196.932)" fill="#fff"/>
          <path id="Path_168" data-name="Path 168" d="M201.621,206.692V197.14h1.023v9.571c0,1.762.663,2.369,1.649,2.369s1.649-.606,1.649-2.369V197.14h1.023v9.552c0,2.312-1.08,3.316-2.672,3.316C202.72,210.008,201.621,209,201.621,206.692Z" transform="translate(-183.636 -196.932)" fill="#fff"/>
          <path id="Path_169" data-name="Path 169" d="M273.412,209.781V197.14H275.7c1.611,0,2.6,1.213,2.6,3.222,0,1.592-.585,2.521-1.573,2.9,1.043.171,1.744,1.63,1.744,3.106,0,2.1-.853,3.411-2.691,3.411h-2.369Zm3.809-9.324c0-1.3-.4-2.386-1.666-2.386h-1.118v4.755h1.118C276.823,202.826,277.221,201.783,277.221,200.457Zm.171,5.856c0-1.327-.474-2.558-1.762-2.558h-1.194v5.1h1.194c1.288,0,1.762-.969,1.762-2.542Z" transform="translate(-245.118 -196.932)" fill="#fff"/>
        </g>
        <g id="Group_127-2" data-name="Group 127" transform="translate(56.818 143.686)">
          <g id="Group_129" data-name="Group 129">
            <path id="Path_170" data-name="Path 170" d="M92.589,334.771s-.1.051-.3.138-.479.209-.843.348c-.731.282-1.761.646-3.016,1-.627.18-1.312.351-2.037.515s-1.5.315-2.3.439c-.4.063-.81.121-1.227.177s-.84.093-1.267.135-.86.07-1.295.09-.871.045-1.311.045-.879,0-1.316-.005-.876-.04-1.31-.066c-.217-.017-.432-.025-.647-.049l-.641-.071-.63-.078c-.209-.024-.416-.056-.621-.093q-.616-.107-1.206-.225l-.293-.059-.288-.072-.564-.145c-.37-.1-.728-.192-1.071-.3s-.672-.23-.986-.345a16.911,16.911,0,0,1-1.682-.718c-.245-.122-.475-.225-.683-.34s-.4-.225-.565-.33c-.338-.2-.6-.374-.773-.5s-.267-.189-.267-.189.115-.016.328-.036.521-.045.907-.062c.194-.012.4-.015.634-.022s.479-.025.743-.039c.527-.023,1.111-.025,1.748-.057q.477-.017.985-.022c.339,0,.691-.027,1.048-.033s.72,0,1.1-.023.757-.022,1.143-.027c.193,0,.389-.008.585-.014l.594-.016c.4-.008.8-.007,1.207-.023l2.469-.04c.414,0,.831-.014,1.245-.013h1.241c.412,0,.822,0,1.227.01s.81.009,1.205.022c.793.023,1.565.053,2.3.1s1.434.107,2.083.177,1.244.155,1.776.24.993.173,1.374.261.681.162.885.218S92.589,334.771,92.589,334.771Z" transform="translate(-65.452 -333.649)" fill="#51c8e8"/>
          </g>
        </g>
        <g id="Group_128" data-name="Group 128" transform="translate(52.003 145.755)">
          <path id="Path_171" data-name="Path 171" d="M77.62,352l-.147.038c-.1.023-.239.056-.423.09-.368.072-.9.156-1.576.219s-1.468.108-2.361.119-1.875-.007-2.918-.045l-1.612-.064q-.414-.017-.839-.054c-.071-.006-.142-.013-.213-.022l-.054-.006h.034l-.117-.007c-.156-.012-.315-.024-.471-.042l-.214-.022c-.068-.008-.135-.014-.2-.024-.138-.017-.27-.045-.425-.057s-.3-.039-.456-.065-.311-.037-.469-.063c-.315-.049-.642-.086-.973-.13s-.67-.073-1.014-.1a11.282,11.282,0,0,0-2.087.045,12.089,12.089,0,0,0-2.084.447,16.9,16.9,0,0,0-2.049.772c-.675.306-1.347.653-2.026,1a19.257,19.257,0,0,1-4.277,1.719c-.749.2-1.514.36-2.29.492a16.533,16.533,0,0,1-2.359.238c-.2,0-.4.008-.6,0s-.4-.015-.6-.029-.4-.033-.592-.058l-.294-.037-.073-.009h-.036l-.163-.03-.122-.026-.242-.054-.148-.036-.162-.041-.32-.09-.285-.09a11.111,11.111,0,0,1-1.083-.424A17.533,17.533,0,0,1,38,353.507c-.863-.651-1.553-1.2-2.212-1.617-.329-.207-.645-.389-.954-.543-.154-.075-.306-.152-.455-.211s-.294-.126-.434-.178a13.72,13.72,0,0,0-1.4-.434l-.4-.1-.14-.036-.083-.47s.169-.108.509-.288a7.02,7.02,0,0,1,1.583-.564,7.527,7.527,0,0,1,1.229-.172,8.832,8.832,0,0,1,1.481.054l.4.054.4.077c.27.057.547.118.821.2.55.151,1.1.337,1.639.536,1.078.4,2.1.818,3.088,1.1.247.068.491.135.735.192l.183.045.156.03.077.018c.026.006.045.012.093.02l.244.045.122.024H44.7l-.117-.021h.025l.051.006.2.026c.135.015.27.045.411.054s.28.033.421.05l.434.04a22.754,22.754,0,0,0,3.81.051q1.014-.074,2.092-.112c.717-.024,1.455-.033,2.2-.051s1.493-.053,2.23-.127a19.076,19.076,0,0,0,2.173-.356,17.614,17.614,0,0,0,2.09-.592c.684-.235,1.351-.525,2.021-.817s1.341-.592,2.026-.831c.341-.122.687-.225,1.035-.315a10.548,10.548,0,0,1,1.075-.2c.158-.022.315-.037.47-.053l.117-.009h.462c.33,0,.654.021.971.048a17.312,17.312,0,0,1,1.811.278,17.871,17.871,0,0,1,5.207,1.97,15.285,15.285,0,0,1,1.344.855c.153.11.27.2.346.26l.117.1Z" transform="translate(-31.925 -348.031)" fill="#8cc640"/>
        </g>
        <g id="Group_129-2" data-name="Group 129" transform="translate(52.912 156.406)">
          <g id="Group_132" data-name="Group 132">
            <path id="Path_172" data-name="Path 172" d="M62.319,431.622q.424-.03.834-.064l.855-.074a.139.139,0,0,1,.128.1c.019.063-.007.1-.079.113q-.365.039-.838.108a8.723,8.723,0,0,0-.9.18q.019.307.019.627t.015.63a5.892,5.892,0,0,0,.059.6,2.431,2.431,0,0,0,.143.537.519.519,0,0,0,.276.2.47.47,0,0,0,.262-.015.68.68,0,0,0,.225-.139,2.387,2.387,0,0,0,.183-.18q.069-.069.113,0t-.084.2a1.528,1.528,0,0,1-.148.148.8.8,0,0,1-.212.135.886.886,0,0,1-.606.034.513.513,0,0,1-.335-.365,3.5,3.5,0,0,1-.163-.718q-.054-.41-.074-.855t-.051-.8q-.434.04-.637.069l-.291.04a.2.2,0,0,1-.117,0,1.232,1.232,0,0,1-.108-.09.308.308,0,0,0,0-.094.26.26,0,0,1,0-.074.1.1,0,0,1,.04-.059.308.308,0,0,1,.135-.051,1.909,1.909,0,0,1,.429-.045,4.246,4.246,0,0,0,.548-.045q-.01-.315-.019-.5t-.019-.311q-.01-.135-.015-.262v-.335a.08.08,0,0,1,.054-.074.362.362,0,0,1,.123-.03.283.283,0,0,1,.128.019.135.135,0,0,1,.079.074,1.077,1.077,0,0,1,.04.261q.01.173.015.365v.39C62.326,431.41,62.325,431.531,62.319,431.622Z" transform="translate(-60.79 -427.445)" fill="#fff" stroke="#fff" stroke-width="0.2"/>
            <path id="Path_173" data-name="Path 173" d="M79.772,414.549a1.844,1.844,0,0,1,.019.251q.01.222.015.568t0,.784V419.8a2.485,2.485,0,0,1,.311-.8q.2-.315.37-.335a.29.29,0,0,1,.3.084.939.939,0,0,1,.167.335q.064.213.128.474a2.786,2.786,0,0,0,.173.5,1.392,1.392,0,0,0,.3.42.859.859,0,0,0,.513.221.648.648,0,0,1-.459.2.577.577,0,0,1-.36-.177,1.462,1.462,0,0,1-.276-.4,4.128,4.128,0,0,1-.2-.483q-.079-.237-.128-.415a1.151,1.151,0,0,0-.069-.2.074.074,0,0,0-.128-.01.845.845,0,0,0-.143.217,2.613,2.613,0,0,0-.138.34q-.065.193-.113.365t-.079.291a.828.828,0,0,1-.029.109,2.661,2.661,0,0,0-.051.335q-.02.2-.025.41t0,.365a.638.638,0,0,0,.025.2.657.657,0,0,1-.2-.045.66.66,0,0,0-.2-.045v-3.1q0-.673-.019-1.356t-.034-1.361q-.019-.676-.059-1.277c0-.013.04-.038.118-.074a.4.4,0,0,1,.257-.024Z" transform="translate(-76.151 -414.535)" fill="#fff" stroke="#fff" stroke-width="0.2"/>
            <path id="Path_174" data-name="Path 174" d="M95.027,438.938l.167-.055a.371.371,0,0,1,.225-.015.556.556,0,0,1,.439.148q.154.158.025.612a2.506,2.506,0,0,1-.5.841,4.9,4.9,0,0,1-.735.641.391.391,0,0,0,.3.286.752.752,0,0,0,.414-.064,2.026,2.026,0,0,0,.425-.251q.2-.158.335-.276.2-.18.331-.3a3.208,3.208,0,0,0,.262-.3q.03-.019.034,0a.205.205,0,0,1,0,.074q-.01.051-.03.138c-.019.045-.04.087-.059.124a.725.725,0,0,1-.084.118c-.036.045-.084.094-.143.154s-.131.138-.217.236l-.286.27a1.919,1.919,0,0,1-.291.232,1.006,1.006,0,0,1-.335.138,1.112,1.112,0,0,1-.42,0,1.4,1.4,0,0,1-.315-.148.742.742,0,0,1-.182-.163.718.718,0,0,1-.094-.154.618.618,0,0,1-.04-.118,2.034,2.034,0,0,1-.04-.533,3.031,3.031,0,0,1,.2-.869,2.479,2.479,0,0,1,.276-.469,1.1,1.1,0,0,1,.348-.3Zm-.434,1.744a2.889,2.889,0,0,0,.3-.192,2.223,2.223,0,0,0,.325-.286,1.936,1.936,0,0,0,.266-.36.906.906,0,0,0,.123-.414.292.292,0,0,0-.01-.205c-.014-.019-.026-.029-.04-.029a.307.307,0,0,0-.335.051,1.226,1.226,0,0,0-.307.365,2.661,2.661,0,0,0-.232.528,1.8,1.8,0,0,0-.09.545Z" transform="translate(-88.378 -434.612)" fill="#fff" stroke="#fff" stroke-width="0.2"/>
            <path id="Path_175" data-name="Path 175" d="M121.38,416.131a3.372,3.372,0,0,1-.331.09,2.487,2.487,0,0,0-.6.247,3.521,3.521,0,0,0-.725.547,3.721,3.721,0,0,0-.705.981,3.877,3.877,0,0,0-.212.585q-.1.36-.183.71t-.123.607q-.045.257-.025.257a4.4,4.4,0,0,0,0,1.085,1.879,1.879,0,0,0,.2.651.808.808,0,0,0,.325.331,1.009,1.009,0,0,0,.686.09,1.087,1.087,0,0,1,.183-.034,2.476,2.476,0,0,0,.548-.315,3.482,3.482,0,0,0,.488-.45,4.053,4.053,0,0,0,.414-.547,5.537,5.537,0,0,0,.335-.612.6.6,0,0,1,.1-.1,1.156,1.156,0,0,1,.123-.084.28.28,0,0,1,.1-.04c.029,0,.045.009.045.035a3.685,3.685,0,0,1-.469.987,4.832,4.832,0,0,1-.651.779,4.066,4.066,0,0,1-.71.552,2.937,2.937,0,0,1-.656.307,1.052,1.052,0,0,1-.794-.163,1.649,1.649,0,0,1-.585-.913,7.043,7.043,0,0,1-.1-.794,3.7,3.7,0,0,1,.034-.872,6,6,0,0,1,.307-1.549,5.271,5.271,0,0,1,.622-1.258,3.79,3.79,0,0,1,.848-.9,2.753,2.753,0,0,1,.987-.483,1.064,1.064,0,0,1,.148.019,1.207,1.207,0,0,1,.212.059.576.576,0,0,1,.163.09Q121.439,416.072,121.38,416.131Z" transform="translate(-108.063 -415.623)" fill="#fff" stroke="#fff" stroke-width="0.2"/>
            <path id="Path_176" data-name="Path 176" d="M142.93,438.359a3.006,3.006,0,0,1,.414.055,3.334,3.334,0,0,1,.444.118,3.009,3.009,0,0,1,.4.168,1.2,1.2,0,0,1,.3.212.491.491,0,0,1,.138.331,1.811,1.811,0,0,1-.03.489,3.342,3.342,0,0,1-.154.547,3.466,3.466,0,0,1-.232.508,1.727,1.727,0,0,1-.276.375.415.415,0,0,1-.276.148.62.62,0,0,1-.365-.1.82.82,0,0,1-.237-.251,1.227,1.227,0,0,1-.135-.311,1.615,1.615,0,0,1-.054-.281,8.946,8.946,0,0,1-.01-.927,5.177,5.177,0,0,1,.069-.671,1.031,1.031,0,0,0-.059-.09c-.019-.026-.04-.051-.059-.074a.413.413,0,0,0-.069-.064.3.3,0,0,0,.079-.059.353.353,0,0,0,.11-.121Zm.355,2.348a.594.594,0,0,0,.079.084.34.34,0,0,0,.123.069.27.27,0,0,0,.154,0,.38.38,0,0,0,.167-.108,1.832,1.832,0,0,0,.355-.508,1.87,1.87,0,0,0,.154-.5,1.051,1.051,0,0,0-.01-.41.462.462,0,0,0-.143-.256L144.03,439a.7.7,0,0,0-.138-.064c-.056-.02-.127-.04-.212-.064l-.335-.094a3.61,3.61,0,0,0-.138.63,4.056,4.056,0,0,0-.034.577,2.917,2.917,0,0,0,.04.454.918.918,0,0,0,.072.262Z" transform="translate(-128.449 -434.201)" fill="#fff" stroke="#fff" stroke-width="0.2"/>
            <path id="Path_177" data-name="Path 177" d="M155.857,435.748c0-.059.016-.094.051-.1a.162.162,0,0,1,.1,0,.379.379,0,0,1,.109.064q.054.045.074.064a4.51,4.51,0,0,1-.019.7q-.04.444-.04,1.1a3.8,3.8,0,0,1,.118-.375q.079-.217.183-.439a3.492,3.492,0,0,1,.225-.414,1.675,1.675,0,0,1,.241-.307.339.339,0,0,1,.225-.113q.108,0,.2.167a.892.892,0,0,1,.034.2q.015.154.019.37t.015.484c.007.177.016.36.03.542l.2-.479a3.987,3.987,0,0,1,.241-.474,1.234,1.234,0,0,1,.276-.33.294.294,0,0,1,.315-.051c.051.019.09.081.108.182s.036.222.051.36.028.285.045.439a1.73,1.73,0,0,0,.094.42.73.73,0,0,0,.2.3.41.41,0,0,0,.345.084,1.669,1.669,0,0,1,.173,0,.321.321,0,0,1,.079.015c.016.007.023.017.019.03a.257.257,0,0,0,0,.059.855.855,0,0,1-.6.123.612.612,0,0,1-.365-.276,1.436,1.436,0,0,1-.188-.513,5.369,5.369,0,0,1-.074-.6c-.014-.086-.041-.122-.084-.108a.385.385,0,0,0-.158.148,3.3,3.3,0,0,0-.2.321,4.507,4.507,0,0,0-.205.41c-.066.145-.124.285-.172.419s-.087.245-.113.331a.114.114,0,0,1-.158.051.205.205,0,0,1-.138-.148,1.793,1.793,0,0,1-.045-.39q0-.231,0-.469t.015-.458a3.683,3.683,0,0,0,0-.38.626.626,0,0,0-.04-.217q-.029-.059-.108.03a3.976,3.976,0,0,0-.311.582,6.329,6.329,0,0,0-.251.675q-.109.35-.183.7a4.67,4.67,0,0,0-.094.637.222.222,0,0,1-.237-.045,1.138,1.138,0,0,1-.118-.173q.019-.128.034-.5t.03-.844q.015-.473.03-.966T155.857,435.748Z" transform="translate(-139.179 -431.954)" fill="#fff" stroke="#fff" stroke-width="0.2"/>
            <path id="Path_178" data-name="Path 178" d="M178.188,435.748c0-.059.016-.094.051-.1a.162.162,0,0,1,.1,0,.379.379,0,0,1,.108.064q.054.045.074.064a4.512,4.512,0,0,1-.019.7q-.04.444-.04,1.1a3.806,3.806,0,0,1,.118-.375q.079-.217.183-.439a3.491,3.491,0,0,1,.225-.414,1.678,1.678,0,0,1,.242-.307.338.338,0,0,1,.225-.113q.108,0,.2.167a.894.894,0,0,1,.034.2q.015.154.019.37t.015.483c.007.177.016.36.03.542l.2-.479a3.977,3.977,0,0,1,.241-.474,1.235,1.235,0,0,1,.276-.33.294.294,0,0,1,.315-.051c.051.019.09.081.109.182s.036.222.051.36.028.285.045.439a1.727,1.727,0,0,0,.094.42.728.728,0,0,0,.2.3.41.41,0,0,0,.345.084,1.669,1.669,0,0,1,.173,0,.317.317,0,0,1,.079.015c.016.007.023.016.019.03a.255.255,0,0,0,0,.059.855.855,0,0,1-.6.123.612.612,0,0,1-.365-.276,1.436,1.436,0,0,1-.188-.513,5.375,5.375,0,0,1-.074-.6c-.014-.086-.041-.122-.084-.108a.385.385,0,0,0-.158.148,3.285,3.285,0,0,0-.2.321q-.108.192-.205.41t-.172.419q-.074.2-.113.331a.114.114,0,0,1-.158.051.205.205,0,0,1-.138-.148,1.794,1.794,0,0,1-.045-.39v-.469q0-.238.015-.458a3.709,3.709,0,0,0,0-.38.626.626,0,0,0-.04-.217q-.029-.059-.108.03a3.976,3.976,0,0,0-.311.582,6.324,6.324,0,0,0-.252.675q-.108.35-.183.7a4.672,4.672,0,0,0-.094.637.222.222,0,0,1-.237-.045,1.141,1.141,0,0,1-.118-.173q.019-.128.034-.5t.03-.844q.015-.473.03-.966T178.188,435.748Z" transform="translate(-157.613 -431.954)" fill="#fff" stroke="#fff" stroke-width="0.2"/>
            <path id="Path_179" data-name="Path 179" d="M199.777,438.359a3.015,3.015,0,0,1,.414.055,3.353,3.353,0,0,1,.444.118,3,3,0,0,1,.4.168,1.2,1.2,0,0,1,.3.212.491.491,0,0,1,.138.331,1.81,1.81,0,0,1-.03.489,3.346,3.346,0,0,1-.154.547,3.465,3.465,0,0,1-.232.508,1.726,1.726,0,0,1-.276.375.414.414,0,0,1-.276.148.619.619,0,0,1-.365-.1.82.82,0,0,1-.237-.251,1.223,1.223,0,0,1-.135-.311,1.6,1.6,0,0,1-.054-.281,8.94,8.94,0,0,1-.01-.927,5.183,5.183,0,0,1,.069-.671,1.038,1.038,0,0,0-.059-.09c-.019-.026-.04-.051-.059-.074a.4.4,0,0,0-.069-.064.3.3,0,0,0,.079-.059.354.354,0,0,0,.11-.121Zm.355,2.348a.591.591,0,0,0,.079.084.339.339,0,0,0,.123.069.27.27,0,0,0,.154,0,.38.38,0,0,0,.167-.108,1.833,1.833,0,0,0,.355-.508,1.871,1.871,0,0,0,.154-.5,1.051,1.051,0,0,0-.01-.41.461.461,0,0,0-.143-.256l-.135-.084a.7.7,0,0,0-.138-.064c-.056-.02-.126-.041-.212-.064l-.335-.094a3.6,3.6,0,0,0-.138.63,4.062,4.062,0,0,0-.034.577,2.917,2.917,0,0,0,.04.454.918.918,0,0,0,.072.262Z" transform="translate(-175.38 -434.201)" fill="#fff" stroke="#fff" stroke-width="0.2"/>
            <path id="Path_180" data-name="Path 180" d="M212.567,437.333v.553q0,.276-.01.533t-.01.483q-.01.226-.015.4a1,1,0,0,1,.045-.192q.045-.154.123-.35t.173-.42a2.721,2.721,0,0,1,.2-.395,1.22,1.22,0,0,1,.222-.27.2.2,0,0,1,.212-.059.6.6,0,0,1,.307.286,1.6,1.6,0,0,1,.128.429q.039.241.079.538a2.392,2.392,0,0,0,.177.622.432.432,0,0,0,.173.217.927.927,0,0,0,.384.135c.043,0,.058.014.045.034a.472.472,0,0,1-.424.128.569.569,0,0,1-.3-.262,1.914,1.914,0,0,1-.2-.483q-.08-.281-.143-.542t-.113-.444q-.051-.182-.108-.182-.09.01-.193.168a3,3,0,0,0-.212.394,5.509,5.509,0,0,0-.205.518q-.1.281-.183.528t-.135.424c-.033.118-.051.191-.059.217a.958.958,0,0,0-.182.01q-.035.01-.113-.1.051-.868.034-1.641t-.045-1.346q0-.09.045-.09a.173.173,0,0,1,.1.04l.113.079a.194.194,0,0,0,.1.038Z" transform="translate(-185.8 -433.225)" fill="#fff" stroke="#fff" stroke-width="0.2"/>
            <path id="Path_181" data-name="Path 181" d="M232.637,420.408a1.563,1.563,0,0,1-.479.331,6.4,6.4,0,0,1-.73.3q-.4.139-.8.242t-.675.163a1.223,1.223,0,0,0,.237.415q.138.148.355.365.325.257.564.439t.45.331q.212.148.434.281t.518.3q.394.158.612.225t.336.094a.952.952,0,0,0,.167.025.246.246,0,0,1,.108.03q.019.059-.09.084a1.152,1.152,0,0,1-.257.025q-.148,0-.3-.015a1.364,1.364,0,0,1-.222-.034q-.148-.04-.345-.109a4.905,4.905,0,0,1-.461-.192,5.948,5.948,0,0,1-.6-.325,7.938,7.938,0,0,1-.735-.518q-.168-.128-.307-.222t-.237-.163q-.108-.079-.205-.138c.014.078.031.193.054.34s.048.315.074.5.054.375.084.572.058.385.084.564.051.335.079.473a2.513,2.513,0,0,0,.069.3.432.432,0,0,1-.286.019.541.541,0,0,0-.2-.03q-.04-.652-.135-1.372t-.153-1.59V422.1a.174.174,0,0,0,.01.025h0a.794.794,0,0,1-.025-.079q-.108-.148-.173-.222c-.045-.051-.084-.094-.124-.135s-.082-.084-.128-.135-.112-.127-.2-.232a.283.283,0,0,1,.154-.069q.124-.03.27-.079-.051-.336-.079-.627t-.059-.568l-.059-.547q-.029-.27-.069-.577-.09,0-.459-.015t-.834-.025a1.462,1.462,0,0,1-.123-.084c-.029-.024-.038-.087-.025-.193a3.285,3.285,0,0,1,.429-.015q.261,0,.533.015t.523.03q.252.02.41.03a10.076,10.076,0,0,1,1.929.37,3.323,3.323,0,0,1,1.021.488.646.646,0,0,1,.3.513.6.6,0,0,1-.229.434Zm-2.832.73a7.505,7.505,0,0,0,.774-.193q.45-.135.858-.286a4.825,4.825,0,0,0,.7-.315q.286-.162.276-.3v-.09q-.04-.148-.315-.307a3.91,3.91,0,0,0-.686-.3q-.41-.138-.888-.256a8.5,8.5,0,0,0-.923-.177q.039.434.079.987t.131,1.234Z" transform="translate(-198.596 -417.827)" fill="#fff" stroke="#fff" stroke-width="0.2"/>
            <path id="Path_182" data-name="Path 182" d="M263.237,438.359a3.007,3.007,0,0,1,.414.055,3.335,3.335,0,0,1,.444.118,3.026,3.026,0,0,1,.4.167,1.2,1.2,0,0,1,.3.212.491.491,0,0,1,.138.331,1.812,1.812,0,0,1-.03.489,3.348,3.348,0,0,1-.154.547,3.467,3.467,0,0,1-.232.508,1.724,1.724,0,0,1-.276.375.415.415,0,0,1-.276.148.62.62,0,0,1-.365-.1.82.82,0,0,1-.237-.251,1.222,1.222,0,0,1-.135-.311,1.615,1.615,0,0,1-.054-.281,8.955,8.955,0,0,1-.01-.927,5.182,5.182,0,0,1,.069-.671,1.011,1.011,0,0,0-.059-.09c-.019-.026-.04-.051-.059-.074a.41.41,0,0,0-.069-.064.309.309,0,0,0,.079-.059.355.355,0,0,0,.11-.121Zm.355,2.348a.587.587,0,0,0,.079.084.339.339,0,0,0,.123.069.27.27,0,0,0,.154,0,.38.38,0,0,0,.167-.108,1.833,1.833,0,0,0,.355-.508,1.875,1.875,0,0,0,.154-.5,1.051,1.051,0,0,0-.01-.41.461.461,0,0,0-.143-.256l-.135-.084a.7.7,0,0,0-.138-.064c-.056-.02-.126-.041-.212-.064l-.335-.094a3.6,3.6,0,0,0-.138.63,4.048,4.048,0,0,0-.034.577,2.921,2.921,0,0,0,.04.454.916.916,0,0,0,.074.265Z" transform="translate(-227.772 -434.201)" fill="#fff" stroke="#fff" stroke-width="0.2"/>
            <path id="Path_183" data-name="Path 183" d="M275.625,438.359a3.011,3.011,0,0,1,.414.055,3.339,3.339,0,0,1,.444.118,3,3,0,0,1,.4.168,1.2,1.2,0,0,1,.3.212.491.491,0,0,1,.138.331,1.812,1.812,0,0,1-.03.489,3.336,3.336,0,0,1-.154.548,3.469,3.469,0,0,1-.232.508,1.725,1.725,0,0,1-.276.375.415.415,0,0,1-.276.148.62.62,0,0,1-.365-.1.82.82,0,0,1-.236-.251,1.224,1.224,0,0,1-.135-.311,1.609,1.609,0,0,1-.054-.281,8.921,8.921,0,0,1-.01-.927,5.165,5.165,0,0,1,.069-.671,1.019,1.019,0,0,0-.059-.09l-.059-.074a.406.406,0,0,0-.069-.064.3.3,0,0,0,.079-.059.361.361,0,0,0,.112-.121Zm.355,2.348a.588.588,0,0,0,.079.084.339.339,0,0,0,.123.069.27.27,0,0,0,.154,0,.379.379,0,0,0,.167-.108,1.833,1.833,0,0,0,.355-.508,1.877,1.877,0,0,0,.154-.5,1.052,1.052,0,0,0-.01-.41.462.462,0,0,0-.143-.256l-.135-.084a.7.7,0,0,0-.138-.064c-.056-.02-.126-.041-.212-.064l-.335-.094a3.619,3.619,0,0,0-.138.63,4.057,4.057,0,0,0-.034.577,2.914,2.914,0,0,0,.04.454.914.914,0,0,0,.072.262Z" transform="translate(-237.999 -434.201)" fill="#fff" stroke="#fff" stroke-width="0.2"/>
            <path id="Path_184" data-name="Path 184" d="M287.557,435.748c0-.059.016-.094.051-.1a.162.162,0,0,1,.1,0,.378.378,0,0,1,.108.064q.054.045.074.065a4.513,4.513,0,0,1-.019.7q-.04.444-.04,1.1a3.82,3.82,0,0,1,.118-.375q.079-.217.183-.439a3.5,3.5,0,0,1,.225-.414,1.672,1.672,0,0,1,.242-.308.338.338,0,0,1,.225-.113q.108,0,.2.167a.888.888,0,0,1,.034.2q.015.154.019.37t.015.483c.007.177.016.36.029.542l.2-.479a3.973,3.973,0,0,1,.241-.474,1.236,1.236,0,0,1,.276-.33.294.294,0,0,1,.315-.051c.051.019.09.081.108.182s.036.222.051.36.027.284.045.439a1.73,1.73,0,0,0,.094.42.73.73,0,0,0,.2.3.41.41,0,0,0,.345.084,1.678,1.678,0,0,1,.173,0,.316.316,0,0,1,.079.015c.016.007.023.016.02.03a.252.252,0,0,0,0,.059.855.855,0,0,1-.6.123.615.615,0,0,1-.365-.276,1.435,1.435,0,0,1-.188-.513,5.381,5.381,0,0,1-.074-.6c-.014-.086-.041-.122-.084-.108a.385.385,0,0,0-.158.148,3.256,3.256,0,0,0-.2.321q-.108.192-.2.41c-.066.145-.124.284-.173.419s-.087.245-.113.331a.114.114,0,0,1-.158.051.205.205,0,0,1-.138-.148,1.792,1.792,0,0,1-.045-.39q0-.231,0-.469t.015-.458a3.7,3.7,0,0,0,0-.38.625.625,0,0,0-.04-.217c-.019-.04-.056-.03-.108.03a3.975,3.975,0,0,0-.311.582,6.306,6.306,0,0,0-.252.675q-.108.35-.182.7a4.658,4.658,0,0,0-.094.637.225.225,0,0,1-.237-.045,1.142,1.142,0,0,1-.118-.173q.019-.128.034-.5t.03-.844q.015-.473.03-.967T287.557,435.748Z" transform="translate(-247.907 -431.954)" fill="#fff" stroke="#fff" stroke-width="0.2"/>
            <path id="Path_185" data-name="Path 185" d="M311.472,415.234a.062.062,0,0,1,.051-.064.205.205,0,0,1,.124.01.541.541,0,0,1,.143.074.517.517,0,0,1,.118.118q.01.266.045.745t.084,1.051q.051.572.1,1.174t.094,1.11q.04.508.059.858a1.9,1.9,0,0,1,0,.41.194.194,0,0,0-.094-.015.792.792,0,0,1-.094,0,.189.189,0,0,1-.1-.03.3.3,0,0,1-.1-.128q-.01-.928-.04-1.593t-.084-1.243q-.054-.578-.135-1.154T311.472,415.234ZM312.6,421.7a.416.416,0,0,1,.045.123.171.171,0,0,1-.015.09.434.434,0,0,1-.059.094.735.735,0,0,0-.079.128.6.6,0,0,1-.321.025.294.294,0,0,1-.173-.135.338.338,0,0,1,.034-.232.3.3,0,0,1,.143-.118.445.445,0,0,1,.2-.025.887.887,0,0,1,.222.049Z" transform="translate(-267.749 -415.052)" fill="#fff" stroke="#fff" stroke-width="0.2"/>
          </g>
        </g>
        <g id="Group_130" data-name="Group 130" transform="translate(58.543 113.031)">
          <path id="Path_186" data-name="Path 186" d="M80.36,124.057a1.675,1.675,0,0,1,.939,1.368,11.574,11.574,0,0,0,.5,1.825H80.746a9.165,9.165,0,0,1-.421-1.6c-.184-.894-.509-1.237-1.219-1.237h-.614v2.842H77.483v-6.622a9.494,9.494,0,0,1,1.631-.14,2.753,2.753,0,0,1,1.912.535,1.7,1.7,0,0,1,.535,1.316,1.773,1.773,0,0,1-1.2,1.7Zm-1.184-.412a1.211,1.211,0,0,0,1.368-1.2c0-.868-.614-1.166-1.342-1.166a3,3,0,0,0-.71.061v2.307Z" transform="translate(-77.483 -120.44)" fill="#fff" stroke="#fff" stroke-miterlimit="10" stroke-width="0.5"/>
          <path id="Path_187" data-name="Path 187" d="M121.213,127.58h-3.658v-6.71h3.509v.851h-2.491v1.938h2.351v.842h-2.351v2.228h2.64Z" transform="translate(-111.8 -120.771)" fill="#fff" stroke="#fff" stroke-miterlimit="10" stroke-width="0.5"/>
          <path id="Path_188" data-name="Path 188" d="M153.158,126.816a3.855,3.855,0,0,1-1.579.28c-1.868,0-3.123-1.237-3.123-3.376a3.206,3.206,0,0,1,3.3-3.526,3.252,3.252,0,0,1,1.43.263l-.219.833a2.764,2.764,0,0,0-1.175-.245c-1.3,0-2.263.877-2.263,2.623,0,1.649.86,2.57,2.245,2.57a3,3,0,0,0,1.21-.237Z" transform="translate(-138.265 -120.191)" fill="#fff" stroke="#fff" stroke-miterlimit="10" stroke-width="0.5"/>
          <path id="Path_189" data-name="Path 189" d="M191.151,126.816a3.856,3.856,0,0,1-1.579.28c-1.868,0-3.123-1.237-3.123-3.376a3.206,3.206,0,0,1,3.3-3.526,3.252,3.252,0,0,1,1.43.263l-.219.833a2.764,2.764,0,0,0-1.175-.245c-1.3,0-2.263.877-2.263,2.623,0,1.649.859,2.57,2.245,2.57a3,3,0,0,0,1.211-.237Z" transform="translate(-170.801 -120.191)" fill="#fff" stroke="#fff" stroke-miterlimit="10" stroke-width="0.5"/>
          <path id="Path_190" data-name="Path 190" d="M230.935,127.579h-1.07l-.6-1.974h-2.052l-.579,1.974h-1.044l2.052-6.71h1.246Zm-1.842-2.754-.526-1.756c-.123-.438-.237-.912-.333-1.324h-.018c-.1.412-.2.9-.315,1.316l-.535,1.763h1.728Z" transform="translate(-204.317 -120.77)" fill="#fff" stroke="#fff" stroke-miterlimit="10" stroke-width="0.5"/>
          <path id="Path_191" data-name="Path 191" d="M274.043,127.579h-1.069l-.605-1.974h-2.051l-.579,1.974h-1.044l2.052-6.71h1.246Zm-1.842-2.754-.526-1.756c-.123-.438-.237-.912-.333-1.324h-.018c-.1.412-.2.9-.315,1.316l-.535,1.763H272.2Z" transform="translate(-241.235 -120.77)" fill="#fff" stroke="#fff" stroke-miterlimit="10" stroke-width="0.5"/>
        </g>
      </g>
    </g>
    <g id="Group_141" data-name="Group 141" transform="translate(0 2)">
      <g id="Group_139" data-name="Group 139" transform="translate(-2.093 195.979)">
        <g id="Group_127-3" data-name="Group 127" transform="translate(207.127 112.021)">
          <path id="Path_166-2" data-name="Path 166" d="M76.38,204.967c0-5.165,1.157-9.279,4.3-9.279,2.017,0,2.876,1.561,3.362,3.122l-1.238.457c-.457-1.372-.968-2.26-2.129-2.26-2.017,0-2.77,3.5-2.77,7.962s.754,7.962,2.77,7.962c1.292,0,1.829-1.211,2.206-2.77l1.238.484c-.457,1.883-1.372,3.6-3.443,3.6C77.537,214.248,76.38,210.135,76.38,204.967Z" transform="translate(-76.38 -195.688)" fill="#fff" stroke="#fff" stroke-width="0.5"/>
          <path id="Path_167-2" data-name="Path 167" d="M145.136,215.081V197.14h1.452v16.623H151.3v1.319Z" transform="translate(-133.122 -196.845)" fill="#fff" stroke="#fff" stroke-width="0.5"/>
          <path id="Path_168-2" data-name="Path 168" d="M201.621,210.7V197.14h1.452v13.584c0,2.5.941,3.362,2.34,3.362s2.34-.86,2.34-3.362V197.14h1.452V210.7c0,3.281-1.533,4.706-3.792,4.706C203.181,215.4,201.621,213.973,201.621,210.7Z" transform="translate(-180.095 -196.845)" fill="#fff" stroke="#fff" stroke-width="0.5"/>
          <path id="Path_169-2" data-name="Path 169" d="M273.412,215.081V197.14h3.254c2.286,0,3.69,1.722,3.69,4.573,0,2.26-.83,3.578-2.232,4.116,1.48.243,2.475,2.313,2.475,4.408,0,2.981-1.211,4.841-3.819,4.841h-3.362Zm5.406-13.234c0-1.852-.568-3.386-2.365-3.386h-1.587v6.749h1.587C278.253,205.21,278.818,203.73,278.818,201.848Zm.243,8.311c0-1.883-.673-3.631-2.5-3.631h-1.695v7.238h1.695c1.828,0,2.5-1.375,2.5-3.608Z" transform="translate(-239.254 -196.845)" fill="#fff" stroke="#fff" stroke-width="0.5"/>
        </g>
        <g id="Group_130-2" data-name="Group 130" transform="translate(112.093 112.142)">
          <path id="Path_186-2" data-name="Path 186" d="M85.083,129.937a4.425,4.425,0,0,1,2.481,3.614,30.579,30.579,0,0,0,1.321,4.821H86.1a24.212,24.212,0,0,1-1.112-4.24c-.486-2.362-1.345-3.268-3.22-3.268H80.149v7.508H77.483V120.879a25.085,25.085,0,0,1,4.309-.37,7.273,7.273,0,0,1,5.051,1.413,4.491,4.491,0,0,1,1.413,3.477,4.684,4.684,0,0,1-3.17,4.491Zm-3.128-1.088a3.2,3.2,0,0,0,3.614-3.17c0-2.293-1.622-3.08-3.545-3.08a7.924,7.924,0,0,0-1.876.161v6.095Z" transform="translate(-77.483 -120.382)" fill="#fff" stroke="#fff" stroke-miterlimit="10" stroke-width="0.5"/>
          <path id="Path_187-2" data-name="Path 187" d="M127.218,138.6h-9.664V120.87h9.27v2.248h-6.581v5.12h6.211v2.224h-6.211v5.886h6.974Z" transform="translate(-102.352 -120.608)" fill="#fff" stroke="#fff" stroke-miterlimit="10" stroke-width="0.5"/>
          <path id="Path_188-2" data-name="Path 188" d="M160.9,137.693a10.184,10.184,0,0,1-4.171.74c-4.935,0-8.25-3.268-8.25-8.919A8.469,8.469,0,0,1,157.2,120.2a8.591,8.591,0,0,1,3.778.695l-.579,2.2a7.3,7.3,0,0,0-3.1-.647c-3.434,0-5.978,2.317-5.978,6.929,0,4.356,2.272,6.789,5.931,6.789a7.924,7.924,0,0,0,3.2-.626Z" transform="translate(-121.561 -120.191)" fill="#fff" stroke="#fff" stroke-miterlimit="10" stroke-width="0.5"/>
          <path id="Path_189-2" data-name="Path 189" d="M198.9,137.693a10.186,10.186,0,0,1-4.171.74c-4.935,0-8.25-3.268-8.25-8.919a8.469,8.469,0,0,1,8.718-9.315,8.591,8.591,0,0,1,3.778.695l-.579,2.2a7.3,7.3,0,0,0-3.1-.647c-3.434,0-5.978,2.317-5.978,6.929,0,4.356,2.269,6.789,5.931,6.789a7.925,7.925,0,0,0,3.2-.626Z" transform="translate(-145.138 -120.191)" fill="#fff" stroke="#fff" stroke-miterlimit="10" stroke-width="0.5"/>
          <path id="Path_190-2" data-name="Path 190" d="M239.718,138.6h-2.827l-1.6-5.215h-5.421l-1.53,5.215h-2.758l5.421-17.726H234.3Zm-4.866-7.275-1.39-4.639c-.325-1.157-.626-2.409-.88-3.5h-.048c-.264,1.088-.528,2.378-.832,3.477l-1.413,4.657h4.565Z" transform="translate(-169.4 -120.607)" fill="#fff" stroke="#fff" stroke-miterlimit="10" stroke-width="0.5"/>
          <path id="Path_191-2" data-name="Path 191" d="M282.823,138.6H280l-1.6-5.215h-5.418l-1.53,5.215h-2.758l5.421-17.726h3.292Zm-4.866-7.275-1.39-4.639c-.325-1.157-.626-2.409-.88-3.5h-.048c-.264,1.088-.528,2.378-.832,3.477l-1.413,4.657h4.56Z" transform="translate(-196.153 -120.607)" fill="#fff" stroke="#fff" stroke-miterlimit="10" stroke-width="0.5"/>
        </g>
      </g>
      <path id="Path_863" data-name="Path 863" d="M3.593-3.993,2.545-2.882V0H.939V-9.242H2.545v4.335L3.434-6l2.7-3.237H8.081L4.646-5.148,8.277,0h-1.9ZM19.94-4.38A5.67,5.67,0,0,1,19.471-2,3.552,3.552,0,0,1,18.128-.422a3.693,3.693,0,0,1-2.009.549,3.7,3.7,0,0,1-2-.549,3.606,3.606,0,0,1-1.358-1.565,5.493,5.493,0,0,1-.486-2.342V-4.85a5.622,5.622,0,0,1,.479-2.387A3.6,3.6,0,0,1,14.1-8.82a3.681,3.681,0,0,1,2-.549,3.714,3.714,0,0,1,2,.543,3.556,3.556,0,0,1,1.349,1.562,5.61,5.61,0,0,1,.482,2.371Zm-1.606-.482a4.04,4.04,0,0,0-.581-2.355,1.9,1.9,0,0,0-1.647-.819,1.894,1.894,0,0,0-1.628.816,3.962,3.962,0,0,0-.6,2.307v.533a4.009,4.009,0,0,0,.594,2.355,1.911,1.911,0,0,0,1.647.832,1.889,1.889,0,0,0,1.641-.812,4.1,4.1,0,0,0,.574-2.374ZM32.219-3.009A3.337,3.337,0,0,1,31.128-.7a3.722,3.722,0,0,1-2.533.828A3.6,3.6,0,0,1,26.649-.4a3.437,3.437,0,0,1-1.3-1.489,5.372,5.372,0,0,1-.476-2.241v-.863a5.411,5.411,0,0,1,.463-2.3,3.492,3.492,0,0,1,1.33-1.536,3.71,3.71,0,0,1,2-.54,3.572,3.572,0,0,1,2.463.828A3.461,3.461,0,0,1,32.219-6.2h-1.6a2.283,2.283,0,0,0-.581-1.438,1.92,1.92,0,0,0-1.368-.441,1.875,1.875,0,0,0-1.609.766,3.826,3.826,0,0,0-.574,2.246v.82a4.059,4.059,0,0,0,.536,2.287,1.78,1.78,0,0,0,1.571.788,2.076,2.076,0,0,0,1.422-.425,2.218,2.218,0,0,0,.6-1.416ZM44.619,0h-1.6V-4.1H38.887V0H37.281V-9.242h1.606V-5.4h4.132V-9.242h1.6Zm7.22,0h-1.6V-9.242h1.6ZM57.51,2.082l-.832-.5a4.485,4.485,0,0,0,.5-1.006,3,3,0,0,0,.143-.873v-1.2h1.39L58.709-.381A3.1,3.1,0,0,1,58.37.968,3.351,3.351,0,0,1,57.51,2.082ZM73.441-3.993,72.393-2.882V0H70.787V-9.242h1.606v4.335L73.282-6l2.7-3.237h1.942L74.494-5.148,78.125,0h-1.9Zm14.57-.133h-3.8v2.844h4.437V0H82.609V-9.242h6v1.295H84.215V-5.4h3.8Zm8.972.571h-1.79V0H93.587V-9.242h3.25a3.781,3.781,0,0,1,2.469.718,2.54,2.54,0,0,1,.87,2.077,2.6,2.6,0,0,1-.448,1.553,2.848,2.848,0,0,1-1.247.962l2.076,3.849V0h-1.72ZM95.193-4.85h1.65a1.836,1.836,0,0,0,1.27-.409,1.428,1.428,0,0,0,.457-1.12,1.52,1.52,0,0,0-.422-1.149,1.793,1.793,0,0,0-1.26-.419H95.193Zm15.307,2.7h-3.58L106.17,0H104.5l3.491-9.242h1.441L112.931,0h-1.676ZM107.37-3.447h2.679l-1.339-3.834Zm11.841,2.165h4.2V0h-5.8V-9.242h1.606Zm14.348-.87h-3.58L129.23,0h-1.669l3.491-9.242h1.441L135.99,0h-1.676ZM130.43-3.447h2.679l-1.339-3.834Z" transform="translate(109 345)" fill="#b4b4b4"/>
    </g>
  </g>
</svg>
