<?xml version="1.0" encoding="UTF-8"?> <svg xmlns="http://www.w3.org/2000/svg" width="394" height="394" viewBox="0 0 394 394" fill="none"><path d="M209.015 245.66L202.849 241.925L224.096 206.69C211.94 205.738 202.356 195.555 202.356 183.153C202.356 170.151 212.962 159.545 225.963 159.545C238.965 159.545 249.571 170.151 249.571 183.153H242.348C242.348 174.097 234.984 166.768 225.963 166.768C216.943 166.768 209.579 174.132 209.579 183.153C209.579 192.173 216.943 199.537 225.963 199.537C227.302 199.537 228.641 199.361 229.945 199.044L238.401 196.93L209.05 245.625L209.015 245.66Z" fill="#8E6E46" fill-opacity="0.5"></path><path d="M167.684 234.596C162.047 234.596 156.656 232.588 152.322 228.888C147.53 224.765 144.64 219.057 144.182 212.75L151.37 212.222C151.688 216.591 153.696 220.572 157.008 223.426C160.32 226.28 164.548 227.69 168.918 227.338C173.287 227.02 177.268 225.012 180.122 221.7C182.976 218.388 184.386 214.16 184.033 209.79C183.716 205.421 181.708 201.44 178.396 198.586C175.084 195.732 170.855 194.322 166.486 194.674C165.147 194.78 163.844 195.027 162.575 195.45L153.273 198.515L179.559 155.176H147.495V147.953H192.384L168.424 187.416C173.815 187.592 178.96 189.565 183.082 193.124C187.874 197.247 190.763 202.955 191.221 209.262C191.679 215.534 189.671 221.665 185.584 226.421C181.461 231.213 175.753 234.103 169.446 234.561C168.847 234.596 168.248 234.631 167.649 234.631L167.684 234.596Z" fill="#8E6E46" fill-opacity="0.5"></path><path d="M197 0C88.3699 0 0 88.3699 0 197C0 305.63 88.3699 394 197 394C305.63 394 394 305.63 394 197C394 88.3699 305.63 0 197 0ZM129.454 16.4196L152.709 28.47L126.741 66.1717H81.2171L84.1417 40.8024C97.9891 30.7603 113.211 22.5153 129.489 16.4196H129.454ZM305.665 356.157L278.887 349.639L294.919 307.427L336.496 297.138L339.773 326.419C329.625 337.624 318.174 347.595 305.665 356.157ZM218.458 388.609L198.304 370.78L232.411 340.513L276.068 351.154L266.272 376.946C251.157 382.795 235.124 386.777 218.458 388.644V388.609ZM197 389.807C190.552 389.807 184.21 389.49 177.903 388.856L196.718 372.154L215.604 388.891C209.473 389.49 203.237 389.807 196.965 389.807H197ZM126.671 376.523L117.122 351.436L161.06 340.548L195.168 370.745L175.119 388.539C158.241 386.636 141.998 382.513 126.706 376.523H126.671ZM53.5927 68.2858H78.8564L73.712 113.14L34.2134 133.859L25.0522 109.863C32.7335 94.7475 42.3879 80.7591 53.5927 68.2506V68.2858ZM307.568 39.1463L310.598 66.2069H265.744L239.846 28.3643L263.383 15.9968C279.168 21.8106 294.003 29.6328 307.568 39.1463ZM382.725 145.204L360.844 133.859L369.512 110.991C374.938 121.843 379.377 133.295 382.689 145.169L382.725 145.204ZM368.243 108.489L358.976 132.907L317.786 111.59L312.924 68.2858H340.407C351.295 80.4067 360.668 93.9018 368.243 108.489ZM285.264 94.7475L267.153 68.2858H310.81L315.531 110.427L285.264 94.7475ZM315.848 112.929L319.407 144.605L287.801 98.3767L315.848 112.894V112.929ZM281.353 92.7038L234.173 68.2506H264.652L281.353 92.7038ZM281.459 98.7995L316.624 150.243L323.952 215.675L303.093 270.571L257.146 311.338L196.436 326.384L136.078 311.655L89.286 270.219L67.3345 212.609L74.4167 151.089L109.476 100.244L164.302 71.4922H228.641L281.494 98.87L281.459 98.7995ZM322.402 152.78L341.042 180.052L328.991 211.728L322.367 152.78H322.402ZM331.211 249.994L309.365 269.373L327.899 220.572L331.211 249.994ZM63.811 217.507L83.4722 269.056L60.2522 248.514L63.811 217.542V217.507ZM62.7187 208.733L51.4434 179.171L69.061 153.625L62.7187 208.733ZM72.0912 145.486L75.65 114.479L103.521 99.8566L72.0912 145.451V145.486ZM69.5543 149.151L50.5273 176.775L34.9181 135.867L73.3949 115.677L69.5543 149.186V149.151ZM62.1901 213.243L58.3495 246.787L25.1227 217.366L49.9987 181.25L62.1901 213.243ZM59.9703 251.016L85.093 273.249L97.3196 305.313L54.9317 294.989L59.9703 251.016ZM88.4756 276.279L130.441 313.452L99.7861 305.982L88.4756 276.314V276.279ZM133.788 316.412L159.157 338.892L116.382 349.498L100.702 308.378L133.788 316.447V316.412ZM138.157 317.469L192.278 330.682L161.624 338.258L138.157 317.469ZM196.683 331.739L229.98 339.844L196.753 369.335L163.562 339.914L196.683 331.704V331.739ZM201.052 330.647L255.526 317.152L231.883 338.152L201.087 330.647H201.052ZM259.895 316.095L292.452 308.026L276.843 349.11L234.349 338.751L259.895 316.06V316.095ZM263.277 313.1L304.362 276.632L293.333 305.665L263.277 313.1ZM307.779 273.601L331.493 252.531L336.25 294.989L295.835 304.996L307.779 273.566V273.601ZM329.555 216.309L342.521 182.166L367.116 218.141L333.114 248.302L329.52 216.309H329.555ZM341.958 177.656L321.909 148.34L318.068 114.127L358.201 134.916L341.958 177.691V177.656ZM312.712 66.1717L309.858 40.7671C320.217 48.2722 329.837 56.7991 338.505 66.1717H312.712ZM263.207 66.1717H230.121L198.727 49.893L238.014 29.2805L263.242 66.1365L263.207 66.1717ZM225.541 66.1717H167.72L196.436 51.091L225.541 66.1717ZM163.174 66.1717H129.243L154.542 29.4214L194.111 49.9283L163.139 66.1717H163.174ZM159.193 68.2858L110.075 94.078L127.833 68.2858H159.193ZM106.058 96.1569L75.9319 111.977L80.9352 68.2858H125.261L106.058 96.1569ZM32.3107 134.845L11.0639 146.015C14.2703 134.352 18.5337 123.112 23.7838 112.436L32.3459 134.845H32.3107ZM4.19299 197C4.19299 180.369 6.3071 164.196 10.2887 148.763L33.0506 136.818L49.0826 178.854L23.5371 215.957L4.22822 198.867C4.22822 198.233 4.22822 197.634 4.22822 197H4.19299ZM22.3391 217.718L8.56215 237.732C6.06045 226.069 4.58058 214.054 4.26346 201.722L22.3391 217.718ZM23.9247 219.092L58.0676 249.324L52.888 294.496L27.2368 288.224C19.2384 273.355 13.1075 257.358 9.19639 240.515L23.9599 219.092H23.9247ZM28.5757 290.761L52.6062 296.61L49.7521 321.345C41.7537 311.867 34.6362 301.649 28.5405 290.761H28.5757ZM54.685 297.103L98.2357 307.709L114.338 349.956L88.6165 356.334C74.9453 346.996 62.5425 335.968 51.69 323.53L54.7203 297.138L54.685 297.103ZM90.942 357.919L115.078 351.929L124.028 375.431C112.4 370.639 101.301 364.755 90.942 357.919ZM268.915 375.854L278.147 351.612L303.305 357.743C292.558 364.896 281.036 370.956 268.915 375.854ZM338.54 296.61L365.918 289.845C359.082 302.212 350.943 313.769 341.641 324.305L338.54 296.61ZM366.904 288.048L366.763 287.484L338.328 294.531L333.431 250.875L368.314 219.903L384.205 243.158C380.294 258.979 374.444 274.059 366.904 288.083V288.048ZM369.899 218.493L389.737 200.876C389.455 214.441 387.799 227.655 384.874 240.41L369.899 218.493ZM368.701 216.732L343.438 179.77L360.104 135.867L383.465 147.988C387.587 163.632 389.772 180.087 389.772 197C389.772 197.352 389.772 197.669 389.772 198.022L368.701 216.732ZM260.705 15.0102L238.683 26.5673L224.73 6.16616C237.133 7.96316 249.183 10.9581 260.705 14.975V15.0102ZM236.781 27.5539L196.436 48.7303L155.81 27.6949L170.75 5.98998C179.347 4.82722 188.086 4.19299 197 4.19299C205.421 4.19299 213.737 4.75675 221.911 5.81381L236.781 27.5892V27.5539ZM167.931 6.37757L153.907 26.7083L132.132 15.433C143.619 11.3105 155.563 8.24504 167.931 6.37757ZM55.5307 66.1717C63.5643 57.5038 72.3731 49.5407 81.8514 42.4584L79.1383 66.1717H55.5307Z" fill="#8E6E46" fill-opacity="0.5"></path></svg> 