<svg xmlns:inkscape="http://www.inkscape.org/namespaces/inkscape" xmlns:sodipodi="http://sodipodi.sourceforge.net/DTD/sodipodi-0.dtd" xmlns="http://www.w3.org/2000/svg" xmlns:svg="http://www.w3.org/2000/svg" width="1000" height="1000" viewBox="0 0 264.58332 264.58334" id="svg24876" inkscape:version="1.2 (dc2aeda, 2022-05-15)" sodipodi:docname="DCC Favcon 512.svg"><defs id="defs24873"></defs><g inkscape:label="Layer 1" inkscape:groupmode="layer" id="layer1"><g id="g25111" transform="matrix(1.0547129,0,0,1.0547129,60.852444,60.852447)"><path d="m 67.733,30.213544 c 0.72871,1.769013 1.640222,3.400095 2.402169,6.167036 0.599919,2.181146 1.411721,6.202765 1.159123,9.827207 -0.255921,3.674297 -1.538019,6.428775 -4.644803,7.071902 -2.058171,0.426258 -4.189463,-1.545499 -5.076878,-2.498556 1.13752,-2.317416 4.874135,-9.9103 6.160389,-20.567589 m 1.276282,-0.638142 c 4.926483,0.528461 12.173706,19.70344 23.725058,15.55386 1.613633,-0.579146 3.105122,-1.813883 4.110526,-3.184889 -9.14669,0.742005 -20.794428,-16.961427 -27.835584,-12.368971 m -2.552565,0 c -4.925652,0.528461 -12.172044,19.70344 -23.724227,15.55386 -1.613632,-0.579146 -3.105121,-1.813883 -4.111357,-3.184889 9.14752,0.742005 20.795259,-16.961427 27.835584,-12.368971 m -15.302924,3.564617 c -2.901548,-0.03324 -6.162051,-1.972587 -6.721254,-6.194456 1.778153,0.610721 3.584558,0.720401 5.329474,0.594934 2.20192,-0.158706 4.390545,-0.705446 6.440407,-1.150815 3.295401,-0.717078 5.622788,-0.987955 7.220634,0.515997 -2.788544,0.241796 -6.742028,1.737439 -12.269261,6.23434 M 79.26441,26.389682 c 2.049862,0.445369 4.238487,0.99211 6.440406,1.150815 1.744917,0.125469 3.552153,0.01578 5.329476,-0.594934 -0.554219,4.224361 -3.817214,6.163712 -6.720424,6.196118 -5.526402,-4.498563 -9.481548,-5.994206 -12.219406,-6.226031 1.54716,-1.513923 3.874547,-1.243046 7.169948,-0.525968" style="fill:#ed6c26;fill-opacity:1;fill-rule:evenodd;stroke:none;stroke-width:0.830913" id="path10267"></path><path d="m 63.184915,22.716299 c 0,-1.714173 2.039892,-3.10346 4.555896,-3.10346 2.516835,0 4.556727,1.389287 4.556727,3.10346 0,1.714174 -2.039892,3.10346 -4.556727,3.10346 -2.516004,0 -4.555896,-1.389286 -4.555896,-3.10346 M 64.87333,10.32157 c 0,-1.0785244 1.283761,-1.9534758 2.867481,-1.9534758 1.584551,0 2.869143,0.8749514 2.869143,1.9534758 0,1.079357 -1.284592,1.954308 -2.869143,1.954308 -1.58372,0 -2.867481,-0.874951 -2.867481,-1.954308 m 6.949756,-1.0427953 c -0.51018,-0.8849222 0.376404,-2.3539764 1.980897,-3.2796133 1.605324,-0.926468 3.320328,-0.9605354 3.83134,-0.074782 0.511011,0.8849223 -0.376404,2.3539764 -1.980066,3.2804443 -1.604493,0.9264673 -3.319497,0.9597043 -3.832171,0.073951 m -8.201111,0 C 64.132987,8.393852 63.246403,6.9247979 61.64191,5.9991609 60.037417,5.072693 58.322413,5.0386255 57.81057,5.9243787 c -0.511011,0.8849223 0.375573,2.3539764 1.980066,3.2804444 1.604493,0.9264679 3.320328,0.9597039 3.831339,0.073951 m -8.553418,3.3577189 c 0,-1.262157 1.853767,-2.285841 4.141271,-2.285841 2.287503,0 4.142101,1.023684 4.142101,2.285841 0,1.262157 -1.854598,2.285011 -4.142101,2.285011 -2.287504,0 -4.141271,-1.022854 -4.141271,-2.285011 M 72.10892,12.472804 c 0,-1.262988 1.853767,-2.285842 4.141271,-2.285842 2.288334,0 4.142101,1.022854 4.142101,2.285842 0,1.261326 -1.853767,2.285011 -4.142101,2.285011 -2.287504,0 -4.141271,-1.023685 -4.141271,-2.285011 M 63.15334,3.7989034 c 0.441215,-0.525968 1.57375,-0.3041142 2.526807,0.496886 0.954719,0.8009999 1.370175,1.8762015 0.92813,2.4030003 C 66.166231,7.2247575 65.035358,7.0029037 64.08147,6.2019037 63.126751,5.4009036 62.711295,4.3257023 63.15334,3.7989034 m 5.60617,2.9081952 c -0.442045,-0.5267988 -0.02659,-1.6020001 0.927299,-2.4030003 0.954719,-0.8001692 2.085592,-1.0228537 2.527637,-0.4960549 0.442046,0.5259678 0.02659,1.6020001 -0.928129,2.4030002 -0.953888,0.8001692 -2.085592,1.0228541 -2.526807,0.496055 m -4.746175,9.3336454 c 0,-1.40175 1.669305,-2.53927 3.727476,-2.53927 2.059833,0 3.728307,1.13752 3.728307,2.53927 0,1.402581 -1.668474,2.53927 -3.728307,2.53927 -2.058171,0 -3.727476,-1.136689 -3.727476,-2.53927 m -11.335314,6.727902 c -0.856672,-1.48401 0.629001,-3.946836 3.320328,-5.499812 2.689665,-1.553808 5.566286,-1.609479 6.422957,-0.125467 0.856671,1.484841 -0.629832,3.946836 -3.319497,5.500644 -2.690496,1.552976 -5.566286,1.608647 -6.423788,0.124637 m 20.369,-5.848797 c 0.856671,-1.48401 3.732461,-1.428339 6.422957,0.125467 2.690497,1.552976 4.177,4.015802 3.320329,5.499813 -0.858333,1.484842 -3.733292,1.42834 -6.423788,-0.124637 -2.690497,-1.553807 -4.177,-4.015802 -3.319498,-5.500644 m -6.883283,69.151902 c -1.619449,7.685113 0.728711,18.938998 0.728711,18.938998 l 4.452032,-4.52765 c 0,0 -3.34858,-6.113022 -2.159543,-14.169553 l -1.382639,-1.023684 -1.638561,0.781889" style="fill:#a28e29;fill-opacity:1;fill-rule:evenodd;stroke:none;stroke-width:0.830913" id="path10271"></path><path d="M 39.253543,77.617796 C 42.305487,76.642305 50.658655,70.604892 59.438912,51.54624 l 0.60989,0.65476 c 0.503533,0.540923 1.402581,1.42003 2.525975,2.117167 0.293312,0.181974 0.62734,0.366432 0.992941,0.530953 -1.449112,8.15458 -3.230589,14.437111 -4.609074,18.270113 -2.283349,6.41631 -8.422135,9.565471 -15.01709,8.008339 -2.14708,-0.506856 -3.417546,-1.65767 -4.15955,-2.668892 -0.219353,-0.298297 -0.393022,-0.584962 -0.528461,-0.840884 m 15.457474,6.457856 c 2.485261,-1.866231 7.892842,-7.767375 10.954757,-28.66816 0.451185,0.03406 0.922313,0.01248 1.405904,-0.08807 2.940601,-0.609059 4.598273,-2.538439 5.476548,-4.887431 0.77441,5.276298 1.395933,13.224811 0.30079,20.313329 -1.292069,8.36397 -4.837575,14.933999 -12.691365,15.361918 -1.979234,0.107192 -3.542182,-0.610719 -4.632339,-1.380144 -0.314916,-0.22185 -0.586625,-0.44537 -0.814295,-0.651436 M 65.081642,32.85236 c -0.673871,2.08393 -1.675121,4.660591 -1.675121,4.660591 C 56.541518,55.829596 50.005556,65.99 45.335825,70.85832 c -3.269641,2.970512 -7.733305,3.336116 -12.063193,1.205653 -2.571677,-1.266311 -3.52224,-3.992536 -3.871224,-5.681782 4.221869,0.695474 15.714226,-2.403831 30.501984,-27.361964 1.440803,-1.71999 2.760293,-3.43998 3.972595,-4.85087 0.439553,-0.511011 0.839222,-0.950564 1.205655,-1.316997 M 47.878419,47.655075 c 2.031583,-0.350647 3.906953,-1.256341 5.643562,-2.476952 -7.515608,10.962234 -13.697602,15.664372 -17.999237,17.700108 -1.92107,0.693813 -4.401346,0.09141 -6.573352,-1.599507 -2.454518,-1.908608 -2.817628,-5.368529 -2.732873,-7.076885 3.026184,1.044456 10.694679,2.197764 21.6619,-6.546764 m 32.877565,36.420577 c -0.22767,0.206069 -0.50021,0.429582 -0.814295,0.651437 -1.090158,0.769424 -2.653105,1.487333 -4.63317,1.380144 -2.357301,-0.12879 -4.326564,-0.810139 -5.963463,-1.927717 2.619038,-2.71293 4.199434,-6.534299 5.101806,-10.640671 2.350653,6.656444 4.807662,9.409257 6.309122,10.536807 m 15.457474,-6.457856 c -0.136271,0.255922 -0.309931,0.542587 -0.52763,0.840884 -0.742836,1.011222 -2.012471,2.162036 -4.15955,2.668892 C 84.92966,82.684704 78.791706,79.535543 76.508357,73.119233 76.093731,71.968419 75.643376,70.595751 75.177234,69.018678 76.066311,60.944696 75.056752,52.312342 74.195926,47.617684 l -0.07478,-0.405486 C 83.574443,69.706674 92.941325,76.572509 96.21346,77.617796 M 71.658318,34.247463 c 1.193191,1.395934 2.491077,3.084349 3.90446,4.772764 14.78942,24.958133 26.280942,28.057438 30.502812,27.361964 -0.34898,1.689246 -1.29955,4.415471 -3.87122,5.681782 -4.328226,2.130463 -8.792722,1.764859 -12.063195,-1.205653 -4.447046,-4.635663 -10.587493,-14.071513 -17.090218,-30.780341 -0.260076,-1.694231 -0.606566,-3.189044 -0.897386,-4.25012 -0.157873,-0.569175 -0.320732,-1.09265 -0.485253,-1.580396 m 15.930263,13.407612 c -2.031582,-0.350647 -3.906952,-1.256341 -5.643561,-2.476952 7.515608,10.962234 13.697601,15.664372 17.999237,17.700108 1.921073,0.693813 4.400513,0.09141 6.574183,-1.599507 2.45286,-1.908608 2.81679,-5.368529 2.73287,-7.076885 -3.02701,1.044456 -10.694678,2.197764 -21.662729,-6.546764" style="fill:#c95e1f;fill-opacity:1;fill-rule:evenodd;stroke:none;stroke-width:0.830913" id="path10275"></path><path d="M 20.459371,115.6771 H 115.0073" style="fill:none;stroke:#a28e29;stroke-width:1.1774;stroke-linecap:butt;stroke-linejoin:miter;stroke-miterlimit:3.864;stroke-dasharray:none;stroke-opacity:1" id="path10279"></path><path d="m 97.248276,129.36888 c 0,1.12423 -0.180309,1.21397 -0.788537,1.21397 H 93.22998 l 3.061915,-2.69964 c 1.072708,-0.94392 1.305364,-1.57624 1.305364,-2.2875 0,-1.39511 -1.2015,-2.17035 -2.49357,-2.17035 -1.239722,0 -2.467811,0.801 -2.467811,2.13212 0,0.5293 0.310761,1.05942 0.890738,1.05942 0.491901,0 0.801,-0.23266 0.801,-0.74949 0,-0.45201 -0.296635,-0.64561 -0.709599,-0.64561 -0.06481,0 -0.156211,0.0249 -0.24595,0.0507 -0.270878,0.0781 -0.335689,-0.0773 -0.335689,-0.15456 0,-0.73702 0.827589,-1.24055 1.498136,-1.24055 1.04695,0 1.523894,0.99461 1.523894,1.92523 0,0.53012 -0.07645,0.90486 -0.192771,1.29207 -0.323225,1.0727 -2.610728,2.98464 -3.500636,3.82469 v 0.83922 h 5.102636 l 0.06564,-2.3897 z m -6.847554,0 c 0,1.12423 -0.180309,1.21397 -0.787706,1.21397 h -3.230589 l 3.061914,-2.69964 c 1.071878,-0.94392 1.305364,-1.57624 1.305364,-2.2875 0,-1.39511 -1.202331,-2.17035 -2.493569,-2.17035 -1.240554,0 -2.467812,0.801 -2.467812,2.13212 0,0.5293 0.30993,1.05942 0.891569,1.05942 0.49107,0 0.801001,-0.23266 0.801001,-0.74949 0,-0.45201 -0.296636,-0.64561 -0.710431,-0.64561 -0.06481,0 -0.15538,0.0249 -0.24595,0.0507 -0.270878,0.0781 -0.33652,-0.0773 -0.33652,-0.15456 0,-0.73702 0.827589,-1.24055 1.499798,-1.24055 1.04695,0 1.524725,0.99461 1.524725,1.92523 0,0.53012 -0.07894,0.90486 -0.194433,1.29207 -0.322395,1.0727 -2.609067,2.98464 -3.500637,3.82469 v 0.83922 h 5.102637 l 0.06481,-2.3897 z m -7.63609,-3.11426 c 0,0.46531 -0.02493,0.90487 -0.07645,1.36935 -0.05235,0.40133 -0.931454,0.89156 -1.317828,0.89156 -1.149984,0 -1.111762,-1.45908 -1.111762,-2.26091 0,-2.44205 0.594934,-2.58414 1.149984,-2.58414 0.711261,0 1.35605,0.15538 1.35605,2.58414 m -3.501467,5.6984 c 2.662244,-0.10387 5.039486,-2.32572 5.039486,-5.05195 0,-1.67927 -0.955549,-3.47571 -2.829258,-3.47571 -1.473209,0 -2.765278,1.26631 -2.765278,2.73952 0,1.602 1.124225,2.67388 2.428758,2.67388 0.594934,0 1.098467,-0.25841 1.551315,-0.63316 -0.220192,1.95182 -1.511431,3.16578 -3.425023,3.46242 z m -5.128395,-0.51683 H 72.59758 v 0.3224 h 4.432089 v -0.3224 h -1.498967 v -8.01083 c -0.749483,0.0515 -1.51143,0.14208 -2.261745,0.14208 h -0.748652 v 0.32322 h 0.722063 c 0.776904,0 0.892401,-0.0258 0.892401,0.52929 z m -9.204023,-8.06982 h 0.77358 c 0.651435,0 0.935608,0.13875 1.090158,0.48026 0.06564,0.13876 0.15455,0.34982 0.15455,0.99294 v 1.91277 c 0,0.30162 -0.01578,0.57 -0.08891,0.80598 -0.138763,0.45617 -0.447862,0.75697 -1.1558,0.75697 h -0.77358 z m -1.367682,4.94892 h -0.60989 v 0.24428 h 2.393029 c 0.276694,0 0.553388,-0.0158 0.821773,-0.0407 1.066892,-0.0972 2.344005,-0.87911 2.344005,-2.71875 0,-1.43249 -1.114254,-2.67803 -2.53096,-2.67803 h -3.027847 v 0.24429 h 0.60989 z m -3.474878,3.4433 v -0.3224 h -1.35605 v -7.98507 c 1.822192,-0.0906 2.377242,0.78854 2.609897,2.44205 h 0.400501 l -0.142087,-2.76528 h -7.403434 l -0.142086,2.76528 h 0.412963 c 0.232657,-1.65351 0.788537,-2.53262 2.609898,-2.44205 v 7.98507 h -1.35605 v 0.3224 z m -12.346537,-0.46448 c 0.452019,0.41296 1.227259,0.65891 1.834657,0.65891 1.666811,0 2.726226,-1.2015 2.726226,-2.83009 0,-1.16244 -0.387207,-2.01579 -1.473209,-2.53179 -0.270878,-0.12961 -0.594102,-0.2202 -0.852516,-0.29747 -0.219354,-0.0648 -0.477777,-0.15538 -0.801001,-0.24512 -0.801001,-0.2202 -1.485673,-0.32322 -1.485673,-1.31865 0,-0.86499 0.775242,-1.47238 1.602001,-1.47238 1.292069,0 2.093069,1.02036 2.235155,2.24762 h 0.413794 v -2.44123 h -0.232661 l -0.49107,0.51683 c -0.594102,-0.46531 -1.13752,-0.64645 -1.886173,-0.64645 -1.344417,0 -2.351484,1.0079 -2.351484,2.36478 0,1.22726 0.594103,2.13129 1.795604,2.49357 0.258414,0.0773 0.516828,0.16784 0.775242,0.25841 0.968845,0.33569 2.041553,0.56835 2.041553,1.76985 0,1.05941 -0.904864,1.8089 -1.925225,1.8089 -1.370176,0 -2.105533,-1.13669 -2.377244,-2.36478 h -0.37474 v 2.57167 h 0.219354 z m -5.968446,-7.84299 c 0.426258,0 0.801,0.0132 1.124224,0.10302 0.658083,0.18115 1.149985,0.65975 1.420861,1.89947 h 0.362278 l -0.0781,-2.32572 H 37.45744 v 0.32322 h 1.292901 v 7.98507 H 37.45744 v 0.3224 h 7.351919 l 0.116331,-2.77774 h -0.374743 c -0.270878,1.45991 -0.633156,2.45534 -2.312432,2.45534 H 40.40386 v -3.95348 c 1.395103,-0.039 1.84712,0.27088 1.963448,1.70503 h 0.361446 v -3.6045 H 42.36731 c -0.06482,1.38181 -0.723727,1.57625 -1.963448,1.57625 v -3.70837 h 1.369345" style="fill:#000000;fill-opacity:1;fill-rule:evenodd;stroke:none;stroke-width:0.830913" id="path10291"></path></g></g></svg>