<?xml version="1.0" encoding="utf-8"?>
<!-- Generator: Adobe Illustrator 16.0.4, SVG Export Plug-In . SVG Version: 6.00 Build 0)  -->
<!DOCTYPE svg PUBLIC "-//W3C//DTD SVG 1.1//EN" "http://www.w3.org/Graphics/SVG/1.1/DTD/svg11.dtd">
<svg version="1.1" id="Layer_1" xmlns="http://www.w3.org/2000/svg" xmlns:xlink="http://www.w3.org/1999/xlink" x="0px" y="0px"
	 width="130.667px" height="246.557px" viewBox="0 0 130.667 246.557" enable-background="new 0 0 130.667 246.557"
	 xml:space="preserve">
<g>
	<path fill="#E0C694" d="M43.035,239.966c-0.249-0.203-0.292-0.658-0.292-1.176v-13.463l-0.319-0.101
		c-1.448,0.766-3.306,1.542-5.146,2.172l0.163,0.975h0.226l2.927-1.312c0.248-0.112,0.248,0.337,0.248,0.721v11.008
		c0,0.518-0.045,0.973-0.293,1.176c-0.299,0.248-0.703,0.292-1.179,0.321l-1.269,0.061v0.682c1.789-0.029,2.741-0.079,3.692-0.079
		c0.951,0,1.902,0.05,3.604,0.079v-0.682l-1.179-0.061C43.741,240.259,43.333,240.214,43.035,239.966z"/>
	<path fill="#E0C694" d="M51.301,225.328l-0.23,0.108c0.025,0.794,0.079,1.569,0.079,2.341c0,0.794-0.053,1.587-0.079,2.352h0.681
		l0.16-1.265c0.159-1.339,0.296-1.587,1.383-1.587h6.06c-0.839,1.745-1.636,3.197-2.477,4.558l-5.532,8.891l0.202,0.298
		c0.341-0.023,0.704-0.073,1.042-0.073c0.343,0,0.706,0.05,1.046,0.073c0.91-2.408,2.156-5.019,3.563-7.557l4.152-7.463v-0.676
		c-1.656,0.069-3.335,0.102-5.036,0.102C54.633,225.429,52.957,225.397,51.301,225.328z"/>
	<path fill="#E0C694" d="M70.884,231.66c-1.655,0-2.425,0.839-3.652,1.772c0.434-4.101,2.516-6.41,6.466-7.541v-0.186l-0.839-0.378
		c-4.586,1.194-7.879,4.998-7.879,10.035c0,3.039,1.296,6.044,4.768,6.044c2.864,0,5.125-2.279,5.125-5.413
		C74.873,233.456,73.422,231.66,70.884,231.66z M70.023,240.648c-2.387,0-2.971-2.516-2.971-4.425c0-0.522-0.028-1.09,0.18-1.586
		c0.404-0.979,1.677-1.616,2.724-1.616c2.132,0,2.971,1.862,2.971,3.726C72.927,238.56,72.155,240.648,70.023,240.648z"/>
	<path fill="#E0C694" d="M84.002,225.328c-2.987,0-5.097,2.336-5.097,5.256c0,2.517,1.498,4.565,4.192,4.565
		c0.562,0,1.469-0.226,1.924-0.591l1.587-1.316c-0.134,3.951-2.949,6.713-6.752,7.603v0.185l0.776,0.377
		c5.747-1.542,8.17-5.442,8.17-10C88.802,227.759,87.014,225.328,84.002,225.328z M83.936,233.759c-2.133,0-3.084-1.992-3.084-3.849
		c0-1.88,0.709-3.782,3.055-3.827c2.269-0.045,2.922,2.441,2.922,4.299C86.828,232.156,85.748,233.759,83.936,233.759z"/>
	<path fill="#E0C694" d="M37.924,42.361c0.113,1.362,1.361,2.042,2.499,2.042c0.906,1.131,1.812,2.043,2.949,2.724
		c0.906,1.131,0.112,2.494-0.568,3.517c0,1.587,2.494,1.475,2.042,3.174c-0.113,1.587,1.475,2.386,2.609,2.835
		c4.313,1.138,8.848,1.706,13.615,1.812c7.146,0,14.861,0.231,21.215-2.037c1.587-0.568,1.475-2.155,1.818-3.517l1.586-1.137
		c0.338-0.794-0.118-1.588-0.679-2.155c-1.026-2.837,2.604-2.837,3.398-4.88c0.793-0.112,1.593-0.225,2.042-1.018
		c0-2.499,3.523-3.293,3.748-5.786c-1.137-1.249-0.118-3.405-1.705-4.541c0.118-0.906,0.23-2.381-0.339-3.287
		c-2.499-0.568-0.567-2.949-1.929-4.311c-1.024-1.025-2.611-1.475-2.268-3.18c-0.456-0.794-1.137-1.587-2.043-1.7
		c-1.586,0-1.138-1.93-2.493-2.267c-1.362-0.232-2.949-0.118-3.522-1.706c-0.905-0.793-2.15-0.225-3.062-0.112
		c-1.019-1.02-2.493-1.7-3.967-1.137c-0.794-0.794-1.706-1.245-2.837-1.245l-1.025-1.816c-0.681-0.682-2.386-0.338-2.042-1.813
		c0.112-1.024,1.36-0.568,1.816-0.912l-0.117-4.085h-1.244c-0.912-0.451-0.344-1.587-0.569-2.381L62.884,3.22
		C62.09,3.79,62.996,5.263,62.09,5.713c-2.494-0.68-1.137,2.274-1.476,3.517c-0.337,1.25,1.137,0.457,1.587,1.137
		c1.137,2.269-2.155,1.25-2.38,3.062c-0.113,1.023-1.018,1.136-1.817,1.136c-1.019,1.475-2.493,0.568-3.856,0.906
		c-0.905,0.907-2.268,1.475-3.517,0.907c-1.815-0.338-1.815,2.385-3.742,1.817c-1.478-0.338-2.271,1.137-2.952,2.155
		c-0.909,0.344-2.04,0.457-2.608,1.475c-0.344,1.361-0.794,2.837-2.269,3.18c-1.931,1.131,0.451,3.967-2.157,4.536
		c-0.909,0.793-0.679,2.269-0.565,3.405c-1.588,1.13-0.569,3.286-1.818,4.536C34.635,39.637,37.472,40.431,37.924,42.361z
		 M43.029,42.248c-0.68,1.02-1.928,0.113-2.72,1.02c-0.685,0-1.363-0.45-1.479-1.131c0.568-1.817-1.812-2.499-2.268-3.749
		c0.567-0.225,1.361-0.112,2.155-0.112l0.568,0.913c0.113,0.562-0.455,1.242,0.226,1.474c0.912-0.231,0.342-1.706,1.589-1.818
		c1.021-0.337,1.474,0.907,2.383,0.793C43.938,40.542,43.029,41.225,43.029,42.248z M46.209,51.327
		c-0.569,0.112-1.475,0.112-1.818-0.568c-0.112-0.907,0.793-1.25,1.474-1.363c0.681-0.112,1.363,0,1.706,0.569
		C47.683,50.758,46.89,51.208,46.209,51.327z M53.356,45.766l0.225,0.112c-0.569,0.68-2.379,1.361-1.7,2.611
		c0.452,1.244,2.493,0.562,2.156,2.042c-1.704,0.675-3.63,0.794-5.448,1.019c-0.225-0.793,1.022-1.586,0.343-2.499
		c-0.684-1.131-2.723-0.112-2.499-1.586C48.589,46.559,50.97,46.104,53.356,45.766z M49.952,44.404
		c0.112-0.343,0.225-0.793,0.568-0.793c0.45-0.112,0.906,0,1.134,0.45c0.116,0.568-0.228,1.024-0.797,1.137
		C50.407,45.085,50.063,44.86,49.952,44.404z M82.398,47.696c0.114,1.588-2.266,0.338-2.604,1.813
		c-0.342,0.906,0.449,1.474,0.563,2.154c-1.813,0.114-3.629-0.456-5.336-0.792c-0.899-1.7,1.937-0.906,2.163-2.611
		c0-1.02-1.138-1.701-1.82-2.156l0.232-0.225C77.975,46.334,80.243,46.896,82.398,47.696z M77.295,44.629
		c0-0.338,0.224-0.906,0.68-0.906c0.457,0,0.908,0.224,0.908,0.68c0.113,0.569-0.226,0.907-0.682,1.019
		C77.75,45.422,77.295,45.085,77.295,44.629z M75.477,47.81c0.119,0.562-0.337,1.018-0.906,1.018
		c-1.017,0.112-1.93-0.112-2.268-1.018c-0.119-0.57,0.455-0.682,0.794-0.913C74.122,46.785,75.021,47.016,75.477,47.81z
		 M71.391,46.447c-0.681,0.338-0.793,1.249-0.451,1.812c0.345,1.136,2.044,0.912,1.701,2.156c-2.156,0.343-4.648-0.113-7.035-0.226
		c-0.566-1.586,2.042-1.018,2.042-2.723c0.113-1.476-1.929-1.363-2.153-2.494l0.455-0.231c2.493-0.112,4.88,0.231,7.26,0.681
		C73.322,46.334,71.966,45.991,71.391,46.447z M65.039,48.715c-1.019,0.112-2.043-0.226-2.38-1.137c0-0.682,0.793-1.02,1.249-1.244
		c0.907-0.118,1.924,0.112,2.38,0.905C66.513,48.147,65.605,48.49,65.039,48.715z M64.925,44.061
		c-0.68,0.23-1.474-0.337-1.586-1.018c0-0.569,0.45-1.25,1.024-1.363c0.562-0.112,1.131,0.343,1.355,0.906
		C65.831,43.268,65.495,43.835,64.925,44.061z M63.565,45.198c-0.569,0.792-2.038,0.792-2.269,2.042
		c-0.112,1.7,2.493,1.363,2.156,2.837c-2.156,0.456-4.536,0.226-6.694,0.456c-0.34,0-0.566-0.23-0.566-0.567
		c0.452-0.794,2.043-1.137,2.157-2.387c0-0.906-1.023-1.244-1.591-1.587c-0.34-0.112-0.909,0.113-1.021-0.337l0.344-0.343
		c2.268-0.45,4.873-0.569,7.258-0.569L63.565,45.198z M56.757,47.466c0.116,0.568-0.566,1.023-1.021,1.136
		c-0.68,0-1.362,0.225-2.043-0.231c-0.45-0.224-0.225-0.905,0-1.132C54.605,46.672,56.081,46.447,56.757,47.466z M80.689,55.08
		c-3.75,2.156-8.397,1.924-12.821,2.268c-6.696,0-13.618,0.226-19.402-2.043c-0.568-0.113-0.907-0.794-0.568-1.25
		c1.93-1.361,4.426-1.586,6.808-1.924c8.398-0.911,17.811-1.023,25.302,1.7C80.351,54.055,80.913,54.511,80.689,55.08z
		 M83.423,51.663c-0.911,0-1.931-0.225-2.273-1.131c-0.112-0.456,0.456-0.911,0.794-0.911c0.91,0,1.931,0.112,2.386,0.911
		C84.553,51.208,83.874,51.663,83.423,51.663z M83.311,46.447c-2.044-0.112-3.973-1.705-4.654-3.629L78.313,42.7
		c-2.494,1.817-6.236,2.499-9.19,1.248c-1.587-0.68-3.174-1.924-4.084-3.405c-1.474-0.562-1.587,1.481-2.837,2.044
		c-2.268,1.705-5.445,2.386-8.28,1.475c-1.247-0.337-2.269-0.905-3.291-1.475c-0.793,0.457-0.906,1.593-1.815,2.155
		c-1.36,1.137-3.063,1.931-4.878,1.249c-0.229-0.337-0.454-0.792-0.229-1.018c1.475-0.343,3.066-0.569,4.087-1.93
		c1.249-0.795,0.792-3.744,2.948-2.724c2.044,1.929,4.767,2.837,7.604,2.042c2.267-0.456,4.536-2.5,5.329-4.766
		c0.456-0.226,1.138-0.338,1.593-0.113c0.792,0.906,0.903,2.042,1.929,2.837c2.037,2.042,4.879,2.949,7.716,2.155
		c1.924,0.113,3.742-3.854,5.217-1.131c0.225,1.244,1.135,2.381,2.266,3.062c0.682,0.907,2.5,0,2.723,1.362
		C84.897,46.559,84.104,46.559,83.311,46.447z M51.085,33.739c0.452,0.226,0.452,0.907,0.34,1.363
		c-0.569,0.68-1.699,0.337-1.93,1.474c-0.338,0.45-1.02,0.338-1.363,0c-0.225-1.137-2.268-1.249-1.243-2.499
		c0.907-0.337,1.019-1.243,1.359-1.923c-0.792,0.225-1.815-0.113-1.815-1.025c-0.112-0.568,0.342-1.13,0.908-1.362
		c0.68,0,1.476,0.231,1.591,1.024c0,0.563-0.116,1.02-0.456,1.363C49.952,31.81,49.726,33.853,51.085,33.739z M53.468,35.214
		c0.454,0.568,0.906,1.25,1.7,1.25c0.458,0.338,0.68,1.131,0.231,1.474c-1.25,0.45-0.682,2.949-2.499,2.043
		c0-1.593-2.949-1.137-1.699-2.955C52.107,36.576,51.769,34.309,53.468,35.214z M49.726,39.637c-0.569,0.113-1.25-0.338-1.25-0.906
		c-0.112-0.568,0.34-1.023,0.794-1.136c0.568-0.113,1.022,0.23,1.25,0.681C50.632,38.957,50.292,39.524,49.726,39.637z
		 M47.908,38.619c-0.112,0.905-1.019,1.474-0.793,2.379c-0.225,0.344-0.793,0.569-1.25,0.226c-0.111-1.244-2.836-1.474-1.018-2.949
		c0-0.568,0-1.25,0.681-1.362C46.545,37.257,47.341,37.825,47.908,38.619z M61.184,35.102c0.455,0.225,1.361,0.225,1.361,1.019
		c0.113,0.905-0.793,1.137-1.361,1.475c-0.113,0.568-0.23,1.361-1.023,1.474c-1.476,0.343-0.794-2.043-2.38-1.587
		c-0.455-0.338-0.569-1.018-0.339-1.361c1.813-0.338,0.339-3.629,2.72-2.606L61.184,35.102z M61.071,28.861
		c0.113-0.456,0-1.138,0.681-1.361c0.45,0,0.793,0.455,0.793,0.905c0.113,0.681-0.112,1.25-0.681,1.361
		C61.296,29.998,61.184,29.204,61.071,28.861z M64.245,21.826c0.794-0.225,1.473,0.343,1.586,1.019c0,0.687-0.449,1.362-1.13,1.362
		c-0.681,0-1.362-0.45-1.362-1.244C63.339,22.507,63.789,21.939,64.245,21.826z M64.476,19.446c0.338,0.112,0.794,0.225,0.794,0.681
		c0.112,0.449-0.114,1.019-0.682,1.019c-0.343,0-0.799-0.338-0.799-0.681C63.677,20.008,64.021,19.446,64.476,19.446z
		 M64.021,24.887c0.794-0.336,1.585,0.231,1.929,0.913c0.112,0.681-0.231,1.474-0.91,1.812c-0.794,0.343-1.587-0.338-1.812-1.018
		C62.996,25.912,63.339,25.118,64.021,24.887z M64.925,29.654c-0.68,0.112-1.36,0-1.586-0.568c-0.112-0.45,0.338-0.793,0.794-0.793
		c0.568-0.114,1.25,0.112,1.473,0.568C65.718,29.316,65.27,29.542,64.925,29.654z M63.789,30.791c0.231-0.456,0.912-0.456,1.25-0.23
		c0.456,0.912,0.792,1.818,1.134,2.724c0.226,1.025-1.585,1.475-0.679,2.499c-0.112,0.338-0.456,0.793-0.906,0.793
		c-0.343,0-0.799-0.112-0.912-0.455c0.456-1.019-0.338-1.475-0.793-2.155C62.202,32.603,63.907,32.04,63.789,30.791z M66.855,35.551
		c1.249-0.112,1.474-1.36,2.492-2.036c0.688-0.231,1.25,0.451,1.363,1.018c-0.338,1.25,2.499,2.493,0.119,3.175
		c-0.913,0.118-0.913,2.154-2.274,1.249c-0.563-0.681-0.563-1.812-1.7-2.042C66.513,36.576,66.513,36.007,66.855,35.551z
		 M67.199,27.611c0.449-0.112,0.905,0.343,0.905,0.682c0,0.68,0,1.361-0.568,1.586c-0.567,0-0.681-0.562-0.793-0.906
		C66.743,28.405,66.624,27.843,67.199,27.611z M80.243,30.678c0.568-1.023,2.269-0.568,2.386,0.45c0,0.569-0.342,1.25-1.023,1.363
		h-0.794c-0.337,1.474,2.269,1.474,1.362,3.06c-1.024,0.344-1.249,2.157-2.611,1.363c-0.111-1.244-1.704-0.793-2.043-1.925
		c-0.111-0.68,0.569-1.25,1.137-1.362c0.449-0.456,0.906-1.474,1.93-1.136C80.243,32.04,80.02,31.24,80.243,30.678z M84.33,40.207
		c-1.362-0.114-0.799,2.155-2.269,1.361c-0.569-0.681,0-1.817-0.912-2.155c-0.338-1.475,1.479-1.25,2.043-2.269
		c0.455,0,0.792,0.451,0.681,0.907C83.423,38.957,84.778,39.299,84.33,40.207z M79.793,39.862c-0.798,0.231-1.137-0.337-1.362-0.905
		c0-0.45,0.338-1.131,0.906-1.131c0.563-0.118,1.019,0.338,1.136,0.794C80.586,39.188,80.243,39.75,79.793,39.862z M78.543,32.04
		c-0.229,0.451-0.685,0.451-1.024,0.338c-0.68-1.587-0.562-3.405-1.131-4.991l-1.586-3.744l0.219-0.343
		C77.408,25.681,78.543,28.748,78.543,32.04z M77.408,25.342c0-0.568,0.229-1.136,0.793-1.361c0.682-0.225,1.362,0.457,1.593,0.906
		c0.107,0.794-0.342,1.362-1.023,1.48C78.088,26.367,77.519,26.024,77.408,25.342z M77.183,35.895
		c-0.456,1.362,1.699,1.475,0.675,2.724c-1.02,0.112-1.245,1.243-2.039,1.7c-0.569,0.224-1.137-0.338-1.361-0.794
		c0.456-1.249-1.586-1.249-0.905-2.499c1.017-0.45,1.586-1.244,2.492-1.812C76.613,35.214,77.183,35.439,77.183,35.895z
		 M90.002,41.342c0.112,0.794-0.112,1.813-0.906,2.157c-1.137-0.343-2.95,0-3.523-1.363c0.456-0.912-0.794-1.362-0.226-2.155
		c1.019,0,1.818-1.475,2.837-0.568c0.912,0.338,0.117,2.042,1.249,1.586c0.457-0.792-0.337-2.268,0.906-2.379
		c0.681,0.225,1.25,0,1.817,0C91.931,39.75,90.683,40.431,90.002,41.342z M92.496,35.214c0.23,0.793,0,1.587-0.676,2.155
		c-0.456,0.338-1.137,0.226-1.593-0.112c-0.681-0.569-0.794-1.707-0.337-2.499c0.225-0.338,0.679-0.45,1.018-0.682
		C91.701,33.853,92.156,34.646,92.496,35.214z M91.476,31.24c0.113,0.682,0,1.706-0.793,1.818c-0.68,0.113-1.137-0.456-1.361-1.019
		c-0.226-0.686,0-1.593,0.793-1.818C90.795,30.222,91.245,30.791,91.476,31.24z M87.616,26.137c0.456-0.907,1.706-0.456,2.042,0.457
		c0,0.45,0.12,0.906-0.225,1.361c-0.23,0.45-0.906,0.338-1.249,0.112C87.503,27.723,87.278,26.817,87.616,26.137z M85.573,21.939
		c0.573,0,1.367,0.456,1.48,1.024c0.112,0.68-0.113,1.244-0.687,1.362c-0.676,0-1.355-0.344-1.588-0.912
		C84.442,22.731,84.897,22.051,85.573,21.939z M84.33,24.663c0.682,0.343,1.473,1.018,1.586,1.817H85.69
		c1.131,0.337,1.587,2.156,2.155,3.286c0.908,2.499,1.137,5.448,0.795,8.171c-0.339,0.45-0.906,0.682-1.363,0.338
		c0.338-4.761-0.225-9.871-2.948-13.389V24.663z M82.173,19.333c0.68-0.119,1.357,0.337,1.701,1.018
		c0.111,0.457-0.113,1.138-0.681,1.25c-0.906,0.338-1.587-0.344-1.813-1.025C81.38,20.008,81.605,19.446,82.173,19.333z
		 M80.586,22.963c3.062,1.7,4.648,4.88,5.33,8.165c-0.113,0.456-0.569,0.456-0.905,0.226c-1.363-1.356-1.701-3.399-2.838-4.987
		C81.718,25.23,80.132,24.207,80.586,22.963z M81.149,27.611c0.23,0.793-0.338,1.705-1.13,1.705
		c-0.568-0.112-1.137-0.456-1.25-1.023c-0.338-0.682,0.226-1.25,0.792-1.476C80.243,26.817,80.811,27.043,81.149,27.611z
		 M77.975,17.402c0.908-0.23,1.7,0.338,1.926,1.018c0.119,0.682-0.45,1.138-1.019,1.25c-0.682,0-1.475-0.225-1.587-1.018
		C77.063,18.083,77.519,17.627,77.975,17.402z M76.613,21.032c0.57-0.113,1.137,0.337,1.245,0.907
		c0.23,0.681-0.221,1.361-0.901,1.593c-0.569,0-1.137-0.345-1.362-0.912C75.363,21.939,75.932,21.146,76.613,21.032z M74.003,16.497
		c0.567-0.231,1.136,0.225,1.247,0.675c0,0.343-0.23,0.687-0.568,0.687c-0.456,0.113-1.018,0-1.249-0.456
		C73.322,16.947,73.665,16.609,74.003,16.497z M73.665,19.446c0.562-0.231,1.137,0.337,1.137,0.792c0,0.458-0.231,0.794-0.575,0.908
		c-0.562,0.224-1.018-0.113-1.13-0.681C73.097,20.127,73.209,19.67,73.665,19.446z M74.003,24.774
		c0.567,1.137,1.247,2.156,1.247,3.404c-1.024,0.682-2.154-0.224-3.173-0.567l-0.687-0.906l-0.907-4.88
		c0.226-0.456,0.682-0.337,1.025-0.225L74.003,24.774z M71.391,16.379c0.118,0.343-0.338,0.568-0.681,0.456
		c-0.226,0-0.449-0.337-0.449-0.569C70.372,15.698,71.509,15.585,71.391,16.379z M70.71,17.972c0.456-0.113,0.911,0.225,1.025,0.563
		c0.112,0.455,0,0.911-0.45,1.136c-0.575,0.112-1.023-0.225-1.137-0.681C70.035,18.535,70.372,18.083,70.71,17.972z M69.236,21.939
		c0.912,3.291,1.593,6.922,1.025,10.552c-0.345,0.342-0.914,0.567-1.251,0.224c-0.342-2.268,0-4.992-0.342-7.373l-0.795-5.104
		C68.898,19.67,68.898,21.37,69.236,21.939z M67.647,12.98c0.457,0,0.908,0.45,1.021,0.792c0.23,0.45-0.113,0.681-0.451,0.681
		c-0.456,0-0.906-0.455-0.906-0.793C67.199,13.317,67.424,13.092,67.647,12.98z M61.864,8.212c-0.112-0.568,0-1.362,0.681-1.362
		c1.7,0,0.569-3.173,2.725-2.269l0.561,0.908c-0.449,1.817,3.067,1.137,1.48,3.173c-0.798,0.343-1.593,0.799-1.816,1.706
		c-0.456,0.338-0.906,0.338-1.362,0.113c-0.456-0.338-0.568-0.793-0.681-1.25C62.884,9.005,61.978,9.005,61.864,8.212z
		 M63.227,14.453c1.019-0.793-0.112-3.292,1.93-2.836c0.793,1.02,0.226,2.493,1.468,3.406c0.575,0.449,1.818,0.449,1.818,1.474
		c0,0.45-0.226,0.905-0.682,1.018c-1.699,0.457-1.93-2.156-3.516-1.7c-0.68,0.794-1.361,1.7-2.381,1.7
		c-0.456,0-1.024-0.343-1.024-0.793C60.84,15.134,62.659,15.698,63.227,14.453z M61.527,12.98c0.225,0,0.563,0.112,0.563,0.337
		c0.112,0.568-0.338,0.906-0.682,1.018c-0.337,0-0.681,0-0.681-0.337C60.727,13.542,61.071,13.092,61.527,12.98z M61.071,20.008
		c0.225-0.112,0.456,0.119,0.456,0.343c-0.913,3.855-1.367,8.054-1.25,12.14c-0.231,0.342-0.681,0.455-1.024,0.224
		c-0.906-1.7-0.338-3.967-0.227-5.898C59.366,24.438,59.708,21.939,61.071,20.008z M58.46,15.698
		c0.343-0.112,0.567,0.229,0.681,0.456c0,0.455-0.456,0.568-0.681,0.568c-0.34,0-0.569-0.225-0.569-0.568
		C57.891,15.815,58.235,15.698,58.46,15.698z M58.121,17.858c0.564-0.118,1.021,0.338,1.021,0.794c0,0.337-0.114,0.681-0.456,0.906
		c-0.564,0.112-1.018-0.112-1.244-0.682C57.555,18.535,57.667,17.972,58.121,17.858z M58.573,21.37l0.23,0.343
		c-1.023,2.156,0.337,6.01-3.067,6.354c-0.453,0.112-1.131,0.338-1.7,0c-0.23-1.25,0.681-2.499,1.363-3.742
		C56.191,23.3,57.099,21.601,58.573,21.37z M56.191,20.127c0.113,0.449-0.343,0.792-0.792,0.905
		c-0.456,0.113-0.909-0.337-1.025-0.794c0.116-0.455,0.456-0.904,0.91-1.023C55.736,19.214,56.191,19.67,56.191,20.127z
		 M54.605,16.379c0.563-0.113,1.131-0.113,1.243,0.456c0,0.456-0.223,0.906-0.68,0.906c-0.45,0.118-0.906,0-1.131-0.338
		C53.922,16.947,54.262,16.497,54.605,16.379z M54.374,23.187c-0.337,1.476-1.363,2.725-1.699,4.2l-0.906,4.535
		c-0.231,0.343-0.799,0.456-1.137,0.118C50.292,28.636,51.881,25.342,54.374,23.187z M53.693,21.939
		c0.113,0.681-0.45,1.248-1.018,1.361c-0.682,0.113-1.363-0.456-1.474-1.131c0-0.568,0.452-1.25,1.018-1.361
		C53.011,20.695,53.581,21.257,53.693,21.939z M50.407,17.172c0.563,0,1.474,0,1.586,0.8c0.114,0.681-0.456,1.243-1.023,1.474
		c-0.563,0.112-1.474-0.112-1.7-0.793C49.157,17.858,49.838,17.402,50.407,17.172z M50.407,23.756c0.563,0,1.247,0.338,1.362,0.906
		c0.112,0.793-0.457,1.474-1.137,1.586c-0.568-0.112-1.136-0.45-1.362-1.019C49.157,24.55,49.726,23.869,50.407,23.756z
		 M50.407,27.387c0.225,0.68-0.343,1.474-0.911,1.586c-0.679,0.231-1.363-0.225-1.587-0.794c-0.112-0.679,0.456-1.585,1.137-1.585
		C49.611,26.48,50.176,26.93,50.407,27.387z M46.433,19.103c0.568-0.226,1.138,0.112,1.363,0.68
		c0.112,0.793-0.569,1.363-1.137,1.587c-0.564,0.119-1.247-0.112-1.476-0.674C44.959,19.896,45.753,19.333,46.433,19.103z
		 M48.249,22.62c0.34,0,0.568,0.343,0.452,0.567c-1.586,2.494-3.173,5.106-4.535,7.604c-0.228,0.337-0.568,0.337-0.793,0.337
		l-0.343-0.337C43.709,27.611,45.412,24.55,48.249,22.62z M42.917,21.601c0.567-0.112,1.361,0.225,1.474,0.906
		c0,0.68-0.568,1.362-1.13,1.474c-0.569,0.113-1.138-0.225-1.25-0.794C41.898,22.507,42.235,21.826,42.917,21.601z M44.504,24.325
		h0.23c-2.724,3.742-3.517,8.509-2.952,13.271c-0.115,0.568-1.021,0.568-1.359,0.342l-0.343-0.68
		C39.968,32.378,40.761,27.611,44.504,24.325z M39.968,25.342c0.68-0.225,1.475,0.226,1.586,0.907
		c0.113,0.794-0.569,1.594-1.245,1.706c-0.685,0-1.023-0.568-1.135-1.024C39.174,26.249,39.399,25.799,39.968,25.342z
		 M38.265,29.879c0.566-0.113,1.247,0.231,1.359,0.799c0.115,0.676-0.112,1.587-0.906,1.925c-0.567,0.112-1.246-0.112-1.361-0.681
		C37.244,31.128,37.472,30.222,38.265,29.879z M36.451,34.533c0.224-0.342,0.453-0.68,0.906-0.793
		c0.681-0.112,1.474,0.226,1.705,0.907c0.338,0.568,0.113,1.361-0.115,1.818c-0.454,0.562-1.248,1.018-1.928,0.562
		C36.338,36.464,36.109,35.327,36.451,34.533z"/>
	<path fill="#E0C694" d="M35.656,108.278c1.248-0.681,0.907-2.267,0.794-3.405c-0.226-0.681-0.681-1.475-1.474-1.25
		c-1.137,0.794-1.137,2.268-0.793,3.517C34.408,107.71,34.864,108.502,35.656,108.278z"/>
	<path fill="#E0C694" d="M106.338,108.959c0.569-0.793,0.456-2.042,0.338-3.067c-0.226-0.563-0.795-1.474-1.586-1.244
		c-0.569,0.337-1.02,0.907-1.02,1.587c-0.231,1.137,0,2.155,0.68,3.061C105.202,109.64,106.001,109.409,106.338,108.959z"/>
	<path fill="#E0C694" d="M29.079,144.014c-0.799-2.268-1.818-4.535-2.274-7.147c-0.338,0.113-0.678,0.113-0.906,0.344
		c-4.767,1.245-9.759-0.117-12.932-4.085c-2.611-3.749-3.517-9.303-1.703-13.727c3.745-8.283,12.592-11.345,20.651-12.711
		l0.226-0.226c-0.112-0.338-0.112-0.906-0.681-0.906c-9.19,0.906-19.062,6.011-22.466,15.313
		c-2.721,6.359-0.681,13.957,3.518,19.061C16.597,144.469,23.174,146.058,29.079,144.014z"/>
	<path fill="#E0C694" d="M109.513,107.935c3.179,0.568,6.129,1.706,8.396,4.2c2.949,3.516,4.199,8.396,2.724,12.818
		c-0.23,0.795-0.792,1.476-0.906,2.156c0.906,0.568,2.492,0.568,3.405-0.112c0.906-0.456,1.132-2.606,2.38-1.588
		c0.564,2.724-0.111,5.562-0.792,7.943c-1.701,4.765-6.579,8.738-11.577,9.414c-5.672,0.681-10.777-1.243-14.519-5.554
		c-0.225,0.111-0.569,0.111-0.456,0.449c2.724,3.749,6.696,5.786,11.119,6.128c5.787,0.569,10.896-1.93,14.409-6.577
		c3.628-4.768,3.628-12.258,1.479-17.701c-2.043-6.696-9.196-11.576-15.774-12.481C109.401,107.372,109.175,107.822,109.513,107.935
		z"/>
	<path fill="#E0C694" d="M125.856,178.393c-0.569-3.404-4.317-5.785-3.182-9.757c0.114-0.682,0.795-1.362,1.021-2.043
		c-1.813-0.226-2.494,2.043-4.081,2.155c-4.542-3.292-11.465-5.335-16.569-1.929c-4.084,2.611-6.354,6.922-5.898,11.688
		c0.226,4.423,3.064,9.078,7.487,10.321c2.61,0.801,5.448,0.231,7.49-1.474c2.268-1.925,3.292-4.649,2.605-7.483
		c-0.107-0.231-0.45-0.114-0.562-0.114c0.112,2.492-0.569,4.88-2.382,6.691c-1.817,1.699-4.541,2.044-6.808,1.475
		c-3.629-1.586-6.922-5.104-6.578-9.415c0.226-1.249-0.114-2.949,1.131-3.86c0.911,0.912,1.817,2.156,3.06,2.273
		c-0.336-0.794-0.45-1.705-0.45-2.61c0-2.612,1.474-4.992,3.741-6.354c2.725-1.705,7.035-1.705,9.984-0.338
		c1.024,0.563,2.387,1.131,2.838,2.269c0.112,1.13-1.246,0.906-1.701,1.586c-0.568,0.681-1.137,1.475-0.681,2.269
		c0.45-0.682,1.136-1.363,1.931-1.474c1.587-0.114,2.723,0.566,3.855,1.587c4.878,5.221,4.878,14.412,1.929,20.535
		c-2.61,5.896-8.621,10.777-15.201,10.895c-0.573,0-0.343,0.562-0.343,0.906c5.331,0.226,9.646-2.269,13.158-6.24
		C126.649,194.274,128.461,185.766,125.856,178.393z"/>
	<path fill="#E0C694" d="M6.156,193.143c-2.835-5.108-2.948-12.481,0.115-17.474c1.247-2.268,3.177-5.216,6.125-5.334
		c1.251,0.342,2.499,1.249,3.062,2.386c0.456-0.456,0.456-1.137,0.682-1.707c0.456-0.793-0.338-1.812,0.456-2.493
		c2.268,0,4.992-0.456,6.694,1.587c1.134,1.137,1.358,2.723,1.358,4.422c1.25-0.679,2.271-1.924,3.747-1.474
		c1.362,1.587,1.927,3.629,2.27,5.673c0.112,3.179-0.569,6.24-3.292,8.171c-2.268,1.812-6.125,1.812-8.622,0.45
		c-1.249-0.562-2.269-1.813-2.379-3.173c-0.231-1.476,0.224-2.837,1.474-3.861c1.019-0.794,2.492-1.357,3.967-0.794
		c0.91-0.113,1.705,2.155,2.499,0.681c-1.021-1.245-2.499-1.813-4.086-1.7c-1.587,0.112-3.062,0.906-3.969,2.268
		c-0.797,1.137-1.022,2.837-0.681,4.198c0.454,1.363,1.589,2.724,2.952,3.293c2.492,1.474,6.579,1.474,8.958-0.344
		c3.746-2.268,4.655-6.803,3.861-11.002c-0.793-3.179-3.067-6.697-6.354-7.834c-2.499-1.586-5.785-1.699-8.852-1.468
		c-0.793-0.568-0.906-1.705-1.928-2.161c0,2.956-3.177,3.518-5.104,5.222c-4.879,4.536-7.263,11.121-5.558,17.925
		c1.359,7.146,8.165,13.613,14.861,15.769c0.452,0.118,0.452-0.451,0.452-0.793C13.871,202.104,8.767,198.018,6.156,193.143z"/>
	<path fill="#E0C694" d="M73.098,165.574c-0.339,0.226-0.914,0.338-1.021,0.793c0.107,3.174,1.357,6.01,2.15,9.077
		c2.161,5.786,4.087,12.028,8.172,16.9c-3.855-7.939-6.578-16.448-7.941-25.409C74.346,166.248,73.89,165.456,73.098,165.574z"/>
	<path fill="#E0C694" d="M50.063,166.592c-0.568,0.112-0.906,0.681-0.906,1.249c2.156,7.717,3.517,17.812-0.341,25.186
		c4.653-6.354,3.746-16.677,2.269-24.616C50.856,167.729,50.856,166.818,50.063,166.592z"/>
	<path fill="#E0C694" d="M100.892,204.94c-2.949-0.569-5.786-1.362-8.166-3.175c-1.363-1.136-3.069-2.273-3.743-3.86
		c0.905-2.269,1.468-4.648,2.036-7.034c1.818-15.201-4.081-28.477-14.519-39.141c-1.481-12.708,0.681-25.071,8.166-34.604
		c0.231-0.113,0.568-0.338,0.8,0.112c1.924,5.674,4.536,12.026,10.544,15.206l0.907,2.494c1.706,0.113-0.337-1.475,0.687-1.924
		c3.287,1.019,7.26,0.794,10.095-0.799l-0.342-6.916c-2.381,1.362-5.104,2.266-8.166,1.811c-0.456,0-1.023-0.224-0.793-0.792
		c1.018-2.27,3.517-3.968,6.01-4.081c3.061-0.119,5.785,1.356,7.146,3.855c0.231,0,0.569-0.112,0.569-0.342
		c-1.7-3.062-4.879-4.762-8.396-4.311c-2.836,0.23-5.443,2.385-6.467,4.992l-0.681,0.111c-4.992-1.587-8.51-6.69-9.984-11.344
		c3.973-4.649,9.303-6.804,15.318-7.142c0-0.343,0-0.568-0.231-0.799c-6.123,0-11.002,2.955-15.769,6.24
		c-2.384-5.216-3.287-11.114-6.578-15.993l0.224-0.231c3.63-1.019,7.261-3.743,9.422-7.26c2.38-3.629,2.947-9.188,1.019-13.274
		l-2.612-3.856c-9.871-10.551-27.343-10.439-39.708-5.448c-6.24,2.499-12.139,8.853-12.37,15.769c0,5.56,2.725,10.326,7.378,13.506
		c0.906,0.563,1.812,1.356,2.836,1.13l1.699-6.24c-0.112-0.338-0.568-0.45-0.792-0.562c-3.63-2.044-5.787-6.016-5.105-10.328
		c0.226-5.329,4.424-10.321,9.302-12.364c7.831-3.179,19.404-4.085,26.889,0.563c5.903,3.517,9.302,9.87,8.052,16.792
		c-0.906,4.087-3.854,8.622-8.165,9.759c-3.518-2.268-7.716-4.086-12.138-3.066c-0.793,0.343-1.362,1.249-1.138,2.043
		c2.041,3.179,5.785,3.403,9.189,3.741c1.362,0.231,2.723-0.225,3.973-0.112c4.086,5.448,2.724,13.845,0.795,19.741l0.111,0.226
		c1.137-0.675,1.699-1.812,2.493-2.835c1.25-1.469,1.705-3.511,2.838-4.874c0.573,1.363,0.91,2.949,1.135,4.536
		c-8.959,8.622-13.838,19.061-16.112,30.519l-0.337,0.342c-2.947-1.474-6.128-2.61-9.189-3.629l1.02-2.161
		c3.86-6.916,3.629-17.13-1.586-23.366l0.904-3.404l0.456-0.343c2.042-0.794,2.498-3.062,2.498-5.105l1.469-0.793
		c0.688-0.907,0.688-2.156,0.799-3.405c-1.023-5.674-6.354-9.641-7.945-15.201c-1.36-3.629-2.836-9.189,0.342-12.594
		c1.819-1.699,3.968-3.292,6.692-2.724c1.479,0.231,2.041,1.7,2.722,2.836c0.57,0.682,1.363,1.25,2.269,0.907
		c0.68-0.338,1.024-1.132,1.024-1.925c-0.344-1.25-1.7-2.044-2.837-2.5c-2.834-0.68-6.015-0.568-8.282,1.137
		c-4.991,3.405-6.691,8.847-6.919,14.52c-0.116,8.172,2.721,15.088,2.721,23.147l-0.337,0.451
		c-4.655-3.287-9.872-5.555-15.431-5.899c0,0.344-0.113,0.794,0.112,1.019c1.362,0.343,2.837,0.457,4.199,0.912
		c3.973,1.924,8.285,4.649,10.776,8.622c-0.224,6.579-6.01,12.932-12.026,15.318c-1.131,0.114-2.606,0.795-3.629-0.117
		c-0.113-3.4,0.908-6.917,4.086-8.509c1.814-1.132,2.724,1.817,4.198,0.456c0.113-0.338,0.337-0.794,0.113-1.132
		c-1.475-1.367-3.63-0.798-5.105,0c-3.179,1.925-4.766,5.217-5.334,8.622l-0.451,0.451c-3.179-1.363-3.63-4.878-3.63-8.054
		c-1.137,0.569-2.273,1.25-3.519,1.818c0.796,2.156,2.042,4.424,4.198,5.785c1.021,0.681,2.272,1.02,3.064,1.7
		c-0.792,10.665,3.854,19.63,7.372,28.708c1.362,2.718,1.25,6.803-1.018,9.071c1.018,0,1.699-0.906,2.609-1.251l0.34,0.345
		c1.136,4.311,2.155,8.622,2.267,13.275l-3.403,2.836c-3.855,3.742-5.105,8.848-3.968,14.069c-3.518,3.286-7.828,4.649-12.482,5.105
		c-0.112,0.336-0.225,1.018,0.111,1.244c4.992,0.118,9.76-0.338,13.732-2.606c1.359,1.931,2.381,3.974,4.311,5.561
		c3.289,2.718,7.035,4.88,11.002,5.673c0.114-0.231,0.344-0.681,0.114-0.912c-5.673-1.475-11.572-5.104-14.182-10.777
		c3.066-2.492,6.584-5.104,8.74-8.507c2.72-3.406,3.517-7.717,4.879-11.685c1.246,0.225,2.381,0.339,3.404,0.907
		c2.604,1.136,4.647,3.86,5.104,6.466c0.682,3.292-0.225,6.354-2.386,8.74c-1.925,1.924-4.648,2.606-7.259,2.038
		c-1.25,0.118-2.381-2.381-3.062-0.681c0.112,0.342,0.566,0.342,0.793,0.681c2.269,1.361,5.673,1.592,8.052,0.118
		c3.973-2.499,5.446-6.923,4.769-11.463c-0.682-2.949-3.406-5.898-6.242-7.035c-1.02-0.451-2.269-0.562-3.173-1.019
		c0.562-6.011-0.344-11.682-1.931-16.905l0.224-0.451c1.138-0.343,2.611-0.231,3.63-0.911
		c-11.909-5.673-16.337-18.381-19.739-29.608l0.115-0.798c6.804-0.449,12.705-4.649,16.79-10.434
		c0.229-0.232,0.455-0.456,0.795-0.113c0.678,4.761-1.247,9.302-4.764,12.476c0.567,0.568,1.474,0.113,2.155,0.113
		c3.287-0.569,5.785-3.743,6.921-6.579l0.338-0.113c0.456,4.993-0.794,9.753-3.405,13.726c-1.928,0.114-4.311-0.337-6.126,0.457
		c-2.039,0.681-4.989,1.699-5.331,4.31c0.228,0.681,0.905,1.02,1.587,1.137c3.86,0.226,7.149-0.912,9.87-3.517
		c2.611,0.562,4.878,1.812,7.153,3.175c1.243,0.794,2.835,1.474,3.509,2.949c-1.36,5.785,1.025,12.932-2.947,17.586
		c1.022,0.112,2.042-0.569,2.947-0.114c2.612,11.458,7.147,22.124,16.569,30.745l-0.337,1.476
		c-2.274,6.695-8.74,13.843-16.232,14.406v0.799c8.06-1.249,15.438-6.922,19.63-14.07c4.086,2.611,8.508,4.424,13.501,4.992
		C101.004,205.733,101.348,205.283,100.892,204.94z M41.667,75.604c-1.699,4.086-2.043,10.096,0.794,13.727l3.292,3.062
		c-0.341,1.249-0.682,2.498-1.25,3.517c-4.648-2.606-8.28-7.372-8.054-12.819c0.113-6.236,5.104-12.026,10.665-14.182
		C45.184,70.837,42.917,73.105,41.667,75.604z M75.251,96.14c-3.286,1.018-7.94,1.243-10.095-1.705
		c-0.23-0.682,0.45-1.132,0.906-1.363c3.398-0.225,6.922,0.23,9.303,2.724L75.251,96.14z M84.667,90.237
		c2.725-4.311,2.386-10.777-0.112-15.088c-1.586-2.949-4.311-5.334-7.034-7.372v-0.456c6.011,1.699,12.369,7.372,12.932,14.069
		c0.118,5.216-2.381,9.758-6.578,12.819c-1.587,0.794-3.18,1.587-4.768,1.931C81.037,94.547,83.423,92.735,84.667,90.237z
		 M46.659,184.636c0.568,0.337,0.231,1.243,0.343,2.036c-0.343,4.542-2.267,8.509-5.673,11.577
		c-0.793-0.231-0.793-1.363-0.905-2.156C40.308,191.326,42.461,187.015,46.659,184.636z M54.605,170.565
		c1.924,11.233-0.568,22.347-10.215,29.27c-2.836,2.269-6.125,3.743-9.755,4.424c5.901-2.607,11.911-8.397,13.161-14.977
		c1.7-7.371-0.455-14.637-2.042-21.216c1.136-1.474,2.042-3.062,2.495-4.879l0.341-0.226l3.973,1.02
		C53.693,165.912,54.037,168.292,54.605,170.565z M40.424,148.324c3.514,5.448,8.958,10.44,14.182,14.182
		c-0.684,0.682-1.931,0.231-2.952,0.231c-1.59-0.456-3.177-1.024-4.539-2.388c0.112,2.269,0,4.88-1.931,6.467
		c-0.336-1.018-0.224-2.38-0.449-3.517c-1.931-6.917-5.789-13.158-7.035-20.305C38.718,144.583,39.399,146.625,40.424,148.324z
		 M51.653,125.071c1.135-2.043,2.04-4.316,2.952-6.584c0.564,0.231,0.564,1.137,0.793,1.706
		C54.49,121.893,53.244,123.704,51.653,125.071z M57.667,114.857c-1.024-0.456-1.586-1.363-2.269-2.155
		c0.566-8.853-3.404-15.995-2.499-24.734c0.907,1.819,1.59,4.086,2.499,6.016c1.928,5.442,7.941,10.209,5.105,16.788
		c-0.342,0.569-1.019,0.569-1.475,0.231c-0.681-0.793-0.566-1.931-0.681-2.949C56.081,109.978,59.141,112.59,57.667,114.857z
		 M52.9,146.057c-1.815,0.681-4.083,1.249-6.01,0.681c-0.343-0.343-0.115-0.793,0-1.02c2.268-1.929,5.443-2.835,8.394-1.929
		C55.169,144.926,53.693,145.489,52.9,146.057z M67.992,165.456h-0.119c0.794-8.279,0-17.131,2.837-24.616l0.23-0.231l0.114,0.231
		v4.537c0.567-1.475,0.567-3.63,1.587-5.105l0.343,1.701c0.45-0.906,0.793-2.157,1.244-3.288l0.911-1.474l0.337,0.336
		c-0.674,7.941-0.337,16.225,1.818,23.484c-0.112,0.456-0.456,1.025-1.024,1.025c-1.356,0.337-2.15-1.137-2.718-2.043
		c-0.911-1.25-1.025-2.837-1.706-4.197C70.829,159.107,70.94,163.075,67.992,165.456z M84.779,197.112
		c-8.167-7.035-12.363-16.338-14.976-26.096c-0.112-1.586-1.25-3.061-0.568-4.768c1.593-1.467,2.049-3.398,2.842-5.216
		c1.475,1.025,2.724,2.724,4.423,3.18l0.457,0.794c1.474,10.552,3.516,20.986,8.509,30.175L84.779,197.112z M85.916,192.912
		c-0.449,0.231-0.681-0.449-0.904-0.68c-3.974-8.396-6.016-17.812-6.922-27.451c0.568-0.343,1.473-0.119,2.042-0.231
		C84.779,172.833,87.503,182.704,85.916,192.912z M88.302,199.949l0.108-0.339c0.574,0.113,1.137,0.905,1.247,1.245
		C89.096,200.741,88.641,200.404,88.302,199.949z"/>
	<path fill="#E0C694" d="M22.157,203.352c-0.682,0.338-1.476,0.907-1.476,1.699c-0.112,1.025,0.451,1.819,1.246,2.387
		c0.911,0.225,2.04,0.114,2.722-0.682c0.232-0.68,0.569-1.474,0.115-2.155C24.423,203.464,23.175,203.122,22.157,203.352z"/>
	<path fill="#E0C694" d="M103.84,203.808c-1.018,0.338-1.474,1.357-1.361,2.493c0.229,0.682,0.799,1.362,1.479,1.587
		c0.906,0.343,1.812,0,2.38-0.681c0.456-0.563,0.68-1.362,0.338-2.042C106.338,204.034,104.977,203.464,103.84,203.808z"/>
	<path fill="#E0C694" d="M60.954,212.88c-0.676,0.568-0.906,1.363-0.906,2.156c0.112,0.682,0.68,1.474,1.479,1.705
		c0.906,0.338,1.813,0,2.381-0.68c0.336-0.569,0.681-1.362,0.336-2.043C63.789,212.655,62.09,212.088,60.954,212.88z"/>
</g>
</svg>
