<?xml version="1.0" encoding="UTF-8"?>
<!-- Generator: Adobe Illustrator 27.4.1, SVG Export Plug-In . SVG Version: 6.00 Build 0)  -->
<svg xmlns="http://www.w3.org/2000/svg" xmlns:xlink="http://www.w3.org/1999/xlink" version="1.1" id="Ebene_1" x="0px" y="0px" viewBox="0 0 415.1 267.6" style="enable-background:new 0 0 415.1 267.6;" xml:space="preserve">
<style type="text/css">
	.st0{fill:#FFFFFF;}
</style>
<g>
	<path class="st0" d="M27.2,232.7c0,4.9,1.5,9.1,4.4,12.5c3.1,3.6,7,5.4,11.9,5.4c6.8,0,11.6-2.8,14.4-8.5l1.4,2.2   c-0.6,1.8-1.3,3.4-2,4.7l-0.6-0.1c-3.7,2.1-8.3,3.1-13.8,3.1c-6.1,0-11.1-1.6-15.1-4.9c-4.3-3.5-6.4-8.2-6.4-14.2   c0-5.9,2.2-10.6,6.7-14.2c4.1-3.3,9.2-5,15.3-5c4.8,0,9.4,1.2,13.7,3.6l0.6-0.2h0.5l-0.5,6.8c-0.2,0.2-0.3,0.2-0.4,0.2   c-0.2,0-0.4-0.1-0.6-0.3c-2.2-5.8-6.6-8.7-13.4-8.7c-5.2,0-9.2,1.7-12,5C28.6,223.3,27.2,227.5,27.2,232.7"></path>
	<path class="st0" d="M73.2,221.9v22.6c0,1.8,0.3,3,0.8,3.6c0.6,0.8,1.8,1.2,3.5,1.2h5c5.7,0,9.7-1.7,12.1-5.1l0.8-1.2   c0.1-0.1,0.2-0.1,0.3-0.1l0.2,0.1c0.2,0,0.3,0.2,0.3,0.3l-3.5,7.7l-29,0.1l-0.3-0.4l0.2-0.4c1.9-0.2,3.2-0.9,3.9-2   c0.6-0.9,0.9-2.3,0.9-4.4v-22.1c0-2-0.2-3.4-0.6-4.2c-0.6-1.2-1.7-1.9-3.5-2.1l-0.2-0.4l0.3-0.4h13.6l0.3,0.4l-0.2,0.4   c-2,0.2-3.3,0.8-4,1.8C73.5,218.3,73.2,219.8,73.2,221.9"></path>
	<path class="st0" d="M134.6,236.6v-13.2c0-2.4-0.2-4.1-0.7-5.2c-0.7-1.5-2.1-2.4-4.2-2.6l-0.2-0.4l0.4-0.4h11.6l0.4,0.4l-0.2,0.4   c-2.1,0.3-3.4,1.2-4.1,2.6c-0.4,1-0.6,2.7-0.6,5.2v12.8c0,10.6-5.6,15.8-16.9,15.8c-11.4,0-17.2-4.7-17.2-14v-16.1   c0-2-0.2-3.4-0.5-4.1c-0.6-1.2-1.7-1.9-3.3-2.2l-0.2-0.4l0.3-0.4h12.8l0.3,0.4l-0.2,0.4c-1.8,0.3-3,1-3.6,2.1   c-0.5,0.8-0.7,2.2-0.7,4.3v15.3c0,4,1.2,7,3.5,9.3c2.3,2.2,5.5,3.3,9.5,3.3C130,249.8,134.6,245.4,134.6,236.6"></path>
	<path class="st0" d="M165.5,251.2h-21.7l-0.4-0.4l0.3-0.4c2.1-0.2,3.6-0.8,4.4-1.7c0.8-0.9,1.2-2.5,1.2-4.6v-22.1   c0-2-0.3-3.5-0.9-4.4c-0.7-1-2.1-1.7-4-1.9l-0.2-0.4l0.3-0.4l7.2-0.3l9.1-0.1c11.2-0.1,16.7,2.8,16.7,8.7c0,2.1-1,3.9-3,5.4   c-1.6,1.2-3.6,1.9-6,2.4c7.7,1.4,11.6,4.6,11.6,9.4c0,3.8-1.6,6.6-4.7,8.5C172.8,250.4,169.5,251.2,165.5,251.2 M154.1,230.4h8.3   c6.4,0,9.6-2.4,9.6-7.1c0-5.1-3.6-7.6-10.7-7.5h-7.2V230.4z M154.1,231.7v11.9c0,2.7,0.7,4.5,2.2,5.3c0.9,0.5,2.9,0.7,6,0.7   c8,0,12-2.9,12-8.8c0-3.2-1.3-5.6-3.9-7.2c-2.1-1.3-4.9-2-8.3-2H154.1z"></path>
	<path class="st0" d="M206.1,230.4c-1.7,2-3.6,3.1-5.7,3.1c-2,0-3.7-0.7-5-2.1c-1.3-1.4-2-3.1-2-5.2c0-2.4,0.8-4.3,2.3-5.8   c1.5-1.5,3.5-2.3,5.8-2.3c1.6,0,3.2,0.5,4.6,1.6v-5.2c0-0.7-0.1-1.2-0.2-1.5c-0.2-0.4-0.6-0.7-1.1-0.8l-0.7-0.1l-0.1-0.3l0.1-0.1   l3.9-1.1h0.3v17.8c0,2,0.4,3.2,1.1,3.6l0.9-0.1c0,0.2-0.1,0.4-0.3,0.5l-3.7,0.9L206.1,230.4z M206.1,227.7v-4   c-0.2-1.4-0.7-2.6-1.5-3.5c-0.9-0.9-2.1-1.4-3.5-1.4c-1.7,0-3,0.7-3.9,2.1c-0.8,1.2-1.2,2.7-1.2,4.5c0,1.7,0.4,3.2,1.2,4.5   c0.9,1.5,2.2,2.3,3.9,2.3c1.3,0,2.4-0.5,3.5-1.4C205.6,230.1,206.1,229,206.1,227.7"></path>
	<path class="st0" d="M226.6,228.5c-0.5,1.5-1.5,2.7-2.8,3.6c-1.3,0.9-2.8,1.4-4.4,1.4c-2.1,0-3.8-0.8-5.2-2.3c-1.3-1.5-2-3.3-2-5.4   c0-2.2,0.7-4.1,2.2-5.5c1.4-1.5,3.3-2.2,5.5-2.2c1.5,0,2.9,0.5,4.3,1.5c1.4,1,2.2,2.2,2.4,3.7c0,0.3-0.5,0.5-1.6,0.5h-10.1   c0,0.3-0.1,0.8-0.1,1.4v0.3c0,2,0.5,3.6,1.5,4.8c1.1,1.3,2.5,2,4.5,2c1.2,0,2.3-0.4,3.3-1.1c1-0.7,1.7-1.6,2.1-2.7   c0.1,0,0.2-0.1,0.3,0C226.5,228.4,226.6,228.4,226.6,228.5 M215,223h8.7c-0.1-1.3-0.5-2.3-1.3-3c-0.7-0.8-1.7-1.1-3-1.1   C217.1,218.8,215.6,220.2,215,223"></path>
	<path class="st0" d="M259,251.2h-21.7l-0.4-0.4l0.3-0.4c2.1-0.2,3.6-0.8,4.4-1.7c0.8-0.9,1.2-2.5,1.2-4.6v-22.1   c0-2-0.3-3.5-0.9-4.4c-0.7-1-2.1-1.7-4-1.9l-0.2-0.4l0.3-0.4l7.2-0.3l9.1-0.1c11.2-0.1,16.7,2.8,16.7,8.7c0,2.1-1,3.9-3,5.4   c-1.6,1.2-3.6,1.9-6,2.4c7.7,1.4,11.6,4.6,11.6,9.4c0,3.8-1.6,6.6-4.7,8.5C266.4,250.4,263.1,251.2,259,251.2 M247.6,230.4h8.3   c6.4,0,9.6-2.4,9.6-7.1c0-5.1-3.6-7.6-10.7-7.5h-7.2V230.4z M247.6,231.7v11.9c0,2.7,0.7,4.5,2.2,5.3c0.9,0.5,2.9,0.7,6,0.7   c8,0,12-2.9,12-8.8c0-3.2-1.3-5.6-3.9-7.2c-2.1-1.3-4.9-2-8.3-2H247.6z"></path>
	<path class="st0" d="M318,250.4l0.1,0.4l-0.2,0.4h-13.7l-0.2-0.4l0.1-0.4c2.5-0.2,3.7-0.8,3.8-1.7l0.1-0.7c0-0.7-0.2-1.7-0.6-2.8   l-4.6-10.8h-13.1l-4,9.3c-0.7,1.7-1.1,3-1.1,3.8c0,1.6,1.4,2.6,4.1,3l0.1,0.4l-0.2,0.4H277l-0.2-0.4l0.1-0.4   c2.3-0.5,4.4-2.7,6.2-6.7l12.1-27.4l0.2-1.6l0.3-0.5c0.4-0.1,0.8-0.2,1.2-0.2h0.3c0.5,0,1.1,0.1,1.6,0.2l0.8,1.5l12.9,29.7   C314,248.5,315.8,250.2,318,250.4 M289.8,210.8l6.6-10.1h2.5l6.7,10.1l-0.9,0.5l-7-6.6l-7,6.6L289.8,210.8z M302,232.3l-5.8-13.2   l-5.8,13.2H302z"></path>
	<path class="st0" d="M329.9,221.9v22.6c0,1.8,0.3,3,0.8,3.6c0.6,0.8,1.8,1.2,3.5,1.2h4.9c5.7,0,9.7-1.7,12.1-5.1l0.8-1.2   c0.1-0.1,0.2-0.1,0.3-0.1l0.2,0.1c0.2,0,0.3,0.2,0.3,0.3l-3.5,7.7l-29,0.1l-0.3-0.4l0.2-0.4c1.9-0.2,3.2-0.9,3.9-2   c0.6-0.9,0.9-2.3,0.9-4.4v-22.1c0-2-0.2-3.4-0.6-4.2c-0.6-1.2-1.7-1.9-3.5-2.1l-0.2-0.4l0.3-0.4h13.6l0.3,0.4l-0.2,0.4   c-2,0.2-3.3,0.8-4,1.8C330.2,218.3,329.9,219.8,329.9,221.9"></path>
	<path class="st0" d="M354.9,251.2l-0.4-0.4l0.2-0.4c2.2-0.2,3.7-0.8,4.4-1.7c0.8-0.9,1.2-2.4,1.2-4.6v-22.1c0-2-0.2-3.5-0.7-4.3   c-0.6-1.1-1.8-1.8-3.6-2.1l-0.2-0.4l0.3-0.4h6.6h22.7l1.2,7.6c-0.1,0.1-0.2,0.2-0.4,0.2c-0.2,0-0.3,0-0.5-0.1l-0.2-0.3   c-1.3-3.8-4.4-5.6-9.3-5.6h-10.6c-0.4,0-0.6,0-0.6,0.1v14.5h8.7c4.5,0,7.1-1.4,7.9-4.1c0.2-0.2,0.3-0.2,0.5-0.3l0.5,0.1v10.6   l-0.9-0.2c-0.9-2.9-3.6-4.3-8-4.3h-8.7v11.6c0,1.8,0.3,3,0.8,3.6c0.6,0.8,1.8,1.2,3.5,1.2h7c5.8,0,9.7-2,11.7-6.1l0.2-0.3   c0.5,0,0.8,0.1,0.9,0.2l-1.6,7.9L354.9,251.2z"></path>
	<line class="st0" x1="13.2" y1="259.7" x2="400.7" y2="259.7"></line>
	<rect x="13.2" y="259.1" class="st0" width="387.5" height="1.3"></rect>
</g>
<path class="st0" d="M248.2,121.8c0,0-0.3,1,1.2,3.5c0.6,1,0.5,2.6,11.1,9.5c2.5,1.6,5.1,0.6,5.2,0.4s0.4-0.3-0.1-0.5  s-3.6-1.2-6.4-2.5s-6.2-2.6-8-4.9c7.6,1.9,7.9,1.1,9.8,2.2c1.9,1.1,4.4,3.7,6.1,4.3c0.9-1,1.3-5.6,0.1-9.4c-1.3-3.8-5.6-8.4-7-10  c-0.8-0.9-1.5-2.7-0.5-4.1c0.4-0.5,0.9-0.8,1.3-1.4s0.8-1.2,0.2-2.1s-1.7-1.4-2.5-2.2c-0.8-0.8,1-3.1,2.3-4.7c-2.4,0-3.5-0.1-4.3-1  c-1.3-1.2-0.8-2.6,0.4-4.8c-3.7,1.1-4.9,1.7-6.7,0.9c-1.8-0.9-1.4-4.1-1.2-7.8c-2.4,1.7-3.7,2.6-5.2,1.9c-1.4-0.7-1.8-4.8-0.7-6.7  c-3.2,1.1-4.8,1.1-6.3,0.3c0.9,1.8,1.9,3,3.8,2.8c0.1,2.5,0.6,4.5,1.9,5.5c0.5,0.4,2.4,1.5,4.4,0.1c-0.2,2.2-0.2,4.6,2,6.1  c1.7,1.2,3.7,0.3,5-0.3c-0.6,1.7-0.7,3.3,0.8,3.8c1.2,0.4,2.3,0.2,4.3-0.2c-2.3,1.9-3.2,3.8-3.2,3.8s3.2,1.1,3.9,1.7  c0.6,0.6,1.3,1.3,0.5,2.1c-0.8,0.8-1.9,1.1-2.6,3.3c-0.2,0.7-1.5,3.5-1.5,3.5c1.7,0.5,2.7,1.3,3.3,2.5c0.6,1.1,0.7,1.7,1.3,1.9  c0.6,0.2,2.8,1.4,3.8,2.6c0.7,0.9,1.6,2.6,2,5.1c0.4,2.5,0.1,5.2,0.1,5.2s-1.5-2.2-3-3.5c-1.5-1.3-3.5-2.9-5.5-3.6  C254.7,123.6,251,123.3,248.2,121.8z"></path>
<path class="st0" d="M283.8,27.9C283.8,27.9,283.8,27.9,283.8,27.9C283.8,27.9,283.8,27.9,283.8,27.9z"></path>
<path class="st0" d="M283.8,27.9C283.8,27.9,283.8,27.9,283.8,27.9C283.8,27.9,283.8,27.9,283.8,27.9z"></path>
<path class="st0" d="M283.8,27.9C283.8,27.9,283.8,27.9,283.8,27.9C283.8,27.9,283.8,27.9,283.8,27.9z"></path>
<path class="st0" d="M283.8,27.9C283.8,27.9,283.8,27.9,283.8,27.9C283.8,27.9,283.8,27.9,283.8,27.9z"></path>
<path class="st0" d="M283.8,27.8C283.8,27.8,283.8,27.8,283.8,27.8C283.8,27.8,283.8,27.8,283.8,27.8z"></path>
<path class="st0" d="M283.8,27.9C283.8,27.8,283.8,27.8,283.8,27.9C283.8,27.8,283.8,27.8,283.8,27.9z"></path>
<path class="st0" d="M283.8,27.8C283.8,27.8,283.8,27.8,283.8,27.8L283.8,27.8z"></path>
<path class="st0" d="M283.8,27.8C283.8,27.8,283.8,27.8,283.8,27.8C283.8,27.8,283.8,27.8,283.8,27.8z"></path>
<path class="st0" d="M220.5,116.3c-7.5,0.7-10.9,3.3-12.7,5.5c0,0-0.6-0.3-2.9-1.9c1.4-1.4,2.2-3.6,2.2-3.6  C213.3,115.7,215.1,115.2,220.5,116.3z M405.7,98.5c-18.1-7.5-27.8-8.9-35-8.7c-6.2,0.2-10.6,1.2-15.9,8.5  c-10-13.1-24.2-23.1-32-22.8c-4.9,0.2-7.8,2.8-9.5,7.5c-5.7-5-11.1-9.5-16.6-11.9c1.6,6.3,2.5,12.8,2.7,19.4  c0.7,23.8-8,46.5-24.3,63.8c-9.3,9.8-18.8,16.1-32.6,21.9s-30.2,10-43.4,8.3c-11.5-1.4-18.8-5.1-22.7-8.9  c-10.1-4.1-19.4-10.1-27.5-17.8c-17.3-16.4-27.2-38.5-27.9-62.4c-0.1-2.7,0-5.4,0.1-8.1c0,0,0,0,0,0c0.3-4.9-0.1-8.3-8.2-6.3  c-12.4,3.1-22.5,10.5-35.6,24.9c-5.6-5.1-9.7-8-19-7.5c-9.2,0.5-18,1.6-39.9,10.8C49.8,80.4,79,56.7,106.5,42.9  c14.1-7,27.3-10.5,39-11.5c16.4-17.2,38.4-27,62.1-27.7c23.8-0.7,46.5,8,63.8,24.3c0.5,0.5,1.1,1,1.6,1.5c2.5-0.6,5.1-1.2,7.9-1.8  c0.1,0.2,0.6,0.7,1.9,2.1c13.4-1.3,19.3-3.2,42.4,6.5C351.3,47.5,382.7,76.4,405.7,98.5z M147.6,31.2c10.7-0.7,20.1,0.5,27.9,2.6  c1.9-2.1,2.3-3.1,2.3-3.1c8.1,1.2,12.4,2.2,17.9,4.6c4.2,1.8,12.7,6.2,14.9,8.6c-1.9-3-6.6-6.2-8.9-7.7c4.6-3.2,8.9-4.5,8.9-4.5  c0.1,0.2,3.9,3,6.5,6.2c0,0,4.2-1.2,8.3-2.5c0,0,0,0,0,0c0,0,0,0,0,0c0,0,0,0,0,0c0,0,0,0,0,0c0,0,0,0.1,0,0.1  c0.2,0.9,0.4,2,0.6,3.1c0,0,0,0,0,0c0.6,3.3,1.2,7,1.2,9.8c2.5,0.3,6.9,0.8,8.2,1.1c-2.4,4.6-5.3,11.2-6.9,16.2  c2.9-5.9,9.3-14,12.1-17.8c-4.4-0.9-10.1-0.9-10.1-1.1c10.8-6.7,22.2-12,41.1-16.6c-0.3-0.3-0.6-0.6-1-0.9  c-16.4-15.5-37.8-24-60.3-24c-0.8,0-1.7,0-2.5,0C184.1,5.8,163,15.7,147.6,31.2z M124.2,79.9c6.6-6.2,15.4-9,19.7-9.3  c4.6-0.3,9.7-0.2,14.3,4.8c5.8-3.9,10.3-4.6,14.5-4.2c4.9,0.4,7.9,2.3,12.8,5.1c2.1-3,7.2-6.4,12.6-10.2c-2.5-3.2-4.1-2.9-8.1-4.6  c0.4-4.1-1.7-7.4-8.9-11.4c-6.8-3.8-14.2-5.6-24.8-7.9c0.4-1.9-0.1-2-2.2-2.2c-1.1-0.1-13.8,0.3-29.8,4.4  c-41,10.4-73.7,40-100.3,61.2C43.8,96.8,53.6,95.2,60.7,95c7.1-0.1,10.8,1.5,15.4,5.3c21.6-21.4,34.1-23.7,38.7-24.2  C119.5,75.7,121.8,76.8,124.2,79.9z M196.3,153.9c13.5-2.3,18.8-2.8,19.7-4.9c1-2.4-2.1-3.6-5.7-4.8c-4.8-1.5-20.4-6.5-32.1-10.4  c-0.4,0.4-1.3,1.5-2.5,1.9c-2.4,0.8-8.8-2.3-15.6-7.4c-8.2-6-23.9-20.8-21-25.5c1.3-2.1,2.8-3.1,7.3-3.5c1.4-9.6,3.7-15.3,9.3-21.3  c-2.9-3.5-6.5-4.7-11.1-4.6c-6.7,0.2-20.9,5.8-22.1,12.6c-0.2,3.1-0.3,6.2-0.2,9.4c0.7,23.5,10.4,45.3,27.5,61.4  c7.3,6.9,15.7,12.5,24.7,16.5c-1.1-1.6-1.6-3.2-1.5-4.5C173.2,160.2,182.9,156.1,196.3,153.9z M400.5,95  c-19-14.9-42.7-35.2-62.3-45.2c-12.4-6.3-34.1-16.9-56.4-8c-2.2-0.7-5.2-1.2-7.6-0.9c-3.5,5-9.1,10-12.8,13.1  c-3.8,3.1-6.9,4.9-9.8,5.7c-2.9,0.8-5.6,0.5-7.4-0.4c1.3,2.4,2.7,3.1,6.2,3.8c-7.9,5.1-13.2,6.5-21,17.8c-1.7-4.7-1.6-6.8-2-9.9  c0,0.1,0,0.1,0,0c-0.9,8.2-0.7,12.3,2.5,20c-5-1.8-6.9-5.8-8-11.7c-0.4,7.4,0.1,9.8,1.7,13c0.2,0.4,0.7,0.3,0.8-0.1l0.3-1.2  c0.1-0.3,0.4-0.4,0.7-0.2c3.3,2.9,4.7,3.1,7.9,4c-0.3-1.8-0.2-3.7,0.2-6.1c0.1-0.5,0.8-0.5,0.8,0c0.4,3.1,1.1,6.8,1.9,9.6  c-1.6-0.5-2.9-0.6-4.4-0.5c-0.5,0-0.6,0.7-0.1,0.8c2.3,0.9,6,2,9.4,2.8c4.4,1.1,10.8,3.5,12.8,4.1c2,0.6,1.9,1.5,1.4,2.8  c-0.4,1.4-4.2,2.7-7.1,4.2c-2.3-0.4-3.9,0.1-4.7,0.7c-0.5,0.4-1.1,1.2-0.7,2.3s1.4,0.9,2.8,0.7c1.4-0.2,2.4-0.8,4.1-0.3  c1.6,0.5,3.7,2.5,4.2,3.8c-3.3-0.7-7.2,0.3-11.7-0.4c-0.3-0.1-0.6,0.3-0.4,0.6c1,1.9,3.8,6.7,6.4,9.4c3,3.1,5.5,4.7,11.9,9  c-8.6-1.3-22.3-9.8-25.3-11.8c-1.2-0.8-2.3-1.6-3.6-2.6c-2.9,2.6-3.7,4.6-4,9.6c-1.7-5.6-3.3-7.1-1.4-9.4c0.9-1.2,1.6-2.2,2.1-3  c-0.4-0.3-0.8-0.7-1.2-1c-1.6,2.6-4,4.3-3.2,7.7c-0.7,0.5-3,2.6-6.7,0.5c0,0,0.3-5.1,8.3-9.5c-0.4-0.4-0.8-0.8-1.3-1.2  c-1.9,0.5-5.2,2.1-7.6,7.1c-2.9,1-4.5-0.2-6.2-1.3c0,0,2.5-5.3,12.6-7.1c-6.6-6.7-2.2-12.6,4.5-14.5c0.5-0.1,0.4-0.9-0.1-0.8  c-6.1,0.3-8.5,4.2-10.1,7.8c-4-3.3-9-10.3-10.4-12.1c0.5,3,2,6.9,5.1,11.8c-5.9,2-9.6,4.8-9.6,4.8c-2.1,1.4-3.3,3.9-1.2,5.6  c2.1,1.8,17,10.1,23.6,13.9c6.6,3.8,9.8,9.8,8.5,15.8c-1.7,8.1-9.6,11.1-25.9,14.4c-10.7,2.2-21.3,1.8-21.2,6.9  c0,3.9,10.2,7.5,19.2,8.4c13.3,1.3,34.1-2.1,42.7-5.9c8.6-3.8,18.8-11.1,26.4-19.2c16.1-17.1,24.6-39.4,24-62.9  c-0.2-6.9-1.2-13.6-2.9-20c-2.1-0.8-4.3-1.3-6.5-1.3c-8.6-0.1-13.1,4.2-17.6,8c-6.9-5.1-10.3-5.8-14.7-5.7c-6,0.1-15.2,2.9-19.6,6.4  c2.9-3.3,11.7-8.9,19.8-9.1c8.3-0.2,12.7,3.1,15.4,4.6c5-4.8,11.3-7.9,18.7-7.4c8.6,0.5,17.4,6.7,21.6,10.3  c1.4-3.3,6.3-5.9,11.3-5.6c6.7,0.4,17.3,5.6,32,21.4c3.7-3.9,7.5-5.4,15.2-5.2C379.7,86.9,394.8,92.5,400.5,95z M235.1,106.1  c0.4,0.3,0.6,0.1,2.8,0c0.6,2.1,1.8,3,3.5,3.7s3.1,0.9,4.3,1.1c1.2,0.1,1.1-0.2,2.5-1.3c-4.6,0.2-6.2-0.6-8.1-2  c0.3-0.8,0.9-1.9,0.7-3.2c-2.3,0.4-6.3,0.7-6.3,0.7S234.6,105.8,235.1,106.1z M243.7,104.5c0,0-1,0.2-1.4,1  c-0.4,0.7,0.2,2.2,1.8,2.8c1.6,0.6,3.7,0.3,4.3-0.7c0.4-0.6,0.2-0.9,0-1s-0.4-0.1-1.3,0.4c-0.8,0.4-1.7,0.4-2.4,0.2  c-1-0.2-1.6-0.7-1.6-1.3C243,105.5,243.1,105.2,243.7,104.5z"></path>
</svg>
