<?xml version="1.0" encoding="UTF-8"?>
<svg width="41px" height="45px" viewBox="0 0 41 45" version="1.1" xmlns="http://www.w3.org/2000/svg" xmlns:xlink="http://www.w3.org/1999/xlink">
    <title>Hope Club_logo</title>
    <g id="Pages" stroke="none" stroke-width="1" fill="none" fill-rule="evenodd">
        <g id="HC-2.-Public-home-" transform="translate(-779.000000, -953.000000)" fill="#C8A756">
            <g id="Hope-Club_logo" transform="translate(779.000000, 953.000000)">
                <polyline id="Fill-9" points="13.5327429 3.67767042 13.1108427 3.62989801 12.8808374 3.81239936 12.8094471 3.72329576 14.5660225 2.32206119 14.636876 2.41170156 14.2796565 2.69645733 14.2316157 3.11943103 15.7804616 5.06092324 16.2034353 5.10708535 16.5606549 4.82206119 16.6323135 4.91170156 14.8757381 6.31266774 14.805153 6.22302738 15.033548 6.03972088 15.0818572 5.61835749 14.2777778 4.61191626 13.0316694 5.60681696 13.8346753 6.61379495 14.256307 6.66076221 14.4857756 6.47799249 14.5582394 6.56763285 12.7952228 7.97342995 12.7235641 7.88378959 13.0882984 7.59339775 13.1355341 7.17203435 11.5864198 5.23081052 11.1645196 5.18250134 10.8003221 5.47316157 10.7283951 5.38378959 12.4911433 3.97745572 12.5630703 4.06709608 12.3336017 4.25013419 12.2858293 4.67257112 12.9237789 5.47208803 14.1701557 4.47665056 13.5327429 3.67767042"></polyline>
                <path d="M16.8419216,3.02925389 C17.1921632,4.05152979 17.7273215,4.42055824 18.5131508,4.15163714 C19.2979066,3.88271605 19.4865808,3.26516371 19.1374128,2.24342458 C18.7858293,1.22141707 18.2557703,0.842995169 17.4704777,1.11245303 C16.6862587,1.38137413 16.4924852,2.00724638 16.8419216,3.02925389 Z M17.4264627,0.982823403 C18.6725711,0.556629093 19.7917338,0.975577026 20.1113795,1.91009125 C20.4302201,2.84380032 19.8089104,3.85024155 18.5560923,4.27992485 C17.3054214,4.70880301 16.1940419,4.29522276 15.8749329,3.36151369 C15.5520666,2.42028986 16.1814278,1.40955448 17.4264627,0.982823403 L17.4264627,0.982823403 Z" id="Fill-10"></path>
                <path d="M22.8381643,1.39801396 L22.5437466,1.64331723 L22.2826087,2.86044015 L22.8569512,2.98416532 C23.46511,3.11325819 23.8330649,2.89989265 23.9425658,2.38969404 C24.0523349,1.87815352 23.8110574,1.60708535 23.1956522,1.47450349 L22.8381643,1.39801396 Z M20.3357488,4.01583468 L20.7917338,4.11325819 L21.1492217,3.88378959 L21.670424,1.45571659 L21.4390768,1.09769189 L20.9841653,1.00026838 L21.0077831,0.888620505 L23.5426731,1.431562 C24.5826624,1.65485776 25.064949,2.10359635 24.9516908,2.63499732 C24.8322598,3.18652711 24.226248,3.39371981 23.1532475,3.16344605 L22.2595276,2.97155126 L22.0225443,4.07031669 L22.1908213,4.41304348 L22.7721417,4.53837896 L22.7479871,4.65002684 L20.3126677,4.12801932 L20.3357488,4.01583468 L20.3357488,4.01583468 Z" id="Fill-11"></path>
                <polyline id="Fill-12" points="23.7163178 4.69618894 24.0668277 5.00134192 24.4898014 4.97504026 26.1253355 3.10466989 26.0955448 2.67954911 25.7447665 2.37412775 25.8201825 2.28663446 28.7579173 4.85292539 27.9715513 5.82957595 27.9117016 5.77697262 28.0413312 4.37949544 27.1680086 3.61701557 26.7984434 3.69296833 26.1065486 4.48497048 26.4838969 4.81454643 27.4275362 4.68008588 27.4919485 4.73590982 26.4508857 5.92592593 26.3880837 5.87037037 26.40365 4.9057971 26.0252281 4.57568438 25.1634461 5.56307032 25.1409018 5.9143854 25.9549114 6.62426194 27.3803006 6.38620505 27.4396135 6.43800322 26.615942 7.38164251 23.6406334 4.78207193 23.7163178 4.69618894"></polyline>
                <path d="M18.1937735,39.164788 C18.1937735,39.164788 18.3615137,39.0703167 18.4286098,38.3625872 C18.0093935,38.3376275 17.9130435,38.8217928 18.1937735,39.164788" id="Fill-13"></path>
                <path d="M17.5815888,37.5826624 C17.5815888,37.5826624 18.0220075,37.7965647 17.5815888,38.5638755 C17.4307568,38.3752013 17.3301127,37.8719807 17.5815888,37.5826624" id="Fill-14"></path>
                <path d="M17.4286098,37.0292539 C17.4286098,37.0292539 17.6570048,37.4444444 17.1663983,37.7463768 C17.0531401,37.4820183 17.287708,37.1046699 17.4286098,37.0292539" id="Fill-15"></path>
                <path d="M17.6025228,36.3623188 C17.6025228,36.3623188 17.0281804,36.387547 17.2042405,36.8655395 C17.544015,36.8027375 17.5815888,36.550993 17.6696189,36.3623188" id="Fill-16"></path>
                <path d="M19.3008588,22.4608159 C19.3008588,22.4608159 18.8982823,22.4441761 18.7474503,22.1924316 C19.0660225,22.0415996 19.3008588,22.0246914 19.3008588,22.0246914 L19.3008588,22.4608159" id="Fill-17"></path>
                <path d="M18.8647343,22.7461084 C18.8647343,22.7461084 18.5461621,22.3099839 17.9924852,22.4608159 C18.0429415,22.6956522 18.2777778,22.9975845 18.8647343,22.7461084" id="Fill-18"></path>
                <path d="M17.3550725,23.1151369 C17.3550725,23.1151369 17.8574879,22.7125604 18.2353731,23.1151369 C18.0260333,23.249329 17.6234568,23.4337091 17.3550725,23.1151369" id="Fill-19"></path>
                <path d="M16.9023081,23.7020934 C16.9023081,23.7020934 17.0700483,23.2995169 17.6234568,23.5343532 C17.6234568,23.7356414 17.1537842,24.2216855 16.9023081,23.8027375" id="Fill-20"></path>
                <path d="M17.1537842,24.2216855 C17.1537842,24.2216855 16.5834675,24.1886742 16.5163714,24.9602791 C16.9023081,24.8762748 17.1905529,24.479066 17.1537842,24.2216855" id="Fill-21"></path>
                <path d="M17.0365003,25.0273752 C17.0365003,25.0273752 16.5668277,25.0770263 16.6339238,25.6143317 C16.9023081,25.5472356 17.101986,25.3722491 17.0365003,25.0273752" id="Fill-22"></path>
                <path d="M17.0491143,25.7474503 C17.0491143,25.7474503 16.6003757,25.7979066 16.7512077,26.5526033 C17.0531401,26.3011272 17.1763285,26.0311326 17.0491143,25.7474503" id="Fill-23"></path>
                <path d="M17.1570048,26.5526033 C17.1570048,26.5526033 16.7313473,26.8043478 16.9095545,27.4082126 C17.2377885,27.1398282 17.2917338,26.8703704 17.1570048,26.5526033" id="Fill-24"></path>
                <path d="M17.3550725,27.2573806 C17.3550725,27.2573806 17.0866881,27.7275899 17.4892646,28.1967257 C17.673913,27.7606012 17.673913,27.4417606 17.3550725,27.2573806" id="Fill-25"></path>
                <path d="M17.9924852,27.810789 C17.9924852,27.810789 17.6234568,28.2463768 17.9924852,28.9347826 C18.2608696,28.5657542 18.2606012,28.1798175 17.9924852,27.810789" id="Fill-26"></path>
                <path d="M18.5292539,28.4482018 C18.5292539,28.4482018 18.4119699,29.2869028 18.8647343,29.4380032 C19.0493827,29.0354267 18.8754697,28.6422437 18.5292539,28.4482018" id="Fill-27"></path>
                <path d="M23.8803006,19.8274289 C23.8803006,19.8274289 22.7726785,20.3467525 22.9575953,20.6325819 C23.1422437,20.917606 23.9809447,20.1959206 23.9473967,19.8274289" id="Fill-28"></path>
                <path d="M21.8674181,21.2530864 C21.8674181,21.2530864 22.6556629,21.6221149 23.0415996,20.9345142 C22.538379,20.7834138 22.0362319,20.8003221 21.8674181,21.2530864" id="Fill-29"></path>
                <path d="M20.9111648,21.8738594 C20.9111648,21.8738594 21.6341922,21.8518519 21.8674181,21.5885668 C21.5485776,21.3370907 21.1460011,21.3030059 21.0287171,21.5885668 C20.9111648,21.8738594 20.9111648,21.8738594 20.9111648,21.8738594" id="Fill-30"></path>
                <path d="M22.5214707,32.9390768 C23.0246914,32.5024155 22.722759,31.9326355 22.722759,31.9326355 C23.0751476,31.6307032 22.1027912,32.3513151 22.5214707,32.9390768" id="Fill-31"></path>
                <path d="M22.2195384,30.9935588 C22.2195384,30.9935588 22.9079442,31.3961353 22.3201825,31.9498121 C22.0523349,31.9162641 22.3706388,31.5807837 22.2195384,30.9935588" id="Fill-32"></path>
                <path d="M21.5654858,30.389694 C21.5654858,30.389694 21.9847021,30.356146 21.8674181,31.3123994 C21.5821256,31.194847 21.3478261,30.6916264 21.5654858,30.389694" id="Fill-33"></path>
                <path d="M22.8129361,32.9390768 C22.8129361,32.9390768 22.3888889,33.4390768 22.5582394,33.7938808 C22.8024691,33.6073537 23.0493827,33.3022008 22.8129361,32.9390768" id="Fill-34"></path>
                <path d="M18.8647343,15.6674718 C18.8647343,15.6674718 18.629898,15.5332797 18.479066,16.0195921 C18.3279656,16.5061728 18.2944176,16.6744498 18.479066,16.6905529 C18.6634461,16.7074611 18.6210413,16.5738057 18.608964,16.3886205 C18.59635,16.2042405 18.7809984,15.5882984 18.8647343,15.6674718" id="Fill-35"></path>
                <path d="M23.4777241,17.8480945 C23.4777241,17.8480945 23.2930757,18.6242619 23.6454643,18.5882984 C23.9975845,18.5526033 23.6790123,17.8145464 23.4777241,17.8480945" id="Fill-36"></path>
                <path d="M23.9726248,18.7369834 C23.9726248,18.7369834 23.7461084,19.164788 23.6706924,19.240204 C23.5950081,19.3158884 23.6706924,19.5171766 23.8215244,19.5925926 C23.9726248,19.6680086 24.3499732,19.0641439 24.1486849,18.7369834 C23.9473967,18.4100913 23.7962963,18.7369834 23.9726248,18.7369834" id="Fill-37"></path>
                <path d="M20.0045625,7.46081589 C19.5410628,7.49114332 19.1977992,6.80354267 19.7785829,6.47638218 C19.6143317,6.17954911 19.5448202,5.80756844 20.0045625,5.76247987 C20.4637681,5.71792807 20.4412238,6.32850242 20.1768653,6.41814278 C20.5979603,6.64143854 20.6768653,7.41626409 20.0045625,7.46081589" id="Fill-38"></path>
                <path d="M20.1062802,16.7756307 C19.8043478,16.7587225 19.9200215,16.8008588 19.8043478,16.7587225 C19.5641439,16.6712292 19.5526033,16.4903382 19.5359635,16.1046699 C19.5190553,15.7187332 19.5359635,12.6658615 19.5359635,12.6658615 C19.5359635,12.6658615 19.5695115,12.4143854 19.8880837,12.4645733 C20.2069243,12.5150295 20.2713366,12.4310252 20.2812668,13.9240472 C20.2906602,15.4168009 20.4082126,16.7917338 20.1062802,16.7756307 Z M28.5660225,17.9318304 C28.5660225,17.9318304 29.3319914,17.9068706 29.2815352,17.1017177 C29.2313473,16.2965647 28.5517982,16.5228127 28.1744498,16.4978529 C27.7971014,16.4726248 22.9409554,16.3467525 22.9409554,16.3467525 C22.9409554,16.3467525 23.0415996,14.7112185 21.0539452,14.5351583 C21.0791734,13.1009125 21.1688137,12.1196994 20.0045625,12.1449275 C18.5378422,12.1449275 18.8899624,14.4849705 18.8899624,14.4849705 C18.8899624,14.4849705 17.4307568,14.962963 17.6320451,16.4473967 C17.1035963,16.4473967 11.794686,16.8499732 11.794686,16.8499732 C11.794686,16.8499732 11.4675255,18.0577026 11.945518,18.0324745 C12.4237789,18.0075148 19.2675792,18.9634997 19.2675792,18.9634997 L19.1918948,30.7893183 L19.1918948,34.8904992 C19.1918948,34.8904992 16.0971551,33.229737 14.4366613,29.7828771 C14.4366613,29.7828771 14.7887815,30.2608696 15.5560923,29.8582931 C14.461621,28.4492754 12.9557166,26.6178207 12.0212024,24.1594203 C12.0136876,24.9838969 11.9329039,25.5037574 11.9833602,26.9804079 C12.033548,28.4570585 12.1092324,30.1097692 12.3231347,31.2673108 C12.4739667,31.2420827 13.4804079,30.7893183 13.3043478,30.0091251 C13.8829844,31.4181428 16.7203435,36.6140633 19.8969404,37.9286098 C19.8969404,37.9286098 24.2901235,35.1095008 27.352657,28.9345142 C27.6712292,29.7241009 28.0665593,30.0837359 28.4092861,30.2890499 C28.4597424,29.136876 28.5786366,23.9704777 28.5654858,22.7879764 C28.5654858,22.7879764 27.1932367,25.1027912 26.5641439,26.0085883 C25.935051,26.9143854 24.8658078,28.5120773 24.7399356,28.7638218 C25.4822866,28.7259796 26.4634997,28.3234031 26.4634997,28.3234031 C26.4634997,28.3234031 22.2364466,35.2930757 21.0791734,34.689211 C20.7775094,34.4712829 20.7882448,32.3236715 20.8293076,30.4369297 C20.7863661,30.5155663 20.7020934,30.5531401 20.5759528,30.5891036 C20.3344069,30.6567364 20.2804616,30.6425121 20.1768653,30.5131508 L20.1768653,35.7710682 C20.1768653,35.7710682 21.7050456,36.5866881 27.2184648,27.7447665 C26.9541063,27.8706388 26.0861514,28.298175 25.2305421,28.4482018 C25.4822866,27.9355878 26.2160494,26.8939882 26.610306,26.3188406 C27.557971,24.9393451 28.1996779,23.9202899 28.1996779,23.9202899 L28.3255502,23.7147075 C28.3255502,23.7147075 28.1162104,29.6014493 28.1414385,29.8279656 C27.5877617,29.170424 27.394525,28.1221149 27.394525,28.1221149 C27.394525,28.1221149 25.2557703,32.0724638 23.7208803,33.808642 C22.1862587,35.5445518 20.3746645,37.129898 19.5695115,37.0794418 C18.7643586,37.0292539 16.7764359,35.3684917 15.191358,32.8022008 C13.6062802,30.2356414 12.9771873,28.87708 12.9771873,28.87708 C12.9771873,28.87708 12.9377348,28.766774 12.838701,28.6505636 C12.838701,28.6505636 12.8907676,28.9471283 12.9143854,29.0909823 C12.9771873,29.4728932 13.2538916,30.2356414 12.4991948,30.5880301 C12.2555019,30.2987118 12.2364466,25.3794954 12.2364466,25.3794954 C12.2364466,25.3794954 14.0088567,28.5152979 14.7635534,29.3803006 C14.2101449,29.4052603 13.4551798,28.7259796 13.4551798,28.7259796 C13.4551798,28.7259796 16.6784756,34.8416532 19.393183,36.0477724 L19.5944713,19.013956 L20.1768653,19.1900161 L20.1768653,29.3209877 C20.3462158,29.3684917 20.6921632,29.5115405 20.7965647,29.9055287 C20.8134729,29.9696726 20.8268921,30.02657 20.8373591,30.0783682 C20.8564144,29.2716049 20.8778851,28.5410628 20.8778851,28.071927 C20.8778851,26.461621 20.9028449,19.1395598 20.9028449,19.1395598 L23.3539989,18.7533548 C23.3263553,18.7450349 23.3056897,18.7380569 23.3056897,18.7380569 C23.2302738,18.7259796 23.1044015,18.4981213 23.1044015,18.3480945 C23.1044015,18.3201825 23.1073537,18.2987118 23.1105743,18.2767042 L20.961621,18.5872249 C20.961621,18.5872249 20.1733763,18.6374128 16.3153516,18.1511004 C12.4573269,17.6645196 12.1218465,17.6309716 12.1218465,17.3123994 C12.1218465,16.9935588 12.4573269,16.9769189 12.4573269,16.9769189 C12.4573269,16.9769189 16.7850242,16.7587225 17.5732689,16.6580784 C17.9758454,17.5303274 18.7308105,17.8658078 18.9656468,17.8993559 C19.2004831,17.9329039 19.317767,17.7820719 19.1500268,17.7316157 C18.5131508,17.5807837 18.0263017,17.0606549 17.9422974,16.2724101 C17.8588298,15.4833602 18.8145464,15.1148685 18.8145464,15.1148685 C18.8145464,15.1148685 18.9833602,15.1148685 18.8314546,15.7466452 C18.8172303,15.8043478 18.8008588,15.8671498 18.7809984,15.9358561 C18.7533548,16.0332797 18.7348363,16.1304348 18.7265164,16.2246377 C18.6741814,16.8207193 19.0021471,17.326087 19.6532475,17.3615137 C20.5759528,17.4119699 20.7431562,17.7517445 20.3808374,17.8612453 C19.7171229,18.0625335 19.5305958,17.9739667 19.5085883,18.0786366 C19.4892646,18.1757917 19.5284487,18.3344069 20.6755233,18.2847558 C21.417606,18.2522813 22.0856146,17.7474503 22.0856146,17.7474503 C22.4377348,17.6132582 22.8572195,18.0158347 23.0751476,18.0324745 C23.2941492,18.0493827 23.4777241,17.6468062 23.0751476,17.4119699 C22.6725711,17.1765969 22.421095,17.0260333 22.4881911,16.7074611 C22.5552872,16.3886205 22.9074074,16.606817 22.9074074,16.606817 L23.4777241,16.5563607 L28.191358,16.8515835 C28.191358,16.8515835 28.996511,16.791197 29.0131508,17.1602254 C29.0308642,17.5287171 28.7579173,17.5126141 28.7579173,17.5126141 L26.3797638,17.9653784 L24.1001074,18.1803543 C24.0971551,18.3070317 24.0687064,18.46511 24.0228127,18.5899087 C24.0131508,18.6162104 23.9967794,18.6336554 23.982555,18.654321 L28.5660225,17.9318304 L28.5660225,17.9318304 Z" id="Fill-39"></path>
                <path d="M19.3008588,28.9431025 C19.3008588,28.9431025 19.8644659,29.252818 19.6779388,29.8279656 C19.4911433,29.7812668 19.0797101,29.4074074 19.3008588,29.0354267" id="Fill-40"></path>
                <path d="M19.9887279,29.3848631 C19.9887279,29.3848631 20.7812668,29.9516908 20.4237789,30.2780462 C20.2686527,30.4023081 19.7710682,29.4388084 19.9264627,29.3848631" id="Fill-41"></path>
                <g id="Group-45" transform="translate(0.016103, 0.000000)">
                    <path d="M20.8950617,29.8730542 C20.8950617,29.8730542 21.5158347,30.205314 21.0126141,30.7085346 C20.8448739,30.389694 20.7777778,30.1618357 20.8950617,29.8730542" id="Fill-42"></path>
                    <path d="M38.9900698,25.2538916 C38.9900698,25.2538916 38.8392378,25.3419216 39.027912,24.914117 C39.2165862,24.4863124 39.5059045,23.0772947 39.2292002,23.1151369 C38.952496,23.1529791 39.191358,23.5679012 39.0152979,24.0587762 C38.8392378,24.5493827 38.5874933,25.4047236 38.5373054,25.4927536 C38.4868492,25.5807837 38.2353731,25.7066559 38.1849168,25.643854 C38.1347289,25.5807837 38.1725711,25.4425658 38.2855609,25.2034353 C38.3988191,24.9645733 38.74584,23.7399356 38.4114332,23.8448739 C38.2101449,23.9076758 38.3988191,24.0837359 38.2732152,24.5995706 C38.147343,25.1154053 37.9586688,25.6690821 37.5936661,25.71927 C37.2289318,25.7697262 37.417606,25.5807837 37.5560923,25.2914654 C37.6943103,25.0021471 38.0466989,24.09635 37.8706388,24.108964 C37.6943103,24.1215781 37.4680623,24.9393451 37.329576,25.2665056 C37.1910896,25.5933977 37.1910896,25.8073001 36.9396135,25.8325282 C36.687869,25.8577563 36.8137413,25.8199141 36.9898014,25.2034353 C37.1661299,24.5869565 37.4543747,24.0413312 37.1661299,24.020934 C36.9898014,24.0083199 36.9017713,24.901503 36.7635534,25.2665056 C36.6250671,25.6312399 36.4865808,25.9457864 36.2852925,26.0590446 C36.0840043,26.1723027 35.882716,26.2729469 35.8199141,26.373591 C35.7694579,26.1723027 35.6422437,26.0888352 35.8953301,25.7820719 C36.3837896,25.1908213 36.9269995,23.5805153 36.5872249,23.2410091 C36.5872249,23.2410091 36.9269995,23.3918411 37.6943103,23.0144928 C38.4618894,22.6371444 39.103328,22.322598 39.3803006,22.9516908 C39.6570048,23.5805153 39.9463231,24.750671 38.9900698,25.2538916 Z M37.8499732,27.8580247 C37.6409018,28.6001074 37.6441224,28.3234031 37.329576,28.4492754 C37.0150295,28.5751476 37.4680623,27.8327966 37.5936661,27.5813205 C37.7195384,27.329576 37.9586688,26.8768116 37.7949544,26.8515835 C37.6315083,26.8263553 37.5056361,27.1030596 37.2415459,27.7498658 C36.9771873,28.3974772 36.9237789,28.4020397 36.599839,28.4492754 C36.0840043,28.5246914 36.6741814,27.81562 36.8515835,27.3169619 C36.9511541,27.0359635 36.8531938,27.0568975 36.8765432,27.0276436 C36.9898014,26.8891573 37.4804079,26.7004831 38.0214707,26.4742351 C38.5625335,26.2477187 38.0593129,27.1156736 37.8499732,27.8580247 Z M36.5622652,27.1409018 C36.9522276,26.9648417 36.3609769,27.8454106 36.2477187,28.147343 C36.1344605,28.4492754 36.0338164,28.4745035 35.7820719,28.147343 C35.5305958,27.8201825 36.5622652,27.1409018 36.5622652,27.1409018 Z M36.9898014,31.6446592 C35.7066559,32.6258722 35.3293076,32.7769726 35.2034353,33.4060655 C35.0775631,34.03489 34.826087,35.0917874 33.9957059,35.1672034 C33.1653247,35.2426194 33.0144928,34.5885668 32.8384326,34.3368223 C32.6621041,34.0853462 32.410628,33.4310252 31.2783145,33.7329576 C30.1460011,34.03489 30.1210413,34.7144391 29.9951691,35.4943639 C29.819109,35.5195921 28.7120236,35.4439077 28.2337627,36.2490607 C28.2337627,36.2490607 27.5042941,37.3311863 28.0577026,37.7337627 C28.6113795,38.1363392 28.5861514,37.935051 28.3344069,38.6143317 C28.3344069,38.6143317 27.40365,38.6143317 27.2273215,39.2683843 C27.0512614,39.9227053 27.3784219,42.1870639 25.8939882,42.4388084 C25.8939882,42.4388084 26.1454643,42.0362319 26.4473967,40.9039184 C26.4473967,40.9039184 26.8582931,40.0485776 26.0700483,40.1239936 C26.0700483,40.1239936 25.1390231,40.2120236 25.5668277,40.801664 C25.9441761,41.331723 25.5415996,42.1621041 25.2901235,42.4388084 C25.2901235,42.4388084 24.887547,42.7155126 24.7616747,42.6400966 C24.6358025,42.5646806 24.233226,42.3381643 24.7616747,41.8851315 C25.2901235,41.4323671 25.3655395,40.9039184 25.0636071,40.9039184 C24.7616747,40.9039184 23.1765969,43.5960816 20.9873859,43.671766 C20.9873859,43.671766 17.8172303,43.898014 15.5526033,43.0426731 C13.2882448,42.1870639 13.3888889,41.0770263 13.2630166,40.801664 C13.1371444,40.52657 13.0869565,39.0421363 12.3572195,38.4884595 C11.6274826,37.935051 11.180891,39.3942566 10.712292,39.2683843 C10.243693,39.1427805 9.9229737,36.949007 11.2783145,36.5866881 C12.0050993,36.1736447 11.3507783,35.5445518 10.9986581,35.1924316 C10.9986581,35.1924316 9.96698873,34.2112185 9.16183575,35.4439077 C8.93531938,35.0665593 9.22061192,34.4879227 9.74476651,34.2866345 C10.2689211,34.0853462 10.2520129,33.7079979 9.74476651,33.2801932 C9.23725174,32.8523886 6.3185722,32.7517445 6.46940419,36.7273215 C5.86553945,36.7020934 4.68303811,36.7775094 4.85909823,35.5195921 C5.03542673,34.2614063 4.78368223,34.2112185 4.12962963,34.2614063 C3.47530864,34.3118626 2.34299517,32.9278046 3.65136876,31.7453033 C4.95974235,30.5628019 5.58883521,30.1854536 4.70826624,28.7007515 C3.82769726,27.2163178 4.05394525,25.4801396 4.07917338,25.1027912 C4.431562,24.9267311 5.31213097,25.0775631 4.78368223,22.6119163 C4.78368223,22.6119163 2.87144391,13.352657 5.58883521,10.5848094 C7.47584541,8.87385937 6.34380032,10.8617821 6.0668277,11.4906065 C6.0668277,11.4906065 3.61996779,21.0032206 8.21497585,29.3566828 C12.8102523,37.7101449 19.9307568,42.06146 19.9307568,42.06146 C19.9307568,42.06146 40.6382179,31.1162104 33.3918411,9.93075684 C33.3918411,9.93075684 34.5995706,8.79844337 35.6060118,11.742351 C36.612453,14.6862587 35.8325282,19.6680086 35.8325282,20.0958132 C35.8325282,20.5236178 35.6312399,23.1151369 36.5872249,23.2659689 C36.6642512,23.935051 36.1470746,25.0362319 36.1470746,25.0362319 C36.1470746,25.0362319 35.4675255,26.0464305 34.9519592,27.2917338 C34.5995706,28.5499195 34.4989265,28.5499195 36.461621,29.5311326 C36.9898014,29.8330649 38.2732152,30.6634461 36.9898014,31.6446592 Z M32.3129361,35.6610306 C32.1599571,35.6253355 31.3569512,34.9361245 31.1293612,35.1462695 C30.8454106,35.4092861 31.7203435,35.5426731 31.8529254,36.4347826 C31.9492754,37.0805153 31.7941492,38.0472356 31.7941492,38.0472356 C31.5566291,36.8615137 30.949007,36.1800859 30.5343532,35.838701 C30.1199678,35.4975845 30.1712292,34.6374128 30.9637681,34.3714439 C31.6191626,34.1524423 32.0163714,34.6876006 32.4023081,35.0528717 C32.7869028,35.4189479 32.5059045,35.7061192 32.3129361,35.6610306 Z M30.6382179,39.164788 C30.1932367,39.1443908 30.8148148,38.2705314 30.2670424,37.7954911 C29.273752,36.6841116 28.7699946,37.870102 28.3993559,37.0689748 C28.2568438,36.759796 29.452496,35.898014 30.5045625,36.9205582 C31.5566291,37.9433709 31.0528717,39.1835749 30.6382179,39.164788 Z M29.52657,39.9149222 C28.7699946,39.9149222 28.6221149,37.870102 29.273752,37.798175 L29.3336017,37.7997853 C29.6889426,37.7662373 30.045357,38.1661299 30.0308642,39.0703167 C30.0595813,39.4997316 29.7042405,39.9149222 29.52657,39.9149222 Z M27.8365539,41.352657 C27.8961353,41.2047772 27.9404187,40.3599034 27.9554482,40.1223833 C27.9707461,39.8848631 27.5654858,39.2139023 28.103328,39.0703167 C29.2444981,39.2039721 27.8365539,41.352657 27.8365539,41.352657 Z M11.8287708,39.1677402 C12.5585078,39.2683843 12.3572195,39.5703167 12.3319914,40.4259259 C12.3070317,41.2812668 13.1623725,42.4388084 13.1623725,42.4388084 C10.7216855,41.3569512 11.0993022,39.0670961 11.8287708,39.1677402 Z M8.80944713,37.0040258 C8.9605475,35.3937198 10.1935051,35.4189479 10.5960816,36.0730005 C10.9986581,36.7273215 10.2689211,36.7522813 9.76570048,37.4066023 C8.83467525,38.7903918 10.0171766,40.801664 10.0171766,40.801664 C9.0359635,39.8942566 8.65861514,38.6143317 8.80944713,37.0040258 Z M7.90365003,35.8215244 C7.27455717,36.9033816 8.23081052,39.6961889 8.23081052,39.6961889 C6.99785293,38.5891036 6.49463231,35.0163714 7.68921095,34.0099302 C8.88405797,33.003489 9.36312399,33.7329576 9.36312399,33.7329576 C9.69028449,34.613795 8.55797101,34.2112185 7.90365003,35.8215244 Z M2.60735373,28.7638218 C2.48148148,28.9146538 2.82125604,30.5660225 2.56951154,30.6272142 C2.0410628,30.5880301 2.06629093,28.7007515 1.81481481,28.3738594 L1.81481481,28.2732152 C1.81481481,28.2732152 2.68276973,28.2732152 3.51315083,28.7764359 C4.34353194,29.2796565 4.1798175,30.0595813 4.1044015,30.2104133 C4.02898551,30.3615137 3.80246914,30.6886742 3.5257649,30.6129898 C3.4382716,30.1309716 4.02039721,29.9661836 3.42512077,28.9272678 C3.16076221,28.8644659 4.01637144,30.7388621 2.79602791,30.6272142 C2.85882984,29.770263 2.9092861,28.6631777 2.60735373,28.7638218 Z M1.81481481,25.9331723 C1.89023081,25.5558239 1.65110038,25.6312399 1.96564681,25.4299517 C2.28019324,25.2286634 2.40606549,25.0399893 3.86527107,25.0399893 C3.86527107,25.0399893 3.78985507,26.2729469 3.32447665,26.537037 C3.32447665,26.537037 3.45008052,25.2665056 3.18599034,25.2665056 C2.92190016,25.2665056 3.21121846,26.7635534 2.92190016,26.8768116 C2.63258186,26.9898014 2.28019324,27.1282877 2.2928073,26.7509393 C2.30542136,26.373591 2.54428341,25.5053677 2.35560923,25.4927536 C2.16693505,25.4801396 1.928073,26.6629093 2.05367687,26.9143854 C1.89023081,26.8768116 1.47504026,26.7257112 1.81481481,25.9331723 Z M1.42485239,26.373591 C1.33655395,26.1723027 1.57568438,25.7318841 1.57568438,25.7318841 C1.63848631,25.9833602 1.52549651,26.0966184 1.42485239,26.373591 Z M1.40472356,23.7944176 C1.58668814,23.9830918 2.11674718,24.5619968 2.39345142,24.838701 C2.31803543,24.9393451 2.09151906,25.0399893 2.09151906,25.0399893 C1.96564681,25.0399893 1.3115942,23.7944176 1.3115942,23.7944176 L1.40472356,23.7944176 Z M1.49919485,22.5112721 C1.85077831,22.6621041 3.95330113,24.2976382 3.95330113,24.2976382 C4.12426194,24.4302201 3.48792271,24.5619968 2.87144391,24.6626409 C2.25496511,24.763285 1.53784219,23.291197 1.40472356,22.9640365 C1.27214171,22.6371444 1.14787976,22.3601718 1.49919485,22.5112721 Z M4.34353194,23.2410091 C4.69565217,23.5931294 4.33091787,23.7442297 3.7396672,23.5679012 C3.14814815,23.3918411 2.07890499,22.3853999 1.68464842,21.9575953 C1.29092861,21.530059 1.59339775,21.1902845 1.59339775,21.1902845 C1.59339775,21.1902845 3.99114332,22.8886205 4.34353194,23.2410091 Z M1.59339775,19.8692968 C1.59339775,19.8692968 3.00993022,20.9388084 3.46269458,21.2530864 C3.91572732,21.5676329 4.01637144,21.4041868 4.21765969,21.8067633 C4.41894793,22.2093398 4.19243156,22.6119163 3.48792271,22.1588835 C3.1849168,21.9645733 2.05367687,21.1902845 1.59339775,20.4983897 C1.27804616,20.0233494 1.59339775,19.8692968 1.59339775,19.8692968 Z M1.78958669,17.3784219 C1.78958669,17.3784219 2.53193773,18.0201288 2.98201825,18.2716049 C3.43236715,18.5233494 3.66398282,18.4602791 3.77724101,18.7874396 C3.91572732,19.5297907 3.66398282,19.4291465 2.98201825,19.1521739 C2.30005368,18.8754697 1.78958669,17.9570585 1.59339775,17.5670961 C1.39801396,17.1771337 1.78958669,17.3784219 1.78958669,17.3784219 Z M2.93451422,17.8564144 C2.24235105,17.554482 1.91545894,16.6865271 1.91545894,16.6865271 C1.91545894,16.6865271 1.80220075,16.4978529 1.91545894,16.3972088 C2.02871712,16.2965647 2.48148148,16.6486849 2.87037037,16.8752013 C3.25979603,17.1017177 3.57595276,17.1771337 3.67659689,17.6049383 C3.77724101,18.0324745 3.62640902,18.1583468 2.93451422,17.8564144 Z M1.86500268,15.1516371 C2.09151906,14.9881911 2.52818035,15.398014 2.78502415,15.6674718 C2.78502415,15.6674718 3.16076221,16.1328502 3.42512077,16.1706924 C3.68921095,16.2085346 3.77724101,16.4473967 3.65136876,16.6111111 C3.5257649,16.7745572 3.23000537,16.7997853 2.80542136,16.4978529 C2.38083736,16.1959206 1.63848631,15.3150832 1.86500268,15.1516371 Z M2.67659689,14.308642 C3.02254428,14.6231884 3.29924852,14.7742888 3.70504563,14.9881911 C4.11057434,15.2020934 3.70182501,15.2648953 3.5257649,15.5163714 C3.34943639,15.7681159 3.03515835,15.3886205 2.67659689,15.1143317 C2.26972625,14.8035427 2.19216318,13.9943639 2.19216318,13.9943639 C2.17686527,13.9114332 2.33064949,13.9943639 2.67659689,14.308642 Z M2.50670961,12.9753086 C2.54804079,12.8279656 2.98470209,13.428073 3.39989265,13.7047772 C3.8150832,13.9817499 3.86527107,14.1325819 3.81400966,14.5603865 C3.76274826,14.9881911 3.09796028,14.2962963 2.67659689,13.9637681 C2.25496511,13.6315083 2.50670961,12.9753086 2.50670961,12.9753086 Z M2.87037037,12.3336017 C3.0461621,11.9814815 3.32447665,12.4090177 3.61379495,12.7235641 C3.90311326,13.0381106 3.94095545,13.0128824 3.83011272,13.428073 C3.71953838,13.8432636 3.28663446,13.1513688 3.03515835,12.9522276 C2.78341385,12.7533548 2.79012346,12.4957059 2.87037037,12.3336017 Z M3.98174987,20.8003221 C3.94712829,21.2028986 3.31186259,20.7750939 2.33064949,20.1460011 C1.34916801,19.5171766 1.59339775,18.6363392 1.59339775,18.6363392 C1.59339775,18.6363392 2.85882984,19.5547504 3.55072464,19.9447128 C4.24288782,20.3349436 4.01637144,20.3977456 3.98174987,20.8003221 Z M4.0445518,12.3462158 C3.8338701,12.7109501 3.58856683,12.2329576 3.35426731,11.893183 C3.11996779,11.5536769 3.35426731,11.3523886 3.35426731,11.3523886 C3.18276973,11.0126141 4.25523349,11.9814815 4.0445518,12.3462158 Z M3.66156736,10.6731079 C3.69243156,10.6111111 3.86527107,10.6352657 4.1798175,10.9498121 C4.49436393,11.2643586 4.40633387,11.2517445 4.38110574,11.5912507 C4.35587762,11.9310252 4.09178744,11.7045089 3.70799785,11.3271605 C3.32447665,10.9498121 3.54562534,10.9041868 3.66156736,10.6731079 Z M4.65780998,11.0630703 C4.56977992,11.2643586 4.431562,10.9371981 4.28797638,10.6457327 C4.14412238,10.3542673 4.06602254,10.2882448 4.15458937,10.1446592 C4.25523349,9.98094471 4.48174987,10.2828771 4.74610843,10.5346216 C5.0101986,10.7860977 4.74610843,10.8617821 4.65780998,11.0630703 Z M4.59500805,9.98094471 C4.45652174,9.76731079 4.59500805,9.76731079 4.59500805,9.76731079 C4.58239399,9.85534085 4.99758454,10.1698873 4.94739667,10.2954911 C4.89694042,10.4213634 4.73349436,10.194847 4.59500805,9.98094471 Z M5.43424584,6.83601718 C8.12801932,6.83494364 6.76516371,8.95464305 6.44847021,8.95464305 C5.68786903,8.63794954 4.54669887,9.14492754 4.13472893,9.36661299 C4.26167472,9.17686527 3.91358025,8.85990338 3.91358025,8.59554482 C3.91358025,8.33145464 3.88164251,6.80032206 5.43424584,6.83601718 Z M7.62694579,10.4538379 C8.93531938,11.742351 15.1250671,15.3655395 20.0230811,10.2326892 C20.0230811,10.2326892 22.1709608,13.352657 26.263285,13.1513688 C30.3558776,12.9500805 31.9932904,10.6621041 31.9932904,10.6621041 C31.9932904,10.6621041 40.4369297,27.8955985 19.8048846,40.801664 C19.8048846,40.801664 1.18572195,28.0968867 7.62694579,10.4538379 Z M14.9476651,10.673913 C15.1355341,10.4978529 15.2869028,10.0797101 15.1443908,9.71685454 C15.1443908,9.71685454 15.7863661,10.9414922 14.805153,11.1908213 C14.4130435,11.1935051 14.7034353,10.90365 14.9476651,10.673913 Z M17.0496511,9.1129898 C17.4900698,9.83011272 17.0424047,10.4114332 16.917606,10.554482 C16.7928073,10.6969941 16.8955985,10.4653784 16.961621,10.2828771 C16.9973162,10.1854536 16.9906065,10.0134192 16.8499732,9.77026302 C16.8569512,10.1513688 16.6771337,10.4422974 16.53489,10.6384863 C16.7426194,9.83011272 16.6095008,9.16344605 15.5399893,8.79844337 C15.5399893,8.79844337 16.4742351,8.17525497 17.0496511,9.1129898 Z M18.4838969,6.30756844 L18.0059045,6.83601718 C17.8674181,6.20692432 18.4838969,6.30756844 18.4838969,6.30756844 Z M21.4465915,6.56870639 C21.4465915,6.56870639 21.020934,6.28234031 21.3502415,6.14412238 C21.3502415,6.14412238 21.9812131,6.30166398 21.817767,6.56870639 C21.8446055,7.02469136 21.4884595,6.71953838 21.4465915,6.56870639 Z M22.6239936,9.36661299 C22.7643586,8.92324208 23.3703704,9.11352657 23.3703704,9.11352657 C22.7686527,9.74718196 23.7823403,11.6484165 24.1623725,12.250671 C23.5601181,11.9975845 23.3070317,11.2997853 22.961621,10.4538379 C22.9645733,10.8757381 22.9584004,10.9828234 22.9973162,11.6484165 C22.5284487,10.9514224 22.4828234,9.81025228 22.6239936,9.36661299 Z M28.6615674,11.2557703 C28.7885132,11.3513151 29.3660762,11.496511 29.8985507,11.3947933 C29.8985507,11.3947933 29.6513688,11.866613 28.4100913,11.866613 C28.0284487,11.866613 27.6017177,11.7066559 27.5848094,11.1908213 C27.5638755,10.5177134 28.5346216,11.1610306 28.6615674,11.2557703 Z M35.2034353,7.98067633 C36.2852925,7.8424584 36.4111648,8.5668277 36.4111648,8.5668277 L36.3094471,8.5668277 C36.2082662,8.5668277 35.3794954,8.32045089 35.0775631,8.36876006 C34.7756307,8.41626409 34.18438,8.72302738 34.1341922,8.76435856 C34.0837359,8.80568975 33.945518,8.69779925 33.945518,8.69779925 C33.945518,8.69779925 34.1215781,8.11916264 35.2034353,7.98067633 Z M35.6688137,8.58454106 C35.9288782,8.52683843 36.1669351,8.62399356 36.263285,8.67257112 C36.2756307,8.67874396 36.2839506,8.68330649 36.291197,8.68733226 C36.2920021,8.68733226 36.2925389,8.68733226 36.2933441,8.68733226 L36.3094471,8.69779925 C36.3094471,8.69779925 36.3022008,8.6935051 36.291197,8.68733226 C35.8480945,8.71497585 35.7820719,8.67257112 35.6688137,8.58454106 Z M34.8722491,9.32850242 C34.7047772,9.33011272 34.5367687,9.4777241 34.5367687,9.4777241 L34.1969941,9.22624799 C34.1969941,9.22624799 34.2850242,9.12560386 34.4235105,9.09044552 C34.5617284,9.05528717 34.6489533,9.0617284 34.8722491,9.32850242 Z M36.7928073,9.32850242 C36.4567901,9.27965647 36.2224906,9.15083199 35.6688137,9.13821793 C35.1154053,9.12560386 35.3545357,9.28904992 34.8722491,9.13821793 C34.3904992,8.98711755 34.6876006,9.05018787 34.6500268,8.87385937 C34.6121846,8.69779925 35.6814278,8.76086957 36.1846484,8.87385937 C36.687869,8.98711755 36.8934514,8.95249597 37.1156736,9.13821793 C37.6441224,9.57836822 37.1282877,9.37707998 36.7928073,9.32850242 Z M37.6315083,10.031401 C37.6315083,10.031401 37.6315083,10.031401 37.6315083,10.0942029 C37.6315083,10.1572732 37.266774,10.0187869 36.9017713,9.84272678 C36.537037,9.66666667 35.7318841,9.6540526 35.5053677,9.75469673 C35.2788513,9.85534085 35.2788513,10.044015 35.0399893,9.90552872 C34.6374128,9.57836822 35.0526033,9.57836822 35.3293076,9.54079442 C35.6060118,9.50295223 35.2160494,9.41492217 35.794686,9.33950617 C36.3733226,9.26409018 36.9017713,9.60359635 37.1661299,9.67901235 C37.4302201,9.75469673 37.6188943,9.86795491 37.6315083,10.031401 Z M37.9922169,11.2012882 C37.9922169,11.2012882 37.9847021,11.1301664 37.9082126,11.2012882 C37.831723,11.2726785 37.2791197,10.8365539 36.8641975,10.7871712 C36.449007,10.7380569 35.6186259,10.5346216 35.5933977,10.3207193 C35.5681696,10.106817 36.4111648,10.3711755 36.4111648,10.2200751 C36.4111648,10.0692432 36.0085883,10.0815888 36.0085883,10.0187869 C36.2477187,9.85534085 36.8641975,10.2453033 37.4302201,10.4841653 C37.9962426,10.7232958 37.9586688,10.9371981 37.9922169,11.2012882 Z M38.3612453,11.9310252 C38.3988191,12.0821256 37.8829844,11.7801932 37.8939882,12.0442834 C37.9049919,12.3083736 38.7385937,12.4342458 38.5625335,13.0002684 C38.4366613,13.2141707 37.493022,12.3462158 36.8765432,12.1323135 C36.2603328,11.9184112 36.1720344,12.0064412 36.0590446,11.6038647 C35.9457864,11.2012882 37.1784756,12.0316694 37.3043478,11.7171229 C37.4302201,11.4025765 35.9584004,11.2012882 35.870102,10.9240472 C35.7820719,10.6468062 36.3483629,10.849168 36.6392915,11.0252281 C36.5778315,10.7987118 36.9898014,10.9873859 37.4680623,11.2517445 C37.9460548,11.5158347 38.3234031,11.7801932 38.3612453,11.9310252 Z M38.7007515,14.5982287 C38.9020397,14.8497048 39.115942,15.2648953 39.0783682,15.3781535 C39.0783682,15.3781535 39.0582394,15.2292002 39.040526,15.3781535 C39.0225443,15.5268384 38.3360172,14.8370907 37.5276436,14.4471283 C36.71927,14.0571659 36.524423,13.7804616 36.6392915,13.5161031 C36.7538916,13.2520129 37.7823403,13.9439077 37.8939882,13.7552335 C38.0056361,13.5665593 37.4302201,13.3274289 37.1282877,13.2015566 C36.8263553,13.0759528 36.2351047,12.7614063 36.317767,12.4970478 C36.400161,12.2329576 37.1535158,12.547504 37.8939882,12.9753086 C38.6347289,13.4028449 38.9272678,13.8811057 38.8392378,14.0697799 C38.7512077,14.2584541 38.3738594,13.8684917 38.3234031,13.9943639 C38.2732152,14.1199678 38.4994632,14.3464842 38.7007515,14.5982287 Z M39.0657542,16.8752013 C39.3926463,17.2903918 39.3424584,17.8942566 39.3424584,17.8942566 C39.3392378,17.9949007 38.952496,17.6929683 38.3486312,17.0764895 C37.7447665,16.4600107 36.4111648,16.1202362 36.7257112,15.5920558 C37.0402576,15.0636071 37.7699946,16.0195921 37.9946323,15.7428878 C38.2195384,15.4661836 36.4865808,14.6862587 36.6502952,14.4471283 C36.8137413,14.2079979 37.8580247,14.8623188 38.310789,15.1894793 C38.7638218,15.5163714 39.3046162,16.1454643 39.2418143,16.2839506 C39.1790123,16.4221685 38.87708,16.1328502 38.7764359,16.2085346 C38.6757917,16.2839506 38.7385937,16.4600107 39.0657542,16.8752013 Z M36.5118089,20.6492217 C36.1596887,20.4983897 36.5118089,20.3725174 36.5118089,20.0705851 C37.266774,20.0705851 38.7007515,21.6583468 38.7007515,21.6583468 L38.298175,21.9575953 C38.298175,21.680891 36.8641975,20.8003221 36.5118089,20.6492217 Z M37.34219,22.335212 C36.9143854,22.410628 36.5622652,22.2345679 36.8641975,22.1086957 C37.1661299,21.9828234 37.34219,22.335212 37.34219,22.335212 Z M36.6376812,21.5550188 C36.461621,21.4796028 36.0590446,20.9763822 36.6376812,21.1274826 C37.2163178,21.2783145 38.071927,22.2176597 38.071927,22.2176597 L37.7699946,22.2176597 C37.7699946,22.2176597 36.8137413,21.6307032 36.6376812,21.5550188 Z M39.103328,21.4041868 C38.8266237,21.5802469 38.222759,20.6492217 37.9130435,20.4229737 C37.6030596,20.1964573 36.0590446,19.4919485 36.3556092,19.0641439 C36.6519055,18.6363392 37.6693505,19.9197531 38.0037574,19.7434246 C38.3376275,19.5673645 36.3859367,18.7874396 36.537037,18.435051 C36.687869,18.0829308 37.5182501,18.8376275 38.3234031,19.4165325 C39.1285561,19.9951691 39.5563607,20.6242619 39.4557166,20.7750939 C39.3550725,20.9261943 38.9272678,20.4731616 38.8518519,20.6492217 C38.7764359,20.8255502 39.2176597,21.3311863 39.103328,21.4041868 Z M39.469941,19.8856683 C39.469941,19.8856683 39.1285561,19.7310789 38.071927,18.6615674 C37.668277,18.2538916 36.3105207,17.629898 36.5118089,17.2777778 C36.7130972,16.9253892 37.5687064,17.8311863 37.6441224,17.6049383 C37.7195384,17.3784219 36.6376812,16.7745572 36.7509393,16.5732689 C36.8641975,16.3719807 37.6943103,17.0512614 38.2479871,17.479066 C38.8013956,17.9068706 39.6065486,18.5107354 39.4777241,18.7120236 C39.3486312,18.9133119 38.6505636,18.1331186 38.5751476,18.3448739 C38.4994632,18.5568975 39.6945786,19.4667203 39.469941,19.8856683 Z M39.9589372,17.5292539 C39.6317767,14.7364466 38.9855072,7.69511541 35.2034353,7.69511541 C34.0815888,7.69511541 33.945518,8.8236715 33.3593666,8.69377348 C32.7984434,8.57004831 33.0061728,7.75120773 32.9892646,7.18813741 C32.9892646,7.18813741 33.1653247,5.8545357 34.4989265,5.87976382 C35.8325282,5.90499195 36.1596887,6.73537305 36.1846484,7.16290929 C36.2098765,7.5907139 36.7885132,8.04374665 36.9143854,7.18813741 C37.0402576,6.33279656 36.2603328,4.94873859 34.826087,4.7979066 C33.3918411,4.64680623 32.3601718,5.50241546 32.3601718,5.50241546 C32.3601718,5.50241546 33.1905529,3.84165325 32.7377885,2.88566828 C32.2847558,1.92941492 31.9009662,1.47665056 30.0547504,1.35077831 C29.5171766,1.25013419 29.3158884,1.0993022 29.2906602,0.772141707 C29.2654321,0.444981213 29.1900161,0.294149222 28.8628556,0.344337091 C28.5356951,0.394793344 28.9634997,0.853998926 28.6615674,0.88835212 C28.359635,0.922973698 28.359635,-0.184111648 27.7305421,0.0928609769 C27.7305421,0.0928609769 26.8752013,0.872785829 28.435051,1.62748256 C29.3408481,2.10574342 29.4855072,1.57729469 30.0547504,1.95464305 C30.2026302,2.07380569 29.9951691,2.49033816 30.1964573,2.59983897 C30.6996779,2.78502415 30.7938808,2.07944176 31.8319914,2.76918948 C32.1446592,3.02147075 31.8319914,3.61540526 31.8319914,3.84165325 C31.8319914,3.84165325 31.1524423,2.63392378 30.6492217,3.21282877 C30.1460011,3.79146538 31.0016103,3.640365 31.2281267,4.09339775 C31.4543747,4.5461621 29.9049919,6.66183575 30.7249061,8.21980676 C31.2281267,9.17579173 32.3099839,9.7294686 32.3099839,9.7294686 C32.3099839,9.7294686 31.0203972,11.0378422 30.0547504,11.0378422 C29.2308105,11.1637144 27.6814278,10.0230811 27.0010735,10.5598497 C26.4914117,10.9624262 26.6865271,11.3365539 27.1017177,12.1951154 C27.1017177,12.1951154 25.7208803,12.6733763 24.9519592,12.0442834 C24.1830381,11.4151906 24.1073537,10.7860977 24.3338701,10.7611379 C24.5603865,10.7359098 24.8118626,11.742351 25.5920558,11.2643586 C24.3338701,10.7611379 25.4914117,10.4592056 24.7112185,9.88030059 C24.7112185,9.88030059 23.9565217,9.4777241 23.6798175,10.1572732 C23.2520129,9.25147611 24.7869028,9.07514761 24.2836822,8.34567901 C24.2836822,8.34567901 24.0571659,7.86741814 23.5539452,8.37063875 C23.0968867,8.65593129 22.8494364,8.571927 22.8494364,8.571927 C22.8494364,8.571927 23.3542673,7.56548578 22.6239936,6.7603328 C21.893183,5.95517982 21.2893183,5.7791197 21.0630703,6.10628019 C20.6604938,6.65968867 21.6918948,6.7603328 21.3899624,7.23859367 C21.3899624,7.23859367 21.2893183,7.5907139 20.7359098,7.56548578 C21.1384863,7.86741814 21.6669351,7.99329039 21.5158347,8.84889962 C21.3650027,9.70424047 21.0630703,9.75469673 20.8617821,9.7294686 C20.6604938,9.70424047 20.2579173,9.77965647 20.5598497,8.99973162 C20.8617821,8.21980676 20.4339775,8.16935051 20.1320451,8.11916264 C19.8301127,8.06870639 19.1003757,8.54696726 19.5281804,9.35212024 C19.4527644,9.60359635 19.2010199,10.0061728 18.6476114,10.1320451 C18.5971551,9.77965647 18.3706388,8.17418143 18.9495437,8.00805153 C19.5281804,7.8424584 18.8488996,7.34648417 18.3958669,7.69511541 C17.9431025,8.04374665 17.8424584,7.18813741 18.7732152,6.38298443 C18.9243156,6.23215244 18.4452496,5.50241546 17.7788513,6.08105207 C17.1127214,6.65968867 17.1127214,7.54777241 17.1127214,7.69511541 C16.6596887,7.56548578 15.3263553,7.43988191 15.4017713,8.77321524 C15.0746108,8.97450349 14.1940419,9.22624799 14.5713902,9.77965647 C14.9487386,10.3333333 14.5212024,11.4906065 13.0869565,11.0630703 C13.3134729,10.7860977 13.7160494,9.7294686 12.608964,9.60359635 C11.8073001,9.6540526 11.6274826,9.93075684 11.6274826,9.93075684 C11.6274826,9.93075684 12.030059,10.3081052 11.8539989,10.7106817 C11.6779388,11.1132582 10.319109,11.4151906 7.8030059,9.57836822 C8.68384326,9.02495974 9.16183575,8.42109501 8.80944713,7.23859367 C8.45732689,6.05582394 9.1113795,5.37144391 9.53918411,5.14761138 C9.33789587,4.72249061 9.23725174,4.8733226 8.88513151,4.89855072 C8.98577563,4.62184648 9.16183575,4.26945786 8.9605475,4.14358561 C8.75925926,4.01798175 8.40687064,4.30085883 8.33145464,4.65002684 C8.15539452,4.64680623 7.8030059,3.99275362 8.20558239,3.56494901 C8.60815888,3.13714439 9.46376812,3.26301664 9.71524423,3.46430488 C9.96698873,3.66559313 10.97343,3.30703167 10.243693,2.76918948 C10.9482018,2.68438003 13.2377885,2.9863124 12.5837359,0.545625335 C12.2565754,0.948201825 12.0805153,1.04884595 12.0805153,1.04884595 C12.0805153,1.04884595 12.0050993,0.721685454 11.4012346,0.772141707 C11.4012346,1.0993022 11.6355341,1.70316694 10.8644659,1.97987118 C10.092861,2.25657542 8.15539452,2.15593129 7.57648953,2.88566828 C6.99785293,3.61540526 6.87198068,5.7037037 7.17391304,6.35775631 C6.62050456,5.82957595 5.68947933,5.45195921 4.83413849,5.7791197 C3.97852925,6.10628019 2.9468599,6.81078905 2.92190016,8.39586688 C2.79602791,8.79844337 2.64492754,9.93075684 3.80246914,9.60359635 C3.1986044,10.3333333 1.11030596,12.3209877 0.481213097,20.0203972 C0.481213097,20.0203972 -0.525228127,27.7447665 1.48765432,28.222759 C1.48765432,28.222759 1.78958669,29.6065486 1.73913043,31.1162104 C1.68894257,32.6258722 1.81481481,34.3118626 3.34943639,34.7646269 C4.02898551,34.9157273 4.28046162,34.9406871 4.30568975,35.670424 C4.33091787,36.400161 4.431562,37.2305421 6.54508857,37.4820183 C6.59527644,37.8845947 8.78341385,44.4264627 20.0182501,44.7031669 C24.0807837,44.8027375 31.1776704,42.287708 33.6937735,35.9471283 C34.5995706,35.5950081 35.4047236,34.7898551 35.4551798,34.1859903 C35.5053677,33.5821256 35.4551798,33.078905 36.7635534,32.7265164 C38.071927,32.3743961 38.9777241,30.1602254 38.1221149,28.7512077 C37.9511541,28.4004294 38.4565217,26.4742351 38.4565217,26.4742351 C38.4565217,26.4742351 39.4809447,26.3105207 39.7071927,25.4047236 C39.9337091,24.4989265 40.2860977,20.3223296 39.9589372,17.5292539 L39.9589372,17.5292539 Z" id="Fill-44"></path>
                </g>
            </g>
        </g>
    </g>
</svg>