<?xml version="1.0" encoding="UTF-8"?>
<svg width="62px" height="70px" viewBox="0 0 62 70" version="1.1" xmlns="http://www.w3.org/2000/svg" xmlns:xlink="http://www.w3.org/1999/xlink">
    <title>Fill 1</title>
    <g id="Pages" stroke="none" stroke-width="1" fill="none" fill-rule="evenodd">
        <g id="Group-2" transform="translate(-769.000000, -25.000000)" fill="#E9B31C">
            <path d="M793.808187,34.0034645 C792.737521,32.4569245 791.474684,31.0596809 789.840201,30.0391347 C787.799574,28.7650639 785.609052,28.2544917 783.240651,28.8773353 C781.542621,29.3238284 780.135074,30.2111645 779.254519,31.7881487 C778.514285,33.1138683 778.723406,34.5180251 779.791081,35.5892895 C780.51463,36.3152978 781.410608,36.7463694 782.369202,37.0374508 C785.219592,37.902984 788.135856,37.8271393 791.058901,37.5857127 C791.139265,37.5791319 791.234121,37.5037526 791.285969,37.4336245 C792.120859,36.3055929 792.949833,35.1731077 793.808187,34.0034645 M794.672457,37.538451 C795.386434,37.5739471 796.032942,37.6208099 796.680181,37.6353673 C798.230111,37.6701987 799.789347,37.6526501 801.308766,37.9907272 C803.706548,38.5242323 805.911893,39.5090165 807.792588,41.1124566 C809.940967,42.944029 810.547724,45.2805234 809.875425,47.9808862 C809.421553,49.804083 808.546448,51.4426204 807.612648,53.0541036 C806.710223,54.611545 805.607451,56.0219501 804.497167,57.4340835 C802.289961,60.2412669 800.733583,63.3789496 800.053773,66.9008411 C799.155203,71.5558826 799.440435,76.0908089 801.825853,80.3006202 C803.74005,83.6788655 806.410234,86.3061089 809.98989,87.9237076 C811.738439,88.7138615 813.591548,89.027211 815.500162,89.1285809 C817.082596,89.2126681 818.570242,88.8178238 820.059616,88.3900759 C820.140047,88.36701 820.227192,88.2374559 820.24268,88.1457909 C820.271861,87.9734952 820.250923,87.7926911 820.250923,87.61541 C820.250923,78.2970181 820.250923,68.9785597 820.250856,59.6601013 C820.250856,59.5397868 820.250856,59.4194723 820.250856,59.2635952 C818.49792,59.258211 817.251369,58.0908944 815.753287,57.3460744 L815.753287,57.7958912 C815.753287,64.532706 815.734077,71.2695208 815.762062,78.0061361 C815.774226,80.9372236 814.436475,83.0552907 812.028922,84.577236 C810.545131,85.5151574 808.897089,85.7921466 807.123148,85.6878519 C807.276432,85.442171 807.413897,85.2211512 807.551893,85.0005303 C808.034945,84.2286563 808.246526,83.3899113 808.245595,82.4773157 C808.238084,75.4082069 808.241674,68.3390316 808.241807,61.2698563 C808.241807,61.1159069 808.241807,60.9619575 808.241807,60.7306346 C807.266395,61.2261176 806.338178,61.6976707 805.377324,62.1857754 C805.063709,61.5155372 804.757206,60.8603216 804.437475,60.1769884 C810.032632,57.1569613 815.606517,54.1485003 821.105222,51.1805209 C821.769478,51.9527273 822.361279,52.7292545 823.045344,53.4134518 C823.895322,54.2635636 824.94392,54.7698151 826.160492,54.9023605 C826.689278,54.9599253 827.168209,54.8118255 827.637037,54.6179928 C828.287932,54.3487808 828.927194,54.0513181 829.64044,53.7353762 C828.994863,55.2384434 828.100414,56.4766193 826.923326,57.5155118 C825.730684,58.5680976 824.376913,59.2650576 822.752534,59.398733 L822.752534,87.3258575 C823.357962,87.0653533 823.937333,86.8590904 824.476621,86.576318 C826.385833,85.5751152 828.02437,84.2047263 829.595239,82.7475248 C829.892834,82.4713997 830.181855,82.1859685 830.474798,81.904858 C830.510826,81.9243343 830.546787,81.9438106 830.582815,81.9633534 C830.146093,82.9726659 829.744003,83.9986628 829.266268,84.9881665 C827.80807,88.0086589 825.547287,90.2871897 822.717237,92.0507611 C820.65062,93.3386581 818.488149,94.3909115 816.070559,94.7758515 C814.918664,94.959248 813.734662,95 812.565086,95 C810.444626,95.0012584 808.349159,94.7422166 806.296102,94.1816573 C801.264363,92.8078119 797.512013,89.7742909 794.842293,85.3455205 C792.54648,81.5370014 791.630827,77.4005753 791.950425,72.976325 C792.064956,71.3914306 792.362419,69.8415005 792.793158,68.3147028 C792.819813,68.21998 792.84474,68.124792 792.884025,67.9798828 C791.952286,67.674377 791.036234,67.3545797 790.108416,67.0733362 C787.449465,66.2672955 784.736539,65.752602 781.953951,65.6746302 C777.393831,65.5467379 773.158162,66.6160746 769.330832,69.1561732 C769.25173,69.2086861 769.168241,69.2544854 769.086746,69.3034089 C769.057831,69.2823372 769.028915,69.261332 769,69.2402604 C769.438251,68.5061424 769.838479,67.7459675 770.321399,67.0424932 C772.215588,64.2833691 774.806538,62.3925036 777.866714,61.1155745 C781.209131,59.7207904 784.710216,59.1886812 788.314068,59.2672512 C791.470297,59.3360498 794.53599,59.8955455 797.497256,61.0053638 C797.586395,61.0387992 797.760552,61.0276984 797.806218,60.9686712 C799.375425,58.9386796 801.218563,57.1179422 802.490906,54.8612142 C803.186138,53.6282232 803.72177,52.333679 803.895462,50.9173578 C804.140411,48.9196052 803.494302,47.2988159 801.800726,46.1509092 C800.573518,45.3191437 799.180728,44.9348685 797.739812,44.6990255 C795.438814,44.3223945 793.127778,44.38428 790.815879,44.5711331 C790.725011,44.5784451 790.59898,44.6411283 790.559828,44.7152447 C790.375368,45.0643561 790.215569,45.4264962 790.021537,45.8379585 C790.344392,45.8379585 790.617526,45.835499 790.890527,45.8383573 C792.54063,45.855906 794.191864,45.8442069 795.840571,45.9024364 C797.248584,45.952224 798.640044,46.1460567 799.944426,46.7397855 C801.992166,47.6719238 802.964387,49.6712053 802.421974,51.8588687 C801.990504,53.5989755 801.246881,55.1725031 799.931863,56.4310859 C799.225597,57.1070408 798.405198,57.5868364 797.431116,57.8502653 C797.693149,57.4229162 797.984895,57.043294 798.169887,56.6172743 C798.342249,56.2202364 798.475459,55.7768675 798.492941,55.3484548 C798.521126,54.6590061 798.103548,54.1709679 797.549503,53.8049725 C796.680579,53.2309859 795.692006,52.986435 794.685951,52.8145382 C792.481935,52.4380402 790.257314,52.409723 788.029368,52.4607072 C787.675005,52.4687503 787.320111,52.4813135 786.966213,52.4697474 C786.773178,52.4634325 786.680184,52.5300376 786.590978,52.7046598 C784.808529,56.192584 781.995429,58.4033132 778.206985,59.3370469 C777.51614,59.507282 776.743934,59.5076808 776.034211,59.408305 C774.397535,59.1789762 773.353125,58.0182404 773.088101,56.3014653 C772.797219,54.41738 773.882443,52.9716782 775.85806,52.6104023 C776.616573,52.4717415 777.377479,52.4232169 778.129079,52.6302775 C779.615661,53.0399451 780.38727,54.0972504 780.719896,55.5399609 C780.743826,55.6437903 780.765097,55.7481515 780.79501,55.886347 C781.906157,54.9063488 782.81277,53.8251136 783.456686,52.563473 C782.537709,52.5777645 781.628969,52.6552045 780.729667,52.5942496 C777.813536,52.3964951 775.151794,51.5014482 772.965194,49.4856817 C771.546613,48.1779095 770.735853,46.5773942 770.892793,44.5902106 C770.99423,43.3055707 771.520489,42.1796662 772.255737,41.1452274 C772.555792,40.7229966 772.896129,40.3293488 773.2479,39.8851822 C773.389219,40.2670644 773.497503,40.5993584 773.633172,40.9201528 C774.561056,43.1136658 776.276768,44.378497 778.505777,45.0287271 C780.458461,45.598393 782.468644,45.7145863 784.485474,45.7706887 C785.149597,45.7891015 785.814252,45.7928904 786.477909,45.8204099 C786.666889,45.8282536 786.756361,45.7655704 786.818379,45.5944712 C786.930119,45.2863065 787.061335,44.9851879 787.164965,44.7293367 C786.289926,44.7293367 785.427583,44.7412352 784.565706,44.7268773 C782.638347,44.6947712 780.747947,44.4390531 778.953267,43.6937014 C776.971468,42.8706438 775.427387,41.5741054 774.647669,39.5187215 C773.971781,37.7369367 774.051082,35.9267684 774.644878,34.1475096 C775.779556,30.7470626 778.070584,28.3341252 781.1967,26.6752474 C783.372399,25.5206934 785.714676,25.0716079 788.166301,25.0063988 C792.104174,24.9017052 795.66123,26.0889635 799.015877,28.035732 C799.178468,28.1301223 799.337802,28.2300299 799.514551,28.3369171 C800.129285,27.8333909 800.74475,27.3292 801.374374,26.8133764 C801.932009,27.3267405 802.483129,27.8340556 803.072404,28.3765344 C802.506793,28.9299147 801.976013,29.4755842 801.417448,29.9910754 C799.051772,32.1742852 796.829876,34.4863179 794.963007,37.1204744 C794.881113,37.2360694 794.801214,37.3530603 794.672457,37.538451" id="Fill-1"></path>
        </g>
    </g>
</svg>