<?xml version="1.0" encoding="UTF-8"?> <svg xmlns="http://www.w3.org/2000/svg" xmlns:xlink="http://www.w3.org/1999/xlink" version="1.1" x="0px" y="0px" viewBox="0 0 861.8 584" style="enable-background:new 0 0 861.8 584;" xml:space="preserve"> <style type="text/css"> .st0{display:none;} .st1{display:inline;fill:none;} .st2{fill:#6E171B;} </style> <g id="Layer_3" class="st0"> <polygon class="st1" points="239.7,0 477,0.1 735.6,252.6 735.8,298.6 861.8,298.6 861.8,346.9 628.7,584.1 393.8,584.1 147,340.1 147,298.4 0.1,298.4 0,243.8 "></polygon> </g> <g id="Layer_1"> <g> <path class="st2" d="M678.7,249.4l8.8,8.6v-52.3l-8.8-8.6V249.4z M461.9,37.5l118.6,115.7l14.2-22.1l16-0.3L477.1,0.1l0,0L239.7,0 L0,243.8l0.1,54.6h146.8l0.1,41.7l12.1,12c0,0-3.8-37.8-0.9-91.2c-4.6-0.1-13.5,0-13.5,0H37.4v-1.8L255,37.5H461.9 M861.8,346.9 M393.8,584h234.9l233-237.1l0-48.4H735.8l-0.2-46l-7.4-7.3l-0.1,90.6l92.2-0.2L613,546.6H409.2l-97.2-96.1l-14.5,11.6 c-5.6,1-23.2,1.5-26.8,0.2L393.8,584"></path> </g> <path class="st2" d="M597.9,170.1c8.1-3.1,26-6.8,38.5,6.2c5.9,6.2,7.9,16.7,7.9,20.3s0,19.4,0,19.4L597.9,170.1z"></path> </g> <g id="Layer_2"> <path class="st2" d="M358.8,111.3c0,0-14.7-14.2-41.2-18.7c-26.5-4.4-45.2-2.5-45.2-2.5L178.2,183c0,0-14.7,55-14.2,122.2 c0.5,67.3,8.8,93.8,29,117.8c20.1,24.1,43.2,31.4,64.8,32.9c21.6,1.5,35.8,0,35.8,0s32.9-22.6,47.6-39.3 c14.7-16.7,29.9-34.9,29.9-34.9v-7.8l-9.3-12.2l-19.1,12.7l0.5,24.1c0,0-18.2,18.7-38.3,21.6c-20.1,2.9-39.3,6.4-63.3-11.8 c-24.1-18.2-33.9-57.4-34.9-123.7c-1-66.3,13.9-114,21.6-125.8c7.7-11.8,15.8-20.6,26.1-27.2c10.3-6.6,13.3-8.5,26.9-8.5 c13.6,0,30.5,2.6,43.1,11.4c10.5,7.4,23.9,38.3,25.8,42.3h6.6l-7-58.5L358.8,111.3z"></path> <polygon class="st2" points="305.5,146.5 278.7,181.6 283.1,181.6 283.1,355.6 298.4,371 303.5,371 319.9,354.3 319.9,349.1 318.2,349.1 313.7,353.4 309.5,353.3 309.5,146.5 "></polygon> <polygon class="st2" points="344.6,247.3 327.4,261.6 327.4,356.2 338.8,369.5 363.9,354.1 373.8,369.5 380.3,369.5 399.6,347.8 399.6,337.7 397.1,337.7 397.1,345.6 387.2,354.8 387.2,247.3 381.2,247.3 365,269.7 365,346.2 350.5,356.4 349.4,247.3 "></polygon> <path class="st2" d="M455.4,240l-25.6,16.2l-1-108.2h-2.9L402,179.4l2.3,165.8c0,0,5.2,13.7,8,17.9c2.8,4.2,9.8,8.5,16.4,8.5 c6.6,0,19.2-1.8,29.1-14.2c6.3-7.9,9.2-12,9.2-12v-93.9L455.4,240z M445.7,346.3c0,0-3.2,4.8-5.2,7.1c-2,2.3-4.9,6.1-7.4,6.1 c-2.5,0-3.7,0-3.7,0v-91.4c0,0,3-3.9,6-6.9c3.3-3.2,5.8-4.4,7.1-4.4c1.3,0,3.1,1.3,3.1,1.3V346.3z"></path> <polygon class="st2" points="721.7,139.7 717.8,139.7 684.4,184.1 684.5,188.4 692.2,188.4 691.6,351.6 682.1,363.1 668.3,364.2 668.3,368.3 728.5,368.3 728.5,363.1 723.8,362.4 "></polygon> <polygon class="st2" points="537.9,139.7 534,139.7 500.6,184.1 500.7,188.4 508.4,188.4 507.8,351.6 498.2,363.1 484.5,364.2 484.5,368.3 544.7,368.3 544.7,363.1 539.9,362.4 "></polygon> <path class="st2" d="M674.1,175.5c0,0-3.9-11.4-14.9-23.1c-11-11.8-24.1-16-24.1-16H599l-47.2,72.4l1.7,123.9c0,0,6.6,18.7,12.5,27 c5.9,8.3,20.4,19.9,32.9,20.6c12.5,0.7,28-1,28-1l47.3-57.7V175.5z M640.9,345.6c-4,5-5.2,8.1-20.2,8.7 c-15.1,0.6-23.2-8.8-27.6-13.6c-4.4-4.8-10.9-16.9-10.9-16.9l-3.3-142.1c0,0,0.9-4.4,7.7-11.6c8.9-9.4,22.8-10.7,31.8-10.1 c9,0.6,16.9,5.7,21,9.6c4.1,3.9,10.5,13.6,10.5,19c0,5.3,2,142.1,2,142.1S645,340.7,640.9,345.6z"></path> </g> </svg> 