<?xml version="1.0" encoding="utf-8"?>
<!-- Generator: Adobe Illustrator 24.2.1, SVG Export Plug-In . SVG Version: 6.00 Build 0)  -->
<svg version="1.1" id="Layer_1" xmlns="http://www.w3.org/2000/svg" xmlns:xlink="http://www.w3.org/1999/xlink" x="0px" y="0px"
	 viewBox="0 0 1136.5 211.2" style="enable-background:new 0 0 1136.5 211.2;" xml:space="preserve">
<style type="text/css">
	.st0{fill:#032753;}
	.st1{fill:#FFFFFF;}
</style>
<rect x="-38.9" y="-64" class="st0" width="1261.7" height="301.8"/>
<g>
	<g>
		<defs>
			<rect id="SVGID_1_" x="11.8" y="5.9" width="345.2" height="159.3"/>
		</defs>
		<clipPath id="SVGID_2_">
			<use xlink:href="#SVGID_1_"  style="overflow:visible;"/>
		</clipPath>
	</g>
</g>
<g>
	<g>
		<path class="st1" d="M416.6,53.4v1.9c-1.2,0.3-2.5,1-3.8,2.2s-2.5,3.2-3.6,6l-22,56.6c-0.1,0-0.3,0-0.4,0c-0.1,0-0.3,0-0.4,0
			c-0.1,0-0.3,0-0.4,0c-0.1,0-0.3,0-0.4,0l-22.8-58.8c-0.9-2.4-2-3.9-3.2-4.7c-1.2-0.8-2.3-1.2-3.3-1.3v-1.9
			c1.3,0.1,2.8,0.1,4.6,0.2c1.8,0.1,3.6,0.1,5.4,0.1c2.4,0,4.7,0,6.8-0.1s3.8-0.1,5.1-0.2v1.9c-3.2,0.1-5.2,0.7-6,1.6
			s-0.7,3,0.5,6.2l17.4,46.1l-1.5,1.6l16.3-42.3c1.3-3.4,1.9-6,1.9-7.9s-0.8-3.3-2.1-4.1s-3.4-1.3-6-1.3v-1.9
			c1.8,0.1,3.6,0.1,5.5,0.2c1.9,0.1,3.6,0.1,5.2,0.1c1.6,0,3,0,4-0.1C414.6,53.5,415.6,53.5,416.6,53.4z"/>
		<path class="st1" d="M443.7,62.8v1.9c-2.1,0.1-3.7,0.3-4.8,0.7c-1.1,0.4-1.8,1.2-2.2,2.2c-0.4,1.1-0.6,2.8-0.6,5.1v37
			c0,2.2,0.2,3.9,0.6,5.1s1.1,1.9,2.2,2.2c1.1,0.4,2.7,0.6,4.8,0.8v1.9c-1.4-0.1-3.2-0.2-5.4-0.2c-2.1,0-4.3-0.1-6.5-0.1
			c-2.4,0-4.7,0-6.8,0.1c-2.1,0-3.8,0.1-5.1,0.2v-1.9c2.1-0.1,3.7-0.4,4.8-0.8c1.1-0.4,1.8-1.1,2.2-2.2c0.4-1.1,0.6-2.8,0.6-5.1v-37
			c0-2.3-0.2-4-0.6-5.1s-1.1-1.8-2.2-2.2c-1.1-0.4-2.7-0.6-4.8-0.7v-1.9c1.3,0.1,3,0.1,5.1,0.2c2.1,0.1,4.4,0.1,6.8,0.1
			c2.2,0,4.4,0,6.5-0.1C440.4,62.9,442.2,62.8,443.7,62.8z"/>
		<path class="st1" d="M508.4,62.8v1.9c-2.1,0.1-3.7,0.4-4.8,0.9s-1.8,1.5-2.2,2.7c-0.4,1.3-0.6,3-0.6,5.3v46.5c-0.4,0-0.7,0-1.1,0
			s-0.7,0-1.1,0l-37.4-51.8v40.5c0,2.2,0.2,4,0.6,5.3c0.4,1.3,1.2,2.2,2.4,2.7s3,0.9,5.5,1v1.9c-1.1-0.1-2.6-0.2-4.4-0.2
			c-1.8,0-3.5-0.1-5.1-0.1c-1.6,0-3.1,0-4.7,0.1c-1.6,0-2.9,0.1-4,0.2v-1.9c2.1-0.1,3.7-0.4,4.8-1c1.1-0.5,1.8-1.4,2.2-2.7
			c0.4-1.3,0.6-3,0.6-5.3V72.7c0-2.3-0.2-4-0.6-5.1s-1.1-1.8-2.2-2.2c-1.1-0.4-2.7-0.6-4.8-0.7v-1.9c1.1,0.1,2.4,0.1,4,0.2
			c1.6,0.1,3.2,0.1,4.7,0.1s3.1,0,4.6-0.1s2.8-0.1,4-0.2l29.8,41.5V73.6c0-2.3-0.2-4.1-0.6-5.3c-0.4-1.3-1.2-2.2-2.4-2.7
			s-3-0.9-5.5-0.9v-1.9c1.1,0.1,2.6,0.1,4.4,0.2c1.8,0.1,3.5,0.1,5.1,0.1c1.6,0,3.2,0,4.8-0.1C506.1,62.9,507.4,62.8,508.4,62.8z"/>
		<path class="st1" d="M544.5,61.5c3.4,0,6.1,0.6,8.3,1.8c2.2,1.2,4.2,2.6,6.1,4.3c2.4,2,3.8,0.4,4.2-4.8h2.2
			c-0.1,2.1-0.2,4.7-0.3,7.7c-0.1,3-0.1,7-0.1,12h-2.2c-0.6-3.4-1.3-5.9-1.9-7.4c-0.7-1.5-1.6-3-2.8-4.6c-1.8-2.4-3.8-4.1-6.3-5.3
			c-2.4-1.2-5-1.8-7.7-1.8c-5.5,0-9.9,2.5-13.2,7.5c-3.3,5-5,11.8-5,20.6c0,6,0.8,11,2.5,15.1s3.9,7.2,6.8,9.3
			c2.8,2.1,6,3.2,9.5,3.2c2.7,0,5.3-0.6,7.8-1.8c2.5-1.2,4.7-3,6.5-5.3c1.3-1.6,2.2-3.3,2.8-5.2c0.6-1.8,1.1-4.4,1.5-7.7h2.2
			c0,5.2,0,9.3,0.1,12.5c0.1,3.2,0.2,5.9,0.3,8h-2.2c-0.3-2.7-0.7-4.4-1.3-5.2c-0.7-0.8-1.6-0.6-2.8,0.4c-1.9,1.6-4,3-6.4,4.3
			c-2.3,1.2-5.2,1.8-8.8,1.8c-5.5,0-10.4-1.1-14.6-3.4c-4.2-2.3-7.4-5.6-9.7-9.9c-2.3-4.4-3.5-9.6-3.5-15.8c0-6,1.2-11.3,3.5-15.9
			s5.7-8.1,9.9-10.6C534.3,62.7,539.1,61.5,544.5,61.5z"/>
		<path class="st1" d="M620.4,62.8c-0.3,2-0.4,3.9-0.5,5.8s-0.1,3.3-0.1,4.3c0,2.4,0.1,4.4,0.3,5.8h-2.2c-0.4-5.2-1.5-8.8-3.2-10.8
			c-1.7-2-4.5-3-8.4-3h-6.8c-2.1,0-3.7,0.2-4.8,0.5c-1.1,0.3-1.8,1.1-2.2,2.2c-0.4,1.1-0.6,2.8-0.6,5.1v37c0,2.2,0.2,3.9,0.6,5.1
			s1.1,1.8,2.2,2.2c1.1,0.3,2.7,0.5,4.8,0.5h6.8c4.6,0,7.9-1.1,9.8-3.4c1.9-2.3,3.2-6.3,3.7-12.2h2.2c-0.2,1.7-0.3,3.9-0.3,6.7
			c0,1.1,0,2.6,0.1,4.7s0.3,4.2,0.5,6.4c-3-0.1-6.5-0.2-10.3-0.2c-3.8,0-7.2-0.1-10.2-0.1c-1.8,0-4.2,0-7.2,0s-6.2,0-9.5,0.1
			c-3.3,0-6.5,0.1-9.5,0.2v-1.9c2.1-0.1,3.7-0.4,4.8-0.8c1.1-0.4,1.8-1.1,2.2-2.2c0.4-1.1,0.6-2.8,0.6-5.1v-37c0-2.3-0.2-4-0.6-5.1
			s-1.1-1.8-2.2-2.2s-2.7-0.6-4.8-0.7v-1.9c3,0.1,6.2,0.1,9.5,0.2c3.3,0.1,6.5,0.1,9.5,0.1s5.4,0,7.2,0c2.7,0,5.8,0,9.3,0
			C614.6,63,617.7,62.9,620.4,62.8z M606.9,90.1v1.9h-17.8v-1.9H606.9z M609.6,80.5c-0.3,2.9-0.4,5-0.3,6.4c0,1.4,0,2.8,0,4
			s0,2.6,0.1,4s0.2,3.6,0.5,6.4h-2.2c-0.2-1.6-0.5-3.1-0.9-4.5c-0.4-1.4-1.2-2.6-2.2-3.6s-2.7-1.4-4.9-1.4V90c2.2,0,3.8-0.6,4.8-1.7
			s1.7-2.4,2.1-3.9s0.7-2.8,0.8-3.9L609.6,80.5L609.6,80.5z"/>
		<path class="st1" d="M688.1,62.8v1.9c-2.1,0.1-3.7,0.4-4.8,0.9s-1.8,1.5-2.2,2.7c-0.4,1.3-0.6,3-0.6,5.3v46.5c-0.4,0-0.7,0-1.1,0
			s-0.7,0-1.1,0L641,68.3v40.5c0,2.2,0.2,4,0.6,5.3s1.2,2.2,2.4,2.7s3,0.9,5.5,1v1.9c-1.1-0.1-2.6-0.2-4.4-0.2
			c-1.8,0-3.5-0.1-5.1-0.1c-1.6,0-3.1,0-4.7,0.1c-1.6,0-2.9,0.1-4,0.2v-1.9c2.1-0.1,3.7-0.4,4.8-1c1.1-0.5,1.8-1.4,2.2-2.7
			c0.4-1.3,0.6-3,0.6-5.3V72.7c0-2.3-0.2-4-0.6-5.1s-1.1-1.8-2.2-2.2s-2.7-0.6-4.8-0.7v-1.9c1.1,0.1,2.4,0.1,4,0.2
			c1.6,0.1,3.2,0.1,4.7,0.1s3.1,0,4.6-0.1s2.8-0.1,4-0.2l29.8,41.5V73.6c0-2.3-0.2-4.1-0.6-5.3s-1.2-2.2-2.4-2.7s-3-0.9-5.5-0.9
			v-1.9c1.1,0.1,2.6,0.1,4.4,0.2c1.8,0.1,3.5,0.1,5.1,0.1c1.6,0,3.2,0,4.8-0.1C685.8,62.9,687.1,62.8,688.1,62.8z"/>
		<path class="st1" d="M747.2,62.8c-0.3,2.2-0.4,4.3-0.5,6.4s-0.1,3.6-0.1,4.7c0,1.5,0,2.9,0.1,4.3s0.1,2.5,0.2,3.4h-2.2
			c-0.3-4.1-0.9-7.4-1.7-9.8c-0.8-2.4-2.2-4.2-4-5.2c-1.8-1-4.4-1.5-7.8-1.5h-6v43.8c0,2.5,0.2,4.4,0.7,5.6c0.5,1.3,1.4,2.1,2.8,2.5
			c1.4,0.4,3.4,0.7,6,0.8v1.9c-1.1-0.1-2.3-0.1-3.9-0.1s-3.1-0.1-4.8-0.1s-3.4-0.1-5-0.1c-1.9,0-3.7,0-5.4,0.1
			c-1.8,0-3.3,0.1-4.8,0.1c-1.4,0-2.7,0.1-3.7,0.1v-1.9c2.6-0.1,4.6-0.4,6-0.8c1.4-0.4,2.3-1.3,2.8-2.5c0.5-1.3,0.7-3.1,0.7-5.6
			V64.9h-6c-3.4,0-6,0.5-7.8,1.5s-3.1,2.8-3.9,5.2s-1.4,5.7-1.8,9.8h-2.2c0.1-1,0.2-2.2,0.2-3.5s0-2.7,0-4.2c0-1.1,0-2.6-0.1-4.7
			c-0.1-2.1-0.3-4.2-0.5-6.4c2.6,0.1,5.5,0.1,8.5,0.2c3.1,0.1,6.2,0.1,9.3,0.1s6,0,8.5,0c2.5,0,5.4,0,8.5,0c3.1,0,6.2,0,9.3-0.1
			C741.8,62.9,744.6,62.8,747.2,62.8z"/>
		<path class="st1" d="M761.4,52.1c1.4,0,2.5,0.3,3.4,0.8c0.9,0.6,1.6,1.3,2.2,2.2c0.7,1,1.1,2.1,1.3,3.3s0.3,2.2,0.3,2.9
			c0,3.1-0.8,5.8-2.3,8.3s-4,4.5-7.3,6.1L758,74c1.9-0.8,3.6-2.1,5-3.8c1.4-1.7,2.1-3.5,2.1-5.3c0-0.8-0.1-1.4-0.3-2
			c-1,0.8-2.2,1.2-3.5,1.2c-1.6,0-3-0.5-4.2-1.6c-1.2-1.1-1.8-2.5-1.8-4.4c0-1.7,0.6-3.2,1.8-4.3C758.3,52.7,759.8,52.1,761.4,52.1z
			"/>
		<path class="st1" d="M797.2,61.5c3.1,0,5.5,0.4,7.1,1.1c1.6,0.7,3,1.5,4.3,2.4c0.8,0.4,1.4,0.8,1.8,1c0.5,0.2,0.9,0.3,1.4,0.3
			c1,0,1.7-1.4,2.1-4.1h2.2c-0.1,0.9-0.1,2.1-0.2,3.4s-0.2,3.1-0.2,5.2s0,5.1,0,8.6h-2.2c-0.2-2.7-0.8-5.2-2-7.7s-2.8-4.4-4.9-6
			c-2.2-1.6-5-2.4-8.5-2.4c-3.3,0-6,0.9-8.2,2.6c-2.2,1.8-3.2,4-3.2,6.6c0,2.4,0.7,4.3,2.1,5.9s3.2,3,5.4,4.2s4.7,2.6,7.3,4.1
			c3.2,1.7,6.2,3.4,8.7,5.1c2.6,1.8,4.6,3.7,6.1,5.8c1.5,2.1,2.2,4.6,2.2,7.4c0,3.5-0.9,6.4-2.6,8.8s-4.1,4.1-7,5.3
			c-2.9,1.2-6.1,1.8-9.6,1.8c-3.3,0-5.9-0.4-7.8-1.1s-3.6-1.5-5-2.3c-0.8-0.5-1.4-0.8-1.9-1s-0.9-0.3-1.3-0.3c-1,0-1.7,1.4-2.1,4.1
			h-2.2c0.1-1.2,0.2-2.6,0.2-4.3c0-1.7,0.1-3.8,0.1-6.4c0-2.6,0-5.9,0-9.9h2.2c0.3,3.4,1,6.6,2.1,9.6c1.2,3,2.9,5.3,5.3,7.1
			c2.4,1.8,5.6,2.7,9.6,2.7c1.9,0,3.7-0.4,5.5-1.1c1.8-0.7,3.2-1.8,4.3-3.4c1.1-1.6,1.7-3.6,1.7-6.1c0-3.3-1.4-6-4.2-8
			c-2.8-2-6.3-4.2-10.7-6.4c-2.8-1.4-5.4-3-7.8-4.6s-4.3-3.5-5.8-5.7s-2.2-4.8-2.2-7.8c0-3.2,0.8-5.9,2.5-8.1
			c1.7-2.2,3.8-3.8,6.5-4.9C791.3,62,794.1,61.5,797.2,61.5z"/>
		<path class="st1" d="M881.2,52.1c4.1,0,7.5,0.6,10.1,1.8c2.7,1.2,5,2.6,7.1,4.3c1.3,0.9,2.2,1,2.8,0.3c0.7-0.7,1.1-2.4,1.3-5.1
			h2.2c-0.1,2.3-0.2,5.1-0.3,8.4c-0.1,3.3-0.1,7.7-0.1,13.1h-2.2c-0.4-2.7-0.8-4.8-1.2-6.4s-0.8-2.9-1.4-4.1
			c-0.5-1.1-1.2-2.2-2.1-3.4c-1.9-2.5-4.4-4.4-7.3-5.6s-6-1.7-9.3-1.7c-3,0-5.8,0.8-8.3,2.3c-2.5,1.5-4.6,3.7-6.4,6.6
			c-1.8,2.9-3.2,6.3-4.1,10.4c-1,4.1-1.5,8.6-1.5,13.7c0,5.2,0.5,9.9,1.6,13.9s2.5,7.4,4.4,10.1s4.1,4.8,6.7,6.2
			c2.6,1.4,5.4,2.1,8.4,2.1c2.8,0,5.7-0.6,8.8-1.7c3-1.1,5.5-2.9,7.2-5.4c1.4-1.8,2.3-3.8,2.8-5.9c0.5-2.1,1-5.1,1.5-8.9h2.2
			c0,5.7,0,10.2,0.1,13.7c0.1,3.5,0.2,6.4,0.3,8.7h-2.2c-0.3-2.7-0.7-4.4-1.3-5.1s-1.6-0.6-2.9,0.3c-2.3,1.6-4.8,3-7.3,4.3
			c-2.6,1.2-5.9,1.8-10,1.8c-5.9,0-11.1-1.3-15.6-4c-4.5-2.7-7.9-6.5-10.4-11.6c-2.5-5.1-3.7-11.1-3.7-18.2c0-7,1.3-13.1,3.8-18.3
			s6.1-9.3,10.5-12.2C870.3,53.6,875.4,52.1,881.2,52.1z"/>
		<path class="st1" d="M938.6,62.8v1.9c-2.1,0.1-3.7,0.3-4.8,0.7c-1.1,0.4-1.8,1.2-2.2,2.2c-0.4,1.1-0.6,2.8-0.6,5.1v37
			c0,2.2,0.2,3.9,0.6,5.1s1.1,1.8,2.2,2.2c1.1,0.3,2.7,0.5,4.8,0.5h5.9c4.1,0,7.4-1.2,9.9-3.7s4-6.7,4.5-12.9h2.2
			c-0.2,1.9-0.3,4.5-0.3,7.7c0,1.1,0,2.6,0.1,4.7s0.3,4.2,0.5,6.4c-3-0.1-6.5-0.2-10.3-0.2c-3.8,0-7.2-0.1-10.2-0.1
			c-1.8,0-4.2,0-7.2,0s-6.2,0-9.5,0.1c-3.3,0-6.5,0.1-9.5,0.2v-1.9c2.1-0.1,3.7-0.4,4.8-0.8c1.1-0.4,1.8-1.1,2.2-2.2
			c0.4-1.1,0.6-2.8,0.6-5.1v-37c0-2.3-0.2-4-0.6-5.1s-1.1-1.8-2.2-2.2s-2.7-0.6-4.8-0.7v-1.9c1.3,0.1,3,0.1,5.1,0.2
			c2.1,0.1,4.4,0.1,6.8,0.1c2.2,0,4.3,0,6.5-0.1C935.4,62.9,937.2,62.8,938.6,62.8z"/>
		<path class="st1" d="M1023.5,62.8v1.9c-2.1,0.1-3.7,0.4-4.8,0.9s-1.8,1.5-2.2,2.7c-0.4,1.3-0.6,3-0.6,5.3v20.7
			c0,4.2-0.3,7.8-0.8,10.8c-0.6,3.1-1.6,5.7-3,8s-3.6,4.2-6.4,5.6c-2.8,1.4-6.1,2.2-9.8,2.2c-2.8,0-5.5-0.3-8-0.9s-4.8-1.7-6.7-3.2
			c-1.8-1.7-3.2-3.5-4.3-5.3c-1-1.9-1.7-4.1-2.1-6.8s-0.6-6-0.6-10.1V72.7c0-2.3-0.2-4-0.6-5.1s-1.1-1.8-2.2-2.2s-2.7-0.6-4.8-0.7
			v-1.9c1.3,0.1,3,0.1,5.1,0.2c2.1,0.1,4.4,0.1,6.8,0.1c2.2,0,4.3,0,6.5-0.1s3.9-0.1,5.4-0.2v1.9c-2.1,0.1-3.7,0.3-4.8,0.7
			c-1.1,0.4-1.8,1.2-2.2,2.2c-0.4,1.1-0.6,2.8-0.6,5.1v23.5c0,3.9,0.3,7.5,0.9,10.8c0.6,3.3,1.9,5.9,3.8,7.8s5,2.9,9.1,2.9
			c4.5,0,8-1,10.4-2.9c2.5-1.9,4.2-4.6,5.1-8c1-3.4,1.5-7.2,1.5-11.4V73.6c0-2.3-0.3-4.1-0.8-5.3c-0.5-1.3-1.4-2.2-2.7-2.7
			c-1.3-0.6-2.9-0.9-5-0.9v-1.9c1.1,0.1,2.6,0.1,4.4,0.2c1.8,0.1,3.5,0.1,5.1,0.1c1.6,0,3.2,0,4.8-0.1
			C1021.3,62.9,1022.5,62.8,1023.5,62.8z"/>
		<path class="st1" d="M1029.8,62.8c1.3,0.1,3,0.1,5.1,0.2c2.1,0.1,4.2,0.1,6.3,0.1c2.7,0,5.4,0,7.9-0.1s4.3-0.1,5.3-0.1
			c6.2,0,10.9,1.2,14.1,3.6c3.2,2.4,4.7,5.5,4.7,9.2c0,2.7-1,5.3-2.9,7.8c-2,2.5-5.4,4.3-10.3,5.7v0.2c4.7,0.6,8.3,1.6,11,3.2
			s4.5,3.4,5.6,5.4s1.6,4.2,1.6,6.4c0,4.5-1.9,8.2-5.7,11c-3.8,2.9-9.1,4.3-15.8,4.3c-1.3,0-3.3-0.1-5.8-0.1
			c-2.6-0.1-5.7-0.1-9.3-0.1c-2.2,0-4.3,0-6.4,0.1c-2.1,0-3.8,0.1-5.1,0.2v-1.9c2.1-0.1,3.7-0.4,4.8-0.8c1.1-0.4,1.8-1.1,2.2-2.2
			c0.4-1.1,0.6-2.8,0.6-5.1v-37c0-2.3-0.2-4-0.6-5.1c-0.4-1.1-1.1-1.9-2.2-2.2c-1.1-0.4-2.7-0.6-4.8-0.7L1029.8,62.8L1029.8,62.8z
			 M1052.1,64.6c-2.5,0-4.1,0.5-4.9,1.6s-1.1,3.2-1.1,6.4v37c0,3.2,0.4,5.3,1.2,6.3s2.4,1.4,4.9,1.4c5.8,0,10-1.2,12.6-3.5
			c2.6-2.3,3.9-5.7,3.9-10.1c0-4.2-1.2-7.5-3.7-9.8c-2.4-2.3-6.4-3.4-12.1-3.4h-8.7v-1.6h7.1c3.4,0,6.1-0.5,7.9-1.6
			c1.8-1.1,3.1-2.6,3.8-4.5c0.7-1.9,1.1-4,1.1-6.3c0-3.9-0.9-6.9-2.8-9C1059.5,65.7,1056.4,64.6,1052.1,64.6z"/>
	</g>
</g>
<path class="st0" d="M47.7,0.1v160.9h287.5V0.1H47.7z"/>
<path class="st1" d="M177.8,40.6c-4.3-1.8-8.3-4.8-12.6-6.3c-2-0.7-4.4,0.4-4.5,2.8c0,3.6,6.4,4.8,2.8,9c-3,3.4-6.6,2.2-10.2,3.4
	c-1.5,0.5-2.6,2-2.2,3.7c0.6,2.7,3.5,2.5,5.6,3c2.4,0.6,5.1,2.3,6.1,4.7c1.6,3.8-9,7.1-3.8,10.3c2.5,1.6,5.8-1.2,8.2-2
	c6.2-2.1,13-3.4,19.6-3.4c-6.2,8.8-19.3,12.2-28.7,6.2c-2.7-1.7-5-9.1-8.4-8.4c-3.4,0.7-2.1,4.7-2.6,7.1c-0.6,2.8-2.5,5.6-4.5,7.6
	c-11.2,11.2-28.4-0.6-37-9c1.6,0,3.3-0.1,4.9,0c1.4,0.1,2.8,0.8,4.2,0.9c2.7,0.2,4.2-2.7,2.8-4.9c-1.9-2.9-9.7-2.7-7.5-8.6
	c1.5-4.1,11.1-1.8,9.8-7c-0.8-3.3-3.9-1.7-6.1-2.5c-2.5-1-3-3.6-3.2-5.9c2.4,1,8.4,1.1,6.1-3.3c-1.2-2.2-4.1-1.8-6.1-2.6
	c-1.9-0.9-3.4-2-5.6-2.3c-9-1.2-16.7,6-23.8,10.4c1.5-3.4,2.1-6.9,3-10.5c0.3-1.4,1.3-2.8,1.3-4.2c0.1-1.9-1.6-3.7-3.6-3.5
	c-2.2,0.3-2.9,3.1-4.4,4.4c-1.8,1.5-5.1,2.6-7.5,2.7c-5.8,0.3-4.9-5.9-7.5-8.9c-2.1-2.4-5.8-1.5-7.2,1.1c-2.1,4,2.4,6.2,4.8,8.5
	c1.7,1.6,3,3.6,4.4,5.4c2.3,3.1,5.4,6.2,6.9,9.8c1.2,2.8,0.4,5.7,2.4,8.4c5.4,7.4,12.9,12.4,17,21c5.5,11.7,5.5,24.9,9.4,37.1
	c1.1,3.4,3.7,5.8,5.1,9.1c2.1,5.1,2.5,9.8,6.8,13.9c9,8.6,26,9.7,37.7,11.4c26,3.6,51.6,2.6,77.6,0.7c13.5-1,31.2-2.8,42.7-10.6
	c5.7-3.9,5.9-9.5,8.2-15.3c1.3-3.3,4.2-5.6,5.2-9.1c3.6-11.9,3.8-24.8,8.9-36.4c4-9.2,12.7-14.2,17.8-22.4c1.5-2.3,0.6-4.9,1.6-7.3
	c2.2-5.5,8.1-12.3,12.3-16.3c2.4-2.2,6.3-4.7,3.6-8.4c-1.9-2.5-5.5-2.5-7.4,0c-2.1,2.8-0.9,8.6-6.1,8.5c-2.8-0.1-6.7-1.6-8.7-3.5
	c-1.3-1.2-1.9-3.5-3.9-3.8c-2-0.3-3.5,1.7-3.5,3.6c0.2,4.6,2.8,10.3,4.2,14.7c-6.6-4.7-15-11.7-23.8-10.3c-2.1,0.3-3.7,1.5-5.6,2.3
	c-2,0.8-5.1,0.2-6.2,2.5c-2.2,4.5,3.8,4.4,6.2,3.4c0,2.4-0.7,4.9-3.3,5.9c-2.1,0.8-5.2-0.7-6,2.5c-1.3,5.5,9.1,2.5,10,7.7
	c1.1,5.8-5.6,5.1-7.9,8c-1.3,1.7-0.4,4.1,1.6,4.7c1.6,0.5,3-0.4,4.5-0.7c1.9-0.3,4-0.1,5.9-0.1c-8.6,8.5-25.8,20.1-36.9,9
	c-2-2-3.9-4.8-4.5-7.6c-0.5-2.4,0.8-6.3-2.6-7.2c-3.4-0.8-5.7,6.8-8.4,8.6c-9.5,6.2-22.2,2.1-28.7-6.3c6.5,0.1,13.4,1.3,19.6,3.3
	c2.4,0.8,5.7,3.5,8.3,2.2c2-1,2.1-3.6,0.5-5c-1.9-1.7-6-1.6-4.4-5.4c1-2.4,3.7-4.1,6.1-4.7c2.1-0.6,5.1-0.3,5.8-3
	c0.4-1.7-0.8-3.2-2.3-3.7c-3.7-1.3-8-0.2-10.7-4.1c-2.5-3.7,3.3-4.9,3.3-8.2c0-2-1.9-3.3-3.8-3c-1.8,0.3-3.3,1.9-4.9,2.7
	c-2.7,1.4-5.6,2.6-8.4,3.8c1.9-4.1,4.4-8.2,7-11.9c1.1-1.4,2.7-2.7,3.4-4.3c1-2.1-0.2-4.7-2.8-4.5c-4.8,0.5-7.7,11.3-14.1,7.4
	c-2.6-1.6-4.6-5.4-4.2-8.4c0.3-1.9,1.6-3.6,1.2-5.6c-0.5-2.7-3.3-4.6-6-3.7c-5,1.8-2,5.8-1.8,9.3c0.2,2.6-1.4,6.3-3.4,7.9
	c-5.2,4.1-10-3.4-13.3-6c-1.6-1.2-4.1-1.1-4.8,1.1c-0.9,2.5,1.9,4.5,3.2,6.3C173.2,31.9,175.9,36.2,177.8,40.6z"/>
<path class="st0" d="M191.1,26.7c-1.9,2.8-6,8.7,0,9.7c1.3,0.2,2.8,0.1,4.2,0.1c1.1-4.5-0.1-6.2-2.8-9.8H191.1 M179.2,33l4.9,9.1
	h1.4c0.9-3.4-0.5-5.8-1.4-9.1H179.2 M199.5,33c-0.8,3.3-3.7,7.6,0.7,9.1c1-3.2,2.9-6,4.2-9.1H199.5 M304.4,34.3c1,3.2,2,6.5,2.8,9.8
	c2.6-1.6,4.2-4.3,5.6-7C309.8,36.5,307.2,35.5,304.4,34.3 M70.8,37.1c1.4,2.8,3.1,5.1,5.6,7c0.7-3.1,1.8-5.9,2.1-9.1
	C75.9,35.8,73.5,36.7,70.8,37.1 M101.6,44.1c-1.9,2.6-4.8,4.1-6.3,7c1.2-0.1,8.5-1.9,8,0.6c-0.5,2.2-6.1,2.8-8,3.6v1.4
	c0.9,0.3,8.1,3.4,4.1,4.2c-2.8,0.5-5.3-1.9-8.2-1.4c4.2,3.9,10.5,5.4,16.1,5.6c-1.9-6.5-3.1-9.3,2.1-14.7c-2.9-4.4-3.9-6.8-2.1-11.9
	c-5.5-1.3-9.9,0.3-14.7,3c-1.4,0.8-6.5,4-3.2,5.7C93,49.1,97.6,43.9,101.6,44.1 M276.4,38.5c1.7,4.8,1.4,7.4-2.1,11.2
	c1.6,2.3,4.3,4.7,4.5,7.7c0.2,2.7-1.6,5.3-2.4,7.7c5.4-0.2,13.2-1.2,16.1-6.3c-2.5,0.4-5.1,2.2-7.6,2.2c-1.5,0-2.3-1.2-1.1-2.3
	c1.1-1.1,3.1-1.5,4.6-2v-1.4c-2.9-1.2-6.1-1.8-9.1-2.8c2.6-2.9,5.5-1.8,9.1-1.4c-1.5-2.9-4.3-4.4-6.3-7c3.7-0.2,9,5.1,12.3,2.8
	c2.7-1.9-1.8-4.6-3.2-5.4C286.4,38.7,281.8,37.3,276.4,38.5 M177.8,40.6l0.7,0.7L177.8,40.6 M205.1,40.6l0.7,0.7L205.1,40.6
	 M170.1,42.7c-0.4,4.8-3.9,8.3-8.4,9.8c3.3,3.5,6.5,6.2,7,11.2c2.6-0.5,5.1-1.2,7.7-1.4c-0.8-0.7-1.1-0.9-2.1-1.4
	c1.5-2.1,3.1-4,4.2-6.3c-4.5,1.1-9,1.1-13.3-0.7c4.3-3.1,8.7-0.7,13.1-2.7c3.1-1.4,1.7-4-0.6-5.3c-0.9-0.5-1.8-0.9-2.8-1.3
	C173.4,43.9,171.9,43.2,170.1,42.7 M218.4,53.2c-3.9,2.8-8.8,2.5-13.3,1.4c1.1,2.3,2.7,4.2,4.2,6.3l-2.1,0.7
	c2.4,1.1,5.1,1.6,7.7,2.1c0.7-4.8,3.2-7.6,7-10.5c-3.8-3.2-7.8-5.1-8.4-10.5c-1.5,0.4-2.8,0.9-4.2,1.6c-0.9,0.4-1.9,0.9-2.8,1.4
	c-2.5,1.4-4.4,4.2-0.7,5.7C209.8,53,214.3,51.5,218.4,53.2 M185.5,46.9v1.4c1.8,1,3.5,2,4.1,4.2c0.5,1.8-0.7,4.5,1,5.8
	c1.1,0.8,2.5,0.2,3-1c0.6-1.3,0-2.7,0.2-4.1c0.5-2.5,2.9-4.1,4.8-5.6c-2.5-1.8-4.2-0.2-7-0.2C189.5,47.5,187.8,46.5,185.5,46.9
	 M299.5,47.6c-0.7,4-2.9,9.6-1.4,13.3c2.3-1.6,7.5-5.1,6.7-8.4C304.2,50.3,301.3,48.8,299.5,47.6 M77.8,52.5
	c2.2,3.1,4.9,6.6,8.4,8.4c-0.1-3.8-0.7-9.1-2.1-12.6C81.7,49.4,79.8,50.8,77.8,52.5 M177.1,61.6l9.1-0.7
	C183,58.3,179.7,58.4,177.1,61.6 M197.4,60.2c2.8,1.2,6.1,1.3,9.1,1.4C203.7,58.2,201.2,58.7,197.4,60.2 M89,64.4
	c6.3,10.9,12.2,21.3,13.3,34.3c2.2-0.3,6.2-0.7,7.7-2.6c0.9-1.2,0.7-3,0.7-4.4c0-3.4,1-8.7-0.7-11.8c-1.1-2-3.3-3.4-4.9-5
	C100.2,70.2,95.4,66.8,89,64.4 M281.3,98.7c1.1-8.1,3.5-17.2,7.2-24.5c1.7-3.5,4.5-6.3,6.1-9.8c-6.4,2.3-11.2,5.8-16.1,10.5
	c-1.6,1.5-3.8,3-4.9,5c-1.7,3.1-0.7,8.4-0.7,11.8c0,1.4-0.2,3.2,0.7,4.4C275.2,98.1,279,98.4,281.3,98.7 M196,65.1l0.7,0.7L196,65.1
	 M191.1,67.9c-1.7,2.2-4.3,4.4-5.4,7c-1.4,3.4-0.2,8.9-0.2,12.6h13.3c-1-4,0.7-8.7-0.7-12.5c-1-2.7-3.8-4.8-5.6-7.1H191.1
	 M151.2,73.5c-1.3,2.9-3.5,5.4-4.4,8.4c-0.8,2.6-0.5,5.7-0.5,8.4c7.1-1.7,15.1-2.1,22.4-2.1c0-2.9,0.2-5.6,0.7-8.4
	C162,79.7,157.7,76.2,151.2,73.5 M214.9,79.8v8.4c7.3,0,15.3,0.4,22.4,2.1c0-2.7,0.4-5.8-0.4-8.4c-1-3-3.3-5.5-4.5-8.4
	C226.2,76.2,222,79.8,214.9,79.8 M181.3,77c0,3.6-0.3,7-0.7,10.5C183,85.5,182.5,79.7,181.3,77 M201.6,77v10.5h1.4
	C202.7,84.3,203.5,79.6,201.6,77 M177.1,78.4c-0.9,2.9-0.6,6-0.7,9.1h1.4C177.8,84.5,178.3,81.2,177.1,78.4 M206.5,78.4v9.1
	C207.6,84.9,207.6,81.1,206.5,78.4 M172.2,79.8c0,2.6-0.7,5.9,1.4,7.7C173.2,84.8,173.9,82.1,172.2,79.8 M210.7,79.8v7.7
	C211.7,85.1,211.7,82.2,210.7,79.8 M269.4,81.9v14C270.9,92.4,270.9,85.4,269.4,81.9 M114.2,82.6c0,4.4,0.3,8.9-0.7,13.3
	C116.1,93.6,115.4,85.6,114.2,82.6 M265.2,84v11.2C266.5,92.2,266.5,87,265.2,84 M240.8,84.7v5.6C241.6,88.4,241.6,86.6,240.8,84.7
	 M142.1,85.4v4.9C142.9,88.5,142.9,87.2,142.1,85.4 M121.9,86.1v7.7C122.9,91.4,122.9,88.5,121.9,86.1 M261,86.1v7.7
	C262,91.4,262,88.5,261,86.1 M138.2,87.3c0,0-0.1,0.8,0.2,0.5C138.5,87.7,138.5,87,138.2,87.3 M245,86.8V91
	C245.6,89.4,245.6,88.4,245,86.8 M126.1,87.5v5.6C126.9,91.2,126.9,89.4,126.1,87.5 M130.3,87.5v4.9C131,90.6,131,89.3,130.3,87.5
	 M134.5,87.5v4.2C135.1,90.1,135.1,89.1,134.5,87.5 M252.7,87.5v4.9C253.4,90.6,253.4,89.3,252.7,87.5 M256.9,87.5v5.6
	C257.7,91.2,257.7,89.4,256.9,87.5 M158.2,93.1v2.8l11.2-0.7l-0.7-2.8C165.2,92.7,161.8,93.1,158.2,93.1 M178.5,92.4v2.1h9.1
	C185.5,91.6,181.8,92.4,178.5,92.4 M196.7,92.4v2.1h8.4v-2.1H196.7 M214.9,92.4v2.8l10.5,0.7v-2.8C221.8,93.1,218.4,92.7,214.9,92.4
	 M138.7,98c3.5-0.1,7.1-0.6,10.5-1.4C146.9,93.4,139.9,94.2,138.7,98 M234.5,96.6c3.5,0.9,8.8,2.7,11.2-0.7
	C242.2,95.1,236.8,93.3,234.5,96.6 M118.4,99.4c2.4,3.3,7,1,10.5,0.7v-2.8C125.3,97.6,121.8,98.4,118.4,99.4 M254.8,97.3v2.8
	l9.8,1.4C263.3,97.8,258.2,97.6,254.8,97.3 M158.9,100.1c1.5,3,2,5.1,1.4,8.4c3.7-0.7,7.4-0.7,11.2-0.7c-0.9-2.8-1.4-5.4-1.4-8.4
	C166.4,99.7,162.7,100.1,158.9,100.1 M177.8,99.4v7.7h8.4c-0.5-2.7-0.6-5,0-7.7H177.8 M197.4,99.4c0.8,2.8,0.7,4.8,0,7.7h8.4
	c0-2.6,0.1-5.1,0.7-7.7H197.4 M213.5,99.4c0,2.9-0.3,5.6-0.7,8.4c3.6,0,7,0,10.5,0.7c-0.6-3.3-0.1-5.4,1.4-8.4
	C220.9,100.1,217.3,99.9,213.5,99.4 M103.7,103.6l0.7,2.1l5.6-1.4l-0.7-2.8L103.7,103.6 M138.7,102.9c0.6,2.6,1.3,5,1.4,7.7l9.8-0.7
	c-1.2-3-1.7-5.2-1.4-8.4C145.2,101.7,141.8,102.1,138.7,102.9 M193.9,102.2C188.4,100.9,191.8,107.3,193.9,102.2 M235.2,101.5
	c0.4,3.3,0.1,5.4-1.4,8.4c3.6,0,7,0.5,10.5,1.4c-0.2-2.1,1.1-6.3-0.1-8C242.9,101.4,237.3,101.7,235.2,101.5 M274.3,101.5l-0.7,2.8
	l5.6,1.4l0.7-0.7v-1.4L274.3,101.5 M154.2,103.7c-1.7,0.3-1.2,2.8,0.5,2.6C156.3,106,155.8,103.4,154.2,103.7 M229,103.7
	c-1.7,0.3-1.2,2.8,0.5,2.6C231.1,106,230.7,103.4,229,103.7 M120.5,105.7c1.8,3,2.8,4.9,2.1,8.4c3.5-0.3,7.1-1,10.5-2.1
	c-0.6-2.6-1.3-5-1.4-7.7C127.9,104.4,124.2,105.4,120.5,105.7 M252,104.3c-0.1,2.7-0.7,5.1-1.4,7.7c3.4,1.1,7,1.8,10.5,2.1
	c-0.7-3.5,0.3-5.4,2.1-8.4C259.4,105.4,255.8,104.4,252,104.3 M110,108.5c-1.7,0.7-3.1,1.1-4.9,1.4c0.5,5.1,2.1,8.6,7.7,7.7
	L110,108.5 M272.9,108.5c0.6,3.5-0.3,5.4-2.1,8.4c5.6,2.3,7.5-1.9,7.7-7L272.9,108.5 M114.9,112.7l2.8,0.7c0.4-1.3,0.6-2.2,0.7-3.5
	C116.2,110.2,115.5,110.6,114.9,112.7 M265.2,109.9c0.1,1.3,0.3,2.2,0.7,3.5c2-0.8,2.4-1.4,2.8-3.5H265.2 M112.1,127.4
	c18-9.5,38.1-11.3,58.1-12.7c14.7-1,29.4-0.6,44.1,0c19.7,0.9,39.8,3.4,57.4,12.6c0.6-1.6,1-3.2,1.4-4.9
	c-39.3-12.8-82.5-13-123.1-8.4c-9.9,1.1-19.8,3-29.4,5.5C115.8,120.8,110.4,121.4,112.1,127.4 M180.6,122.1
	c-11.7,1.5-23.4,1.4-35,4.3c-3.1,0.8-10.8,2.2-10.7,6.5c0.1,2.4,3.3,3.6,5.1,4.3c6.1,2.6,13,3.5,19.6,4.3
	c16.7,2.2,33.5,2.4,50.4,1.3c10.8-0.7,21.8-1.6,32.2-5c1.2-0.4,2.4-0.8,3.5-1.4c3.3-1.8,4-4.7,0.7-7c-3.5-2.4-8.5-3.2-12.5-4
	c-9-1.9-18.1-2.4-27.3-3C198,121.8,189.1,121,180.6,122.1z"/>
</svg>
