<svg id="Layer_1" data-name="Layer 1" xmlns="http://www.w3.org/2000/svg" viewBox="0 0 202.5 26"><defs><style>.cls-1{fill:#231f20;}</style></defs><path class="cls-1" d="M7.79,12.08H7.17c-.61,0-.79.32-.93.84H5.9a4.22,4.22,0,0,1-.18-.9c0-1.24,1.29-1.36,2.07-1.42V7.94A1.47,1.47,0,0,0,6.26,6.36a2,2,0,0,0-1.71,1.5H4.26c.09-1.58,1-3.14,2.57-3.14A2.43,2.43,0,0,1,9.3,7.36v8.75a4,4,0,0,1,1.24.62v-12h.33v4a4.05,4.05,0,0,0,2,.42,4.48,4.48,0,0,0,1.47-.3V6.94a2.8,2.8,0,0,1-.93-.62l-.62.44-.16-.3,2.18-1.74h.24c.28.44.91,1.1,1.42,1.1a1.27,1.27,0,0,0,.77-.46l.2.28L15.86,6.8v9.59a1.81,1.81,0,0,0,.86.72l.59-.42.2.3L15.6,18.41h-.34a2.2,2.2,0,0,1-.92-1.62V15.57l-4.18,2.84H9.62a4.15,4.15,0,0,0-2.39-.9,2.37,2.37,0,0,0-2.67,2.4C4.56,21.45,5.73,22,7,22A5,5,0,0,0,8,21.83v.34a4.43,4.43,0,0,1-1.15.16,2.39,2.39,0,0,1-2.65-2.48,3.94,3.94,0,0,1,3.55-3.78Zm3.08.74a4,4,0,0,1,1.92-.42,5.09,5.09,0,0,1,1.55.38V9.26a6,6,0,0,1-1.73.28,4.09,4.09,0,0,1-1.74-.42Zm3.47,2.32V13.2a4,4,0,0,0-1.8-.44,3.74,3.74,0,0,0-1.67.38v3.75l.43.3Z"/><path class="cls-1" d="M25.29,18.21H25a2,2,0,0,1-.95-1.64V12.42l-.79-.72-2,1.72v2.91l.79.56.47-.32.22.24L21,18.21h-.25c-.31-.32-.76-.88-1.17-.88a1.1,1.1,0,0,0-.78.54l-.29-.26,1.39-1.12v-4l-.76-.78-.43.4-.27-.28,1.66-1.34h.34l.63.78c.13.14.18.44.2,1.62l3-2.4h.31c.27.42.81,1,1.12,1a1.4,1.4,0,0,0,.86-.5l.22.3-1.35,1v3.15a1.4,1.4,0,0,0,.81,1.42l.41-.3.2.34Z"/><path class="cls-1" d="M29.6,10.4h.16c.25.24.86.86,1.13.86s.49-.26.65-.4l.24.3-1.3,1.1V16a1.26,1.26,0,0,0,.76,1l.61-.44.18.26-1.73,1.4h-.43a1.85,1.85,0,0,1-.76-1.2V12.22l-.54-.52-.54.38-.27-.24Zm.12-3.8h.22l.86.78L31.31,7l.2.26L30,8.68h-.24l-.84-.84-.51.44L28.12,8Z"/><path class="cls-1" d="M39.43,16.31l.36.18v.32c-2.18.14-3.42.5-4.12,1.4h-.34c-.49-.46-1.09-1.14-1.64-1.14a1,1,0,0,0-.63.26l-.22-.26L34,16.21V12.44a2.47,2.47,0,0,1-.79-1.78c0-2.12,2.38-3.86,4-4.22v.38a3.35,3.35,0,0,0-2.64,3.12,3.25,3.25,0,0,0,.72,2l2.57-1.44h.44a3.72,3.72,0,0,0,1.27.84c.22,0,.35-.14.54-.4l.27.34-1,.82Zm-4.09-.22,1.46.9a5.36,5.36,0,0,1,1.26-.36V12.24l-1.29-.68-1.43.78Z"/><path class="cls-1" d="M42.06,12.26a.79.79,0,0,1-.43-.58,6.35,6.35,0,0,0,3.21-1.2H45l1.64,2.36v.3l-3.24,2.07v1l1.51.86,1.43-.88.25.28-2.79,1.74h-.29c-.42-.34-1.12-1.08-1.59-1.08a1.58,1.58,0,0,0-.68.3L41,17.21l1-.68Zm3.41,1.2L44,11.36c-.18.08-.43.2-.61.26v3.17Z"/><path class="cls-1" d="M51.64,17l.78-.54.25.24-2,1.52h-.34c-.49-.56-1-1.14-1.42-1.14s-.6.36-.87.6l-.25-.26,1.4-1.16V12.44L48.81,12c-.07-.1-.19-.26-.34-.26s-.32.2-.47.34l-.28-.32,1.6-1.3h.23l.62.54a1.89,1.89,0,0,1,.39,1.3l1.64-1.84h.25c.17.34.54.84.94.84s.47.08.47.32a1.82,1.82,0,0,1-1.35,1A1.3,1.3,0,0,1,51.35,12l-.79.86v3.43Z"/><path class="cls-1" d="M61.67,10.66,59.21,13.6h2.43c.18,0,.25.06.25.22s-.2.28-.41.34v2.23a.63.63,0,0,1,.37.44c0,.12-.1.12-.3.14a4.21,4.21,0,0,0-2.78,1.24h-.28a3.33,3.33,0,0,0-1.79-.64,2.31,2.31,0,0,0-1.29.58L55.17,18l2.65-3.15H55.55c-.14,0-.31-.07-.31-.21a.57.57,0,0,1,.31-.37l.22-.1V12.22c-.26-.22-.49-.3-.49-.46s.29-.18.67-.22a4.52,4.52,0,0,0,2.45-1.06h.27a3,3,0,0,0,1.4.54,2.44,2.44,0,0,0,1.39-.54Zm-1.56,3.82H58.5l-2.14,2.59,0,0a3.71,3.71,0,0,1,1.87-.7,2.35,2.35,0,0,1,1.57.6h.27Zm-1.5-.64,2-2.34,0,0a3.75,3.75,0,0,1-1.87.7c-.58,0-.79-.22-1.21-.66l-.3.16v2.18Z"/><path class="cls-1" d="M65,10.4h.16c.26.24.87.86,1.14.86s.48-.26.65-.4l.23.3-1.3,1.1V16a1.26,1.26,0,0,0,.76,1l.61-.44.18.26-1.73,1.4h-.43a1.84,1.84,0,0,1-.75-1.2V12.22l-.54-.52-.55.38-.27-.24Zm.13-3.8h.21l.87.78.5-.42.2.26L65.31,8.68h-.23l-.85-.84-.5.44L63.48,8Z"/><path class="cls-1" d="M71.15,11.52v4.81l.79.6.67-.52.21.24L71,18.21h-.22c-.41-.38-1.06-1-1.42-1a1.12,1.12,0,0,0-.7.34l-.2-.26,1.35-1V11.52h-.56a.58.58,0,0,0-.58.36l-.21-.1.48-1.3h.87V7.72l1.37-.94v3.7h.74a1,1,0,0,0,.75-.4l.16.14-.48,1.3Z"/><path class="cls-1" d="M81.12,11.36l-1.06.82v3.61c0,3.54-4.93,1.6-4.93,3.52a.51.51,0,0,0,.57.48,5.55,5.55,0,0,0,1.54-.36A6.18,6.18,0,0,1,79,19.09a1.35,1.35,0,0,1,1.5,1.4c0,1.88-2.43,2.24-3.66,2.24a4,4,0,0,1-1.31-.22v-.32a6.27,6.27,0,0,0,1.37.18c.77,0,3.1-.28,3.1-1.48a.59.59,0,0,0-.64-.56,5.8,5.8,0,0,0-1.54.34A5.87,5.87,0,0,1,76,21a1.27,1.27,0,0,1-1.37-1.28c0-1.16,1-1.56,1.89-1.72v0c-1.31-.18-2-.78-2-2V12.18l-.46-.6-.42.26-.2-.26,1.46-1.1h.34a1.12,1.12,0,0,1,.65,1.2v1.1l3-2.3h.36c.32.12.73.94,1,.94s.47-.24.6-.36ZM78,11.68,75.9,13.24v3.27c0,.84.4,1.18,1.39,1.18s1.4-.34,1.4-1.18V12.2Z"/><path class="cls-1" d="M89.77,5.4a6,6,0,0,0-2.94,5.42c0,3.58,1.75,6.35,5.21,6.35A5.4,5.4,0,0,0,93.52,17V6.8a2.58,2.58,0,0,1-1.84-.74l-.56.42V13.4a2.36,2.36,0,0,1-1.82,2.45l-.07-.28a1.56,1.56,0,0,0,.38-1.12V7.82l-1.8,1.44V8.84l4.86-4.12h.2a2.36,2.36,0,0,0,1.44.64,2.85,2.85,0,0,0,1.57-.48l.09.2A3.14,3.14,0,0,1,93.84,6.8V16.87a6.24,6.24,0,0,0,2.29-1.6l.2.22a5.83,5.83,0,0,1-5,2.92c-3.46,0-6-2.34-6-6.27a7.57,7.57,0,0,1,4.4-7Z"/><path class="cls-1" d="M98.81,6.06l.42,1a14,14,0,0,1,1.44-1.76l.2.3a4.7,4.7,0,0,0-.78,2.84v7.93l.81.6.47-.34.2.24L100,18.21h-.34c-.41-.54-.9-.94-1.24-.94a1.49,1.49,0,0,0-.72.36l-.25-.28,1.31-.76V7.76a7.79,7.79,0,0,0-.16-1.52Z"/><path class="cls-1" d="M104.25,10.48h.29l.56.66a1.34,1.34,0,0,1,.25,1v4.19l.94.66,1.78-1.35V12.44l-.7-.64-.47.32-.13-.34,1.57-1.28h.27c.32.42.83,1,1.17,1s.63-.34.85-.5l.18.3-1.28,1v3.79l.77.84.4-.22.18.22-1.55,1.28H109l-.65-.78c-.2-.24-.25-.52-.25-1.3l-2.78,2.08H105c-.46-.42-1-1-1.38-1a1.59,1.59,0,0,0-.89.52l-.17-.26,1.4-1.1V12.34l-.61-.7-.56.44-.23-.32Z"/><path class="cls-1" d="M112.68,5.86a3.2,3.2,0,0,1,.58,1.06,17.82,17.82,0,0,1,1.35-1.64l.23.24a2.74,2.74,0,0,0-.72,2.16v4.58l2.59-1.8H117c.45.36,1.19,1,1.44,1s.56-.32.77-.48l.24.28-1.17.84v4.13l.39.32V17c-.31,0-.61,0-.92,0a7.86,7.86,0,0,0-3.65,1.28,3.94,3.94,0,0,0-1.57-.92.87.87,0,0,0-.61.38l-.25-.24,1.11-.9V7.2A3,3,0,0,0,112.48,6Zm1.44,10.39a5.6,5.6,0,0,1,1.28.88,9.93,9.93,0,0,1,1.48-.56V12.4l-1.21-.78-1.55,1.1Z"/><path class="cls-1" d="M131,11.36l-1.11.86v4.09c.19.1.46.28.46.46s-.18.18-.43.18a5.39,5.39,0,0,0-3.65,1.26h-.38a5.26,5.26,0,0,0-1.61-1.06c-.28,0-.43.24-.66.38l-.27-.24,1.08-.8V12.32c-.16-.06-.49-.34-.49-.48a.09.09,0,0,1,.09-.1,7.44,7.44,0,0,0,4-1.26h.32A4.13,4.13,0,0,0,130,11.56a1.48,1.48,0,0,0,.81-.48Zm-4.18.24-1,.34v4.23l1.65.94a4.82,4.82,0,0,1,1.07-.36V12.54Z"/><path class="cls-1" d="M133.64,10.48V9.3A20.15,20.15,0,0,0,133.45,7a4.66,4.66,0,0,0,2.23-1.56h.25c.18.34.51.72.76.72a.64.64,0,0,0,.48-.22l.18.1c-.1.82-.54,1.36-1.15,1.36a1.29,1.29,0,0,1-1.12-.58l-.07,0v3.64h1a.54.54,0,0,0,.52-.32l.24.16-.49,1.2H135v4.69L136,17l.65-.48.18.24-1.86,1.5h-.29c-.36-.36-1-1-1.35-1a2.14,2.14,0,0,0-.86.44l-.2-.22,1.42-1.08V11.52H133a.68.68,0,0,0-.57.22l-.2-.1.45-1.16Z"/><path class="cls-1" d="M146.61,5.4a6,6,0,0,0-2.93,5.42c0,3.58,1.74,6.35,5.2,6.35a5.4,5.4,0,0,0,1.48-.18V6.8a2.58,2.58,0,0,1-1.84-.74l-.56.42V13.4a2.36,2.36,0,0,1-1.82,2.45l-.07-.28a1.56,1.56,0,0,0,.38-1.12V7.82l-1.8,1.44V8.84l4.86-4.12h.2a2.39,2.39,0,0,0,1.44.64,2.85,2.85,0,0,0,1.57-.48l.09.2a3.12,3.12,0,0,1-2.13,1.72V16.87a6.24,6.24,0,0,0,2.29-1.6l.2.22a5.83,5.83,0,0,1-5,2.92c-3.46,0-6-2.34-6-6.27a7.57,7.57,0,0,1,4.4-7Z"/><path class="cls-1" d="M156.39,16.33l.67.56.55-.42.18.28-1.87,1.46h-.23c-.27-.38-.85-1-1.19-1-.16,0-.27.1-.42.24l-.23-.28,1.17-.78V7.76a8,8,0,0,0-.25-1.86l.23-.2a8,8,0,0,1,.56,1.18,6.18,6.18,0,0,1,1.3-1.6l.21.26a3.24,3.24,0,0,0-.68,2.22v4.78l2.86-2.06h.22c.29.2,1.08,1,1.28,1a1.25,1.25,0,0,0,.63-.26l.21.3-1.11.78v4.31l.59.52-.09.26a2.25,2.25,0,0,0-.77-.14,1.11,1.11,0,0,0-1.05,1,2,2,0,0,0,.65,1.26,2.21,2.21,0,0,1,.67,1.36,1.61,1.61,0,0,1-1.37,1.52l-.25-.26a1.08,1.08,0,0,0,.5-1,3.17,3.17,0,0,0-.38-1.32,3.3,3.3,0,0,1-.21-1.24,1.77,1.77,0,0,1,.16-.84,1.58,1.58,0,0,0,.18-.8V12.32l-.9-.6-1.82,1.22Z"/><path class="cls-1" d="M164.22,10.4h.17c.25.24.86.86,1.13.86s.49-.26.65-.4l.23.3-1.29,1.1V16a1.27,1.27,0,0,0,.75,1l.62-.44.18.26-1.73,1.4h-.44a1.84,1.84,0,0,1-.75-1.2V12.22l-.54-.52-.54.38-.27-.24Zm.13-3.8h.22l.86.78.51-.42.19.26-1.55,1.46h-.23l-.85-.84-.5.44L162.75,8Z"/><path class="cls-1" d="M168.49,12.32l-.37-.22v-.36a5.5,5.5,0,0,0,3.11-1.26h.25a2,2,0,0,0,1.68.94v.3a2.1,2.1,0,0,1-1.57.84,1.47,1.47,0,0,1-1.3-1l-.43.22v4.43a8.39,8.39,0,0,1,1.62.86l1.35-.92.22.26-2.61,1.84h-.38a4.59,4.59,0,0,0-1.73-1.14,1,1,0,0,0-.63.36l-.2-.26,1-.8Z"/><path class="cls-1" d="M181.19,11.32l-1.35,1v3.89l.77.72.44-.32.18.24-1.64,1.32h-.2l-.51-.5c-.26-.26-.41-.5-.41-1.32l-2.66,1.82h-.31a2.07,2.07,0,0,1-1.46-1.8c0-1.37,1.53-2.27,2.5-2.71l-1.49-1.64a1.24,1.24,0,0,1-.38-.74.78.78,0,0,1,.79-.84.79.79,0,0,1,.8.76.85.85,0,0,1-.33.66l0,0a4.69,4.69,0,0,0,2.74-1.46H179c.15.44.72,1.08,1.17,1.08.26,0,.65-.38.87-.52ZM178.47,16V12.44l-.79-.68a4.07,4.07,0,0,1-1.89.62l1.85,2-.21.27-.65-.73-.49.28a1.54,1.54,0,0,0-.88,1.38,1.72,1.72,0,0,0,1.39,1.51Z"/><path class="cls-1" d="M182.14,17.25l1-.8V12.28a.78.78,0,0,1-.42-.64c1.46,0,3.44-.34,4.13-1.16h.32c.25.16,1.19,1,1.52,1a1,1,0,0,0,.66-.32l.22.3-1,.74V17a2.29,2.29,0,0,1,1.06,2,2.52,2.52,0,0,1-1.51,2.3l-2.63,1.44h-.2a2.8,2.8,0,0,0-2.14-1.44,1.6,1.6,0,0,0-.85.34l-.27-.24,3.2-3.14-1.33-.7a2.44,2.44,0,0,0-.92-.38.94.94,0,0,0-.55.28Zm.82,3.64L183,21a3.22,3.22,0,0,1,1.57-.36,2.92,2.92,0,0,1,2.06,1l1-.52a1.6,1.6,0,0,0,1-1.34c0-1.24-1.49-1.18-1.44-2.86Zm1.53-4.7,2,.78.69-.62v-4l-1.62-.78-1.08.3Z"/><path class="cls-1" d="M198,11.36l-1.12.86v4.09c.2.1.47.28.47.46s-.18.18-.43.18a5.42,5.42,0,0,0-3.66,1.26h-.38a5.25,5.25,0,0,0-1.6-1.06c-.29,0-.43.24-.67.38l-.27-.24,1.08-.8V12.32c-.16-.06-.48-.34-.48-.48s0-.1.09-.1a7.41,7.41,0,0,0,4-1.26h.33a4,4,0,0,0,1.6,1.08,1.48,1.48,0,0,0,.81-.48Zm-4.18.24-1,.34v4.23l1.66.94a4.58,4.58,0,0,1,1.06-.36V12.54Z"/></svg>