<?xml version="1.0" encoding="UTF-8"?>
<svg id="Layer_2" data-name="Layer 2" xmlns="http://www.w3.org/2000/svg" viewBox="0 0 289.66 236.06">
  <defs>
    <style>
      .cls-1 {
        stroke: #7fa7ca;
      }

      .cls-1, .cls-2, .cls-3 {
        fill: none;
        stroke-width: 2px;
      }

      .cls-4 {
        fill: #a5b4d3;
      }

      .cls-2 {
        stroke: #5383b5;
      }

      .cls-3 {
        stroke: #d1d9e8;
      }

      .cls-5 {
        fill: #015196;
      }

      .cls-6 {
        fill: #fdfdfd;
      }
    </style>
  </defs>
  <g id="Layer_1-2" data-name="Layer 1">
    <g>
      <path class="cls-3" d="M36.7,72.94l-35.22-.1c-.27,0-.48.21-.48.48,0,.13.05.26.14.35l27.81,27.78" vector-effect="non-scaling-stroke"/>
      <path class="cls-1" d="M28.95,101.45c-5.79,43.24,11.56,84.91,46.19,110.6,59.22,43.94,143.17,22.47,174.97-43.37,10.16-21.04,13.61-43.67,10.36-67.89" vector-effect="non-scaling-stroke"/>
      <path class="cls-3" d="M260.47,100.79l28.07-27.34c.15-.16.15-.41,0-.57-.07-.07-.17-.11-.27-.11l-35.73-.11" vector-effect="non-scaling-stroke"/>
      <path class="cls-1" d="M252.53,72.66C223.63,4.55,140.35-20.23,79.07,21.21c-18.89,12.77-33.02,30.02-42.37,51.73" vector-effect="non-scaling-stroke"/>
      <path class="cls-2" d="M252.53,72.66c3.84,9.61,5.94,17.56,7.94,28.13" vector-effect="non-scaling-stroke"/>
      <path class="cls-2" d="M28.95,101.45c1.33-9.22,3.92-18.72,7.75-28.51" vector-effect="non-scaling-stroke"/>
      <path class="cls-1" d="M118.2,34.07c-2.17,11.66-2.38,23.3-.63,34.93.08.49-.08,1-.41,1.37l-11.95,13.43c-.24.28-.67.32-.96.08-6.7-5.41-9.23-13.5-12.44-21.81-.07-.19-.28-.28-.46-.21-.09.03-.16.1-.2.18-3.57,7.07-5.92,20.06,2.12,25.01,4,2.46,8.24,2.29,12.73-.51.28-.18.62-.25.96-.19,4.38.75,8.55-.43,12.51-3.55.27-.21.65-.16.86.11.07.09.11.2.12.32l1.34,15.11c.02.16-.11.31-.28.33-.01,0-.02,0-.03,0h-21.99c-.54,0-.98.44-.98.98,0,0,0,.01,0,.02v.02c.02.54.46.96,1,.96l88.17.02c.56,0,1.04-.4,1.14-.95v-.03c.09-.47-.22-.92-.7-1.01-.05,0-.1-.01-.15-.01l-24-.02c-.13,0-.23-.09-.24-.22,0-.08.03-.16.1-.2,8.68-6.59,18.01-15.13,22.18-25.12,2.58-6.16,2.01-16.61-6.6-17.86-.58-.09-1.07-.49-1.26-1.05-.6-1.75-1.52-3.39-2.76-4.91-.57-.71-.74-1.66-.45-2.52,3.73-10.83,9.57-19.51,16.91-28.23.11-.13.09-.33-.04-.44-.08-.07-.18-.09-.28-.05-11.55,3.49-20.45,11.49-26.75,21.64-.17.28-.54.37-.82.2-.06-.04-.11-.08-.15-.13-7.03-8.59-12.98-18.11-17.84-28.57-.06-.15-.23-.22-.38-.15-.09.04-.16.12-.18.22-.89,4.55-1.58,8.61-2.09,12.2-1.76,12.5,4.94,20.92,15.31,27.84.25.17.38.47.31.76-1.55,6.67-2.65,13.7-3.3,21.07-.02.2-.19.34-.39.33-.05,0-.1-.02-.15-.05-1.87-1.09-4.1-2.28-6.7-3.55-.96-.47-2.82-1.87-5.58-4.22-3.88-3.29-4-8.37-3.24-12.82.02-.14-.08-.27-.22-.29-.1-.01-.2.03-.26.12-.76,1.35-1.48,3.33-2.17,5.94-.06.23-.29.37-.52.31-.08-.02-.16-.07-.22-.13-6.86-7.73-12.64-16-17.33-24.8-.09-.17-.29-.25-.47-.16-.1.05-.17.15-.19.26" vector-effect="non-scaling-stroke"/>
      <path class="cls-1" d="M54.62,126.49c4.14,43.6,37.62,76.55,80.88,81.7,2.61.31,3.52-.09,2.73-1.19" vector-effect="non-scaling-stroke"/>
      <path class="cls-2" d="M138.23,207c.02-.84-.37-1.95-1.18-3.33-24.47-41.63-48.9-83.25-73.31-124.86-.12-.21-.38-.28-.59-.16-.07.04-.14.11-.17.19-7.11,15.04-9.9,30.92-8.36,47.65" vector-effect="non-scaling-stroke"/>
      <path class="cls-3" d="M138.23,207c-1.21-.03-2.1-.31-2.65-.85-11.69-11.41-37.94-37.3-78.75-77.67-.26-.26-.48-.56-.64-.89-.67-1.42-1.19-1.79-1.57-1.1" vector-effect="non-scaling-stroke"/>
      <path class="cls-1" d="M150.67,207.07c-.23.15-.39.34-.48.57-.1.23,0,.49.24.59.06.02.12.04.18.04,2.81-.03,6.02-.36,9.62-.99,36.5-6.37,64.98-34.1,73.13-70.22,1.29-5.75,1.8-11.67,1.53-17.77" vector-effect="non-scaling-stroke"/>
      <path class="cls-2" d="M234.89,119.29c.42-5.24.17-10.61-.75-16.11-1.42-8.49-3.99-16.63-7.71-24.42-.09-.2-.32-.28-.52-.18-.07.04-.14.09-.18.16l-75.06,128.33" vector-effect="non-scaling-stroke"/>
      <path class="cls-3" d="M234.89,119.29c-.89,1.67-1.16,3.65-.83,5.92.05.31.01.63-.1.93-.38,1.09-.89,1.94-1.53,2.57-19.17,18.83-45.13,44.46-77.9,76.87-1.13,1.12-2.42,1.62-3.86,1.49" vector-effect="non-scaling-stroke"/>
      <path class="cls-1" d="M180.9,103.33c0-.54-.43-.97-.97-.97h-75.64c-.54,0-.97.43-.97.97h0v.04c0,.54.43.97.97.97h75.64c.54,0,.97-.43.97-.97v-.04" vector-effect="non-scaling-stroke"/>
      <path class="cls-1" d="M142.55,185.25c.07-.74.07-4.51,0-11.3-.19-22.8-.45-44.39-.77-64.77,0-.31.25-.57.56-.58,0,0,0,0,.01,0h.39c.35,0,.63.28.64.63l.87,79.28s.03.06.06.06h.12s.07-.05.07-.09l4.31-79.28c0-.27.22-.49.5-.51l.37-.03c.37-.03.69.24.73.61,0,.03,0,.07,0,.1-.54,9.85-1.71,30.41-3.51,61.7-.17,2.86-.13,4.68.1,5.46.02.07.1.12.18.09.03,0,.05-.02.07-.04.09-.1.12-.21.11-.33-.05-.37-.08-.56-.08-.57,2.26-21.11,4.73-43.26,7.4-66.46.04-.33.33-.57.66-.55l.41.02c.31.02.55.29.53.6,0,.01,0,.02,0,.03l-8.52,74.28c-.01.1.05.19.15.21h0c.09.02.17-.03.19-.11,0,0,0-.01,0-.02l11.69-74.35c.06-.36.37-.63.74-.64h.3c.31,0,.57.25.58.57,0,.03,0,.06,0,.09l-15.82,99.7c-.03.19.1.37.28.4h.01c.19.04.37-.09.4-.27l18.87-99.97c.05-.3.31-.51.62-.51h7.37c.47,0,.85-.39.85-.86h0v-.27c0-.53-.43-.96-.96-.96h-61.62c-.55-.01-1,.44-1.01.99v.03c-.01.55.43,1.01.98,1.02,0,0,0,0,.01,0l7.49.06c.36,0,.67.25.74.6l21.77,100.8c.03.14.16.23.3.23h.25c.23,0,.41-.2.41-.43,0-.02,0-.04,0-.06l-16.86-100.46c-.06-.34.18-.67.52-.72.03,0,.05,0,.08,0h.11c.41-.03.78.26.85.67,4.36,25.59,8.64,51.35,12.84,77.3.01.07.5,2.73,1.46,7.99h.01c.18-2.07.13-3.6-.15-4.61-.71-2.61-.52-5.38-.81-8.21-1.53-15.01-3.86-39.19-6.99-72.53-.03-.34.22-.63.55-.66.02,0,.03,0,.05,0h.57c.28-.02.51.19.53.47l6.73,76.17c0,.2.16.36.36.36s.36-.16.36-.36" vector-effect="non-scaling-stroke"/>
      <path class="cls-1" d="M247.08,126.84l9.3-6.7c.28-.21.35-.61.14-.89-.11-.15-.29-.25-.48-.26-4.76-.31-7.73-.5-8.9-.59-1.39-.1-2.31-.58-2.76-1.43-.05-.11-.18-.16-.29-.11-.07.03-.12.11-.13.19l-.42,3.61c-.02.18.11.35.29.36.15.01.3-.08.36-.22.73-2.14,4.86-1.37,7.09-1.23.25.01.44.22.43.47,0,.13-.07.26-.18.34l-7.85,6.08c-.2.15-.32.37-.35.61l-.3,2.59c-.04.19.08.39.27.43.18.04.35-.06.42-.23.26-.53.55-.93.87-1.21.26-.22.6-.34.94-.31l8.17.67c.38.03.73.23.95.54l.52.72c.09.13.26.16.39.07.07-.05.11-.12.12-.2l.41-3.52c.02-.18-.1-.34-.27-.36-.13-.02-.25.04-.32.15l-.47.73c-.23.35-.6.58-1.01.62-2.35.25-4.63.12-6.85-.41-.15-.03-.25-.18-.21-.34.02-.07.06-.13.11-.17" vector-effect="non-scaling-stroke"/>
      <path class="cls-1" d="M45.83,122.52c-.09-1.56-.16-3.15-.21-4.77-.01-.31-.25-.56-.55-.59l-2.34-.24c-.25-.03-.48.16-.5.41-.02.24.14.46.37.5,1.78.32,2.53,1.29,2.25,2.9-.06.33-.34.58-.68.61-3.27.25-6.23.44-8.88.55-.74.04-1.28-.38-1.63-1.25-.07-.14-.24-.2-.39-.13-.1.05-.16.14-.16.25,0,.24.05,1.09.14,2.54.09,1.45.15,2.3.17,2.53.03.16.17.27.33.24.11-.02.19-.09.23-.19.24-.91.73-1.39,1.47-1.44,2.65-.21,5.61-.4,8.88-.55.34-.02.65.2.75.52.47,1.57-.15,2.62-1.87,3.15-.25.07-.39.32-.33.57.07.25.32.39.56.32h0l2.29-.52c.3-.06.5-.34.48-.65-.16-1.61-.29-3.2-.39-4.76" vector-effect="non-scaling-stroke"/>
      <path class="cls-1" d="M40.76,137.19c.17.87.31,1.47.42,1.8.08.24.02.5-.16.67-.21.2-.51.32-.88.35-1.84.16-3.25,1.27-4.72-.47-.1-.12-.27-.14-.39-.04-.08.07-.12.18-.1.28l1.03,4.75c.02.13.15.22.28.19.08-.02.15-.08.19-.16.34-.95,1.07-1.51,2.2-1.69,3.71-.61,6.1-1.04,7.16-1.31.35-.09.72-.03,1.03.17l.95.62c.17.11.4.06.51-.11.05-.08.07-.18.05-.28l-.94-4.36c-.03-.15-.18-.24-.32-.2-.08.02-.15.08-.19.15-.63,1.37-1.95,1.98-3.98,1.85-.32-.02-.6-.24-.68-.55,0,0-.12-.63-.36-1.88-.23-1.24-.35-1.86-.35-1.87-.04-.32.13-.62.42-.76,1.83-.87,3.29-.79,4.38.25.1.11.27.11.38,0,.07-.06.1-.16.08-.25l-.74-4.4c-.04-.2-.23-.33-.43-.29-.09.02-.17.07-.23.14l-.66.93c-.21.29-.53.48-.89.53-1.09.15-3.47.62-7.14,1.43-1.11.25-2,0-2.67-.76-.1-.1-.26-.1-.35,0-.06.05-.08.13-.07.21l.79,4.8c.02.15.15.27.31.25.12-.01.21-.1.24-.21.72-2.16,2.44-1.65,4.21-2.18.36-.11.68-.11.95,0,.23.09.39.31.4.56.01.35.1.97.27,1.84" vector-effect="non-scaling-stroke"/>
      <path class="cls-1" d="M254.38,138.44c0-3.66-2.97-6.63-6.63-6.63s-6.63,2.97-6.63,6.63,2.97,6.63,6.63,6.63h0c3.66,0,6.63-2.97,6.63-6.63h0" vector-effect="non-scaling-stroke"/>
      <path class="cls-1" d="M48.33,144.57l-.03.44c-.03.5-.36.92-.83,1.07l-8.08,2.58c-.41.13-.86.05-1.2-.22l-.76-.62c-.13-.09-.31-.06-.4.07-.05.07-.07.16-.05.24l2.54,7.95c.12.36.41.64.78.73.89.23,1.7.13,2.43-.28.16-.1.21-.31.12-.47-.05-.09-.14-.14-.25-.15-2.03-.19-3.13-1.45-3.3-3.78-.03-.44.24-.85.66-.98l3.24-1.03c.32-.1.66.05.8.36.53,1.21.51,2.3-.08,3.25-.09.15-.05.35.1.44.08.05.19.06.28.03l2.67-.85c.17-.06.26-.24.2-.41-.03-.1-.11-.18-.21-.2-1.06-.35-1.74-1.19-2.05-2.54-.07-.34.12-.67.45-.78l3.19-1.02c.32-.11.66.01.85.29,1.05,1.53.94,2.96-.31,4.27-.14.13-.15.34-.02.48.08.09.21.13.33.1.59-.11,1.12-.31,1.57-.6.4-.26.57-.76.43-1.21l-2.32-7.26c-.08-.2-.31-.3-.51-.22-.13.05-.23.18-.24.32" vector-effect="non-scaling-stroke"/>
      <path class="cls-1" d="M238.6,147.76c-.39,1.2-.6,1.82-.61,1.86-.04.15.05.31.2.36.05.01.1.01.15,0,1.61-.43,3.28-.22,5,.61.28.13.57.25.87.35.29.1.59.18.9.23,1.88.35,3.34,1.18,4.39,2.48.1.12.29.14.41.03.04-.03.06-.07.08-.11.01-.04.22-.66.61-1.86.4-1.2.6-1.82.61-1.86.04-.16-.06-.31-.21-.35-.04-.01-.09-.01-.14,0-1.61.43-3.28.22-4.99-.61-.28-.14-.57-.26-.87-.35-.3-.1-.6-.18-.91-.24-1.88-.35-3.34-1.17-4.38-2.47-.1-.13-.28-.15-.41-.05-.04.03-.07.07-.09.12-.01.04-.22.66-.61,1.86" vector-effect="non-scaling-stroke"/>
      <path class="cls-1" d="M235.18,157.23c-.63,1.43-1.29,2.88-2,4.34-.13.28-.04.62.22.78l1.98,1.28c.22.13.5.07.63-.15.12-.2.08-.46-.1-.6-1.43-1.1-1.66-2.3-.67-3.61.21-.27.57-.36.88-.23,3.03,1.27,5.75,2.47,8.17,3.58.67.31.97.93.88,1.86,0,.16.13.29.29.29.1,0,.2-.05.25-.14.11-.21.45-.99,1.04-2.33.59-1.33.92-2.11,1.01-2.33.05-.15-.03-.32-.18-.37-.11-.04-.22-.01-.3.07-.63.69-1.28.9-1.96.61-2.46-1.03-5.18-2.22-8.17-3.59-.31-.14-.48-.48-.42-.81.29-1.61,1.33-2.26,3.11-1.95.25.02.47-.18.49-.43.01-.2-.11-.39-.3-.46l-2.28-.59c-.29-.08-.6.08-.72.36-.6,1.51-1.22,2.98-1.85,4.42" vector-effect="non-scaling-stroke"/>
      <path class="cls-1" d="M65.15,176.26c-1.02-1.77-2.16-3.28-3.41-4.53-.12-.13-.23-.27-.32-.43l-1.9-3.38c-.1-.17-.31-.22-.48-.13-.09.05-.16.15-.17.26l-.07.6c-.05.49-.43.89-.92.97l-7.19,1.21c-.12.01-.22-.07-.23-.18,0-.06,0-.11.04-.16l5.17-5.81s.07-.05.11-.04l1.4.16c.27.03.51-.17.54-.44.01-.12-.02-.24-.09-.34l-2.82-3.92c-.04-.06-.12-.07-.18-.02-.03.02-.05.06-.06.09l-.15,1.31c-.05.42-.22.82-.49,1.15l-6.98,8.48c-.19.25-.15.61.1.8.11.09.26.13.4.12,3.38-.37,6.88-.8,10.5-1.31,1.34-.19,2.52.2,3.54,1.15.67.63.71,1.68.09,2.35-.07.08-.16.15-.25.22l-6.45,4.66c-.23.16-.51.23-.79.2l-1.7-.19c-.16-.02-.3.1-.32.26,0,.07.01.13.05.19l2.48,3.69c.15.22.45.28.67.13.05-.03.09-.07.12-.12,0,0,0-.26,0-.77-.01-.39.17-.75.48-.98l6.93-4.99c.31-.23.72-.28,1.07-.12l.84.37c.18.08.39-.01.47-.2.04-.1.03-.22-.02-.31" vector-effect="non-scaling-stroke"/>
      <path class="cls-1" d="M238.84,176.04c-1.65.18-2.54-.26-2.67-1.31-.21-1.78.73-3.4,2.11-3.62.13-.02.25-.03.38-.02,1.09.05,1.82.55,2.21,1.52.03.09.13.13.22.1.03-.01.06-.03.08-.06l2.6-3.58c.13-.18.09-.43-.09-.56-.12-.09-.29-.1-.42-.02-.78.43-1.56.59-2.35.46-2.84-.43-6.41-1.08-10.7-1.95-.32-.07-.63.13-.7.45-.04.17,0,.35.1.49.81,1.13,2.95,3.92,6.42,8.37.75.96,1.07,1.79.96,2.49-.03.16.07.32.24.35.12.02.24-.03.3-.12l1.7-2.32c.14-.18.1-.45-.08-.59-.09-.07-.2-.1-.31-.08" vector-effect="non-scaling-stroke"/>
      <path class="cls-1" d="M215.06,187.3l1.35-.29c.34-.07.7.03.94.27l3.97,3.97c.19.19.19.5,0,.69-.1.1-.25.15-.39.14l-9.17-1.05c-.24-.03-.47.04-.66.17l-6.5,4.69c-.14.1-.16.3-.06.43.07.09.19.14.31.12,1.06-.26,1.92,0,2.59.8,1.34,1.6,2.54,3.35,3.6,5.25.18.31.27.67.27,1.02-.02,2.92-2.82,4.73-5.08,2.52-1.31-1.27-2.73-3.11-4.26-5.5-.1-.16-.14-.34-.12-.52l.18-1.56c.02-.17-.1-.33-.27-.35-.08-.01-.16.01-.22.06l-3.6,2.65c-.19.14-.23.4-.09.59.08.11.21.18.35.17h.19c.69.03,1.33.37,1.75.93l3.58,4.81c1.4,1.88,4.05,2.29,5.95.92l.81-.59c2.08-1.5,2.56-4.41,1.06-6.49,0,0,0,0,0,0l-3.49-4.84c-.5-.69-.34-1.65.34-2.15l.47-.33c.74-.56,1.78-.48,2.43.18,1.54,1.59,3.22,3.32,5.03,5.2.59.62.81,1.48.66,2.59-.02.17.09.33.26.35.1.01.2-.02.27-.09l2.47-2.47c.13-.13.14-.34,0-.47-.08-.08-.2-.12-.31-.09l-1.05.23c-.44.09-.9-.04-1.21-.36l-4.33-4.33c-.17-.17-.17-.45,0-.62.07-.07.16-.12.26-.13,1.7-.22,6.22.58,11.5,1.17.33.04.63-.2.66-.53.02-.18-.04-.36-.17-.49l-7.06-7.06c-.7-.7-.7-1.83,0-2.53l.55-.55c.82-.82,2.14-.86,3-.08l6.26,5.56c.15.13.22.33.2.53l-.08.75c-.03.2.11.38.31.4.13.02.25-.03.33-.13,3.69-4.58,7.73-9.76,2.46-13.97-5.45-4.35-9.31,1.97-12.54,6.44-.2.27-.44.5-.72.69-.96.66-2.02,1.64-3.18,2.93-.08.09-.07.23.02.31.05.04.12.06.19.05" vector-effect="non-scaling-stroke"/>
      <path class="cls-1" d="M65.89,178.8l.29.55c.18.34.11.76-.18,1.01l-6.44,5.63c-.28.25-.66.36-1.03.3l-1.46-.28c-.17-.03-.33.08-.36.25-.02.09,0,.19.07.26l5.35,6.13c.25.28.64.38,1,.27.72-.22,1.41-.61,2.07-1.16.15-.1.2-.3.1-.46-.09-.13-.26-.19-.41-.12-2.11.65-3.55.04-4.34-1.83-.16-.38-.06-.82.25-1.1l6.47-5.65c.22-.2.51-.28.8-.23l1.34.24c.17.03.33-.08.36-.25.02-.09,0-.19-.07-.26l-3.23-3.7c-.13-.14-.36-.15-.51-.03-.12.11-.15.28-.07.43" vector-effect="non-scaling-stroke"/>
      <path class="cls-1" d="M73.08,186.74l.36.51c.23.32.21.74-.05,1.03l-5.7,6.4c-.25.28-.61.44-.99.42l-1.48-.09c-.17,0-.32.13-.32.3,0,.09.03.18.1.24l6.08,5.42c.28.24.68.3,1.02.15.69-.31,1.33-.79,1.92-1.42.13-.13.13-.34,0-.47-.1-.1-.26-.13-.38-.06-2.01.91-3.53.49-4.55-1.28-.2-.36-.15-.81.12-1.12l5.72-6.43c.2-.22.48-.34.77-.32l1.36.07c.17.01.32-.12.32-.3,0-.09-.03-.19-.1-.25l-3.67-3.27c-.14-.13-.37-.13-.51,0-.12.13-.13.32-.02.46" vector-effect="non-scaling-stroke"/>
      <path class="cls-1" d="M77.01,205.41c-.01-1.67.51-2.51,1.57-2.53,1.8-.04,3.32,1.06,3.41,2.45,0,.13,0,.26-.02.39-.15,1.08-.73,1.77-1.73,2.06-.09.02-.14.12-.12.21,0,.03.03.06.05.08l3.31,2.95c.16.15.42.14.56-.02.11-.12.13-.28.07-.43-.35-.83-.43-1.62-.23-2.39.71-2.79,1.71-6.29,3-10.49.09-.32-.09-.65-.41-.74-.15-.04-.32-.03-.46.05-1.21.69-4.21,2.55-8.99,5.58-1.03.65-1.89.89-2.58.71-.16-.05-.33.03-.38.19-.04.12,0,.25.1.33l2.15,1.92c.17.15.44.14.59-.03.07-.08.11-.18.11-.29" vector-effect="non-scaling-stroke"/>
      <path class="cls-1" d="M95.2,211.16c1.1,1.65.77,3.13-.98,4.45-.33.24-.77.28-1.13.09-5.39-2.81-.93-12.5,4.69-10.58,1.92.65,2.74,2.41,2.37,4.39-.03.17.09.34.26.37.11.02.23-.02.3-.11.54-.65.88-1.36,1.03-2.13.08-.4-.06-.82-.37-1.09-2.66-2.33-5.22-3.29-7.68-2.9-4.91.77-7.29,6.47-3.99,10.41,1.45,1.74,3.53,2.88,6.25,3.41.39.07.76-.15.88-.53.47-1.59,1.32-2.67,2.55-3.25.17-.08.25-.29.17-.47-.03-.06-.07-.11-.13-.14l-3.73-2.41c-.15-.12-.37-.08-.49.07-.09.12-.09.3,0,.42" vector-effect="non-scaling-stroke"/>
      <path class="cls-1" d="M200.25,210.44c0-3.67-2.97-6.64-6.64-6.64s-6.64,2.97-6.64,6.64c0,3.67,2.97,6.64,6.64,6.64h0c3.67,0,6.64-2.97,6.64-6.64h0" vector-effect="non-scaling-stroke"/>
      <path class="cls-1" d="M104.37,208.33l.33.3c.37.33.5.86.32,1.32l-3.05,7.93c-.16.41-.51.71-.93.8l-.96.2c-.16.04-.25.2-.21.35.02.09.09.16.17.2l7.8,3c.36.14.76.08,1.06-.15.74-.56,1.18-1.25,1.31-2.07.02-.19-.11-.36-.3-.38-.1-.01-.2.02-.27.09-1.43,1.47-3.1,1.53-5.02.2-.36-.25-.51-.72-.35-1.12l1.22-3.18c.12-.31.46-.49.79-.4,1.28.34,2.11,1.04,2.49,2.1.06.17.25.25.41.19.09-.03.16-.1.19-.19l1.01-2.62c.06-.16-.02-.35-.18-.41-.1-.04-.21-.03-.3.03-.93.61-2.02.62-3.27.01-.31-.15-.45-.52-.33-.84l1.2-3.13c.12-.31.43-.51.76-.48,1.86.14,2.91,1.11,3.15,2.92.02.19.19.32.37.3.11-.01.21-.08.27-.18.29-.53.47-1.07.52-1.61.04-.47-.24-.92-.68-1.09l-7.12-2.74c-.2-.07-.43.03-.5.24-.05.15-.01.31.1.41" vector-effect="non-scaling-stroke"/>
      <path class="cls-1" d="M175.72,212.1l.83.1c.4.04.74.31.89.69l2.98,7.85c.16.43.14.91-.07,1.32l-.38.76c-.09.16-.02.35.14.43.08.04.18.05.27.02l4.27-1.62c.2-.08.29-.31.21-.51-.05-.12-.15-.2-.27-.23-.55-.11-.84-.16-.87-.17-.38-.04-.69-.29-.83-.64l-1.09-2.82c-.12-.31,0-.66.27-.84,1.25-.81,2.42-.89,3.51-.26.14.09.34.05.43-.1.04-.07.06-.15.04-.22-.14-.79-.52-1.69-1.14-2.71-.09-.14-.26-.18-.4-.09-.07.04-.11.11-.13.19-.19,1.16-1.09,1.88-2.68,2.15-.32.06-.64-.12-.76-.43l-1.21-3.19c-.12-.32,0-.69.29-.88,1.09-.7,2.53-1.22,3.55-.33.3.25.61.45.94.59.15.06.32,0,.38-.16.03-.06.03-.13.01-.19-.23-.76-.54-1.39-.91-1.89-.19-.25-.53-.35-.83-.24l-7.51,2.86c-.15.06-.23.22-.17.37.04.1.13.18.24.19" vector-effect="non-scaling-stroke"/>
      <path class="cls-1" d="M152.32,216.09c-.14.01-.25.14-.24.28,0,.11.08.2.19.23.83.18,1.37.61,1.62,1.28.41,1.11.5,3.42.25,6.91-.28,3.93-5.81,3.96-6.16-.3-.14-1.65-.25-3.63-.33-5.92-.01-.3.09-.6.29-.82l.98-1.1c.14-.15.13-.38-.02-.52-.08-.07-.18-.11-.29-.1l-4.72.42c-.15.01-.26.14-.24.29.01.1.08.19.17.24l.71.27c.41.16.68.57.66,1.01-.1,2.13.01,4.45.34,6.96.31,2.38,1.71,3.64,4.2,3.77,6.41.34,5.71-5.47,5.46-10.31-.05-1.03.56-1.98,1.52-2.36l.21-.08c.78-.3,1.66.09,1.97.87.04.09.06.19.08.29.73,4.09,1.2,6.68,1.41,7.78.2,1.04-.06,1.37-.73,2.03-.12.12-.13.33,0,.45.07.07.17.11.27.09,2.85-.37,6.82-.74,8.61-3.18,1.08-1.46.79-3.84-1.2-4.3-.79-.19-1.24-.3-1.34-.34-.19-.08-.28-.3-.2-.49.02-.06.06-.11.11-.15,2.94-2.27.85-5.35-2.07-5.02-2.35.27-4.88.8-7.59,1.59-.13.04-.27.06-.41.07l-3.5.16" vector-effect="non-scaling-stroke"/>
      <path class="cls-1" d="M119.08,219.81c-.88,5.19,3.85,8,8.46,7.95,1.69-.02,2.17-1.26,2.56-2.8.04-.15-.06-.3-.21-.34-.09-.02-.18,0-.25.06-.38.32-.85.72-1.4,1.21-1.04.93-2.5,1.14-3.66.53-2.48-1.3-3.05-3.33-2.57-6.12.47-2.78,1.67-4.51,4.44-4.93,1.3-.19,2.6.49,3.28,1.71.37.64.68,1.17.93,1.6.09.13.27.17.4.08.07-.04.11-.11.12-.19.14-1.58.1-2.91-1.49-3.49-4.33-1.56-9.73-.46-10.61,4.73" vector-effect="non-scaling-stroke"/>
      <path class="cls-1" d="M133.17,216.28l.6.17c.37.1.63.45.61.83l-.4,8.58c-.01.37-.2.72-.5.95l-1.21.86c-.14.1-.17.29-.07.43.06.08.14.12.24.13l8.15.38c.37.01.71-.19.88-.52.35-.68.55-1.45.6-2.32.02-.18-.11-.34-.29-.37-.14-.02-.28.06-.34.2-.99,1.98-2.43,2.6-4.34,1.87-.39-.15-.64-.53-.62-.95l.4-8.61c.02-.29.16-.56.4-.73l1.1-.8c.14-.1.18-.29.07-.43-.06-.08-.15-.13-.24-.14l-4.92-.23c-.2,0-.36.16-.36.36,0,.15.1.29.24.34" vector-effect="non-scaling-stroke"/>
      <path class="cls-1" d="M173.48,56.99c1.81,16.15-8.67,31.12-20.54,41.1-.13.12-.15.32-.03.45.06.07.15.11.24.11h5.99c1.01,0,1.99-.31,2.82-.88,10.83-7.42,17.58-27.95,15.57-40.63-.1-.6-.61-1.04-1.22-1.04h-2.03c-.44,0-.8.35-.81.79,0,.03,0,.06,0,.1" vector-effect="non-scaling-stroke"/>
      <path class="cls-1" d="M141.17,92.31c0-.1-.06-.19-.15-.25l-13.83-8.95c-.15-.1-.36-.05-.46.1-.02.03-.04.07-.04.11l-2.82,14.96c-.03.18.09.35.26.38.02,0,.04,0,.07,0h17.17c.18,0,.33-.15.33-.33,0-.01,0-.02,0-.03l-.53-6" vector-effect="non-scaling-stroke"/>
      <path class="cls-1" d="M242.01,137.53c-.32,2.02,2.01,4.06,5.19,4.56,0,0,0,0,0,0,3.18.5,6.02-.73,6.33-2.75.32-2.02-2.01-4.06-5.19-4.56,0,0,0,0,0,0-3.18-.5-6.02.73-6.33,2.75" vector-effect="non-scaling-stroke"/>
      <path class="cls-1" d="M235.29,172.92l.98-1.6c.08-.12.04-.29-.08-.37l-.15-.09c-1.43-.88-2.87-1.13-3.22-.56-.35.57.52,1.74,1.95,2.62l.15.09c.13.08.29.04.37-.09" vector-effect="non-scaling-stroke"/>
      <path class="cls-1" d="M222.52,181.45l6.99,5.3c.48.36,1.16.27,1.53-.21,0,0,0,0,0,0l.31-.4c1.5-1.98.99-4.9-1.15-6.52l-.99-.75c-2.14-1.62-5.09-1.34-6.59.64l-.31.41c-.36.48-.27,1.16.21,1.53,0,0,0,0,0,0" vector-effect="non-scaling-stroke"/>
      <path class="cls-1" d="M80.6,202.25l1.4,1.04c.1.07.25.05.32-.05l.08-.1c1.05-1.42,1.52-2.86,1.03-3.22,0,0,0,0,0,0h-.02c-.48-.37-1.72.48-2.78,1.9l-.08.11c-.07.1-.05.25.05.32" vector-effect="non-scaling-stroke"/>
      <path class="cls-1" d="M190.58,205.44c-1.73,1.06-1.79,4.14-.11,6.88,1.67,2.74,4.43,4.1,6.17,3.04,0,0,0,0,0,0,1.73-1.06,1.79-4.14.11-6.88-1.67-2.74-4.43-4.1-6.17-3.04,0,0,0,0,0,0" vector-effect="non-scaling-stroke"/>
      <path class="cls-1" d="M161.27,216.17l.52,3.34c.06.38.41.65.79.59,0,0,0,0,0,0l.16-.03c1.32-.21,2.23-1.37,2.04-2.6,0,0,0,0,0,0l-.04-.27c-.19-1.23-1.42-2.06-2.74-1.85,0,0,0,0,0,0l-.16.02c-.38.06-.64.42-.58.8" vector-effect="non-scaling-stroke"/>
      <path class="cls-1" d="M162.31,221.86l.77,3.66c.09.43.51.7.94.61l.36-.07c1.45-.31,2.38-1.7,2.08-3.1l-.03-.13c-.29-1.4-1.7-2.3-3.15-2l-.36.08c-.43.09-.7.52-.61.95" vector-effect="non-scaling-stroke"/>
    </g>
    <path class="cls-5" d="M252.53,72.66c3.84,9.61,5.94,17.56,7.94,28.13,3.25,24.22-.2,46.85-10.36,67.89-31.8,65.84-115.75,87.31-174.97,43.37-34.63-25.69-51.98-67.36-46.19-110.6,1.33-9.22,3.92-18.72,7.75-28.51,9.35-21.71,23.48-38.96,42.37-51.73,61.28-41.44,144.56-16.66,173.46,51.45ZM118.2,34.07c-2.17,11.66-2.38,23.3-.63,34.93.08.49-.08,1-.41,1.37l-11.95,13.43c-.24.28-.67.32-.96.08-6.7-5.41-9.23-13.5-12.44-21.81-.07-.19-.28-.28-.46-.21-.09.03-.16.1-.2.18-3.57,7.07-5.92,20.06,2.12,25.01,4,2.46,8.24,2.29,12.73-.51.28-.18.62-.25.96-.19,4.38.75,8.55-.43,12.51-3.55.27-.21.65-.16.86.11.07.09.11.2.12.32l1.34,15.11c.02.16-.11.31-.28.33-.01,0-.02,0-.03,0h-21.99c-.54,0-.98.44-.98.98,0,0,0,.01,0,.02v.02c.02.54.46.96,1,.96l88.17.02c.56,0,1.04-.4,1.14-.95v-.03c.09-.47-.22-.92-.7-1.01-.05,0-.1-.01-.15-.01l-24-.02c-.13,0-.23-.09-.24-.22,0-.08.03-.16.1-.2,8.68-6.59,18.01-15.13,22.18-25.12,2.58-6.16,2.01-16.61-6.6-17.86-.58-.09-1.07-.49-1.26-1.05-.6-1.75-1.52-3.39-2.76-4.91-.57-.71-.74-1.66-.45-2.52,3.73-10.83,9.57-19.51,16.91-28.23.11-.13.09-.33-.04-.44-.08-.07-.18-.09-.28-.05-11.55,3.49-20.45,11.49-26.75,21.64-.17.28-.54.37-.82.2-.06-.04-.11-.08-.15-.13-7.03-8.59-12.98-18.11-17.84-28.57-.06-.15-.23-.22-.38-.15-.09.04-.16.12-.18.22-.89,4.55-1.58,8.61-2.09,12.2-1.76,12.5,4.94,20.92,15.31,27.84.25.17.38.47.31.76-1.55,6.67-2.65,13.7-3.3,21.07-.02.2-.19.34-.39.33-.05,0-.1-.02-.15-.05-1.87-1.09-4.1-2.28-6.7-3.55-.96-.47-2.82-1.87-5.58-4.22-3.88-3.29-4-8.37-3.24-12.82.02-.14-.08-.27-.22-.29-.1-.01-.2.03-.26.12-.76,1.35-1.48,3.33-2.17,5.94-.06.23-.29.37-.52.31-.08-.02-.16-.07-.22-.13-6.86-7.73-12.64-16-17.33-24.8-.09-.17-.29-.25-.47-.16-.1.05-.17.15-.19.26ZM54.62,126.49c4.14,43.6,37.62,76.55,80.88,81.7,2.61.31,3.52-.09,2.73-1.19.02-.84-.37-1.95-1.18-3.33-24.47-41.63-48.9-83.25-73.31-124.86-.12-.21-.38-.28-.59-.16-.07.04-.14.11-.17.19-7.11,15.04-9.9,30.92-8.36,47.65ZM150.67,207.07c-.23.15-.39.34-.48.57-.1.23,0,.49.24.59.06.02.12.04.18.04,2.81-.03,6.02-.36,9.62-.99,36.5-6.37,64.98-34.1,73.13-70.22,1.29-5.75,1.8-11.67,1.53-17.77.42-5.24.17-10.61-.75-16.11-1.42-8.49-3.99-16.63-7.71-24.42-.09-.2-.32-.28-.52-.18-.07.04-.14.09-.18.16l-75.06,128.33ZM180.9,103.33c0-.54-.43-.97-.97-.97h-75.64c-.54,0-.97.43-.97.97h0v.04c0,.54.43.97.97.97h75.64c.54,0,.97-.43.97-.97v-.04ZM142.55,185.25c.07-.74.07-4.51,0-11.3-.19-22.8-.45-44.39-.77-64.77,0-.31.25-.57.56-.58,0,0,0,0,.01,0h.39c.35,0,.63.28.64.63l.87,79.28s.03.06.06.06h.12s.07-.05.07-.09l4.31-79.28c0-.27.22-.49.5-.51l.37-.03c.37-.03.69.24.73.61,0,.03,0,.07,0,.1-.54,9.85-1.71,30.41-3.51,61.7-.17,2.86-.13,4.68.1,5.46.02.07.1.12.18.09.03,0,.05-.02.07-.04.09-.1.12-.21.11-.33-.05-.37-.08-.56-.08-.57,2.26-21.11,4.73-43.26,7.4-66.46.04-.33.33-.57.66-.55l.41.02c.31.02.55.29.53.6,0,.01,0,.02,0,.03l-8.52,74.28c-.01.1.05.19.15.21h0c.09.02.17-.03.19-.11,0,0,0-.01,0-.02l11.69-74.35c.06-.36.37-.63.74-.64h.3c.31,0,.57.25.58.57,0,.03,0,.06,0,.09l-15.82,99.7c-.03.19.1.37.28.4h.01c.19.04.37-.09.4-.27l18.87-99.97c.05-.3.31-.51.62-.51h7.37c.47,0,.85-.39.85-.86h0v-.27c0-.53-.43-.96-.96-.96h-61.62c-.55-.01-1,.44-1.01.99v.03c-.01.55.43,1.01.98,1.02,0,0,0,0,.01,0l7.49.06c.36,0,.67.25.74.6l21.77,100.8c.03.14.16.23.3.23h.25c.23,0,.41-.2.41-.43,0-.02,0-.04,0-.06l-16.86-100.46c-.06-.34.18-.67.52-.72.03,0,.05,0,.08,0h.11c.41-.03.78.26.85.67,4.36,25.59,8.64,51.35,12.84,77.3.01.07.5,2.73,1.46,7.99h.01c.18-2.07.13-3.6-.15-4.61-.71-2.61-.52-5.38-.81-8.21-1.53-15.01-3.86-39.19-6.99-72.53-.03-.34.22-.63.55-.66.02,0,.03,0,.05,0h.57c.28-.02.51.19.53.47l6.73,76.17c0,.2.16.36.36.36s.36-.16.36-.36ZM247.08,126.84l9.3-6.7c.28-.21.35-.61.14-.89-.11-.15-.29-.25-.48-.26-4.76-.31-7.73-.5-8.9-.59-1.39-.1-2.31-.58-2.76-1.43-.05-.11-.18-.16-.29-.11-.07.03-.12.11-.13.19l-.42,3.61c-.02.18.11.35.29.36.15.01.3-.08.36-.22.73-2.14,4.86-1.37,7.09-1.23.25.01.44.22.43.47,0,.13-.07.26-.18.34l-7.85,6.08c-.2.15-.32.37-.35.61l-.3,2.59c-.04.19.08.39.27.43.18.04.35-.06.42-.23.26-.53.55-.93.87-1.21.26-.22.6-.34.94-.31l8.17.67c.38.03.73.23.95.54l.52.72c.09.13.26.16.39.07.07-.05.11-.12.12-.2l.41-3.52c.02-.18-.1-.34-.27-.36-.13-.02-.25.04-.32.15l-.47.73c-.23.35-.6.58-1.01.62-2.35.25-4.63.12-6.85-.41-.15-.03-.25-.18-.21-.34.02-.07.06-.13.11-.17ZM45.83,122.52c-.09-1.56-.16-3.15-.21-4.77-.01-.31-.25-.56-.55-.59l-2.34-.24c-.25-.03-.48.16-.5.41-.02.24.14.46.37.5,1.78.32,2.53,1.29,2.25,2.9-.06.33-.34.58-.68.61-3.27.25-6.23.44-8.88.55-.74.04-1.28-.38-1.63-1.25-.07-.14-.24-.2-.39-.13-.1.05-.16.14-.16.25,0,.24.05,1.09.14,2.54.09,1.45.15,2.3.17,2.53.03.16.17.27.33.24.11-.02.19-.09.23-.19.24-.91.73-1.39,1.47-1.44,2.65-.21,5.61-.4,8.88-.55.34-.02.65.2.75.52.47,1.57-.15,2.62-1.87,3.15-.25.07-.39.32-.33.57.07.25.32.39.56.32h0l2.29-.52c.3-.06.5-.34.48-.65-.16-1.61-.29-3.2-.39-4.76ZM40.76,137.19c.17.87.31,1.47.42,1.8.08.24.02.5-.16.67-.21.2-.51.32-.88.35-1.84.16-3.25,1.27-4.72-.47-.1-.12-.27-.14-.39-.04-.08.07-.12.18-.1.28l1.03,4.75c.02.13.15.22.28.19.08-.02.15-.08.19-.16.34-.95,1.07-1.51,2.2-1.69,3.71-.61,6.1-1.04,7.16-1.31.35-.09.72-.03,1.03.17l.95.62c.17.11.4.06.51-.11.05-.08.07-.18.05-.28l-.94-4.36c-.03-.15-.18-.24-.32-.2-.08.02-.15.08-.19.15-.63,1.37-1.95,1.98-3.98,1.85-.32-.02-.6-.24-.68-.55,0,0-.12-.63-.36-1.88-.23-1.24-.35-1.86-.35-1.87-.04-.32.13-.62.42-.76,1.83-.87,3.29-.79,4.38.25.1.11.27.11.38,0,.07-.06.1-.16.08-.25l-.74-4.4c-.04-.2-.23-.33-.43-.29-.09.02-.17.07-.23.14l-.66.93c-.21.29-.53.48-.89.53-1.09.15-3.47.62-7.14,1.43-1.11.25-2,0-2.67-.76-.1-.1-.26-.1-.35,0-.06.05-.08.13-.07.21l.79,4.8c.02.15.15.27.31.25.12-.01.21-.1.24-.21.72-2.16,2.44-1.65,4.21-2.18.36-.11.68-.11.95,0,.23.09.39.31.4.56.01.35.1.97.27,1.84ZM254.38,138.44c0-3.66-2.97-6.63-6.63-6.63s-6.63,2.97-6.63,6.63,2.97,6.63,6.63,6.63h0c3.66,0,6.63-2.97,6.63-6.63h0ZM48.33,144.57l-.03.44c-.03.5-.36.92-.83,1.07l-8.08,2.58c-.41.13-.86.05-1.2-.22l-.76-.62c-.13-.09-.31-.06-.4.07-.05.07-.07.16-.05.24l2.54,7.95c.12.36.41.64.78.73.89.23,1.7.13,2.43-.28.16-.1.21-.31.12-.47-.05-.09-.14-.14-.25-.15-2.03-.19-3.13-1.45-3.3-3.78-.03-.44.24-.85.66-.98l3.24-1.03c.32-.1.66.05.8.36.53,1.21.51,2.3-.08,3.25-.09.15-.05.35.1.44.08.05.19.06.28.03l2.67-.85c.17-.06.26-.24.2-.41-.03-.1-.11-.18-.21-.2-1.06-.35-1.74-1.19-2.05-2.54-.07-.34.12-.67.45-.78l3.19-1.02c.32-.11.66.01.85.29,1.05,1.53.94,2.96-.31,4.27-.14.13-.15.34-.02.48.08.09.21.13.33.1.59-.11,1.12-.31,1.57-.6.4-.26.57-.76.43-1.21l-2.32-7.26c-.08-.2-.31-.3-.51-.22-.13.05-.23.18-.24.32ZM238.6,147.76c-.39,1.2-.6,1.82-.61,1.86-.04.15.05.31.2.36.05.01.1.01.15,0,1.61-.43,3.28-.22,5,.61.28.13.57.25.87.35.29.1.59.18.9.23,1.88.35,3.34,1.18,4.39,2.48.1.12.29.14.41.03.04-.03.06-.07.08-.11.01-.04.22-.66.61-1.86.4-1.2.6-1.82.61-1.86.04-.16-.06-.31-.21-.35-.04-.01-.09-.01-.14,0-1.61.43-3.28.22-4.99-.61-.28-.14-.57-.26-.87-.35-.3-.1-.6-.18-.91-.24-1.88-.35-3.34-1.17-4.38-2.47-.1-.13-.28-.15-.41-.05-.04.03-.07.07-.09.12-.01.04-.22.66-.61,1.86ZM235.18,157.23c-.63,1.43-1.29,2.88-2,4.34-.13.28-.04.62.22.78l1.98,1.28c.22.13.5.07.63-.15.12-.2.08-.46-.1-.6-1.43-1.1-1.66-2.3-.67-3.61.21-.27.57-.36.88-.23,3.03,1.27,5.75,2.47,8.17,3.58.67.31.97.93.88,1.86,0,.16.13.29.29.29.1,0,.2-.05.25-.14.11-.21.45-.99,1.04-2.33.59-1.33.92-2.11,1.01-2.33.05-.15-.03-.32-.18-.37-.11-.04-.22-.01-.3.07-.63.69-1.28.9-1.96.61-2.46-1.03-5.18-2.22-8.17-3.59-.31-.14-.48-.48-.42-.81.29-1.61,1.33-2.26,3.11-1.95.25.02.47-.18.49-.43.01-.2-.11-.39-.3-.46l-2.28-.59c-.29-.08-.6.08-.72.36-.6,1.51-1.22,2.98-1.85,4.42ZM65.15,176.26c-1.02-1.77-2.16-3.28-3.41-4.53-.12-.13-.23-.27-.32-.43l-1.9-3.38c-.1-.17-.31-.22-.48-.13-.09.05-.16.15-.17.26l-.07.6c-.05.49-.43.89-.92.97l-7.19,1.21c-.12.01-.22-.07-.23-.18,0-.06,0-.11.04-.16l5.17-5.81s.07-.05.11-.04l1.4.16c.27.03.51-.17.54-.44.01-.12-.02-.24-.09-.34l-2.82-3.92c-.04-.06-.12-.07-.18-.02-.03.02-.05.06-.06.09l-.15,1.31c-.05.42-.22.82-.49,1.15l-6.98,8.48c-.19.25-.15.61.1.8.11.09.26.13.4.12,3.38-.37,6.88-.8,10.5-1.31,1.34-.19,2.52.2,3.54,1.15.67.63.71,1.68.09,2.35-.07.08-.16.15-.25.22l-6.45,4.66c-.23.16-.51.23-.79.2l-1.7-.19c-.16-.02-.3.1-.32.26,0,.07.01.13.05.19l2.48,3.69c.15.22.45.28.67.13.05-.03.09-.07.12-.12,0,0,0-.26,0-.77-.01-.39.17-.75.48-.98l6.93-4.99c.31-.23.72-.28,1.07-.12l.84.37c.18.08.39-.01.47-.2.04-.1.03-.22-.02-.31ZM238.84,176.04c-1.65.18-2.54-.26-2.67-1.31-.21-1.78.73-3.4,2.11-3.62.13-.02.25-.03.38-.02,1.09.05,1.82.55,2.21,1.52.03.09.13.13.22.1.03-.01.06-.03.08-.06l2.6-3.58c.13-.18.09-.43-.09-.56-.12-.09-.29-.1-.42-.02-.78.43-1.56.59-2.35.46-2.84-.43-6.41-1.08-10.7-1.95-.32-.07-.63.13-.7.45-.04.17,0,.35.1.49.81,1.13,2.95,3.92,6.42,8.37.75.96,1.07,1.79.96,2.49-.03.16.07.32.24.35.12.02.24-.03.3-.12l1.7-2.32c.14-.18.1-.45-.08-.59-.09-.07-.2-.1-.31-.08ZM215.06,187.3l1.35-.29c.34-.07.7.03.94.27l3.97,3.97c.19.19.19.5,0,.69-.1.1-.25.15-.39.14l-9.17-1.05c-.24-.03-.47.04-.66.17l-6.5,4.69c-.14.1-.16.3-.06.43.07.09.19.14.31.12,1.06-.26,1.92,0,2.59.8,1.34,1.6,2.54,3.35,3.6,5.25.18.31.27.67.27,1.02-.02,2.92-2.82,4.73-5.08,2.52-1.31-1.27-2.73-3.11-4.26-5.5-.1-.16-.14-.34-.12-.52l.18-1.56c.02-.17-.1-.33-.27-.35-.08-.01-.16.01-.22.06l-3.6,2.65c-.19.14-.23.4-.09.59.08.11.21.18.35.17h.19c.69.03,1.33.37,1.75.93l3.58,4.81c1.4,1.88,4.05,2.29,5.95.92l.81-.59c2.08-1.5,2.56-4.41,1.06-6.49,0,0,0,0,0,0l-3.49-4.84c-.5-.69-.34-1.65.34-2.15l.47-.33c.74-.56,1.78-.48,2.43.18,1.54,1.59,3.22,3.32,5.03,5.2.59.62.81,1.48.66,2.59-.02.17.09.33.26.35.1.01.2-.02.27-.09l2.47-2.47c.13-.13.14-.34,0-.47-.08-.08-.2-.12-.31-.09l-1.05.23c-.44.09-.9-.04-1.21-.36l-4.33-4.33c-.17-.17-.17-.45,0-.62.07-.07.16-.12.26-.13,1.7-.22,6.22.58,11.5,1.17.33.04.63-.2.66-.53.02-.18-.04-.36-.17-.49l-7.06-7.06c-.7-.7-.7-1.83,0-2.53l.55-.55c.82-.82,2.14-.86,3-.08l6.26,5.56c.15.13.22.33.2.53l-.08.75c-.03.2.11.38.31.4.13.02.25-.03.33-.13,3.69-4.58,7.73-9.76,2.46-13.97-5.45-4.35-9.31,1.97-12.54,6.44-.2.27-.44.5-.72.69-.96.66-2.02,1.64-3.18,2.93-.08.09-.07.23.02.31.05.04.12.06.19.05ZM65.89,178.8l.29.55c.18.34.11.76-.18,1.01l-6.44,5.63c-.28.25-.66.36-1.03.3l-1.46-.28c-.17-.03-.33.08-.36.25-.02.09,0,.19.07.26l5.35,6.13c.25.28.64.38,1,.27.72-.22,1.41-.61,2.07-1.16.15-.1.2-.3.1-.46-.09-.13-.26-.19-.41-.12-2.11.65-3.55.04-4.34-1.83-.16-.38-.06-.82.25-1.1l6.47-5.65c.22-.2.51-.28.8-.23l1.34.24c.17.03.33-.08.36-.25.02-.09,0-.19-.07-.26l-3.23-3.7c-.13-.14-.36-.15-.51-.03-.12.11-.15.28-.07.43ZM73.08,186.74l.36.51c.23.32.21.74-.05,1.03l-5.7,6.4c-.25.28-.61.44-.99.42l-1.48-.09c-.17,0-.32.13-.32.3,0,.09.03.18.1.24l6.08,5.42c.28.24.68.3,1.02.15.69-.31,1.33-.79,1.92-1.42.13-.13.13-.34,0-.47-.1-.1-.26-.13-.38-.06-2.01.91-3.53.49-4.55-1.28-.2-.36-.15-.81.12-1.12l5.72-6.43c.2-.22.48-.34.77-.32l1.36.07c.17.01.32-.12.32-.3,0-.09-.03-.19-.1-.25l-3.67-3.27c-.14-.13-.37-.13-.51,0-.12.13-.13.32-.02.46ZM77.01,205.41c-.01-1.67.51-2.51,1.57-2.53,1.8-.04,3.32,1.06,3.41,2.45,0,.13,0,.26-.02.39-.15,1.08-.73,1.77-1.73,2.06-.09.02-.14.12-.12.21,0,.03.03.06.05.08l3.31,2.95c.16.15.42.14.56-.02.11-.12.13-.28.07-.43-.35-.83-.43-1.62-.23-2.39.71-2.79,1.71-6.29,3-10.49.09-.32-.09-.65-.41-.74-.15-.04-.32-.03-.46.05-1.21.69-4.21,2.55-8.99,5.58-1.03.65-1.89.89-2.58.71-.16-.05-.33.03-.38.19-.04.12,0,.25.1.33l2.15,1.92c.17.15.44.14.59-.03.07-.08.11-.18.11-.29ZM95.2,211.16c1.1,1.65.77,3.13-.98,4.45-.33.24-.77.28-1.13.09-5.39-2.81-.93-12.5,4.69-10.58,1.92.65,2.74,2.41,2.37,4.39-.03.17.09.34.26.37.11.02.23-.02.3-.11.54-.65.88-1.36,1.03-2.13.08-.4-.06-.82-.37-1.09-2.66-2.33-5.22-3.29-7.68-2.9-4.91.77-7.29,6.47-3.99,10.41,1.45,1.74,3.53,2.88,6.25,3.41.39.07.76-.15.88-.53.47-1.59,1.32-2.67,2.55-3.25.17-.08.25-.29.17-.47-.03-.06-.07-.11-.13-.14l-3.73-2.41c-.15-.12-.37-.08-.49.07-.09.12-.09.3,0,.42ZM200.25,210.44c0-3.67-2.97-6.64-6.64-6.64s-6.64,2.97-6.64,6.64c0,3.67,2.97,6.64,6.64,6.64h0c3.67,0,6.64-2.97,6.64-6.64h0ZM104.37,208.33l.33.3c.37.33.5.86.32,1.32l-3.05,7.93c-.16.41-.51.71-.93.8l-.96.2c-.16.04-.25.2-.21.35.02.09.09.16.17.2l7.8,3c.36.14.76.08,1.06-.15.74-.56,1.18-1.25,1.31-2.07.02-.19-.11-.36-.3-.38-.1-.01-.2.02-.27.09-1.43,1.47-3.1,1.53-5.02.2-.36-.25-.51-.72-.35-1.12l1.22-3.18c.12-.31.46-.49.79-.4,1.28.34,2.11,1.04,2.49,2.1.06.17.25.25.41.19.09-.03.16-.1.19-.19l1.01-2.62c.06-.16-.02-.35-.18-.41-.1-.04-.21-.03-.3.03-.93.61-2.02.62-3.27.01-.31-.15-.45-.52-.33-.84l1.2-3.13c.12-.31.43-.51.76-.48,1.86.14,2.91,1.11,3.15,2.92.02.19.19.32.37.3.11-.01.21-.08.27-.18.29-.53.47-1.07.52-1.61.04-.47-.24-.92-.68-1.09l-7.12-2.74c-.2-.07-.43.03-.5.24-.05.15-.01.31.1.41ZM175.72,212.1l.83.1c.4.04.74.31.89.69l2.98,7.85c.16.43.14.91-.07,1.32l-.38.76c-.09.16-.02.35.14.43.08.04.18.05.27.02l4.27-1.62c.2-.08.29-.31.21-.51-.05-.12-.15-.2-.27-.23-.55-.11-.84-.16-.87-.17-.38-.04-.69-.29-.83-.64l-1.09-2.82c-.12-.31,0-.66.27-.84,1.25-.81,2.42-.89,3.51-.26.14.09.34.05.43-.1.04-.07.06-.15.04-.22-.14-.79-.52-1.69-1.14-2.71-.09-.14-.26-.18-.4-.09-.07.04-.11.11-.13.19-.19,1.16-1.09,1.88-2.68,2.15-.32.06-.64-.12-.76-.43l-1.21-3.19c-.12-.32,0-.69.29-.88,1.09-.7,2.53-1.22,3.55-.33.3.25.61.45.94.59.15.06.32,0,.38-.16.03-.06.03-.13.01-.19-.23-.76-.54-1.39-.91-1.89-.19-.25-.53-.35-.83-.24l-7.51,2.86c-.15.06-.23.22-.17.37.04.1.13.18.24.19ZM152.32,216.09c-.14.01-.25.14-.24.28,0,.11.08.2.19.23.83.18,1.37.61,1.62,1.28.41,1.11.5,3.42.25,6.91-.28,3.93-5.81,3.96-6.16-.3-.14-1.65-.25-3.63-.33-5.92-.01-.3.09-.6.29-.82l.98-1.1c.14-.15.13-.38-.02-.52-.08-.07-.18-.11-.29-.1l-4.72.42c-.15.01-.26.14-.24.29.01.1.08.19.17.24l.71.27c.41.16.68.57.66,1.01-.1,2.13.01,4.45.34,6.96.31,2.38,1.71,3.64,4.2,3.77,6.41.34,5.71-5.47,5.46-10.31-.05-1.03.56-1.98,1.52-2.36l.21-.08c.78-.3,1.66.09,1.97.87.04.09.06.19.08.29.73,4.09,1.2,6.68,1.41,7.78.2,1.04-.06,1.37-.73,2.03-.12.12-.13.33,0,.45.07.07.17.11.27.09,2.85-.37,6.82-.74,8.61-3.18,1.08-1.46.79-3.84-1.2-4.3-.79-.19-1.24-.3-1.34-.34-.19-.08-.28-.3-.2-.49.02-.06.06-.11.11-.15,2.94-2.27.85-5.35-2.07-5.02-2.35.27-4.88.8-7.59,1.59-.13.04-.27.06-.41.07l-3.5.16ZM119.08,219.81c-.88,5.19,3.85,8,8.46,7.95,1.69-.02,2.17-1.26,2.56-2.8.04-.15-.06-.3-.21-.34-.09-.02-.18,0-.25.06-.38.32-.85.72-1.4,1.21-1.04.93-2.5,1.14-3.66.53-2.48-1.3-3.05-3.33-2.57-6.12.47-2.78,1.67-4.51,4.44-4.93,1.3-.19,2.6.49,3.28,1.71.37.64.68,1.17.93,1.6.09.13.27.17.4.08.07-.04.11-.11.12-.19.14-1.58.1-2.91-1.49-3.49-4.33-1.56-9.73-.46-10.61,4.73ZM133.17,216.28l.6.17c.37.1.63.45.61.83l-.4,8.58c-.01.37-.2.72-.5.95l-1.21.86c-.14.1-.17.29-.07.43.06.08.14.12.24.13l8.15.38c.37.01.71-.19.88-.52.35-.68.55-1.45.6-2.32.02-.18-.11-.34-.29-.37-.14-.02-.28.06-.34.2-.99,1.98-2.43,2.6-4.34,1.87-.39-.15-.64-.53-.62-.95l.4-8.61c.02-.29.16-.56.4-.73l1.1-.8c.14-.1.18-.29.07-.43-.06-.08-.15-.13-.24-.14l-4.92-.23c-.2,0-.36.16-.36.36,0,.15.1.29.24.34Z"/>
    <path class="cls-6" d="M118.86,33.97c4.69,8.8,10.47,17.07,17.33,24.8.16.18.43.2.61.04.07-.06.11-.13.13-.22.69-2.61,1.41-4.59,2.17-5.94.07-.12.23-.16.36-.09.09.05.14.16.12.26-.76,4.45-.64,9.53,3.24,12.82,2.76,2.35,4.62,3.75,5.58,4.22,2.6,1.27,4.83,2.46,6.7,3.55.17.1.39.04.49-.13.03-.05.04-.1.05-.15.65-7.37,1.75-14.4,3.3-21.07.07-.29-.06-.59-.31-.76-10.37-6.92-17.07-15.34-15.31-27.84.51-3.59,1.2-7.65,2.09-12.2.03-.16.19-.27.35-.24.1.02.18.08.21.17,4.86,10.46,10.81,19.98,17.84,28.57.2.25.58.29.83.08.05-.04.1-.1.14-.15,6.3-10.15,15.2-18.15,26.75-21.64.16-.05.33.04.38.2.03.1,0,.21-.06.29-7.34,8.72-13.18,17.4-16.91,28.23-.29.86-.12,1.81.45,2.52,1.24,1.52,2.16,3.16,2.76,4.91.19.56.68.96,1.26,1.05,8.61,1.25,9.18,11.7,6.6,17.86-4.17,9.99-13.5,18.53-22.18,25.12-.11.07-.13.21-.06.32.04.07.12.1.2.1l24,.02c.48,0,.87.39.87.87,0,.05,0,.1-.01.15v.03c-.11.55-.59.95-1.15.95l-88.17-.02c-.54,0-.98-.42-1-.96v-.02c-.01-.54.42-.99.96-1,0,0,.01,0,.02,0h21.99c.17,0,.31-.13.31-.3,0-.01,0-.02,0-.03l-1.34-15.11c-.03-.34-.33-.58-.66-.55-.12.01-.23.05-.32.12-3.96,3.12-8.13,4.3-12.51,3.55-.34-.06-.68,0-.96.19-4.49,2.8-8.73,2.97-12.73.51-8.04-4.95-5.69-17.94-2.12-25.01.09-.18.3-.25.48-.17.08.04.15.11.18.2,3.21,8.31,5.74,16.4,12.44,21.81.29.24.72.2.96-.08l11.95-13.43c.33-.37.49-.88.41-1.37-1.75-11.63-1.54-23.27.63-34.93.03-.19.21-.32.4-.29.11.02.21.09.26.19ZM173.48,56.99c1.81,16.15-8.67,31.12-20.54,41.1-.13.12-.15.32-.03.45.06.07.15.11.24.11h5.99c1.01,0,1.99-.31,2.82-.88,10.83-7.42,17.58-27.95,15.57-40.63-.1-.6-.61-1.04-1.22-1.04h-2.03c-.44,0-.8.35-.81.79,0,.03,0,.06,0,.1ZM141.17,92.31c0-.1-.06-.19-.15-.25l-13.83-8.95c-.15-.1-.36-.05-.46.1-.02.03-.04.07-.04.11l-2.82,14.96c-.03.18.09.35.26.38.02,0,.04,0,.07,0h17.17c.18,0,.33-.15.33-.33,0-.01,0-.02,0-.03l-.53-6Z"/>
    <path class="cls-5" d="M173.48,56.99c-.05-.44.27-.84.7-.88.03,0,.06,0,.1,0h2.03c.61,0,1.12.44,1.22,1.04,2.01,12.68-4.74,33.21-15.57,40.63-.83.57-1.81.88-2.82.88h-5.99c-.18,0-.32-.14-.32-.32,0-.09.04-.18.11-.24,11.87-9.98,22.35-24.95,20.54-41.1Z"/>
    <path class="cls-4" d="M260.47,100.79c-2-10.57-4.1-18.52-7.94-28.13l35.73.11c.22,0,.4.18.39.41,0,.1-.04.2-.11.27l-28.07,27.34Z"/>
    <path class="cls-4" d="M36.7,72.94c-3.83,9.79-6.42,19.29-7.75,28.51L1.14,73.67c-.19-.19-.19-.5,0-.69.09-.09.21-.14.34-.14l35.22.1Z"/>
    <path class="cls-4" d="M138.23,207c-1.21-.03-2.1-.31-2.65-.85-11.69-11.41-37.94-37.3-78.75-77.67-.26-.26-.48-.56-.64-.89-.67-1.42-1.19-1.79-1.57-1.1-1.54-16.73,1.25-32.61,8.36-47.65.1-.21.36-.3.57-.2.08.04.14.1.19.17,24.41,41.61,48.84,83.23,73.31,124.86.81,1.38,1.2,2.49,1.18,3.33Z"/>
    <path class="cls-4" d="M234.89,119.29c-.89,1.67-1.16,3.65-.83,5.92.05.31.01.63-.1.93-.38,1.09-.89,1.94-1.53,2.57-19.17,18.83-45.13,44.46-77.9,76.87-1.13,1.12-2.42,1.62-3.86,1.49l75.06-128.33c.11-.19.35-.26.54-.15.07.04.12.1.16.17,3.72,7.79,6.29,15.93,7.71,24.42.92,5.5,1.17,10.87.75,16.11Z"/>
    <path class="cls-5" d="M141.17,92.31l.53,6c.02.18-.12.34-.3.36-.01,0-.02,0-.03,0h-17.17c-.18,0-.33-.14-.34-.32,0-.02,0-.04,0-.07l2.82-14.96c.04-.18.21-.29.39-.25.04,0,.08.02.11.04l13.83,8.95c.09.06.14.15.15.25Z"/>
    <rect class="cls-6" x="103.32" y="102.36" width="77.58" height="1.98" rx=".97" ry=".97"/>
    <path class="cls-6" d="M141.83,185.25l-6.73-76.17c-.02-.28-.25-.49-.53-.48h-.57c-.33,0-.6.28-.6.62,0,.02,0,.04,0,.05,3.13,33.34,5.46,57.52,6.99,72.53.29,2.83.1,5.6.81,8.21.28,1.01.33,2.54.15,4.61h-.01c-.96-5.26-1.45-7.92-1.46-7.99-4.2-25.95-8.48-51.71-12.84-77.3-.07-.41-.44-.7-.85-.68h-.11c-.35.02-.62.31-.61.66,0,.03,0,.05,0,.08l16.86,100.46c.04.23-.12.45-.34.48-.02,0-.04,0-.06,0h-.25c-.14,0-.27-.09-.3-.23l-21.77-100.8c-.07-.35-.38-.59-.74-.6l-7.49-.06c-.55,0-1-.46-.99-1.01,0,0,0,0,0-.01v-.03c0-.55.46-1,1.01-1h61.62c.53.01.96.44.96.97h0v.27c0,.47-.38.86-.85.86h-7.37c-.31,0-.57.21-.62.51l-18.87,99.97c-.03.18-.21.31-.4.28h-.01c-.18-.04-.31-.22-.28-.41l15.82-99.7c.04-.32-.17-.61-.48-.65-.03,0-.06,0-.09,0h-.3c-.37,0-.68.28-.74.64l-11.69,74.35c0,.08-.09.14-.17.13,0,0-.01,0-.02,0h0c-.1-.02-.16-.11-.15-.21l8.52-74.28c.04-.31-.18-.59-.5-.63-.01,0-.02,0-.03,0l-.41-.02c-.33-.02-.62.22-.66.55-2.67,23.2-5.14,45.35-7.4,66.46,0,0,.03.2.08.57.01.12-.02.23-.11.33-.05.06-.14.07-.2.01-.02-.02-.03-.04-.04-.07-.23-.78-.27-2.6-.1-5.46,1.8-31.29,2.97-51.85,3.51-61.7.02-.37-.26-.69-.63-.71-.03,0-.07,0-.1,0l-.37.03c-.28.02-.49.24-.5.51l-4.31,79.28s-.03.07-.07.08h-.12s-.06-.02-.06-.05h0s-.87-79.28-.87-79.28c0-.35-.29-.63-.64-.63h-.39c-.31,0-.57.26-.57.57,0,0,0,0,0,.01.32,20.38.58,41.97.77,64.77.06,6.79.06,10.56,0,11.3,0,.2-.16.36-.36.36s-.36-.16-.36-.36Z"/>
    <path class="cls-6" d="M247.18,127.35c2.22.53,4.5.66,6.85.41.41-.04.78-.27,1.01-.62l.47-.73c.09-.15.29-.2.44-.11.11.07.17.19.15.32l-.41,3.52c-.02.15-.15.27-.31.25-.08,0-.16-.05-.2-.12l-.52-.72c-.22-.31-.57-.51-.95-.54l-8.17-.67c-.34-.03-.68.09-.94.31-.32.28-.61.68-.87,1.21-.07.19-.27.28-.46.22-.17-.06-.27-.24-.23-.42l.3-2.59c.03-.24.15-.46.35-.61l7.85-6.08c.2-.15.24-.43.09-.63-.08-.11-.21-.17-.34-.18-2.23-.14-6.36-.91-7.09,1.23-.07.17-.26.27-.43.2-.14-.05-.23-.19-.22-.34l.42-3.61c0-.12.11-.21.23-.21.08,0,.16.05.19.13.45.85,1.37,1.33,2.76,1.43,1.17.09,4.14.28,8.9.59.35.02.61.32.59.67-.01.19-.11.37-.26.48l-9.3,6.7c-.13.1-.16.28-.07.4.04.06.1.09.17.11Z"/>
    <path class="cls-6" d="M45.83,122.52c.1,1.56.23,3.15.39,4.76.02.31-.18.59-.48.65l-2.29.52c-.25.07-.5-.08-.56-.32-.07-.25.08-.5.33-.57h0c1.72-.53,2.34-1.58,1.87-3.15-.1-.32-.41-.54-.75-.52-3.27.15-6.23.34-8.88.55-.74.05-1.23.53-1.47,1.44-.05.15-.22.23-.37.18-.1-.04-.17-.12-.19-.23-.02-.23-.08-1.08-.17-2.53-.09-1.45-.13-2.3-.14-2.54,0-.16.14-.29.3-.28.11,0,.2.07.25.16.35.87.89,1.29,1.63,1.25,2.65-.11,5.61-.3,8.88-.55.34-.03.62-.28.68-.61.28-1.61-.47-2.58-2.25-2.9-.25-.05-.41-.29-.37-.54.04-.24.26-.4.5-.37l2.34.24c.3.03.54.28.55.59.05,1.62.12,3.21.21,4.77Z"/>
    <path class="cls-6" d="M234.89,119.29c.27,6.1-.24,12.02-1.53,17.77-8.15,36.12-36.63,63.85-73.13,70.22-3.6.63-6.81.96-9.62.99-.25,0-.46-.21-.46-.46,0-.06.01-.12.04-.17.09-.23.25-.42.48-.57,1.44.13,2.73-.37,3.86-1.49,32.77-32.41,58.73-58.04,77.9-76.87.64-.63,1.15-1.48,1.53-2.57.11-.3.15-.62.1-.93-.33-2.27-.06-4.25.83-5.92Z"/>
    <path class="cls-6" d="M138.23,207c.79,1.1-.12,1.5-2.73,1.19-43.26-5.15-76.74-38.1-80.88-81.7.38-.69.9-.32,1.57,1.1.16.33.38.63.64.89,40.81,40.37,67.06,66.26,78.75,77.67.55.54,1.44.82,2.65.85Z"/>
    <path class="cls-6" d="M41.86,136.97c.24,1.25.36,1.87.36,1.88.08.31.36.53.68.55,2.03.13,3.35-.48,3.98-1.85.06-.14.22-.2.36-.14.08.03.13.1.15.19l.94,4.36c.04.2-.08.4-.28.44-.09.02-.19,0-.28-.05l-.95-.62c-.31-.2-.68-.26-1.03-.17-1.06.27-3.45.7-7.16,1.31-1.13.18-1.86.74-2.2,1.69-.05.13-.19.19-.32.15-.08-.03-.14-.1-.15-.18l-1.03-4.75c-.04-.15.06-.3.21-.34.1-.02.21.01.28.1,1.47,1.74,2.88.63,4.72.47.37-.03.67-.15.88-.35.18-.17.24-.43.16-.67-.11-.33-.25-.93-.42-1.8-.17-.87-.26-1.49-.27-1.84-.01-.25-.17-.47-.4-.56-.27-.11-.59-.11-.95,0-1.77.53-3.49.02-4.21,2.18-.04.15-.19.24-.34.2-.11-.03-.2-.13-.21-.24l-.79-4.8c-.02-.13.07-.25.21-.27.08-.01.16.02.21.07.67.75,1.56,1.01,2.67.76,3.67-.81,6.05-1.28,7.14-1.43.36-.05.68-.24.89-.53l.66-.93c.12-.16.35-.2.52-.08.07.05.12.14.14.23l.74,4.4c.03.15-.06.29-.21.32-.09.02-.18-.01-.25-.08-1.09-1.04-2.55-1.12-4.38-.25-.29.14-.46.44-.42.76,0,0,.12.63.35,1.87Z"/>
    <path class="cls-6" d="M254.38,138.44c0,3.66-2.97,6.63-6.63,6.63h0c-3.66,0-6.63-2.97-6.63-6.63h0c0-3.66,2.97-6.63,6.63-6.63s6.63,2.97,6.63,6.63ZM242.01,137.53c-.32,2.02,2.01,4.06,5.19,4.56,0,0,0,0,0,0,3.18.5,6.02-.73,6.33-2.75.32-2.02-2.01-4.06-5.19-4.56,0,0,0,0,0,0-3.18-.5-6.02.73-6.33,2.75Z"/>
    <ellipse class="cls-5" cx="247.77" cy="138.43" rx="3.7" ry="5.83" transform="translate(72.67 361.81) rotate(-81.1)"/>
    <path class="cls-6" d="M48.33,144.57c.02-.21.22-.37.43-.34.14.02.27.11.32.24l2.32,7.26c.14.45-.03.95-.43,1.21-.45.29-.98.49-1.57.6-.18.04-.37-.07-.41-.25-.03-.12,0-.24.1-.33,1.25-1.31,1.36-2.74.31-4.27-.19-.28-.53-.4-.85-.29l-3.19,1.02c-.33.11-.52.44-.45.78.31,1.35.99,2.19,2.05,2.54.17.05.27.23.21.4-.03.1-.11.18-.2.21l-2.67.85c-.17.06-.35-.03-.41-.19-.03-.09-.02-.19.03-.28.59-.95.61-2.04.08-3.25-.14-.31-.48-.46-.8-.36l-3.24,1.03c-.42.13-.69.54-.66.98.17,2.33,1.27,3.59,3.3,3.78.18.02.31.18.29.37-.01.1-.07.2-.16.25-.73.41-1.54.51-2.43.28-.37-.09-.66-.37-.78-.73l-2.54-7.95c-.04-.15.05-.31.21-.36.08-.02.17,0,.24.05l.76.62c.34.27.79.35,1.2.22l8.08-2.58c.47-.15.8-.57.83-1.07l.03-.44Z"/>
    <path class="cls-6" d="M245,148.54c.3.09.59.21.87.35,1.71.83,3.38,1.04,4.99.61.16-.04.31.06.35.21.01.04.01.09,0,.14,0,.04-.21.66-.61,1.86-.39,1.2-.6,1.82-.61,1.86-.06.15-.23.22-.38.16-.04-.02-.08-.05-.11-.08-1.05-1.3-2.51-2.13-4.39-2.48-.31-.05-.61-.13-.9-.23-.3-.1-.59-.22-.87-.35-1.72-.83-3.39-1.04-5-.61-.16.04-.31-.05-.35-.21-.01-.05-.01-.1,0-.15.01-.04.22-.66.61-1.86.39-1.2.6-1.82.61-1.86.06-.15.23-.22.38-.16.05.02.09.05.12.09,1.04,1.3,2.5,2.12,4.38,2.47.31.06.61.14.91.24Z"/>
    <path class="cls-6" d="M246.75,162.3c-.59,1.34-.93,2.12-1.04,2.33-.08.14-.26.18-.4.1-.09-.05-.14-.15-.14-.25.09-.93-.21-1.55-.88-1.86-2.42-1.11-5.14-2.31-8.17-3.58-.31-.13-.67-.04-.88.23-.99,1.31-.76,2.51.67,3.61.2.16.23.45.07.65-.15.18-.4.23-.6.1l-1.98-1.28c-.26-.16-.35-.5-.22-.78.71-1.46,1.37-2.91,2-4.34.63-1.44,1.25-2.91,1.85-4.42.12-.28.43-.44.72-.36l2.28.59c.24.09.36.35.27.59-.07.19-.26.31-.46.3-1.78-.31-2.82.34-3.11,1.95-.06.33.11.67.42.81,2.99,1.37,5.71,2.56,8.17,3.59.68.29,1.33.08,1.96-.61.11-.11.3-.12.41,0,.08.08.11.2.07.3-.09.22-.42,1-1.01,2.33Z"/>
    <path class="cls-6" d="M64.7,176.77l-.84-.37c-.35-.16-.76-.11-1.07.12l-6.93,4.99c-.31.23-.49.59-.48.98.01.51.02.76,0,.77-.15.22-.45.27-.67.11-.05-.03-.09-.08-.12-.12l-2.48-3.69c-.09-.13-.05-.31.08-.4.06-.04.12-.05.19-.05l1.7.19c.28.03.56-.04.79-.2l6.45-4.66c.75-.53.91-1.57.38-2.32-.06-.09-.14-.17-.22-.25-1.02-.95-2.2-1.34-3.54-1.15-3.62.51-7.12.94-10.5,1.31-.31.03-.59-.2-.62-.52-.01-.15.03-.29.12-.4l6.98-8.48c.27-.33.44-.73.49-1.15l.15-1.31c.01-.08.08-.13.15-.12.04,0,.07.02.09.05l2.82,3.92c.16.23.1.54-.12.69-.1.07-.21.1-.33.09l-1.4-.16s-.09,0-.11.04l-5.17,5.81c-.07.09-.06.22.03.3.04.04.1.05.16.04l7.19-1.21c.49-.08.87-.48.92-.97l.07-.6c.03-.19.2-.33.39-.3.11.01.2.08.26.17l1.9,3.38c.09.16.2.3.32.43,1.25,1.25,2.39,2.76,3.41,4.53.1.17.04.39-.14.49-.1.05-.21.06-.31.02Z"/>
    <path class="cls-6" d="M238.84,176.04c.23-.03.44.13.47.36.01.11-.01.22-.08.31l-1.7,2.32c-.1.14-.28.17-.42.07-.1-.07-.14-.19-.12-.3.11-.7-.21-1.53-.96-2.49-3.47-4.45-5.61-7.24-6.42-8.37-.2-.27-.14-.64.12-.84.14-.1.31-.14.48-.1,4.29.87,7.86,1.52,10.7,1.95.79.13,1.57-.03,2.35-.46.19-.11.43-.05.53.15.08.14.07.31-.02.43l-2.6,3.58c-.05.08-.16.1-.24.04-.03-.02-.05-.05-.06-.08-.39-.97-1.12-1.47-2.21-1.52-1.39-.05-2.52,1.36-2.52,3.15,0,.16.01.33.03.49.13,1.05,1.02,1.49,2.67,1.31ZM235.29,172.92l.98-1.6c.08-.12.04-.29-.08-.37l-.15-.09c-1.43-.88-2.87-1.13-3.22-.56-.35.57.52,1.74,1.95,2.62l.15.09c.13.08.29.04.37-.09Z"/>
    <path class="cls-5" d="M235.29,172.92c-.08.13-.24.17-.37.09l-.15-.09c-1.43-.88-2.3-2.05-1.95-2.62.35-.57,1.79-.32,3.22.56l.15.09c.12.08.16.25.08.37l-.98,1.6Z"/>
    <path class="cls-6" d="M215.06,187.3c-.12.02-.24-.05-.26-.17-.01-.07,0-.14.05-.19,1.16-1.29,2.22-2.27,3.18-2.93.28-.19.52-.42.72-.69,3.23-4.47,7.09-10.79,12.54-6.44,5.27,4.21,1.23,9.39-2.46,13.97-.12.16-.35.18-.51.06-.1-.08-.15-.2-.13-.33l.08-.75c.02-.2-.05-.4-.2-.53l-6.26-5.56c-.86-.78-2.18-.74-3,.08l-.55.55c-.7.7-.7,1.83,0,2.53l7.06,7.06c.23.23.23.61,0,.85-.13.13-.31.19-.49.17-5.28-.59-9.8-1.39-11.5-1.17-.24.03-.42.25-.39.49.01.1.06.19.13.26l4.33,4.33c.31.32.77.45,1.21.36l1.05-.23c.18-.04.35.07.39.25.02.11-.01.23-.09.31l-2.47,2.47c-.12.12-.32.13-.44,0-.07-.07-.11-.17-.09-.27.15-1.11-.07-1.97-.66-2.59-1.81-1.88-3.49-3.61-5.03-5.2-.65-.66-1.69-.74-2.43-.18l-.47.33c-.68.5-.84,1.46-.34,2.15l3.49,4.84c1.51,2.08,1.04,4.99-1.04,6.49,0,0,0,0,0,0l-.81.59c-1.9,1.37-4.55.96-5.95-.92l-3.58-4.81c-.42-.56-1.06-.9-1.75-.93h-.19c-.23,0-.43-.17-.43-.41,0-.14.06-.27.17-.35l3.6-2.65c.14-.1.33-.07.43.07.05.06.07.14.06.22l-.18,1.56c-.02.18.02.36.12.52,1.53,2.39,2.95,4.23,4.26,5.5,2.26,2.21,5.06.4,5.08-2.52,0-.35-.09-.71-.27-1.02-1.06-1.9-2.26-3.65-3.6-5.25-.67-.79-1.53-1.06-2.59-.8-.17.03-.33-.07-.37-.24-.02-.12.02-.24.12-.31l6.5-4.69c.19-.13.42-.2.66-.17l9.17,1.05c.27.03.51-.17.54-.44.01-.14-.04-.29-.14-.39l-3.97-3.97c-.24-.24-.6-.34-.94-.27l-1.35.29ZM222.52,181.45l6.99,5.3c.48.36,1.16.27,1.53-.21,0,0,0,0,0,0l.31-.4c1.5-1.98.99-4.9-1.15-6.52l-.99-.75c-2.14-1.62-5.09-1.34-6.59.64l-.31.41c-.36.48-.27,1.16.21,1.53,0,0,0,0,0,0Z"/>
    <path class="cls-5" d="M222.52,181.45c-.48-.36-.58-1.05-.21-1.53,0,0,0,0,0,0l.31-.41c1.5-1.98,4.45-2.26,6.59-.64l.99.75c2.14,1.62,2.65,4.54,1.15,6.52l-.31.4c-.36.48-1.05.58-1.53.21,0,0,0,0,0,0l-6.99-5.3Z"/>
    <path class="cls-6" d="M65.89,178.8c-.1-.17-.03-.38.14-.47.14-.08.33-.05.44.07l3.23,3.7c.11.13.1.32-.03.44-.07.06-.17.09-.26.07l-1.34-.24c-.29-.05-.58.03-.8.23l-6.47,5.65c-.31.28-.41.72-.25,1.1.79,1.87,2.23,2.48,4.34,1.83.17-.07.36,0,.43.17.06.15.01.32-.12.41-.66.55-1.35.94-2.07,1.16-.36.11-.75,0-1-.27l-5.35-6.13c-.11-.13-.1-.32.03-.44.07-.06.17-.09.26-.07l1.46.28c.37.06.75-.05,1.03-.3l6.44-5.63c.29-.25.36-.67.18-1.01l-.29-.55Z"/>
    <path class="cls-6" d="M73.61,186.27l3.67,3.27c.13.12.14.32.02.45-.06.07-.15.11-.24.1l-1.36-.07c-.29-.02-.57.1-.77.32l-5.72,6.43c-.27.31-.32.76-.12,1.12,1.02,1.77,2.54,2.19,4.55,1.28.16-.08.36-.02.44.15.06.13.04.28-.06.38-.59.63-1.23,1.11-1.92,1.42-.34.15-.74.09-1.02-.15l-6.08-5.42c-.13-.11-.14-.31-.02-.44.06-.07.15-.11.24-.1l1.48.09c.38.02.74-.14.99-.42l5.7-6.4c.26-.29.28-.71.05-1.03l-.36-.51c-.12-.15-.1-.37.06-.49.14-.11.34-.1.47.02Z"/>
    <path class="cls-6" d="M76.31,205.73l-2.15-1.92c-.13-.1-.15-.29-.05-.42.08-.1.21-.14.33-.1.69.18,1.55-.06,2.58-.71,4.78-3.03,7.78-4.89,8.99-5.58.29-.16.65-.06.82.23.08.14.1.31.05.46-1.29,4.2-2.29,7.7-3,10.49-.2.77-.12,1.56.23,2.39.09.2,0,.43-.19.52-.15.07-.32.04-.44-.07l-3.31-2.95c-.07-.06-.07-.17-.01-.24.02-.02.05-.04.08-.05,1-.29,1.58-.98,1.73-2.06.19-1.38-1.1-2.64-2.89-2.82-.17-.02-.33-.02-.5-.02-1.06.02-1.58.86-1.57,2.53,0,.23-.18.42-.41.43-.11,0-.21-.04-.29-.11ZM80.6,202.25l1.4,1.04c.1.07.25.05.32-.05l.08-.1c1.05-1.42,1.52-2.86,1.03-3.22,0,0,0,0,0,0h-.02c-.48-.37-1.72.48-2.78,1.9l-.08.11c-.07.1-.05.25.05.32Z"/>
    <path class="cls-5" d="M80.6,202.25c-.1-.07-.12-.22-.05-.32l.08-.11c1.06-1.42,2.3-2.27,2.78-1.91h.02c.49.37.03,1.8-1.03,3.22,0,0,0,0,0,0l-.08.1c-.07.1-.22.12-.32.05l-1.4-1.04Z"/>
    <path class="cls-6" d="M95.69,210.67l3.73,2.41c.16.11.21.32.1.48-.04.05-.09.1-.14.13-1.23.58-2.08,1.66-2.55,3.25-.12.38-.49.6-.88.53-2.72-.53-4.8-1.67-6.25-3.41-3.3-3.94-.92-9.64,3.99-10.41,2.46-.39,5.02.57,7.68,2.9.31.27.45.69.37,1.09-.15.77-.49,1.48-1.03,2.13-.11.14-.32.15-.45.04-.09-.07-.13-.19-.11-.3.37-1.98-.45-3.74-2.37-4.39-5.62-1.92-10.08,7.77-4.69,10.58.36.19.8.15,1.13-.09,1.75-1.32,2.08-2.8.98-4.45-.12-.15-.08-.37.07-.49.12-.09.3-.09.42,0Z"/>
    <path class="cls-6" d="M200.25,210.44c0,3.67-2.97,6.64-6.64,6.64h0c-3.67,0-6.64-2.97-6.64-6.64h0c0-3.67,2.97-6.64,6.64-6.64s6.64,2.97,6.64,6.64ZM190.58,205.44c-1.73,1.06-1.79,4.14-.11,6.88,1.67,2.74,4.43,4.1,6.17,3.04,0,0,0,0,0,0,1.73-1.06,1.79-4.14.11-6.88-1.67-2.74-4.43-4.1-6.17-3.04,0,0,0,0,0,0Z"/>
    <ellipse class="cls-5" cx="193.6" cy="210.39" rx="3.68" ry="5.81" transform="translate(-81.26 131.68) rotate(-31.4)"/>
    <path class="cls-6" d="M104.77,207.68l7.12,2.74c.44.17.72.62.68,1.09-.05.54-.23,1.08-.52,1.61-.09.17-.29.23-.46.15-.1-.05-.17-.15-.18-.27-.24-1.81-1.29-2.78-3.15-2.92-.33-.03-.64.17-.76.48l-1.2,3.13c-.12.32.02.69.33.84,1.25.61,2.34.6,3.27-.01.15-.1.34-.06.45.08.06.09.07.2.03.3l-1.01,2.62c-.06.17-.25.25-.41.19-.09-.03-.16-.1-.19-.19-.38-1.06-1.21-1.76-2.49-2.1-.33-.09-.67.09-.79.4l-1.22,3.18c-.16.4-.01.87.35,1.12,1.92,1.33,3.59,1.27,5.02-.2.14-.13.35-.12.48.02.07.07.1.17.09.27-.13.82-.57,1.51-1.31,2.07-.3.23-.7.29-1.06.15l-7.8-3c-.15-.06-.22-.23-.16-.38.04-.09.11-.15.2-.17l.96-.2c.42-.09.77-.39.93-.8l3.05-7.93c.18-.46.05-.99-.32-1.32l-.33-.3c-.16-.15-.16-.4-.01-.55.11-.11.27-.15.41-.1Z"/>
    <path class="cls-6" d="M175.72,212.1c-.16-.02-.27-.16-.26-.32.01-.11.08-.2.19-.24l7.51-2.86c.3-.11.64-.01.83.24.37.5.68,1.13.91,1.89.05.15-.04.31-.2.36-.06.02-.13.02-.19-.01-.33-.14-.64-.34-.94-.59-1.02-.89-2.46-.37-3.55.33-.29.19-.41.56-.29.88l1.21,3.19c.12.31.44.49.76.43,1.59-.27,2.49-.99,2.68-2.15.03-.16.18-.26.34-.23.08.02.15.06.19.13.62,1.02,1,1.92,1.14,2.71.03.17-.08.33-.25.36-.08.01-.16,0-.22-.04-1.09-.63-2.26-.55-3.51.26-.28.18-.39.53-.27.84l1.09,2.82c.14.35.45.6.83.64.03,0,.32.06.87.17.21.05.34.26.29.47-.03.12-.11.22-.23.27l-4.27,1.62c-.17.06-.36-.02-.43-.18-.03-.09-.03-.18.02-.27l.38-.76c.21-.41.23-.89.07-1.32l-2.98-7.85c-.15-.38-.49-.65-.89-.69l-.83-.1Z"/>
    <path class="cls-6" d="M152.32,216.09l3.5-.16c.14,0,.28-.03.41-.07,2.71-.79,5.24-1.32,7.59-1.59,2.92-.33,5.01,2.75,2.07,5.02-.16.12-.19.36-.06.52.04.05.09.09.15.12.1.04.55.15,1.34.34,1.99.46,2.28,2.84,1.2,4.3-1.79,2.44-5.76,2.81-8.61,3.18-.17.03-.33-.09-.35-.26-.01-.1.02-.2.09-.28.67-.66.93-.99.73-2.03-.21-1.1-.68-3.69-1.41-7.78-.15-.83-.94-1.39-1.77-1.24-.1.02-.19.04-.28.08l-.21.08c-.96.38-1.57,1.33-1.52,2.36.25,4.84.95,10.65-5.46,10.31-2.49-.13-3.89-1.39-4.2-3.77-.33-2.51-.44-4.83-.34-6.96.02-.44-.25-.85-.66-1.01l-.71-.27c-.14-.06-.21-.22-.16-.36.04-.1.12-.16.23-.17l4.72-.42c.2-.02.39.13.41.33.01.11-.02.21-.1.29l-.98,1.1c-.2.22-.3.52-.29.82.08,2.29.19,4.27.33,5.92.35,4.26,5.88,4.23,6.16.3.25-3.49.16-5.8-.25-6.91-.25-.67-.79-1.1-1.62-1.28-.14-.04-.22-.18-.18-.32.03-.11.12-.18.23-.19ZM161.27,216.17l.52,3.34c.06.38.41.65.79.59,0,0,0,0,0,0l.16-.03c1.32-.21,2.23-1.37,2.04-2.6,0,0,0,0,0,0l-.04-.27c-.19-1.23-1.42-2.06-2.74-1.85,0,0,0,0,0,0l-.16.02c-.38.06-.64.42-.58.8ZM162.31,221.86l.77,3.66c.09.43.51.7.94.61l.36-.07c1.45-.31,2.38-1.7,2.08-3.1l-.03-.13c-.29-1.4-1.7-2.3-3.15-2l-.36.08c-.43.09-.7.52-.61.95Z"/>
    <path class="cls-6" d="M122.01,220.3c-.48,2.79.09,4.82,2.57,6.12,1.16.61,2.62.4,3.66-.53.55-.49,1.02-.89,1.4-1.21.13-.1.31-.08.41.04.05.07.07.15.05.24-.39,1.54-.87,2.78-2.56,2.8-4.61.05-9.34-2.76-8.46-7.95s6.28-6.29,10.61-4.73c1.59.58,1.63,1.91,1.49,3.49-.02.15-.16.26-.32.23-.08-.01-.15-.06-.2-.12-.25-.43-.56-.96-.93-1.6-.68-1.22-1.98-1.9-3.28-1.71-2.77.42-3.97,2.15-4.44,4.93Z"/>
    <path class="cls-5" d="M161.27,216.17c-.06-.38.2-.74.58-.8l.16-.02c1.32-.21,2.55.62,2.74,1.85,0,0,0,0,0,0l.04.27c.19,1.23-.72,2.39-2.04,2.6,0,0,0,0,0,0l-.16.03c-.38.06-.74-.2-.8-.58,0,0,0,0,0,0l-.52-3.34Z"/>
    <path class="cls-6" d="M133.17,216.28c-.19-.07-.29-.27-.22-.46.05-.15.19-.24.34-.24l4.92.23c.18.01.31.16.3.33,0,.1-.05.18-.13.24l-1.1.8c-.24.17-.38.44-.4.73l-.4,8.61c-.02.42.23.8.62.95,1.91.73,3.35.11,4.34-1.87.07-.17.27-.24.43-.17.13.06.21.2.2.34-.05.87-.25,1.64-.6,2.32-.17.33-.51.53-.88.52l-8.15-.38c-.17,0-.3-.15-.3-.32,0-.09.05-.18.13-.24l1.21-.86c.3-.23.49-.58.5-.95l.4-8.58c.02-.38-.24-.73-.61-.83l-.6-.17Z"/>
    <path class="cls-5" d="M162.31,221.86c-.09-.43.18-.86.61-.95l.36-.08c1.45-.3,2.86.6,3.15,2l.03.13c.3,1.4-.63,2.79-2.08,3.1l-.36.07c-.43.09-.85-.18-.94-.61l-.77-3.66Z"/>
  </g>
</svg>